M48
;Layer_Color=9474304
;FILE_FORMAT=2:4
INCH,TZ
;TYPE=PLATED
T01F00S00C0.0118
T02F00S00C0.0350
T03F00S00C0.0354
T04F00S00C0.0380
T05F00S00C0.0402
T06F00S00C0.0630
;TYPE=NON_PLATED
T07F00S00C0.1260
T08F00S00C0.1280
%
T01
X4641Y-770
X709Y5315
X389Y5039
X924Y6115
X6260Y6110
X6024Y5276
X5709Y5039
X6919Y4257
X8110Y3465
X8191Y2564
X9211Y2561
X10234Y2565
X10839Y2277
X10833Y1107
X10236Y827
X9213
X8189
X8110Y-770
X8744Y-787
X9055
X9367Y-786
X9665Y-687
X10599Y-770
X10549Y-73
X11575Y315
X11890Y591
X12205Y315
X12708Y1102
X13425Y1220
X12693Y2292
X12771Y3941
X13289Y4331
X14449Y4331
X14449Y4829
X15723Y4132
X16159Y3625
X16414Y5292
X16398Y6842
X17008Y6693
X18375Y6495
X13713Y6772
X13303Y6410
X12561Y5408
X10934Y4853
X10938Y4315
X9838Y4302
X9090Y3982
X9850Y6333
X10251Y6741
X15646Y1535
X16691
X16850Y1299
X16850Y1850
X17239Y-787
X17554
X17869Y-503
X18268Y-709
X19129Y-787
X19444
X19816Y-709
X20074Y-448
X20389Y-787
X20704
X16294
X15039Y-770
X13780Y-787
X6850
X6535Y-770
X5906
X22628Y-709
X22283Y-354
X21654Y1142
X23780Y2087
X23644Y4934
X24143Y4935
X22652Y4931
X22157Y4925
X22397Y4605
X22402Y4016
X21417
X25485Y4016
X26495Y4030
X26493Y4594
X26700Y5656
X26206Y5658
X27705Y5654
X28195Y5646
X28703Y7032
X24646Y7077
X23661Y7087
X23150
X22165
X21654
X22909Y10368
X22492Y11344
X22161Y12097
X22165Y12559
X23189
X25679Y12603
X25673Y12119
X25988Y11369
X26398Y10399
X25642Y10096
X26693Y12559
X20984Y11181
X20157Y11575
X19488Y12008
X19213Y12795
X19173Y13268
X20197
X16575
X15571Y13278
X15561Y12777
X15906Y12008
X16505Y11582
X17417Y11192
X18440Y10236
X18658Y9481
X18746Y8949
X19370Y8543
X19213Y7913
X20263Y8150
X19449Y10236
X16968Y7283
X16929Y6969
X14310Y6907
X14672Y8046
X13789Y8408
X13228Y8858
X12913Y9646
Y10157
X13937
X13898Y11220
X13060Y11593
X12402Y12047
X12084Y12825
X12076Y13286
X13100
X9882Y13268
X8857Y13278
X8853Y12797
X9173Y12008
X9285Y10257
X9291Y9764
X9606Y9016
X8715Y8993
X8701Y7480
X6940Y8178
X6575Y8740
X5945Y9843
X5630Y9567
X6193Y10646
X6220Y11417
X5649Y11423
X6850Y12559
X10709Y11181
X10263Y10270
X11142Y8189
X10824Y6917
X5827Y6890
X5276
X4646Y8189
X1614
X1311Y8808
X587Y8543
X341
X295Y9606
X591Y9882
X839Y10716
X906Y11614
X315
X-787Y12835
X1522Y12838
X4567Y12559
X-591Y8722
X-669Y8189
X-39Y6890
X490Y6880
X-551Y18071
T02
X21254Y17134
X22323Y18866
X23323
X24254Y17134
X25254
X26323Y18866
X28254Y17134
X20254Y17134
X19323Y18866
X18323
X17254Y17134
X16254Y17134
X15323Y18866
X14323
X13254Y17134
X12254
X11323Y18866
X9254Y17134
T03
X5705Y13882
X4705
X3705
X2705
X2205Y14882
X3205
X4205
X5205
T04
X21254Y14134
X22254
X23254
X24254
X25254
X26254
X27254
X28254
X26323Y15866
X25323
X24323
X23323
X22323
X21323
X20323
X19323
X18323
X17323
X16323
X15323
X14323
X13323
X12323
X11323
X11254Y14134
X10254
X9254
X12254
X13254
X14254
X15254
X16254
X17254Y14134
X18254
X19254
X20254
T05
X4823Y909
Y1909
Y2909
X5823
Y1909
Y909
T06
X6998Y18560
X906
T07
X16741Y9632
T08
X6207Y17382
X1707
M30
