ISO-10303-21;
HEADER;
FILE_DESCRIPTION (( 'STEP AP203' ),
    '1' );
FILE_NAME ('PCB_Mounting.STEP',
    '2025-05-29T15:03:21',
    ( '' ),
    ( '' ),
    'SwSTEP 2.0',
    'SolidWorks 2024',
    '' );
FILE_SCHEMA (( 'CONFIG_CONTROL_DESIGN' ));
ENDSEC;

DATA;
#1 = VERTEX_POINT ( 'NONE', #127 ) ;
#2 = VECTOR ( 'NONE', #190, 1000.000000000000000 ) ;
#3 = VECTOR ( 'NONE', #489, 1000.000000000000000 ) ;
#4 = LINE ( 'NONE', #304, #281 ) ;
#5 = ORIENTED_EDGE ( 'NONE', *, *, #210, .F. ) ;
#6 = EDGE_LOOP ( 'NONE', ( #434, #340, #339, #10 ) ) ;
#7 = ADVANCED_FACE ( 'NONE', ( #440 ), #178, .F. ) ;
#8 = VERTEX_POINT ( 'NONE', #444 ) ;
#9 = ORIENTED_EDGE ( 'NONE', *, *, #512, .T. ) ;
#10 = ORIENTED_EDGE ( 'NONE', *, *, #149, .T. ) ;
#11 = EDGE_CURVE ( 'NONE', #392, #1, #586, .T. ) ;
#12 = DIRECTION ( 'NONE',  ( -1.000000000000000000, -0.000000000000000000, -0.000000000000000000 ) ) ;
#13 = VERTEX_POINT ( 'NONE', #502 ) ;
#14 = CIRCLE ( 'NONE', #86, 1.599999999999999867 ) ;
#15 = ORIENTED_EDGE ( 'NONE', *, *, #11, .F. ) ;
#16 = VECTOR ( 'NONE', #268, 1000.000000000000000 ) ;
#17 = VECTOR ( 'NONE', #28, 1000.000000000000000 ) ;
#18 = CARTESIAN_POINT ( 'NONE',  ( 0.000000000000000000, 31.01766702750422766, -84.22332506203477465 ) ) ;
#19 = FACE_OUTER_BOUND ( 'NONE', #244, .T. ) ;
#20 = VERTEX_POINT ( 'NONE', #211 ) ;
#21 = APPLICATION_PROTOCOL_DEFINITION ( 'international standard', 'config_control_design', 1994, #535 ) ;
#22 = CARTESIAN_POINT ( 'NONE',  ( 0.000000000000000000, 31.01766702750422766, -82.22332506203476044 ) ) ;
#23 = CARTESIAN_POINT ( 'NONE',  ( 8.000000000000000000, 21.01766702750422766, -84.22332506203477465 ) ) ;
#24 = EDGE_LOOP ( 'NONE', ( #155, #289, #53, #113, #104, #247, #286, #582, #479, #528, #380 ) ) ;
#25 = CC_DESIGN_DATE_AND_TIME_ASSIGNMENT ( #598, #214, ( #245 ) ) ;
#26 = CALENDAR_DATE ( 2025, 29, 5 ) ;
#27 = DIRECTION ( 'NONE',  ( 1.000000000000000000, 0.000000000000000000, 0.000000000000000000 ) ) ;
#28 = DIRECTION ( 'NONE',  ( 0.000000000000000000, 0.000000000000000000, -1.000000000000000000 ) ) ;
#29 = APPROVAL_ROLE ( '' ) ;
#30 = ORGANIZATION ( 'UNSPECIFIED', 'UNSPECIFIED', '' ) ;
#31 = DIRECTION ( 'NONE',  ( 1.000000000000000000, -0.000000000000000000, 0.000000000000000000 ) ) ;
#32 = PLANE ( 'NONE',  #443 ) ;
#33 = PERSON_AND_ORGANIZATION ( #147, #30 ) ;
#34 = DIRECTION ( 'NONE',  ( -0.000000000000000000, 1.000000000000000000, 0.000000000000000000 ) ) ;
#35 = MECHANICAL_CONTEXT ( 'NONE', #572, 'mechanical' ) ;
#36 = EDGE_CURVE ( 'NONE', #240, #521, #410, .T. ) ;
#37 = LINE ( 'NONE', #516, #493 ) ;
#38 = VECTOR ( 'NONE', #68, 1000.000000000000000 ) ;
#39 = DIRECTION ( 'NONE',  ( -0.000000000000000000, -0.000000000000000000, 1.000000000000000000 ) ) ;
#40 = CARTESIAN_POINT ( 'NONE',  ( 8.000000000000000000, 31.01766702750422766, -82.22332506203476044 ) ) ;
#41 = FACE_OUTER_BOUND ( 'NONE', #297, .T. ) ;
#42 = APPROVAL ( #177, 'UNSPECIFIED' ) ;
#43 = CARTESIAN_POINT ( 'NONE',  ( 4.000000000000000000, 28.01766702750422766, -84.22332506203477465 ) ) ;
#44 = LINE ( 'NONE', #234, #456 ) ;
#45 = EDGE_CURVE ( 'NONE', #588, #151, #595, .T. ) ;
#46 = CARTESIAN_POINT ( 'NONE',  ( 4.000000000000000000, -2.000000000000000000, -65.22332506203477465 ) ) ;
#47 = CARTESIAN_POINT ( 'NONE',  ( 8.000000000000000000, 31.01766702750422766, -84.22332506203477465 ) ) ;
#48 = AXIS2_PLACEMENT_3D ( 'NONE', #260, #353, #115 ) ;
#49 = ORIENTED_EDGE ( 'NONE', *, *, #109, .T. ) ;
#50 = EDGE_CURVE ( 'NONE', #259, #102, #602, .T. ) ;
#51 = VERTEX_POINT ( 'NONE', #449 ) ;
#52 = EDGE_LOOP ( 'NONE', ( #507, #97, #575, #366 ) ) ;
#53 = ORIENTED_EDGE ( 'NONE', *, *, #600, .F. ) ;
#54 = EDGE_LOOP ( 'NONE', ( #71, #202, #93, #101 ) ) ;
#55 = AXIS2_PLACEMENT_3D ( 'NONE', #508, #261, #179 ) ;
#56 = AXIS2_PLACEMENT_3D ( 'NONE', #43, #363, #321 ) ;
#57 = ORIENTED_EDGE ( 'NONE', *, *, #210, .T. ) ;
#58 = FACE_BOUND ( 'NONE', #532, .T. ) ;
#59 = ORIENTED_EDGE ( 'NONE', *, *, #571, .T. ) ;
#60 = ORIENTED_EDGE ( 'NONE', *, *, #187, .F. ) ;
#61 = EDGE_CURVE ( 'NONE', #457, #442, #534, .T. ) ;
#62 = FACE_OUTER_BOUND ( 'NONE', #198, .T. ) ;
#63 = ORIENTED_EDGE ( 'NONE', *, *, #527, .T. ) ;
#64 =( LENGTH_UNIT ( ) NAMED_UNIT ( * ) SI_UNIT ( .MILLI., .METRE. ) );
#65 = LINE ( 'NONE', #18, #200 ) ;
#66 = ORIENTED_EDGE ( 'NONE', *, *, #600, .T. ) ;
#67 = AXIS2_PLACEMENT_3D ( 'NONE', #361, #453, #551 ) ;
#68 = DIRECTION ( 'NONE',  ( -0.000000000000000000, -0.000000000000000000, 1.000000000000000000 ) ) ;
#69 = EDGE_CURVE ( 'NONE', #154, #121, #65, .T. ) ;
#70 = PLANE ( 'NONE',  #150 ) ;
#71 = ORIENTED_EDGE ( 'NONE', *, *, #468, .T. ) ;
#72 = PERSON_AND_ORGANIZATION ( #147, #30 ) ;
#73 = FACE_OUTER_BOUND ( 'NONE', #158, .T. ) ;
#74 = CARTESIAN_POINT ( 'NONE',  ( 8.000000000000000000, 21.01766702750422766, -74.22332506203478886 ) ) ;
#75 = LINE ( 'NONE', #85, #231 ) ;
#76 = CARTESIAN_POINT ( 'NONE',  ( 4.000000000000000000, 28.01766702750422766, -84.22332506203477465 ) ) ;
#77 = CARTESIAN_POINT ( 'NONE',  ( 4.000000000000000000, -2.000000000000000000, -63.22332506203477465 ) ) ;
#78 = CARTESIAN_POINT ( 'NONE',  ( 8.000000000000000000, 2.500000000000000000, -70.22332506203478886 ) ) ;
#79 = PLANE ( 'NONE',  #67 ) ;
#80 = ADVANCED_FACE ( 'NONE', ( #219 ), #166, .F. ) ;
#81 = LINE ( 'NONE', #270, #275 ) ;
#82 = DIRECTION ( 'NONE',  ( 0.000000000000000000, -1.000000000000000000, 0.000000000000000000 ) ) ;
#83 = DIRECTION ( 'NONE',  ( 0.000000000000000000, 1.000000000000000000, 0.000000000000000000 ) ) ;
#84 = LINE ( 'NONE', #421, #173 ) ;
#85 = CARTESIAN_POINT ( 'NONE',  ( 8.000000000000000000, 25.01766702750422766, -82.22332506203477465 ) ) ;
#86 = AXIS2_PLACEMENT_3D ( 'NONE', #355, #125, #105 ) ;
#87 = CC_DESIGN_APPROVAL ( #42, ( #467 ) ) ;
#88 = FACE_OUTER_BOUND ( 'NONE', #378, .T. ) ;
#89 = EDGE_CURVE ( 'NONE', #330, #447, #569, .T. ) ;
#90 = DIRECTION ( 'NONE',  ( 0.000000000000000000, 0.000000000000000000, -1.000000000000000000 ) ) ;
#91 = CARTESIAN_POINT ( 'NONE',  ( 4.000000000000000000, -10.00000000000000000, -67.22332506203477465 ) ) ;
#92 = DIRECTION ( 'NONE',  ( 0.000000000000000000, -0.7071067811865479058, -0.7071067811865472397 ) ) ;
#93 = ORIENTED_EDGE ( 'NONE', *, *, #441, .F. ) ;
#94 = LINE ( 'NONE', #282, #394 ) ;
#95 = VECTOR ( 'NONE', #12, 1000.000000000000000 ) ;
#96 = APPROVAL_PERSON_ORGANIZATION ( #405, #42, #29 ) ;
#97 = ORIENTED_EDGE ( 'NONE', *, *, #512, .F. ) ;
#98 = VECTOR ( 'NONE', #498, 1000.000000000000000 ) ;
#99 = ADVANCED_FACE ( 'NONE', ( #73 ), #538, .F. ) ;
#100 = ORIENTED_EDGE ( 'NONE', *, *, #61, .F. ) ;
#101 = ORIENTED_EDGE ( 'NONE', *, *, #518, .T. ) ;
#102 = VERTEX_POINT ( 'NONE', #299 ) ;
#103 = DESIGN_CONTEXT ( 'detailed design', #535, 'design' ) ;
#104 = ORIENTED_EDGE ( 'NONE', *, *, #461, .F. ) ;
#105 = DIRECTION ( 'NONE',  ( 1.000000000000000000, 0.000000000000000000, 0.000000000000000000 ) ) ;
#106 = ORIENTED_EDGE ( 'NONE', *, *, #389, .T. ) ;
#107 = LOCAL_TIME ( 17, 3, 21.00000000000000000, #305 ) ;
#108 = PRODUCT_DEFINITION_FORMATION_WITH_SPECIFIED_SOURCE ( 'ANY', '', #525, .NOT_KNOWN. ) ;
#109 = EDGE_CURVE ( 'NONE', #284, #588, #546, .T. ) ;
#110 = ORIENTED_EDGE ( 'NONE', *, *, #518, .F. ) ;
#111 = DIRECTION ( 'NONE',  ( 0.000000000000000000, 0.000000000000000000, 1.000000000000000000 ) ) ;
#112 = DIRECTION ( 'NONE',  ( -1.000000000000000000, 0.000000000000000000, -0.000000000000000000 ) ) ;
#113 = ORIENTED_EDGE ( 'NONE', *, *, #604, .F. ) ;
#114 = ORIENTED_EDGE ( 'NONE', *, *, #164, .F. ) ;
#115 = DIRECTION ( 'NONE',  ( 0.000000000000000000, 0.000000000000000000, 1.000000000000000000 ) ) ;
#116 = CALENDAR_DATE ( 2025, 29, 5 ) ;
#117 = EDGE_CURVE ( 'NONE', #102, #485, #452, .T. ) ;
#118 = ORIENTED_EDGE ( 'NONE', *, *, #307, .F. ) ;
#119 = CARTESIAN_POINT ( 'NONE',  ( 8.000000000000000000, 31.01766702750422766, -82.22332506203476044 ) ) ;
#120 = VECTOR ( 'NONE', #144, 1000.000000000000000 ) ;
#121 = VERTEX_POINT ( 'NONE', #22 ) ;
#122 = AXIS2_PLACEMENT_3D ( 'NONE', #425, #375, #193 ) ;
#123 = SECURITY_CLASSIFICATION_LEVEL ( 'unclassified' ) ;
#124 = DIRECTION ( 'NONE',  ( 1.000000000000000000, 0.000000000000000000, 0.000000000000000000 ) ) ;
#125 = DIRECTION ( 'NONE',  ( 0.000000000000000000, 0.000000000000000000, 1.000000000000000000 ) ) ;
#126 = APPROVAL_STATUS ( 'not_yet_approved' ) ;
#127 = CARTESIAN_POINT ( 'NONE',  ( 0.000000000000000000, -2.000000000000000000, -74.22332506203478886 ) ) ;
#128 = DIRECTION ( 'NONE',  ( -0.000000000000000000, -1.000000000000000000, -2.312964634635743450E-15 ) ) ;
#129 = ADVANCED_FACE ( 'NONE', ( #487 ), #175, .F. ) ;
#130 = LINE ( 'NONE', #314, #136 ) ;
#131 = APPROVAL_DATE_TIME ( #359, #42 ) ;
#132 = FACE_OUTER_BOUND ( 'NONE', #6, .T. ) ;
#133 = DIRECTION ( 'NONE',  ( -0.000000000000000000, -0.000000000000000000, 1.000000000000000000 ) ) ;
#134 = ADVANCED_FACE ( 'NONE', ( #357, #62 ), #490, .F. ) ;
#135 = VECTOR ( 'NONE', #264, 1000.000000000000000 ) ;
#136 = VECTOR ( 'NONE', #459, 1000.000000000000000 ) ;
#137 = CALENDAR_DATE ( 2025, 29, 5 ) ;
#138 = CARTESIAN_POINT ( 'NONE',  ( 8.000000000000000000, 0.000000000000000000, -60.22332506203478175 ) ) ;
#139 = CARTESIAN_POINT ( 'NONE',  ( 4.000000000000000000, -10.00000000000000000, -63.22332506203477465 ) ) ;
#140 = CARTESIAN_POINT ( 'NONE',  ( 8.000000000000000000, -2.000000000000000000, -60.22332506203478175 ) ) ;
#141 = CC_DESIGN_PERSON_AND_ORGANIZATION_ASSIGNMENT ( #585, #510, ( #245 ) ) ;
#142 = CARTESIAN_POINT ( 'NONE',  ( 0.000000000000000000, 0.000000000000000000, -60.22332506203478175 ) ) ;
#143 = AXIS2_PLACEMENT_3D ( 'NONE', #325, #191, #233 ) ;
#144 = DIRECTION ( 'NONE',  ( -1.000000000000000000, -0.000000000000000000, -0.000000000000000000 ) ) ;
#145 = DIRECTION ( 'NONE',  ( 0.000000000000000000, -0.000000000000000000, -1.000000000000000000 ) ) ;
#146 = LINE ( 'NONE', #142, #610 ) ;
#147 = PERSON ( 'UNSPECIFIED', 'UNSPECIFIED', 'UNSPECIFIED', ('UNSPECIFIED'), ('UNSPECIFIED'), ('UNSPECIFIED') ) ;
#148 = ORIENTED_EDGE ( 'NONE', *, *, #262, .F. ) ;
#149 = EDGE_CURVE ( 'NONE', #390, #536, #491, .T. ) ;
#150 = AXIS2_PLACEMENT_3D ( 'NONE', #433, #203, #216 ) ;
#151 = VERTEX_POINT ( 'NONE', #40 ) ;
#152 = EDGE_CURVE ( 'NONE', #1, #521, #81, .T. ) ;
#153 = ORIENTED_EDGE ( 'NONE', *, *, #613, .T. ) ;
#154 = VERTEX_POINT ( 'NONE', #277 ) ;
#155 = ORIENTED_EDGE ( 'NONE', *, *, #571, .F. ) ;
#156 = LINE ( 'NONE', #589, #352 ) ;
#157 = APPROVAL ( #165, 'UNSPECIFIED' ) ;
#158 = EDGE_LOOP ( 'NONE', ( #5, #615, #396, #248 ) ) ;
#159 = AXIS2_PLACEMENT_3D ( 'NONE', #76, #215, #124 ) ;
#160 = ORIENTED_EDGE ( 'NONE', *, *, #362, .T. ) ;
#161 = AXIS2_PLACEMENT_3D ( 'NONE', #473, #34, #228 ) ;
#162 = EDGE_LOOP ( 'NONE', ( #213, #57 ) ) ;
#163 = DIRECTION ( 'NONE',  ( 0.000000000000000000, 0.000000000000000000, 1.000000000000000000 ) ) ;
#164 = EDGE_CURVE ( 'NONE', #20, #392, #319, .T. ) ;
#165 = APPROVAL_STATUS ( 'not_yet_approved' ) ;
#166 = PLANE ( 'NONE',  #406 ) ;
#167 = CARTESIAN_POINT ( 'NONE',  ( 0.000000000000000000, -2.000000000000000000, -60.22332506203478175 ) ) ;
#168 = EDGE_LOOP ( 'NONE', ( #118, #227 ) ) ;
#169 = APPROVAL_ROLE ( '' ) ;
#170 = ORIENTED_EDGE ( 'NONE', *, *, #389, .F. ) ;
#171 = FACE_OUTER_BOUND ( 'NONE', #576, .T. ) ;
#172 = AXIS2_PLACEMENT_3D ( 'NONE', #251, #323, #515 ) ;
#173 = VECTOR ( 'NONE', #324, 1000.000000000000000 ) ;
#174 = PERSON_AND_ORGANIZATION ( #147, #30 ) ;
#175 = CYLINDRICAL_SURFACE ( 'NONE', #326, 1.599999999999999867 ) ;
#176 = DIRECTION ( 'NONE',  ( 0.000000000000000000, 0.000000000000000000, -1.000000000000000000 ) ) ;
#177 = APPROVAL_STATUS ( 'not_yet_approved' ) ;
#178 = PLANE ( 'NONE',  #291 ) ;
#179 = DIRECTION ( 'NONE',  ( 0.000000000000000000, 0.000000000000000000, 1.000000000000000000 ) ) ;
#180 = LINE ( 'NONE', #555, #184 ) ;
#181 = PERSON_AND_ORGANIZATION ( #147, #30 ) ;
#182 = CARTESIAN_POINT ( 'NONE',  ( 8.000000000000000000, 0.000000000000000000, -60.22332506203478175 ) ) ;
#183 = VECTOR ( 'NONE', #372, 1000.000000000000000 ) ;
#184 = VECTOR ( 'NONE', #133, 1000.000000000000000 ) ;
#185 = AXIS2_PLACEMENT_3D ( 'NONE', #593, #483, #458 ) ;
#186 = CARTESIAN_POINT ( 'NONE',  ( 5.599999999999999645, 28.01766702750422766, -82.22332506203483149 ) ) ;
#187 = EDGE_CURVE ( 'NONE', #8, #488, #561, .T. ) ;
#188 = DIRECTION ( 'NONE',  ( -1.000000000000000000, -0.000000000000000000, -0.000000000000000000 ) ) ;
#189 = CARTESIAN_POINT ( 'NONE',  ( 4.000000000000000000, 0.000000000000000000, -67.22332506203477465 ) ) ;
#190 = DIRECTION ( 'NONE',  ( 0.000000000000000000, 0.000000000000000000, -1.000000000000000000 ) ) ;
#191 = DIRECTION ( 'NONE',  ( 0.000000000000000000, 0.000000000000000000, 1.000000000000000000 ) ) ;
#192 = CC_DESIGN_APPROVAL ( #157, ( #108 ) ) ;
#193 = DIRECTION ( 'NONE',  ( 1.000000000000000000, 0.000000000000000000, 0.000000000000000000 ) ) ;
#194 = DIRECTION ( 'NONE',  ( 0.000000000000000000, -1.000000000000000000, 0.000000000000000000 ) ) ;
#195 = ORIENTED_EDGE ( 'NONE', *, *, #550, .T. ) ;
#196 = EDGE_CURVE ( 'NONE', #447, #536, #360, .T. ) ;
#197 = CARTESIAN_POINT ( 'NONE',  ( 0.000000000000000000, 25.01766702750422766, -70.22332506203478886 ) ) ;
#198 = EDGE_LOOP ( 'NONE', ( #59, #110, #438, #106 ) ) ;
#199 = EDGE_LOOP ( 'NONE', ( #312, #293, #100, #296 ) ) ;
#200 = VECTOR ( 'NONE', #398, 1000.000000000000000 ) ;
#201 = LOCAL_TIME ( 17, 3, 21.00000000000000000, #492 ) ;
#202 = ORIENTED_EDGE ( 'NONE', *, *, #362, .F. ) ;
#203 = DIRECTION ( 'NONE',  ( -0.000000000000000000, 1.000000000000000000, 0.000000000000000000 ) ) ;
#204 = ORIENTED_EDGE ( 'NONE', *, *, #149, .F. ) ;
#205 = ORIENTED_EDGE ( 'NONE', *, *, #616, .F. ) ;
#206 = ORIENTED_EDGE ( 'NONE', *, *, #69, .T. ) ;
#207 = AXIS2_PLACEMENT_3D ( 'NONE', #407, #295, #302 ) ;
#208 = CARTESIAN_POINT ( 'NONE',  ( 8.000000000000000000, 25.01766702750422766, -70.22332506203478886 ) ) ;
#209 = VECTOR ( 'NONE', #194, 1000.000000000000000 ) ;
#210 = EDGE_CURVE ( 'NONE', #447, #330, #465, .T. ) ;
#211 = CARTESIAN_POINT ( 'NONE',  ( 8.000000000000000000, -2.000000000000000000, -60.22332506203478175 ) ) ;
#212 = FACE_OUTER_BOUND ( 'NONE', #391, .T. ) ;
#213 = ORIENTED_EDGE ( 'NONE', *, *, #89, .T. ) ;
#214 = DATE_TIME_ROLE ( 'creation_date' ) ;
#215 = DIRECTION ( 'NONE',  ( 0.000000000000000000, 0.000000000000000000, 1.000000000000000000 ) ) ;
#216 = DIRECTION ( 'NONE',  ( 0.000000000000000000, -0.000000000000000000, 1.000000000000000000 ) ) ;
#217 = EDGE_CURVE ( 'NONE', #284, #13, #4, .T. ) ;
#218 = APPROVAL_DATE_TIME ( #221, #369 ) ;
#219 = FACE_OUTER_BOUND ( 'NONE', #54, .T. ) ;
#220 = CARTESIAN_POINT ( 'NONE',  ( 2.399999999999999911, 28.01766702750422766, -84.22332506203477465 ) ) ;
#221 = DATE_AND_TIME ( #350, #368 ) ;
#222 = CC_DESIGN_PERSON_AND_ORGANIZATION_ASSIGNMENT ( #501, #548, ( #108 ) ) ;
#223 = DIRECTION ( 'NONE',  ( 0.000000000000000000, 0.000000000000000000, -1.000000000000000000 ) ) ;
#224 = DIRECTION ( 'NONE',  ( 0.000000000000000000, 0.000000000000000000, 1.000000000000000000 ) ) ;
#225 = LINE ( 'NONE', #597, #316 ) ;
#226 = DATE_AND_TIME ( #455, #201 ) ;
#227 = ORIENTED_EDGE ( 'NONE', *, *, #428, .F. ) ;
#228 = DIRECTION ( 'NONE',  ( 0.000000000000000000, -0.000000000000000000, 1.000000000000000000 ) ) ;
#229 = FACE_OUTER_BOUND ( 'NONE', #430, .T. ) ;
#230 = ADVANCED_FACE ( 'NONE', ( #132 ), #385, .F. ) ;
#231 = VECTOR ( 'NONE', #454, 1000.000000000000000 ) ;
#232 = CARTESIAN_POINT ( 'NONE',  ( 0.000000000000000000, 0.000000000000000000, -67.72332506203477465 ) ) ;
#233 = DIRECTION ( 'NONE',  ( 1.000000000000000000, 0.000000000000000000, 0.000000000000000000 ) ) ;
#234 = CARTESIAN_POINT ( 'NONE',  ( 8.000000000000000000, 0.000000000000000000, -60.22332506203478175 ) ) ;
#235 = ADVANCED_FACE ( 'NONE', ( #358 ), #554, .T. ) ;
#236 = DIRECTION ( 'NONE',  ( 0.000000000000000000, -1.000000000000000000, 0.000000000000000000 ) ) ;
#237 = VECTOR ( 'NONE', #408, 1000.000000000000000 ) ;
#238 = CIRCLE ( 'NONE', #143, 1.599999999999999867 ) ;
#239 = ADVANCED_FACE ( 'NONE', ( #19 ), #503, .F. ) ;
#240 = VERTEX_POINT ( 'NONE', #495 ) ;
#241 = DIRECTION ( 'NONE',  ( -0.000000000000000000, -1.000000000000000000, -0.000000000000000000 ) ) ;
#242 = ORIENTED_EDGE ( 'NONE', *, *, #217, .F. ) ;
#243 = VERTEX_POINT ( 'NONE', #596 ) ;
#244 = EDGE_LOOP ( 'NONE', ( #612, #480, #335, #477 ) ) ;
#245 = PRODUCT_DEFINITION ( 'UNKNOWN', '', #108, #103 ) ;
#246 = APPROVAL_PERSON_ORGANIZATION ( #181, #157, #169 ) ;
#247 = ORIENTED_EDGE ( 'NONE', *, *, #69, .F. ) ;
#248 = ORIENTED_EDGE ( 'NONE', *, *, #445, .F. ) ;
#249 = EDGE_LOOP ( 'NONE', ( #530, #342, #384, #573 ) ) ;
#250 = ORIENTED_EDGE ( 'NONE', *, *, #318, .T. ) ;
#251 = CARTESIAN_POINT ( 'NONE',  ( 8.000000000000000000, 0.000000000000000000, -60.22332506203478175 ) ) ;
#252 = ADVANCED_FACE ( 'NONE', ( #574, #212 ), #79, .F. ) ;
#253 = LINE ( 'NONE', #258, #98 ) ;
#254 = CARTESIAN_POINT ( 'NONE',  ( 8.000000000000000000, 0.000000000000000000, 0.000000000000000000 ) ) ;
#255 = AXIS2_PLACEMENT_3D ( 'NONE', #267, #236, #374 ) ;
#256 = ORIENTED_EDGE ( 'NONE', *, *, #164, .T. ) ;
#257 = PERSON_AND_ORGANIZATION ( #147, #30 ) ;
#258 = CARTESIAN_POINT ( 'NONE',  ( 0.000000000000000000, 21.01766702750422766, -84.22332506203477465 ) ) ;
#259 = VERTEX_POINT ( 'NONE', #220 ) ;
#260 = CARTESIAN_POINT ( 'NONE',  ( 4.000000000000000000, -10.00000000000000000, -65.22332506203477465 ) ) ;
#261 = DIRECTION ( 'NONE',  ( -0.000000000000000000, 1.000000000000000000, -0.000000000000000000 ) ) ;
#262 = EDGE_CURVE ( 'NONE', #151, #457, #156, .T. ) ;
#263 = PERSON_AND_ORGANIZATION_ROLE ( 'design_owner' ) ;
#264 = DIRECTION ( 'NONE',  ( -0.000000000000000000, -0.000000000000000000, 1.000000000000000000 ) ) ;
#265 = FACE_OUTER_BOUND ( 'NONE', #52, .T. ) ;
#266 = DIRECTION ( 'NONE',  ( -0.000000000000000000, 1.000000000000000000, 0.000000000000000000 ) ) ;
#267 = CARTESIAN_POINT ( 'NONE',  ( 8.000000000000000000, 25.01766702750422766, -70.22332506203478886 ) ) ;
#268 = DIRECTION ( 'NONE',  ( -1.000000000000000000, -0.000000000000000000, -0.000000000000000000 ) ) ;
#269 = DATE_TIME_ROLE ( 'classification_date' ) ;
#270 = CARTESIAN_POINT ( 'NONE',  ( 0.000000000000000000, -2.000000000000000000, -74.22332506203478886 ) ) ;
#271 = LINE ( 'NONE', #276, #333 ) ;
#272 = LINE ( 'NONE', #607, #16 ) ;
#273 = CARTESIAN_POINT ( 'NONE',  ( 8.000000000000000000, 31.01766702750422766, -84.22332506203477465 ) ) ;
#274 = PLANE ( 'NONE',  #331 ) ;
#275 = VECTOR ( 'NONE', #418, 1000.000000000000000 ) ;
#276 = CARTESIAN_POINT ( 'NONE',  ( 8.000000000000000000, 0.000000000000000000, -67.72332506203477465 ) ) ;
#277 = CARTESIAN_POINT ( 'NONE',  ( 0.000000000000000000, 31.01766702750422766, -84.22332506203477465 ) ) ;
#278 = DIRECTION ( 'NONE',  ( -1.000000000000000000, -0.000000000000000000, -0.000000000000000000 ) ) ;
#279 = CC_DESIGN_DATE_AND_TIME_ASSIGNMENT ( #226, #269, ( #467 ) ) ;
#280 = ORIENTED_EDGE ( 'NONE', *, *, #401, .T. ) ;
#281 = VECTOR ( 'NONE', #450, 1000.000000000000000 ) ;
#282 = CARTESIAN_POINT ( 'NONE',  ( 0.000000000000000000, 2.500000000000000000, -70.22332506203478886 ) ) ;
#283 = AXIS2_PLACEMENT_3D ( 'NONE', #254, #547, #176 ) ;
#284 = VERTEX_POINT ( 'NONE', #23 ) ;
#285 = ADVANCED_FACE ( 'NONE', ( #171 ), #70, .F. ) ;
#286 = ORIENTED_EDGE ( 'NONE', *, *, #294, .F. ) ;
#287 = VERTEX_POINT ( 'NONE', #336 ) ;
#288 = PRODUCT_DEFINITION_SHAPE ( 'NONE', 'NONE',  #245 ) ;
#289 = ORIENTED_EDGE ( 'NONE', *, *, #613, .F. ) ;
#290 = CARTESIAN_POINT ( 'NONE',  ( 0.000000000000000000, 21.01766702750422766, -74.22332506203478886 ) ) ;
#291 = AXIS2_PLACEMENT_3D ( 'NONE', #306, #31, #223 ) ;
#292 = AXIS2_PLACEMENT_3D ( 'NONE', #517, #92, #606 ) ;
#293 = ORIENTED_EDGE ( 'NONE', *, *, #520, .F. ) ;
#294 = EDGE_CURVE ( 'NONE', #13, #154, #253, .T. ) ;
#295 = DIRECTION ( 'NONE',  ( -0.000000000000000000, 1.000000000000000000, 0.000000000000000000 ) ) ;
#296 = ORIENTED_EDGE ( 'NONE', *, *, #541, .T. ) ;
#297 = EDGE_LOOP ( 'NONE', ( #153, #170, #347, #426 ) ) ;
#298 = EDGE_CURVE ( 'NONE', #151, #121, #531, .T. ) ;
#299 = CARTESIAN_POINT ( 'NONE',  ( 5.599999999999999645, 28.01766702750422766, -84.22332506203477465 ) ) ;
#300 = ORIENTED_EDGE ( 'NONE', *, *, #117, .F. ) ;
#301 = CLOSED_SHELL ( 'NONE', ( #99, #583, #134, #80, #412, #239, #285, #332, #499, #252, #373, #591, #504, #235, #7, #129, #230 ) ) ;
#302 = DIRECTION ( 'NONE',  ( 0.000000000000000000, 0.000000000000000000, 1.000000000000000000 ) ) ;
#303 = VECTOR ( 'NONE', #417, 1000.000000000000000 ) ;
#304 = CARTESIAN_POINT ( 'NONE',  ( 8.000000000000000000, 21.01766702750422766, -84.22332506203477465 ) ) ;
#305 = COORDINATED_UNIVERSAL_TIME_OFFSET ( 1, 0, .AHEAD. ) ;
#306 = CARTESIAN_POINT ( 'NONE',  ( 0.000000000000000000, 0.000000000000000000, 0.000000000000000000 ) ) ;
#307 = EDGE_CURVE ( 'NONE', #485, #526, #14, .T. ) ;
#308 = DIRECTION ( 'NONE',  ( 0.000000000000000000, 0.000000000000000000, -1.000000000000000000 ) ) ;
#309 = CARTESIAN_POINT ( 'NONE',  ( 0.000000000000000000, 25.01766702750422766, -70.22332506203478886 ) ) ;
#310 = PERSON_AND_ORGANIZATION_ROLE ( 'classification_officer' ) ;
#311 = DIRECTION ( 'NONE',  ( 0.000000000000000000, 1.000000000000000000, 0.000000000000000000 ) ) ;
#312 = ORIENTED_EDGE ( 'NONE', *, *, #604, .T. ) ;
#313 = LINE ( 'NONE', #290, #432 ) ;
#314 = CARTESIAN_POINT ( 'NONE',  ( 8.000000000000000000, -2.000000000000000000, -74.22332506203478886 ) ) ;
#315 = DIRECTION ( 'NONE',  ( 0.000000000000000000, 0.000000000000000000, 1.000000000000000000 ) ) ;
#316 = VECTOR ( 'NONE', #317, 1000.000000000000000 ) ;
#317 = DIRECTION ( 'NONE',  ( -0.000000000000000000, -0.7071067811865472397, 0.7071067811865479058 ) ) ;
#318 = EDGE_CURVE ( 'NONE', #521, #13, #313, .T. ) ;
#319 = LINE ( 'NONE', #140, #2 ) ;
#320 = DIRECTION ( 'NONE',  ( -1.000000000000000000, -0.000000000000000000, -0.000000000000000000 ) ) ;
#321 = DIRECTION ( 'NONE',  ( 1.000000000000000000, 0.000000000000000000, 0.000000000000000000 ) ) ;
#322 = EDGE_CURVE ( 'NONE', #240, #284, #399, .T. ) ;
#323 = DIRECTION ( 'NONE',  ( 0.000000000000000000, -1.000000000000000000, 0.000000000000000000 ) ) ;
#324 = DIRECTION ( 'NONE',  ( -0.000000000000000000, -1.000000000000000000, -2.312964634635743450E-15 ) ) ;
#325 = CARTESIAN_POINT ( 'NONE',  ( 4.000000000000000000, 28.01766702750422766, -82.22332506203483149 ) ) ;
#326 = AXIS2_PLACEMENT_3D ( 'NONE', #402, #395, #27 ) ;
#327 = PLANE ( 'NONE',  #292 ) ;
#328 = EDGE_CURVE ( 'NONE', #536, #390, #370, .T. ) ;
#329 = LINE ( 'NONE', #47, #416 ) ;
#330 = VERTEX_POINT ( 'NONE', #77 ) ;
#331 = AXIS2_PLACEMENT_3D ( 'NONE', #466, #471, #145 ) ;
#332 = ADVANCED_FACE ( 'NONE', ( #58, #265 ), #32, .F. ) ;
#333 = VECTOR ( 'NONE', #320, 1000.000000000000000 ) ;
#334 = VERTEX_POINT ( 'NONE', #167 ) ;
#335 = ORIENTED_EDGE ( 'NONE', *, *, #550, .F. ) ;
#336 = CARTESIAN_POINT ( 'NONE',  ( 0.000000000000000000, 0.000000000000000000, -67.72332506203477465 ) ) ;
#337 = ADVANCED_BREP_SHAPE_REPRESENTATION ( 'PCB_Mounting', ( #470, #563 ), #354 ) ;
#338 =( NAMED_UNIT ( * ) SI_UNIT ( $, .STERADIAN. ) SOLID_ANGLE_UNIT ( ) );
#339 = ORIENTED_EDGE ( 'NONE', *, *, #445, .T. ) ;
#340 = ORIENTED_EDGE ( 'NONE', *, *, #89, .F. ) ;
#341 = CARTESIAN_POINT ( 'NONE',  ( 0.000000000000000000, 0.000000000000000000, 0.000000000000000000 ) ) ;
#342 = ORIENTED_EDGE ( 'NONE', *, *, #527, .F. ) ;
#343 = ORIENTED_EDGE ( 'NONE', *, *, #36, .T. ) ;
#344 = ORIENTED_EDGE ( 'NONE', *, *, #541, .F. ) ;
#345 = DIRECTION ( 'NONE',  ( 0.000000000000000000, 0.000000000000000000, -1.000000000000000000 ) ) ;
#346 = EDGE_LOOP ( 'NONE', ( #66, #60, #205, #397 ) ) ;
#347 = ORIENTED_EDGE ( 'NONE', *, *, #566, .F. ) ;
#348 = CARTESIAN_POINT ( 'NONE',  ( 8.000000000000000000, 0.000000000000000000, -60.22332506203478175 ) ) ;
#349 = ORIENTED_EDGE ( 'NONE', *, *, #45, .T. ) ;
#350 = CALENDAR_DATE ( 2025, 29, 5 ) ;
#351 = CC_DESIGN_PERSON_AND_ORGANIZATION_ASSIGNMENT ( #257, #263, ( #525 ) ) ;
#352 = VECTOR ( 'NONE', #128, 1000.000000000000000 ) ;
#353 = DIRECTION ( 'NONE',  ( -0.000000000000000000, 1.000000000000000000, -0.000000000000000000 ) ) ;
#354 =( GEOMETRIC_REPRESENTATION_CONTEXT ( 3 ) GLOBAL_UNCERTAINTY_ASSIGNED_CONTEXT ( ( #387 ) ) GLOBAL_UNIT_ASSIGNED_CONTEXT ( ( #64, #429, #338 ) ) REPRESENTATION_CONTEXT ( 'NONE', 'WORKASPACE' ) );
#355 = CARTESIAN_POINT ( 'NONE',  ( 4.000000000000000000, 28.01766702750422766, -82.22332506203483149 ) ) ;
#356 = COORDINATED_UNIVERSAL_TIME_OFFSET ( 1, 0, .AHEAD. ) ;
#357 = FACE_BOUND ( 'NONE', #388, .T. ) ;
#358 = FACE_OUTER_BOUND ( 'NONE', #486, .T. ) ;
#359 = DATE_AND_TIME ( #137, #475 ) ;
#360 = LINE ( 'NONE', #91, #381 ) ;
#361 = CARTESIAN_POINT ( 'NONE',  ( 8.000000000000000000, 25.01766702750422766, -82.22332506203477465 ) ) ;
#362 = EDGE_CURVE ( 'NONE', #20, #334, #543, .T. ) ;
#363 = DIRECTION ( 'NONE',  ( 0.000000000000000000, 0.000000000000000000, 1.000000000000000000 ) ) ;
#364 = DIRECTION ( 'NONE',  ( 0.000000000000000000, 0.000000000000000000, 1.000000000000000000 ) ) ;
#365 = AXIS2_PLACEMENT_3D ( 'NONE', #46, #266, #364 ) ;
#366 = ORIENTED_EDGE ( 'NONE', *, *, #217, .T. ) ;
#367 = CARTESIAN_POINT ( 'NONE',  ( 8.000000000000000000, -2.000000000000000000, -74.22332506203478886 ) ) ;
#368 = LOCAL_TIME ( 17, 3, 21.00000000000000000, #356 ) ;
#369 = APPROVAL ( #126, 'UNSPECIFIED' ) ;
#370 = CIRCLE ( 'NONE', #185, 2.000000000000001776 ) ;
#371 = CARTESIAN_POINT ( 'NONE',  ( 0.000000000000000000, 2.500000000000000000, -70.22332506203478886 ) ) ;
#372 = DIRECTION ( 'NONE',  ( -1.000000000000000000, -0.000000000000000000, -0.000000000000000000 ) ) ;
#373 = ADVANCED_FACE ( 'NONE', ( #519 ), #511, .F. ) ;
#374 = DIRECTION ( 'NONE',  ( 0.000000000000000000, -0.000000000000000000, -1.000000000000000000 ) ) ;
#375 = DIRECTION ( 'NONE',  ( -0.000000000000000000, -0.000000000000000000, 1.000000000000000000 ) ) ;
#376 = DIRECTION ( 'NONE',  ( -0.000000000000000000, 1.000000000000000000, -0.000000000000000000 ) ) ;
#377 = DIRECTION ( 'NONE',  ( -1.000000000000000000, 0.000000000000000000, -0.000000000000000000 ) ) ;
#378 = EDGE_LOOP ( 'NONE', ( #206, #383, #524, #9 ) ) ;
#379 = LINE ( 'NONE', #232, #303 ) ;
#380 = ORIENTED_EDGE ( 'NONE', *, *, #468, .F. ) ;
#381 = VECTOR ( 'NONE', #472, 1000.000000000000000 ) ;
#382 = CIRCLE ( 'NONE', #56, 1.599999999999999867 ) ;
#383 = ORIENTED_EDGE ( 'NONE', *, *, #298, .F. ) ;
#384 = ORIENTED_EDGE ( 'NONE', *, *, #117, .T. ) ;
#385 = CYLINDRICAL_SURFACE ( 'NONE', #55, 2.000000000000001776 ) ;
#386 = ORIENTED_EDGE ( 'NONE', *, *, #428, .T. ) ;
#387 = UNCERTAINTY_MEASURE_WITH_UNIT (LENGTH_MEASURE( 1.000000000000000082E-05 ), #64, 'distance_accuracy_value', 'NONE');
#388 = EDGE_LOOP ( 'NONE', ( #204, #567 ) ) ;
#389 = EDGE_CURVE ( 'NONE', #540, #287, #271, .T. ) ;
#390 = VERTEX_POINT ( 'NONE', #462 ) ;
#391 = EDGE_LOOP ( 'NONE', ( #568, #344, #148, #578 ) ) ;
#392 = VERTEX_POINT ( 'NONE', #367 ) ;
#393 = CARTESIAN_POINT ( 'NONE',  ( 8.000000000000000000, 2.500000000000000000, -70.22332506203478886 ) ) ;
#394 = VECTOR ( 'NONE', #241, 1000.000000000000000 ) ;
#395 = DIRECTION ( 'NONE',  ( -0.000000000000000000, -0.000000000000000000, 1.000000000000000000 ) ) ;
#396 = ORIENTED_EDGE ( 'NONE', *, *, #328, .T. ) ;
#397 = ORIENTED_EDGE ( 'NONE', *, *, #520, .T. ) ;
#398 = DIRECTION ( 'NONE',  ( 0.000000000000000000, 0.000000000000000000, 1.000000000000000000 ) ) ;
#399 = LINE ( 'NONE', #74, #17 ) ;
#400 = ORIENTED_EDGE ( 'NONE', *, *, #322, .F. ) ;
#401 = EDGE_CURVE ( 'NONE', #540, #497, #565, .T. ) ;
#402 = CARTESIAN_POINT ( 'NONE',  ( 4.000000000000000000, 28.01766702750422766, -92.22332506203483149 ) ) ;
#403 = CARTESIAN_POINT ( 'NONE',  ( 8.000000000000000000, -2.000000000000000000, -74.22332506203478886 ) ) ;
#404 = PRODUCT_RELATED_PRODUCT_CATEGORY ( 'detail', '', ( #525 ) ) ;
#405 = PERSON_AND_ORGANIZATION ( #147, #30 ) ;
#406 = AXIS2_PLACEMENT_3D ( 'NONE', #348, #345, #112 ) ;
#407 = CARTESIAN_POINT ( 'NONE',  ( 4.000000000000000000, -2.000000000000000000, -65.22332506203477465 ) ) ;
#408 = DIRECTION ( 'NONE',  ( -1.000000000000000000, -0.000000000000000000, -0.000000000000000000 ) ) ;
#409 = COORDINATED_UNIVERSAL_TIME_OFFSET ( 1, 0, .AHEAD. ) ;
#410 = LINE ( 'NONE', #592, #544 ) ;
#411 = DIRECTION ( 'NONE',  ( 1.000000000000000000, 0.000000000000000000, -0.000000000000000000 ) ) ;
#412 = ADVANCED_FACE ( 'NONE', ( #415, #229 ), #557, .F. ) ;
#413 = LINE ( 'NONE', #138, #209 ) ;
#414 = AXIS2_PLACEMENT_3D ( 'NONE', #420, #83, #559 ) ;
#415 = FACE_BOUND ( 'NONE', #162, .T. ) ;
#416 = VECTOR ( 'NONE', #188, 1000.000000000000000 ) ;
#417 = DIRECTION ( 'NONE',  ( -0.000000000000000000, -0.7071067811865472397, 0.7071067811865479058 ) ) ;
#418 = DIRECTION ( 'NONE',  ( 0.000000000000000000, 1.000000000000000000, 0.000000000000000000 ) ) ;
#419 = CARTESIAN_POINT ( 'NONE',  ( 4.000000000000000000, -2.000000000000000000, -67.22332506203477465 ) ) ;
#420 = CARTESIAN_POINT ( 'NONE',  ( 4.000000000000000000, 0.000000000000000000, -65.22332506203477465 ) ) ;
#421 = CARTESIAN_POINT ( 'NONE',  ( 0.000000000000000000, 25.01766702750422766, -82.22332506203477465 ) ) ;
#422 = CYLINDRICAL_SURFACE ( 'NONE', #122, 1.599999999999999867 ) ;
#423 = CARTESIAN_POINT ( 'NONE',  ( 8.000000000000000000, 25.01766702750422766, -70.22332506203478886 ) ) ;
#424 = VECTOR ( 'NONE', #558, 1000.000000000000000 ) ;
#425 = CARTESIAN_POINT ( 'NONE',  ( 4.000000000000000000, 28.01766702750422766, -92.22332506203483149 ) ) ;
#426 = ORIENTED_EDGE ( 'NONE', *, *, #187, .T. ) ;
#427 = ORIENTED_EDGE ( 'NONE', *, *, #262, .T. ) ;
#428 = EDGE_CURVE ( 'NONE', #526, #485, #238, .T. ) ;
#429 =( NAMED_UNIT ( * ) PLANE_ANGLE_UNIT ( ) SI_UNIT ( $, .RADIAN. ) );
#430 = EDGE_LOOP ( 'NONE', ( #474, #15, #114, #160 ) ) ;
#431 = ORIENTED_EDGE ( 'NONE', *, *, #61, .T. ) ;
#432 = VECTOR ( 'NONE', #308, 1000.000000000000000 ) ;
#433 = CARTESIAN_POINT ( 'NONE',  ( 8.000000000000000000, 21.01766702750422766, -74.22332506203478886 ) ) ;
#434 = ORIENTED_EDGE ( 'NONE', *, *, #196, .F. ) ;
#435 = CC_DESIGN_PERSON_AND_ORGANIZATION_ASSIGNMENT ( #72, #460, ( #108 ) ) ;
#436 = ORIENTED_EDGE ( 'NONE', *, *, #566, .T. ) ;
#437 = ORIENTED_EDGE ( 'NONE', *, *, #476, .T. ) ;
#438 = ORIENTED_EDGE ( 'NONE', *, *, #401, .F. ) ;
#439 = DIRECTION ( 'NONE',  ( 1.000000000000000000, 0.000000000000000000, 0.000000000000000000 ) ) ;
#440 = FACE_OUTER_BOUND ( 'NONE', #24, .T. ) ;
#441 = EDGE_CURVE ( 'NONE', #497, #20, #413, .T. ) ;
#442 = VERTEX_POINT ( 'NONE', #423 ) ;
#443 = AXIS2_PLACEMENT_3D ( 'NONE', #587, #224, #446 ) ;
#444 = CARTESIAN_POINT ( 'NONE',  ( 8.000000000000000000, 2.500000000000000000, -70.22332506203478886 ) ) ;
#445 = EDGE_CURVE ( 'NONE', #330, #390, #560, .T. ) ;
#446 = DIRECTION ( 'NONE',  ( 1.000000000000000000, 0.000000000000000000, -0.000000000000000000 ) ) ;
#447 = VERTEX_POINT ( 'NONE', #419 ) ;
#448 = APPROVAL_ROLE ( '' ) ;
#449 = CARTESIAN_POINT ( 'NONE',  ( 0.000000000000000000, 25.01766702750422766, -82.22332506203477465 ) ) ;
#450 = DIRECTION ( 'NONE',  ( -1.000000000000000000, -0.000000000000000000, -0.000000000000000000 ) ) ;
#451 = DATE_AND_TIME ( #26, #107 ) ;
#452 = LINE ( 'NONE', #581, #38 ) ;
#453 = DIRECTION ( 'NONE',  ( 0.000000000000000000, 2.312964634635743450E-15, -1.000000000000000000 ) ) ;
#454 = DIRECTION ( 'NONE',  ( -1.000000000000000000, -0.000000000000000000, -0.000000000000000000 ) ) ;
#455 = CALENDAR_DATE ( 2025, 29, 5 ) ;
#456 = VECTOR ( 'NONE', #278, 1000.000000000000000 ) ;
#457 = VERTEX_POINT ( 'NONE', #599 ) ;
#458 = DIRECTION ( 'NONE',  ( 0.000000000000000000, 0.000000000000000000, 1.000000000000000000 ) ) ;
#459 = DIRECTION ( 'NONE',  ( 0.000000000000000000, 1.000000000000000000, 0.000000000000000000 ) ) ;
#460 = PERSON_AND_ORGANIZATION_ROLE ( 'creator' ) ;
#461 = EDGE_CURVE ( 'NONE', #121, #51, #84, .T. ) ;
#462 = CARTESIAN_POINT ( 'NONE',  ( 4.000000000000000000, 0.000000000000000000, -63.22332506203477465 ) ) ;
#463 = SHAPE_DEFINITION_REPRESENTATION ( #288, #337 ) ;
#464 = DIRECTION ( 'NONE',  ( -0.000000000000000000, -0.000000000000000000, 1.000000000000000000 ) ) ;
#465 = CIRCLE ( 'NONE', #365, 2.000000000000001776 ) ;
#466 = CARTESIAN_POINT ( 'NONE',  ( 8.000000000000000000, 31.01766702750422766, -84.22332506203477465 ) ) ;
#467 = SECURITY_CLASSIFICATION ( '', '', #123 ) ;
#468 = EDGE_CURVE ( 'NONE', #243, #334, #146, .T. ) ;
#469 = FACE_OUTER_BOUND ( 'NONE', #346, .T. ) ;
#470 = MANIFOLD_SOLID_BREP ( 'Cut-Extrude2', #301 ) ;
#471 = DIRECTION ( 'NONE',  ( 0.000000000000000000, -1.000000000000000000, 0.000000000000000000 ) ) ;
#472 = DIRECTION ( 'NONE',  ( -0.000000000000000000, 1.000000000000000000, -0.000000000000000000 ) ) ;
#473 = CARTESIAN_POINT ( 'NONE',  ( 8.000000000000000000, -2.000000000000000000, -70.22332506203477465 ) ) ;
#474 = ORIENTED_EDGE ( 'NONE', *, *, #481, .T. ) ;
#475 = LOCAL_TIME ( 17, 3, 21.00000000000000000, #409 ) ;
#476 = EDGE_CURVE ( 'NONE', #259, #526, #513, .T. ) ;
#477 = ORIENTED_EDGE ( 'NONE', *, *, #11, .T. ) ;
#478 = ORIENTED_EDGE ( 'NONE', *, *, #322, .T. ) ;
#479 = ORIENTED_EDGE ( 'NONE', *, *, #152, .F. ) ;
#480 = ORIENTED_EDGE ( 'NONE', *, *, #36, .F. ) ;
#481 = EDGE_CURVE ( 'NONE', #334, #1, #37, .T. ) ;
#482 = VECTOR ( 'NONE', #163, 1000.000000000000000 ) ;
#483 = DIRECTION ( 'NONE',  ( 0.000000000000000000, 1.000000000000000000, 0.000000000000000000 ) ) ;
#484 = VECTOR ( 'NONE', #464, 1000.000000000000000 ) ;
#485 = VERTEX_POINT ( 'NONE', #186 ) ;
#486 = EDGE_LOOP ( 'NONE', ( #280, #533, #256, #195, #478, #49, #349, #427, #431, #529, #436 ) ) ;
#487 = FACE_OUTER_BOUND ( 'NONE', #249, .T. ) ;
#488 = VERTEX_POINT ( 'NONE', #371 ) ;
#489 = DIRECTION ( 'NONE',  ( -0.000000000000000000, -1.000000000000000000, -0.000000000000000000 ) ) ;
#490 = PLANE ( 'NONE',  #172 ) ;
#491 = CIRCLE ( 'NONE', #414, 2.000000000000001776 ) ;
#492 = COORDINATED_UNIVERSAL_TIME_OFFSET ( 1, 0, .AHEAD. ) ;
#493 = VECTOR ( 'NONE', #603, 1000.000000000000000 ) ;
#494 = CARTESIAN_POINT ( 'NONE',  ( 8.000000000000000000, 21.01766702750422766, -84.22332506203477465 ) ) ;
#495 = CARTESIAN_POINT ( 'NONE',  ( 8.000000000000000000, 21.01766702750422766, -74.22332506203478886 ) ) ;
#496 = CARTESIAN_POINT ( 'NONE',  ( 8.000000000000000000, 31.01766702750422766, -84.22332506203477465 ) ) ;
#497 = VERTEX_POINT ( 'NONE', #608 ) ;
#498 = DIRECTION ( 'NONE',  ( 0.000000000000000000, 1.000000000000000000, 0.000000000000000000 ) ) ;
#499 = ADVANCED_FACE ( 'NONE', ( #88 ), #274, .F. ) ;
#500 = CARTESIAN_POINT ( 'NONE',  ( 2.399999999999999911, 28.01766702750422766, -82.22332506203483149 ) ) ;
#501 = PERSON_AND_ORGANIZATION ( #147, #30 ) ;
#502 = CARTESIAN_POINT ( 'NONE',  ( 0.000000000000000000, 21.01766702750422766, -84.22332506203477465 ) ) ;
#503 = PLANE ( 'NONE',  #522 ) ;
#504 = ADVANCED_FACE ( 'NONE', ( #41 ), #327, .F. ) ;
#505 = VECTOR ( 'NONE', #311, 1000.000000000000000 ) ;
#506 = AXIS2_PLACEMENT_3D ( 'NONE', #564, #90, #377 ) ;
#507 = ORIENTED_EDGE ( 'NONE', *, *, #294, .T. ) ;
#508 = CARTESIAN_POINT ( 'NONE',  ( 4.000000000000000000, -10.00000000000000000, -65.22332506203477465 ) ) ;
#509 = FACE_OUTER_BOUND ( 'NONE', #584, .T. ) ;
#510 = PERSON_AND_ORGANIZATION_ROLE ( 'creator' ) ;
#511 = PLANE ( 'NONE',  #255 ) ;
#512 = EDGE_CURVE ( 'NONE', #588, #154, #329, .T. ) ;
#513 = LINE ( 'NONE', #562, #484 ) ;
#514 = PLANE ( 'NONE',  #506 ) ;
#515 = DIRECTION ( 'NONE',  ( 0.000000000000000000, -0.000000000000000000, -1.000000000000000000 ) ) ;
#516 = CARTESIAN_POINT ( 'NONE',  ( 0.000000000000000000, -2.000000000000000000, -70.22332506203477465 ) ) ;
#517 = CARTESIAN_POINT ( 'NONE',  ( 8.000000000000000000, 0.000000000000000000, -67.72332506203477465 ) ) ;
#518 = EDGE_CURVE ( 'NONE', #497, #243, #44, .T. ) ;
#519 = FACE_OUTER_BOUND ( 'NONE', #199, .T. ) ;
#520 = EDGE_CURVE ( 'NONE', #442, #539, #272, .T. ) ;
#521 = VERTEX_POINT ( 'NONE', #601 ) ;
#522 = AXIS2_PLACEMENT_3D ( 'NONE', #403, #315, #411 ) ;
#523 = CC_DESIGN_APPROVAL ( #369, ( #245 ) ) ;
#524 = ORIENTED_EDGE ( 'NONE', *, *, #45, .F. ) ;
#525 = PRODUCT ( 'PCB_Mounting', 'PCB_Mounting', '', ( #35 ) ) ;
#526 = VERTEX_POINT ( 'NONE', #500 ) ;
#527 = EDGE_CURVE ( 'NONE', #102, #259, #382, .T. ) ;
#528 = ORIENTED_EDGE ( 'NONE', *, *, #481, .F. ) ;
#529 = ORIENTED_EDGE ( 'NONE', *, *, #616, .T. ) ;
#530 = ORIENTED_EDGE ( 'NONE', *, *, #476, .F. ) ;
#531 = LINE ( 'NONE', #119, #237 ) ;
#532 = EDGE_LOOP ( 'NONE', ( #63, #579 ) ) ;
#533 = ORIENTED_EDGE ( 'NONE', *, *, #441, .T. ) ;
#534 = LINE ( 'NONE', #208, #135 ) ;
#535 = APPLICATION_CONTEXT ( 'configuration controlled 3d designs of mechanical parts and assemblies' ) ;
#536 = VERTEX_POINT ( 'NONE', #189 ) ;
#537 = ORIENTED_EDGE ( 'NONE', *, *, #50, .F. ) ;
#538 = CYLINDRICAL_SURFACE ( 'NONE', #48, 2.000000000000001776 ) ;
#539 = VERTEX_POINT ( 'NONE', #309 ) ;
#540 = VERTEX_POINT ( 'NONE', #552 ) ;
#541 = EDGE_CURVE ( 'NONE', #457, #51, #75, .T. ) ;
#542 = CARTESIAN_POINT ( 'NONE',  ( 8.000000000000000000, -2.000000000000000000, -74.22332506203478886 ) ) ;
#543 = LINE ( 'NONE', #611, #183 ) ;
#544 = VECTOR ( 'NONE', #549, 1000.000000000000000 ) ;
#545 = CC_DESIGN_SECURITY_CLASSIFICATION ( #467, ( #108 ) ) ;
#546 = LINE ( 'NONE', #494, #505 ) ;
#547 = DIRECTION ( 'NONE',  ( 1.000000000000000000, -0.000000000000000000, 0.000000000000000000 ) ) ;
#548 = PERSON_AND_ORGANIZATION_ROLE ( 'design_supplier' ) ;
#549 = DIRECTION ( 'NONE',  ( -1.000000000000000000, -0.000000000000000000, -0.000000000000000000 ) ) ;
#550 = EDGE_CURVE ( 'NONE', #392, #240, #130, .T. ) ;
#551 = DIRECTION ( 'NONE',  ( 0.000000000000000000, 1.000000000000000000, 2.312964634635743450E-15 ) ) ;
#552 = CARTESIAN_POINT ( 'NONE',  ( 8.000000000000000000, 0.000000000000000000, -67.72332506203477465 ) ) ;
#553 = APPROVAL_DATE_TIME ( #451, #157 ) ;
#554 = PLANE ( 'NONE',  #283 ) ;
#555 = CARTESIAN_POINT ( 'NONE',  ( 0.000000000000000000, 0.000000000000000000, -60.22332506203478175 ) ) ;
#556 = VECTOR ( 'NONE', #39, 1000.000000000000000 ) ;
#557 = PLANE ( 'NONE',  #161 ) ;
#558 = DIRECTION ( 'NONE',  ( -0.000000000000000000, -0.000000000000000000, 1.000000000000000000 ) ) ;
#559 = DIRECTION ( 'NONE',  ( 0.000000000000000000, 0.000000000000000000, 1.000000000000000000 ) ) ;
#560 = LINE ( 'NONE', #139, #580 ) ;
#561 = LINE ( 'NONE', #78, #120 ) ;
#562 = CARTESIAN_POINT ( 'NONE',  ( 2.400000000000000355, 28.01766702750422766, -92.22332506203483149 ) ) ;
#563 = AXIS2_PLACEMENT_3D ( 'NONE', #341, #111, #439 ) ;
#564 = CARTESIAN_POINT ( 'NONE',  ( 8.000000000000000000, 2.500000000000000000, -70.22332506203478886 ) ) ;
#565 = LINE ( 'NONE', #182, #424 ) ;
#566 = EDGE_CURVE ( 'NONE', #8, #540, #225, .T. ) ;
#567 = ORIENTED_EDGE ( 'NONE', *, *, #328, .F. ) ;
#568 = ORIENTED_EDGE ( 'NONE', *, *, #461, .T. ) ;
#569 = CIRCLE ( 'NONE', #207, 2.000000000000001776 ) ;
#570 = LOCAL_TIME ( 17, 3, 21.00000000000000000, #594 ) ;
#571 = EDGE_CURVE ( 'NONE', #287, #243, #180, .T. ) ;
#572 = APPLICATION_CONTEXT ( 'configuration controlled 3d designs of mechanical parts and assemblies' ) ;
#573 = ORIENTED_EDGE ( 'NONE', *, *, #307, .T. ) ;
#574 = FACE_BOUND ( 'NONE', #168, .T. ) ;
#575 = ORIENTED_EDGE ( 'NONE', *, *, #109, .F. ) ;
#576 = EDGE_LOOP ( 'NONE', ( #250, #242, #400, #343 ) ) ;
#577 = APPLICATION_PROTOCOL_DEFINITION ( 'international standard', 'config_control_design', 1994, #572 ) ;
#578 = ORIENTED_EDGE ( 'NONE', *, *, #298, .T. ) ;
#579 = ORIENTED_EDGE ( 'NONE', *, *, #50, .T. ) ;
#580 = VECTOR ( 'NONE', #376, 1000.000000000000000 ) ;
#581 = CARTESIAN_POINT ( 'NONE',  ( 5.599999999999999645, 28.01766702750422766, -92.22332506203483149 ) ) ;
#582 = ORIENTED_EDGE ( 'NONE', *, *, #318, .F. ) ;
#583 = ADVANCED_FACE ( 'NONE', ( #509 ), #422, .F. ) ;
#584 = EDGE_LOOP ( 'NONE', ( #537, #437, #386, #300 ) ) ;
#585 = PERSON_AND_ORGANIZATION ( #147, #30 ) ;
#586 = LINE ( 'NONE', #542, #95 ) ;
#587 = CARTESIAN_POINT ( 'NONE',  ( 8.000000000000000000, 21.01766702750422766, -84.22332506203477465 ) ) ;
#588 = VERTEX_POINT ( 'NONE', #273 ) ;
#589 = CARTESIAN_POINT ( 'NONE',  ( 8.000000000000000000, 25.01766702750422766, -82.22332506203477465 ) ) ;
#590 = APPROVAL_PERSON_ORGANIZATION ( #174, #369, #448 ) ;
#591 = ADVANCED_FACE ( 'NONE', ( #469 ), #514, .F. ) ;
#592 = CARTESIAN_POINT ( 'NONE',  ( 8.000000000000000000, 21.01766702750422766, -74.22332506203478886 ) ) ;
#593 = CARTESIAN_POINT ( 'NONE',  ( 4.000000000000000000, 0.000000000000000000, -65.22332506203477465 ) ) ;
#594 = COORDINATED_UNIVERSAL_TIME_OFFSET ( 1, 0, .AHEAD. ) ;
#595 = LINE ( 'NONE', #496, #482 ) ;
#596 = CARTESIAN_POINT ( 'NONE',  ( 0.000000000000000000, 0.000000000000000000, -60.22332506203478175 ) ) ;
#597 = CARTESIAN_POINT ( 'NONE',  ( 8.000000000000000000, 0.000000000000000000, -67.72332506203477465 ) ) ;
#598 = DATE_AND_TIME ( #116, #570 ) ;
#599 = CARTESIAN_POINT ( 'NONE',  ( 8.000000000000000000, 25.01766702750422766, -82.22332506203477465 ) ) ;
#600 = EDGE_CURVE ( 'NONE', #539, #488, #94, .T. ) ;
#601 = CARTESIAN_POINT ( 'NONE',  ( 0.000000000000000000, 21.01766702750422766, -74.22332506203478886 ) ) ;
#602 = CIRCLE ( 'NONE', #159, 1.599999999999999867 ) ;
#603 = DIRECTION ( 'NONE',  ( 0.000000000000000000, 0.000000000000000000, -1.000000000000000000 ) ) ;
#604 = EDGE_CURVE ( 'NONE', #51, #539, #614, .T. ) ;
#605 = LINE ( 'NONE', #393, #3 ) ;
#606 = DIRECTION ( 'NONE',  ( 0.000000000000000000, 0.7071067811865472397, -0.7071067811865479058 ) ) ;
#607 = CARTESIAN_POINT ( 'NONE',  ( 8.000000000000000000, 25.01766702750422766, -70.22332506203478886 ) ) ;
#608 = CARTESIAN_POINT ( 'NONE',  ( 8.000000000000000000, 0.000000000000000000, -60.22332506203478175 ) ) ;
#609 = CC_DESIGN_PERSON_AND_ORGANIZATION_ASSIGNMENT ( #33, #310, ( #467 ) ) ;
#610 = VECTOR ( 'NONE', #82, 1000.000000000000000 ) ;
#611 = CARTESIAN_POINT ( 'NONE',  ( 8.000000000000000000, -2.000000000000000000, -60.22332506203478175 ) ) ;
#612 = ORIENTED_EDGE ( 'NONE', *, *, #152, .T. ) ;
#613 = EDGE_CURVE ( 'NONE', #488, #287, #379, .T. ) ;
#614 = LINE ( 'NONE', #197, #556 ) ;
#615 = ORIENTED_EDGE ( 'NONE', *, *, #196, .T. ) ;
#616 = EDGE_CURVE ( 'NONE', #442, #8, #605, .T. ) ;
ENDSEC;
END-ISO-10303-21;
