ISO-10303-21;
HEADER;
FILE_DESCRIPTION(('FreeCAD Model'),'2;1');
FILE_NAME('Open CASCADE Shape Model','2026-01-27T14:10:23',(''),(''),
  'Open CASCADE STEP processor 7.8','FreeCAD','Unknown');
FILE_SCHEMA(('AUTOMOTIVE_DESIGN { 1 0 10303 214 1 1 1 1 }'));
ENDSEC;
DATA;
#1 = APPLICATION_PROTOCOL_DEFINITION('international standard',
  'automotive_design',2000,#2);
#2 = APPLICATION_CONTEXT(
  'core data for automotive mechanical design processes');
#3 = SHAPE_DEFINITION_REPRESENTATION(#4,#10);
#4 = PRODUCT_DEFINITION_SHAPE('','',#5);
#5 = PRODUCT_DEFINITION('design','',#6,#9);
#6 = PRODUCT_DEFINITION_FORMATION('','',#7);
#7 = PRODUCT('PCB_Mounting_plus2mm','PCB_Mounting_plus2mm','',(#8));
#8 = PRODUCT_CONTEXT('',#2,'mechanical');
#9 = PRODUCT_DEFINITION_CONTEXT('part definition',#2,'design');
#10 = SHAPE_REPRESENTATION('',(#11,#15,#19),#23);
#11 = AXIS2_PLACEMENT_3D('',#12,#13,#14);
#12 = CARTESIAN_POINT('',(0.,0.,0.));
#13 = DIRECTION('',(0.,0.,1.));
#14 = DIRECTION('',(1.,0.,-0.));
#15 = AXIS2_PLACEMENT_3D('',#16,#17,#18);
#16 = CARTESIAN_POINT('',(0.,0.,0.));
#17 = DIRECTION('',(0.,0.,1.));
#18 = DIRECTION('',(1.,0.,0.));
#19 = AXIS2_PLACEMENT_3D('',#20,#21,#22);
#20 = CARTESIAN_POINT('',(0.,0.,0.));
#21 = DIRECTION('',(0.,0.,1.));
#22 = DIRECTION('',(1.,0.,0.));
#23 = ( GEOMETRIC_REPRESENTATION_CONTEXT(3) 
GLOBAL_UNCERTAINTY_ASSIGNED_CONTEXT((#27)) GLOBAL_UNIT_ASSIGNED_CONTEXT(
(#24,#25,#26)) REPRESENTATION_CONTEXT('Context #1',
  '3D Context with UNIT and UNCERTAINTY') );
#24 = ( LENGTH_UNIT() NAMED_UNIT(*) SI_UNIT(.MILLI.,.METRE.) );
#25 = ( NAMED_UNIT(*) PLANE_ANGLE_UNIT() SI_UNIT($,.RADIAN.) );
#26 = ( NAMED_UNIT(*) SI_UNIT($,.STERADIAN.) SOLID_ANGLE_UNIT() );
#27 = UNCERTAINTY_MEASURE_WITH_UNIT(LENGTH_MEASURE(1.E-07),#24,
  'distance_accuracy_value','confusion accuracy');
#28 = PRODUCT_RELATED_PRODUCT_CATEGORY('part',$,(#7));
#29 = SHAPE_DEFINITION_REPRESENTATION(#30,#36);
#30 = PRODUCT_DEFINITION_SHAPE('','',#31);
#31 = PRODUCT_DEFINITION('design','',#32,#35);
#32 = PRODUCT_DEFINITION_FORMATION('','',#33);
#33 = PRODUCT('PCB_Mounting','PCB_Mounting','',(#34));
#34 = PRODUCT_CONTEXT('',#2,'mechanical');
#35 = PRODUCT_DEFINITION_CONTEXT('part definition',#2,'design');
#36 = ADVANCED_BREP_SHAPE_REPRESENTATION('',(#11,#37),#566);
#37 = MANIFOLD_SOLID_BREP('',#38);
#38 = CLOSED_SHELL('',(#39,#81,#123,#173,#204,#245,#276,#307,#348,#379,
    #420,#451,#482,#504,#523,#542,#554));
#39 = ADVANCED_FACE('',(#40),#76,.F.);
#40 = FACE_BOUND('',#41,.F.);
#41 = EDGE_LOOP('',(#42,#52,#61,#69));
#42 = ORIENTED_EDGE('',*,*,#43,.T.);
#43 = EDGE_CURVE('',#44,#46,#48,.T.);
#44 = VERTEX_POINT('',#45);
#45 = CARTESIAN_POINT('',(4.,-2.,-63.22332506203));
#46 = VERTEX_POINT('',#47);
#47 = CARTESIAN_POINT('',(4.,0.,-63.22332506203));
#48 = LINE('',#49,#50);
#49 = CARTESIAN_POINT('',(4.,-10.,-63.22332506203));
#50 = VECTOR('',#51,1.);
#51 = DIRECTION('',(-0.,1.,-0.));
#52 = ORIENTED_EDGE('',*,*,#53,.F.);
#53 = EDGE_CURVE('',#54,#46,#56,.T.);
#54 = VERTEX_POINT('',#55);
#55 = CARTESIAN_POINT('',(4.,0.,-67.22332506203));
#56 = CIRCLE('',#57,2.);
#57 = AXIS2_PLACEMENT_3D('',#58,#59,#60);
#58 = CARTESIAN_POINT('',(4.,0.,-65.22332506203));
#59 = DIRECTION('',(0.,1.,0.));
#60 = DIRECTION('',(0.,-0.,1.));
#61 = ORIENTED_EDGE('',*,*,#62,.F.);
#62 = EDGE_CURVE('',#63,#54,#65,.T.);
#63 = VERTEX_POINT('',#64);
#64 = CARTESIAN_POINT('',(4.,-2.,-67.22332506203));
#65 = LINE('',#66,#67);
#66 = CARTESIAN_POINT('',(4.,-10.,-67.22332506203));
#67 = VECTOR('',#68,1.);
#68 = DIRECTION('',(-0.,1.,-0.));
#69 = ORIENTED_EDGE('',*,*,#70,.T.);
#70 = EDGE_CURVE('',#63,#44,#71,.T.);
#71 = CIRCLE('',#72,2.);
#72 = AXIS2_PLACEMENT_3D('',#73,#74,#75);
#73 = CARTESIAN_POINT('',(4.,-2.,-65.22332506203));
#74 = DIRECTION('',(-0.,1.,0.));
#75 = DIRECTION('',(0.,0.,1.));
#76 = CYLINDRICAL_SURFACE('',#77,2.);
#77 = AXIS2_PLACEMENT_3D('',#78,#79,#80);
#78 = CARTESIAN_POINT('',(4.,-10.,-65.22332506203));
#79 = DIRECTION('',(-0.,1.,-0.));
#80 = DIRECTION('',(0.,0.,1.));
#81 = ADVANCED_FACE('',(#82),#118,.F.);
#82 = FACE_BOUND('',#83,.F.);
#83 = EDGE_LOOP('',(#84,#94,#103,#111));
#84 = ORIENTED_EDGE('',*,*,#85,.T.);
#85 = EDGE_CURVE('',#86,#88,#90,.T.);
#86 = VERTEX_POINT('',#87);
#87 = CARTESIAN_POINT('',(5.6,28.017667027504,-84.22332506203));
#88 = VERTEX_POINT('',#89);
#89 = CARTESIAN_POINT('',(5.6,28.017667027504,-82.22332506203));
#90 = LINE('',#91,#92);
#91 = CARTESIAN_POINT('',(5.6,28.017667027504,-92.22332506203));
#92 = VECTOR('',#93,1.);
#93 = DIRECTION('',(-0.,-0.,1.));
#94 = ORIENTED_EDGE('',*,*,#95,.F.);
#95 = EDGE_CURVE('',#96,#88,#98,.T.);
#96 = VERTEX_POINT('',#97);
#97 = CARTESIAN_POINT('',(2.4,28.017667027504,-82.22332506203));
#98 = CIRCLE('',#99,1.6);
#99 = AXIS2_PLACEMENT_3D('',#100,#101,#102);
#100 = CARTESIAN_POINT('',(4.,28.017667027504,-82.22332506203));
#101 = DIRECTION('',(0.,0.,1.));
#102 = DIRECTION('',(1.,0.,-0.));
#103 = ORIENTED_EDGE('',*,*,#104,.F.);
#104 = EDGE_CURVE('',#105,#96,#107,.T.);
#105 = VERTEX_POINT('',#106);
#106 = CARTESIAN_POINT('',(2.4,28.017667027504,-84.22332506203));
#107 = LINE('',#108,#109);
#108 = CARTESIAN_POINT('',(2.4,28.017667027504,-92.22332506203));
#109 = VECTOR('',#110,1.);
#110 = DIRECTION('',(-0.,-0.,1.));
#111 = ORIENTED_EDGE('',*,*,#112,.T.);
#112 = EDGE_CURVE('',#105,#86,#113,.T.);
#113 = CIRCLE('',#114,1.6);
#114 = AXIS2_PLACEMENT_3D('',#115,#116,#117);
#115 = CARTESIAN_POINT('',(4.,28.017667027504,-84.22332506203));
#116 = DIRECTION('',(0.,0.,1.));
#117 = DIRECTION('',(1.,0.,-0.));
#118 = CYLINDRICAL_SURFACE('',#119,1.6);
#119 = AXIS2_PLACEMENT_3D('',#120,#121,#122);
#120 = CARTESIAN_POINT('',(4.,28.017667027504,-92.22332506203));
#121 = DIRECTION('',(-0.,-0.,1.));
#122 = DIRECTION('',(1.,0.,0.));
#123 = ADVANCED_FACE('',(#124,#134),#168,.F.);
#124 = FACE_BOUND('',#125,.T.);
#125 = EDGE_LOOP('',(#126,#133));
#126 = ORIENTED_EDGE('',*,*,#127,.F.);
#127 = EDGE_CURVE('',#46,#54,#128,.T.);
#128 = CIRCLE('',#129,2.);
#129 = AXIS2_PLACEMENT_3D('',#130,#131,#132);
#130 = CARTESIAN_POINT('',(4.,0.,-65.22332506203));
#131 = DIRECTION('',(0.,1.,0.));
#132 = DIRECTION('',(0.,-0.,1.));
#133 = ORIENTED_EDGE('',*,*,#53,.F.);
#134 = FACE_BOUND('',#135,.T.);
#135 = EDGE_LOOP('',(#136,#146,#154,#162));
#136 = ORIENTED_EDGE('',*,*,#137,.T.);
#137 = EDGE_CURVE('',#138,#140,#142,.T.);
#138 = VERTEX_POINT('',#139);
#139 = CARTESIAN_POINT('',(0.,0.,-67.72332506203));
#140 = VERTEX_POINT('',#141);
#141 = CARTESIAN_POINT('',(0.,0.,-60.22332506203));
#142 = LINE('',#143,#144);
#143 = CARTESIAN_POINT('',(0.,0.,-60.22332506203));
#144 = VECTOR('',#145,1.);
#145 = DIRECTION('',(-0.,-0.,1.));
#146 = ORIENTED_EDGE('',*,*,#147,.F.);
#147 = EDGE_CURVE('',#148,#140,#150,.T.);
#148 = VERTEX_POINT('',#149);
#149 = CARTESIAN_POINT('',(8.,0.,-60.22332506203));
#150 = LINE('',#151,#152);
#151 = CARTESIAN_POINT('',(8.,0.,-60.22332506203));
#152 = VECTOR('',#153,1.);
#153 = DIRECTION('',(-1.,-0.,-0.));
#154 = ORIENTED_EDGE('',*,*,#155,.F.);
#155 = EDGE_CURVE('',#156,#148,#158,.T.);
#156 = VERTEX_POINT('',#157);
#157 = CARTESIAN_POINT('',(8.,0.,-67.72332506203));
#158 = LINE('',#159,#160);
#159 = CARTESIAN_POINT('',(8.,0.,-60.22332506203));
#160 = VECTOR('',#161,1.);
#161 = DIRECTION('',(-0.,-0.,1.));
#162 = ORIENTED_EDGE('',*,*,#163,.T.);
#163 = EDGE_CURVE('',#156,#138,#164,.T.);
#164 = LINE('',#165,#166);
#165 = CARTESIAN_POINT('',(8.,0.,-67.72332506203));
#166 = VECTOR('',#167,1.);
#167 = DIRECTION('',(-1.,-0.,-0.));
#168 = PLANE('',#169);
#169 = AXIS2_PLACEMENT_3D('',#170,#171,#172);
#170 = CARTESIAN_POINT('',(8.,0.,-60.22332506203));
#171 = DIRECTION('',(0.,-1.,0.));
#172 = DIRECTION('',(0.,-0.,-1.));
#173 = ADVANCED_FACE('',(#174),#199,.F.);
#174 = FACE_BOUND('',#175,.T.);
#175 = EDGE_LOOP('',(#176,#184,#192,#198));
#176 = ORIENTED_EDGE('',*,*,#177,.T.);
#177 = EDGE_CURVE('',#140,#178,#180,.T.);
#178 = VERTEX_POINT('',#179);
#179 = CARTESIAN_POINT('',(0.,-2.,-60.22332506203));
#180 = LINE('',#181,#182);
#181 = CARTESIAN_POINT('',(0.,0.,-60.22332506203));
#182 = VECTOR('',#183,1.);
#183 = DIRECTION('',(0.,-1.,0.));
#184 = ORIENTED_EDGE('',*,*,#185,.F.);
#185 = EDGE_CURVE('',#186,#178,#188,.T.);
#186 = VERTEX_POINT('',#187);
#187 = CARTESIAN_POINT('',(8.,-2.,-60.22332506203));
#188 = LINE('',#189,#190);
#189 = CARTESIAN_POINT('',(8.,-2.,-60.22332506203));
#190 = VECTOR('',#191,1.);
#191 = DIRECTION('',(-1.,-0.,-0.));
#192 = ORIENTED_EDGE('',*,*,#193,.F.);
#193 = EDGE_CURVE('',#148,#186,#194,.T.);
#194 = LINE('',#195,#196);
#195 = CARTESIAN_POINT('',(8.,0.,-60.22332506203));
#196 = VECTOR('',#197,1.);
#197 = DIRECTION('',(0.,-1.,0.));
#198 = ORIENTED_EDGE('',*,*,#147,.T.);
#199 = PLANE('',#200);
#200 = AXIS2_PLACEMENT_3D('',#201,#202,#203);
#201 = CARTESIAN_POINT('',(8.,0.,-60.22332506203));
#202 = DIRECTION('',(0.,0.,-1.));
#203 = DIRECTION('',(-1.,0.,-0.));
#204 = ADVANCED_FACE('',(#205,#215),#240,.F.);
#205 = FACE_BOUND('',#206,.T.);
#206 = EDGE_LOOP('',(#207,#214));
#207 = ORIENTED_EDGE('',*,*,#208,.T.);
#208 = EDGE_CURVE('',#44,#63,#209,.T.);
#209 = CIRCLE('',#210,2.);
#210 = AXIS2_PLACEMENT_3D('',#211,#212,#213);
#211 = CARTESIAN_POINT('',(4.,-2.,-65.22332506203));
#212 = DIRECTION('',(-0.,1.,0.));
#213 = DIRECTION('',(0.,0.,1.));
#214 = ORIENTED_EDGE('',*,*,#70,.T.);
#215 = FACE_BOUND('',#216,.T.);
#216 = EDGE_LOOP('',(#217,#225,#233,#239));
#217 = ORIENTED_EDGE('',*,*,#218,.T.);
#218 = EDGE_CURVE('',#178,#219,#221,.T.);
#219 = VERTEX_POINT('',#220);
#220 = CARTESIAN_POINT('',(0.,-2.,-74.22332506203));
#221 = LINE('',#222,#223);
#222 = CARTESIAN_POINT('',(0.,-2.,-70.22332506203));
#223 = VECTOR('',#224,1.);
#224 = DIRECTION('',(0.,0.,-1.));
#225 = ORIENTED_EDGE('',*,*,#226,.F.);
#226 = EDGE_CURVE('',#227,#219,#229,.T.);
#227 = VERTEX_POINT('',#228);
#228 = CARTESIAN_POINT('',(8.,-2.,-74.22332506203));
#229 = LINE('',#230,#231);
#230 = CARTESIAN_POINT('',(8.,-2.,-74.22332506203));
#231 = VECTOR('',#232,1.);
#232 = DIRECTION('',(-1.,-0.,-0.));
#233 = ORIENTED_EDGE('',*,*,#234,.F.);
#234 = EDGE_CURVE('',#186,#227,#235,.T.);
#235 = LINE('',#236,#237);
#236 = CARTESIAN_POINT('',(8.,-2.,-60.22332506203));
#237 = VECTOR('',#238,1.);
#238 = DIRECTION('',(0.,0.,-1.));
#239 = ORIENTED_EDGE('',*,*,#185,.T.);
#240 = PLANE('',#241);
#241 = AXIS2_PLACEMENT_3D('',#242,#243,#244);
#242 = CARTESIAN_POINT('',(8.,-2.,-70.22332506203));
#243 = DIRECTION('',(-0.,1.,0.));
#244 = DIRECTION('',(0.,0.,1.));
#245 = ADVANCED_FACE('',(#246),#271,.F.);
#246 = FACE_BOUND('',#247,.T.);
#247 = EDGE_LOOP('',(#248,#256,#264,#270));
#248 = ORIENTED_EDGE('',*,*,#249,.T.);
#249 = EDGE_CURVE('',#219,#250,#252,.T.);
#250 = VERTEX_POINT('',#251);
#251 = CARTESIAN_POINT('',(0.,21.017667027504,-74.22332506203));
#252 = LINE('',#253,#254);
#253 = CARTESIAN_POINT('',(0.,-2.,-74.22332506203));
#254 = VECTOR('',#255,1.);
#255 = DIRECTION('',(0.,1.,0.));
#256 = ORIENTED_EDGE('',*,*,#257,.F.);
#257 = EDGE_CURVE('',#258,#250,#260,.T.);
#258 = VERTEX_POINT('',#259);
#259 = CARTESIAN_POINT('',(8.,21.017667027504,-74.22332506203));
#260 = LINE('',#261,#262);
#261 = CARTESIAN_POINT('',(8.,21.017667027504,-74.22332506203));
#262 = VECTOR('',#263,1.);
#263 = DIRECTION('',(-1.,-0.,-0.));
#264 = ORIENTED_EDGE('',*,*,#265,.F.);
#265 = EDGE_CURVE('',#227,#258,#266,.T.);
#266 = LINE('',#267,#268);
#267 = CARTESIAN_POINT('',(8.,-2.,-74.22332506203));
#268 = VECTOR('',#269,1.);
#269 = DIRECTION('',(0.,1.,0.));
#270 = ORIENTED_EDGE('',*,*,#226,.T.);
#271 = PLANE('',#272);
#272 = AXIS2_PLACEMENT_3D('',#273,#274,#275);
#273 = CARTESIAN_POINT('',(8.,-2.,-74.22332506203));
#274 = DIRECTION('',(0.,0.,1.));
#275 = DIRECTION('',(1.,0.,-0.));
#276 = ADVANCED_FACE('',(#277),#302,.F.);
#277 = FACE_BOUND('',#278,.T.);
#278 = EDGE_LOOP('',(#279,#287,#295,#301));
#279 = ORIENTED_EDGE('',*,*,#280,.T.);
#280 = EDGE_CURVE('',#250,#281,#283,.T.);
#281 = VERTEX_POINT('',#282);
#282 = CARTESIAN_POINT('',(0.,21.017667027504,-84.22332506203));
#283 = LINE('',#284,#285);
#284 = CARTESIAN_POINT('',(0.,21.017667027504,-74.22332506203));
#285 = VECTOR('',#286,1.);
#286 = DIRECTION('',(0.,0.,-1.));
#287 = ORIENTED_EDGE('',*,*,#288,.F.);
#288 = EDGE_CURVE('',#289,#281,#291,.T.);
#289 = VERTEX_POINT('',#290);
#290 = CARTESIAN_POINT('',(8.,21.017667027504,-84.22332506203));
#291 = LINE('',#292,#293);
#292 = CARTESIAN_POINT('',(8.,21.017667027504,-84.22332506203));
#293 = VECTOR('',#294,1.);
#294 = DIRECTION('',(-1.,-0.,-0.));
#295 = ORIENTED_EDGE('',*,*,#296,.F.);
#296 = EDGE_CURVE('',#258,#289,#297,.T.);
#297 = LINE('',#298,#299);
#298 = CARTESIAN_POINT('',(8.,21.017667027504,-74.22332506203));
#299 = VECTOR('',#300,1.);
#300 = DIRECTION('',(0.,0.,-1.));
#301 = ORIENTED_EDGE('',*,*,#257,.T.);
#302 = PLANE('',#303);
#303 = AXIS2_PLACEMENT_3D('',#304,#305,#306);
#304 = CARTESIAN_POINT('',(8.,21.017667027504,-74.22332506203));
#305 = DIRECTION('',(-0.,1.,0.));
#306 = DIRECTION('',(0.,0.,1.));
#307 = ADVANCED_FACE('',(#308,#318),#343,.F.);
#308 = FACE_BOUND('',#309,.T.);
#309 = EDGE_LOOP('',(#310,#317));
#310 = ORIENTED_EDGE('',*,*,#311,.T.);
#311 = EDGE_CURVE('',#86,#105,#312,.T.);
#312 = CIRCLE('',#313,1.6);
#313 = AXIS2_PLACEMENT_3D('',#314,#315,#316);
#314 = CARTESIAN_POINT('',(4.,28.017667027504,-84.22332506203));
#315 = DIRECTION('',(0.,0.,1.));
#316 = DIRECTION('',(1.,0.,-0.));
#317 = ORIENTED_EDGE('',*,*,#112,.T.);
#318 = FACE_BOUND('',#319,.T.);
#319 = EDGE_LOOP('',(#320,#328,#336,#342));
#320 = ORIENTED_EDGE('',*,*,#321,.T.);
#321 = EDGE_CURVE('',#281,#322,#324,.T.);
#322 = VERTEX_POINT('',#323);
#323 = CARTESIAN_POINT('',(0.,31.017667027504,-84.22332506203));
#324 = LINE('',#325,#326);
#325 = CARTESIAN_POINT('',(0.,21.017667027504,-84.22332506203));
#326 = VECTOR('',#327,1.);
#327 = DIRECTION('',(0.,1.,0.));
#328 = ORIENTED_EDGE('',*,*,#329,.F.);
#329 = EDGE_CURVE('',#330,#322,#332,.T.);
#330 = VERTEX_POINT('',#331);
#331 = CARTESIAN_POINT('',(8.,31.017667027504,-84.22332506203));
#332 = LINE('',#333,#334);
#333 = CARTESIAN_POINT('',(8.,31.017667027504,-84.22332506203));
#334 = VECTOR('',#335,1.);
#335 = DIRECTION('',(-1.,-0.,-0.));
#336 = ORIENTED_EDGE('',*,*,#337,.F.);
#337 = EDGE_CURVE('',#289,#330,#338,.T.);
#338 = LINE('',#339,#340);
#339 = CARTESIAN_POINT('',(8.,21.017667027504,-84.22332506203));
#340 = VECTOR('',#341,1.);
#341 = DIRECTION('',(0.,1.,0.));
#342 = ORIENTED_EDGE('',*,*,#288,.T.);
#343 = PLANE('',#344);
#344 = AXIS2_PLACEMENT_3D('',#345,#346,#347);
#345 = CARTESIAN_POINT('',(8.,21.017667027504,-84.22332506203));
#346 = DIRECTION('',(0.,0.,1.));
#347 = DIRECTION('',(1.,0.,-0.));
#348 = ADVANCED_FACE('',(#349),#374,.F.);
#349 = FACE_BOUND('',#350,.T.);
#350 = EDGE_LOOP('',(#351,#359,#367,#373));
#351 = ORIENTED_EDGE('',*,*,#352,.T.);
#352 = EDGE_CURVE('',#322,#353,#355,.T.);
#353 = VERTEX_POINT('',#354);
#354 = CARTESIAN_POINT('',(0.,31.017667027504,-82.22332506203));
#355 = LINE('',#356,#357);
#356 = CARTESIAN_POINT('',(0.,31.017667027504,-84.22332506203));
#357 = VECTOR('',#358,1.);
#358 = DIRECTION('',(0.,0.,1.));
#359 = ORIENTED_EDGE('',*,*,#360,.F.);
#360 = EDGE_CURVE('',#361,#353,#363,.T.);
#361 = VERTEX_POINT('',#362);
#362 = CARTESIAN_POINT('',(8.,31.017667027504,-82.22332506203));
#363 = LINE('',#364,#365);
#364 = CARTESIAN_POINT('',(8.,31.017667027504,-82.22332506203));
#365 = VECTOR('',#366,1.);
#366 = DIRECTION('',(-1.,-0.,-0.));
#367 = ORIENTED_EDGE('',*,*,#368,.F.);
#368 = EDGE_CURVE('',#330,#361,#369,.T.);
#369 = LINE('',#370,#371);
#370 = CARTESIAN_POINT('',(8.,31.017667027504,-84.22332506203));
#371 = VECTOR('',#372,1.);
#372 = DIRECTION('',(0.,0.,1.));
#373 = ORIENTED_EDGE('',*,*,#329,.T.);
#374 = PLANE('',#375);
#375 = AXIS2_PLACEMENT_3D('',#376,#377,#378);
#376 = CARTESIAN_POINT('',(8.,31.017667027504,-84.22332506203));
#377 = DIRECTION('',(0.,-1.,0.));
#378 = DIRECTION('',(0.,-0.,-1.));
#379 = ADVANCED_FACE('',(#380,#390),#415,.F.);
#380 = FACE_BOUND('',#381,.T.);
#381 = EDGE_LOOP('',(#382,#389));
#382 = ORIENTED_EDGE('',*,*,#383,.F.);
#383 = EDGE_CURVE('',#88,#96,#384,.T.);
#384 = CIRCLE('',#385,1.6);
#385 = AXIS2_PLACEMENT_3D('',#386,#387,#388);
#386 = CARTESIAN_POINT('',(4.,28.017667027504,-82.22332506203));
#387 = DIRECTION('',(0.,0.,1.));
#388 = DIRECTION('',(1.,0.,-0.));
#389 = ORIENTED_EDGE('',*,*,#95,.F.);
#390 = FACE_BOUND('',#391,.T.);
#391 = EDGE_LOOP('',(#392,#400,#408,#414));
#392 = ORIENTED_EDGE('',*,*,#393,.T.);
#393 = EDGE_CURVE('',#353,#394,#396,.T.);
#394 = VERTEX_POINT('',#395);
#395 = CARTESIAN_POINT('',(0.,25.017667027504,-82.22332506203));
#396 = LINE('',#397,#398);
#397 = CARTESIAN_POINT('',(0.,25.017667027504,-82.22332506203));
#398 = VECTOR('',#399,1.);
#399 = DIRECTION('',(-0.,-1.,-2.31E-15));
#400 = ORIENTED_EDGE('',*,*,#401,.F.);
#401 = EDGE_CURVE('',#402,#394,#404,.T.);
#402 = VERTEX_POINT('',#403);
#403 = CARTESIAN_POINT('',(8.,25.017667027504,-82.22332506203));
#404 = LINE('',#405,#406);
#405 = CARTESIAN_POINT('',(8.,25.017667027504,-82.22332506203));
#406 = VECTOR('',#407,1.);
#407 = DIRECTION('',(-1.,-0.,-0.));
#408 = ORIENTED_EDGE('',*,*,#409,.F.);
#409 = EDGE_CURVE('',#361,#402,#410,.T.);
#410 = LINE('',#411,#412);
#411 = CARTESIAN_POINT('',(8.,25.017667027504,-82.22332506203));
#412 = VECTOR('',#413,1.);
#413 = DIRECTION('',(-0.,-1.,-2.31E-15));
#414 = ORIENTED_EDGE('',*,*,#360,.T.);
#415 = PLANE('',#416);
#416 = AXIS2_PLACEMENT_3D('',#417,#418,#419);
#417 = CARTESIAN_POINT('',(8.,25.017667027504,-82.22332506203));
#418 = DIRECTION('',(0.,2.31E-15,-1.));
#419 = DIRECTION('',(0.,1.,2.31E-15));
#420 = ADVANCED_FACE('',(#421),#446,.F.);
#421 = FACE_BOUND('',#422,.T.);
#422 = EDGE_LOOP('',(#423,#431,#439,#445));
#423 = ORIENTED_EDGE('',*,*,#424,.T.);
#424 = EDGE_CURVE('',#394,#425,#427,.T.);
#425 = VERTEX_POINT('',#426);
#426 = CARTESIAN_POINT('',(0.,25.017667027504,-70.22332506203));
#427 = LINE('',#428,#429);
#428 = CARTESIAN_POINT('',(0.,25.017667027504,-70.22332506203));
#429 = VECTOR('',#430,1.);
#430 = DIRECTION('',(-0.,-0.,1.));
#431 = ORIENTED_EDGE('',*,*,#432,.F.);
#432 = EDGE_CURVE('',#433,#425,#435,.T.);
#433 = VERTEX_POINT('',#434);
#434 = CARTESIAN_POINT('',(8.,25.017667027504,-70.22332506203));
#435 = LINE('',#436,#437);
#436 = CARTESIAN_POINT('',(8.,25.017667027504,-70.22332506203));
#437 = VECTOR('',#438,1.);
#438 = DIRECTION('',(-1.,-0.,-0.));
#439 = ORIENTED_EDGE('',*,*,#440,.F.);
#440 = EDGE_CURVE('',#402,#433,#441,.T.);
#441 = LINE('',#442,#443);
#442 = CARTESIAN_POINT('',(8.,25.017667027504,-70.22332506203));
#443 = VECTOR('',#444,1.);
#444 = DIRECTION('',(-0.,-0.,1.));
#445 = ORIENTED_EDGE('',*,*,#401,.T.);
#446 = PLANE('',#447);
#447 = AXIS2_PLACEMENT_3D('',#448,#449,#450);
#448 = CARTESIAN_POINT('',(8.,25.017667027504,-70.22332506203));
#449 = DIRECTION('',(0.,-1.,0.));
#450 = DIRECTION('',(0.,-0.,-1.));
#451 = ADVANCED_FACE('',(#452),#477,.F.);
#452 = FACE_BOUND('',#453,.T.);
#453 = EDGE_LOOP('',(#454,#462,#470,#476));
#454 = ORIENTED_EDGE('',*,*,#455,.T.);
#455 = EDGE_CURVE('',#425,#456,#458,.T.);
#456 = VERTEX_POINT('',#457);
#457 = CARTESIAN_POINT('',(0.,2.5,-70.22332506203));
#458 = LINE('',#459,#460);
#459 = CARTESIAN_POINT('',(0.,2.5,-70.22332506203));
#460 = VECTOR('',#461,1.);
#461 = DIRECTION('',(-0.,-1.,-0.));
#462 = ORIENTED_EDGE('',*,*,#463,.F.);
#463 = EDGE_CURVE('',#464,#456,#466,.T.);
#464 = VERTEX_POINT('',#465);
#465 = CARTESIAN_POINT('',(8.,2.5,-70.22332506203));
#466 = LINE('',#467,#468);
#467 = CARTESIAN_POINT('',(8.,2.5,-70.22332506203));
#468 = VECTOR('',#469,1.);
#469 = DIRECTION('',(-1.,-0.,-0.));
#470 = ORIENTED_EDGE('',*,*,#471,.F.);
#471 = EDGE_CURVE('',#433,#464,#472,.T.);
#472 = LINE('',#473,#474);
#473 = CARTESIAN_POINT('',(8.,2.5,-70.22332506203));
#474 = VECTOR('',#475,1.);
#475 = DIRECTION('',(-0.,-1.,-0.));
#476 = ORIENTED_EDGE('',*,*,#432,.T.);
#477 = PLANE('',#478);
#478 = AXIS2_PLACEMENT_3D('',#479,#480,#481);
#479 = CARTESIAN_POINT('',(8.,2.5,-70.22332506203));
#480 = DIRECTION('',(0.,0.,-1.));
#481 = DIRECTION('',(-1.,0.,-0.));
#482 = ADVANCED_FACE('',(#483),#499,.F.);
#483 = FACE_BOUND('',#484,.T.);
#484 = EDGE_LOOP('',(#485,#491,#492,#498));
#485 = ORIENTED_EDGE('',*,*,#486,.T.);
#486 = EDGE_CURVE('',#456,#138,#487,.T.);
#487 = LINE('',#488,#489);
#488 = CARTESIAN_POINT('',(0.,0.,-67.72332506203));
#489 = VECTOR('',#490,1.);
#490 = DIRECTION('',(-0.,-0.707106781187,0.707106781187));
#491 = ORIENTED_EDGE('',*,*,#163,.F.);
#492 = ORIENTED_EDGE('',*,*,#493,.F.);
#493 = EDGE_CURVE('',#464,#156,#494,.T.);
#494 = LINE('',#495,#496);
#495 = CARTESIAN_POINT('',(8.,0.,-67.72332506203));
#496 = VECTOR('',#497,1.);
#497 = DIRECTION('',(-0.,-0.707106781187,0.707106781187));
#498 = ORIENTED_EDGE('',*,*,#463,.T.);
#499 = PLANE('',#500);
#500 = AXIS2_PLACEMENT_3D('',#501,#502,#503);
#501 = CARTESIAN_POINT('',(8.,0.,-67.72332506203));
#502 = DIRECTION('',(0.,-0.707106781187,-0.707106781187));
#503 = DIRECTION('',(0.,0.707106781187,-0.707106781187));
#504 = ADVANCED_FACE('',(#505),#518,.T.);
#505 = FACE_BOUND('',#506,.T.);
#506 = EDGE_LOOP('',(#507,#508,#509,#510,#511,#512,#513,#514,#515,#516,
    #517));
#507 = ORIENTED_EDGE('',*,*,#155,.T.);
#508 = ORIENTED_EDGE('',*,*,#193,.T.);
#509 = ORIENTED_EDGE('',*,*,#234,.T.);
#510 = ORIENTED_EDGE('',*,*,#265,.T.);
#511 = ORIENTED_EDGE('',*,*,#296,.T.);
#512 = ORIENTED_EDGE('',*,*,#337,.T.);
#513 = ORIENTED_EDGE('',*,*,#368,.T.);
#514 = ORIENTED_EDGE('',*,*,#409,.T.);
#515 = ORIENTED_EDGE('',*,*,#440,.T.);
#516 = ORIENTED_EDGE('',*,*,#471,.T.);
#517 = ORIENTED_EDGE('',*,*,#493,.T.);
#518 = PLANE('',#519);
#519 = AXIS2_PLACEMENT_3D('',#520,#521,#522);
#520 = CARTESIAN_POINT('',(8.,0.,0.));
#521 = DIRECTION('',(1.,-0.,0.));
#522 = DIRECTION('',(0.,0.,-1.));
#523 = ADVANCED_FACE('',(#524),#537,.F.);
#524 = FACE_BOUND('',#525,.T.);
#525 = EDGE_LOOP('',(#526,#527,#528,#529,#530,#531,#532,#533,#534,#535,
    #536));
#526 = ORIENTED_EDGE('',*,*,#137,.F.);
#527 = ORIENTED_EDGE('',*,*,#486,.F.);
#528 = ORIENTED_EDGE('',*,*,#455,.F.);
#529 = ORIENTED_EDGE('',*,*,#424,.F.);
#530 = ORIENTED_EDGE('',*,*,#393,.F.);
#531 = ORIENTED_EDGE('',*,*,#352,.F.);
#532 = ORIENTED_EDGE('',*,*,#321,.F.);
#533 = ORIENTED_EDGE('',*,*,#280,.F.);
#534 = ORIENTED_EDGE('',*,*,#249,.F.);
#535 = ORIENTED_EDGE('',*,*,#218,.F.);
#536 = ORIENTED_EDGE('',*,*,#177,.F.);
#537 = PLANE('',#538);
#538 = AXIS2_PLACEMENT_3D('',#539,#540,#541);
#539 = CARTESIAN_POINT('',(0.,0.,0.));
#540 = DIRECTION('',(1.,-0.,0.));
#541 = DIRECTION('',(0.,0.,-1.));
#542 = ADVANCED_FACE('',(#543),#549,.F.);
#543 = FACE_BOUND('',#544,.F.);
#544 = EDGE_LOOP('',(#545,#546,#547,#548));
#545 = ORIENTED_EDGE('',*,*,#383,.F.);
#546 = ORIENTED_EDGE('',*,*,#85,.F.);
#547 = ORIENTED_EDGE('',*,*,#311,.T.);
#548 = ORIENTED_EDGE('',*,*,#104,.T.);
#549 = CYLINDRICAL_SURFACE('',#550,1.6);
#550 = AXIS2_PLACEMENT_3D('',#551,#552,#553);
#551 = CARTESIAN_POINT('',(4.,28.017667027504,-92.22332506203));
#552 = DIRECTION('',(-0.,-0.,1.));
#553 = DIRECTION('',(1.,0.,0.));
#554 = ADVANCED_FACE('',(#555),#561,.F.);
#555 = FACE_BOUND('',#556,.F.);
#556 = EDGE_LOOP('',(#557,#558,#559,#560));
#557 = ORIENTED_EDGE('',*,*,#127,.F.);
#558 = ORIENTED_EDGE('',*,*,#43,.F.);
#559 = ORIENTED_EDGE('',*,*,#208,.T.);
#560 = ORIENTED_EDGE('',*,*,#62,.T.);
#561 = CYLINDRICAL_SURFACE('',#562,2.);
#562 = AXIS2_PLACEMENT_3D('',#563,#564,#565);
#563 = CARTESIAN_POINT('',(4.,-10.,-65.22332506203));
#564 = DIRECTION('',(-0.,1.,-0.));
#565 = DIRECTION('',(0.,0.,1.));
#566 = ( GEOMETRIC_REPRESENTATION_CONTEXT(3) 
GLOBAL_UNCERTAINTY_ASSIGNED_CONTEXT((#570)) GLOBAL_UNIT_ASSIGNED_CONTEXT
((#567,#568,#569)) REPRESENTATION_CONTEXT('Context #1',
  '3D Context with UNIT and UNCERTAINTY') );
#567 = ( LENGTH_UNIT() NAMED_UNIT(*) SI_UNIT(.MILLI.,.METRE.) );
#568 = ( NAMED_UNIT(*) PLANE_ANGLE_UNIT() SI_UNIT($,.RADIAN.) );
#569 = ( NAMED_UNIT(*) SI_UNIT($,.STERADIAN.) SOLID_ANGLE_UNIT() );
#570 = UNCERTAINTY_MEASURE_WITH_UNIT(LENGTH_MEASURE(1.E-07),#567,
  'distance_accuracy_value','confusion accuracy');
#571 = CONTEXT_DEPENDENT_SHAPE_REPRESENTATION(#572,#574);
#572 = ( REPRESENTATION_RELATIONSHIP('','',#36,#10) 
REPRESENTATION_RELATIONSHIP_WITH_TRANSFORMATION(#573) 
SHAPE_REPRESENTATION_RELATIONSHIP() );
#573 = ITEM_DEFINED_TRANSFORMATION('','',#11,#15);
#574 = PRODUCT_DEFINITION_SHAPE('Placement','Placement of an item',#575
  );
#575 = NEXT_ASSEMBLY_USAGE_OCCURRENCE('1','PCB_Mounting','',#5,#31,$);
#576 = PRODUCT_RELATED_PRODUCT_CATEGORY('part',$,(#33));
#577 = SHAPE_DEFINITION_REPRESENTATION(#578,#584);
#578 = PRODUCT_DEFINITION_SHAPE('','',#579);
#579 = PRODUCT_DEFINITION('design','',#580,#583);
#580 = PRODUCT_DEFINITION_FORMATION('','',#581);
#581 = PRODUCT('Pad','Pad','',(#582));
#582 = PRODUCT_CONTEXT('',#2,'mechanical');
#583 = PRODUCT_DEFINITION_CONTEXT('part definition',#2,'design');
#584 = ADVANCED_BREP_SHAPE_REPRESENTATION('',(#11,#585),#774);
#585 = MANIFOLD_SOLID_BREP('',#586);
#586 = CLOSED_SHELL('',(#587,#627,#658,#689,#711,#744,#759));
#587 = ADVANCED_FACE('',(#588),#622,.F.);
#588 = FACE_BOUND('',#589,.F.);
#589 = EDGE_LOOP('',(#590,#600,#608,#616));
#590 = ORIENTED_EDGE('',*,*,#591,.T.);
#591 = EDGE_CURVE('',#592,#594,#596,.T.);
#592 = VERTEX_POINT('',#593);
#593 = CARTESIAN_POINT('',(0.,-2.,-74.22332506203));
#594 = VERTEX_POINT('',#595);
#595 = CARTESIAN_POINT('',(0.,-4.,-74.22332506203));
#596 = LINE('',#597,#598);
#597 = CARTESIAN_POINT('',(0.,-2.,-74.22332506203));
#598 = VECTOR('',#599,1.);
#599 = DIRECTION('',(0.,-1.,2.2E-16));
#600 = ORIENTED_EDGE('',*,*,#601,.T.);
#601 = EDGE_CURVE('',#594,#602,#604,.T.);
#602 = VERTEX_POINT('',#603);
#603 = CARTESIAN_POINT('',(8.,-4.,-74.22332506203));
#604 = LINE('',#605,#606);
#605 = CARTESIAN_POINT('',(0.,-4.,-74.22332506203));
#606 = VECTOR('',#607,1.);
#607 = DIRECTION('',(1.,0.,0.));
#608 = ORIENTED_EDGE('',*,*,#609,.F.);
#609 = EDGE_CURVE('',#610,#602,#612,.T.);
#610 = VERTEX_POINT('',#611);
#611 = CARTESIAN_POINT('',(8.,-2.,-74.22332506203));
#612 = LINE('',#613,#614);
#613 = CARTESIAN_POINT('',(8.,-2.,-74.22332506203));
#614 = VECTOR('',#615,1.);
#615 = DIRECTION('',(0.,-1.,2.2E-16));
#616 = ORIENTED_EDGE('',*,*,#617,.F.);
#617 = EDGE_CURVE('',#592,#610,#618,.T.);
#618 = LINE('',#619,#620);
#619 = CARTESIAN_POINT('',(0.,-2.,-74.22332506203));
#620 = VECTOR('',#621,1.);
#621 = DIRECTION('',(1.,0.,0.));
#622 = PLANE('',#623);
#623 = AXIS2_PLACEMENT_3D('',#624,#625,#626);
#624 = CARTESIAN_POINT('',(0.,-2.,-74.22332506203));
#625 = DIRECTION('',(-0.,2.2E-16,1.));
#626 = DIRECTION('',(1.,0.,0.));
#627 = ADVANCED_FACE('',(#628),#653,.F.);
#628 = FACE_BOUND('',#629,.F.);
#629 = EDGE_LOOP('',(#630,#631,#639,#647));
#630 = ORIENTED_EDGE('',*,*,#609,.T.);
#631 = ORIENTED_EDGE('',*,*,#632,.T.);
#632 = EDGE_CURVE('',#602,#633,#635,.T.);
#633 = VERTEX_POINT('',#634);
#634 = CARTESIAN_POINT('',(8.,-4.,-60.22332506203));
#635 = LINE('',#636,#637);
#636 = CARTESIAN_POINT('',(8.,-4.,-74.22332506203));
#637 = VECTOR('',#638,1.);
#638 = DIRECTION('',(0.,0.,1.));
#639 = ORIENTED_EDGE('',*,*,#640,.F.);
#640 = EDGE_CURVE('',#641,#633,#643,.T.);
#641 = VERTEX_POINT('',#642);
#642 = CARTESIAN_POINT('',(8.,-2.,-60.22332506203));
#643 = LINE('',#644,#645);
#644 = CARTESIAN_POINT('',(8.,-2.,-60.22332506203));
#645 = VECTOR('',#646,1.);
#646 = DIRECTION('',(0.,-1.,2.2E-16));
#647 = ORIENTED_EDGE('',*,*,#648,.F.);
#648 = EDGE_CURVE('',#610,#641,#649,.T.);
#649 = LINE('',#650,#651);
#650 = CARTESIAN_POINT('',(8.,-2.,-74.22332506203));
#651 = VECTOR('',#652,1.);
#652 = DIRECTION('',(0.,0.,1.));
#653 = PLANE('',#654);
#654 = AXIS2_PLACEMENT_3D('',#655,#656,#657);
#655 = CARTESIAN_POINT('',(8.,-2.,-74.22332506203));
#656 = DIRECTION('',(-1.,0.,0.));
#657 = DIRECTION('',(0.,2.2E-16,1.));
#658 = ADVANCED_FACE('',(#659),#684,.F.);
#659 = FACE_BOUND('',#660,.F.);
#660 = EDGE_LOOP('',(#661,#662,#670,#678));
#661 = ORIENTED_EDGE('',*,*,#640,.T.);
#662 = ORIENTED_EDGE('',*,*,#663,.T.);
#663 = EDGE_CURVE('',#633,#664,#666,.T.);
#664 = VERTEX_POINT('',#665);
#665 = CARTESIAN_POINT('',(0.,-4.,-60.22332506203));
#666 = LINE('',#667,#668);
#667 = CARTESIAN_POINT('',(8.,-4.,-60.22332506203));
#668 = VECTOR('',#669,1.);
#669 = DIRECTION('',(-1.,0.,0.));
#670 = ORIENTED_EDGE('',*,*,#671,.F.);
#671 = EDGE_CURVE('',#672,#664,#674,.T.);
#672 = VERTEX_POINT('',#673);
#673 = CARTESIAN_POINT('',(0.,-2.,-60.22332506203));
#674 = LINE('',#675,#676);
#675 = CARTESIAN_POINT('',(0.,-2.,-60.22332506203));
#676 = VECTOR('',#677,1.);
#677 = DIRECTION('',(0.,-1.,2.2E-16));
#678 = ORIENTED_EDGE('',*,*,#679,.F.);
#679 = EDGE_CURVE('',#641,#672,#680,.T.);
#680 = LINE('',#681,#682);
#681 = CARTESIAN_POINT('',(8.,-2.,-60.22332506203));
#682 = VECTOR('',#683,1.);
#683 = DIRECTION('',(-1.,0.,0.));
#684 = PLANE('',#685);
#685 = AXIS2_PLACEMENT_3D('',#686,#687,#688);
#686 = CARTESIAN_POINT('',(8.,-2.,-60.22332506203));
#687 = DIRECTION('',(-0.,-2.2E-16,-1.));
#688 = DIRECTION('',(-1.,0.,0.));
#689 = ADVANCED_FACE('',(#690),#706,.F.);
#690 = FACE_BOUND('',#691,.F.);
#691 = EDGE_LOOP('',(#692,#693,#699,#700));
#692 = ORIENTED_EDGE('',*,*,#671,.T.);
#693 = ORIENTED_EDGE('',*,*,#694,.T.);
#694 = EDGE_CURVE('',#664,#594,#695,.T.);
#695 = LINE('',#696,#697);
#696 = CARTESIAN_POINT('',(0.,-4.,-60.22332506203));
#697 = VECTOR('',#698,1.);
#698 = DIRECTION('',(0.,0.,-1.));
#699 = ORIENTED_EDGE('',*,*,#591,.F.);
#700 = ORIENTED_EDGE('',*,*,#701,.F.);
#701 = EDGE_CURVE('',#672,#592,#702,.T.);
#702 = LINE('',#703,#704);
#703 = CARTESIAN_POINT('',(0.,-2.,-60.22332506203));
#704 = VECTOR('',#705,1.);
#705 = DIRECTION('',(0.,0.,-1.));
#706 = PLANE('',#707);
#707 = AXIS2_PLACEMENT_3D('',#708,#709,#710);
#708 = CARTESIAN_POINT('',(0.,-2.,-60.22332506203));
#709 = DIRECTION('',(1.,0.,0.));
#710 = DIRECTION('',(0.,-2.2E-16,-1.));
#711 = ADVANCED_FACE('',(#712),#739,.F.);
#712 = FACE_BOUND('',#713,.T.);
#713 = EDGE_LOOP('',(#714,#724,#731,#732));
#714 = ORIENTED_EDGE('',*,*,#715,.T.);
#715 = EDGE_CURVE('',#716,#718,#720,.T.);
#716 = VERTEX_POINT('',#717);
#717 = CARTESIAN_POINT('',(6.,-2.,-65.22332506203));
#718 = VERTEX_POINT('',#719);
#719 = CARTESIAN_POINT('',(6.,-4.,-65.22332506203));
#720 = LINE('',#721,#722);
#721 = CARTESIAN_POINT('',(6.,-2.,-65.22332506203));
#722 = VECTOR('',#723,1.);
#723 = DIRECTION('',(0.,-1.,2.2E-16));
#724 = ORIENTED_EDGE('',*,*,#725,.T.);
#725 = EDGE_CURVE('',#718,#718,#726,.T.);
#726 = CIRCLE('',#727,2.);
#727 = AXIS2_PLACEMENT_3D('',#728,#729,#730);
#728 = CARTESIAN_POINT('',(4.,-4.,-65.22332506203));
#729 = DIRECTION('',(0.,-1.,0.));
#730 = DIRECTION('',(1.,0.,0.));
#731 = ORIENTED_EDGE('',*,*,#715,.F.);
#732 = ORIENTED_EDGE('',*,*,#733,.F.);
#733 = EDGE_CURVE('',#716,#716,#734,.T.);
#734 = CIRCLE('',#735,2.);
#735 = AXIS2_PLACEMENT_3D('',#736,#737,#738);
#736 = CARTESIAN_POINT('',(4.,-2.,-65.22332506203));
#737 = DIRECTION('',(0.,-1.,0.));
#738 = DIRECTION('',(1.,0.,0.));
#739 = CYLINDRICAL_SURFACE('',#740,2.);
#740 = AXIS2_PLACEMENT_3D('',#741,#742,#743);
#741 = CARTESIAN_POINT('',(4.,-2.,-65.22332506203));
#742 = DIRECTION('',(-0.,1.,-2.2E-16));
#743 = DIRECTION('',(1.,0.,0.));
#744 = ADVANCED_FACE('',(#745,#751),#754,.T.);
#745 = FACE_BOUND('',#746,.F.);
#746 = EDGE_LOOP('',(#747,#748,#749,#750));
#747 = ORIENTED_EDGE('',*,*,#617,.T.);
#748 = ORIENTED_EDGE('',*,*,#648,.T.);
#749 = ORIENTED_EDGE('',*,*,#679,.T.);
#750 = ORIENTED_EDGE('',*,*,#701,.T.);
#751 = FACE_BOUND('',#752,.T.);
#752 = EDGE_LOOP('',(#753));
#753 = ORIENTED_EDGE('',*,*,#733,.T.);
#754 = PLANE('',#755);
#755 = AXIS2_PLACEMENT_3D('',#756,#757,#758);
#756 = CARTESIAN_POINT('',(4.,-2.,-66.84120097757));
#757 = DIRECTION('',(0.,1.,0.));
#758 = DIRECTION('',(0.,0.,1.));
#759 = ADVANCED_FACE('',(#760,#766),#769,.F.);
#760 = FACE_BOUND('',#761,.T.);
#761 = EDGE_LOOP('',(#762,#763,#764,#765));
#762 = ORIENTED_EDGE('',*,*,#601,.T.);
#763 = ORIENTED_EDGE('',*,*,#632,.T.);
#764 = ORIENTED_EDGE('',*,*,#663,.T.);
#765 = ORIENTED_EDGE('',*,*,#694,.T.);
#766 = FACE_BOUND('',#767,.F.);
#767 = EDGE_LOOP('',(#768));
#768 = ORIENTED_EDGE('',*,*,#725,.T.);
#769 = PLANE('',#770);
#770 = AXIS2_PLACEMENT_3D('',#771,#772,#773);
#771 = CARTESIAN_POINT('',(4.,-4.,-66.84120097757));
#772 = DIRECTION('',(0.,1.,0.));
#773 = DIRECTION('',(0.,0.,1.));
#774 = ( GEOMETRIC_REPRESENTATION_CONTEXT(3) 
GLOBAL_UNCERTAINTY_ASSIGNED_CONTEXT((#778)) GLOBAL_UNIT_ASSIGNED_CONTEXT
((#775,#776,#777)) REPRESENTATION_CONTEXT('Context #1',
  '3D Context with UNIT and UNCERTAINTY') );
#775 = ( LENGTH_UNIT() NAMED_UNIT(*) SI_UNIT(.MILLI.,.METRE.) );
#776 = ( NAMED_UNIT(*) PLANE_ANGLE_UNIT() SI_UNIT($,.RADIAN.) );
#777 = ( NAMED_UNIT(*) SI_UNIT($,.STERADIAN.) SOLID_ANGLE_UNIT() );
#778 = UNCERTAINTY_MEASURE_WITH_UNIT(LENGTH_MEASURE(1.E-07),#775,
  'distance_accuracy_value','confusion accuracy');
#779 = CONTEXT_DEPENDENT_SHAPE_REPRESENTATION(#780,#782);
#780 = ( REPRESENTATION_RELATIONSHIP('','',#584,#10) 
REPRESENTATION_RELATIONSHIP_WITH_TRANSFORMATION(#781) 
SHAPE_REPRESENTATION_RELATIONSHIP() );
#781 = ITEM_DEFINED_TRANSFORMATION('','',#11,#19);
#782 = PRODUCT_DEFINITION_SHAPE('Placement','Placement of an item',#783
  );
#783 = NEXT_ASSEMBLY_USAGE_OCCURRENCE('2','Pad','',#5,#579,$);
#784 = PRODUCT_RELATED_PRODUCT_CATEGORY('part',$,(#581));
#785 = MECHANICAL_DESIGN_GEOMETRIC_PRESENTATION_REPRESENTATION('',(#786)
  ,#566);
#786 = STYLED_ITEM('color',(#787),#37);
#787 = PRESENTATION_STYLE_ASSIGNMENT((#788,#794));
#788 = SURFACE_STYLE_USAGE(.BOTH.,#789);
#789 = SURFACE_SIDE_STYLE('',(#790));
#790 = SURFACE_STYLE_FILL_AREA(#791);
#791 = FILL_AREA_STYLE('',(#792));
#792 = FILL_AREA_STYLE_COLOUR('',#793);
#793 = COLOUR_RGB('',0.678431390124,0.709803936702,0.741176476869);
#794 = CURVE_STYLE('',#795,POSITIVE_LENGTH_MEASURE(0.1),#796);
#795 = DRAUGHTING_PRE_DEFINED_CURVE_FONT('continuous');
#796 = COLOUR_RGB('',9.803921802644E-02,9.803921802644E-02,
  9.803921802644E-02);
#797 = MECHANICAL_DESIGN_GEOMETRIC_PRESENTATION_REPRESENTATION('',(#798)
  ,#774);
#798 = STYLED_ITEM('color',(#799),#585);
#799 = PRESENTATION_STYLE_ASSIGNMENT((#800,#805));
#800 = SURFACE_STYLE_USAGE(.BOTH.,#801);
#801 = SURFACE_SIDE_STYLE('',(#802));
#802 = SURFACE_STYLE_FILL_AREA(#803);
#803 = FILL_AREA_STYLE('',(#804));
#804 = FILL_AREA_STYLE_COLOUR('',#793);
#805 = CURVE_STYLE('',#806,POSITIVE_LENGTH_MEASURE(0.1),#796);
#806 = DRAUGHTING_PRE_DEFINED_CURVE_FONT('continuous');
ENDSEC;
END-ISO-10303-21;
