G04*
G04 #@! TF.GenerationSoftware,Altium Limited,Altium Designer,25.4.2 (15)*
G04*
G04 Layer_Color=16711935*
%FSLAX25Y25*%
%MOIN*%
G70*
G04*
G04 #@! TF.SameCoordinates,59873E22-7142-4EAE-A8DC-02BF96C0FEA4*
G04*
G04*
G04 #@! TF.FilePolarity,Positive*
G04*
G01*
G75*
%ADD75C,0.00197*%
%ADD76C,0.00050*%
%ADD77C,0.00051*%
D75*
X241831Y5433D02*
X241370Y6547D01*
X240256Y7008D01*
X233957Y10945D02*
X234091Y9926D01*
X234484Y8976D01*
X235110Y8161D01*
X235925Y7535D01*
X236875Y7142D01*
X237894Y7008D01*
X228051Y1D02*
X227032Y-134D01*
X226083Y-527D01*
X225267Y-1153D01*
X224642Y-1968D01*
X224248Y-2918D01*
X224114Y-3936D01*
X119291Y-3150D02*
X119188Y-2167D01*
X118883Y-1228D01*
X118389Y-373D01*
X117728Y361D01*
X116929Y942D01*
X116027Y1344D01*
X115061Y1549D01*
X114073D01*
X113107Y1344D01*
X112205Y942D01*
X111406Y361D01*
X110745Y-373D01*
X110251Y-1228D01*
X109946Y-2167D01*
X109843Y-3150D01*
X17618Y-3936D02*
X17484Y-2918D01*
X17091Y-1968D01*
X16465Y-1153D01*
X15650Y-527D01*
X14700Y-134D01*
X13681Y1D01*
X3839Y7008D02*
X4857Y7142D01*
X5807Y7535D01*
X6622Y8161D01*
X7248Y8976D01*
X7641Y9926D01*
X7776Y10945D01*
X1476Y7008D02*
X363Y6547D01*
X-98Y5433D01*
X241831Y1D02*
Y5433D01*
X237894Y7008D02*
X240256D01*
X228051Y1D02*
X241831D01*
X233957Y10945D02*
Y34803D01*
X224114Y-23622D02*
Y-20553D01*
Y-3936D01*
X119291Y-23622D02*
X224114D01*
X119291D02*
Y-20553D01*
Y-3150D01*
X109843Y-23622D02*
Y-20553D01*
Y-3150D01*
X17618Y-23622D02*
X109843D01*
X17618D02*
Y-20553D01*
Y-3936D01*
X7776Y10945D02*
Y34803D01*
X-98Y1D02*
X13681D01*
X1476Y7008D02*
X3839D01*
X-98Y1D02*
Y5433D01*
D76*
X283221Y179780D02*
X283196Y180777D01*
X283120Y181771D01*
X282994Y182761D01*
X282819Y183742D01*
X282593Y184714D01*
X282319Y185673D01*
X281997Y186617D01*
X281627Y187543D01*
X281211Y188450D01*
X280749Y189334D01*
X280243Y190194D01*
X279694Y191026D01*
X279104Y191830D01*
X278474Y192604D01*
X277805Y193344D01*
X277100Y194049D01*
X276360Y194718D01*
X275587Y195348D01*
X274783Y195938D01*
X273950Y196487D01*
X273090Y196993D01*
X272206Y197455D01*
X271300Y197871D01*
X270373Y198241D01*
X269429Y198563D01*
X268470Y198837D01*
X267499Y199063D01*
X266517Y199238D01*
X265527Y199364D01*
X264533Y199440D01*
X263536Y199465D01*
X263535Y34976D02*
X264532Y35002D01*
X265527Y35077D01*
X266516Y35203D01*
X267498Y35379D01*
X268470Y35605D01*
X269428Y35879D01*
X270372Y36202D01*
X271298Y36572D01*
X272205Y36988D01*
X273089Y37450D01*
X273948Y37956D01*
X274781Y38505D01*
X275585Y39095D01*
X276358Y39725D01*
X277098Y40394D01*
X277803Y41099D01*
X278472Y41839D01*
X279102Y42612D01*
X279692Y43416D01*
X280241Y44249D01*
X280747Y45108D01*
X281209Y45992D01*
X281625Y46899D01*
X281995Y47825D01*
X282318Y48768D01*
X282592Y49727D01*
X282818Y50699D01*
X282994Y51681D01*
X283120Y52670D01*
X283195Y53664D01*
X283221Y54662D01*
X-41386Y54661D02*
X-41360Y53664D01*
X-41285Y52670D01*
X-41159Y51681D01*
X-40983Y50699D01*
X-40757Y49727D01*
X-40483Y48768D01*
X-40160Y47825D01*
X-39790Y46899D01*
X-39374Y45992D01*
X-38912Y45108D01*
X-38406Y44249D01*
X-37857Y43416D01*
X-37267Y42612D01*
X-36637Y41839D01*
X-35968Y41099D01*
X-35263Y40394D01*
X-34523Y39725D01*
X-33750Y39095D01*
X-32946Y38505D01*
X-32113Y37956D01*
X-31254Y37450D01*
X-30370Y36988D01*
X-29463Y36572D01*
X-28537Y36202D01*
X-27594Y35879D01*
X-26635Y35605D01*
X-25663Y35379D01*
X-24682Y35203D01*
X-23692Y35077D01*
X-22698Y35002D01*
X-21701Y34976D01*
X-21701Y199465D02*
X-22698Y199439D01*
X-23692Y199364D01*
X-24682Y199238D01*
X-25663Y199062D01*
X-26635Y198836D01*
X-27594Y198562D01*
X-28537Y198239D01*
X-29464Y197869D01*
X-30370Y197453D01*
X-31254Y196991D01*
X-32113Y196485D01*
X-32946Y195936D01*
X-33750Y195346D01*
X-34523Y194716D01*
X-35263Y194047D01*
X-35968Y193342D01*
X-36637Y192602D01*
X-37267Y191829D01*
X-37857Y191025D01*
X-38406Y190192D01*
X-38912Y189333D01*
X-39374Y188449D01*
X-39790Y187542D01*
X-40160Y186616D01*
X-40483Y185672D01*
X-40757Y184714D01*
X-40983Y183742D01*
X-41159Y182760D01*
X-41285Y181771D01*
X-41361Y180777D01*
X-41386Y179780D01*
X-41386Y54661D02*
Y179780D01*
X283221Y54662D02*
Y179780D01*
X-21701Y34976D02*
X7827D01*
X-21701Y199465D02*
X263535D01*
X234008Y34976D02*
X263535D01*
D77*
X7827Y34850D02*
Y34976D01*
X234008Y34850D02*
Y34976D01*
M02*
