G04*
G04 #@! TF.GenerationSoftware,Altium Limited,Altium Designer,25.4.2 (15)*
G04*
G04 Layer_Color=16711935*
%FSLAX25Y25*%
%MOIN*%
G70*
G04*
G04 #@! TF.SameCoordinates,59873E22-7142-4EAE-A8DC-02BF96C0FEA4*
G04*
G04*
G04 #@! TF.FilePolarity,Negative*
G04*
G01*
G75*
%ADD15R,0.02559X0.11417*%
%ADD16R,0.05984X0.05984*%
%ADD17C,0.05984*%
%ADD18C,0.06591*%
%ADD19C,0.06102*%
%ADD20C,0.04784*%
%ADD21C,0.09646*%
%ADD22C,0.13976*%
%ADD23C,0.02362*%
%ADD44R,0.02200X0.05750*%
%ADD45R,0.02401X0.07107*%
%ADD46R,0.02410X0.07107*%
%ADD52R,0.04331X0.03937*%
%ADD53R,0.03937X0.04331*%
%ADD54R,0.04134X0.03347*%
%ADD55R,0.06102X0.02362*%
G04:AMPARAMS|DCode=56|XSize=33.86mil|YSize=40.55mil|CornerRadius=7.57mil|HoleSize=0mil|Usage=FLASHONLY|Rotation=0.000|XOffset=0mil|YOffset=0mil|HoleType=Round|Shape=RoundedRectangle|*
%AMROUNDEDRECTD56*
21,1,0.03386,0.02542,0,0,0.0*
21,1,0.01873,0.04055,0,0,0.0*
1,1,0.01513,0.00936,-0.01271*
1,1,0.01513,-0.00936,-0.01271*
1,1,0.01513,-0.00936,0.01271*
1,1,0.01513,0.00936,0.01271*
%
%ADD56ROUNDEDRECTD56*%
%ADD57R,0.03347X0.04134*%
%ADD58R,0.03740X0.03740*%
%ADD59O,0.03937X0.02165*%
%ADD60R,0.04134X0.04528*%
%ADD61C,0.04528*%
%ADD62R,0.03740X0.03740*%
%ADD63R,0.04528X0.04134*%
%ADD64R,0.04528X0.06102*%
G04:AMPARAMS|DCode=65|XSize=53.54mil|YSize=77.56mil|CornerRadius=10.81mil|HoleSize=0mil|Usage=FLASHONLY|Rotation=90.000|XOffset=0mil|YOffset=0mil|HoleType=Round|Shape=RoundedRectangle|*
%AMROUNDEDRECTD65*
21,1,0.05354,0.05593,0,0,90.0*
21,1,0.03192,0.07756,0,0,90.0*
1,1,0.02163,0.02797,0.01596*
1,1,0.02163,0.02797,-0.01596*
1,1,0.02163,-0.02797,-0.01596*
1,1,0.02163,-0.02797,0.01596*
%
%ADD65ROUNDEDRECTD65*%
%ADD66R,0.06102X0.04528*%
D15*
X21654Y-14173D02*
D03*
X24803D02*
D03*
X27953D02*
D03*
X31102D02*
D03*
X34252D02*
D03*
X37402D02*
D03*
X40551D02*
D03*
X43701D02*
D03*
X46850D02*
D03*
X50000D02*
D03*
X53150D02*
D03*
X56299D02*
D03*
X59449D02*
D03*
X62598D02*
D03*
X65748D02*
D03*
X68898D02*
D03*
X72047D02*
D03*
X75197D02*
D03*
X78347D02*
D03*
X81496D02*
D03*
X84646D02*
D03*
X87795D02*
D03*
X90945D02*
D03*
X94095D02*
D03*
X97244D02*
D03*
X100394D02*
D03*
X103543D02*
D03*
X106693D02*
D03*
X131890D02*
D03*
X122441D02*
D03*
X125591D02*
D03*
X128740D02*
D03*
X135039D02*
D03*
X138189D02*
D03*
X141339D02*
D03*
X144488D02*
D03*
X182283D02*
D03*
X172835D02*
D03*
X175984D02*
D03*
X179134D02*
D03*
X185433D02*
D03*
X188583D02*
D03*
X191732D02*
D03*
X194882D02*
D03*
X198031D02*
D03*
X201181D02*
D03*
X204331D02*
D03*
X207480D02*
D03*
X210630D02*
D03*
X213779D02*
D03*
X216929D02*
D03*
X220079D02*
D03*
X169685D02*
D03*
X166535D02*
D03*
X163386D02*
D03*
X160236D02*
D03*
X157087D02*
D03*
X147638D02*
D03*
X150787D02*
D03*
X153937D02*
D03*
D16*
X32976Y9878D02*
D03*
D17*
X42976D02*
D03*
X32976Y19878D02*
D03*
X42976D02*
D03*
X32976Y29878D02*
D03*
X42976D02*
D03*
D18*
X147973Y159448D02*
D03*
X137972D02*
D03*
X167973D02*
D03*
X157973D02*
D03*
X137972Y189448D02*
D03*
X167973D02*
D03*
X157280Y172125D02*
D03*
X187280D02*
D03*
X167280Y142125D02*
D03*
X157280D02*
D03*
X187280D02*
D03*
X177280D02*
D03*
X117280Y172125D02*
D03*
X147280D02*
D03*
X127279Y142125D02*
D03*
X117280D02*
D03*
X147280D02*
D03*
X137279D02*
D03*
X187972Y159448D02*
D03*
X177972D02*
D03*
X207973D02*
D03*
X197973D02*
D03*
X177972Y189448D02*
D03*
X207973D02*
D03*
X247972D02*
D03*
X217972D02*
D03*
X237972Y159448D02*
D03*
X247972D02*
D03*
X217972D02*
D03*
X227973D02*
D03*
X257280Y142125D02*
D03*
X267280D02*
D03*
X237280D02*
D03*
X247280D02*
D03*
X267280Y172125D02*
D03*
X237280D02*
D03*
X197280D02*
D03*
X227280D02*
D03*
X207280Y142125D02*
D03*
X197280D02*
D03*
X227280D02*
D03*
X217280D02*
D03*
X107973Y159448D02*
D03*
X97973D02*
D03*
X127972D02*
D03*
X117973D02*
D03*
X97973Y189448D02*
D03*
X127972D02*
D03*
X77280Y172125D02*
D03*
X107280D02*
D03*
X87280Y142125D02*
D03*
X77280D02*
D03*
X107280D02*
D03*
X97280D02*
D03*
D19*
X-1673Y152982D02*
D03*
X3327Y142982D02*
D03*
X8327Y152982D02*
D03*
X13327Y142982D02*
D03*
X18327Y152982D02*
D03*
X23327Y142982D02*
D03*
X28327Y152982D02*
D03*
X33327Y142982D02*
D03*
D20*
X-6654Y177982D02*
D03*
X38346D02*
D03*
D21*
X-14665Y189764D02*
D03*
X46260D02*
D03*
D22*
X90268Y96236D02*
D03*
D23*
X112881Y39764D02*
D03*
X192913Y85039D02*
D03*
X105584Y129041D02*
D03*
X115740Y133643D02*
D03*
X161793Y84258D02*
D03*
X153248Y103302D02*
D03*
X151969Y85806D02*
D03*
X143701Y70472D02*
D03*
X-28740Y183858D02*
D03*
X-6299Y117717D02*
D03*
X-1496Y130631D02*
D03*
X-12952Y117774D02*
D03*
X-15650Y69684D02*
D03*
X-11368Y51181D02*
D03*
X-10360Y69590D02*
D03*
X-8169Y53936D02*
D03*
X-6015Y61938D02*
D03*
X886Y82677D02*
D03*
X-9389Y86220D02*
D03*
X-11850D02*
D03*
X-21949Y82677D02*
D03*
X108485Y96985D02*
D03*
X112020Y89889D02*
D03*
X118586Y102436D02*
D03*
X105444Y99674D02*
D03*
X108805Y102306D02*
D03*
X127374Y81621D02*
D03*
X-6865Y107944D02*
D03*
X-9350Y99606D02*
D03*
X-12303Y96850D02*
D03*
X-23130Y129133D02*
D03*
X-2148Y88870D02*
D03*
X129255Y49051D02*
D03*
X154331Y70079D02*
D03*
X155118Y72835D02*
D03*
X117637Y44096D02*
D03*
X94085Y49319D02*
D03*
X94121Y43941D02*
D03*
X110476Y54866D02*
D03*
X118405Y64891D02*
D03*
X128642Y68517D02*
D03*
X93069Y11859D02*
D03*
X93131Y23557D02*
D03*
X93307Y-2756D02*
D03*
X90945Y-6693D02*
D03*
X91831Y112598D02*
D03*
X121872Y68508D02*
D03*
X111675Y23707D02*
D03*
X154823Y67716D02*
D03*
X129232Y44094D02*
D03*
X143209Y98184D02*
D03*
Y103302D02*
D03*
X146358Y90310D02*
D03*
X167421Y-6693D02*
D03*
X81496D02*
D03*
X50000D02*
D03*
X65847Y35432D02*
D03*
X153248Y19291D02*
D03*
X151655Y16141D02*
D03*
X141203D02*
D03*
X222539Y21653D02*
D03*
X201280Y12204D02*
D03*
X75292Y-6693D02*
D03*
X211019D02*
D03*
X182283D02*
D03*
X111824Y11810D02*
D03*
X231209Y71556D02*
D03*
X261793Y57323D02*
D03*
X216240Y71653D02*
D03*
X271776Y71109D02*
D03*
X241163Y101747D02*
D03*
X249694Y41084D02*
D03*
X226175Y50136D02*
D03*
X239594Y40944D02*
D03*
X221358Y71653D02*
D03*
X249669Y46727D02*
D03*
X246803Y57362D02*
D03*
X251740Y57342D02*
D03*
X266690Y57244D02*
D03*
X221185Y50122D02*
D03*
X213834Y104466D02*
D03*
X211265Y50099D02*
D03*
X135138Y-6693D02*
D03*
X153242Y13773D02*
D03*
X146335Y37033D02*
D03*
X208760Y40944D02*
D03*
X198917D02*
D03*
X141975Y42102D02*
D03*
X208710Y46839D02*
D03*
X206318Y50036D02*
D03*
X148888Y53706D02*
D03*
X168497Y65740D02*
D03*
X206398Y71653D02*
D03*
X201280D02*
D03*
X181890Y79528D02*
D03*
X183465Y85827D02*
D03*
X177225Y89886D02*
D03*
X176339Y95201D02*
D03*
X184252Y102756D02*
D03*
X174160D02*
D03*
X248720Y104778D02*
D03*
X194587Y112598D02*
D03*
X209668Y114230D02*
D03*
X244629Y114480D02*
D03*
X206351Y121755D02*
D03*
X241473Y121974D02*
D03*
X251673Y126377D02*
D03*
X216634D02*
D03*
X206398D02*
D03*
X241538Y126819D02*
D03*
X158912Y112709D02*
D03*
X123721Y112992D02*
D03*
X186319Y116535D02*
D03*
X149799Y116606D02*
D03*
X179626Y120866D02*
D03*
X143799D02*
D03*
X140358Y128559D02*
D03*
X176870Y128740D02*
D03*
X186713Y133464D02*
D03*
X150492D02*
D03*
X176476D02*
D03*
X140454Y133562D02*
D03*
X65847Y-6693D02*
D03*
X87106Y9055D02*
D03*
X76870D02*
D03*
X66634D02*
D03*
X76855Y26398D02*
D03*
X66650Y26432D02*
D03*
X87086Y26435D02*
D03*
X75643Y40611D02*
D03*
X83127Y43810D02*
D03*
X83248Y64118D02*
D03*
X87252Y68200D02*
D03*
X92981Y69961D02*
D03*
X71752Y75590D02*
D03*
X43804Y-6693D02*
D03*
X31154D02*
D03*
X53935Y43354D02*
D03*
X41831Y51181D02*
D03*
X44980Y53543D02*
D03*
X47343Y61885D02*
D03*
X43012Y69684D02*
D03*
X37500D02*
D03*
X54146Y82566D02*
D03*
X31201Y82677D02*
D03*
X-21169Y88002D02*
D03*
X50492Y88188D02*
D03*
X46671Y107251D02*
D03*
X46949Y114960D02*
D03*
X115347Y116714D02*
D03*
X76476Y120866D02*
D03*
X108760Y121259D02*
D03*
X53248Y126377D02*
D03*
X73272Y128760D02*
D03*
X83563Y133464D02*
D03*
X73313Y133562D02*
D03*
X105504Y133643D02*
D03*
X41043Y96456D02*
D03*
X44193Y99212D02*
D03*
X41232Y115020D02*
D03*
X30413Y126377D02*
D03*
D44*
X201240Y75291D02*
D03*
X206240D02*
D03*
X211240D02*
D03*
X216240D02*
D03*
X221240D02*
D03*
X226240D02*
D03*
X231240D02*
D03*
Y53841D02*
D03*
X226240D02*
D03*
X221240D02*
D03*
X216240D02*
D03*
X211240D02*
D03*
X206240D02*
D03*
X201240D02*
D03*
X241791Y53448D02*
D03*
X246791D02*
D03*
X251791D02*
D03*
X256791D02*
D03*
X261791D02*
D03*
X266791D02*
D03*
X271791D02*
D03*
Y74898D02*
D03*
X266791D02*
D03*
X261791D02*
D03*
X256791D02*
D03*
X251791D02*
D03*
X246791D02*
D03*
X241791D02*
D03*
D45*
X123937Y56439D02*
D03*
X127677D02*
D03*
X131417D02*
D03*
Y65498D02*
D03*
X127677D02*
D03*
X123937D02*
D03*
X89291Y56439D02*
D03*
X93031D02*
D03*
X96771D02*
D03*
Y65498D02*
D03*
X93031D02*
D03*
X89291D02*
D03*
D46*
X152657Y49407D02*
D03*
X148917D02*
D03*
X145177D02*
D03*
Y58466D02*
D03*
X152657D02*
D03*
D52*
X75590Y56102D02*
D03*
Y50984D02*
D03*
X10742Y63188D02*
D03*
Y58070D02*
D03*
X-32566Y63188D02*
D03*
Y58070D02*
D03*
X-2417Y44291D02*
D03*
Y49409D02*
D03*
X-21161Y90747D02*
D03*
Y95866D02*
D03*
X-2264Y91141D02*
D03*
Y96259D02*
D03*
X-34154Y109251D02*
D03*
Y104133D02*
D03*
X33169Y44291D02*
D03*
Y49409D02*
D03*
X50978D02*
D03*
Y44291D02*
D03*
X223288Y101377D02*
D03*
Y106495D02*
D03*
X20830Y63188D02*
D03*
Y58070D02*
D03*
X20117Y103346D02*
D03*
Y108464D02*
D03*
X64137Y63188D02*
D03*
Y58070D02*
D03*
X10335Y104133D02*
D03*
Y109251D02*
D03*
X259154Y101377D02*
D03*
Y106495D02*
D03*
X50492Y95866D02*
D03*
Y90747D02*
D03*
X63424Y108464D02*
D03*
Y103346D02*
D03*
X-25984Y184055D02*
D03*
Y189173D02*
D03*
D53*
X3396Y76377D02*
D03*
X-1722D02*
D03*
X-25282Y76377D02*
D03*
X-20164D02*
D03*
X-14911Y45275D02*
D03*
X-20029D02*
D03*
X108622Y79456D02*
D03*
X113740D02*
D03*
X-28445Y122047D02*
D03*
X-23327D02*
D03*
X6594Y122047D02*
D03*
X1476D02*
D03*
X142118Y80002D02*
D03*
X147236D02*
D03*
X33231Y76377D02*
D03*
X28113D02*
D03*
X208563Y101574D02*
D03*
X213681D02*
D03*
X51673Y76377D02*
D03*
X56791D02*
D03*
X173976Y79707D02*
D03*
X179095D02*
D03*
X248721Y101902D02*
D03*
X243602D02*
D03*
X145389Y110629D02*
D03*
X140271D02*
D03*
X181791Y110629D02*
D03*
X176673D02*
D03*
X33366Y91338D02*
D03*
X38484D02*
D03*
X105701Y110809D02*
D03*
X110819D02*
D03*
X73130Y110629D02*
D03*
X78248D02*
D03*
X32579Y120472D02*
D03*
X27461D02*
D03*
X50689D02*
D03*
X55807D02*
D03*
D54*
X4442Y63385D02*
D03*
Y57873D02*
D03*
X-26266Y63385D02*
D03*
Y57873D02*
D03*
X-27461Y109448D02*
D03*
Y103937D02*
D03*
X4036D02*
D03*
Y109448D02*
D03*
X27129Y57873D02*
D03*
Y63385D02*
D03*
X26416Y108661D02*
D03*
Y103149D02*
D03*
X117683Y57065D02*
D03*
Y62577D02*
D03*
X57838Y57873D02*
D03*
Y63385D02*
D03*
X117644Y51814D02*
D03*
Y46302D02*
D03*
X83169Y56299D02*
D03*
Y61810D02*
D03*
X83169Y46062D02*
D03*
Y51574D02*
D03*
X57125Y108661D02*
D03*
Y103149D02*
D03*
D55*
X-19573Y56791D02*
D03*
Y59350D02*
D03*
Y61909D02*
D03*
Y64468D02*
D03*
X-2251D02*
D03*
Y61909D02*
D03*
Y59350D02*
D03*
Y56791D02*
D03*
X-3033Y102854D02*
D03*
Y105413D02*
D03*
Y107972D02*
D03*
Y110531D02*
D03*
X-20356D02*
D03*
Y107972D02*
D03*
Y105413D02*
D03*
Y102854D02*
D03*
X33822Y56791D02*
D03*
Y59350D02*
D03*
Y61909D02*
D03*
Y64468D02*
D03*
X51145D02*
D03*
Y61909D02*
D03*
Y59350D02*
D03*
Y56791D02*
D03*
X50432Y102066D02*
D03*
Y104625D02*
D03*
Y107185D02*
D03*
Y109744D02*
D03*
X33109D02*
D03*
Y107185D02*
D03*
Y104625D02*
D03*
Y102066D02*
D03*
D56*
X-7644Y82677D02*
D03*
X-1581D02*
D03*
X-19468D02*
D03*
X-13406D02*
D03*
X-2775Y129133D02*
D03*
X-8839D02*
D03*
X-20256D02*
D03*
X-14193D02*
D03*
X39609Y82677D02*
D03*
X33546D02*
D03*
X51814D02*
D03*
X45751D02*
D03*
X50768Y126377D02*
D03*
X44705D02*
D03*
X38957D02*
D03*
X32894D02*
D03*
D57*
X-7762Y76377D02*
D03*
X-13274D02*
D03*
X-8415Y51181D02*
D03*
X-13927D02*
D03*
X-8021Y69684D02*
D03*
X-13533D02*
D03*
X111024Y97566D02*
D03*
X116535D02*
D03*
X111024Y102684D02*
D03*
X116535D02*
D03*
X-14862Y96850D02*
D03*
X-9350D02*
D03*
X-8563Y116929D02*
D03*
X-14075D02*
D03*
Y122047D02*
D03*
X-8563D02*
D03*
X150976Y103230D02*
D03*
X145465D02*
D03*
Y98112D02*
D03*
X150976D02*
D03*
X206398Y46850D02*
D03*
X200886D02*
D03*
Y40944D02*
D03*
X206398D02*
D03*
X39862Y69684D02*
D03*
X45374D02*
D03*
X126889Y49158D02*
D03*
X132401D02*
D03*
X208760Y121653D02*
D03*
X214272D02*
D03*
Y126771D02*
D03*
X208760D02*
D03*
X146161Y70472D02*
D03*
X151673D02*
D03*
X144193Y37007D02*
D03*
X149705D02*
D03*
X144193Y42125D02*
D03*
X149705D02*
D03*
X126889Y44039D02*
D03*
X132401D02*
D03*
X38756Y96456D02*
D03*
X44267D02*
D03*
X97362Y49158D02*
D03*
X91850D02*
D03*
X97362Y44039D02*
D03*
X91850D02*
D03*
X247343Y40944D02*
D03*
X241831D02*
D03*
X247343Y46850D02*
D03*
X241831D02*
D03*
X181890Y97817D02*
D03*
X176378D02*
D03*
X148185Y133858D02*
D03*
X142673D02*
D03*
Y128740D02*
D03*
X148185D02*
D03*
X178839Y128740D02*
D03*
X184350D02*
D03*
X184351Y133858D02*
D03*
X178839D02*
D03*
X176378Y102935D02*
D03*
X181890D02*
D03*
X151673Y64960D02*
D03*
X146161D02*
D03*
X243799Y121980D02*
D03*
X249311D02*
D03*
Y127098D02*
D03*
X243799D02*
D03*
X113378Y128919D02*
D03*
X107866D02*
D03*
X113378Y134037D02*
D03*
X107866D02*
D03*
X75532Y128740D02*
D03*
X81043D02*
D03*
Y133858D02*
D03*
X75532D02*
D03*
X45633Y76377D02*
D03*
X40121D02*
D03*
X44980Y51181D02*
D03*
X39469D02*
D03*
X39149Y114960D02*
D03*
X44661D02*
D03*
X44587Y120472D02*
D03*
X39075D02*
D03*
D58*
X131102Y81639D02*
D03*
X124803D02*
D03*
X164862Y82185D02*
D03*
X158563D02*
D03*
X229626Y113779D02*
D03*
X223327D02*
D03*
X218996Y21456D02*
D03*
X225295D02*
D03*
X170965Y65747D02*
D03*
X164665D02*
D03*
X196457Y85039D02*
D03*
X190157D02*
D03*
X191937Y112812D02*
D03*
X198236D02*
D03*
X156452Y112812D02*
D03*
X162751D02*
D03*
X120965Y112992D02*
D03*
X127264D02*
D03*
X265453Y113779D02*
D03*
X259154D02*
D03*
X89311Y112812D02*
D03*
X95610D02*
D03*
D59*
X118209Y92194D02*
D03*
Y89635D02*
D03*
Y87075D02*
D03*
X109350Y92194D02*
D03*
Y89635D02*
D03*
Y87075D02*
D03*
X152650Y92740D02*
D03*
Y90180D02*
D03*
Y87621D02*
D03*
X143791Y92740D02*
D03*
Y90180D02*
D03*
Y87621D02*
D03*
X215945Y116732D02*
D03*
Y114173D02*
D03*
Y111614D02*
D03*
X207087Y116732D02*
D03*
Y114173D02*
D03*
Y111614D02*
D03*
X183563Y92444D02*
D03*
Y89885D02*
D03*
Y87326D02*
D03*
X174705Y92444D02*
D03*
Y89885D02*
D03*
Y87326D02*
D03*
X140999Y118249D02*
D03*
Y120808D02*
D03*
Y123367D02*
D03*
X149858Y118249D02*
D03*
Y120808D02*
D03*
Y123367D02*
D03*
X177165Y118249D02*
D03*
Y120808D02*
D03*
Y123367D02*
D03*
X186024Y118249D02*
D03*
Y120808D02*
D03*
Y123367D02*
D03*
X250984Y117059D02*
D03*
Y114500D02*
D03*
Y111941D02*
D03*
X242126Y117059D02*
D03*
Y114500D02*
D03*
Y111941D02*
D03*
X106193Y118428D02*
D03*
Y120987D02*
D03*
Y123546D02*
D03*
X115051Y118428D02*
D03*
Y120987D02*
D03*
Y123546D02*
D03*
X73858Y118249D02*
D03*
Y120808D02*
D03*
Y123367D02*
D03*
X82717Y118249D02*
D03*
Y120808D02*
D03*
Y123367D02*
D03*
D60*
X131102Y88314D02*
D03*
X124803D02*
D03*
X164862Y88090D02*
D03*
X158563D02*
D03*
X164272Y54330D02*
D03*
X170571D02*
D03*
Y59842D02*
D03*
X164272D02*
D03*
X196457Y91339D02*
D03*
X190157D02*
D03*
X191937Y118718D02*
D03*
X198236D02*
D03*
X156452Y119488D02*
D03*
X162751D02*
D03*
X120965Y118897D02*
D03*
X127264D02*
D03*
X89311Y119488D02*
D03*
X95610D02*
D03*
D61*
X161909Y37965D02*
D03*
X180020Y16535D02*
D03*
X135138Y1300D02*
D03*
X76870Y4330D02*
D03*
X87106Y37965D02*
D03*
X121020D02*
D03*
D62*
X75689Y44517D02*
D03*
Y38218D02*
D03*
X110354Y39709D02*
D03*
Y46008D02*
D03*
D63*
X230020Y107086D02*
D03*
Y100787D02*
D03*
X212303Y15157D02*
D03*
Y21456D02*
D03*
X206791D02*
D03*
Y15157D02*
D03*
X201280D02*
D03*
Y21456D02*
D03*
X110354Y51520D02*
D03*
Y57819D02*
D03*
X265846Y100787D02*
D03*
Y107086D02*
D03*
D64*
X230512Y124015D02*
D03*
X223228D02*
D03*
X147343Y17716D02*
D03*
Y27952D02*
D03*
X127657Y17716D02*
D03*
Y27952D02*
D03*
X135531Y17716D02*
D03*
Y27952D02*
D03*
X258268Y124343D02*
D03*
X265551D02*
D03*
D65*
X97343Y12007D02*
D03*
Y23425D02*
D03*
X87106Y12007D02*
D03*
Y23425D02*
D03*
X66634Y12007D02*
D03*
Y23425D02*
D03*
X76870D02*
D03*
Y12007D02*
D03*
X107579Y23425D02*
D03*
Y12007D02*
D03*
D66*
X156398Y16141D02*
D03*
X166634D02*
D03*
M02*
