G04*
G04 #@! TF.GenerationSoftware,Altium Limited,Altium Designer,25.4.2 (15)*
G04*
G04 Layer_Color=8388736*
%FSLAX25Y25*%
%MOIN*%
G70*
G04*
G04 #@! TF.SameCoordinates,59873E22-7142-4EAE-A8DC-02BF96C0FEA4*
G04*
G04*
G04 #@! TF.FilePolarity,Negative*
G04*
G01*
G75*
%ADD15R,0.02559X0.11417*%
%ADD16R,0.05984X0.05984*%
%ADD17C,0.05984*%
%ADD18C,0.06591*%
%ADD19C,0.06102*%
%ADD20C,0.04784*%
%ADD21C,0.09646*%
%ADD22C,0.13976*%
%ADD23C,0.02362*%
D15*
X21654Y-14173D02*
D03*
X24803D02*
D03*
X27953D02*
D03*
X31102D02*
D03*
X34252D02*
D03*
X37402D02*
D03*
X40551D02*
D03*
X43701D02*
D03*
X46850D02*
D03*
X50000D02*
D03*
X53150D02*
D03*
X56299D02*
D03*
X59449D02*
D03*
X62598D02*
D03*
X65748D02*
D03*
X68898D02*
D03*
X72047D02*
D03*
X75197D02*
D03*
X78347D02*
D03*
X81496D02*
D03*
X84646D02*
D03*
X87795D02*
D03*
X90945D02*
D03*
X94095D02*
D03*
X97244D02*
D03*
X100394D02*
D03*
X103543D02*
D03*
X106693D02*
D03*
X122441D02*
D03*
X125591D02*
D03*
X128740D02*
D03*
X131890D02*
D03*
X135039D02*
D03*
X138189D02*
D03*
X141339D02*
D03*
X144488D02*
D03*
X147638D02*
D03*
X150787D02*
D03*
X153937D02*
D03*
X157087D02*
D03*
X160236D02*
D03*
X163386D02*
D03*
X166535D02*
D03*
X169685D02*
D03*
X172835D02*
D03*
X175984D02*
D03*
X179134D02*
D03*
X182283D02*
D03*
X185433D02*
D03*
X188583D02*
D03*
X191732D02*
D03*
X194882D02*
D03*
X198031D02*
D03*
X201181D02*
D03*
X204331D02*
D03*
X207480D02*
D03*
X210630D02*
D03*
X213779D02*
D03*
X216929D02*
D03*
X220079D02*
D03*
D16*
X32976Y9878D02*
D03*
D17*
X42976D02*
D03*
X32976Y19878D02*
D03*
X42976D02*
D03*
X32976Y29878D02*
D03*
X42976D02*
D03*
D18*
X147973Y159448D02*
D03*
X137972D02*
D03*
X167973D02*
D03*
X157973D02*
D03*
X137972Y189448D02*
D03*
X167973D02*
D03*
X157280Y172125D02*
D03*
X187280D02*
D03*
X167280Y142125D02*
D03*
X157280D02*
D03*
X187280D02*
D03*
X177280D02*
D03*
X117280Y172125D02*
D03*
X147280D02*
D03*
X127279Y142125D02*
D03*
X117280D02*
D03*
X147280D02*
D03*
X137279D02*
D03*
X187972Y159448D02*
D03*
X177972D02*
D03*
X207973D02*
D03*
X197973D02*
D03*
X177972Y189448D02*
D03*
X207973D02*
D03*
X247972D02*
D03*
X217972D02*
D03*
X237972Y159448D02*
D03*
X247972D02*
D03*
X217972D02*
D03*
X227973D02*
D03*
X257280Y142125D02*
D03*
X267280D02*
D03*
X237280D02*
D03*
X247280D02*
D03*
X267280Y172125D02*
D03*
X237280D02*
D03*
X197280D02*
D03*
X227280D02*
D03*
X207280Y142125D02*
D03*
X197280D02*
D03*
X227280D02*
D03*
X217280D02*
D03*
X107973Y159448D02*
D03*
X97973D02*
D03*
X127972D02*
D03*
X117973D02*
D03*
X97973Y189448D02*
D03*
X127972D02*
D03*
X77280Y172125D02*
D03*
X107280D02*
D03*
X87280Y142125D02*
D03*
X77280D02*
D03*
X107280D02*
D03*
X97280D02*
D03*
D19*
X-1673Y152982D02*
D03*
X3327Y142982D02*
D03*
X8327Y152982D02*
D03*
X13327Y142982D02*
D03*
X18327Y152982D02*
D03*
X23327Y142982D02*
D03*
X28327Y152982D02*
D03*
X33327Y142982D02*
D03*
D20*
X-6654Y177982D02*
D03*
X38346D02*
D03*
D21*
X-14665Y189764D02*
D03*
X46260D02*
D03*
D22*
X90268Y96236D02*
D03*
D23*
X112881Y39764D02*
D03*
X192913Y85039D02*
D03*
X105584Y129041D02*
D03*
X115740Y133643D02*
D03*
X161793Y84258D02*
D03*
X153248Y103302D02*
D03*
X151969Y85806D02*
D03*
X143701Y70472D02*
D03*
X-28740Y183858D02*
D03*
X-6299Y117717D02*
D03*
X-1496Y130631D02*
D03*
X-12952Y117774D02*
D03*
X-15650Y69684D02*
D03*
X-11368Y51181D02*
D03*
X-10360Y69590D02*
D03*
X-8169Y53936D02*
D03*
X-6015Y61938D02*
D03*
X886Y82677D02*
D03*
X-9389Y86220D02*
D03*
X-11850D02*
D03*
X-21949Y82677D02*
D03*
X108485Y96985D02*
D03*
X112020Y89889D02*
D03*
X118586Y102436D02*
D03*
X105444Y99674D02*
D03*
X108805Y102306D02*
D03*
X127374Y81621D02*
D03*
X-6865Y107944D02*
D03*
X-9350Y99606D02*
D03*
X-12303Y96850D02*
D03*
X-23130Y129133D02*
D03*
X-2148Y88870D02*
D03*
X129255Y49051D02*
D03*
X154331Y70079D02*
D03*
X155118Y72835D02*
D03*
X117637Y44096D02*
D03*
X94085Y49319D02*
D03*
X94121Y43941D02*
D03*
X110476Y54866D02*
D03*
X118405Y64891D02*
D03*
X128642Y68517D02*
D03*
X93069Y11859D02*
D03*
X93131Y23557D02*
D03*
X93307Y-2756D02*
D03*
X90945Y-6693D02*
D03*
X91831Y112598D02*
D03*
X121872Y68508D02*
D03*
X111675Y23707D02*
D03*
X154823Y67716D02*
D03*
X129232Y44094D02*
D03*
X143209Y98184D02*
D03*
Y103302D02*
D03*
X146358Y90310D02*
D03*
X167421Y-6693D02*
D03*
X81496D02*
D03*
X50000D02*
D03*
X65847Y35432D02*
D03*
X153248Y19291D02*
D03*
X151655Y16141D02*
D03*
X141203D02*
D03*
X222539Y21653D02*
D03*
X201280Y12204D02*
D03*
X75292Y-6693D02*
D03*
X211019D02*
D03*
X182283D02*
D03*
X111824Y11810D02*
D03*
X231209Y71556D02*
D03*
X261793Y57323D02*
D03*
X216240Y71653D02*
D03*
X271776Y71109D02*
D03*
X241163Y101747D02*
D03*
X249694Y41084D02*
D03*
X226175Y50136D02*
D03*
X239594Y40944D02*
D03*
X221358Y71653D02*
D03*
X249669Y46727D02*
D03*
X246803Y57362D02*
D03*
X251740Y57342D02*
D03*
X266690Y57244D02*
D03*
X221185Y50122D02*
D03*
X213834Y104466D02*
D03*
X211265Y50099D02*
D03*
X135138Y-6693D02*
D03*
X153242Y13773D02*
D03*
X146335Y37033D02*
D03*
X208760Y40944D02*
D03*
X198917D02*
D03*
X141975Y42102D02*
D03*
X208710Y46839D02*
D03*
X206318Y50036D02*
D03*
X148888Y53706D02*
D03*
X168497Y65740D02*
D03*
X206398Y71653D02*
D03*
X201280D02*
D03*
X181890Y79528D02*
D03*
X183465Y85827D02*
D03*
X177225Y89886D02*
D03*
X176339Y95201D02*
D03*
X184252Y102756D02*
D03*
X174160D02*
D03*
X248720Y104778D02*
D03*
X194587Y112598D02*
D03*
X209668Y114230D02*
D03*
X244629Y114480D02*
D03*
X206351Y121755D02*
D03*
X241473Y121974D02*
D03*
X251673Y126377D02*
D03*
X216634D02*
D03*
X206398D02*
D03*
X241538Y126819D02*
D03*
X158912Y112709D02*
D03*
X123721Y112992D02*
D03*
X186319Y116535D02*
D03*
X149799Y116606D02*
D03*
X179626Y120866D02*
D03*
X143799D02*
D03*
X140358Y128559D02*
D03*
X176870Y128740D02*
D03*
X186713Y133464D02*
D03*
X150492D02*
D03*
X176476D02*
D03*
X140454Y133562D02*
D03*
X65847Y-6693D02*
D03*
X87106Y9055D02*
D03*
X76870D02*
D03*
X66634D02*
D03*
X76855Y26398D02*
D03*
X66650Y26432D02*
D03*
X87086Y26435D02*
D03*
X75643Y40611D02*
D03*
X83127Y43810D02*
D03*
X83248Y64118D02*
D03*
X87252Y68200D02*
D03*
X92981Y69961D02*
D03*
X71752Y75590D02*
D03*
X43804Y-6693D02*
D03*
X31154D02*
D03*
X53935Y43354D02*
D03*
X41831Y51181D02*
D03*
X44980Y53543D02*
D03*
X47343Y61885D02*
D03*
X43012Y69684D02*
D03*
X37500D02*
D03*
X54146Y82566D02*
D03*
X31201Y82677D02*
D03*
X-21169Y88002D02*
D03*
X50492Y88188D02*
D03*
X46671Y107251D02*
D03*
X46949Y114960D02*
D03*
X115347Y116714D02*
D03*
X76476Y120866D02*
D03*
X108760Y121259D02*
D03*
X53248Y126377D02*
D03*
X73272Y128760D02*
D03*
X83563Y133464D02*
D03*
X73313Y133562D02*
D03*
X105504Y133643D02*
D03*
X41043Y96456D02*
D03*
X44193Y99212D02*
D03*
X41232Y115020D02*
D03*
X30413Y126377D02*
D03*
M02*
