G04*
G04 #@! TF.GenerationSoftware,Altium Limited,Altium Designer,25.4.2 (15)*
G04*
G04 Layer_Color=65535*
%FSLAX25Y25*%
%MOIN*%
G70*
G04*
G04 #@! TF.SameCoordinates,59873E22-7142-4EAE-A8DC-02BF96C0FEA4*
G04*
G04*
G04 #@! TF.FilePolarity,Positive*
G04*
G01*
G75*
%ADD10C,0.00013*%
%ADD11C,0.00787*%
%ADD12C,0.01000*%
%ADD13C,0.00591*%
G36*
X161632Y106301D02*
X162001Y106148D01*
X162318Y105905D01*
X162318Y105905D01*
X162318Y105904D01*
X162561Y105588D01*
X162714Y105219D01*
X162749Y104953D01*
X162766Y104823D01*
Y104690D01*
Y83854D01*
X162755Y83724D01*
X162755Y83724D01*
X162801Y83495D01*
X162931Y83299D01*
X162932Y83299D01*
X163126Y83169D01*
X163356Y83123D01*
X163359Y83124D01*
X163488Y83135D01*
X169396D01*
X169398Y83132D01*
Y83132D01*
X169398Y83132D01*
X169616Y83089D01*
X169803Y82964D01*
X169928Y82777D01*
X169947Y82681D01*
X169970Y82556D01*
X169971Y82551D01*
X169949Y82432D01*
X169928Y82324D01*
X169807Y82143D01*
X169703Y82071D01*
X169616Y82012D01*
X169398Y81969D01*
X169398D01*
X169396Y81967D01*
X163141D01*
Y81967D01*
X162747Y82019D01*
X162378Y82172D01*
X162060Y82415D01*
X161817Y82733D01*
X161664Y83102D01*
X161629Y83369D01*
X161612Y83499D01*
X161612Y83632D01*
Y104609D01*
X161623Y104609D01*
X161577Y104840D01*
X161446Y105036D01*
X161250Y105166D01*
X161022Y105212D01*
X161022Y105201D01*
X161022Y105201D01*
X143774D01*
X143774Y105201D01*
X143774Y105212D01*
X143545Y105166D01*
X143350Y105036D01*
X143219Y104840D01*
X143173Y104609D01*
X143173Y104609D01*
X143184Y104479D01*
Y83513D01*
X143184Y83513D01*
X143182Y83513D01*
X143184Y83499D01*
X143132Y83102D01*
X142979Y82733D01*
X142741Y82423D01*
X142641Y82343D01*
X142418Y82172D01*
X142048Y82019D01*
X141657Y81967D01*
X141657Y81967D01*
X126776D01*
Y81968D01*
X126556Y82012D01*
X126473Y82067D01*
X126369Y82137D01*
X126244Y82324D01*
X126200Y82545D01*
X126244Y82766D01*
X126299Y82848D01*
X126369Y82953D01*
X126556Y83078D01*
X126776Y83122D01*
Y83123D01*
X141307D01*
X141437Y83113D01*
X141440Y83112D01*
X141670Y83158D01*
X141865Y83288D01*
X141995Y83483D01*
X142041Y83713D01*
X142030D01*
Y104690D01*
X142030Y104823D01*
X142046Y104951D01*
X142082Y105219D01*
X142235Y105588D01*
X142477Y105904D01*
X142478Y105905D01*
X142478Y105905D01*
X142794Y106148D01*
X143163Y106301D01*
X143559Y106353D01*
X143559Y106352D01*
X161237D01*
X161237Y106353D01*
X161632Y106301D01*
D02*
G37*
G36*
X120494Y106352D02*
X136945D01*
X136946Y106341D01*
X136992Y106347D01*
X137182Y106322D01*
X137359Y106249D01*
X137511Y106133D01*
X137628Y105981D01*
X137701Y105804D01*
X137726Y105614D01*
X137701Y105424D01*
X137628Y105247D01*
X137549Y105145D01*
X137558Y105138D01*
X137558Y105137D01*
X120856Y82532D01*
X120838Y82529D01*
X120838D01*
X120718Y82372D01*
X120431Y82152D01*
X120097Y82014D01*
X119797Y81974D01*
X119797D01*
X119790Y81967D01*
X102730D01*
Y81967D01*
X102337Y82019D01*
X101967Y82172D01*
X101650Y82415D01*
X101406Y82733D01*
X101253Y83102D01*
X101218Y83369D01*
X101201Y83499D01*
X101201D01*
Y83632D01*
Y105660D01*
X101203D01*
X101247Y105880D01*
X101372Y106068D01*
X101477Y106138D01*
X101559Y106193D01*
X101650Y106211D01*
X101779Y106236D01*
Y106236D01*
X101997Y106193D01*
X102184Y106068D01*
X102309Y105880D01*
X102353Y105660D01*
X102355Y105660D01*
Y83857D01*
X102344Y83727D01*
Y83727D01*
X102390Y83497D01*
X102520Y83302D01*
X102521Y83302D01*
X102521D01*
X102715Y83172D01*
X102945Y83126D01*
X102948Y83127D01*
X103078Y83137D01*
X119797D01*
X119799Y83138D01*
X119843Y83146D01*
X119926Y83202D01*
X119926Y83202D01*
X119926Y83204D01*
X135897Y104846D01*
X135979Y104950D01*
X136019Y105048D01*
X136020Y105049D01*
X135969Y105172D01*
X135847Y105222D01*
X135845Y105222D01*
X135844Y105221D01*
X135714Y105210D01*
X120712D01*
Y105221D01*
X120481Y105175D01*
X120285Y105044D01*
X120154Y104848D01*
X120108Y104617D01*
X120119Y104606D01*
Y89594D01*
X120119Y89594D01*
X120117Y89594D01*
X120117Y89591D01*
X120074Y89372D01*
X119949Y89185D01*
X119763Y89061D01*
X119544Y89017D01*
Y89017D01*
X119417Y89042D01*
X119323Y89061D01*
X119136Y89186D01*
X119066Y89291D01*
X119011Y89373D01*
X118967Y89594D01*
X118965D01*
Y104823D01*
X118965Y104824D01*
X119017Y105219D01*
X119170Y105588D01*
X119413Y105904D01*
X119413Y105905D01*
X119413Y105905D01*
X119730Y106148D01*
X120098Y106301D01*
X120494Y106353D01*
X120494Y106352D01*
D02*
G37*
G36*
X122519Y74856D02*
X123320Y74720D01*
X123913Y74549D01*
X123924Y74554D01*
X124484Y74322D01*
X125015Y73996D01*
X125408Y73660D01*
X125502Y73567D01*
X125819Y73197D01*
X126131Y72687D01*
X126359Y72136D01*
X126390Y72009D01*
X126386Y72008D01*
X126496Y71627D01*
X126631Y70833D01*
X126676Y70029D01*
X126671Y69945D01*
X126677Y69945D01*
X126677Y69945D01*
Y61258D01*
X125297D01*
Y62697D01*
Y62821D01*
X125297Y62969D01*
X125295Y62974D01*
X125277Y62983D01*
X125164Y62880D01*
X125072Y62797D01*
X125022Y62751D01*
X124282Y62203D01*
X123886Y61965D01*
X123886D01*
X123772Y61895D01*
X123255Y61609D01*
X122691Y61375D01*
X122565Y61330D01*
X122442Y61288D01*
X122054Y61156D01*
X121411Y61028D01*
X121278Y61014D01*
X120933Y60962D01*
X120115Y60922D01*
X119981Y60920D01*
X119849Y60923D01*
X119291Y60960D01*
X118651Y61087D01*
X118343Y61192D01*
X118216Y61235D01*
X117817Y61400D01*
X117294Y61721D01*
X117033Y61944D01*
X117033Y61943D01*
X116871Y62082D01*
X116513Y62501D01*
X116225Y62971D01*
X116161Y63124D01*
X116161D01*
X116111Y63246D01*
X116009Y63492D01*
X115877Y64041D01*
X115839Y64519D01*
X115839Y64653D01*
X115839D01*
X115835Y64696D01*
X115833Y64786D01*
X115880Y65383D01*
X116026Y65994D01*
X116267Y66574D01*
X116595Y67110D01*
X117002Y67587D01*
X117480Y67995D01*
X117800Y68191D01*
X117908Y68264D01*
X118027Y68344D01*
X118539Y68596D01*
X118662Y68648D01*
X119025Y68798D01*
X119153Y68838D01*
X119473Y68952D01*
X119682Y69004D01*
Y69004D01*
X119682Y69005D01*
X120121Y69115D01*
X120252Y69142D01*
Y69142D01*
X120682Y69237D01*
X120860Y69261D01*
X120860Y69262D01*
X121376Y69330D01*
X121509Y69345D01*
X121641Y69361D01*
X122062Y69411D01*
X122063Y69411D01*
X122196Y69417D01*
X122329Y69425D01*
X122790Y69442D01*
X122923Y69446D01*
X123057Y69451D01*
X123680Y69471D01*
X123690Y69471D01*
Y69472D01*
X125282Y69472D01*
X125282D01*
X125282Y69472D01*
X125287Y69474D01*
X125287Y69475D01*
X125296Y69479D01*
X125300Y69553D01*
Y69553D01*
X125298Y69599D01*
X125256Y70559D01*
X125203Y70962D01*
X125188Y71095D01*
X125180Y71194D01*
X125172Y71227D01*
X125074Y71636D01*
X124900Y72057D01*
X124702Y72379D01*
X124620Y72480D01*
X124460Y72674D01*
X124082Y72985D01*
X123707Y73185D01*
X123651Y73215D01*
X123583Y73236D01*
X123583Y73235D01*
X123581Y73231D01*
X123167Y73371D01*
X122472Y73510D01*
X121764Y73556D01*
X121685Y73551D01*
X121551Y73552D01*
X121533Y73553D01*
X121419Y73547D01*
X120834Y73518D01*
X120701Y73510D01*
X120503Y73499D01*
Y73499D01*
X120474Y73495D01*
X120373Y73478D01*
X120197Y73448D01*
X120192Y73452D01*
X120024Y73419D01*
X119902Y73395D01*
X119901Y73395D01*
X119900Y73394D01*
X119776Y73370D01*
X119623Y73339D01*
X119617Y73329D01*
X119494Y73299D01*
X119391Y73275D01*
X119367Y73265D01*
X119368Y73263D01*
X119134Y73167D01*
Y73167D01*
X118913Y73075D01*
X118916Y73068D01*
X118715Y72961D01*
Y72961D01*
X118635Y72917D01*
X118604Y72891D01*
X118273Y72620D01*
X117977Y72259D01*
X117756Y71846D01*
X117621Y71399D01*
X117600Y71187D01*
X116350D01*
X116278Y71264D01*
X116263Y71321D01*
X116352Y71767D01*
X116378Y71894D01*
X116411Y72023D01*
X116477Y72221D01*
D01*
Y72221D01*
Y72221D01*
X116471Y72234D01*
X116543Y72406D01*
X116594Y72529D01*
X116594D01*
X116693Y72770D01*
X116979Y73236D01*
X117316Y73631D01*
X117630Y73899D01*
X117732Y73981D01*
X117841Y74049D01*
X118173Y74252D01*
X118296Y74304D01*
X118487Y74398D01*
X118596Y74439D01*
X118612Y74445D01*
X118737Y74488D01*
X118955Y74562D01*
X118955Y74562D01*
X119167Y74634D01*
X119322Y74665D01*
X119452Y74698D01*
X119716Y74743D01*
Y74743D01*
X119716Y74743D01*
X120001Y74792D01*
X120133Y74809D01*
X120393Y74847D01*
X120576Y74856D01*
X120577Y74857D01*
X120911Y74874D01*
X121044Y74879D01*
X121404Y74895D01*
X121538Y74892D01*
X121709Y74901D01*
X122519Y74856D01*
D02*
G37*
G36*
X113837Y74876D02*
X113850Y73613D01*
X113751Y73523D01*
X113576Y73540D01*
X113458Y73552D01*
X113443Y73550D01*
X113313Y73541D01*
X113069D01*
X112938Y73549D01*
X112933Y73549D01*
X112808Y73539D01*
X112487Y73514D01*
X112052Y73409D01*
X111789Y73300D01*
X111787Y73305D01*
X111288Y73058D01*
X110835Y72755D01*
X110747Y72697D01*
X110726Y72679D01*
X110633Y72608D01*
X110082Y72115D01*
X109885Y71895D01*
X109797Y71796D01*
X109796Y71796D01*
X109796Y71795D01*
X109707Y71695D01*
X109537Y71505D01*
X109113Y70908D01*
X109097Y70885D01*
X109046Y70793D01*
X109051Y70790D01*
X109050Y70787D01*
Y61258D01*
X107670D01*
Y74558D01*
X109050D01*
Y73020D01*
X109050Y72896D01*
Y72736D01*
X109049Y72734D01*
X109050Y72731D01*
Y72728D01*
X109052Y72722D01*
X109057Y72720D01*
X109057Y72720D01*
X109069Y72717D01*
X109184Y72845D01*
X109266Y72937D01*
X109497Y73196D01*
X110096Y73731D01*
X110235Y73830D01*
X110342Y73910D01*
X110865Y74260D01*
X111348Y74498D01*
X111348Y74498D01*
X111775Y74675D01*
X112386Y74822D01*
X112391Y74818D01*
X112543Y74848D01*
X113306Y74898D01*
X113306D01*
X113309Y74901D01*
X113565D01*
X113837Y74876D01*
D02*
G37*
G36*
X181967Y74853D02*
X182571Y74708D01*
X183145Y74471D01*
X183324Y74361D01*
X183437Y74292D01*
X183550Y74220D01*
X183921Y73903D01*
X184266Y73499D01*
X184543Y73047D01*
X184730Y72596D01*
X184734Y72584D01*
X184747Y72553D01*
X184768Y72464D01*
X184799Y72458D01*
X184946Y72678D01*
X185481Y73288D01*
X185894Y73650D01*
X185893Y73651D01*
X186034Y73775D01*
X186653Y74189D01*
X187070Y74394D01*
X187069Y74395D01*
X187247Y74483D01*
X187891Y74702D01*
X188270Y74777D01*
X188271Y74778D01*
X188740Y74858D01*
X189311Y74890D01*
X189443Y74897D01*
Y74897D01*
X189445Y74897D01*
X189576Y74896D01*
X190179Y74848D01*
X190657Y74734D01*
X190781Y74704D01*
X190903Y74655D01*
X191219Y74524D01*
X191335Y74456D01*
X191335D01*
X191624Y74279D01*
X191985Y73971D01*
X192293Y73610D01*
X192498Y73276D01*
X192556Y73155D01*
X192705Y72852D01*
X192815Y72529D01*
X192815Y72529D01*
X192815Y72529D01*
X192915Y72236D01*
X192974Y71935D01*
X193000Y71805D01*
X193024Y71673D01*
X193101Y71222D01*
X193114Y70983D01*
X193124Y70850D01*
X193161Y70094D01*
X193159Y70065D01*
X193161Y70065D01*
X193177Y61353D01*
X193083Y61258D01*
X191798D01*
Y69815D01*
X191809Y69945D01*
X191810Y69965D01*
X191804Y70077D01*
X191775Y70666D01*
X191767Y70799D01*
X191755Y70995D01*
X191732Y71123D01*
X191724Y71169D01*
X191705Y71301D01*
X191705D01*
X191649Y71587D01*
X191623Y71717D01*
X191606Y71799D01*
X191588Y71852D01*
X191556Y71972D01*
X191554Y71981D01*
X191554Y71981D01*
X191551Y71993D01*
X191508Y72095D01*
X191508Y72095D01*
X191416Y72316D01*
X191420Y72318D01*
X191314Y72516D01*
X191314D01*
X191314Y72517D01*
X191240Y72653D01*
X191203Y72698D01*
X191203Y72698D01*
X191202Y72697D01*
X191026Y72912D01*
X190863Y73046D01*
X190859Y73049D01*
X190856Y73052D01*
X190766Y73125D01*
X190759Y73131D01*
Y73131D01*
X190686Y73170D01*
X190571Y73232D01*
X190571Y73232D01*
X190569Y73233D01*
X190569D01*
X190405Y73320D01*
X190368Y73333D01*
X190270Y73362D01*
X190144Y73400D01*
X190145Y73404D01*
X189906Y73461D01*
X189906Y73461D01*
X189783Y73491D01*
X189762Y73496D01*
X189651Y73505D01*
Y73505D01*
X189378Y73527D01*
X189244Y73535D01*
X189093Y73545D01*
X189089Y73545D01*
Y73545D01*
X188962Y73533D01*
X188520Y73498D01*
X187917Y73354D01*
X187344Y73116D01*
X186925Y72859D01*
X186922Y72863D01*
X186270Y72379D01*
X185633Y71802D01*
X185056Y71165D01*
X184889Y70939D01*
X184890Y70939D01*
X184888Y70935D01*
Y61253D01*
X183508D01*
Y69812D01*
X183513Y69945D01*
X183519Y70063D01*
X183519Y70077D01*
X183476Y70941D01*
X183382Y71577D01*
X183384Y71578D01*
X183374Y71681D01*
X183366Y71709D01*
X183216Y72202D01*
X183011Y72585D01*
X182959Y72683D01*
X182944Y72701D01*
X182944Y72701D01*
X182937Y72697D01*
X182755Y72919D01*
X182476Y73148D01*
X182219Y73285D01*
X182157Y73318D01*
X182097Y73337D01*
X181974Y73386D01*
X181968Y73388D01*
X181459Y73511D01*
X180972Y73549D01*
X180937Y73552D01*
X180838Y73549D01*
Y73549D01*
X180299Y73507D01*
X179743Y73373D01*
X179215Y73154D01*
X178749Y72869D01*
X178754Y72862D01*
X178256Y72493D01*
X177548Y71851D01*
X176905Y71142D01*
X176760Y70946D01*
X176762Y70944D01*
X176760Y70940D01*
Y70940D01*
Y61258D01*
X175380D01*
Y74558D01*
X176760D01*
Y72876D01*
X176760Y72752D01*
Y72588D01*
X176762Y72583D01*
X176762Y72583D01*
X176767Y72581D01*
X176767Y72581D01*
X176768Y72581D01*
X176781Y72576D01*
X176894Y72701D01*
X176894D01*
X176977Y72793D01*
X177200Y73038D01*
X177848Y73626D01*
X178086Y73803D01*
Y73803D01*
X178089Y73817D01*
X178732Y74247D01*
X179242Y74498D01*
X179242Y74498D01*
X179242D01*
X179675Y74677D01*
X180268Y74820D01*
X180278Y74813D01*
D01*
X180278Y74813D01*
X180278Y74813D01*
X180543Y74858D01*
X181084Y74889D01*
X181218Y74892D01*
Y74892D01*
X181348Y74902D01*
X181967Y74853D01*
D02*
G37*
G36*
X151974Y74894D02*
X152108Y74895D01*
X152756Y74859D01*
X153449Y74741D01*
X154124Y74547D01*
X154448Y74413D01*
X154459Y74417D01*
X155021Y74140D01*
X155576Y73769D01*
X156078Y73329D01*
X156328Y73044D01*
X156328Y73044D01*
X156537Y72806D01*
X156989Y72129D01*
X157349Y71399D01*
X157534Y70857D01*
X157533Y70857D01*
X157534D01*
X157540Y70853D01*
X157764Y69962D01*
X157915Y68942D01*
X157966Y67912D01*
X157915Y66883D01*
X157764Y65863D01*
X157541Y64973D01*
X157532Y64968D01*
X157532D01*
X157465Y64735D01*
X157194Y64081D01*
X156852Y63461D01*
X156442Y62884D01*
X156336Y62765D01*
X156334Y62767D01*
X156090Y62489D01*
X155584Y62045D01*
X155024Y61671D01*
X154461Y61393D01*
X154451Y61397D01*
X154210Y61297D01*
X153490Y61090D01*
X152751Y60964D01*
X152003Y60922D01*
X151255Y60964D01*
X150516Y61090D01*
X149796Y61297D01*
X149555Y61397D01*
X149544Y61393D01*
X148975Y61673D01*
X148430Y62037D01*
X147937Y62469D01*
X147684Y62758D01*
X147682Y62757D01*
X147565Y62888D01*
X147151Y63471D01*
X146805Y64097D01*
X146531Y64758D01*
X146474Y64959D01*
X146465Y64964D01*
X146237Y65874D01*
X146086Y66893D01*
X146035Y67921D01*
X146086Y68949D01*
X146237Y69967D01*
X146465Y70878D01*
X146473Y70882D01*
Y70882D01*
X146658Y71428D01*
X147017Y72155D01*
X147467Y72829D01*
X147675Y73066D01*
X147676Y73066D01*
X147912Y73335D01*
X148416Y73778D01*
X148973Y74150D01*
X149552Y74435D01*
X149552Y74435D01*
Y74435D01*
X149554Y74438D01*
X150296Y74690D01*
X151092Y74849D01*
X151840Y74898D01*
X151974Y74894D01*
D02*
G37*
G36*
X89582Y69134D02*
X89582Y69133D01*
X89575Y69133D01*
X89583Y68948D01*
X89532Y67654D01*
X89380Y66369D01*
X89241Y65669D01*
X89242Y65668D01*
X89206Y65459D01*
X89010Y64778D01*
X88739Y64122D01*
X88396Y63502D01*
X88102Y63088D01*
X88102D01*
X88102Y63088D01*
X88103Y63082D01*
X87722Y62648D01*
X87222Y62210D01*
X86670Y61841D01*
X86074Y61547D01*
X85886Y61483D01*
X85885Y61485D01*
X85453Y61330D01*
X84529Y61099D01*
X83587Y60959D01*
X82635Y60912D01*
X82346Y60926D01*
X82345Y60924D01*
X82139Y60913D01*
X81116Y60964D01*
X80103Y61114D01*
X79450Y61278D01*
X79437Y61270D01*
X78695Y61522D01*
X77974Y61878D01*
X77562Y62153D01*
X77453Y62226D01*
X77453D01*
X77345Y62305D01*
X76924Y62674D01*
X76517Y63138D01*
X76194Y63621D01*
X76196Y63630D01*
Y63630D01*
X76196D01*
X75937Y64099D01*
X75636Y64826D01*
X75488Y65343D01*
X75488Y65344D01*
X75488D01*
X75488Y65344D01*
X75343Y65923D01*
X75203Y66870D01*
X75185Y67230D01*
X75172Y67242D01*
X75143Y67804D01*
X75151Y67813D01*
X75151D01*
X75151Y67813D01*
X75138Y68252D01*
X75134Y68386D01*
X75134D01*
X75117Y68950D01*
X75112Y68955D01*
X75111Y69136D01*
Y80056D01*
X76491D01*
Y69191D01*
X76489Y69190D01*
X76489D01*
X76489Y69190D01*
X76475Y68862D01*
X76524Y67734D01*
X76672Y66614D01*
X76877Y65690D01*
X76876Y65690D01*
X76892Y65613D01*
X76910Y65560D01*
X77094Y65016D01*
X77373Y64450D01*
X77724Y63925D01*
X78025Y63582D01*
X78019Y63574D01*
X78485Y63176D01*
X79010Y62854D01*
X79579Y62619D01*
X79738Y62581D01*
X79868Y62549D01*
X80243Y62455D01*
X81239Y62307D01*
X82246Y62257D01*
X82353Y62262D01*
X82452Y62257D01*
X82486Y62259D01*
X83488Y62308D01*
X84513Y62460D01*
X84865Y62548D01*
X84865Y62549D01*
X84865Y62549D01*
X85172Y62623D01*
X85720Y62850D01*
X86225Y63160D01*
X86615Y63493D01*
X86676Y63545D01*
X86711Y63586D01*
X86706Y63591D01*
X86706Y63591D01*
X86706Y63591D01*
X86792Y63689D01*
X86958Y63879D01*
X87316Y64415D01*
X87601Y64993D01*
X87797Y65569D01*
X87808Y65603D01*
X87827Y65698D01*
X87826Y65699D01*
X88019Y66570D01*
X88169Y67705D01*
X88219Y68849D01*
X88204Y69190D01*
Y69190D01*
X88202Y69191D01*
Y80056D01*
X89582D01*
Y69134D01*
D02*
G37*
G36*
X162710Y72876D02*
X162710Y72752D01*
Y72752D01*
X162710Y72588D01*
X162712Y72583D01*
X162717Y72581D01*
X162717Y72581D01*
X162732Y72576D01*
X162844Y72701D01*
X162926Y72793D01*
X163131Y73023D01*
X163835Y73652D01*
X164015Y73780D01*
X164016Y73786D01*
X164577Y74160D01*
X165123Y74430D01*
X165242Y74486D01*
X165367Y74530D01*
X165881Y74705D01*
X166253Y74779D01*
X166384Y74802D01*
X166712Y74858D01*
X167278Y74889D01*
X167410Y74895D01*
Y74895D01*
X167430Y74897D01*
X167543Y74895D01*
X168170Y74854D01*
X168767Y74735D01*
X168896Y74699D01*
X169024Y74666D01*
X169517Y74462D01*
Y74462D01*
X169517Y74462D01*
X169518Y74462D01*
X169959Y74192D01*
X170357Y73852D01*
X170697Y73454D01*
X170971Y73007D01*
X171117Y72655D01*
X171160Y72528D01*
X171308Y72091D01*
X171365Y71804D01*
X171393Y71673D01*
X171485Y71130D01*
X171494Y70984D01*
X171494D01*
X171505Y70851D01*
X171542Y70087D01*
X171541Y70065D01*
X171543Y70065D01*
X171543Y70065D01*
Y61258D01*
X170164D01*
Y69813D01*
X170169Y69945D01*
X170175Y70042D01*
X170173Y70078D01*
X170131Y70825D01*
X170007Y71554D01*
X170007Y71554D01*
X169868Y72013D01*
X169617Y72481D01*
X169546Y72568D01*
X169462Y72671D01*
X169462Y72671D01*
X169362Y72793D01*
X169019Y73075D01*
X168627Y73284D01*
X168617Y73287D01*
X168492Y73336D01*
X168477Y73343D01*
X168362Y73370D01*
X167815Y73502D01*
X167155Y73554D01*
X167138Y73555D01*
X167022Y73551D01*
Y73551D01*
X166418Y73503D01*
X165804Y73356D01*
X165220Y73114D01*
X164825Y72872D01*
X164821Y72879D01*
X164805Y72870D01*
X164712Y72801D01*
X164004Y72276D01*
X163265Y71606D01*
X162699Y70982D01*
X162704Y70978D01*
X162702Y70974D01*
Y61258D01*
X161322D01*
Y80056D01*
X162702D01*
X162710Y72876D01*
D02*
G37*
G36*
X143496Y78226D02*
X130851Y62848D01*
X130772Y62752D01*
Y62752D01*
X130672Y62630D01*
X130671Y62628D01*
X130670Y62626D01*
X130670Y62625D01*
X130670Y62625D01*
X130670Y62625D01*
X130671Y62623D01*
X130672Y62621D01*
X130672Y62620D01*
X130673Y62620D01*
X130673Y62620D01*
X130675Y62619D01*
X130677Y62618D01*
X130835D01*
X130959Y62618D01*
X143853D01*
Y61258D01*
X129279D01*
Y63069D01*
X141903Y78464D01*
X141981Y78559D01*
X142081Y78681D01*
X142082Y78684D01*
X142083Y78686D01*
X142083Y78686D01*
X142083Y78687D01*
X142082Y78689D01*
X142081Y78691D01*
X142080Y78691D01*
X142080Y78692D01*
X142080Y78692D01*
X142078Y78692D01*
X142076Y78693D01*
X130405D01*
Y80056D01*
X143496D01*
Y78226D01*
D02*
G37*
G36*
X95816Y61258D02*
X94437D01*
Y80056D01*
X95816D01*
Y61258D01*
D02*
G37*
G36*
X102160Y74568D02*
X102162Y74563D01*
X102167Y74561D01*
X104360D01*
Y73201D01*
X102167D01*
X102162Y73198D01*
X102160Y73193D01*
Y64936D01*
X102155Y64932D01*
X102155D01*
X102155Y64932D01*
X102147Y64796D01*
X102195Y64054D01*
X102283Y63614D01*
X102275Y63613D01*
X102372Y63294D01*
X102530Y62998D01*
X102647Y62856D01*
X102647Y62855D01*
X102647Y62855D01*
X102647Y62855D01*
X102645Y62853D01*
X102684Y62803D01*
X102739Y62761D01*
X102913Y62627D01*
X103120Y62541D01*
X103180Y62517D01*
X103247Y62508D01*
X103376Y62478D01*
X103423Y62466D01*
X103921Y62427D01*
X104009Y62420D01*
X104055Y62424D01*
X104186Y62432D01*
X104384D01*
X104441Y62432D01*
X104470Y62432D01*
X104471Y62432D01*
X104501Y62433D01*
X104501Y62433D01*
X104560Y62434D01*
X104565Y62433D01*
X104637Y62383D01*
X104689Y62317D01*
X104686Y61138D01*
X104516Y61120D01*
X104398Y61109D01*
X104281Y61099D01*
X104238Y61095D01*
X104104Y61098D01*
X103928Y61087D01*
X103928Y61087D01*
X103795Y61071D01*
X103752Y61071D01*
X103752D01*
X103693Y61070D01*
X103644Y61069D01*
X103516Y61079D01*
X103377Y61068D01*
X102831Y61111D01*
X102300Y61238D01*
X102077Y61331D01*
X102069Y61328D01*
X101790Y61477D01*
X101526Y61693D01*
X101310Y61957D01*
X101250Y62069D01*
X101250D01*
X101184Y62186D01*
X101014Y62597D01*
X100896Y63087D01*
X100879Y63305D01*
X100878Y63305D01*
X100828Y63735D01*
X100781Y64926D01*
X100786Y65048D01*
X100780Y65049D01*
X100780Y65049D01*
Y73190D01*
X100778Y73195D01*
X100773Y73198D01*
X99065D01*
Y74558D01*
X100773D01*
X100778Y74560D01*
X100780Y74565D01*
Y78049D01*
X102160D01*
Y74568D01*
D02*
G37*
G36*
X213091Y38767D02*
Y31686D01*
Y24529D01*
Y10236D01*
X72539D01*
Y24529D01*
Y31686D01*
D01*
Y38767D01*
Y53396D01*
X213091D01*
Y38767D01*
D02*
G37*
G36*
X223025Y88582D02*
X196161D01*
Y96439D01*
X223025D01*
Y88582D01*
D02*
G37*
%LPC*%
G36*
X123167Y68123D02*
X123064Y68119D01*
X122050Y68083D01*
X121917Y68076D01*
X121826Y68072D01*
X121527Y68037D01*
X121523Y68040D01*
Y68040D01*
X121027Y67975D01*
X121028Y67974D01*
X121027Y67974D01*
X120561Y67905D01*
X120555Y67897D01*
X120256Y67846D01*
X120126Y67809D01*
X120126Y67808D01*
X119723Y67691D01*
X119723Y67692D01*
X119348Y67565D01*
X119348Y67564D01*
X119222Y67522D01*
X119127Y67475D01*
X119005Y67419D01*
X118886Y67370D01*
X118695Y67253D01*
X118694Y67252D01*
X118406Y67098D01*
X117994Y66760D01*
X117656Y66348D01*
X117405Y65878D01*
X117250Y65368D01*
X117206Y64922D01*
X117198Y64837D01*
X117203Y64789D01*
X117200Y64711D01*
X117241Y64291D01*
X117363Y63888D01*
X117562Y63516D01*
X117829Y63190D01*
X118146Y62930D01*
X118148Y62933D01*
X118516Y62707D01*
X118775Y62600D01*
Y62600D01*
X118775Y62600D01*
X119019Y62499D01*
X119254Y62443D01*
X119259Y62435D01*
X119394Y62408D01*
X119524Y62382D01*
X119525Y62382D01*
Y62382D01*
X119526Y62381D01*
X119526Y62381D01*
X119656Y62356D01*
X119801Y62327D01*
X119801Y62326D01*
X119843Y62317D01*
X119960Y62310D01*
X120093Y62299D01*
X120399Y62282D01*
Y62282D01*
X120531Y62274D01*
X120714Y62264D01*
X120717Y62264D01*
X120736Y62266D01*
X121313Y62304D01*
X121881Y62417D01*
X122095Y62490D01*
X122098Y62489D01*
X122098D01*
Y62489D01*
X122266Y62537D01*
X122927Y62811D01*
X123356Y63048D01*
X123356Y63048D01*
X123586Y63175D01*
X124269Y63659D01*
X124437Y63810D01*
X124442Y63809D01*
X125051Y64361D01*
X125296Y64631D01*
X125295Y64631D01*
X125297Y64636D01*
Y68105D01*
X125295Y68110D01*
X125290Y68112D01*
X123326D01*
X123196Y68122D01*
X123167Y68123D01*
D02*
G37*
G36*
X151966Y73551D02*
X151290Y73507D01*
X150626Y73375D01*
X150090Y73193D01*
X150092Y73188D01*
X149814Y73073D01*
X149294Y72755D01*
X148831Y72359D01*
X148729Y72240D01*
X148729Y72239D01*
X148642Y72139D01*
X148499Y71976D01*
X148152Y71456D01*
X147874Y70894D01*
X147702Y70386D01*
X147705Y70385D01*
X147546Y69751D01*
X147412Y68843D01*
X147366Y67926D01*
X147412Y67009D01*
X147546Y66101D01*
X147705Y65467D01*
X147702Y65466D01*
X147879Y64944D01*
X148166Y64363D01*
X148525Y63825D01*
X148641Y63693D01*
X148642Y63694D01*
X148642Y63694D01*
X148643Y63694D01*
X148861Y63439D01*
X149315Y63051D01*
X149825Y62738D01*
X150092Y62628D01*
X150089Y62621D01*
X150650Y62430D01*
X151272Y62307D01*
X151905Y62265D01*
X151974Y62269D01*
X152035Y62265D01*
X152107Y62270D01*
X152663Y62306D01*
X153279Y62429D01*
X153842Y62620D01*
X153839Y62628D01*
X154106Y62738D01*
X154616Y63051D01*
X155071Y63439D01*
X155288Y63694D01*
X155289Y63694D01*
X155290Y63693D01*
X155410Y63829D01*
X155775Y64377D01*
X156067Y64968D01*
X156194Y65343D01*
X156236Y65467D01*
X156410Y66159D01*
X156540Y67038D01*
X156584Y67926D01*
X156540Y68814D01*
X156410Y69693D01*
X156236Y70385D01*
X156236Y70386D01*
X156072Y70869D01*
X155789Y71442D01*
X155435Y71973D01*
X155290Y72139D01*
Y72139D01*
X155290D01*
X155202Y72239D01*
X155100Y72359D01*
X154637Y72755D01*
X154117Y73073D01*
X153839Y73188D01*
X153841Y73193D01*
X153305Y73375D01*
X152641Y73507D01*
X151966Y73551D01*
D02*
G37*
G36*
X149555Y61397D02*
X149555D01*
D01*
X149555D01*
D02*
G37*
G36*
X154451D02*
X154451D01*
X154451D01*
D01*
D02*
G37*
G36*
X131291Y46259D02*
X131210D01*
X131046Y46253D01*
X130896Y46234D01*
X130764Y46203D01*
X130651Y46178D01*
X130563Y46146D01*
X130500Y46115D01*
X130475Y46109D01*
X130456Y46096D01*
X130450Y46090D01*
X130443D01*
X130337Y46027D01*
X130249Y45958D01*
X130180Y45882D01*
X130123Y45820D01*
X130079Y45757D01*
X130054Y45713D01*
X130035Y45682D01*
X130029Y45669D01*
X130010Y45619D01*
X129991Y45562D01*
X129966Y45437D01*
X129941Y45305D01*
X129928Y45179D01*
X129922Y45066D01*
Y45016D01*
X129916Y44972D01*
Y44934D01*
Y44909D01*
Y44890D01*
Y44884D01*
Y44570D01*
X129300D01*
Y43697D01*
X129916D01*
Y40369D01*
X129300D01*
Y43697D01*
D01*
Y40369D01*
D01*
X131027D01*
Y43697D01*
X131856D01*
Y44570D01*
X131027D01*
Y44865D01*
X131034Y44978D01*
X131046Y45066D01*
X131059Y45142D01*
X131078Y45204D01*
X131096Y45248D01*
X131115Y45273D01*
X131122Y45292D01*
X131128Y45298D01*
X131172Y45336D01*
X131228Y45361D01*
X131285Y45386D01*
X131342Y45399D01*
X131398Y45405D01*
X131442Y45412D01*
X131574D01*
X131668Y45399D01*
X131756Y45393D01*
X131838Y45380D01*
X131900Y45368D01*
X131957Y45355D01*
X131988Y45349D01*
X132001Y45342D01*
X132145Y46115D01*
X131976Y46165D01*
X131806Y46196D01*
X131649Y46222D01*
X131505Y46240D01*
X131442Y46247D01*
X131385Y46253D01*
X131335D01*
X131291Y46259D01*
D02*
G37*
G36*
X154778Y46165D02*
X150684D01*
X153667D01*
Y44074D01*
X153566Y44181D01*
X153466Y44269D01*
X153365Y44350D01*
X153259Y44413D01*
X153158Y44469D01*
X153058Y44520D01*
X152957Y44557D01*
X152863Y44589D01*
X152775Y44614D01*
X152700Y44633D01*
X152631Y44645D01*
X152568Y44658D01*
X152518D01*
X152480Y44664D01*
X152448D01*
X152310Y44658D01*
X152172Y44639D01*
X152047Y44614D01*
X151927Y44576D01*
X151814Y44532D01*
X151714Y44488D01*
X151613Y44438D01*
X151525Y44388D01*
X151450Y44331D01*
X151381Y44281D01*
X151318Y44237D01*
X151268Y44193D01*
X151230Y44155D01*
X151205Y44130D01*
X151186Y44111D01*
X151180Y44105D01*
X151092Y43999D01*
X151017Y43879D01*
X150948Y43754D01*
X150891Y43622D01*
X150847Y43483D01*
X150803Y43352D01*
X150772Y43220D01*
X150747Y43088D01*
X150728Y42969D01*
X150709Y42849D01*
X150696Y42749D01*
X150690Y42661D01*
Y42586D01*
X150684Y42535D01*
Y42554D01*
Y42485D01*
X150690Y42297D01*
X150709Y42114D01*
X150734Y41945D01*
X150766Y41788D01*
X150803Y41644D01*
X150847Y41505D01*
X150891Y41386D01*
X150941Y41273D01*
X150992Y41179D01*
X151035Y41091D01*
X151079Y41022D01*
X151117Y40959D01*
X151149Y40915D01*
X151180Y40877D01*
X151192Y40859D01*
X151199Y40852D01*
X151299Y40752D01*
X151400Y40664D01*
X151506Y40582D01*
X151607Y40519D01*
X151714Y40463D01*
X151814Y40413D01*
X151915Y40375D01*
X152009Y40350D01*
X152097Y40325D01*
X152179Y40306D01*
X152254Y40293D01*
X152317Y40281D01*
X152367D01*
X152405Y40275D01*
X152436D01*
X152568Y40281D01*
X152693Y40300D01*
X152813Y40331D01*
X152919Y40362D01*
X153007Y40387D01*
X153077Y40419D01*
X153102Y40431D01*
X153127Y40438D01*
X153133Y40444D01*
X153139D01*
X153265Y40519D01*
X153384Y40601D01*
X153485Y40695D01*
X153579Y40783D01*
X153648Y40859D01*
X153705Y40928D01*
X153723Y40946D01*
X153736Y40965D01*
X153749Y40978D01*
Y40369D01*
X154778D01*
Y40325D01*
Y46165D01*
D02*
G37*
G36*
X110643Y44664D02*
X110580D01*
X110479Y44658D01*
X110391Y44645D01*
X110310Y44620D01*
X110234Y44595D01*
X110178Y44570D01*
X110134Y44545D01*
X110109Y44532D01*
X110096Y44526D01*
X110058Y44501D01*
X110015Y44463D01*
X109933Y44382D01*
X109858Y44294D01*
X109782Y44199D01*
X109719Y44111D01*
X109669Y44036D01*
X109650Y44005D01*
X109638Y43986D01*
X109632Y43973D01*
X109625Y43967D01*
Y44570D01*
X108595D01*
Y40369D01*
X111139D01*
X115754D01*
X111314D01*
D01*
X111139D01*
D01*
X111314D01*
X109707D01*
Y41662D01*
Y41857D01*
X109713Y42033D01*
Y42190D01*
X109719Y42334D01*
X109726Y42466D01*
X109732Y42579D01*
X109745Y42680D01*
X109751Y42768D01*
X109757Y42843D01*
X109770Y42906D01*
X109776Y42962D01*
X109782Y43000D01*
X109789Y43031D01*
Y43050D01*
X109795Y43063D01*
Y43069D01*
X109832Y43188D01*
X109876Y43283D01*
X109920Y43364D01*
X109958Y43427D01*
X109996Y43477D01*
X110027Y43509D01*
X110046Y43527D01*
X110052Y43534D01*
X110115Y43578D01*
X110184Y43609D01*
X110247Y43634D01*
X110310Y43647D01*
X110366Y43659D01*
X110410Y43666D01*
X110448D01*
X110542Y43659D01*
X110630Y43641D01*
X110718Y43609D01*
X110800Y43578D01*
X110869Y43540D01*
X110919Y43515D01*
X110957Y43490D01*
X110969Y43483D01*
X111314Y44451D01*
X111183Y44520D01*
X111051Y44576D01*
X110925Y44614D01*
X110812Y44639D01*
X110718Y44652D01*
X110680Y44658D01*
X110643Y44664D01*
D02*
G37*
G36*
X136007D02*
X132145D01*
X134004D01*
X133841Y44658D01*
X133690Y44645D01*
X133546Y44627D01*
X133414Y44608D01*
X133294Y44576D01*
X133188Y44545D01*
X133087Y44513D01*
X132999Y44476D01*
X132924Y44438D01*
X132855Y44407D01*
X132798Y44375D01*
X132754Y44344D01*
X132717Y44325D01*
X132692Y44306D01*
X132679Y44294D01*
X132673Y44287D01*
X132597Y44218D01*
X132535Y44143D01*
X132478Y44068D01*
X132428Y43986D01*
X132384Y43911D01*
X132352Y43835D01*
X132302Y43691D01*
X132283Y43622D01*
X132271Y43565D01*
X132258Y43509D01*
X132252Y43465D01*
X132246Y43421D01*
Y43396D01*
Y43377D01*
Y43371D01*
X132252Y43264D01*
X132265Y43157D01*
X132290Y43063D01*
X132321Y42969D01*
X132359Y42887D01*
X132403Y42805D01*
X132447Y42736D01*
X132497Y42673D01*
X132541Y42617D01*
X132585Y42567D01*
X132629Y42523D01*
X132667Y42491D01*
X132698Y42466D01*
X132723Y42447D01*
X132736Y42435D01*
X132742Y42428D01*
X132817Y42384D01*
X132918Y42334D01*
X133031Y42290D01*
X133156Y42240D01*
X133294Y42196D01*
X133439Y42152D01*
X133722Y42064D01*
X133866Y42027D01*
X133998Y41995D01*
X134117Y41964D01*
X134224Y41939D01*
X134312Y41920D01*
X134381Y41901D01*
X134406Y41895D01*
X134425D01*
X134431Y41888D01*
X134438D01*
X134538Y41863D01*
X134620Y41838D01*
X134682Y41813D01*
X134733Y41788D01*
X134764Y41769D01*
X134789Y41750D01*
X134802Y41744D01*
X134808Y41738D01*
X134833Y41706D01*
X134858Y41669D01*
X134877Y41606D01*
X134883Y41574D01*
X134890Y41549D01*
Y41537D01*
Y41530D01*
X134883Y41461D01*
X134864Y41405D01*
X134839Y41355D01*
X134814Y41311D01*
X134789Y41279D01*
X134764Y41254D01*
X134745Y41242D01*
X134739Y41235D01*
X134651Y41185D01*
X134550Y41147D01*
X134444Y41116D01*
X134337Y41097D01*
X134243Y41085D01*
X134199D01*
X134161Y41078D01*
X134092D01*
X133954Y41085D01*
X133835Y41103D01*
X133728Y41129D01*
X133640Y41160D01*
X133571Y41191D01*
X133521Y41216D01*
X133495Y41235D01*
X133483Y41242D01*
X133408Y41311D01*
X133351Y41386D01*
X133301Y41468D01*
X133263Y41549D01*
X133232Y41618D01*
X133213Y41681D01*
X133207Y41719D01*
X133200Y41725D01*
Y41731D01*
X132089Y41562D01*
D01*
X132120Y41455D01*
X132158Y41348D01*
X132202Y41254D01*
X132252Y41166D01*
X132309Y41078D01*
X132359Y41003D01*
X132415Y40934D01*
X132472Y40865D01*
X132522Y40808D01*
X132572Y40758D01*
X132616Y40720D01*
X132654Y40683D01*
X132692Y40657D01*
X132717Y40639D01*
X132729Y40626D01*
X132736Y40620D01*
X132836Y40557D01*
X132937Y40507D01*
X133050Y40463D01*
X133163Y40419D01*
X133389Y40356D01*
X133608Y40318D01*
X133709Y40306D01*
X133797Y40293D01*
X133885Y40287D01*
X133954Y40281D01*
X134017Y40275D01*
X134098D01*
X134268Y40281D01*
X134431Y40293D01*
X134582Y40312D01*
X134720Y40337D01*
X134846Y40369D01*
X134965Y40406D01*
X135072Y40444D01*
X135166Y40482D01*
X135248Y40519D01*
X135323Y40557D01*
X135386Y40595D01*
X135436Y40626D01*
X135474Y40651D01*
X135499Y40670D01*
X135518Y40683D01*
X135524Y40689D01*
X135612Y40771D01*
X135681Y40852D01*
X135750Y40934D01*
X135807Y41022D01*
X135851Y41103D01*
X135888Y41185D01*
X135920Y41267D01*
X135945Y41342D01*
X135970Y41411D01*
X135982Y41474D01*
X135995Y41537D01*
X136001Y41587D01*
X136007Y41625D01*
Y40343D01*
Y41681D01*
X136001Y41775D01*
X135995Y41870D01*
X135951Y42033D01*
X135895Y42171D01*
X135832Y42290D01*
X135800Y42341D01*
X135769Y42384D01*
X135737Y42422D01*
X135712Y42447D01*
X135687Y42472D01*
X135668Y42491D01*
X135662Y42498D01*
X135656Y42504D01*
X135587Y42560D01*
X135499Y42611D01*
X135411Y42661D01*
X135317Y42705D01*
X135109Y42793D01*
X134908Y42862D01*
X134808Y42893D01*
X134720Y42918D01*
X134632Y42944D01*
X134563Y42962D01*
X134500Y42981D01*
X134456Y42994D01*
X134431Y43000D01*
X134419D01*
X134262Y43038D01*
X134117Y43069D01*
X133992Y43107D01*
X133885Y43132D01*
X133784Y43163D01*
X133703Y43188D01*
X133627Y43213D01*
X133571Y43232D01*
X133521Y43251D01*
X133477Y43270D01*
X133445Y43283D01*
X133420Y43295D01*
X133401Y43301D01*
X133389Y43308D01*
X133382Y43314D01*
X133345Y43345D01*
X133320Y43383D01*
X133301Y43415D01*
X133288Y43446D01*
X133282Y43471D01*
X133276Y43496D01*
Y43509D01*
Y43515D01*
X133282Y43565D01*
X133294Y43609D01*
X133313Y43647D01*
X133338Y43678D01*
X133364Y43703D01*
X133382Y43729D01*
X133395Y43735D01*
X133401Y43741D01*
X133483Y43785D01*
X133577Y43816D01*
X133684Y43835D01*
X133784Y43854D01*
X133879Y43860D01*
X133954Y43867D01*
X134023D01*
X134142Y43860D01*
X134255Y43848D01*
X134343Y43823D01*
X134419Y43804D01*
X134481Y43779D01*
X134519Y43754D01*
X134550Y43741D01*
X134557Y43735D01*
X134620Y43678D01*
X134676Y43622D01*
X134720Y43559D01*
X134758Y43496D01*
X134783Y43440D01*
X134802Y43396D01*
X134814Y43371D01*
Y43358D01*
X135863Y43553D01*
X135794Y43747D01*
X135750Y43835D01*
X135706Y43911D01*
X135656Y43986D01*
X135606Y44055D01*
X135555Y44118D01*
X135511Y44174D01*
X135461Y44218D01*
X135424Y44262D01*
X135380Y44300D01*
X135348Y44331D01*
X135317Y44350D01*
X135298Y44369D01*
X135285Y44382D01*
X135279D01*
X135197Y44432D01*
X135103Y44476D01*
X135009Y44513D01*
X134902Y44545D01*
X134695Y44595D01*
X134488Y44627D01*
X134387Y44639D01*
X134299Y44652D01*
X134218Y44658D01*
X134142D01*
X134086Y44664D01*
X136007D01*
D02*
G37*
G36*
X124540D02*
X124383D01*
X124270Y44652D01*
X124063Y44620D01*
X123874Y44576D01*
X123787Y44551D01*
X123705Y44526D01*
X123636Y44501D01*
X123573Y44476D01*
X123517Y44451D01*
X123466Y44432D01*
X123429Y44413D01*
X123404Y44400D01*
X123385Y44394D01*
X123378Y44388D01*
X123203Y44275D01*
X123052Y44149D01*
X122920Y44017D01*
X122807Y43892D01*
X122725Y43779D01*
X122688Y43729D01*
X122662Y43685D01*
X122644Y43647D01*
X122625Y43622D01*
X122618Y43603D01*
X122612Y43597D01*
X122562Y43502D01*
X122524Y43402D01*
X122455Y43213D01*
X122411Y43031D01*
X122374Y42868D01*
X122367Y42793D01*
X122355Y42730D01*
X122348Y42667D01*
Y42617D01*
X122342Y42579D01*
Y42586D01*
Y40275D01*
X126663D01*
Y40369D01*
Y40275D01*
X124503D01*
X124672Y40281D01*
X124835Y40300D01*
X124992Y40331D01*
X125137Y40375D01*
X125275Y40419D01*
X125401Y40469D01*
X125520Y40526D01*
X125627Y40589D01*
X125721Y40645D01*
X125803Y40701D01*
X125878Y40752D01*
X125934Y40802D01*
X125985Y40840D01*
X126022Y40871D01*
X126041Y40890D01*
X126047Y40896D01*
X126154Y41015D01*
X126248Y41147D01*
X126330Y41273D01*
X126405Y41411D01*
X126462Y41543D01*
X126512Y41675D01*
X126556Y41800D01*
X126587Y41926D01*
X126613Y42039D01*
X126631Y42146D01*
X126644Y42240D01*
X126657Y42322D01*
Y42384D01*
X126663Y42435D01*
Y40369D01*
Y42435D01*
Y42479D01*
X126657Y42655D01*
X126638Y42818D01*
X126606Y42975D01*
X126569Y43119D01*
X126525Y43257D01*
X126468Y43389D01*
X126418Y43509D01*
X126361Y43615D01*
X126299Y43710D01*
X126248Y43797D01*
X126198Y43867D01*
X126148Y43929D01*
X126110Y43980D01*
X126079Y44011D01*
X126060Y44036D01*
X126054Y44043D01*
X125934Y44149D01*
X125815Y44250D01*
X125683Y44331D01*
X125551Y44400D01*
X125426Y44463D01*
X125294Y44513D01*
X125168Y44551D01*
X125049Y44589D01*
X124936Y44614D01*
X124829Y44633D01*
X124735Y44645D01*
X124653Y44652D01*
X124591Y44658D01*
X124540Y44664D01*
D02*
G37*
G36*
X141050D02*
Y42491D01*
X141044Y42680D01*
X141032Y42856D01*
X141000Y43019D01*
X140969Y43170D01*
X140931Y43314D01*
X140887Y43446D01*
X140843Y43565D01*
X140793Y43672D01*
X140743Y43766D01*
X140699Y43854D01*
X140655Y43923D01*
X140617Y43980D01*
X140586Y44030D01*
X140560Y44061D01*
X140542Y44080D01*
X140535Y44086D01*
X140435Y44187D01*
X140334Y44275D01*
X140234Y44357D01*
X140127Y44419D01*
X140020Y44476D01*
X139920Y44526D01*
X139820Y44564D01*
X139725Y44595D01*
X139631Y44614D01*
X139549Y44633D01*
X139480Y44645D01*
X139418Y44658D01*
X139361D01*
X139323Y44664D01*
X139292D01*
X139141Y44658D01*
X138997Y44633D01*
X138865Y44601D01*
X138752Y44564D01*
X138658Y44526D01*
X138620Y44507D01*
X138589Y44495D01*
X138563Y44482D01*
X138545Y44469D01*
X138532Y44463D01*
X138526D01*
X138406Y44388D01*
X138300Y44300D01*
X138206Y44212D01*
X138130Y44130D01*
X138067Y44061D01*
X138023Y43999D01*
X137998Y43961D01*
X137986Y43955D01*
Y44570D01*
X136950D01*
Y38774D01*
X141050D01*
Y44664D01*
D02*
G37*
G36*
X103264D02*
Y42491D01*
X103257Y42680D01*
X103245Y42856D01*
X103213Y43019D01*
X103182Y43170D01*
X103144Y43314D01*
X103100Y43446D01*
X103056Y43565D01*
X103006Y43672D01*
X102956Y43766D01*
X102912Y43854D01*
X102868Y43923D01*
X102830Y43980D01*
X102799Y44030D01*
X102774Y44061D01*
X102755Y44080D01*
X102749Y44086D01*
X102648Y44187D01*
X102548Y44275D01*
X102447Y44357D01*
X102340Y44419D01*
X102234Y44476D01*
X102133Y44526D01*
X102033Y44564D01*
X101938Y44595D01*
X101844Y44614D01*
X101763Y44633D01*
X101694Y44645D01*
X101631Y44658D01*
X101574D01*
X101537Y44664D01*
X101505D01*
X101354Y44658D01*
X101210Y44633D01*
X101078Y44601D01*
X100965Y44564D01*
X100871Y44526D01*
X100833Y44507D01*
X100802Y44495D01*
X100777Y44482D01*
X100758Y44469D01*
X100745Y44463D01*
X100739D01*
X100620Y44388D01*
X100513Y44300D01*
X100419Y44212D01*
X100343Y44130D01*
X100281Y44061D01*
X100237Y43999D01*
X100212Y43961D01*
X100199Y43955D01*
Y44570D01*
X99163D01*
Y38774D01*
X103264Y38774D01*
Y44664D01*
D02*
G37*
G36*
X148071D02*
X146106D01*
D01*
X148027D01*
X147877Y44658D01*
X147726Y44639D01*
X147588Y44608D01*
X147462Y44570D01*
X147337Y44526D01*
X147224Y44476D01*
X147117Y44419D01*
X147023Y44369D01*
X146941Y44313D01*
X146866Y44256D01*
X146797Y44206D01*
X146746Y44162D01*
X146702Y44124D01*
X146671Y44093D01*
X146652Y44074D01*
X146646Y44068D01*
X146552Y43955D01*
X146470Y43829D01*
X146395Y43697D01*
X146332Y43565D01*
X146282Y43427D01*
X146238Y43289D01*
X146200Y43157D01*
X146175Y43031D01*
X146150Y42906D01*
X146137Y42799D01*
X146125Y42692D01*
X146112Y42604D01*
Y42535D01*
X146106Y42479D01*
Y42491D01*
Y42435D01*
X146112Y42278D01*
X146125Y42121D01*
X146143Y41976D01*
X146168Y41838D01*
X146200Y41713D01*
X146238Y41593D01*
X146275Y41480D01*
X146313Y41380D01*
X146351Y41292D01*
X146388Y41210D01*
X146426Y41147D01*
X146457Y41091D01*
X146483Y41041D01*
X146501Y41009D01*
X146514Y40990D01*
X146520Y40984D01*
X146627Y40859D01*
X146740Y40752D01*
X146866Y40657D01*
X146991Y40576D01*
X147129Y40507D01*
X147261Y40450D01*
X147393Y40400D01*
X147525Y40362D01*
X147651Y40331D01*
X147764Y40312D01*
X147870Y40293D01*
X147958Y40287D01*
X148034Y40281D01*
X148090Y40275D01*
X148141D01*
X148266Y40281D01*
X148385Y40287D01*
X148505Y40306D01*
X148611Y40325D01*
X148712Y40350D01*
X148806Y40375D01*
X148894Y40400D01*
X148976Y40431D01*
X149045Y40463D01*
X149108Y40488D01*
X149164Y40513D01*
X149208Y40538D01*
X149246Y40557D01*
X149271Y40576D01*
X149283Y40582D01*
X149290Y40589D01*
X149371Y40651D01*
X149453Y40720D01*
X149591Y40871D01*
X149710Y41022D01*
X149805Y41173D01*
X149842Y41242D01*
X149874Y41311D01*
X149905Y41367D01*
X149930Y41417D01*
X149943Y41461D01*
X149955Y41493D01*
X149968Y41512D01*
Y41518D01*
X148863Y41706D01*
X148825Y41593D01*
X148781Y41499D01*
X148737Y41417D01*
X148687Y41355D01*
X148649Y41304D01*
X148618Y41267D01*
X148593Y41248D01*
X148586Y41242D01*
X148517Y41198D01*
X148442Y41160D01*
X148373Y41135D01*
X148304Y41122D01*
X148241Y41110D01*
X148197Y41103D01*
X148153D01*
X148084Y41110D01*
X148015Y41116D01*
X147889Y41147D01*
X147776Y41191D01*
X147682Y41242D01*
X147607Y41285D01*
X147550Y41330D01*
X147519Y41361D01*
X147512Y41374D01*
X147506D01*
X147418Y41486D01*
X147355Y41612D01*
X147311Y41744D01*
X147280Y41870D01*
X147261Y41976D01*
X147255Y42027D01*
X147249Y42070D01*
X147242Y42102D01*
Y42133D01*
Y42146D01*
Y42152D01*
X150024D01*
Y42384D01*
X150006Y42598D01*
X149980Y42799D01*
X149949Y42987D01*
X149911Y43157D01*
X149867Y43308D01*
X149823Y43452D01*
X149773Y43578D01*
X149723Y43685D01*
X149673Y43779D01*
X149629Y43860D01*
X149585Y43929D01*
X149553Y43980D01*
X149528Y44011D01*
X149510Y44036D01*
X149503Y44043D01*
X149397Y44149D01*
X149283Y44250D01*
X149164Y44331D01*
X149045Y44400D01*
X148919Y44463D01*
X148800Y44513D01*
X148680Y44551D01*
X148561Y44589D01*
X148454Y44614D01*
X148354Y44633D01*
X148260Y44645D01*
X148184Y44652D01*
X148115Y44658D01*
X148071Y44664D01*
D02*
G37*
G36*
X143569D02*
X143525D01*
X143374Y44658D01*
X143223Y44639D01*
X143085Y44608D01*
X142959Y44570D01*
X142834Y44526D01*
X142721Y44476D01*
X142614Y44419D01*
X142520Y44369D01*
X142438Y44313D01*
X142363Y44256D01*
X142294Y44206D01*
X142244Y44162D01*
X142200Y44124D01*
X142168Y44093D01*
X142149Y44074D01*
X142143Y44068D01*
X142049Y43955D01*
X141967Y43829D01*
X141892Y43697D01*
X141829Y43565D01*
X141779Y43427D01*
X141735Y43289D01*
X141697Y43157D01*
X141672Y43031D01*
X141647Y42906D01*
X141634Y42799D01*
X141622Y42692D01*
X141609Y42604D01*
Y42535D01*
X141603Y42479D01*
Y42485D01*
Y42435D01*
X141609Y42278D01*
X141622Y42121D01*
X141641Y41976D01*
X141666Y41838D01*
X141697Y41713D01*
X141735Y41593D01*
X141772Y41480D01*
X141810Y41380D01*
X141848Y41292D01*
X141886Y41210D01*
X141923Y41147D01*
X141955Y41091D01*
X141980Y41041D01*
X141999Y41009D01*
X142011Y40990D01*
X142017Y40984D01*
X142124Y40859D01*
X142237Y40752D01*
X142363Y40657D01*
X142488Y40576D01*
X142627Y40507D01*
X142759Y40450D01*
X142890Y40400D01*
X143022Y40362D01*
X143148Y40331D01*
X143261Y40312D01*
X143368Y40293D01*
X143456Y40287D01*
X143531Y40281D01*
X143587Y40275D01*
X141603D01*
X145522D01*
X143638D01*
X143763Y40281D01*
X143883Y40287D01*
X144002Y40306D01*
X144109Y40325D01*
X144209Y40350D01*
X144303Y40375D01*
X144391Y40400D01*
X144473Y40431D01*
X144542Y40463D01*
X144605Y40488D01*
X144661Y40513D01*
X144705Y40538D01*
X144743Y40557D01*
X144768Y40576D01*
X144781Y40582D01*
X144787Y40589D01*
X144869Y40651D01*
X144950Y40720D01*
X145088Y40871D01*
X145208Y41022D01*
X145302Y41173D01*
X145340Y41242D01*
X145371Y41311D01*
X145402Y41367D01*
X145428Y41417D01*
X145440Y41461D01*
X145453Y41493D01*
X145465Y41512D01*
Y41518D01*
X144360Y41706D01*
X144322Y41593D01*
X144278Y41499D01*
X144234Y41417D01*
X144184Y41355D01*
X144146Y41304D01*
X144115Y41267D01*
X144090Y41248D01*
X144084Y41242D01*
X144015Y41198D01*
X143939Y41160D01*
X143870Y41135D01*
X143801Y41122D01*
X143738Y41110D01*
X143694Y41103D01*
X143650D01*
X143581Y41110D01*
X143512Y41116D01*
X143386Y41147D01*
X143273Y41191D01*
X143179Y41242D01*
X143104Y41285D01*
X143047Y41330D01*
X143016Y41361D01*
X143010Y41374D01*
X143003D01*
X142915Y41486D01*
X142853Y41612D01*
X142809Y41744D01*
X142777Y41870D01*
X142759Y41976D01*
X142752Y42027D01*
X142746Y42070D01*
X142740Y42102D01*
Y42133D01*
Y42146D01*
Y42152D01*
X145522D01*
Y42384D01*
X145503Y42598D01*
X145478Y42799D01*
X145446Y42987D01*
X145409Y43157D01*
X145365Y43308D01*
X145321Y43452D01*
X145271Y43578D01*
X145220Y43685D01*
X145170Y43779D01*
X145126Y43860D01*
X145082Y43929D01*
X145051Y43980D01*
X145026Y44011D01*
X145007Y44036D01*
X145001Y44043D01*
X144894Y44149D01*
X144781Y44250D01*
X144661Y44331D01*
X144542Y44400D01*
X144416Y44463D01*
X144297Y44513D01*
X144178Y44551D01*
X144058Y44589D01*
X143952Y44614D01*
X143851Y44633D01*
X143757Y44645D01*
X143682Y44652D01*
X143613Y44658D01*
X143569Y44664D01*
D02*
G37*
G36*
X105782D02*
X105738D01*
X105587Y44658D01*
X105436Y44639D01*
X105298Y44608D01*
X105173Y44570D01*
X105047Y44526D01*
X104934Y44476D01*
X104827Y44419D01*
X104733Y44369D01*
X104651Y44313D01*
X104576Y44256D01*
X104507Y44206D01*
X104457Y44162D01*
X104413Y44124D01*
X104381Y44093D01*
X104363Y44074D01*
X104356Y44068D01*
X104262Y43955D01*
X104180Y43829D01*
X104105Y43697D01*
X104042Y43565D01*
X103992Y43427D01*
X103948Y43289D01*
X103910Y43157D01*
X103885Y43031D01*
X103860Y42906D01*
X103848Y42799D01*
X103835Y42692D01*
X103823Y42604D01*
Y42535D01*
X103816Y42479D01*
D01*
Y42435D01*
X103823Y42278D01*
X103835Y42121D01*
X103854Y41976D01*
X103879Y41838D01*
X103910Y41713D01*
X103948Y41593D01*
X103986Y41480D01*
X104024Y41380D01*
X104061Y41292D01*
X104099Y41210D01*
X104137Y41147D01*
X104168Y41091D01*
X104193Y41041D01*
X104212Y41009D01*
X104224Y40990D01*
X104231Y40984D01*
X104337Y40859D01*
X104451Y40752D01*
X104576Y40657D01*
X104702Y40576D01*
X104840Y40507D01*
X104972Y40450D01*
X105104Y40400D01*
X105236Y40362D01*
X105361Y40331D01*
X105474Y40312D01*
X105581Y40293D01*
X105669Y40287D01*
X105744Y40281D01*
X105801Y40275D01*
X103816D01*
X107735D01*
Y41505D01*
Y40275D01*
X105851D01*
X105976Y40281D01*
X106096Y40287D01*
X106215Y40306D01*
X106322Y40325D01*
X106422Y40350D01*
X106517Y40375D01*
X106605Y40400D01*
X106686Y40431D01*
X106755Y40463D01*
X106818Y40488D01*
X106875Y40513D01*
X106919Y40538D01*
X106956Y40557D01*
X106981Y40576D01*
X106994Y40582D01*
X107000Y40589D01*
X107082Y40651D01*
X107163Y40720D01*
X107302Y40871D01*
X107421Y41022D01*
X107515Y41173D01*
X107553Y41242D01*
X107584Y41311D01*
X107616Y41367D01*
X107641Y41417D01*
X107653Y41461D01*
X107666Y41493D01*
X107678Y41512D01*
Y41518D01*
X106573Y41706D01*
X106535Y41593D01*
X106491Y41499D01*
X106448Y41417D01*
X106397Y41355D01*
X106360Y41304D01*
X106328Y41267D01*
X106303Y41248D01*
X106297Y41242D01*
X106228Y41198D01*
X106152Y41160D01*
X106083Y41135D01*
X106014Y41122D01*
X105951Y41110D01*
X105907Y41103D01*
X105863D01*
X105794Y41110D01*
X105725Y41116D01*
X105600Y41147D01*
X105487Y41191D01*
X105393Y41242D01*
X105317Y41285D01*
X105261Y41330D01*
X105229Y41361D01*
X105223Y41374D01*
X105217D01*
X105129Y41486D01*
X105066Y41612D01*
X105022Y41744D01*
X104991Y41870D01*
X104972Y41976D01*
X104965Y42027D01*
X104959Y42070D01*
X104953Y42102D01*
Y42133D01*
Y42146D01*
Y42152D01*
X107735D01*
Y41505D01*
Y42152D01*
Y42384D01*
X107716Y42598D01*
X107691Y42799D01*
X107660Y42987D01*
X107622Y43157D01*
X107578Y43308D01*
X107534Y43452D01*
X107484Y43578D01*
X107433Y43685D01*
X107383Y43779D01*
X107339Y43860D01*
X107295Y43929D01*
X107264Y43980D01*
X107239Y44011D01*
X107220Y44036D01*
X107214Y44043D01*
X107107Y44149D01*
X106994Y44250D01*
X106875Y44331D01*
X106755Y44400D01*
X106630Y44463D01*
X106510Y44513D01*
X106391Y44551D01*
X106272Y44589D01*
X106165Y44614D01*
X106064Y44633D01*
X105970Y44645D01*
X105895Y44652D01*
X105826Y44658D01*
X105782Y44664D01*
D02*
G37*
G36*
X195209Y46165D02*
X193451D01*
X192421Y42209D01*
X191378Y46165D01*
X189626D01*
Y40369D01*
X195209D01*
Y46165D01*
D02*
G37*
G36*
X179616Y44570D02*
X178273D01*
X178517D01*
X177713Y41813D01*
X177010Y44570D01*
X175139D01*
X175936D01*
X175214Y41813D01*
X174428Y44570D01*
X173348D01*
X174673Y40369D01*
X175754D01*
X176470Y43069D01*
X177192Y40369D01*
X176633D01*
X178266D01*
X179616Y44570D01*
D02*
G37*
G36*
X122028Y44570D02*
X120929D01*
X120125Y41813D01*
X119422Y44570D01*
X118348D01*
X117626Y41813D01*
X116841Y44570D01*
X115761D01*
X117086Y40369D01*
X115761D01*
D01*
X122028D01*
X120678D01*
X122028Y44570D01*
D02*
G37*
G36*
X93944Y44570D02*
Y41342D01*
X92167D01*
X92085Y41336D01*
X91991D01*
X91897Y41330D01*
X91803Y41323D01*
X91727D01*
X91696Y41317D01*
X91652D01*
X92211Y41926D01*
X93818Y43785D01*
Y44570D01*
X90352D01*
Y43647D01*
X91828Y43653D01*
X91941D01*
X92041Y43659D01*
X92129D01*
X92204Y43666D01*
X92267D01*
X92305Y43672D01*
X92343D01*
X92261Y43590D01*
X92173Y43496D01*
X92079Y43389D01*
X91985Y43283D01*
X91897Y43188D01*
X91859Y43144D01*
X91828Y43113D01*
X91803Y43082D01*
X91784Y43056D01*
X91771Y43044D01*
X91765Y43038D01*
X90195Y41235D01*
Y40369D01*
X93944D01*
Y44570D01*
D02*
G37*
G36*
X198004Y46184D02*
X197966D01*
X197790Y46178D01*
X197627Y46159D01*
X197476Y46127D01*
X197351Y46096D01*
X197294Y46077D01*
X197244Y46058D01*
X197200Y46046D01*
X197162Y46033D01*
X197131Y46021D01*
X197112Y46008D01*
X197099Y46002D01*
X197093D01*
X196955Y45926D01*
X196836Y45845D01*
X196735Y45763D01*
X196653Y45682D01*
X196584Y45612D01*
X196534Y45550D01*
X196509Y45512D01*
X196496Y45506D01*
Y45499D01*
X196421Y45374D01*
X196358Y45236D01*
X196302Y45098D01*
X196258Y44959D01*
X196220Y44840D01*
X196208Y44790D01*
X196195Y44746D01*
X196189Y44708D01*
X196182Y44683D01*
X196176Y44664D01*
Y44658D01*
X197200Y44488D01*
X197225Y44620D01*
X197256Y44740D01*
X197294Y44834D01*
X197338Y44915D01*
X197382Y44978D01*
X197413Y45022D01*
X197438Y45054D01*
X197445Y45060D01*
X197526Y45129D01*
X197608Y45179D01*
X197690Y45211D01*
X197765Y45236D01*
X197834Y45248D01*
X197884Y45261D01*
X197935D01*
X198041Y45254D01*
X198135Y45236D01*
X198211Y45204D01*
X198280Y45173D01*
X198337Y45142D01*
X198374Y45110D01*
X198399Y45091D01*
X198406Y45085D01*
X198462Y45016D01*
X198506Y44941D01*
X198537Y44859D01*
X198563Y44790D01*
X198575Y44721D01*
X198581Y44671D01*
Y44633D01*
Y44627D01*
Y44620D01*
X198569Y44495D01*
X198544Y44388D01*
X198506Y44294D01*
X198462Y44212D01*
X198412Y44149D01*
X198374Y44105D01*
X198349Y44080D01*
X198337Y44068D01*
X198236Y44005D01*
X198129Y43955D01*
X198016Y43917D01*
X197903Y43898D01*
X197803Y43885D01*
X197759D01*
X197721Y43879D01*
X197646D01*
X197526Y42975D01*
X197633Y43006D01*
X197734Y43025D01*
X197815Y43044D01*
X197891Y43050D01*
X197953Y43056D01*
X197997Y43063D01*
X198035D01*
X198154Y43050D01*
X198261Y43025D01*
X198355Y42981D01*
X198437Y42937D01*
X198500Y42893D01*
X198550Y42849D01*
X198575Y42824D01*
X198588Y42812D01*
X198663Y42711D01*
X198720Y42604D01*
X198757Y42491D01*
X198789Y42385D01*
X198801Y42290D01*
X198808Y42253D01*
Y42215D01*
X198814Y42184D01*
Y42165D01*
Y42152D01*
Y42146D01*
X198801Y41989D01*
X198776Y41851D01*
X198738Y41731D01*
X198695Y41631D01*
X198651Y41549D01*
X198613Y41493D01*
X198588Y41455D01*
X198575Y41442D01*
X198481Y41355D01*
X198380Y41292D01*
X198286Y41248D01*
X198192Y41216D01*
X198110Y41198D01*
X198048Y41191D01*
X198022Y41185D01*
X197991D01*
X197878Y41191D01*
X197771Y41216D01*
X197677Y41254D01*
X197596Y41292D01*
X197533Y41330D01*
X197482Y41367D01*
X197457Y41392D01*
X197445Y41399D01*
X197369Y41486D01*
X197307Y41593D01*
X197256Y41694D01*
X197225Y41800D01*
X197194Y41888D01*
X197181Y41964D01*
X197175Y41995D01*
X197168Y42014D01*
Y42027D01*
Y42033D01*
X196095Y41901D01*
X196113Y41769D01*
X196145Y41637D01*
X196182Y41518D01*
X196220Y41405D01*
X196270Y41298D01*
X196321Y41204D01*
X196371Y41116D01*
X196421Y41034D01*
X196478Y40959D01*
X196522Y40896D01*
X196572Y40840D01*
X196609Y40796D01*
X196641Y40758D01*
X196666Y40733D01*
X196685Y40720D01*
X196691Y40714D01*
X196792Y40632D01*
X196898Y40563D01*
X197005Y40507D01*
X197118Y40450D01*
X197225Y40406D01*
X197332Y40375D01*
X197438Y40343D01*
X197539Y40318D01*
X197633Y40300D01*
X197721Y40287D01*
X197803Y40275D01*
X197865Y40268D01*
X197922D01*
X197960Y40262D01*
X199951D01*
X197997D01*
X198148Y40268D01*
X198299Y40287D01*
X198437Y40312D01*
X198569Y40343D01*
X198688Y40387D01*
X198808Y40431D01*
X198914Y40482D01*
X199008Y40532D01*
X199096Y40576D01*
X199172Y40626D01*
X199234Y40670D01*
X199291Y40714D01*
X199335Y40745D01*
X199366Y40771D01*
X199385Y40789D01*
X199391Y40796D01*
X199492Y40903D01*
X199574Y41009D01*
X199649Y41116D01*
X199712Y41229D01*
X199768Y41336D01*
X199812Y41442D01*
X199850Y41549D01*
X199881Y41650D01*
X199907Y41744D01*
X199919Y41826D01*
X199932Y41901D01*
X199944Y41970D01*
Y42020D01*
X199951Y42064D01*
Y42127D01*
Y42096D01*
X199944Y42190D01*
X199938Y42284D01*
X199907Y42460D01*
X199856Y42611D01*
X199800Y42742D01*
X199775Y42799D01*
X199743Y42849D01*
X199718Y42893D01*
X199699Y42931D01*
X199674Y42956D01*
X199662Y42975D01*
X199655Y42987D01*
X199649Y42994D01*
X199592Y43063D01*
X199530Y43126D01*
X199404Y43226D01*
X199272Y43314D01*
X199140Y43377D01*
X199034Y43421D01*
X198983Y43440D01*
X198939Y43452D01*
X198908Y43465D01*
X198883Y43471D01*
X198864Y43477D01*
X198858D01*
X199002Y43565D01*
X199134Y43659D01*
X199247Y43760D01*
X199341Y43860D01*
X199423Y43961D01*
X199492Y44061D01*
X199542Y44162D01*
X199586Y44256D01*
X199624Y44344D01*
X199649Y44432D01*
X199668Y44507D01*
X199680Y44570D01*
X199687Y44620D01*
X199693Y44664D01*
Y44689D01*
Y44696D01*
X199687Y44796D01*
X199674Y44890D01*
X199655Y44984D01*
X199630Y45072D01*
X199561Y45236D01*
X199486Y45374D01*
X199448Y45437D01*
X199410Y45493D01*
X199373Y45543D01*
X199341Y45581D01*
X199316Y45612D01*
X199297Y45638D01*
X199285Y45650D01*
X199278Y45656D01*
X199184Y45751D01*
X199084Y45832D01*
X198977Y45901D01*
X198864Y45964D01*
X198757Y46014D01*
X198651Y46058D01*
X198544Y46090D01*
X198437Y46121D01*
X198343Y46140D01*
X198255Y46159D01*
X198173Y46165D01*
X198104Y46178D01*
X198048D01*
X198004Y46184D01*
D02*
G37*
G36*
X168299Y46090D02*
X165360D01*
X164789Y43069D01*
X165687Y42944D01*
X165756Y43019D01*
X165831Y43082D01*
X165907Y43138D01*
X165982Y43188D01*
X166051Y43226D01*
X166126Y43264D01*
X166258Y43314D01*
X166378Y43339D01*
X166421Y43352D01*
X166465Y43358D01*
X166503Y43364D01*
X166616D01*
X166685Y43352D01*
X166805Y43320D01*
X166911Y43276D01*
X166999Y43232D01*
X167075Y43182D01*
X167125Y43138D01*
X167156Y43107D01*
X167169Y43101D01*
Y43094D01*
X167251Y42981D01*
X167313Y42856D01*
X167357Y42724D01*
X167382Y42592D01*
X167401Y42472D01*
X167408Y42422D01*
Y42378D01*
X167414Y42341D01*
Y42316D01*
Y42297D01*
Y42290D01*
Y42190D01*
X167401Y42089D01*
X167389Y42002D01*
X167376Y41914D01*
X167357Y41838D01*
X167338Y41769D01*
X167313Y41706D01*
X167295Y41650D01*
X167269Y41600D01*
X167244Y41556D01*
X167225Y41518D01*
X167207Y41486D01*
X167194Y41468D01*
X167181Y41449D01*
X167169Y41442D01*
Y41436D01*
X167125Y41386D01*
X167075Y41342D01*
X166974Y41273D01*
X166880Y41223D01*
X166786Y41191D01*
X166704Y41166D01*
X166635Y41160D01*
X166610Y41154D01*
X166578D01*
X166465Y41166D01*
X166365Y41191D01*
X166271Y41223D01*
X166195Y41267D01*
X166126Y41304D01*
X166082Y41342D01*
X166051Y41367D01*
X166038Y41374D01*
X165963Y41461D01*
X165900Y41562D01*
X165850Y41656D01*
X165812Y41756D01*
X165787Y41838D01*
X165775Y41907D01*
X165768Y41932D01*
X165762Y41951D01*
Y41964D01*
Y41970D01*
X164657Y41851D01*
X164682Y41719D01*
X164707Y41593D01*
X164745Y41474D01*
X164789Y41361D01*
X164839Y41260D01*
X164889Y41166D01*
X164939Y41078D01*
X164990Y40997D01*
X165040Y40928D01*
X165090Y40865D01*
X165134Y40815D01*
X165172Y40771D01*
X165209Y40733D01*
X165235Y40708D01*
X165247Y40695D01*
X165253Y40689D01*
X165354Y40614D01*
X165454Y40551D01*
X165561Y40494D01*
X165674Y40444D01*
X165781Y40400D01*
X165894Y40369D01*
X166101Y40318D01*
X166195Y40300D01*
X166283Y40287D01*
X166365Y40275D01*
X166434Y40268D01*
X166491Y40262D01*
X164657D01*
D01*
X168557D01*
Y42309D01*
X168551Y42466D01*
X168532Y42617D01*
X168507Y42755D01*
X168475Y42893D01*
X168437Y43012D01*
X168394Y43132D01*
X168343Y43239D01*
X168299Y43333D01*
X168249Y43421D01*
X168199Y43496D01*
X168155Y43559D01*
X168117Y43609D01*
X168086Y43653D01*
X168061Y43685D01*
X168042Y43703D01*
X168035Y43710D01*
X167935Y43804D01*
X167834Y43885D01*
X167728Y43961D01*
X167621Y44024D01*
X167514Y44074D01*
X167414Y44118D01*
X167313Y44155D01*
X167213Y44181D01*
X167125Y44206D01*
X167043Y44218D01*
X166968Y44231D01*
X166905Y44243D01*
X166849D01*
X166811Y44250D01*
X166779D01*
X166635Y44243D01*
X166497Y44218D01*
X166371Y44193D01*
X166252Y44155D01*
X166158Y44124D01*
X166120Y44105D01*
X166082Y44093D01*
X166057Y44080D01*
X166038Y44068D01*
X166026Y44061D01*
X166020D01*
X166195Y45047D01*
X168299D01*
Y46090D01*
D02*
G37*
G36*
X89491Y44570D02*
X88380D01*
Y42793D01*
Y42630D01*
X88374Y42485D01*
Y42353D01*
X88367Y42240D01*
X88361Y42133D01*
X88355Y42039D01*
X88342Y41958D01*
X88336Y41888D01*
X88330Y41832D01*
X88317Y41782D01*
X88311Y41744D01*
X88305Y41713D01*
X88298Y41688D01*
Y41675D01*
X88292Y41662D01*
X88254Y41581D01*
X88210Y41505D01*
X88160Y41436D01*
X88110Y41380D01*
X88060Y41336D01*
X88022Y41304D01*
X87997Y41279D01*
X87984Y41273D01*
X87903Y41223D01*
X87815Y41185D01*
X87727Y41160D01*
X87651Y41141D01*
X87582Y41129D01*
X87532Y41122D01*
X87482D01*
X87394Y41129D01*
X87312Y41141D01*
X87243Y41160D01*
X87181Y41179D01*
X87130Y41198D01*
X87099Y41216D01*
X87074Y41229D01*
X87067Y41235D01*
X87011Y41285D01*
X86967Y41336D01*
X86929Y41386D01*
X86898Y41436D01*
X86879Y41480D01*
X86860Y41518D01*
X86854Y41543D01*
X86848Y41549D01*
X86835Y41593D01*
X86829Y41656D01*
X86822Y41725D01*
X86816Y41807D01*
X86810Y41888D01*
X86804Y41983D01*
X86797Y42171D01*
Y42259D01*
Y42347D01*
X86791Y42422D01*
Y42498D01*
Y42554D01*
Y42598D01*
Y42623D01*
Y42636D01*
Y44570D01*
X85680D01*
Y40275D01*
X89491D01*
Y44570D01*
D02*
G37*
G36*
X188672Y46165D02*
X184696D01*
Y40369D01*
X185864D01*
Y42830D01*
X188288D01*
Y43810D01*
X185864D01*
Y45185D01*
X188672D01*
Y40645D01*
Y46165D01*
D02*
G37*
G36*
X173223D02*
X169342D01*
Y40369D01*
X170453D01*
Y41713D01*
X170968Y42253D01*
X172023Y40369D01*
X171999D01*
X173223D01*
X171684Y43031D01*
X173122Y44570D01*
X171753D01*
X170453Y43088D01*
Y46165D01*
X173223D01*
D02*
G37*
G36*
X163891Y46184D02*
X162132D01*
D01*
X162051D01*
X161906Y46178D01*
X161768Y46165D01*
X161636Y46146D01*
X161517Y46121D01*
X161398Y46090D01*
X161291Y46058D01*
X161197Y46021D01*
X161102Y45983D01*
X161021Y45945D01*
X160952Y45908D01*
X160889Y45876D01*
X160839Y45845D01*
X160801Y45820D01*
X160769Y45801D01*
X160751Y45788D01*
X160744Y45782D01*
X160650Y45700D01*
X160569Y45612D01*
X160493Y45512D01*
X160430Y45405D01*
X160374Y45298D01*
X160324Y45185D01*
X160280Y45079D01*
X160242Y44972D01*
X160211Y44871D01*
X160186Y44777D01*
X160167Y44689D01*
X160154Y44614D01*
X160142Y44551D01*
X160135Y44501D01*
X160129Y44476D01*
Y44463D01*
X161234Y44357D01*
X161240Y44444D01*
X161253Y44526D01*
X161284Y44671D01*
X161322Y44790D01*
X161360Y44884D01*
X161404Y44959D01*
X161435Y45010D01*
X161460Y45035D01*
X161467Y45047D01*
X161548Y45116D01*
X161643Y45173D01*
X161737Y45211D01*
X161825Y45236D01*
X161906Y45248D01*
X161969Y45261D01*
X162025D01*
X162151Y45254D01*
X162258Y45229D01*
X162352Y45198D01*
X162434Y45160D01*
X162496Y45123D01*
X162540Y45091D01*
X162572Y45066D01*
X162578Y45060D01*
X162647Y44978D01*
X162698Y44884D01*
X162729Y44790D01*
X162754Y44702D01*
X162767Y44614D01*
X162779Y44551D01*
Y44526D01*
Y44507D01*
Y44495D01*
Y44488D01*
X162767Y44363D01*
X162741Y44237D01*
X162704Y44124D01*
X162666Y44024D01*
X162622Y43936D01*
X162584Y43867D01*
X162566Y43841D01*
X162559Y43823D01*
X162547Y43816D01*
Y43810D01*
X162509Y43760D01*
X162459Y43697D01*
X162396Y43628D01*
X162333Y43559D01*
X162182Y43402D01*
X162019Y43245D01*
X161944Y43170D01*
X161869Y43094D01*
X161806Y43031D01*
X161743Y42975D01*
X161693Y42931D01*
X161655Y42893D01*
X161630Y42868D01*
X161624Y42862D01*
X161454Y42705D01*
X161303Y42554D01*
X161159Y42410D01*
X161033Y42278D01*
X160920Y42158D01*
X160820Y42039D01*
X160726Y41939D01*
X160650Y41844D01*
X160581Y41756D01*
X160525Y41688D01*
X160474Y41618D01*
X160437Y41568D01*
X160412Y41530D01*
X160386Y41499D01*
X160380Y41480D01*
X160374Y41474D01*
X160267Y41279D01*
X160186Y41085D01*
X160116Y40896D01*
X160066Y40727D01*
X160047Y40651D01*
X160035Y40582D01*
X160022Y40519D01*
X160010Y40469D01*
X160003Y40425D01*
Y40394D01*
X159997Y40375D01*
Y40369D01*
X163891D01*
Y41518D01*
Y41399D01*
X161680D01*
X161756Y41505D01*
X161793Y41556D01*
X161825Y41606D01*
X161856Y41644D01*
X161881Y41675D01*
X161900Y41694D01*
X161906Y41700D01*
X161938Y41731D01*
X161975Y41775D01*
X162019Y41819D01*
X162069Y41870D01*
X162176Y41976D01*
X162289Y42083D01*
X162396Y42184D01*
X162446Y42228D01*
X162490Y42265D01*
X162522Y42297D01*
X162547Y42322D01*
X162566Y42334D01*
X162572Y42341D01*
X162666Y42428D01*
X162754Y42510D01*
X162836Y42592D01*
X162911Y42661D01*
X162974Y42730D01*
X163037Y42786D01*
X163087Y42843D01*
X163137Y42893D01*
X163206Y42975D01*
X163263Y43031D01*
X163288Y43069D01*
X163300Y43082D01*
X163407Y43226D01*
X163501Y43364D01*
X163577Y43490D01*
X163639Y43597D01*
X163683Y43691D01*
X163702Y43729D01*
X163721Y43760D01*
X163734Y43785D01*
X163740Y43810D01*
X163746Y43816D01*
Y43823D01*
X163796Y43955D01*
X163828Y44086D01*
X163853Y44212D01*
X163872Y44331D01*
X163884Y44425D01*
Y44469D01*
X163891Y44501D01*
Y44570D01*
X163884Y44696D01*
X163872Y44815D01*
X163847Y44928D01*
X163815Y45041D01*
X163778Y45142D01*
X163734Y45236D01*
X163690Y45324D01*
X163646Y45399D01*
X163595Y45474D01*
X163552Y45537D01*
X163508Y45594D01*
X163470Y45638D01*
X163438Y45669D01*
X163413Y45700D01*
X163401Y45713D01*
X163395Y45719D01*
X163300Y45801D01*
X163194Y45870D01*
X163087Y45933D01*
X162980Y45989D01*
X162867Y46033D01*
X162754Y46071D01*
X162647Y46102D01*
X162540Y46127D01*
X162440Y46146D01*
X162346Y46159D01*
X162264Y46171D01*
X162195Y46178D01*
X162132Y46184D01*
X163891D01*
D02*
G37*
G36*
X159834Y40369D02*
X155218Y40369D01*
D01*
X159834Y40369D01*
D02*
G37*
G36*
X132089Y40369D02*
X131082D01*
X132089D01*
D01*
D02*
G37*
G36*
X128654Y46165D02*
X127542D01*
Y40369D01*
X128654D01*
Y46165D01*
D02*
G37*
G36*
X98654Y40369D02*
X94038D01*
D01*
X98654D01*
D02*
G37*
G36*
X184144Y40275D02*
Y39489D01*
X179528D01*
Y38767D01*
X184144D01*
Y40275D01*
D02*
G37*
G36*
X159834Y39489D02*
D01*
X155218Y39489D01*
Y38767D01*
X159834Y38767D01*
Y39489D01*
D02*
G37*
G36*
X115754Y40275D02*
Y39489D01*
X111139D01*
Y38767D01*
X115754D01*
Y40275D01*
D02*
G37*
G36*
X98654Y39489D02*
X94038D01*
Y38767D01*
X98654D01*
Y39489D01*
D02*
G37*
G36*
X138833Y36088D02*
X138789D01*
X138639Y36082D01*
X138488Y36063D01*
X138350Y36032D01*
X138224Y35994D01*
X138099Y35950D01*
X137986Y35900D01*
X137879Y35843D01*
X137785Y35793D01*
X137703Y35737D01*
X137628Y35680D01*
X137559Y35630D01*
X137508Y35586D01*
X137464Y35548D01*
X137433Y35517D01*
X137414Y35498D01*
X137408Y35492D01*
X137314Y35379D01*
X137232Y35253D01*
X137157Y35121D01*
X137094Y34989D01*
X137044Y34851D01*
X137000Y34713D01*
X136962Y34581D01*
X136937Y34455D01*
X136912Y34330D01*
X136899Y34223D01*
X136887Y34116D01*
X136874Y34028D01*
Y33959D01*
X136868Y33903D01*
Y33915D01*
Y33859D01*
X136874Y33702D01*
X136887Y33545D01*
X136906Y33400D01*
X136931Y33262D01*
X136962Y33137D01*
X137000Y33017D01*
X137037Y32904D01*
X137075Y32804D01*
X137113Y32716D01*
X137151Y32634D01*
X137188Y32571D01*
X137220Y32515D01*
X137245Y32465D01*
X137264Y32433D01*
X137276Y32414D01*
X137282Y32408D01*
X137389Y32283D01*
X137502Y32176D01*
X137628Y32082D01*
X137753Y32000D01*
X137891Y31931D01*
X138023Y31874D01*
X138155Y31824D01*
X138287Y31786D01*
X138413Y31755D01*
X138526Y31736D01*
X138633Y31717D01*
X138721Y31711D01*
X138796Y31705D01*
X138852Y31699D01*
X136868D01*
X140787D01*
Y32622D01*
Y31699D01*
X138903D01*
X139028Y31705D01*
X139147Y31711D01*
X139267Y31730D01*
X139374Y31749D01*
X139474Y31774D01*
X139568Y31799D01*
X139656Y31824D01*
X139738Y31855D01*
X139807Y31887D01*
X139870Y31912D01*
X139926Y31937D01*
X139970Y31962D01*
X140008Y31981D01*
X140033Y32000D01*
X140045Y32006D01*
X140052Y32013D01*
X140133Y32075D01*
X140215Y32144D01*
X140353Y32295D01*
X140473Y32446D01*
X140567Y32596D01*
X140604Y32666D01*
X140636Y32735D01*
X140667Y32791D01*
X140692Y32841D01*
X140705Y32885D01*
X140717Y32917D01*
X140730Y32936D01*
Y32942D01*
X139625Y33130D01*
X139587Y33017D01*
X139543Y32923D01*
X139499Y32841D01*
X139449Y32779D01*
X139411Y32728D01*
X139380Y32691D01*
X139355Y32672D01*
X139348Y32666D01*
X139279Y32622D01*
X139204Y32584D01*
X139135Y32559D01*
X139066Y32546D01*
X139003Y32534D01*
X138959Y32527D01*
X138915D01*
X138846Y32534D01*
X138777Y32540D01*
X138651Y32571D01*
X138538Y32615D01*
X138444Y32666D01*
X138369Y32710D01*
X138312Y32754D01*
X138281Y32785D01*
X138275Y32798D01*
X138268D01*
X138180Y32910D01*
X138118Y33036D01*
X138074Y33168D01*
X138042Y33294D01*
X138023Y33400D01*
X138017Y33451D01*
X138011Y33495D01*
X138005Y33526D01*
Y33557D01*
Y33570D01*
Y33576D01*
X140787D01*
Y32622D01*
Y33576D01*
Y33809D01*
X140768Y34022D01*
X140743Y34223D01*
X140711Y34411D01*
X140673Y34581D01*
X140630Y34732D01*
X140586Y34876D01*
X140535Y35002D01*
X140485Y35109D01*
X140435Y35203D01*
X140391Y35284D01*
X140347Y35353D01*
X140316Y35404D01*
X140290Y35435D01*
X140272Y35460D01*
X140265Y35467D01*
X140159Y35573D01*
X140045Y35674D01*
X139926Y35755D01*
X139807Y35824D01*
X139681Y35887D01*
X139562Y35938D01*
X139443Y35975D01*
X139323Y36013D01*
X139217Y36038D01*
X139116Y36057D01*
X139022Y36069D01*
X138946Y36076D01*
X138877Y36082D01*
X138833Y36088D01*
D02*
G37*
G36*
X145509Y35994D02*
X144366D01*
X143569Y33846D01*
X143525Y33714D01*
X143506Y33658D01*
X143487Y33601D01*
X143468Y33557D01*
X143462Y33520D01*
X143449Y33495D01*
Y33488D01*
X143437Y33451D01*
X143424Y33400D01*
X143405Y33338D01*
X143386Y33281D01*
X143368Y33224D01*
X143349Y33174D01*
X143342Y33143D01*
X143336Y33137D01*
Y33130D01*
X143110Y33846D01*
X142319Y35994D01*
X142802D01*
X141151D01*
X142840Y31793D01*
X141151D01*
X145509D01*
X143839D01*
X145509Y35994D01*
D02*
G37*
G36*
X152329Y37608D02*
X152292D01*
X152116Y37602D01*
X151952Y37583D01*
X151802Y37551D01*
X151676Y37520D01*
X151620Y37501D01*
X151569Y37482D01*
X151525Y37470D01*
X151488Y37457D01*
X151456Y37445D01*
X151437Y37432D01*
X151425Y37426D01*
X151419D01*
X151280Y37350D01*
X151161Y37269D01*
X151061Y37187D01*
X150979Y37106D01*
X150910Y37036D01*
X150860Y36974D01*
X150835Y36936D01*
X150822Y36930D01*
Y36924D01*
X150747Y36798D01*
X150684Y36660D01*
X150627Y36522D01*
X150583Y36383D01*
X150546Y36264D01*
X150533Y36214D01*
X150521Y36170D01*
X150514Y36132D01*
X150508Y36107D01*
X150502Y36088D01*
Y36082D01*
X151525Y35912D01*
X151550Y36044D01*
X151582Y36164D01*
X151620Y36258D01*
X151663Y36339D01*
X151707Y36402D01*
X151739Y36446D01*
X151764Y36478D01*
X151770Y36484D01*
X151852Y36553D01*
X151934Y36603D01*
X152015Y36635D01*
X152091Y36660D01*
X152160Y36672D01*
X152210Y36685D01*
X152260D01*
X152367Y36678D01*
X152461Y36660D01*
X152536Y36628D01*
X152605Y36597D01*
X152662Y36566D01*
X152700Y36534D01*
X152725Y36515D01*
X152731Y36509D01*
X152788Y36440D01*
X152832Y36364D01*
X152863Y36283D01*
X152888Y36214D01*
X152901Y36145D01*
X152907Y36094D01*
Y36057D01*
Y36051D01*
Y36044D01*
X152894Y35919D01*
X152869Y35812D01*
X152832Y35718D01*
X152788Y35636D01*
X152737Y35573D01*
X152700Y35529D01*
X152675Y35504D01*
X152662Y35492D01*
X152562Y35429D01*
X152455Y35379D01*
X152342Y35341D01*
X152229Y35322D01*
X152128Y35309D01*
X152084D01*
X152047Y35303D01*
X151971D01*
X151852Y34399D01*
X151959Y34430D01*
X152059Y34449D01*
X152141Y34468D01*
X152216Y34474D01*
X152279Y34481D01*
X152323Y34487D01*
X152361D01*
X152480Y34474D01*
X152587Y34449D01*
X152681Y34405D01*
X152762Y34361D01*
X152825Y34317D01*
X152876Y34273D01*
X152901Y34248D01*
X152913Y34236D01*
X152989Y34135D01*
X153045Y34028D01*
X153083Y33915D01*
X153114Y33809D01*
X153127Y33714D01*
X153133Y33677D01*
Y33639D01*
X153139Y33608D01*
Y33589D01*
Y33576D01*
Y33570D01*
X153127Y33413D01*
X153102Y33275D01*
X153064Y33156D01*
X153020Y33055D01*
X152976Y32973D01*
X152938Y32917D01*
X152913Y32879D01*
X152901Y32867D01*
X152806Y32779D01*
X152706Y32716D01*
X152612Y32672D01*
X152518Y32640D01*
X152436Y32622D01*
X152373Y32615D01*
X152348Y32609D01*
X152317D01*
X152204Y32615D01*
X152097Y32640D01*
X152003Y32678D01*
X151921Y32716D01*
X151858Y32754D01*
X151808Y32791D01*
X151783Y32816D01*
X151770Y32823D01*
X151695Y32910D01*
X151632Y33017D01*
X151582Y33118D01*
X151550Y33224D01*
X151519Y33312D01*
X151506Y33388D01*
X151500Y33419D01*
X151494Y33438D01*
Y33451D01*
Y33457D01*
X150420Y33325D01*
X150439Y33193D01*
X150470Y33061D01*
X150508Y32942D01*
X150546Y32829D01*
X150596Y32722D01*
X150646Y32628D01*
X150696Y32540D01*
X150747Y32458D01*
X150803Y32383D01*
X150847Y32320D01*
X150897Y32264D01*
X150935Y32220D01*
X150967Y32182D01*
X150992Y32157D01*
X151010Y32144D01*
X151017Y32138D01*
X151117Y32056D01*
X151224Y31987D01*
X151331Y31931D01*
X151444Y31874D01*
X151550Y31830D01*
X151657Y31799D01*
X151764Y31768D01*
X151865Y31743D01*
X151959Y31724D01*
X152047Y31711D01*
X152128Y31699D01*
X152191Y31692D01*
X152248D01*
X152285Y31686D01*
X154276D01*
X152323D01*
X152474Y31692D01*
X152624Y31711D01*
X152762Y31736D01*
X152894Y31768D01*
X153014Y31811D01*
X153133Y31855D01*
X153240Y31906D01*
X153334Y31956D01*
X153422Y32000D01*
X153497Y32050D01*
X153560Y32094D01*
X153617Y32138D01*
X153661Y32169D01*
X153692Y32195D01*
X153711Y32214D01*
X153717Y32220D01*
X153818Y32326D01*
X153899Y32433D01*
X153975Y32540D01*
X154037Y32653D01*
X154094Y32760D01*
X154138Y32867D01*
X154175Y32973D01*
X154207Y33074D01*
X154232Y33168D01*
X154245Y33250D01*
X154257Y33325D01*
X154270Y33394D01*
Y33444D01*
X154276Y33488D01*
Y33520D01*
X154270Y33614D01*
X154263Y33708D01*
X154232Y33884D01*
X154182Y34035D01*
X154125Y34166D01*
X154100Y34223D01*
X154069Y34273D01*
X154044Y34317D01*
X154025Y34355D01*
X154000Y34380D01*
X153987Y34399D01*
X153981Y34411D01*
X153975Y34418D01*
X153918Y34487D01*
X153855Y34550D01*
X153730Y34650D01*
X153598Y34738D01*
X153466Y34801D01*
X153359Y34845D01*
X153309Y34864D01*
X153265Y34876D01*
X153234Y34889D01*
X153208Y34895D01*
X153190Y34901D01*
X153183D01*
X153328Y34989D01*
X153460Y35083D01*
X153573Y35184D01*
X153667Y35284D01*
X153749Y35385D01*
X153818Y35485D01*
X153868Y35586D01*
X153912Y35680D01*
X153949Y35768D01*
X153975Y35856D01*
X153993Y35931D01*
X154006Y35994D01*
X154012Y36044D01*
X154018Y36088D01*
Y36113D01*
Y36120D01*
X154012Y36220D01*
X154000Y36314D01*
X153981Y36408D01*
X153956Y36496D01*
X153887Y36660D01*
X153811Y36798D01*
X153774Y36861D01*
X153736Y36917D01*
X153698Y36967D01*
X153667Y37005D01*
X153642Y37036D01*
X153623Y37062D01*
X153610Y37074D01*
X153604Y37080D01*
X153510Y37175D01*
X153409Y37256D01*
X153303Y37325D01*
X153190Y37388D01*
X153083Y37438D01*
X152976Y37482D01*
X152869Y37514D01*
X152762Y37545D01*
X152668Y37564D01*
X152580Y37583D01*
X152499Y37589D01*
X152430Y37602D01*
X152373D01*
X152329Y37608D01*
D02*
G37*
G36*
X133967Y37589D02*
X131354D01*
Y31793D01*
X136566D01*
D01*
X135857Y32917D01*
X135781Y33042D01*
X135706Y33149D01*
X135637Y33256D01*
X135574Y33350D01*
X135518Y33438D01*
X135461Y33513D01*
X135411Y33582D01*
X135367Y33645D01*
X135329Y33696D01*
X135292Y33740D01*
X135260Y33777D01*
X135235Y33809D01*
X135216Y33827D01*
X135204Y33846D01*
X135191Y33859D01*
X135097Y33953D01*
X134990Y34047D01*
X134883Y34129D01*
X134783Y34198D01*
X134695Y34261D01*
X134626Y34305D01*
X134601Y34323D01*
X134582Y34330D01*
X134569Y34342D01*
X134563D01*
X134701Y34367D01*
X134833Y34399D01*
X134952Y34437D01*
X135065Y34474D01*
X135172Y34518D01*
X135266Y34562D01*
X135348Y34606D01*
X135424Y34656D01*
X135493Y34700D01*
X135549Y34744D01*
X135599Y34782D01*
X135643Y34813D01*
X135675Y34845D01*
X135694Y34864D01*
X135706Y34876D01*
X135712Y34883D01*
X135781Y34964D01*
X135838Y35052D01*
X135888Y35140D01*
X135932Y35234D01*
X135970Y35322D01*
X136001Y35410D01*
X136045Y35586D01*
X136064Y35661D01*
X136077Y35737D01*
X136083Y35799D01*
X136089Y35856D01*
X136095Y35900D01*
Y35931D01*
Y35956D01*
Y35963D01*
X136083Y36151D01*
X136058Y36321D01*
X136014Y36478D01*
X135970Y36609D01*
X135945Y36666D01*
X135920Y36722D01*
X135901Y36766D01*
X135876Y36804D01*
X135863Y36836D01*
X135851Y36854D01*
X135838Y36867D01*
Y36873D01*
X135737Y37011D01*
X135624Y37131D01*
X135518Y37225D01*
X135411Y37306D01*
X135310Y37363D01*
X135273Y37382D01*
X135235Y37401D01*
X135204Y37413D01*
X135185Y37426D01*
X135172Y37432D01*
X135166D01*
X135084Y37457D01*
X134990Y37482D01*
X134883Y37508D01*
X134777Y37520D01*
X134557Y37551D01*
X134331Y37570D01*
X134230Y37577D01*
X134130Y37583D01*
X134042D01*
X133967Y37589D01*
D02*
G37*
G36*
X149717Y37608D02*
X145955D01*
D01*
X147833D01*
X147682Y37602D01*
X147538Y37583D01*
X147399Y37551D01*
X147274Y37514D01*
X147154Y37470D01*
X147048Y37420D01*
X146947Y37363D01*
X146859Y37313D01*
X146784Y37256D01*
X146715Y37200D01*
X146658Y37150D01*
X146608Y37106D01*
X146571Y37068D01*
X146545Y37036D01*
X146527Y37018D01*
X146520Y37011D01*
X146420Y36867D01*
X146332Y36704D01*
X146256Y36528D01*
X146194Y36339D01*
X146137Y36145D01*
X146093Y35950D01*
X146055Y35755D01*
X146024Y35561D01*
X146005Y35379D01*
X145986Y35209D01*
X145974Y35058D01*
X145961Y34920D01*
Y34864D01*
Y34813D01*
X145955Y34769D01*
Y31686D01*
Y34656D01*
X145961Y34355D01*
X145980Y34079D01*
X146005Y33821D01*
X146037Y33589D01*
X146074Y33375D01*
X146118Y33187D01*
X146162Y33017D01*
X146212Y32867D01*
X146263Y32741D01*
X146307Y32628D01*
X146351Y32534D01*
X146388Y32458D01*
X146420Y32402D01*
X146451Y32364D01*
X146464Y32339D01*
X146470Y32333D01*
X146571Y32220D01*
X146677Y32119D01*
X146790Y32031D01*
X146903Y31956D01*
X147016Y31899D01*
X147129Y31843D01*
X147236Y31799D01*
X147343Y31768D01*
X147443Y31743D01*
X147538Y31717D01*
X147619Y31705D01*
X147695Y31699D01*
X147751Y31692D01*
X147795Y31686D01*
X147833D01*
X147983Y31692D01*
X148128Y31711D01*
X148266Y31743D01*
X148392Y31780D01*
X148511Y31824D01*
X148618Y31874D01*
X148718Y31925D01*
X148806Y31981D01*
X148881Y32038D01*
X148951Y32088D01*
X149013Y32138D01*
X149057Y32182D01*
X149095Y32220D01*
X149126Y32251D01*
X149139Y32270D01*
X149145Y32276D01*
X149246Y32421D01*
X149334Y32584D01*
X149409Y32766D01*
X149478Y32948D01*
X149528Y33143D01*
X149579Y33344D01*
X149616Y33538D01*
X149648Y33733D01*
X149667Y33915D01*
X149685Y34085D01*
X149698Y34242D01*
X149710Y34374D01*
Y34437D01*
Y34487D01*
X149717Y34531D01*
Y34644D01*
X149710Y34939D01*
X149692Y35215D01*
X149667Y35473D01*
X149629Y35705D01*
X149585Y35919D01*
X149541Y36113D01*
X149484Y36289D01*
X149434Y36440D01*
X149384Y36578D01*
X149334Y36691D01*
X149283Y36792D01*
X149240Y36867D01*
X149202Y36930D01*
X149177Y36974D01*
X149158Y36999D01*
X149152Y37005D01*
X149057Y37112D01*
X148957Y37206D01*
X148850Y37288D01*
X148743Y37357D01*
X148637Y37413D01*
X148523Y37464D01*
X148417Y37501D01*
X148316Y37533D01*
X148216Y37558D01*
X148122Y37577D01*
X148040Y37589D01*
X147971Y37602D01*
X147914D01*
X147870Y37608D01*
X149717D01*
D02*
G37*
G36*
X131712Y30527D02*
X131605D01*
X131360Y30520D01*
X131254Y30508D01*
X131140Y30495D01*
X131040Y30476D01*
X130946Y30464D01*
X130864Y30445D01*
X130782Y30426D01*
X130707Y30401D01*
X130644Y30382D01*
X130594Y30370D01*
X130544Y30351D01*
X130512Y30338D01*
X130481Y30326D01*
X130468Y30319D01*
X130462D01*
X130299Y30238D01*
X130148Y30144D01*
X130029Y30049D01*
X129922Y29955D01*
X129847Y29867D01*
X129784Y29798D01*
X129765Y29773D01*
X129753Y29754D01*
X129740Y29742D01*
Y29735D01*
X129658Y29591D01*
X129596Y29447D01*
X129552Y29302D01*
X129520Y29176D01*
X129501Y29070D01*
X129495Y29019D01*
Y28982D01*
X129489Y28950D01*
Y28925D01*
Y28913D01*
Y28906D01*
X129495Y28781D01*
X129514Y28662D01*
X129539Y28542D01*
X129570Y28435D01*
X129614Y28335D01*
X129658Y28234D01*
X129709Y28146D01*
X129759Y28065D01*
X129803Y27990D01*
X129853Y27927D01*
X129897Y27870D01*
X129941Y27826D01*
X129972Y27789D01*
X129998Y27763D01*
X130016Y27745D01*
X130023Y27738D01*
X130098Y27676D01*
X130186Y27619D01*
X130286Y27562D01*
X130387Y27506D01*
X130607Y27412D01*
X130826Y27324D01*
X130927Y27292D01*
X131021Y27261D01*
X131109Y27230D01*
X131191Y27211D01*
X131254Y27192D01*
X131298Y27179D01*
X131329Y27167D01*
X131342D01*
X131473Y27135D01*
X131593Y27104D01*
X131699Y27079D01*
X131794Y27054D01*
X131881Y27029D01*
X131957Y27010D01*
X132026Y26991D01*
X132082Y26972D01*
X132133Y26960D01*
X132170Y26947D01*
X132208Y26934D01*
X132233Y26928D01*
X132252Y26922D01*
X132265D01*
X132277Y26916D01*
X132384Y26872D01*
X132472Y26834D01*
X132541Y26790D01*
X132604Y26752D01*
X132641Y26715D01*
X132673Y26690D01*
X132692Y26671D01*
X132698Y26664D01*
X132742Y26608D01*
X132773Y26551D01*
X132792Y26489D01*
X132811Y26432D01*
X132817Y26388D01*
X132824Y26350D01*
Y26319D01*
Y26313D01*
Y26256D01*
X132811Y26200D01*
X132780Y26093D01*
X132729Y25993D01*
X132679Y25911D01*
X132629Y25848D01*
X132579Y25798D01*
X132547Y25766D01*
X132541Y25754D01*
X132535D01*
X132478Y25710D01*
X132415Y25672D01*
X132277Y25616D01*
X132133Y25572D01*
X131995Y25547D01*
X131869Y25528D01*
X131819Y25521D01*
X131769D01*
X131731Y25515D01*
X131674D01*
X131486Y25528D01*
X131316Y25559D01*
X131172Y25597D01*
X131046Y25647D01*
X130996Y25672D01*
X130952Y25697D01*
X130908Y25716D01*
X130877Y25735D01*
X130852Y25754D01*
X130833Y25766D01*
X130826Y25779D01*
X130820D01*
X130764Y25835D01*
X130713Y25892D01*
X130625Y26024D01*
X130550Y26168D01*
X130494Y26307D01*
X130456Y26432D01*
X130437Y26482D01*
X130425Y26533D01*
X130418Y26570D01*
X130412Y26602D01*
X130406Y26621D01*
Y26627D01*
X129269Y26514D01*
X129294Y26338D01*
X129332Y26168D01*
X129376Y26018D01*
X129426Y25873D01*
X129483Y25741D01*
X129539Y25616D01*
X129602Y25509D01*
X129665Y25408D01*
X129721Y25321D01*
X129778Y25245D01*
X129834Y25182D01*
X129878Y25126D01*
X129916Y25088D01*
X129947Y25057D01*
X129966Y25038D01*
X129972Y25032D01*
X130092Y24944D01*
X130217Y24868D01*
X130349Y24799D01*
X130487Y24743D01*
X130625Y24692D01*
X130764Y24655D01*
X130902Y24617D01*
X131040Y24592D01*
X131166Y24573D01*
X131285Y24554D01*
X131392Y24542D01*
X131480Y24535D01*
X131555D01*
X131612Y24529D01*
X129269D01*
X133992D01*
D01*
X131800D01*
X131932Y24535D01*
X132064Y24548D01*
X132177Y24561D01*
X132290Y24579D01*
X132396Y24592D01*
X132491Y24611D01*
X132579Y24636D01*
X132654Y24655D01*
X132723Y24674D01*
X132786Y24686D01*
X132836Y24705D01*
X132874Y24718D01*
X132899Y24730D01*
X132918Y24736D01*
X132924D01*
X133106Y24824D01*
X133263Y24925D01*
X133395Y25038D01*
X133508Y25138D01*
X133596Y25233D01*
X133627Y25277D01*
X133659Y25314D01*
X133678Y25339D01*
X133696Y25365D01*
X133709Y25377D01*
Y25383D01*
X133759Y25465D01*
X133803Y25553D01*
X133872Y25716D01*
X133923Y25873D01*
X133954Y26018D01*
X133967Y26080D01*
X133979Y26137D01*
X133985Y26193D01*
Y26237D01*
X133992Y26269D01*
Y26319D01*
X133979Y26514D01*
X133954Y26696D01*
X133916Y26853D01*
X133897Y26922D01*
X133879Y26985D01*
X133853Y27041D01*
X133835Y27092D01*
X133816Y27135D01*
X133797Y27173D01*
X133778Y27204D01*
X133772Y27223D01*
X133759Y27236D01*
Y27242D01*
X133665Y27374D01*
X133558Y27493D01*
X133451Y27594D01*
X133351Y27682D01*
X133257Y27745D01*
X133182Y27795D01*
X133150Y27807D01*
X133131Y27820D01*
X133119Y27832D01*
X133112D01*
X133031Y27870D01*
X132943Y27914D01*
X132842Y27952D01*
X132742Y27990D01*
X132535Y28059D01*
X132327Y28121D01*
X132233Y28146D01*
X132139Y28172D01*
X132064Y28197D01*
X131988Y28216D01*
X131932Y28228D01*
X131888Y28241D01*
X131863Y28247D01*
X131850D01*
X131699Y28285D01*
X131561Y28322D01*
X131436Y28360D01*
X131323Y28398D01*
X131222Y28429D01*
X131134Y28460D01*
X131059Y28492D01*
X130996Y28517D01*
X130939Y28542D01*
X130889Y28567D01*
X130852Y28586D01*
X130826Y28605D01*
X130801Y28618D01*
X130789Y28630D01*
X130776Y28636D01*
X130720Y28693D01*
X130676Y28749D01*
X130651Y28812D01*
X130625Y28869D01*
X130613Y28913D01*
X130607Y28957D01*
Y28982D01*
Y28988D01*
X130613Y29070D01*
X130638Y29139D01*
X130663Y29202D01*
X130701Y29252D01*
X130732Y29289D01*
X130764Y29321D01*
X130782Y29340D01*
X130789Y29346D01*
X130908Y29415D01*
X131034Y29472D01*
X131172Y29509D01*
X131298Y29534D01*
X131417Y29547D01*
X131467Y29553D01*
X131511Y29559D01*
X131593D01*
X131769Y29553D01*
X131919Y29528D01*
X132045Y29497D01*
X132152Y29459D01*
X132233Y29421D01*
X132290Y29390D01*
X132321Y29365D01*
X132334Y29359D01*
X132422Y29277D01*
X132491Y29176D01*
X132547Y29070D01*
X132591Y28969D01*
X132623Y28875D01*
X132635Y28831D01*
X132648Y28793D01*
X132654Y28768D01*
Y28743D01*
X132660Y28731D01*
Y28724D01*
X133828Y28768D01*
X133816Y28913D01*
X133797Y29051D01*
X133765Y29183D01*
X133722Y29302D01*
X133678Y29415D01*
X133627Y29522D01*
X133577Y29616D01*
X133527Y29704D01*
X133470Y29779D01*
X133420Y29848D01*
X133376Y29911D01*
X133332Y29955D01*
X133294Y29993D01*
X133269Y30024D01*
X133251Y30037D01*
X133244Y30043D01*
X133138Y30131D01*
X133018Y30200D01*
X132886Y30269D01*
X132754Y30326D01*
X132623Y30370D01*
X132484Y30407D01*
X132346Y30439D01*
X132221Y30464D01*
X132095Y30489D01*
X131976Y30501D01*
X131875Y30514D01*
X131781Y30520D01*
X131712Y30527D01*
D02*
G37*
G36*
X152040Y28931D02*
X149321D01*
X151306D01*
X151205Y28925D01*
X151117Y28913D01*
X151035Y28888D01*
X150960Y28862D01*
X150904Y28837D01*
X150860Y28812D01*
X150835Y28800D01*
X150822Y28793D01*
X150784Y28768D01*
X150740Y28731D01*
X150659Y28649D01*
X150583Y28561D01*
X150508Y28467D01*
X150445Y28379D01*
X150395Y28304D01*
X150376Y28272D01*
X150364Y28253D01*
X150357Y28241D01*
X150351Y28234D01*
Y28837D01*
X149321D01*
Y24636D01*
X150433D01*
Y25930D01*
Y26124D01*
X150439Y26300D01*
Y26457D01*
X150445Y26602D01*
X150452Y26733D01*
X150458Y26847D01*
X150470Y26947D01*
X150477Y27035D01*
X150483Y27110D01*
X150496Y27173D01*
X150502Y27230D01*
X150508Y27267D01*
X150514Y27299D01*
Y27318D01*
X150521Y27330D01*
Y27336D01*
X150558Y27456D01*
X150602Y27550D01*
X150646Y27632D01*
X150684Y27694D01*
X150722Y27745D01*
X150753Y27776D01*
X150772Y27795D01*
X150778Y27801D01*
X150841Y27845D01*
X150910Y27876D01*
X150973Y27902D01*
X151035Y27914D01*
X151092Y27927D01*
X151136Y27933D01*
X151174D01*
X151268Y27927D01*
X151356Y27908D01*
X151444Y27876D01*
X151525Y27845D01*
X151594Y27807D01*
X151645Y27782D01*
X151682Y27757D01*
X151695Y27751D01*
X152040Y28718D01*
X151908Y28787D01*
X151777Y28844D01*
X151651Y28881D01*
X151538Y28906D01*
X151444Y28919D01*
X151406Y28925D01*
X151368Y28931D01*
X152040D01*
D02*
G37*
G36*
X153592Y30432D02*
X152480D01*
Y24636D01*
X156361D01*
D01*
X154822Y27299D01*
X156261Y28837D01*
X154892D01*
X153592Y27355D01*
Y30432D01*
D02*
G37*
G36*
X148517Y28931D02*
X144573D01*
D01*
X146357D01*
X146219Y28919D01*
X146087Y28906D01*
X145968Y28888D01*
X145854Y28862D01*
X145754Y28837D01*
X145666Y28812D01*
X145578Y28787D01*
X145509Y28756D01*
X145446Y28731D01*
X145390Y28705D01*
X145346Y28680D01*
X145315Y28662D01*
X145289Y28649D01*
X145277Y28643D01*
X145271Y28636D01*
X145195Y28580D01*
X145126Y28511D01*
X145007Y28373D01*
X144906Y28222D01*
X144825Y28071D01*
X144762Y27939D01*
X144737Y27883D01*
X144718Y27832D01*
X144705Y27789D01*
X144693Y27757D01*
X144686Y27738D01*
Y27732D01*
X145685Y27550D01*
X145723Y27650D01*
X145767Y27738D01*
X145811Y27814D01*
X145854Y27870D01*
X145892Y27914D01*
X145924Y27939D01*
X145942Y27958D01*
X145949Y27964D01*
X146018Y28002D01*
X146093Y28034D01*
X146175Y28052D01*
X146250Y28071D01*
X146313Y28077D01*
X146370Y28084D01*
X146501D01*
X146577Y28077D01*
X146640Y28071D01*
X146702Y28065D01*
X146809Y28040D01*
X146891Y28015D01*
X146947Y27990D01*
X146991Y27964D01*
X147016Y27952D01*
X147023Y27946D01*
X147079Y27889D01*
X147117Y27814D01*
X147148Y27738D01*
X147167Y27663D01*
X147180Y27594D01*
X147186Y27537D01*
Y27493D01*
Y27487D01*
Y27481D01*
Y27374D01*
X147123Y27349D01*
X147054Y27324D01*
X146972Y27299D01*
X146891Y27274D01*
X146709Y27230D01*
X146533Y27186D01*
X146445Y27167D01*
X146363Y27148D01*
X146288Y27135D01*
X146225Y27123D01*
X146175Y27110D01*
X146131Y27104D01*
X146106Y27098D01*
X146099D01*
X145993Y27079D01*
X145898Y27054D01*
X145804Y27029D01*
X145716Y27010D01*
X145641Y26985D01*
X145566Y26966D01*
X145497Y26941D01*
X145440Y26922D01*
X145390Y26903D01*
X145340Y26891D01*
X145302Y26872D01*
X145271Y26859D01*
X145245Y26847D01*
X145227Y26840D01*
X145220Y26834D01*
X145214D01*
X145107Y26777D01*
X145013Y26708D01*
X144931Y26639D01*
X144869Y26570D01*
X144812Y26507D01*
X144774Y26457D01*
X144749Y26426D01*
X144743Y26419D01*
Y26413D01*
X144686Y26307D01*
X144642Y26200D01*
X144617Y26093D01*
X144592Y25993D01*
X144580Y25905D01*
X144573Y25842D01*
Y25779D01*
X144580Y25679D01*
X144592Y25584D01*
X144605Y25496D01*
X144630Y25415D01*
X144693Y25258D01*
X144724Y25195D01*
X144762Y25132D01*
X144793Y25076D01*
X144825Y25025D01*
X144856Y24988D01*
X144887Y24950D01*
X144913Y24925D01*
X144925Y24906D01*
X144938Y24893D01*
X144944Y24887D01*
X145019Y24824D01*
X145095Y24774D01*
X145176Y24730D01*
X145264Y24686D01*
X145434Y24623D01*
X145597Y24586D01*
X145672Y24573D01*
X145741Y24561D01*
X145804Y24554D01*
X145861Y24548D01*
X145905Y24542D01*
X145968D01*
X146106Y24548D01*
X146231Y24561D01*
X146351Y24586D01*
X146451Y24611D01*
X146539Y24636D01*
X146602Y24661D01*
X146627Y24667D01*
X146646Y24674D01*
X146652Y24680D01*
X146658D01*
X146778Y24736D01*
X146891Y24806D01*
X146997Y24875D01*
X147085Y24937D01*
X147161Y25000D01*
X147217Y25051D01*
X147255Y25082D01*
X147267Y25094D01*
X147274Y25082D01*
X147280Y25063D01*
X147293Y25019D01*
X147299Y24981D01*
X147305Y24969D01*
Y24963D01*
X147330Y24887D01*
X147349Y24818D01*
X147374Y24762D01*
X147387Y24718D01*
X147399Y24680D01*
X147412Y24655D01*
X147418Y24642D01*
Y24636D01*
X148517D01*
X148467Y24743D01*
X148423Y24849D01*
X148385Y24944D01*
X148360Y25025D01*
X148341Y25094D01*
X148329Y25151D01*
X148316Y25182D01*
Y25195D01*
X148310Y25245D01*
X148298Y25308D01*
X148285Y25434D01*
X148279Y25572D01*
X148272Y25704D01*
X148266Y25823D01*
Y25873D01*
Y25923D01*
Y25961D01*
Y25986D01*
Y26005D01*
Y26011D01*
X148285Y27311D01*
Y27443D01*
X148279Y27562D01*
X148272Y27669D01*
X148260Y27770D01*
X148247Y27864D01*
X148235Y27946D01*
X148222Y28015D01*
X148210Y28077D01*
X148197Y28134D01*
X148184Y28178D01*
X148172Y28222D01*
X148159Y28253D01*
X148147Y28272D01*
X148141Y28291D01*
X148134Y28304D01*
X148071Y28398D01*
X147990Y28486D01*
X147908Y28561D01*
X147820Y28630D01*
X147745Y28680D01*
X147676Y28718D01*
X147657Y28731D01*
X147638Y28743D01*
X147626Y28749D01*
X147619D01*
X147544Y28781D01*
X147468Y28812D01*
X147293Y28856D01*
X147110Y28888D01*
X146928Y28906D01*
X146841Y28919D01*
X146765Y28925D01*
X146690D01*
X146633Y28931D01*
X148517D01*
D01*
D02*
G37*
G36*
X141609Y30432D02*
X139474D01*
Y24636D01*
X143914D01*
Y28643D01*
X143908Y28768D01*
X143901Y28894D01*
X143883Y29007D01*
X143864Y29114D01*
X143839Y29214D01*
X143807Y29308D01*
X143776Y29390D01*
X143745Y29472D01*
X143713Y29541D01*
X143682Y29597D01*
X143657Y29654D01*
X143625Y29698D01*
X143606Y29729D01*
X143587Y29754D01*
X143581Y29767D01*
X143575Y29773D01*
X143512Y29855D01*
X143443Y29924D01*
X143374Y29987D01*
X143299Y30049D01*
X143160Y30150D01*
X143028Y30225D01*
X142915Y30282D01*
X142865Y30301D01*
X142821Y30319D01*
X142790Y30332D01*
X142765Y30338D01*
X142746Y30345D01*
X142740D01*
X142671Y30357D01*
X142589Y30376D01*
X142495Y30389D01*
X142388Y30395D01*
X142275Y30401D01*
X142162Y30414D01*
X141923Y30420D01*
X141810Y30426D01*
X141710D01*
X141609Y30432D01*
D02*
G37*
G36*
X136077Y25748D02*
X134965D01*
Y24636D01*
X136077D01*
Y25748D01*
D02*
G37*
G36*
X147987Y23295D02*
X146228D01*
D01*
X147987D01*
D02*
G37*
G36*
X141455D02*
Y19621D01*
X140733D01*
Y23295D01*
X139797D01*
X137292Y19614D01*
Y23295D01*
Y17479D01*
Y18647D01*
X139659D01*
Y17479D01*
X141455D01*
X140733D01*
Y18647D01*
X141455D01*
Y23295D01*
D02*
G37*
G36*
X152395Y23200D02*
X149456D01*
X148885Y20180D01*
X149783Y20054D01*
X149852Y20130D01*
X149927Y20192D01*
X150003Y20249D01*
X150078Y20299D01*
X150147Y20337D01*
X150222Y20374D01*
X150354Y20425D01*
X150473Y20450D01*
X150517Y20462D01*
X150561Y20469D01*
X150599Y20475D01*
X150712D01*
X150781Y20462D01*
X150900Y20431D01*
X151007Y20387D01*
X151095Y20343D01*
X151171Y20293D01*
X151221Y20249D01*
X151252Y20217D01*
X151265Y20211D01*
Y20205D01*
X151346Y20092D01*
X151409Y19966D01*
X151453Y19834D01*
X151478Y19702D01*
X151497Y19583D01*
X151503Y19533D01*
Y19489D01*
X151510Y19451D01*
Y19426D01*
Y19407D01*
Y19401D01*
Y19300D01*
X151497Y19200D01*
X151485Y19112D01*
X151472Y19024D01*
X151453Y18949D01*
X151434Y18880D01*
X151409Y18817D01*
X151390Y18760D01*
X151365Y18710D01*
X151340Y18666D01*
X151321Y18629D01*
X151302Y18597D01*
X151290Y18578D01*
X151277Y18560D01*
X151265Y18553D01*
Y18547D01*
X151221Y18497D01*
X151171Y18453D01*
X151070Y18384D01*
X150976Y18333D01*
X150882Y18302D01*
X150800Y18277D01*
X150731Y18271D01*
X150706Y18264D01*
X150674D01*
X150561Y18277D01*
X150461Y18302D01*
X150367Y18333D01*
X150291Y18377D01*
X150222Y18415D01*
X150178Y18453D01*
X150147Y18478D01*
X150134Y18484D01*
X150059Y18572D01*
X149996Y18673D01*
X149946Y18767D01*
X149908Y18867D01*
X149883Y18949D01*
X149871Y19018D01*
X149864Y19043D01*
X149858Y19062D01*
Y19074D01*
Y19081D01*
X148753Y18961D01*
X148778Y18830D01*
X148803Y18704D01*
X148841Y18585D01*
X148885Y18472D01*
X148935Y18371D01*
X148985Y18277D01*
X149035Y18189D01*
X149086Y18107D01*
X149136Y18038D01*
X149186Y17975D01*
X149230Y17925D01*
X149268Y17881D01*
X149305Y17843D01*
X149330Y17818D01*
X149343Y17806D01*
X149349Y17800D01*
X149450Y17724D01*
X149550Y17661D01*
X149657Y17605D01*
X149770Y17555D01*
X149877Y17511D01*
X149990Y17479D01*
X150197Y17429D01*
X150291Y17410D01*
X150379Y17398D01*
X150461Y17385D01*
X150530Y17379D01*
X150586Y17373D01*
X148753D01*
D01*
X152653D01*
Y19420D01*
X152646Y19577D01*
X152628Y19727D01*
X152602Y19866D01*
X152571Y20004D01*
X152533Y20123D01*
X152489Y20243D01*
X152439Y20349D01*
X152395Y20444D01*
X152345Y20531D01*
X152295Y20607D01*
X152251Y20670D01*
X152213Y20720D01*
X152182Y20764D01*
X152156Y20795D01*
X152138Y20814D01*
X152131Y20820D01*
X152031Y20914D01*
X151930Y20996D01*
X151824Y21071D01*
X151717Y21134D01*
X151610Y21184D01*
X151510Y21228D01*
X151409Y21266D01*
X151309Y21291D01*
X151221Y21316D01*
X151139Y21329D01*
X151064Y21341D01*
X151001Y21354D01*
X150944D01*
X150907Y21360D01*
X150875D01*
X150731Y21354D01*
X150593Y21329D01*
X150467Y21304D01*
X150348Y21266D01*
X150254Y21235D01*
X150216Y21216D01*
X150178Y21203D01*
X150153Y21191D01*
X150134Y21178D01*
X150122Y21172D01*
X150116D01*
X150291Y22158D01*
X152395D01*
Y23200D01*
D02*
G37*
G36*
X146228Y23295D02*
X146147D01*
X146002Y23288D01*
X145864Y23276D01*
X145732Y23257D01*
X145613Y23232D01*
X145493Y23200D01*
X145387Y23169D01*
X145292Y23131D01*
X145198Y23094D01*
X145117Y23056D01*
X145048Y23018D01*
X144985Y22987D01*
X144934Y22955D01*
X144897Y22930D01*
X144865Y22911D01*
X144847Y22899D01*
X144840Y22893D01*
X144746Y22811D01*
X144665Y22723D01*
X144589Y22623D01*
X144526Y22516D01*
X144470Y22409D01*
X144420Y22296D01*
X144376Y22189D01*
X144338Y22083D01*
X144307Y21982D01*
X144281Y21888D01*
X144263Y21800D01*
X144250Y21725D01*
X144237Y21662D01*
X144231Y21611D01*
X144225Y21586D01*
Y21574D01*
X145330Y21467D01*
X145336Y21555D01*
X145349Y21637D01*
X145380Y21781D01*
X145418Y21900D01*
X145456Y21995D01*
X145500Y22070D01*
X145531Y22120D01*
X145556Y22145D01*
X145563Y22158D01*
X145644Y22227D01*
X145738Y22284D01*
X145833Y22321D01*
X145921Y22346D01*
X146002Y22359D01*
X146065Y22371D01*
X146121D01*
X146247Y22365D01*
X146354Y22340D01*
X146448Y22309D01*
X146530Y22271D01*
X146592Y22233D01*
X146636Y22202D01*
X146668Y22177D01*
X146674Y22171D01*
X146743Y22089D01*
X146793Y21995D01*
X146825Y21900D01*
X146850Y21813D01*
X146862Y21725D01*
X146875Y21662D01*
Y21637D01*
Y21618D01*
Y21605D01*
Y21599D01*
X146862Y21473D01*
X146837Y21348D01*
X146800Y21235D01*
X146762Y21134D01*
X146718Y21046D01*
X146680Y20977D01*
X146661Y20952D01*
X146655Y20933D01*
X146643Y20927D01*
Y20921D01*
X146605Y20870D01*
X146555Y20808D01*
X146492Y20739D01*
X146429Y20670D01*
X146278Y20513D01*
X146115Y20356D01*
X146040Y20280D01*
X145964Y20205D01*
X145902Y20142D01*
X145839Y20086D01*
X145789Y20042D01*
X145751Y20004D01*
X145726Y19979D01*
X145720Y19973D01*
X145550Y19816D01*
X145399Y19665D01*
X145255Y19520D01*
X145129Y19388D01*
X145016Y19269D01*
X144916Y19150D01*
X144822Y19049D01*
X144746Y18955D01*
X144677Y18867D01*
X144621Y18798D01*
X144570Y18729D01*
X144533Y18679D01*
X144508Y18641D01*
X144482Y18610D01*
X144476Y18591D01*
X144470Y18585D01*
X144363Y18390D01*
X144281Y18195D01*
X144212Y18007D01*
X144162Y17837D01*
X144143Y17762D01*
X144131Y17693D01*
X144118Y17630D01*
X144106Y17580D01*
X144099Y17536D01*
Y17504D01*
X144093Y17486D01*
Y17479D01*
X147987D01*
Y18616D01*
Y18509D01*
X145776D01*
X145851Y18616D01*
X145889Y18666D01*
X145921Y18717D01*
X145952Y18754D01*
X145977Y18786D01*
X145996Y18804D01*
X146002Y18811D01*
X146034Y18842D01*
X146071Y18886D01*
X146115Y18930D01*
X146165Y18980D01*
X146272Y19087D01*
X146385Y19194D01*
X146492Y19294D01*
X146542Y19338D01*
X146586Y19376D01*
X146618Y19407D01*
X146643Y19432D01*
X146661Y19445D01*
X146668Y19451D01*
X146762Y19539D01*
X146850Y19621D01*
X146932Y19702D01*
X147007Y19771D01*
X147070Y19841D01*
X147133Y19897D01*
X147183Y19954D01*
X147233Y20004D01*
X147302Y20086D01*
X147359Y20142D01*
X147384Y20180D01*
X147396Y20192D01*
X147503Y20337D01*
X147597Y20475D01*
X147673Y20601D01*
X147735Y20707D01*
X147779Y20801D01*
X147798Y20839D01*
X147817Y20870D01*
X147830Y20896D01*
X147836Y20921D01*
X147842Y20927D01*
Y20933D01*
X147892Y21065D01*
X147924Y21197D01*
X147949Y21323D01*
X147968Y21442D01*
X147980Y21536D01*
Y21580D01*
X147987Y21611D01*
Y21681D01*
X147980Y21806D01*
X147968Y21926D01*
X147943Y22039D01*
X147911Y22152D01*
X147874Y22252D01*
X147830Y22346D01*
X147786Y22434D01*
X147742Y22510D01*
X147691Y22585D01*
X147648Y22648D01*
X147603Y22704D01*
X147566Y22748D01*
X147534Y22780D01*
X147509Y22811D01*
X147497Y22824D01*
X147491Y22830D01*
X147396Y22911D01*
X147290Y22981D01*
X147183Y23043D01*
X147076Y23100D01*
X146963Y23144D01*
X146850Y23181D01*
X146743Y23213D01*
X146636Y23238D01*
X146536Y23257D01*
X146442Y23269D01*
X146360Y23282D01*
X146291Y23288D01*
X146228Y23295D01*
D02*
G37*
G36*
X143898Y23370D02*
X143063D01*
X141631Y17379D01*
X143898D01*
D01*
X142448D01*
X143898Y23370D01*
D02*
G37*
G36*
X134893Y23295D02*
X132977D01*
X134855D01*
X134704Y23288D01*
X134560Y23269D01*
X134422Y23238D01*
X134296Y23200D01*
X134177Y23156D01*
X134070Y23106D01*
X133970Y23050D01*
X133882Y22999D01*
X133806Y22943D01*
X133737Y22886D01*
X133681Y22836D01*
X133631Y22792D01*
X133593Y22754D01*
X133568Y22723D01*
X133549Y22704D01*
X133543Y22698D01*
X133442Y22554D01*
X133354Y22390D01*
X133279Y22214D01*
X133216Y22026D01*
X133159Y21831D01*
X133116Y21637D01*
X133078Y21442D01*
X133046Y21247D01*
X133028Y21065D01*
X133009Y20896D01*
X132996Y20745D01*
X132984Y20607D01*
Y20550D01*
Y20500D01*
X132977Y20456D01*
Y17373D01*
Y20343D01*
X132984Y20042D01*
X133002Y19765D01*
X133028Y19508D01*
X133059Y19275D01*
X133097Y19062D01*
X133141Y18873D01*
X133185Y18704D01*
X133235Y18553D01*
X133285Y18428D01*
X133329Y18315D01*
X133373Y18220D01*
X133411Y18145D01*
X133442Y18089D01*
X133474Y18051D01*
X133486Y18026D01*
X133492Y18019D01*
X133593Y17906D01*
X133700Y17806D01*
X133813Y17718D01*
X133926Y17643D01*
X134039Y17586D01*
X134152Y17530D01*
X134258Y17486D01*
X134365Y17454D01*
X134466Y17429D01*
X134560Y17404D01*
X134642Y17391D01*
X134717Y17385D01*
X134774Y17379D01*
X134817Y17373D01*
X134855D01*
X135006Y17379D01*
X135150Y17398D01*
X135288Y17429D01*
X135414Y17467D01*
X135533Y17511D01*
X135640Y17561D01*
X135741Y17611D01*
X135828Y17668D01*
X135904Y17724D01*
X135973Y17774D01*
X136036Y17825D01*
X136080Y17869D01*
X136117Y17906D01*
X136149Y17938D01*
X136161Y17957D01*
X136168Y17963D01*
X136268Y18107D01*
X136356Y18271D01*
X136431Y18453D01*
X136501Y18635D01*
X136551Y18830D01*
X136601Y19030D01*
X136639Y19225D01*
X136670Y19420D01*
X136689Y19602D01*
X136708Y19771D01*
X136720Y19929D01*
X136733Y20060D01*
Y20123D01*
Y20173D01*
X136739Y20217D01*
Y20330D01*
X136733Y20626D01*
X136714Y20902D01*
X136689Y21159D01*
X136651Y21392D01*
X136607Y21605D01*
X136563Y21800D01*
X136507Y21976D01*
X136457Y22127D01*
X136406Y22265D01*
X136356Y22378D01*
X136306Y22478D01*
X136262Y22554D01*
X136224Y22616D01*
X136199Y22660D01*
X136180Y22685D01*
X136174Y22692D01*
X136080Y22798D01*
X135979Y22893D01*
X135872Y22974D01*
X135766Y23043D01*
X135659Y23100D01*
X135546Y23150D01*
X135439Y23188D01*
X135339Y23219D01*
X135238Y23244D01*
X135144Y23263D01*
X135062Y23276D01*
X134993Y23288D01*
X134937D01*
X134893Y23295D01*
D02*
G37*
%LPD*%
G36*
X152819Y43810D02*
X152888Y43804D01*
X153020Y43766D01*
X153133Y43716D01*
X153227Y43659D01*
X153309Y43597D01*
X153365Y43546D01*
X153397Y43509D01*
X153409Y43502D01*
Y43496D01*
X153453Y43433D01*
X153497Y43358D01*
X153560Y43201D01*
X153610Y43025D01*
X153642Y42856D01*
X153654Y42774D01*
X153661Y42698D01*
X153667Y42630D01*
Y42573D01*
X153673Y42523D01*
Y42485D01*
Y42460D01*
Y42454D01*
Y42334D01*
X153661Y42221D01*
X153648Y42121D01*
X153629Y42027D01*
X153610Y41939D01*
X153585Y41857D01*
X153566Y41782D01*
X153541Y41719D01*
X153516Y41662D01*
X153491Y41612D01*
X153466Y41568D01*
X153447Y41537D01*
X153428Y41512D01*
X153416Y41486D01*
X153409Y41480D01*
X153403Y41474D01*
X153353Y41417D01*
X153296Y41367D01*
X153240Y41323D01*
X153190Y41292D01*
X153077Y41229D01*
X152976Y41191D01*
X152888Y41173D01*
X152813Y41160D01*
X152788Y41154D01*
X152750D01*
X152662Y41160D01*
X152580Y41173D01*
X152505Y41191D01*
X152430Y41223D01*
X152304Y41292D01*
X152197Y41374D01*
X152116Y41449D01*
X152053Y41518D01*
X152034Y41549D01*
X152015Y41568D01*
X152009Y41581D01*
X152003Y41587D01*
X151971Y41650D01*
X151940Y41713D01*
X151896Y41870D01*
X151865Y42027D01*
X151846Y42190D01*
X151833Y42259D01*
Y42334D01*
X151827Y42397D01*
X151821Y42454D01*
Y42498D01*
Y42529D01*
Y42554D01*
Y42560D01*
X151827Y42673D01*
X151833Y42780D01*
X151846Y42881D01*
X151865Y42969D01*
X151883Y43050D01*
X151902Y43132D01*
X151927Y43201D01*
X151952Y43264D01*
X151978Y43314D01*
X152003Y43364D01*
X152022Y43402D01*
X152040Y43440D01*
X152059Y43465D01*
X152072Y43483D01*
X152084Y43490D01*
Y43496D01*
X152135Y43553D01*
X152191Y43603D01*
X152241Y43647D01*
X152298Y43685D01*
X152411Y43741D01*
X152511Y43779D01*
X152605Y43797D01*
X152681Y43810D01*
X152706Y43816D01*
X152744D01*
X152819Y43810D01*
D02*
G37*
G36*
X124578Y43754D02*
X124653Y43747D01*
X124791Y43710D01*
X124917Y43653D01*
X125024Y43597D01*
X125112Y43534D01*
X125174Y43477D01*
X125193Y43458D01*
X125212Y43440D01*
X125218Y43433D01*
X125225Y43427D01*
X125275Y43364D01*
X125325Y43289D01*
X125394Y43138D01*
X125451Y42981D01*
X125482Y42824D01*
X125495Y42755D01*
X125507Y42686D01*
X125514Y42630D01*
Y42573D01*
X125520Y42535D01*
Y42498D01*
Y42479D01*
Y42472D01*
Y42359D01*
X125507Y42246D01*
X125495Y42146D01*
X125476Y42052D01*
X125451Y41970D01*
X125426Y41888D01*
X125401Y41813D01*
X125375Y41750D01*
X125344Y41694D01*
X125319Y41644D01*
X125294Y41600D01*
X125269Y41568D01*
X125250Y41543D01*
X125237Y41524D01*
X125231Y41512D01*
X125225Y41505D01*
X125168Y41449D01*
X125112Y41399D01*
X125049Y41355D01*
X124986Y41317D01*
X124867Y41260D01*
X124748Y41223D01*
X124647Y41198D01*
X124603Y41191D01*
X124572Y41185D01*
X124540Y41179D01*
X124496D01*
X124415Y41185D01*
X124339Y41191D01*
X124201Y41229D01*
X124075Y41279D01*
X123969Y41342D01*
X123887Y41405D01*
X123818Y41455D01*
X123799Y41474D01*
X123780Y41493D01*
X123774Y41499D01*
X123768Y41505D01*
X123717Y41568D01*
X123674Y41644D01*
X123598Y41794D01*
X123548Y41958D01*
X123517Y42108D01*
X123504Y42184D01*
X123492Y42253D01*
X123485Y42309D01*
Y42366D01*
X123479Y42403D01*
Y42441D01*
Y42460D01*
Y42466D01*
X123485Y42579D01*
X123492Y42686D01*
X123504Y42786D01*
X123523Y42881D01*
X123548Y42969D01*
X123573Y43044D01*
X123598Y43119D01*
X123623Y43182D01*
X123649Y43239D01*
X123674Y43289D01*
X123699Y43333D01*
X123724Y43364D01*
X123743Y43389D01*
X123755Y43415D01*
X123768Y43421D01*
Y43427D01*
X123824Y43483D01*
X123887Y43540D01*
X123944Y43584D01*
X124006Y43622D01*
X124126Y43678D01*
X124245Y43716D01*
X124346Y43741D01*
X124390Y43747D01*
X124427Y43754D01*
X124452Y43760D01*
X124496D01*
X124578Y43754D01*
D02*
G37*
G36*
X122348Y42391D02*
X122355Y42265D01*
X122367Y42140D01*
X122386Y42027D01*
X122405Y41920D01*
X122430Y41819D01*
X122455Y41725D01*
X122480Y41637D01*
X122505Y41562D01*
X122524Y41493D01*
X122549Y41436D01*
X122568Y41386D01*
X122587Y41348D01*
X122600Y41323D01*
X122612Y41304D01*
Y41298D01*
X122725Y41122D01*
X122851Y40965D01*
X122983Y40833D01*
X123108Y40727D01*
X123228Y40645D01*
X123272Y40607D01*
X123316Y40582D01*
X123353Y40557D01*
X123378Y40545D01*
X123397Y40538D01*
X123404Y40532D01*
X123598Y40444D01*
X123793Y40381D01*
X123981Y40337D01*
X124151Y40306D01*
X124226Y40293D01*
X124295Y40287D01*
X124352Y40281D01*
X124402D01*
X124446Y40275D01*
X122342D01*
Y42523D01*
X122348Y42391D01*
D02*
G37*
G36*
X139060Y43779D02*
X139129Y43772D01*
X139254Y43735D01*
X139367Y43685D01*
X139462Y43622D01*
X139537Y43559D01*
X139593Y43509D01*
X139631Y43471D01*
X139644Y43465D01*
Y43458D01*
X139694Y43396D01*
X139732Y43327D01*
X139801Y43170D01*
X139851Y43006D01*
X139882Y42849D01*
X139889Y42774D01*
X139901Y42705D01*
X139907Y42642D01*
Y42586D01*
X139914Y42542D01*
Y42510D01*
Y42485D01*
Y42479D01*
Y42353D01*
X139901Y42234D01*
X139889Y42121D01*
X139870Y42020D01*
X139851Y41926D01*
X139832Y41844D01*
X139807Y41769D01*
X139782Y41706D01*
X139757Y41644D01*
X139732Y41593D01*
X139713Y41556D01*
X139694Y41518D01*
X139675Y41493D01*
X139662Y41474D01*
X139656Y41468D01*
X139650Y41461D01*
X139600Y41405D01*
X139549Y41361D01*
X139493Y41317D01*
X139443Y41285D01*
X139336Y41229D01*
X139235Y41191D01*
X139141Y41173D01*
X139072Y41160D01*
X139047Y41154D01*
X139009D01*
X138934Y41160D01*
X138865Y41166D01*
X138727Y41204D01*
X138614Y41260D01*
X138513Y41323D01*
X138432Y41380D01*
X138369Y41436D01*
X138331Y41474D01*
X138325Y41480D01*
X138319Y41486D01*
X138268Y41556D01*
X138231Y41631D01*
X138162Y41794D01*
X138111Y41970D01*
X138080Y42140D01*
X138067Y42221D01*
X138055Y42290D01*
X138049Y42359D01*
Y42422D01*
X138042Y42466D01*
Y42504D01*
Y42529D01*
Y42535D01*
X138049Y42648D01*
X138055Y42755D01*
X138067Y42849D01*
X138086Y42944D01*
X138105Y43025D01*
X138124Y43101D01*
X138149Y43170D01*
X138174Y43232D01*
X138199Y43283D01*
X138224Y43333D01*
X138243Y43371D01*
X138262Y43408D01*
X138281Y43433D01*
X138293Y43452D01*
X138306Y43458D01*
Y43465D01*
X138356Y43521D01*
X138413Y43571D01*
X138469Y43615D01*
X138526Y43653D01*
X138639Y43710D01*
X138746Y43747D01*
X138840Y43766D01*
X138884Y43772D01*
X138915Y43779D01*
X138946Y43785D01*
X138984D01*
X139060Y43779D01*
D02*
G37*
G36*
X141050Y38774D02*
X138061D01*
Y40884D01*
X138174Y40771D01*
X138281Y40670D01*
X138381Y40589D01*
X138469Y40526D01*
X138545Y40475D01*
X138601Y40438D01*
X138639Y40419D01*
X138651Y40413D01*
X138758Y40369D01*
X138871Y40331D01*
X138978Y40306D01*
X139072Y40293D01*
X139160Y40281D01*
X139229Y40275D01*
X139286D01*
X139424Y40281D01*
X139549Y40300D01*
X139675Y40331D01*
X139788Y40362D01*
X139901Y40406D01*
X140002Y40457D01*
X140102Y40507D01*
X140184Y40563D01*
X140265Y40620D01*
X140334Y40670D01*
X140391Y40720D01*
X140441Y40764D01*
X140485Y40802D01*
X140510Y40827D01*
X140529Y40846D01*
X140535Y40852D01*
X140623Y40965D01*
X140705Y41091D01*
X140774Y41223D01*
X140831Y41355D01*
X140881Y41493D01*
X140925Y41625D01*
X140956Y41763D01*
X140988Y41888D01*
X141006Y42014D01*
X141025Y42127D01*
X141038Y42228D01*
X141044Y42316D01*
Y42391D01*
X141050Y42447D01*
Y38774D01*
D02*
G37*
G36*
X101273Y43779D02*
X101342Y43772D01*
X101468Y43735D01*
X101581Y43685D01*
X101675Y43622D01*
X101750Y43559D01*
X101807Y43509D01*
X101844Y43471D01*
X101857Y43465D01*
Y43458D01*
X101907Y43396D01*
X101945Y43327D01*
X102014Y43170D01*
X102064Y43006D01*
X102095Y42849D01*
X102102Y42774D01*
X102114Y42705D01*
X102121Y42642D01*
Y42586D01*
X102127Y42542D01*
Y42510D01*
Y42485D01*
Y42479D01*
Y42353D01*
X102114Y42234D01*
X102102Y42121D01*
X102083Y42020D01*
X102064Y41926D01*
X102045Y41844D01*
X102020Y41769D01*
X101995Y41706D01*
X101970Y41644D01*
X101945Y41593D01*
X101926Y41556D01*
X101907Y41518D01*
X101888Y41493D01*
X101876Y41474D01*
X101869Y41468D01*
X101863Y41461D01*
X101813Y41405D01*
X101763Y41361D01*
X101706Y41317D01*
X101656Y41285D01*
X101549Y41229D01*
X101449Y41191D01*
X101354Y41173D01*
X101285Y41160D01*
X101260Y41154D01*
X101223D01*
X101147Y41160D01*
X101078Y41166D01*
X100940Y41204D01*
X100827Y41260D01*
X100726Y41323D01*
X100645Y41380D01*
X100582Y41436D01*
X100544Y41474D01*
X100538Y41480D01*
X100532Y41486D01*
X100481Y41556D01*
X100444Y41631D01*
X100375Y41794D01*
X100324Y41970D01*
X100293Y42140D01*
X100281Y42221D01*
X100268Y42290D01*
X100262Y42359D01*
Y42422D01*
X100255Y42466D01*
Y42504D01*
Y42529D01*
Y42535D01*
X100262Y42648D01*
X100268Y42755D01*
X100281Y42849D01*
X100299Y42944D01*
X100318Y43025D01*
X100337Y43101D01*
X100362Y43170D01*
X100387Y43232D01*
X100412Y43283D01*
X100438Y43333D01*
X100456Y43371D01*
X100475Y43408D01*
X100494Y43433D01*
X100507Y43452D01*
X100519Y43458D01*
Y43465D01*
X100569Y43521D01*
X100626Y43571D01*
X100682Y43615D01*
X100739Y43653D01*
X100852Y43710D01*
X100959Y43747D01*
X101053Y43766D01*
X101097Y43772D01*
X101128Y43779D01*
X101160Y43785D01*
X101198D01*
X101273Y43779D01*
D02*
G37*
G36*
X103264Y38774D02*
X100274Y38774D01*
Y40884D01*
X100387Y40771D01*
X100494Y40670D01*
X100595Y40589D01*
X100682Y40526D01*
X100758Y40475D01*
X100814Y40438D01*
X100852Y40419D01*
X100865Y40413D01*
X100971Y40369D01*
X101084Y40331D01*
X101191Y40306D01*
X101285Y40293D01*
X101373Y40281D01*
X101442Y40275D01*
X101499D01*
X101637Y40281D01*
X101763Y40300D01*
X101888Y40331D01*
X102001Y40362D01*
X102114Y40406D01*
X102215Y40457D01*
X102315Y40507D01*
X102397Y40563D01*
X102479Y40620D01*
X102548Y40670D01*
X102604Y40720D01*
X102654Y40764D01*
X102698Y40802D01*
X102724Y40827D01*
X102742Y40846D01*
X102749Y40852D01*
X102837Y40965D01*
X102918Y41091D01*
X102987Y41223D01*
X103044Y41355D01*
X103094Y41493D01*
X103138Y41625D01*
X103169Y41763D01*
X103201Y41888D01*
X103220Y42014D01*
X103238Y42127D01*
X103251Y42228D01*
X103257Y42316D01*
Y42391D01*
X103264Y42447D01*
Y38774D01*
D02*
G37*
G36*
X148210Y43804D02*
X148323Y43779D01*
X148423Y43735D01*
X148505Y43691D01*
X148574Y43641D01*
X148624Y43597D01*
X148655Y43571D01*
X148668Y43559D01*
X148750Y43458D01*
X148806Y43339D01*
X148850Y43220D01*
X148881Y43101D01*
X148900Y42994D01*
X148907Y42950D01*
X148913Y42912D01*
X148919Y42874D01*
Y42849D01*
Y42837D01*
Y42830D01*
X147261D01*
X147267Y42994D01*
X147293Y43132D01*
X147330Y43257D01*
X147374Y43358D01*
X147418Y43440D01*
X147456Y43496D01*
X147481Y43534D01*
X147494Y43546D01*
X147538Y43597D01*
X147588Y43634D01*
X147682Y43703D01*
X147783Y43754D01*
X147877Y43785D01*
X147965Y43804D01*
X148027Y43810D01*
X148053Y43816D01*
X148090D01*
X148210Y43804D01*
D02*
G37*
G36*
X143707D02*
X143820Y43779D01*
X143920Y43735D01*
X144002Y43691D01*
X144071Y43641D01*
X144121Y43597D01*
X144153Y43571D01*
X144165Y43559D01*
X144247Y43458D01*
X144303Y43339D01*
X144347Y43220D01*
X144379Y43101D01*
X144398Y42994D01*
X144404Y42950D01*
X144410Y42912D01*
X144416Y42874D01*
Y42849D01*
Y42837D01*
Y42830D01*
X142759D01*
X142765Y42994D01*
X142790Y43132D01*
X142828Y43257D01*
X142871Y43358D01*
X142915Y43440D01*
X142953Y43496D01*
X142978Y43534D01*
X142991Y43546D01*
X143035Y43597D01*
X143085Y43634D01*
X143179Y43703D01*
X143280Y43754D01*
X143374Y43785D01*
X143462Y43804D01*
X143525Y43810D01*
X143550Y43816D01*
X143587D01*
X143707Y43804D01*
D02*
G37*
G36*
X105920D02*
X106033Y43779D01*
X106133Y43735D01*
X106215Y43691D01*
X106284Y43641D01*
X106334Y43597D01*
X106366Y43571D01*
X106378Y43559D01*
X106460Y43458D01*
X106517Y43339D01*
X106561Y43220D01*
X106592Y43101D01*
X106611Y42994D01*
X106617Y42950D01*
X106623Y42912D01*
X106630Y42874D01*
Y42849D01*
Y42837D01*
Y42830D01*
X104972D01*
X104978Y42994D01*
X105003Y43132D01*
X105041Y43257D01*
X105085Y43358D01*
X105129Y43440D01*
X105166Y43496D01*
X105192Y43534D01*
X105204Y43546D01*
X105248Y43597D01*
X105298Y43634D01*
X105393Y43703D01*
X105493Y43754D01*
X105587Y43785D01*
X105675Y43804D01*
X105738Y43810D01*
X105763Y43816D01*
X105801D01*
X105920Y43804D01*
D02*
G37*
G36*
X194129Y40369D02*
X192980D01*
X194123Y44928D01*
X194129Y40369D01*
D02*
G37*
G36*
X191849D02*
X190706D01*
Y44928D01*
X191849Y40369D01*
D02*
G37*
G36*
X119604Y40369D02*
X118166D01*
X118882Y43069D01*
X119604Y40369D01*
D02*
G37*
G36*
X168557Y40262D02*
X166566D01*
X166748Y40268D01*
X166924Y40293D01*
X167087Y40331D01*
X167238Y40381D01*
X167376Y40438D01*
X167502Y40507D01*
X167621Y40576D01*
X167728Y40645D01*
X167822Y40714D01*
X167904Y40783D01*
X167973Y40852D01*
X168029Y40909D01*
X168079Y40959D01*
X168111Y40997D01*
X168130Y41022D01*
X168136Y41028D01*
X168211Y41135D01*
X168274Y41248D01*
X168331Y41355D01*
X168381Y41468D01*
X168419Y41574D01*
X168456Y41681D01*
X168481Y41782D01*
X168507Y41882D01*
X168519Y41970D01*
X168532Y42052D01*
X168544Y42127D01*
X168551Y42190D01*
X168557Y42240D01*
Y40262D01*
D02*
G37*
G36*
X88462Y40369D02*
X89491D01*
Y40275D01*
X87067D01*
X87218Y40281D01*
X87363Y40306D01*
X87501Y40337D01*
X87614Y40369D01*
X87714Y40406D01*
X87752Y40419D01*
X87790Y40431D01*
X87815Y40444D01*
X87834Y40457D01*
X87846Y40463D01*
X87852D01*
X87984Y40545D01*
X88110Y40626D01*
X88210Y40720D01*
X88298Y40802D01*
X88367Y40877D01*
X88418Y40940D01*
X88437Y40965D01*
X88449Y40984D01*
X88462Y40990D01*
Y40369D01*
D02*
G37*
G36*
X85686Y41700D02*
X85692Y41600D01*
X85705Y41512D01*
X85711Y41430D01*
X85724Y41355D01*
X85736Y41285D01*
X85755Y41223D01*
X85768Y41166D01*
X85780Y41116D01*
X85793Y41072D01*
X85799Y41041D01*
X85812Y41015D01*
X85818Y40997D01*
X85824Y40984D01*
Y40978D01*
X85887Y40859D01*
X85962Y40758D01*
X86044Y40664D01*
X86125Y40595D01*
X86194Y40532D01*
X86251Y40494D01*
X86276Y40475D01*
X86295Y40463D01*
X86301Y40457D01*
X86308D01*
X86439Y40394D01*
X86571Y40350D01*
X86697Y40318D01*
X86816Y40300D01*
X86917Y40287D01*
X86961Y40281D01*
X86998Y40275D01*
X85680D01*
Y41907D01*
X85686Y41700D01*
D02*
G37*
G36*
X138972Y35228D02*
X139085Y35203D01*
X139185Y35159D01*
X139267Y35115D01*
X139336Y35065D01*
X139386Y35021D01*
X139418Y34995D01*
X139430Y34983D01*
X139512Y34883D01*
X139568Y34763D01*
X139612Y34644D01*
X139644Y34525D01*
X139662Y34418D01*
X139669Y34374D01*
X139675Y34336D01*
X139681Y34298D01*
Y34273D01*
Y34261D01*
Y34255D01*
X138023D01*
X138030Y34418D01*
X138055Y34556D01*
X138093Y34681D01*
X138136Y34782D01*
X138180Y34864D01*
X138218Y34920D01*
X138243Y34958D01*
X138256Y34970D01*
X138300Y35021D01*
X138350Y35058D01*
X138444Y35127D01*
X138545Y35178D01*
X138639Y35209D01*
X138727Y35228D01*
X138789Y35234D01*
X138815Y35240D01*
X138852D01*
X138972Y35228D01*
D02*
G37*
G36*
X133866Y36603D02*
X134017D01*
X134080Y36597D01*
X134174D01*
X134205Y36591D01*
X134255D01*
X134281Y36584D01*
X134287D01*
X134387Y36559D01*
X134481Y36528D01*
X134557Y36496D01*
X134620Y36452D01*
X134670Y36421D01*
X134701Y36390D01*
X134726Y36364D01*
X134733Y36358D01*
X134783Y36283D01*
X134821Y36208D01*
X134852Y36132D01*
X134871Y36057D01*
X134883Y35988D01*
X134890Y35938D01*
Y35900D01*
Y35893D01*
Y35887D01*
X134883Y35793D01*
X134871Y35705D01*
X134852Y35630D01*
X134833Y35567D01*
X134808Y35517D01*
X134789Y35479D01*
X134777Y35454D01*
X134770Y35448D01*
X134720Y35385D01*
X134670Y35335D01*
X134613Y35291D01*
X134557Y35259D01*
X134513Y35234D01*
X134475Y35215D01*
X134450Y35209D01*
X134438Y35203D01*
X134394Y35190D01*
X134331Y35178D01*
X134262Y35171D01*
X134186Y35165D01*
X134017Y35153D01*
X133835Y35140D01*
X133665D01*
X133590Y35134D01*
X132522D01*
Y36609D01*
X133778D01*
X133866Y36603D01*
D02*
G37*
G36*
X133018Y34198D02*
X133119Y34192D01*
X133200Y34179D01*
X133263Y34166D01*
X133307Y34154D01*
X133338Y34148D01*
X133345Y34141D01*
X133414Y34116D01*
X133477Y34079D01*
X133539Y34041D01*
X133590Y33997D01*
X133634Y33959D01*
X133671Y33934D01*
X133690Y33909D01*
X133696Y33903D01*
X133734Y33865D01*
X133772Y33815D01*
X133816Y33758D01*
X133866Y33696D01*
X133967Y33557D01*
X134073Y33413D01*
X134168Y33275D01*
X134211Y33218D01*
X134243Y33162D01*
X134274Y33118D01*
X134299Y33086D01*
X134312Y33061D01*
X134318Y33055D01*
X135166Y31793D01*
X132522D01*
Y34211D01*
X132899D01*
X133018Y34198D01*
D02*
G37*
G36*
X147908Y36678D02*
X147971Y36666D01*
X148034Y36641D01*
X148090Y36622D01*
X148128Y36597D01*
X148166Y36572D01*
X148184Y36559D01*
X148191Y36553D01*
X148247Y36496D01*
X148298Y36421D01*
X148341Y36339D01*
X148379Y36252D01*
X148410Y36170D01*
X148429Y36107D01*
X148436Y36082D01*
X148442Y36063D01*
X148448Y36051D01*
Y36044D01*
X148467Y35963D01*
X148486Y35875D01*
X148498Y35774D01*
X148511Y35661D01*
X148530Y35435D01*
X148542Y35203D01*
X148549Y35090D01*
Y34989D01*
X148555Y34889D01*
Y34807D01*
Y34738D01*
Y34688D01*
Y34656D01*
Y34644D01*
Y34462D01*
X148549Y34286D01*
X148542Y34129D01*
X148536Y33984D01*
X148530Y33852D01*
X148517Y33733D01*
X148505Y33626D01*
X148498Y33532D01*
X148486Y33451D01*
X148473Y33382D01*
X148461Y33325D01*
X148454Y33275D01*
X148448Y33237D01*
X148442Y33212D01*
X148436Y33199D01*
Y33193D01*
X148398Y33080D01*
X148360Y32980D01*
X148323Y32904D01*
X148279Y32841D01*
X148247Y32791D01*
X148216Y32760D01*
X148197Y32741D01*
X148191Y32735D01*
X148128Y32691D01*
X148071Y32659D01*
X148009Y32640D01*
X147952Y32628D01*
X147902Y32615D01*
X147864Y32609D01*
X147833D01*
X147757Y32615D01*
X147695Y32628D01*
X147632Y32647D01*
X147582Y32672D01*
X147538Y32697D01*
X147500Y32716D01*
X147481Y32728D01*
X147475Y32735D01*
X147418Y32791D01*
X147368Y32867D01*
X147324Y32948D01*
X147286Y33036D01*
X147255Y33112D01*
X147236Y33174D01*
X147230Y33199D01*
X147224Y33218D01*
X147217Y33231D01*
Y33237D01*
X147198Y33319D01*
X147186Y33407D01*
X147173Y33507D01*
X147161Y33620D01*
X147142Y33852D01*
X147129Y34085D01*
X147123Y34198D01*
Y34298D01*
Y34393D01*
X147117Y34481D01*
Y34550D01*
Y34600D01*
Y34631D01*
Y34644D01*
Y34826D01*
X147123Y34995D01*
X147129Y35159D01*
X147136Y35297D01*
X147142Y35429D01*
X147154Y35548D01*
X147161Y35655D01*
X147173Y35749D01*
X147186Y35831D01*
X147192Y35906D01*
X147205Y35963D01*
X147211Y36013D01*
X147217Y36051D01*
X147224Y36076D01*
X147230Y36088D01*
Y36094D01*
X147267Y36208D01*
X147305Y36308D01*
X147349Y36383D01*
X147387Y36446D01*
X147418Y36496D01*
X147450Y36528D01*
X147468Y36547D01*
X147475Y36553D01*
X147538Y36597D01*
X147594Y36628D01*
X147657Y36653D01*
X147713Y36666D01*
X147764Y36678D01*
X147801Y36685D01*
X147833D01*
X147908Y36678D01*
D02*
G37*
G36*
X155161Y24636D02*
X153592D01*
Y25980D01*
X154106Y26520D01*
X155161Y24636D01*
D02*
G37*
G36*
X147186Y26426D02*
Y26288D01*
X147180Y26175D01*
X147173Y26080D01*
X147167Y26005D01*
X147154Y25955D01*
X147148Y25917D01*
X147142Y25892D01*
Y25886D01*
X147110Y25810D01*
X147073Y25741D01*
X147029Y25679D01*
X146979Y25622D01*
X146941Y25578D01*
X146903Y25547D01*
X146878Y25528D01*
X146872Y25521D01*
X146771Y25459D01*
X146671Y25408D01*
X146571Y25377D01*
X146483Y25352D01*
X146407Y25339D01*
X146351Y25333D01*
X146313Y25327D01*
X146300D01*
X146206Y25333D01*
X146118Y25352D01*
X146043Y25383D01*
X145974Y25415D01*
X145924Y25440D01*
X145886Y25471D01*
X145861Y25490D01*
X145854Y25496D01*
X145798Y25565D01*
X145754Y25628D01*
X145729Y25697D01*
X145704Y25760D01*
X145691Y25817D01*
X145685Y25861D01*
Y25886D01*
Y25898D01*
X145691Y25980D01*
X145716Y26055D01*
X145754Y26124D01*
X145792Y26181D01*
X145829Y26225D01*
X145867Y26263D01*
X145892Y26281D01*
X145898Y26288D01*
X145930Y26307D01*
X145968Y26325D01*
X146055Y26357D01*
X146156Y26388D01*
X146256Y26419D01*
X146351Y26438D01*
X146426Y26457D01*
X146457Y26470D01*
X146483D01*
X146495Y26476D01*
X146501D01*
X146665Y26514D01*
X146803Y26545D01*
X146922Y26577D01*
X147016Y26602D01*
X147092Y26621D01*
X147142Y26639D01*
X147173Y26646D01*
X147186Y26652D01*
Y26426D01*
D02*
G37*
G36*
X141521Y29447D02*
X141603D01*
X141678Y29440D01*
X141747D01*
X141810Y29434D01*
X141867D01*
X141911Y29428D01*
X141948Y29421D01*
X141980D01*
X142005Y29415D01*
X142036Y29409D01*
X142049D01*
X142149Y29384D01*
X142244Y29346D01*
X142325Y29308D01*
X142388Y29264D01*
X142445Y29220D01*
X142488Y29183D01*
X142514Y29158D01*
X142520Y29151D01*
X142583Y29070D01*
X142627Y28982D01*
X142664Y28894D01*
X142683Y28812D01*
X142696Y28743D01*
X142708Y28680D01*
Y28643D01*
Y28636D01*
Y28630D01*
X142702Y28536D01*
X142689Y28448D01*
X142664Y28373D01*
X142639Y28310D01*
X142614Y28253D01*
X142589Y28216D01*
X142576Y28184D01*
X142570Y28178D01*
X142520Y28109D01*
X142457Y28052D01*
X142394Y28002D01*
X142338Y27958D01*
X142288Y27927D01*
X142244Y27908D01*
X142218Y27895D01*
X142206Y27889D01*
X142156Y27876D01*
X142099Y27858D01*
X142036Y27851D01*
X141961Y27839D01*
X141810Y27820D01*
X141659Y27814D01*
X141515Y27807D01*
X141452Y27801D01*
X140642D01*
Y29453D01*
X141427D01*
X141521Y29447D01*
D02*
G37*
G36*
X143914Y24636D02*
X140642D01*
Y26821D01*
X141546D01*
X141685Y26828D01*
X141810D01*
X141929Y26834D01*
X142036Y26840D01*
X142137Y26847D01*
X142231Y26853D01*
X142313Y26865D01*
X142382Y26872D01*
X142445Y26878D01*
X142501Y26884D01*
X142545Y26891D01*
X142576Y26897D01*
X142602D01*
X142614Y26903D01*
X142620D01*
X142733Y26934D01*
X142846Y26972D01*
X142947Y27016D01*
X143035Y27060D01*
X143116Y27104D01*
X143173Y27142D01*
X143211Y27167D01*
X143217Y27173D01*
X143223D01*
X143330Y27261D01*
X143430Y27355D01*
X143512Y27449D01*
X143587Y27537D01*
X143644Y27619D01*
X143682Y27688D01*
X143701Y27713D01*
X143713Y27732D01*
X143719Y27738D01*
Y27745D01*
X143782Y27889D01*
X143832Y28040D01*
X143864Y28190D01*
X143889Y28329D01*
X143895Y28398D01*
X143901Y28454D01*
X143908Y28511D01*
X143914Y28555D01*
Y24636D01*
D02*
G37*
G36*
X139659Y19621D02*
X138334D01*
X139659Y21593D01*
Y19621D01*
D02*
G37*
G36*
X152653Y17373D02*
X150662D01*
X150844Y17379D01*
X151020Y17404D01*
X151183Y17442D01*
X151334Y17492D01*
X151472Y17548D01*
X151598Y17617D01*
X151717Y17686D01*
X151824Y17756D01*
X151918Y17825D01*
X151999Y17894D01*
X152069Y17963D01*
X152125Y18019D01*
X152175Y18070D01*
X152207Y18107D01*
X152226Y18132D01*
X152232Y18139D01*
X152307Y18246D01*
X152370Y18359D01*
X152427Y18465D01*
X152477Y18578D01*
X152515Y18685D01*
X152552Y18792D01*
X152577Y18892D01*
X152602Y18993D01*
X152615Y19081D01*
X152628Y19162D01*
X152640Y19238D01*
X152646Y19300D01*
X152653Y19351D01*
Y17373D01*
D02*
G37*
G36*
X134931Y22365D02*
X134993Y22353D01*
X135056Y22328D01*
X135113Y22309D01*
X135150Y22284D01*
X135188Y22258D01*
X135207Y22246D01*
X135213Y22240D01*
X135270Y22183D01*
X135320Y22108D01*
X135364Y22026D01*
X135401Y21938D01*
X135433Y21857D01*
X135452Y21794D01*
X135458Y21768D01*
X135464Y21750D01*
X135471Y21737D01*
Y21731D01*
X135489Y21649D01*
X135508Y21561D01*
X135521Y21461D01*
X135533Y21348D01*
X135552Y21122D01*
X135565Y20889D01*
X135571Y20776D01*
Y20676D01*
X135577Y20575D01*
Y20494D01*
Y20425D01*
Y20374D01*
Y20343D01*
Y20330D01*
Y20148D01*
X135571Y19973D01*
X135565Y19816D01*
X135558Y19671D01*
X135552Y19539D01*
X135540Y19420D01*
X135527Y19313D01*
X135521Y19219D01*
X135508Y19137D01*
X135496Y19068D01*
X135483Y19012D01*
X135477Y18961D01*
X135471Y18924D01*
X135464Y18899D01*
X135458Y18886D01*
Y18880D01*
X135420Y18767D01*
X135383Y18666D01*
X135345Y18591D01*
X135301Y18528D01*
X135270Y18478D01*
X135238Y18446D01*
X135219Y18428D01*
X135213Y18421D01*
X135150Y18377D01*
X135094Y18346D01*
X135031Y18327D01*
X134974Y18315D01*
X134924Y18302D01*
X134887Y18296D01*
X134855D01*
X134780Y18302D01*
X134717Y18315D01*
X134654Y18333D01*
X134604Y18359D01*
X134560Y18384D01*
X134522Y18403D01*
X134503Y18415D01*
X134497Y18421D01*
X134441Y18478D01*
X134390Y18553D01*
X134346Y18635D01*
X134309Y18723D01*
X134277Y18798D01*
X134258Y18861D01*
X134252Y18886D01*
X134246Y18905D01*
X134240Y18917D01*
Y18924D01*
X134221Y19005D01*
X134208Y19093D01*
X134196Y19194D01*
X134183Y19307D01*
X134164Y19539D01*
X134152Y19771D01*
X134145Y19884D01*
Y19985D01*
Y20079D01*
X134139Y20167D01*
Y20236D01*
Y20287D01*
Y20318D01*
Y20330D01*
Y20513D01*
X134145Y20682D01*
X134152Y20845D01*
X134158Y20983D01*
X134164Y21115D01*
X134177Y21235D01*
X134183Y21341D01*
X134196Y21436D01*
X134208Y21517D01*
X134215Y21593D01*
X134227Y21649D01*
X134233Y21700D01*
X134240Y21737D01*
X134246Y21762D01*
X134252Y21775D01*
Y21781D01*
X134290Y21894D01*
X134328Y21995D01*
X134372Y22070D01*
X134409Y22133D01*
X134441Y22183D01*
X134472Y22214D01*
X134491Y22233D01*
X134497Y22240D01*
X134560Y22284D01*
X134616Y22315D01*
X134679Y22340D01*
X134736Y22353D01*
X134786Y22365D01*
X134824Y22371D01*
X134855D01*
X134931Y22365D01*
D02*
G37*
%LPC*%
G36*
X201211Y94466D02*
D01*
Y91722D01*
X201208Y91787D01*
X201205Y91850D01*
X201197Y91910D01*
X201186Y91967D01*
X201175Y92019D01*
X201162Y92068D01*
X201148Y92115D01*
X201134Y92156D01*
X201121Y92194D01*
X201107Y92227D01*
X201093Y92254D01*
X201082Y92279D01*
X201072Y92298D01*
X201063Y92312D01*
X201061Y92320D01*
X201058Y92322D01*
X201028Y92366D01*
X200998Y92410D01*
X200930Y92486D01*
X200894Y92522D01*
X200859Y92552D01*
X200826Y92582D01*
X200793Y92606D01*
X200760Y92631D01*
X200733Y92650D01*
X200706Y92666D01*
X200684Y92683D01*
X200665Y92694D01*
X200651Y92702D01*
X200643Y92705D01*
X200640Y92707D01*
X200588Y92735D01*
X200528Y92759D01*
X200465Y92787D01*
X200400Y92811D01*
X200264Y92857D01*
X200195Y92877D01*
X200130Y92898D01*
X200067Y92915D01*
X200010Y92931D01*
X199955Y92945D01*
X199909Y92958D01*
X199870Y92967D01*
X199843Y92975D01*
X199832Y92978D01*
X199824D01*
X199821Y92980D01*
X199819D01*
X199720Y93005D01*
X199627Y93029D01*
X199548Y93051D01*
X199475Y93076D01*
X199409Y93098D01*
X199352Y93120D01*
X199302Y93139D01*
X199259Y93158D01*
X199223Y93174D01*
X199193Y93188D01*
X199169Y93202D01*
X199150Y93212D01*
X199133Y93223D01*
X199125Y93229D01*
X199120Y93234D01*
X199117D01*
X199079Y93273D01*
X199051Y93311D01*
X199032Y93349D01*
X199019Y93384D01*
X199010Y93417D01*
X199008Y93442D01*
X199005Y93458D01*
Y93461D01*
Y93464D01*
X199008Y93491D01*
X199010Y93515D01*
X199024Y93562D01*
X199043Y93600D01*
X199065Y93633D01*
X199087Y93660D01*
X199106Y93679D01*
X199120Y93693D01*
X199125Y93696D01*
X199163Y93720D01*
X199202Y93742D01*
X199242Y93761D01*
X199286Y93778D01*
X199373Y93802D01*
X199455Y93818D01*
X199496Y93824D01*
X199532Y93827D01*
X199565Y93829D01*
X199592Y93832D01*
X199614Y93835D01*
X199704D01*
X199761Y93829D01*
X199810Y93824D01*
X199857Y93816D01*
X199900Y93805D01*
X199941Y93794D01*
X199977Y93783D01*
X200010Y93772D01*
X200037Y93758D01*
X200061Y93748D01*
X200083Y93737D01*
X200100Y93726D01*
X200113Y93717D01*
X200121Y93712D01*
X200127Y93709D01*
X200130Y93707D01*
X200160Y93682D01*
X200184Y93652D01*
X200231Y93586D01*
X200266Y93518D01*
X200296Y93450D01*
X200307Y93417D01*
X200315Y93387D01*
X200324Y93360D01*
X200329Y93335D01*
X200334Y93316D01*
X200337Y93303D01*
X200340Y93292D01*
Y93289D01*
X201102Y93322D01*
X201093Y93417D01*
X201080Y93507D01*
X201061Y93592D01*
X201033Y93671D01*
X201006Y93745D01*
X200973Y93813D01*
X200940Y93876D01*
X200905Y93930D01*
X200869Y93982D01*
X200837Y94026D01*
X200807Y94064D01*
X200779Y94094D01*
X200755Y94119D01*
X200739Y94138D01*
X200728Y94149D01*
X200722Y94152D01*
X200651Y94206D01*
X200575Y94255D01*
X200490Y94296D01*
X200405Y94334D01*
X200315Y94365D01*
X200225Y94389D01*
X200138Y94411D01*
X200053Y94427D01*
X199971Y94438D01*
X199898Y94449D01*
X199829Y94457D01*
X199769Y94460D01*
X199742Y94463D01*
X199720D01*
X199701Y94466D01*
X201211D01*
X198140D01*
D01*
X199652D01*
X199573Y94463D01*
X199496Y94460D01*
X199423Y94455D01*
X199352Y94444D01*
X199286Y94436D01*
X199226Y94424D01*
X199169Y94411D01*
X199117Y94400D01*
X199071Y94386D01*
X199030Y94375D01*
X198994Y94362D01*
X198964Y94353D01*
X198942Y94345D01*
X198923Y94337D01*
X198912Y94334D01*
X198909Y94332D01*
X198852Y94307D01*
X198800Y94277D01*
X198751Y94247D01*
X198705Y94217D01*
X198664Y94184D01*
X198626Y94154D01*
X198590Y94121D01*
X198557Y94091D01*
X198530Y94061D01*
X198505Y94037D01*
X198484Y94012D01*
X198467Y93990D01*
X198453Y93974D01*
X198445Y93960D01*
X198440Y93952D01*
X198437Y93950D01*
X198410Y93903D01*
X198385Y93854D01*
X198363Y93808D01*
X198344Y93758D01*
X198328Y93712D01*
X198314Y93668D01*
X198306Y93625D01*
X198295Y93586D01*
X198290Y93548D01*
X198284Y93513D01*
X198282Y93483D01*
X198279Y93458D01*
X198276Y93436D01*
Y93423D01*
Y93412D01*
Y93409D01*
X198279Y93327D01*
X198290Y93248D01*
X198309Y93172D01*
X198331Y93101D01*
X198355Y93035D01*
X198385Y92972D01*
X198418Y92915D01*
X198451Y92863D01*
X198481Y92814D01*
X198513Y92773D01*
X198544Y92735D01*
X198568Y92705D01*
X198590Y92683D01*
X198609Y92664D01*
X198620Y92653D01*
X198623Y92650D01*
X198675Y92609D01*
X198732Y92571D01*
X198795Y92533D01*
X198863Y92497D01*
X198931Y92464D01*
X199005Y92434D01*
X199076Y92407D01*
X199147Y92380D01*
X199212Y92358D01*
X199275Y92336D01*
X199332Y92317D01*
X199384Y92303D01*
X199425Y92292D01*
X199442Y92287D01*
X199455Y92284D01*
X199466Y92279D01*
X199475D01*
X199480Y92276D01*
X199483D01*
X199567Y92254D01*
X199646Y92235D01*
X199717Y92219D01*
X199780Y92202D01*
X199838Y92186D01*
X199887Y92172D01*
X199930Y92161D01*
X199969Y92150D01*
X199999Y92142D01*
X200026Y92134D01*
X200048Y92126D01*
X200067Y92120D01*
X200078Y92118D01*
X200089Y92115D01*
X200092Y92112D01*
X200094D01*
X200130Y92099D01*
X200163Y92085D01*
X200220Y92058D01*
X200269Y92028D01*
X200307Y92003D01*
X200334Y91978D01*
X200354Y91962D01*
X200367Y91951D01*
X200370Y91946D01*
X200397Y91910D01*
X200416Y91872D01*
X200430Y91834D01*
X200438Y91798D01*
X200446Y91765D01*
X200449Y91741D01*
Y91725D01*
Y91722D01*
Y91719D01*
X200446Y91681D01*
X200441Y91643D01*
X200433Y91610D01*
X200419Y91574D01*
X200389Y91514D01*
X200356Y91460D01*
X200337Y91438D01*
X200321Y91416D01*
X200304Y91400D01*
X200291Y91383D01*
X200277Y91372D01*
X200269Y91364D01*
X200264Y91359D01*
X200261Y91356D01*
X200225Y91329D01*
X200184Y91304D01*
X200141Y91285D01*
X200097Y91266D01*
X200050Y91252D01*
X200004Y91239D01*
X199914Y91220D01*
X199873Y91214D01*
X199832Y91209D01*
X199797Y91206D01*
X199767Y91203D01*
X199742Y91200D01*
X199706D01*
X199644Y91203D01*
X199584Y91209D01*
X199526Y91217D01*
X199472Y91228D01*
X199423Y91241D01*
X199379Y91255D01*
X199335Y91271D01*
X199300Y91288D01*
X199264Y91304D01*
X199237Y91321D01*
X199210Y91334D01*
X199191Y91348D01*
X199174Y91359D01*
X199163Y91367D01*
X199155Y91372D01*
X199152Y91375D01*
X199117Y91411D01*
X199081Y91449D01*
X199051Y91490D01*
X199024Y91533D01*
X199000Y91580D01*
X198978Y91626D01*
X198939Y91716D01*
X198926Y91757D01*
X198915Y91795D01*
X198904Y91831D01*
X198896Y91864D01*
X198890Y91888D01*
X198885Y91908D01*
X198882Y91918D01*
Y91924D01*
X198140Y91853D01*
D01*
X198156Y91738D01*
X198180Y91629D01*
X198208Y91528D01*
X198243Y91432D01*
X198279Y91348D01*
X198317Y91269D01*
X198355Y91195D01*
X198396Y91132D01*
X198434Y91075D01*
X198470Y91026D01*
X198505Y90982D01*
X198535Y90949D01*
X198560Y90922D01*
X198579Y90903D01*
X198590Y90889D01*
X198595Y90886D01*
X198672Y90829D01*
X198754Y90777D01*
X198841Y90734D01*
X198931Y90695D01*
X199021Y90663D01*
X199114Y90638D01*
X199204Y90616D01*
X199292Y90597D01*
X199373Y90583D01*
X199450Y90573D01*
X199521Y90567D01*
X199581Y90562D01*
X199606Y90559D01*
X199630D01*
X199649Y90556D01*
X199698D01*
X199788Y90559D01*
X199876Y90562D01*
X199958Y90570D01*
X200034Y90578D01*
X200105Y90589D01*
X200173Y90600D01*
X200236Y90611D01*
X200293Y90624D01*
X200343Y90638D01*
X200389Y90649D01*
X200427Y90660D01*
X200457Y90671D01*
X200485Y90679D01*
X200504Y90687D01*
X200515Y90690D01*
X200517Y90693D01*
X200577Y90720D01*
X200635Y90750D01*
X200687Y90783D01*
X200736Y90818D01*
X200782Y90851D01*
X200823Y90886D01*
X200861Y90922D01*
X200897Y90955D01*
X200927Y90987D01*
X200954Y91018D01*
X200976Y91045D01*
X200995Y91067D01*
X201009Y91086D01*
X201020Y91102D01*
X201025Y91110D01*
X201028Y91113D01*
X201061Y91168D01*
X201088Y91220D01*
X201113Y91274D01*
X201134Y91329D01*
X201151Y91381D01*
X201167Y91430D01*
X201178Y91479D01*
X201189Y91525D01*
X201194Y91566D01*
X201200Y91604D01*
X201205Y91637D01*
X201208Y91667D01*
X201211Y91689D01*
Y90556D01*
D01*
Y94466D01*
D02*
G37*
G36*
X220012Y93423D02*
X218238D01*
D01*
X219532D01*
X219469Y93420D01*
X219409Y93409D01*
X219357Y93395D01*
X219311Y93379D01*
X219272Y93363D01*
X219242Y93349D01*
X219232Y93343D01*
X219223Y93338D01*
X219221Y93335D01*
X219218D01*
X219193Y93316D01*
X219166Y93294D01*
X219139Y93270D01*
X219111Y93242D01*
X219059Y93182D01*
X219013Y93122D01*
X218972Y93065D01*
X218953Y93038D01*
X218939Y93016D01*
X218926Y93000D01*
X218918Y92983D01*
X218912Y92975D01*
X218909Y92972D01*
Y93363D01*
X218238D01*
Y90624D01*
X218961D01*
Y91468D01*
Y91533D01*
Y91593D01*
X218964Y91708D01*
X218967Y91812D01*
X218969Y91908D01*
X218975Y91989D01*
X218980Y92066D01*
X218986Y92131D01*
X218991Y92189D01*
X218997Y92238D01*
X219002Y92279D01*
X219008Y92314D01*
X219013Y92342D01*
X219016Y92361D01*
X219019Y92374D01*
X219021Y92383D01*
Y92385D01*
X219032Y92423D01*
X219046Y92462D01*
X219059Y92494D01*
X219073Y92524D01*
X219087Y92552D01*
X219100Y92576D01*
X219125Y92620D01*
X219150Y92650D01*
X219169Y92672D01*
X219180Y92686D01*
X219185Y92688D01*
X219226Y92716D01*
X219270Y92737D01*
X219313Y92751D01*
X219354Y92762D01*
X219390Y92767D01*
X219420Y92773D01*
X219475D01*
X219504Y92767D01*
X219565Y92754D01*
X219622Y92735D01*
X219674Y92713D01*
X219720Y92691D01*
X219739Y92680D01*
X219756Y92672D01*
X219767Y92664D01*
X219777Y92658D01*
X219783Y92655D01*
X219786Y92653D01*
X220012Y93283D01*
X219969Y93308D01*
X219925Y93330D01*
X219881Y93349D01*
X219840Y93365D01*
X219758Y93390D01*
X219685Y93406D01*
X219652Y93412D01*
X219622Y93414D01*
X219597Y93417D01*
X219576Y93420D01*
X219556Y93423D01*
X220012D01*
D02*
G37*
G36*
X206523D02*
Y90624D01*
X205472D01*
Y91468D01*
Y91533D01*
Y91593D01*
X205475Y91708D01*
X205478Y91812D01*
X205481Y91908D01*
X205486Y91989D01*
X205491Y92066D01*
X205497Y92131D01*
X205502Y92189D01*
X205508Y92238D01*
X205513Y92279D01*
X205519Y92314D01*
X205524Y92342D01*
X205527Y92361D01*
X205530Y92374D01*
X205532Y92383D01*
Y92385D01*
X205543Y92423D01*
X205557Y92462D01*
X205571Y92494D01*
X205584Y92524D01*
X205598Y92552D01*
X205611Y92576D01*
X205636Y92620D01*
X205661Y92650D01*
X205680Y92672D01*
X205691Y92686D01*
X205696Y92688D01*
X205737Y92716D01*
X205781Y92737D01*
X205824Y92751D01*
X205865Y92762D01*
X205901Y92767D01*
X205931Y92773D01*
X205986D01*
X206016Y92767D01*
X206076Y92754D01*
X206133Y92735D01*
X206185Y92713D01*
X206231Y92691D01*
X206250Y92680D01*
X206267Y92672D01*
X206278Y92664D01*
X206289Y92658D01*
X206294Y92655D01*
X206297Y92653D01*
X206523Y93283D01*
X206480Y93308D01*
X206436Y93330D01*
X206392Y93349D01*
X206351Y93365D01*
X206270Y93390D01*
X206196Y93406D01*
X206163Y93412D01*
X206133Y93414D01*
X206108Y93417D01*
X206087Y93420D01*
X206067Y93423D01*
X206043D01*
X205980Y93420D01*
X205920Y93409D01*
X205868Y93395D01*
X205822Y93379D01*
X205784Y93363D01*
X205753Y93349D01*
X205743Y93343D01*
X205734Y93338D01*
X205732Y93335D01*
X205729D01*
X205704Y93316D01*
X205677Y93294D01*
X205650Y93270D01*
X205623Y93242D01*
X205571Y93182D01*
X205524Y93122D01*
X205483Y93065D01*
X205464Y93038D01*
X205451Y93016D01*
X205437Y93000D01*
X205429Y92983D01*
X205423Y92975D01*
X205420Y92972D01*
Y93363D01*
X204749D01*
D01*
Y90624D01*
X206523D01*
Y93423D01*
D02*
G37*
G36*
X214042Y92355D02*
X212619D01*
Y91632D01*
X214042D01*
Y92355D01*
D02*
G37*
G36*
X221047Y91348D02*
X220323D01*
Y90624D01*
X221047D01*
Y91348D01*
D02*
G37*
G36*
X220012Y93423D02*
Y90624D01*
D01*
Y93423D01*
D02*
G37*
G36*
X217468Y94403D02*
X214470D01*
Y90624D01*
X215177D01*
Y93098D01*
X216704Y90624D01*
X217468D01*
Y94403D01*
D02*
G37*
G36*
X211959D02*
X211235D01*
Y90624D01*
X211959D01*
Y94403D01*
D02*
G37*
G36*
X210678Y93423D02*
Y90562D01*
X209019D01*
X209106Y90564D01*
X209191Y90575D01*
X209267Y90589D01*
X209302Y90597D01*
X209335Y90608D01*
X209363Y90616D01*
X209390Y90624D01*
X209412Y90630D01*
X209434Y90638D01*
X209447Y90644D01*
X209461Y90649D01*
X209466Y90652D01*
X209469D01*
X209548Y90690D01*
X209622Y90731D01*
X209690Y90777D01*
X209748Y90821D01*
X209775Y90840D01*
X209797Y90859D01*
X209819Y90878D01*
X209835Y90892D01*
X209848Y90906D01*
X209859Y90914D01*
X209865Y90919D01*
X209868Y90922D01*
X209870Y90911D01*
X209873Y90900D01*
X209881Y90873D01*
X209887Y90859D01*
X209889Y90848D01*
X209892Y90840D01*
Y90837D01*
X209906Y90788D01*
X209920Y90745D01*
X209933Y90709D01*
X209944Y90679D01*
X209952Y90654D01*
X209958Y90638D01*
X209963Y90627D01*
Y90624D01*
X210678D01*
X210646Y90695D01*
X210618Y90764D01*
X210594Y90826D01*
X210577Y90881D01*
X210564Y90925D01*
X210558Y90944D01*
X210556Y90960D01*
X210550Y90974D01*
Y90982D01*
X210547Y90987D01*
Y90990D01*
X210542Y91026D01*
X210537Y91061D01*
X210531Y91102D01*
X210528Y91146D01*
X210523Y91233D01*
X210520Y91321D01*
X210517Y91361D01*
Y91400D01*
X210515Y91432D01*
Y91462D01*
Y91487D01*
Y91506D01*
Y91520D01*
Y91523D01*
X210525Y92366D01*
Y92451D01*
X210520Y92530D01*
X210517Y92601D01*
X210509Y92666D01*
X210504Y92726D01*
X210495Y92778D01*
X210485Y92827D01*
X210476Y92868D01*
X210468Y92904D01*
X210457Y92934D01*
X210449Y92961D01*
X210444Y92980D01*
X210435Y92997D01*
X210433Y93008D01*
X210427Y93013D01*
Y93016D01*
X210408Y93049D01*
X210386Y93079D01*
X210334Y93136D01*
X210280Y93185D01*
X210225Y93229D01*
X210173Y93261D01*
X210152Y93275D01*
X210132Y93286D01*
X210116Y93297D01*
X210105Y93303D01*
X210097Y93308D01*
X210094D01*
X210048Y93327D01*
X209996Y93346D01*
X209939Y93363D01*
X209881Y93374D01*
X209761Y93395D01*
X209701Y93404D01*
X209644Y93409D01*
X209589Y93414D01*
X209537Y93417D01*
X209491Y93420D01*
X209450D01*
X209417Y93423D01*
X210678D01*
X208109D01*
X209371D01*
X209273Y93420D01*
X209182Y93414D01*
X209098Y93404D01*
X209019Y93393D01*
X208948Y93379D01*
X208879Y93363D01*
X208819Y93343D01*
X208767Y93327D01*
X208718Y93308D01*
X208677Y93289D01*
X208642Y93273D01*
X208614Y93259D01*
X208593Y93248D01*
X208576Y93237D01*
X208565Y93231D01*
X208563Y93229D01*
X208513Y93191D01*
X208470Y93150D01*
X208426Y93103D01*
X208391Y93057D01*
X208355Y93008D01*
X208325Y92958D01*
X208295Y92912D01*
X208271Y92863D01*
X208252Y92819D01*
X208232Y92778D01*
X208216Y92740D01*
X208205Y92707D01*
X208194Y92680D01*
X208189Y92658D01*
X208186Y92647D01*
X208183Y92642D01*
X208841Y92524D01*
X208868Y92590D01*
X208896Y92647D01*
X208926Y92694D01*
X208953Y92729D01*
X208975Y92756D01*
X208997Y92778D01*
X209008Y92789D01*
X209013Y92792D01*
X209057Y92817D01*
X209106Y92836D01*
X209158Y92849D01*
X209207Y92860D01*
X209248Y92866D01*
X209267D01*
X209283Y92868D01*
X209368D01*
X209414Y92866D01*
X209458Y92860D01*
X209499Y92855D01*
X209535Y92847D01*
X209565Y92841D01*
X209595Y92833D01*
X209619Y92825D01*
X209641Y92814D01*
X209657Y92806D01*
X209674Y92800D01*
X209685Y92792D01*
X209696Y92787D01*
X209701Y92781D01*
X209706Y92778D01*
X209726Y92759D01*
X209742Y92740D01*
X209767Y92694D01*
X209786Y92645D01*
X209797Y92595D01*
X209805Y92552D01*
X209807Y92533D01*
Y92514D01*
X209810Y92500D01*
Y92489D01*
Y92484D01*
Y92481D01*
Y92410D01*
X209769Y92393D01*
X209723Y92377D01*
X209671Y92361D01*
X209616Y92347D01*
X209502Y92317D01*
X209384Y92287D01*
X209330Y92276D01*
X209278Y92265D01*
X209229Y92254D01*
X209188Y92246D01*
X209155Y92238D01*
X209128Y92235D01*
X209111Y92230D01*
X209106D01*
X209038Y92216D01*
X208972Y92202D01*
X208912Y92189D01*
X208857Y92172D01*
X208806Y92159D01*
X208759Y92145D01*
X208716Y92131D01*
X208677Y92118D01*
X208642Y92107D01*
X208612Y92096D01*
X208587Y92085D01*
X208568Y92077D01*
X208552Y92071D01*
X208538Y92066D01*
X208533Y92060D01*
X208530D01*
X208459Y92022D01*
X208396Y91976D01*
X208344Y91929D01*
X208301Y91886D01*
X208265Y91845D01*
X208241Y91812D01*
X208230Y91798D01*
X208224Y91790D01*
X208221Y91785D01*
X208219Y91782D01*
X208183Y91714D01*
X208156Y91643D01*
X208137Y91572D01*
X208123Y91509D01*
X208118Y91479D01*
X208115Y91452D01*
X208112Y91430D01*
Y91408D01*
X208109Y91391D01*
Y91370D01*
X208112Y91307D01*
X208120Y91244D01*
X208131Y91187D01*
X208148Y91132D01*
X208167Y91080D01*
X208186Y91034D01*
X208208Y90990D01*
X208232Y90949D01*
X208254Y90914D01*
X208276Y90881D01*
X208295Y90854D01*
X208314Y90832D01*
X208331Y90816D01*
X208342Y90802D01*
X208350Y90794D01*
X208352Y90791D01*
X208399Y90750D01*
X208451Y90715D01*
X208505Y90684D01*
X208560Y90657D01*
X208614Y90635D01*
X208669Y90619D01*
X208724Y90602D01*
X208776Y90592D01*
X208827Y90581D01*
X208871Y90573D01*
X208912Y90570D01*
X208948Y90564D01*
X208978D01*
X208999Y90562D01*
X210678D01*
Y93423D01*
D02*
G37*
G36*
X207558Y94403D02*
X206835D01*
Y93734D01*
X207558D01*
Y93363D01*
X206835D01*
Y90624D01*
X207558D01*
Y94403D01*
D02*
G37*
G36*
X204192Y93423D02*
Y90562D01*
X202961D01*
X203043Y90564D01*
X203122Y90570D01*
X203198Y90581D01*
X203269Y90594D01*
X203335Y90608D01*
X203397Y90627D01*
X203452Y90646D01*
X203504Y90665D01*
X203550Y90684D01*
X203594Y90701D01*
X203627Y90720D01*
X203657Y90734D01*
X203681Y90747D01*
X203698Y90758D01*
X203709Y90764D01*
X203712Y90766D01*
X203766Y90807D01*
X203818Y90851D01*
X203864Y90900D01*
X203908Y90949D01*
X203946Y90998D01*
X203984Y91050D01*
X204017Y91099D01*
X204045Y91149D01*
X204072Y91192D01*
X204094Y91236D01*
X204113Y91274D01*
X204126Y91307D01*
X204140Y91334D01*
X204148Y91356D01*
X204151Y91367D01*
X204154Y91372D01*
X203433Y91492D01*
X203408Y91419D01*
X203381Y91359D01*
X203351Y91307D01*
X203321Y91266D01*
X203296Y91233D01*
X203275Y91211D01*
X203261Y91198D01*
X203258Y91192D01*
X203256D01*
X203209Y91162D01*
X203163Y91140D01*
X203114Y91124D01*
X203070Y91113D01*
X203029Y91108D01*
X202999Y91105D01*
X202985Y91102D01*
X202969D01*
X202923Y91105D01*
X202879Y91110D01*
X202838Y91119D01*
X202797Y91129D01*
X202726Y91159D01*
X202693Y91173D01*
X202666Y91192D01*
X202639Y91209D01*
X202617Y91222D01*
X202595Y91239D01*
X202578Y91252D01*
X202565Y91263D01*
X202557Y91271D01*
X202551Y91277D01*
X202549Y91280D01*
X202519Y91315D01*
X202494Y91353D01*
X202472Y91394D01*
X202450Y91435D01*
X202434Y91476D01*
X202420Y91517D01*
X202401Y91599D01*
X202393Y91637D01*
X202387Y91670D01*
X202382Y91703D01*
X202379Y91730D01*
Y91752D01*
X202377Y91768D01*
Y91779D01*
Y91782D01*
X204192D01*
X204189Y91932D01*
X204181Y92074D01*
X204165Y92205D01*
X204146Y92325D01*
X204118Y92437D01*
X204091Y92538D01*
X204058Y92631D01*
X204025Y92713D01*
X203993Y92784D01*
X203963Y92847D01*
X203933Y92898D01*
X203905Y92942D01*
X203883Y92975D01*
X203867Y93000D01*
X203853Y93013D01*
X203851Y93019D01*
X203782Y93090D01*
X203709Y93152D01*
X203632Y93207D01*
X203553Y93253D01*
X203471Y93292D01*
X203392Y93324D01*
X203313Y93352D01*
X203239Y93374D01*
X203168Y93390D01*
X203100Y93401D01*
X203043Y93412D01*
X202991Y93417D01*
X202947Y93420D01*
X202931D01*
X202917Y93423D01*
X202890D01*
X202789Y93417D01*
X202693Y93406D01*
X202603Y93387D01*
X202519Y93363D01*
X202439Y93332D01*
X202366Y93300D01*
X202297Y93264D01*
X202235Y93229D01*
X202180Y93193D01*
X202131Y93158D01*
X202087Y93125D01*
X202052Y93095D01*
X202024Y93071D01*
X202005Y93051D01*
X201994Y93040D01*
X201989Y93035D01*
X201926Y92958D01*
X201871Y92879D01*
X201825Y92795D01*
X201784Y92707D01*
X201749Y92617D01*
X201721Y92530D01*
X201697Y92443D01*
X201678Y92358D01*
X201664Y92279D01*
X201653Y92205D01*
X201645Y92140D01*
X201639Y92082D01*
X201637Y92058D01*
Y92036D01*
Y92017D01*
X201634Y92000D01*
Y91970D01*
X201637Y91866D01*
X201645Y91765D01*
X201659Y91670D01*
X201678Y91583D01*
X201697Y91498D01*
X201719Y91422D01*
X201743Y91351D01*
X201770Y91285D01*
X201795Y91225D01*
X201820Y91173D01*
X201841Y91129D01*
X201863Y91094D01*
X201880Y91064D01*
X201893Y91042D01*
X201902Y91031D01*
X201904Y91026D01*
X201973Y90944D01*
X202049Y90873D01*
X202128Y90810D01*
X202213Y90758D01*
X202300Y90712D01*
X202387Y90676D01*
X202475Y90644D01*
X202559Y90619D01*
X202641Y90600D01*
X202718Y90586D01*
X202783Y90575D01*
X202843Y90570D01*
X202871Y90567D01*
X202892Y90564D01*
X202912D01*
X202931Y90562D01*
X204192D01*
Y93423D01*
D02*
G37*
G36*
X202699Y90562D02*
X201634D01*
D01*
X202699D01*
D02*
G37*
%LPD*%
G36*
X216761Y91872D02*
X215210Y94403D01*
X216761D01*
Y91872D01*
D02*
G37*
G36*
X209810Y91793D02*
Y91746D01*
Y91703D01*
X209807Y91662D01*
X209805Y91626D01*
X209802Y91593D01*
Y91566D01*
X209799Y91539D01*
X209797Y91517D01*
X209794Y91498D01*
X209791Y91482D01*
X209788Y91468D01*
X209786Y91457D01*
X209783Y91443D01*
X209780Y91438D01*
X209761Y91389D01*
X209737Y91342D01*
X209709Y91301D01*
X209679Y91266D01*
X209652Y91239D01*
X209630Y91217D01*
X209614Y91206D01*
X209611Y91200D01*
X209608D01*
X209576Y91179D01*
X209540Y91159D01*
X209474Y91127D01*
X209412Y91105D01*
X209354Y91088D01*
X209305Y91080D01*
X209286Y91075D01*
X209267D01*
X209253Y91072D01*
X209234D01*
X209172Y91078D01*
X209114Y91088D01*
X209065Y91108D01*
X209024Y91127D01*
X208991Y91146D01*
X208967Y91165D01*
X208950Y91176D01*
X208945Y91181D01*
X208907Y91225D01*
X208879Y91269D01*
X208860Y91312D01*
X208847Y91353D01*
X208838Y91389D01*
X208836Y91419D01*
X208833Y91430D01*
Y91438D01*
Y91441D01*
Y91443D01*
X208836Y91471D01*
X208838Y91498D01*
X208855Y91550D01*
X208877Y91593D01*
X208904Y91629D01*
X208928Y91659D01*
X208950Y91681D01*
X208967Y91694D01*
X208969Y91700D01*
X208972D01*
X208991Y91711D01*
X209016Y91722D01*
X209043Y91733D01*
X209073Y91746D01*
X209139Y91765D01*
X209204Y91785D01*
X209264Y91801D01*
X209292Y91809D01*
X209316Y91815D01*
X209338Y91820D01*
X209352Y91823D01*
X209363Y91826D01*
X209365D01*
X209420Y91837D01*
X209472Y91850D01*
X209518Y91861D01*
X209562Y91872D01*
X209603Y91880D01*
X209638Y91891D01*
X209671Y91899D01*
X209701Y91908D01*
X209728Y91913D01*
X209750Y91918D01*
X209769Y91924D01*
X209783Y91929D01*
X209797Y91932D01*
X209805Y91935D01*
X209807Y91938D01*
X209810D01*
Y91793D01*
D02*
G37*
G36*
X202974Y92866D02*
X203013Y92860D01*
X203051Y92852D01*
X203086Y92844D01*
X203149Y92817D01*
X203204Y92787D01*
X203228Y92770D01*
X203250Y92754D01*
X203267Y92740D01*
X203283Y92729D01*
X203294Y92718D01*
X203302Y92710D01*
X203307Y92705D01*
X203310Y92702D01*
X203337Y92669D01*
X203362Y92634D01*
X203384Y92598D01*
X203400Y92557D01*
X203430Y92478D01*
X203449Y92402D01*
X203458Y92366D01*
X203463Y92333D01*
X203468Y92303D01*
X203471Y92276D01*
Y92254D01*
X203474Y92238D01*
Y92227D01*
Y92224D01*
X202387D01*
Y92279D01*
X202393Y92331D01*
X202401Y92377D01*
X202409Y92423D01*
X202423Y92464D01*
X202434Y92503D01*
X202448Y92538D01*
X202464Y92571D01*
X202478Y92598D01*
X202491Y92623D01*
X202505Y92645D01*
X202516Y92661D01*
X202527Y92675D01*
X202535Y92686D01*
X202538Y92691D01*
X202540Y92694D01*
X202570Y92724D01*
X202603Y92751D01*
X202633Y92776D01*
X202669Y92795D01*
X202701Y92811D01*
X202734Y92825D01*
X202794Y92847D01*
X202824Y92855D01*
X202849Y92860D01*
X202873Y92863D01*
X202895Y92866D01*
X202912Y92868D01*
X202933D01*
X202974Y92866D01*
D02*
G37*
D10*
X75114Y68385D02*
X75135Y67812D01*
X101365Y106074D02*
X101194Y105660D01*
X102069Y61312D02*
X103517Y61061D01*
X102652Y62860D02*
X103249Y62517D01*
X102290Y63616D02*
X102652Y62860D01*
X102534Y83314D02*
X102948Y83144D01*
X102362Y83727D02*
X102534Y83314D01*
X102362Y105660D02*
X101779Y106245D01*
X103929Y61068D02*
X104105Y61078D01*
X104662Y62451D02*
X104696Y62456D01*
X104595Y62445D02*
X104662Y62451D01*
X104563Y62442D02*
X104595Y62445D01*
X111340Y74515D02*
X110225Y73843D01*
X113858Y73500D02*
X113443Y73533D01*
X113306Y74908D02*
X112389Y74833D01*
X116363Y71897D02*
X116237Y71180D01*
X116575Y72537D02*
X116458Y72227D01*
X116458D02*
X116363Y71897D01*
X117020Y61929D02*
X117641Y61487D01*
X118336Y61173D01*
X118655Y68665D02*
X117790Y68208D01*
X118721Y72951D02*
X117957Y72195D01*
X117606Y71180D01*
X118288Y74322D02*
X117726Y73991D01*
X117726Y73991D02*
X116873Y73099D01*
X118606Y74460D02*
X118288Y74322D01*
X119803Y62342D02*
X120094Y62309D01*
X120399Y62289D02*
X120717Y62283D01*
X120094Y62309D02*
X120399Y62289D01*
X119263Y62448D02*
X119526Y62388D01*
X118778Y62607D02*
X119263Y62448D01*
X120129Y67795D02*
X119725Y67684D01*
X120563Y67890D02*
X120129Y67795D01*
X119352Y67555D02*
X119010Y67409D01*
X119725Y67684D02*
X119352Y67555D01*
X120248Y69161D02*
X119677Y69021D01*
X120857Y69276D02*
X120248Y69161D01*
X119677Y69021D02*
X119146Y68856D01*
X120131Y74827D02*
X119712Y74762D01*
X120194Y73440D02*
X119901Y73388D01*
X120574Y74872D02*
X120131Y74827D01*
X120505Y73481D02*
X120194Y73440D01*
X120835Y73510D02*
X120505Y73481D01*
X119712Y74762D02*
X119318Y74680D01*
X119318D02*
X118950Y74579D01*
X119373Y73248D02*
X119137Y73160D01*
X119627Y73324D02*
X119373Y73248D01*
X119901Y73388D02*
X119627Y73324D01*
X119797Y81959D02*
X120854Y82517D01*
X119797Y83145D02*
X119920Y83209D01*
X119544Y89008D02*
X119957Y89180D01*
X120126Y89594D01*
X118958D02*
X119130Y89180D01*
X119544Y89008D01*
X120298Y105031D02*
X120126Y104617D01*
X120494Y106360D02*
X119408Y105910D01*
X121281Y60994D02*
X122572Y61312D01*
X121524Y68027D02*
X121028Y67967D01*
X122051Y68070D02*
X121524Y68027D01*
X122195Y69428D02*
X121506Y69365D01*
X122923Y69467D02*
X122195Y69428D01*
X121537Y74908D02*
X121043Y74899D01*
X123352Y63055D02*
X124434Y63819D01*
X126191Y82545D02*
X126362Y82131D01*
X126776Y83131D02*
X126362Y82959D01*
X126191Y82545D01*
X126362Y82131D02*
X126776Y81959D01*
X135969Y104957D02*
X135983Y105119D01*
X137660Y105950D02*
X136945Y106360D01*
X141851Y83300D02*
X142023Y83713D01*
X141437Y83131D02*
X141851Y83300D01*
X142747Y82417D02*
X143191Y83513D01*
X143774Y105194D02*
X143191Y104609D01*
X143559Y106360D02*
X142473Y105910D01*
X161605Y83499D02*
X162055Y82411D01*
X163141Y81959D01*
X162945Y83311D02*
X163358Y83142D01*
X162773Y83724D02*
X162945Y83311D01*
X165238Y74495D02*
X164005Y73793D01*
X167410Y74908D02*
X166381Y74822D01*
X169992Y71551D02*
X169456Y72666D01*
X169521Y74472D02*
X168901Y74714D01*
X169814Y82136D02*
X169981Y82556D01*
X169981Y82556D02*
X169398Y83142D01*
X169398Y81959D02*
X169814Y82136D01*
X171385Y71808D02*
X171178Y72535D01*
X171509Y70985D02*
X171385Y71808D01*
X180275Y74833D02*
X179235Y74515D01*
X182093Y73327D02*
X180838Y73533D01*
X187062Y74412D02*
X185882Y73664D01*
X189377Y73519D02*
X189089Y73528D01*
X191307Y72513D02*
X191194Y72691D01*
X191409Y72313D02*
X191307Y72513D01*
X191498Y72092D02*
X191409Y72313D01*
X190785Y74714D02*
X189443Y74908D01*
X190750Y73118D02*
X190566Y73227D01*
X191344Y74472D02*
X190785Y74714D01*
X189904Y73453D02*
X189649Y73494D01*
X190143Y73394D02*
X189904Y73453D01*
X190363Y73319D02*
X190143Y73394D01*
X190566Y73227D02*
X190363Y73319D01*
X191790Y69945D02*
X191767Y70665D01*
X193131Y70985D02*
X193020Y71808D01*
X191695Y71300D02*
X191641Y71585D01*
X193020Y71808D02*
X192834Y72535D01*
X191641Y71585D02*
X191576Y71849D01*
X191737Y70993D02*
X191695Y71300D01*
X75105Y68950D02*
X75114Y68385D01*
X76180Y63621D02*
X76741Y62853D01*
X77443Y62213D01*
X76498Y69189D02*
X76506Y68307D01*
X76574Y67428D01*
X76702Y66555D01*
X76889Y65693D01*
X87816Y65701D02*
X87998Y66562D01*
X88123Y67432D01*
X88188Y68310D01*
X88195Y69189D01*
X89260Y65665D02*
X89451Y66812D01*
X89561Y67971D01*
X89589Y69134D01*
X100773Y65049D02*
X100791Y64175D01*
X100859Y63303D01*
X100859D02*
X101233Y62060D01*
X102167Y64931D02*
X102290Y63616D01*
X109801Y71791D02*
X109057Y70787D01*
X111792Y73294D02*
X110735Y72666D01*
X115824Y64653D02*
X115900Y63867D01*
X116145Y63116D01*
X117218Y64789D02*
X117448Y63745D01*
X118155Y62944D01*
X119526Y62388D02*
X119803Y62342D01*
X119137Y73160D02*
X118920Y73061D01*
X119408Y105910D02*
X118958Y104823D01*
X120712Y105203D02*
X120298Y105031D01*
X124694Y72373D02*
X123578Y73224D01*
X126406Y72014D02*
X126053Y72849D01*
X125513Y73578D01*
X126684Y69945D02*
X126620Y70990D01*
X126406Y72014D01*
X125282Y69479D02*
X125259Y70288D01*
X125179Y71094D01*
X137564Y105133D02*
X137660Y105950D01*
X147713Y65470D02*
X148090Y64536D01*
X148648Y63699D01*
X148648Y72134D02*
X148089Y71307D01*
X147713Y70383D01*
X155284Y63699D02*
X155844Y64537D01*
X156226Y65470D01*
X156226Y70383D02*
X155845Y71307D01*
X155284Y72134D01*
X162773Y104823D02*
X162323Y105910D01*
X169456Y72666D02*
X168486Y73319D01*
X171551Y70065D02*
X171509Y70985D01*
X178075Y73818D02*
X177390Y73236D01*
X176767Y72588D01*
X182929Y72691D02*
X182093Y73327D01*
X183501Y69945D02*
X183474Y70763D01*
X183373Y71576D01*
X191194Y72691D02*
X190750Y73118D01*
X192834Y72535D02*
X192573Y73164D01*
X193168Y70065D02*
X193131Y70985D01*
X191767Y70665D02*
X191737Y70993D01*
X75165Y67229D02*
X75271Y66276D01*
X75469Y65339D01*
X76889Y65693D02*
X77327Y64568D01*
X78032Y63588D01*
X86700Y63596D02*
X87388Y64580D01*
X87816Y65701D01*
X118699Y67246D02*
X117904Y66635D01*
X117387Y65777D01*
X117218Y64789D01*
X184784Y72468D02*
X184274Y73504D01*
X183448Y74309D01*
X146456Y70887D02*
X146219Y69914D01*
X146076Y68922D01*
X146028Y67921D01*
X146076Y66919D01*
X146219Y65928D01*
X146456Y64954D01*
X147713Y70383D02*
X147503Y69411D01*
X147398Y68423D01*
X147398Y67429D01*
X147503Y66441D01*
X147713Y65470D01*
X156226D02*
X156443Y66440D01*
X156553Y67429D01*
Y68423D01*
X156443Y69412D01*
X156226Y70383D01*
X157551Y64962D02*
X157784Y65931D01*
X157926Y66917D01*
X157973Y67912D01*
X157926Y68907D01*
X157784Y69894D01*
X157551Y70862D01*
X77443Y62213D02*
X78401Y61645D01*
X79445Y61259D01*
X79445Y61259D02*
X80400Y61052D01*
X81369Y60934D01*
X82345Y60908D01*
X78032Y63588D02*
X78879Y62945D01*
X79869Y62556D01*
X84863Y62556D02*
X85856Y62944D01*
X86700Y63596D01*
X101233Y62060D02*
X102069Y61312D01*
X103249Y62517D02*
X104055Y62439D01*
X101194Y83499D02*
X101644Y82411D01*
X102730Y81959D01*
X101779Y106245D02*
X101365Y106074D01*
X110735Y72666D02*
X109801Y71791D01*
X112389Y74833D02*
X111340Y74515D01*
X112938Y73533D02*
X111792Y73294D01*
X118336Y61173D02*
X119148Y60971D01*
X119981Y60908D01*
X122572Y61312D02*
X123896Y61948D01*
X119981Y60908D02*
X121281Y60994D01*
X122095Y62497D02*
X123352Y63055D01*
X118155Y62944D02*
X118778Y62607D01*
X123196Y68105D02*
X122051Y68070D01*
X121028Y67967D02*
X120563Y67890D01*
X119010Y67409D02*
X118699Y67246D01*
X121506Y69365D02*
X120857Y69276D01*
X123690Y69479D02*
X122923Y69467D01*
X125179Y71094D02*
X124694Y72373D01*
X118920Y73061D02*
X118721Y72951D01*
X125513Y73578D02*
X124775Y74167D01*
X123918Y74565D01*
X123918D02*
X122742Y74836D01*
X121537Y74908D01*
X123578Y73224D02*
X122580Y73476D01*
X121551Y73533D01*
X121043Y74899D02*
X120574Y74872D01*
X121551Y73533D02*
X120835Y73510D01*
X118950Y74579D02*
X118606Y74460D01*
X141657Y81959D02*
X142747Y82417D01*
X148648Y63699D02*
X149307Y63080D01*
X150095Y62634D01*
X153837D02*
X154624Y63080D01*
X155284Y63699D01*
X154455Y74431D02*
X153652Y74702D01*
X152820Y74862D01*
X151974Y74908D01*
X164831Y72864D02*
X164065Y72301D01*
X163356Y71669D01*
X162709Y70974D01*
X168486Y73319D02*
X167022Y73533D01*
X168901Y74714D02*
X168162Y74864D01*
X167410Y74908D01*
X166381Y74822D02*
X165238Y74495D01*
X161605Y104609D02*
X161022Y105194D01*
X162323Y105910D02*
X161237Y106360D01*
X183373Y71576D02*
X182929Y72691D01*
X183448Y74309D02*
X182377Y74774D01*
X181217Y74908D01*
X181217Y74908D02*
X180275Y74833D01*
X179235Y74515D02*
X178075Y73818D01*
X191576Y71849D02*
X191498Y72092D01*
X189443Y74908D02*
X188266Y74796D01*
X192573Y73164D02*
X192058Y73911D01*
X191344Y74472D01*
X189649Y73494D02*
X189377Y73519D01*
X188266Y74796D02*
X187062Y74412D01*
X79869Y62556D02*
X80689Y62396D01*
X81519Y62302D01*
X82354Y62277D01*
X75469Y65339D02*
X75768Y64456D01*
X76180Y63621D01*
X85892Y61466D02*
X86728Y61864D01*
X87478Y62407D01*
X88117Y63077D01*
X116145Y63116D02*
X117020Y61929D01*
X116873Y73099D02*
X116575Y72537D01*
X123896Y61948D02*
X124617Y62426D01*
X125290Y62969D01*
X120717Y62283D02*
X122095Y62497D01*
X124434Y63819D02*
X125290Y64636D01*
X119146Y68856D02*
X118655Y68665D01*
X142473Y105910D02*
X142023Y104823D01*
X135983Y105119D02*
X135844Y105202D01*
X147669Y62745D02*
X148528Y61952D01*
X149548Y61379D01*
X146456Y64954D02*
X146761Y64166D01*
X147168Y63426D01*
X147669Y62746D01*
X150095Y73182D02*
X149310Y72743D01*
X148648Y72134D01*
X147661Y73079D02*
X147161Y72405D01*
X146757Y71670D01*
X146456Y70887D01*
X151974Y62283D02*
X152923Y62365D01*
X153837Y62634D01*
X154458Y61379D02*
X155482Y61958D01*
X156349Y62754D01*
X156847Y63434D01*
X157250Y64175D01*
X157551Y64962D01*
X157551Y70862D02*
X157248Y71646D01*
X156843Y72382D01*
X156343Y73057D01*
X155284Y72134D02*
X154622Y72743D01*
X153837Y73182D01*
X164005Y73793D02*
X163330Y73224D01*
X162717Y72588D01*
X167022Y73533D02*
X165878Y73359D01*
X164831Y72864D01*
X170156Y69945D02*
X170121Y70753D01*
X169992Y71551D01*
X180838Y73533D02*
X179746Y73355D01*
X178758Y72856D01*
X185882Y73664D02*
X185294Y73102D01*
X184784Y72468D01*
X189089Y73528D02*
X187960Y73348D01*
X186931Y72850D01*
X88117Y63077D02*
X88626Y63879D01*
X89011Y64748D01*
X89260Y65665D01*
X149548Y74445D02*
X148526Y73870D01*
X147661Y73079D01*
X156343Y73057D02*
X155479Y73853D01*
X154455Y74431D01*
X171178Y72535D02*
X170802Y73318D01*
X170237Y73979D01*
X169522Y74472D01*
X82345Y60908D02*
X83248Y60923D01*
X84145Y61022D01*
X85028Y61203D01*
X85892Y61466D01*
X149548Y61379D02*
X150508Y61082D01*
X151501Y60931D01*
X152506D01*
X153499Y61082D01*
X154458Y61379D01*
X153837Y73182D02*
X152917Y73445D01*
X151966Y73533D01*
X151014Y73445D01*
X150095Y73182D01*
X151974Y74908D02*
X150738Y74798D01*
X149548Y74445D01*
X82354Y62277D02*
X83197Y62303D01*
X84035Y62396D01*
X84863Y62556D01*
X110225Y73843D02*
X109609Y73318D01*
X109057Y72728D01*
X150095Y62634D02*
X151017Y62365D01*
X151974Y62283D01*
X186931Y72850D02*
X186185Y72286D01*
X185504Y71645D01*
X184895Y70935D01*
X178758Y72856D02*
X178035Y72281D01*
X177369Y71641D01*
X176767Y70940D01*
X117790Y68208D02*
X116956Y67551D01*
X116323Y66698D01*
X115937Y65709D01*
X115824Y64653D01*
X75135Y67812D02*
X75165Y67229D01*
X75104Y69136D02*
X75105Y68950D01*
X99058Y73190D02*
Y74565D01*
X103517Y61061D02*
X103575Y61062D01*
X103634Y61062D01*
X103693Y61062D01*
X103752Y61063D02*
X103811Y61064D01*
X103870Y61066D01*
X103929Y61068D01*
X104105Y61078D02*
X104164Y61082D01*
X104281Y61092D01*
X104399Y61102D01*
X104517Y61112D01*
X104693Y61131D01*
X104532Y62441D02*
X104563Y62442D01*
X104500Y62440D02*
X104532Y62441D01*
X104470Y62439D02*
X104500Y62440D01*
X104441Y62439D02*
X104470Y62439D01*
X104384Y62439D02*
X104441Y62439D01*
X104055Y62439D02*
X104384D01*
X104367Y73193D02*
Y74568D01*
X113306Y74908D02*
X113566D01*
X113844Y74883D02*
X113858Y73500D01*
X113566Y74908D02*
X113844Y74883D01*
X112938Y73533D02*
X113443D01*
X125290Y61251D02*
X126684D01*
X170156D02*
X171550D01*
X183501Y61245D02*
X184895D01*
X191790Y61251D02*
X193185D01*
X100773Y74565D02*
Y78056D01*
X102167Y74568D02*
Y78056D01*
X104693Y61131D02*
X104696Y62456D01*
X125290Y61251D02*
Y62969D01*
X129272Y61251D02*
Y63072D01*
X130398Y78686D02*
Y80063D01*
X143860Y61251D02*
Y62626D01*
X143503Y78223D02*
Y80063D01*
X109057Y72728D02*
Y74565D01*
X125290Y64636D02*
Y68105D01*
X162709Y80063D02*
X162717Y72588D01*
X176767D02*
Y74565D01*
X75104Y69136D02*
Y80063D01*
X76498Y69189D02*
Y80063D01*
X88195Y69189D02*
Y80063D01*
X89589Y69134D02*
Y80063D01*
X94430Y61251D02*
Y80063D01*
X95824Y61251D02*
Y80063D01*
X101194Y83499D02*
Y105660D01*
X100773Y65049D02*
Y73190D01*
X102362Y83727D02*
Y105660D01*
X102167Y64931D02*
Y73193D01*
X107663Y61251D02*
Y74565D01*
X109057Y61251D02*
Y70787D01*
X120126Y89594D02*
Y104617D01*
X118958Y89594D02*
Y104823D01*
X126684Y61251D02*
Y69945D01*
X142023Y83713D02*
Y104823D01*
X143191Y83513D02*
Y104609D01*
X161315Y61251D02*
Y80063D01*
X162773Y83724D02*
Y104823D01*
X161605Y83499D02*
Y104609D01*
X162709Y61251D02*
Y70974D01*
X171550Y61251D02*
Y70065D01*
X170156Y61251D02*
Y69945D01*
X175373Y61251D02*
Y74565D01*
X176767Y61251D02*
Y70940D01*
X184895Y61245D02*
Y70935D01*
X183501Y61245D02*
Y69945D01*
X193168Y70065D02*
X193185Y61251D01*
X191790D02*
Y69945D01*
X75104Y80063D02*
X76498D01*
X88195D02*
X89589D01*
X94430Y61251D02*
X95824D01*
X94430Y80063D02*
X95824D01*
X107663Y61251D02*
X109057D01*
X103693Y61062D02*
X103752Y61063D01*
X102167Y74568D02*
X104367D01*
X102167Y73193D02*
X104367D01*
X107663Y74565D02*
X109057D01*
X100773Y78056D02*
X102167D01*
X116237Y71180D02*
X117606D01*
X123196Y68105D02*
X125290D01*
X123690Y69479D02*
X125282D01*
X161315Y61251D02*
X162709D01*
X161315Y80063D02*
X162709D01*
X175373Y61251D02*
X176767D01*
X175373Y74565D02*
X176767D01*
X99058D02*
X100773D01*
X99058Y73190D02*
X100773D01*
X102948Y83145D02*
X119797D01*
X102730Y81959D02*
X119797D01*
X130677Y62626D02*
X143860D01*
X143774Y105194D02*
X161022D01*
X143559Y106360D02*
X161237D01*
X130677Y62626D02*
X143503Y78223D01*
X129272Y61251D02*
X143860D01*
X130398Y78686D02*
X142076D01*
X130398Y80063D02*
X143503D01*
X126776Y83131D02*
X141437D01*
X126776Y81959D02*
X141657D01*
X163358Y83142D02*
X169398D01*
X163141Y81959D02*
X169398D01*
X120494Y106360D02*
X136945D01*
X120712Y105203D02*
X135844D01*
X120854Y82517D02*
X137564Y105133D01*
X119920Y83209D02*
X135969Y104957D01*
X129272Y63072D02*
X142076Y78686D01*
D11*
X222539Y61023D02*
Y87007D01*
X196555D02*
X222539D01*
X196555Y61023D02*
Y87007D01*
Y61023D02*
X222539D01*
D12*
X152280Y182125D02*
X192280D01*
X152280Y132125D02*
X192280D01*
X152280D02*
Y182125D01*
X192280Y132125D02*
Y182125D01*
X112279Y182125D02*
X152279D01*
X112279Y132125D02*
X152279D01*
X112279D02*
Y182125D01*
X152279Y132125D02*
Y182125D01*
X272280Y132125D02*
Y182125D01*
X232280Y132125D02*
Y182125D01*
Y132125D02*
X272280D01*
X232280Y182125D02*
X272280D01*
X192280D02*
X232280D01*
X192280Y132125D02*
X232280D01*
X192280D02*
Y182125D01*
X232280Y132125D02*
Y182125D01*
X72280D02*
X112280D01*
X72280Y132125D02*
X112280D01*
X72280D02*
Y182125D01*
X112280Y132125D02*
Y182125D01*
X250965Y29909D02*
Y31908D01*
Y30908D01*
X245966D01*
X244967Y31908D01*
Y32908D01*
X245966Y33907D01*
X244967Y27909D02*
Y25910D01*
Y26910D01*
X250965D01*
X249965Y27909D01*
D13*
X250688Y117846D02*
X249377D01*
X248721Y117190D01*
Y114566D01*
X249377Y113910D01*
X250688D01*
X251344Y114566D01*
Y117190D01*
X250688Y117846D01*
X255280Y117190D02*
X254624Y117846D01*
X253312D01*
X252656Y117190D01*
Y114566D01*
X253312Y113910D01*
X254624D01*
X255280Y114566D01*
X199114Y118174D02*
Y115550D01*
X200426Y114238D01*
X201738Y115550D01*
Y118174D01*
X203050Y113582D02*
X205674D01*
X206986Y118174D02*
Y114238D01*
X209610D01*
X213545Y117518D02*
X212889Y118174D01*
X211577D01*
X210921Y117518D01*
Y116862D01*
X211577Y116206D01*
X212889D01*
X213545Y115550D01*
Y114894D01*
X212889Y114238D01*
X211577D01*
X210921Y114894D01*
X214857Y113582D02*
X217481D01*
X218793Y114238D02*
Y118174D01*
X220761D01*
X221417Y117518D01*
Y116206D01*
X220761Y115550D01*
X218793D01*
X222729Y118174D02*
Y114238D01*
X224041Y115550D01*
X225353Y114238D01*
Y118174D01*
X226664Y114238D02*
Y118174D01*
X227976Y116862D01*
X229288Y118174D01*
Y114238D01*
X159350Y118174D02*
Y114894D01*
X160006Y114238D01*
X161318D01*
X161974Y114894D01*
Y118174D01*
X163286Y113582D02*
X165910D01*
X167222Y118174D02*
Y114238D01*
X169846D01*
X173782Y117518D02*
X173126Y118174D01*
X171814D01*
X171158Y117518D01*
Y116862D01*
X171814Y116206D01*
X173126D01*
X173782Y115550D01*
Y114894D01*
X173126Y114238D01*
X171814D01*
X171158Y114894D01*
X175093Y113582D02*
X177717D01*
X179029Y114238D02*
Y118174D01*
X180997D01*
X181653Y117518D01*
Y116206D01*
X180997Y115550D01*
X179029D01*
X182965Y118174D02*
Y114238D01*
X184277Y115550D01*
X185589Y114238D01*
Y118174D01*
X186901Y114238D02*
Y118174D01*
X188213Y116862D01*
X189524Y118174D01*
Y114238D01*
X118405Y118174D02*
Y114238D01*
X119718Y115550D01*
X121029Y114238D01*
Y118174D01*
X122341Y113582D02*
X124965D01*
X126277Y118174D02*
Y114238D01*
X128901D01*
X132837Y117518D02*
X132181Y118174D01*
X130869D01*
X130213Y117518D01*
Y116862D01*
X130869Y116206D01*
X132181D01*
X132837Y115550D01*
Y114894D01*
X132181Y114238D01*
X130869D01*
X130213Y114894D01*
X134149Y113582D02*
X136772D01*
X138084Y114238D02*
Y118174D01*
X140052D01*
X140708Y117518D01*
Y116206D01*
X140052Y115550D01*
X138084D01*
X142020Y118174D02*
Y114238D01*
X143332Y115550D01*
X144644Y114238D01*
Y118174D01*
X145956Y114238D02*
Y118174D01*
X147268Y116862D01*
X148580Y118174D01*
Y114238D01*
X84415Y117518D02*
X83759Y118174D01*
X82447D01*
X81791Y117518D01*
Y114894D01*
X82447Y114238D01*
X83759D01*
X84415Y114894D01*
Y116206D01*
X83103D01*
X85727Y118174D02*
Y114238D01*
X87695D01*
X88351Y114894D01*
Y117518D01*
X87695Y118174D01*
X85727D01*
X89663Y113582D02*
X92287D01*
X93599Y118174D02*
Y114238D01*
X95566D01*
X96222Y114894D01*
Y117518D01*
X95566Y118174D01*
X93599D01*
X97534D02*
X98846D01*
X98190D01*
Y114238D01*
X97534D01*
X98846D01*
X103438Y117518D02*
X102782Y118174D01*
X101470D01*
X100814Y117518D01*
Y116862D01*
X101470Y116206D01*
X102782D01*
X103438Y115550D01*
Y114894D01*
X102782Y114238D01*
X101470D01*
X100814Y114894D01*
X247475Y126770D02*
X246163D01*
X246819D01*
Y123491D01*
X246163Y122835D01*
X245507D01*
X244851Y123491D01*
X248787Y126114D02*
X249443Y126770D01*
X250754D01*
X251410Y126114D01*
Y125459D01*
X250754Y124803D01*
X250098D01*
X250754D01*
X251410Y124147D01*
Y123491D01*
X250754Y122835D01*
X249443D01*
X248787Y123491D01*
X252722Y126770D02*
Y122835D01*
X254690D01*
X255346Y123491D01*
Y124147D01*
X254690Y124803D01*
X252722D01*
X254690D01*
X255346Y125459D01*
Y126114D01*
X254690Y126770D01*
X252722D01*
X88183Y127952D02*
X86871D01*
X87527D01*
Y124672D01*
X86871Y124016D01*
X86215D01*
X85559Y124672D01*
X92119Y124016D02*
X89495D01*
X92119Y126640D01*
Y127296D01*
X91463Y127952D01*
X90151D01*
X89495Y127296D01*
X96055D02*
X95399Y127952D01*
X94087D01*
X93431Y127296D01*
Y124672D01*
X94087Y124016D01*
X95399D01*
X96055Y124672D01*
Y125984D01*
X94743D01*
X128105Y127558D02*
X126793D01*
X127449D01*
Y124278D01*
X126793Y123622D01*
X126137D01*
X125481Y124278D01*
X132040Y123622D02*
X129417D01*
X132040Y126246D01*
Y126902D01*
X131384Y127558D01*
X130072D01*
X129417Y126902D01*
X135976Y127558D02*
X133352D01*
Y125590D01*
X134664D01*
X133352D01*
Y123622D01*
X208420Y127164D02*
X207108D01*
X207764D01*
Y123884D01*
X207108Y123228D01*
X206452D01*
X205796Y123884D01*
X212355Y123228D02*
X209732D01*
X212355Y125852D01*
Y126508D01*
X211699Y127164D01*
X210387D01*
X209732Y126508D01*
X213667Y127164D02*
Y123228D01*
X215635D01*
X216291Y123884D01*
Y126508D01*
X215635Y127164D01*
X213667D01*
X167947Y126770D02*
X166635D01*
X167291D01*
Y123491D01*
X166635Y122835D01*
X165979D01*
X165323Y123491D01*
X171883Y122835D02*
X169259D01*
X171883Y125459D01*
Y126114D01*
X171227Y126770D01*
X169915D01*
X169259Y126114D01*
X173195Y126770D02*
Y122835D01*
X175163D01*
X175819Y123491D01*
Y124147D01*
X175163Y124803D01*
X173195D01*
X175163D01*
X175819Y125459D01*
Y126114D01*
X175163Y126770D01*
X173195D01*
M02*
