G04*
G04 #@! TF.GenerationSoftware,Altium Limited,Altium Designer,24.10.1 (45)*
G04*
G04 Layer_Color=16711935*
%FSLAX25Y25*%
%MOIN*%
G70*
G04*
G04 #@! TF.SameCoordinates,17EAC3D7-2FD0-4994-96B9-6E418DA51305*
G04*
G04*
G04 #@! TF.FilePolarity,Negative*
G04*
G01*
G75*
%ADD15R,0.02559X0.11417*%
%ADD16R,0.05984X0.05984*%
%ADD17C,0.05984*%
%ADD18C,0.06591*%
%ADD19C,0.06102*%
%ADD20C,0.04784*%
%ADD21C,0.09646*%
%ADD22C,0.13976*%
%ADD23C,0.02362*%
%ADD40R,0.02200X0.05750*%
%ADD41R,0.02401X0.07107*%
%ADD43R,0.02410X0.07107*%
%ADD52R,0.04331X0.03937*%
%ADD53R,0.04134X0.03347*%
%ADD54R,0.03937X0.04331*%
G04:AMPARAMS|DCode=55|XSize=33.86mil|YSize=40.55mil|CornerRadius=7.57mil|HoleSize=0mil|Usage=FLASHONLY|Rotation=0.000|XOffset=0mil|YOffset=0mil|HoleType=Round|Shape=RoundedRectangle|*
%AMROUNDEDRECTD55*
21,1,0.03386,0.02542,0,0,0.0*
21,1,0.01873,0.04055,0,0,0.0*
1,1,0.01513,0.00936,-0.01271*
1,1,0.01513,-0.00936,-0.01271*
1,1,0.01513,-0.00936,0.01271*
1,1,0.01513,0.00936,0.01271*
%
%ADD55ROUNDEDRECTD55*%
%ADD56C,0.04528*%
%ADD57R,0.03740X0.03740*%
%ADD58R,0.03347X0.04134*%
%ADD59R,0.04134X0.04528*%
%ADD60R,0.04528X0.04134*%
%ADD61O,0.03937X0.02165*%
%ADD62R,0.03740X0.03740*%
%ADD63R,0.04528X0.06102*%
%ADD64R,0.06102X0.02362*%
G04:AMPARAMS|DCode=65|XSize=53.54mil|YSize=77.56mil|CornerRadius=10.81mil|HoleSize=0mil|Usage=FLASHONLY|Rotation=90.000|XOffset=0mil|YOffset=0mil|HoleType=Round|Shape=RoundedRectangle|*
%AMROUNDEDRECTD65*
21,1,0.05354,0.05593,0,0,90.0*
21,1,0.03192,0.07756,0,0,90.0*
1,1,0.02163,0.02797,0.01596*
1,1,0.02163,0.02797,-0.01596*
1,1,0.02163,-0.02797,-0.01596*
1,1,0.02163,-0.02797,0.01596*
%
%ADD65ROUNDEDRECTD65*%
%ADD66R,0.06102X0.04528*%
D15*
X62205Y-14961D02*
D03*
X65354D02*
D03*
X68504D02*
D03*
X71653D02*
D03*
X74803D02*
D03*
X77953D02*
D03*
X81102D02*
D03*
X84252D02*
D03*
X87402D02*
D03*
X93701D02*
D03*
X96850D02*
D03*
X90551D02*
D03*
X100000D02*
D03*
X103150D02*
D03*
X106299D02*
D03*
X109449D02*
D03*
X112598D02*
D03*
X115748D02*
D03*
X118898D02*
D03*
X122047D02*
D03*
X137795D02*
D03*
X140945D02*
D03*
X147244D02*
D03*
X150394D02*
D03*
X144095D02*
D03*
X153543D02*
D03*
X156693D02*
D03*
X159843D02*
D03*
X162992D02*
D03*
X166142D02*
D03*
X169291D02*
D03*
X172441D02*
D03*
X175591D02*
D03*
X178740D02*
D03*
X181890D02*
D03*
X188189D02*
D03*
X191339D02*
D03*
X185039D02*
D03*
X194488D02*
D03*
X197638D02*
D03*
X200787D02*
D03*
X203937D02*
D03*
X207087D02*
D03*
X210236D02*
D03*
X213386D02*
D03*
X216535D02*
D03*
X219685D02*
D03*
X222835D02*
D03*
X225984D02*
D03*
X229134D02*
D03*
X232283D02*
D03*
X235433D02*
D03*
X37008D02*
D03*
X40157D02*
D03*
X43307D02*
D03*
X46457D02*
D03*
X52756D02*
D03*
X55905D02*
D03*
X59055D02*
D03*
X49606D02*
D03*
D16*
X48232Y9091D02*
D03*
D17*
X58232D02*
D03*
X48232Y19091D02*
D03*
X58232D02*
D03*
X48232Y29091D02*
D03*
X58232D02*
D03*
D18*
X163228Y158661D02*
D03*
X153228D02*
D03*
X183228D02*
D03*
X173228D02*
D03*
X153228Y188661D02*
D03*
X183228D02*
D03*
X172535Y171339D02*
D03*
X202535D02*
D03*
X182535Y141339D02*
D03*
X172535D02*
D03*
X202535D02*
D03*
X192535D02*
D03*
X132535Y171339D02*
D03*
X162535D02*
D03*
X142535Y141339D02*
D03*
X132535D02*
D03*
X162535D02*
D03*
X152535D02*
D03*
X203228Y158661D02*
D03*
X193228D02*
D03*
X223228D02*
D03*
X213228D02*
D03*
X193228Y188661D02*
D03*
X223228D02*
D03*
X263228D02*
D03*
X233228D02*
D03*
X253228Y158661D02*
D03*
X263228D02*
D03*
X233228D02*
D03*
X243228D02*
D03*
X272535Y141339D02*
D03*
X282535D02*
D03*
X252535D02*
D03*
X262535D02*
D03*
X282535Y171339D02*
D03*
X252535D02*
D03*
X212535D02*
D03*
X242535D02*
D03*
X222535Y141339D02*
D03*
X212535D02*
D03*
X242535D02*
D03*
X232535D02*
D03*
X123228Y158661D02*
D03*
X113228D02*
D03*
X143228D02*
D03*
X133228D02*
D03*
X113228Y188661D02*
D03*
X143228D02*
D03*
X92535Y171339D02*
D03*
X122535D02*
D03*
X102535Y141339D02*
D03*
X92535D02*
D03*
X122535D02*
D03*
X112535D02*
D03*
D19*
X22047Y148819D02*
D03*
X27047Y138819D02*
D03*
X32047Y148819D02*
D03*
X37047Y138819D02*
D03*
X42047Y148819D02*
D03*
X47047Y138819D02*
D03*
X52047Y148819D02*
D03*
X57047Y138819D02*
D03*
D20*
X17067Y173819D02*
D03*
X62067D02*
D03*
D21*
X9055Y185600D02*
D03*
X69980D02*
D03*
D22*
X167413Y96315D02*
D03*
D23*
X81102Y34646D02*
D03*
X170079Y66929D02*
D03*
X169685Y72835D02*
D03*
X5906Y98819D02*
D03*
X168504Y18504D02*
D03*
X166911Y15354D02*
D03*
X156459D02*
D03*
X237795Y20866D02*
D03*
X216535Y11417D02*
D03*
X182677Y-7087D02*
D03*
X93670Y-7858D02*
D03*
X90548Y-7874D02*
D03*
X226275Y-7087D02*
D03*
X198158D02*
D03*
X222835Y-3543D02*
D03*
X200740Y-4483D02*
D03*
X203890Y-7874D02*
D03*
X178693Y-5030D02*
D03*
X162945Y-7874D02*
D03*
X207039D02*
D03*
X194441D02*
D03*
X191291D02*
D03*
X175543D02*
D03*
X172394D02*
D03*
X137795D02*
D03*
X87436D02*
D03*
X68504D02*
D03*
X105488Y-732D02*
D03*
X122047Y3150D02*
D03*
X115748D02*
D03*
X118898Y5906D02*
D03*
X134252Y12205D02*
D03*
X127080Y11023D02*
D03*
X246465Y70769D02*
D03*
X277048Y56536D02*
D03*
X231496Y70866D02*
D03*
X287032Y70322D02*
D03*
X256419Y100960D02*
D03*
X264950Y40297D02*
D03*
X241431Y49349D02*
D03*
X254850Y40157D02*
D03*
X236614Y70866D02*
D03*
X264925Y45940D02*
D03*
X262059Y56575D02*
D03*
X266996Y56556D02*
D03*
X281946Y56457D02*
D03*
X236441Y49336D02*
D03*
X229090Y103679D02*
D03*
X226521Y49312D02*
D03*
X150394Y-7701D02*
D03*
X168498Y12986D02*
D03*
X161591Y36246D02*
D03*
X224016Y40157D02*
D03*
X214173D02*
D03*
X157231Y41315D02*
D03*
X144488Y43307D02*
D03*
X223966Y46052D02*
D03*
X144486Y48289D02*
D03*
X221574Y49249D02*
D03*
X164144Y52919D02*
D03*
X183753Y64953D02*
D03*
X137128Y67721D02*
D03*
X163976Y68418D02*
D03*
X143098Y69073D02*
D03*
X169291Y69685D02*
D03*
X221654Y70866D02*
D03*
X216535D02*
D03*
X192126Y79134D02*
D03*
X146720Y80458D02*
D03*
X202626Y81496D02*
D03*
X137894Y84079D02*
D03*
X193701Y85433D02*
D03*
X187461Y89492D02*
D03*
X186575Y94807D02*
D03*
X139370Y101575D02*
D03*
X194488Y102362D02*
D03*
X184396D02*
D03*
X263975Y103991D02*
D03*
X209842Y111811D02*
D03*
X224923Y113443D02*
D03*
X259884Y113693D02*
D03*
X221607Y120968D02*
D03*
X256729Y121187D02*
D03*
X266929Y125591D02*
D03*
X231890D02*
D03*
X221654D02*
D03*
X256793Y126032D02*
D03*
X174167Y111922D02*
D03*
X138976Y112205D02*
D03*
X201575Y115748D02*
D03*
X165055Y115820D02*
D03*
X194882Y120079D02*
D03*
X159055D02*
D03*
X155614Y127772D02*
D03*
X192126Y127953D02*
D03*
X201969Y132677D02*
D03*
X165748D02*
D03*
X191732D02*
D03*
X155710Y132775D02*
D03*
X105986Y-7701D02*
D03*
X81102D02*
D03*
X96649Y-6867D02*
D03*
X102362Y8268D02*
D03*
X92126D02*
D03*
X81890D02*
D03*
X108325Y11072D02*
D03*
X108387Y22770D02*
D03*
X126931Y22920D02*
D03*
X92111Y25611D02*
D03*
X81906Y25645D02*
D03*
X102342Y25648D02*
D03*
X127707Y39407D02*
D03*
X90899Y39825D02*
D03*
X98383Y43023D02*
D03*
X109377Y43154D02*
D03*
X132893Y43310D02*
D03*
X109341Y48532D02*
D03*
X125609Y54079D02*
D03*
X98504Y63331D02*
D03*
X133033Y64104D02*
D03*
X102508Y67413D02*
D03*
X108237Y69174D02*
D03*
X87008Y74803D02*
D03*
X111417Y81890D02*
D03*
X132283Y88583D02*
D03*
X87151Y89926D02*
D03*
X96063Y90158D02*
D03*
X65354Y-7701D02*
D03*
X59060D02*
D03*
X46409D02*
D03*
X69191Y42567D02*
D03*
X3888Y50394D02*
D03*
X57087D02*
D03*
X60236Y52756D02*
D03*
X7087Y53150D02*
D03*
X62598Y61098D02*
D03*
X9241Y61151D02*
D03*
X4896Y68803D02*
D03*
X58268Y68898D02*
D03*
X-394D02*
D03*
X52756D02*
D03*
X69402Y81779D02*
D03*
X46457Y81890D02*
D03*
X-6693D02*
D03*
X16142D02*
D03*
X5867Y85433D02*
D03*
X3406D02*
D03*
X-5914Y87215D02*
D03*
X65748Y87402D02*
D03*
X13108Y88083D02*
D03*
X129134Y96457D02*
D03*
X92913Y97638D02*
D03*
X129134Y101575D02*
D03*
X92849Y102575D02*
D03*
X102629Y102705D02*
D03*
X61927Y106464D02*
D03*
X107087Y111811D02*
D03*
X62205Y114173D02*
D03*
X130602Y115927D02*
D03*
X91732Y120079D02*
D03*
X124016Y120472D02*
D03*
X68504Y125591D02*
D03*
X88528Y127973D02*
D03*
X120840Y128254D02*
D03*
X98819Y132677D02*
D03*
X88569Y132775D02*
D03*
X130996Y132856D02*
D03*
X120760D02*
D03*
X56299Y95669D02*
D03*
X2953Y96063D02*
D03*
X59449Y98425D02*
D03*
X8391Y107157D02*
D03*
X56488Y114233D02*
D03*
X9055Y116142D02*
D03*
X3150D02*
D03*
X45669Y125591D02*
D03*
X-7874Y128347D02*
D03*
X15224Y128380D02*
D03*
X-5512Y180709D02*
D03*
D40*
X216496Y74505D02*
D03*
X221496D02*
D03*
X226496D02*
D03*
X231496D02*
D03*
X236496D02*
D03*
X241496D02*
D03*
X246496D02*
D03*
Y53054D02*
D03*
X241496D02*
D03*
X236496D02*
D03*
X231496D02*
D03*
X226496D02*
D03*
X221496D02*
D03*
X216496D02*
D03*
X257047Y52661D02*
D03*
X262047D02*
D03*
X267047D02*
D03*
X272047D02*
D03*
X277047D02*
D03*
X282047D02*
D03*
X287047D02*
D03*
Y74111D02*
D03*
X282047D02*
D03*
X277047D02*
D03*
X272047D02*
D03*
X267047D02*
D03*
X262047D02*
D03*
X257047D02*
D03*
D41*
X139192Y55652D02*
D03*
X142933D02*
D03*
X146673D02*
D03*
Y64711D02*
D03*
X142933D02*
D03*
X139192D02*
D03*
X104547Y55652D02*
D03*
X108287D02*
D03*
X112027D02*
D03*
Y64711D02*
D03*
X108287D02*
D03*
X104547D02*
D03*
D43*
X167913Y48620D02*
D03*
X164173D02*
D03*
X160433D02*
D03*
Y57679D02*
D03*
X167913D02*
D03*
D52*
X48425Y43504D02*
D03*
Y48622D02*
D03*
X66234D02*
D03*
Y43504D02*
D03*
X12839Y48622D02*
D03*
Y43504D02*
D03*
X238543Y100591D02*
D03*
Y105709D02*
D03*
X-5906Y95079D02*
D03*
Y89961D02*
D03*
X36086Y62402D02*
D03*
Y57284D02*
D03*
X35373Y102559D02*
D03*
Y107677D02*
D03*
X79393Y62402D02*
D03*
Y57284D02*
D03*
X-17310D02*
D03*
Y62402D02*
D03*
X12992Y95472D02*
D03*
Y90354D02*
D03*
X25591Y103346D02*
D03*
Y108465D02*
D03*
X-18898Y103346D02*
D03*
Y108465D02*
D03*
X274410Y100591D02*
D03*
Y105709D02*
D03*
X65748Y95079D02*
D03*
Y89961D02*
D03*
X78680Y107677D02*
D03*
Y102559D02*
D03*
X25997Y57284D02*
D03*
Y62402D02*
D03*
X-2362Y180512D02*
D03*
Y185630D02*
D03*
D53*
X42385Y57087D02*
D03*
Y62598D02*
D03*
X41672Y107874D02*
D03*
Y102362D02*
D03*
X132939Y56279D02*
D03*
Y61790D02*
D03*
X73094Y57087D02*
D03*
Y62598D02*
D03*
X132900Y51027D02*
D03*
Y45515D02*
D03*
X19698Y57087D02*
D03*
Y62598D02*
D03*
X-11010Y57087D02*
D03*
Y62598D02*
D03*
X98425Y55512D02*
D03*
Y61024D02*
D03*
X98425Y45276D02*
D03*
Y50787D02*
D03*
X72381Y107874D02*
D03*
Y102362D02*
D03*
X19291Y108661D02*
D03*
Y103150D02*
D03*
X-12205D02*
D03*
Y108661D02*
D03*
D54*
X48487Y75590D02*
D03*
X43369D02*
D03*
X223819Y100787D02*
D03*
X228937D02*
D03*
X-4908Y75590D02*
D03*
X-10026D02*
D03*
X66929Y75590D02*
D03*
X72047D02*
D03*
X-4773Y44488D02*
D03*
X345D02*
D03*
X13534Y75590D02*
D03*
X18652D02*
D03*
X97783Y79724D02*
D03*
X92665D02*
D03*
X133161Y78275D02*
D03*
X128043D02*
D03*
X184213Y79313D02*
D03*
X189331D02*
D03*
X263976Y101115D02*
D03*
X258858D02*
D03*
X160645Y109843D02*
D03*
X155527D02*
D03*
X197047Y109843D02*
D03*
X191929D02*
D03*
X48622Y90551D02*
D03*
X53740D02*
D03*
X120957Y110022D02*
D03*
X126075D02*
D03*
X88386Y109843D02*
D03*
X93504D02*
D03*
X47835Y119685D02*
D03*
X42717D02*
D03*
X65945D02*
D03*
X71063D02*
D03*
X16732Y121260D02*
D03*
X21850D02*
D03*
X-8071Y121260D02*
D03*
X-13189D02*
D03*
D55*
X54865Y81890D02*
D03*
X48802D02*
D03*
X67070D02*
D03*
X61007D02*
D03*
X1850D02*
D03*
X-4213D02*
D03*
X13675D02*
D03*
X7612D02*
D03*
X66024Y125591D02*
D03*
X59961D02*
D03*
X54213D02*
D03*
X48150D02*
D03*
X6417Y128346D02*
D03*
X12480D02*
D03*
X1063D02*
D03*
X-5000D02*
D03*
D56*
X177165Y37178D02*
D03*
X195276Y15748D02*
D03*
X150394Y513D02*
D03*
X92126Y3543D02*
D03*
X102362Y37178D02*
D03*
X136276D02*
D03*
D57*
X90945Y43731D02*
D03*
Y37431D02*
D03*
X125610Y38922D02*
D03*
Y45221D02*
D03*
D58*
X221654Y46063D02*
D03*
X216142D02*
D03*
Y40157D02*
D03*
X221654D02*
D03*
X55118Y68898D02*
D03*
X60630D02*
D03*
X142145Y48371D02*
D03*
X147657D02*
D03*
X224016Y120866D02*
D03*
X229528D02*
D03*
Y125984D02*
D03*
X224016D02*
D03*
X161417Y69685D02*
D03*
X166929D02*
D03*
X1723Y68898D02*
D03*
X7235D02*
D03*
X1329Y50394D02*
D03*
X6841D02*
D03*
X1982Y75590D02*
D03*
X7493D02*
D03*
X5906Y96063D02*
D03*
X394D02*
D03*
X1181Y116142D02*
D03*
X6693D02*
D03*
X159449Y36220D02*
D03*
X164961D02*
D03*
X159449Y41339D02*
D03*
X164961D02*
D03*
X142145Y43253D02*
D03*
X147657D02*
D03*
X54011Y95669D02*
D03*
X59523D02*
D03*
X112618Y48371D02*
D03*
X107106D02*
D03*
X112618Y43253D02*
D03*
X107106D02*
D03*
X262598Y40157D02*
D03*
X257087D02*
D03*
X262598Y46063D02*
D03*
X257087D02*
D03*
X192126Y97423D02*
D03*
X186614D02*
D03*
X163440Y133071D02*
D03*
X157929D02*
D03*
Y127953D02*
D03*
X163440D02*
D03*
X194095Y127953D02*
D03*
X199606D02*
D03*
X199606Y133071D02*
D03*
X194095D02*
D03*
X186614Y102541D02*
D03*
X192126D02*
D03*
X166929Y64173D02*
D03*
X161417D02*
D03*
X136901Y96385D02*
D03*
X131390D02*
D03*
Y101503D02*
D03*
X136901D02*
D03*
X259055Y121193D02*
D03*
X264567D02*
D03*
Y126312D02*
D03*
X259055D02*
D03*
X128634Y128132D02*
D03*
X123122D02*
D03*
X128634Y133250D02*
D03*
X123122D02*
D03*
X100579Y97835D02*
D03*
X95067D02*
D03*
X100579Y102953D02*
D03*
X95067D02*
D03*
X90787Y127953D02*
D03*
X96299D02*
D03*
Y133071D02*
D03*
X90787D02*
D03*
X60889Y75590D02*
D03*
X55377D02*
D03*
X60236Y50394D02*
D03*
X54724D02*
D03*
X54405Y114173D02*
D03*
X59917D02*
D03*
X59842Y119685D02*
D03*
X54331D02*
D03*
X6693Y121260D02*
D03*
X1181D02*
D03*
D59*
X179528Y53543D02*
D03*
X185827D02*
D03*
Y59055D02*
D03*
X179528D02*
D03*
X108846Y88583D02*
D03*
X115146D02*
D03*
X206693Y88171D02*
D03*
X200394D02*
D03*
X207193Y117931D02*
D03*
X213492D02*
D03*
X171708Y118701D02*
D03*
X178007D02*
D03*
X144488Y86363D02*
D03*
X150787D02*
D03*
X136221Y118110D02*
D03*
X142520D02*
D03*
X104567Y118701D02*
D03*
X110866D02*
D03*
D60*
X245276Y106299D02*
D03*
Y100000D02*
D03*
X227559Y14370D02*
D03*
Y20669D02*
D03*
X222047D02*
D03*
Y14370D02*
D03*
X216535D02*
D03*
Y20669D02*
D03*
X125610Y50733D02*
D03*
Y57032D02*
D03*
X90945Y55905D02*
D03*
Y49606D02*
D03*
X281102Y100000D02*
D03*
Y106299D02*
D03*
D61*
X231201Y115945D02*
D03*
Y113386D02*
D03*
Y110827D02*
D03*
X222342Y115945D02*
D03*
Y113386D02*
D03*
Y110827D02*
D03*
X93394Y87344D02*
D03*
Y89903D02*
D03*
Y92462D02*
D03*
X102252Y87344D02*
D03*
Y89903D02*
D03*
Y92462D02*
D03*
X193799Y92051D02*
D03*
Y89491D02*
D03*
Y86932D02*
D03*
X184941Y92051D02*
D03*
Y89491D02*
D03*
Y86932D02*
D03*
X156255Y117462D02*
D03*
Y120021D02*
D03*
Y122580D02*
D03*
X165114Y117462D02*
D03*
Y120021D02*
D03*
Y122580D02*
D03*
X192421Y117462D02*
D03*
Y120021D02*
D03*
Y122580D02*
D03*
X201279Y117462D02*
D03*
Y120021D02*
D03*
Y122580D02*
D03*
X129717Y85894D02*
D03*
Y88453D02*
D03*
Y91012D02*
D03*
X138575Y85894D02*
D03*
Y88453D02*
D03*
Y91012D02*
D03*
X266240Y116272D02*
D03*
Y113713D02*
D03*
Y111154D02*
D03*
X257382Y116272D02*
D03*
Y113713D02*
D03*
Y111154D02*
D03*
X121449Y117641D02*
D03*
Y120200D02*
D03*
Y122759D02*
D03*
X130307Y117641D02*
D03*
Y120200D02*
D03*
Y122759D02*
D03*
X89114Y117462D02*
D03*
Y120021D02*
D03*
Y122580D02*
D03*
X97973Y117462D02*
D03*
Y120021D02*
D03*
Y122580D02*
D03*
D62*
X244882Y112992D02*
D03*
X238583D02*
D03*
X234252Y20669D02*
D03*
X240551D02*
D03*
X186221Y64961D02*
D03*
X179921D02*
D03*
X108846Y81907D02*
D03*
X115146D02*
D03*
X206693Y81496D02*
D03*
X200394D02*
D03*
X207193Y112026D02*
D03*
X213492D02*
D03*
X171708Y112026D02*
D03*
X178007D02*
D03*
X136221Y112205D02*
D03*
X142520D02*
D03*
X144488Y80458D02*
D03*
X150787D02*
D03*
X280709Y112992D02*
D03*
X274410D02*
D03*
X104567Y112026D02*
D03*
X110866D02*
D03*
D63*
X245768Y123228D02*
D03*
X238484D02*
D03*
X162598Y16929D02*
D03*
Y27165D02*
D03*
X142913Y16929D02*
D03*
Y27165D02*
D03*
X150787Y16929D02*
D03*
Y27165D02*
D03*
X273524Y123556D02*
D03*
X280807D02*
D03*
D64*
X13005Y56004D02*
D03*
Y58563D02*
D03*
Y61122D02*
D03*
Y63681D02*
D03*
X-4318D02*
D03*
Y61122D02*
D03*
Y58563D02*
D03*
Y56004D02*
D03*
X-5100Y102067D02*
D03*
Y104626D02*
D03*
Y107185D02*
D03*
Y109744D02*
D03*
X12223D02*
D03*
Y107185D02*
D03*
Y104626D02*
D03*
Y102067D02*
D03*
X49078Y56004D02*
D03*
Y58563D02*
D03*
Y61122D02*
D03*
Y63681D02*
D03*
X66401D02*
D03*
Y61122D02*
D03*
Y58563D02*
D03*
Y56004D02*
D03*
X65688Y101279D02*
D03*
Y103839D02*
D03*
Y106398D02*
D03*
Y108957D02*
D03*
X48365D02*
D03*
Y106398D02*
D03*
Y103839D02*
D03*
Y101279D02*
D03*
D65*
X112598Y11220D02*
D03*
Y22638D02*
D03*
X102362Y11220D02*
D03*
Y22638D02*
D03*
X81890Y11220D02*
D03*
Y22638D02*
D03*
X92126D02*
D03*
Y11220D02*
D03*
X122835Y22638D02*
D03*
Y11220D02*
D03*
D66*
X171653Y15354D02*
D03*
X181890D02*
D03*
M02*
