G04*
G04 #@! TF.GenerationSoftware,Altium Limited,Altium Designer,24.10.1 (45)*
G04*
G04 Layer_Color=8421504*
%FSLAX25Y25*%
%MOIN*%
G70*
G04*
G04 #@! TF.SameCoordinates,17EAC3D7-2FD0-4994-96B9-6E418DA51305*
G04*
G04*
G04 #@! TF.FilePolarity,Positive*
G04*
G01*
G75*
%ADD14R,0.02165X0.11024*%
D14*
X37008Y-14961D02*
D03*
X40157D02*
D03*
X43307D02*
D03*
X46457D02*
D03*
X49606D02*
D03*
X52756D02*
D03*
X55905D02*
D03*
X59055D02*
D03*
X62205D02*
D03*
X65354D02*
D03*
X68504D02*
D03*
X71653D02*
D03*
X74803D02*
D03*
X77953D02*
D03*
X81102D02*
D03*
X84252D02*
D03*
X87402D02*
D03*
X90551D02*
D03*
X93701D02*
D03*
X96850D02*
D03*
X100000D02*
D03*
X103150D02*
D03*
X106299D02*
D03*
X109449D02*
D03*
X112598D02*
D03*
X115748D02*
D03*
X118898D02*
D03*
X122047D02*
D03*
X137795D02*
D03*
X140945D02*
D03*
X144095D02*
D03*
X147244D02*
D03*
X150394D02*
D03*
X153543D02*
D03*
X156693D02*
D03*
X159843D02*
D03*
X162992D02*
D03*
X166142D02*
D03*
X169291D02*
D03*
X172441D02*
D03*
X175591D02*
D03*
X178740D02*
D03*
X181890D02*
D03*
X185039D02*
D03*
X188189D02*
D03*
X191339D02*
D03*
X194488D02*
D03*
X197638D02*
D03*
X200787D02*
D03*
X203937D02*
D03*
X207087D02*
D03*
X210236D02*
D03*
X213386D02*
D03*
X216535D02*
D03*
X219685D02*
D03*
X222835D02*
D03*
X225984D02*
D03*
X232283D02*
D03*
X235433D02*
D03*
X229134D02*
D03*
M02*
