G04*
G04 #@! TF.GenerationSoftware,Altium Limited,Altium Designer,24.10.1 (45)*
G04*
G04 Layer_Physical_Order=1*
G04 Layer_Color=255*
%FSLAX25Y25*%
%MOIN*%
G70*
G04*
G04 #@! TF.SameCoordinates,17EAC3D7-2FD0-4994-96B9-6E418DA51305*
G04*
G04*
G04 #@! TF.FilePolarity,Positive*
G04*
G01*
G75*
%ADD11C,0.00787*%
%ADD13C,0.00591*%
%ADD14R,0.02165X0.11024*%
%ADD24C,0.01575*%
%ADD25R,0.05394X0.05394*%
%ADD26C,0.05394*%
%ADD27C,0.06000*%
%ADD28C,0.05512*%
%ADD29C,0.04193*%
%ADD30C,0.09055*%
%ADD31C,0.13386*%
%ADD32C,0.01772*%
G36*
X282484Y197553D02*
X284875Y196913D01*
X287162Y195966D01*
X289306Y194728D01*
X291270Y193221D01*
X293020Y191471D01*
X294527Y189507D01*
X295764Y187363D01*
X296711Y185076D01*
X297352Y182685D01*
X297674Y180231D01*
X297674Y178993D01*
X297674Y178993D01*
X297674Y178993D01*
X297674Y53875D01*
Y52637D01*
X297351Y50183D01*
X296710Y47792D01*
X295763Y45505D01*
X294525Y43362D01*
X293018Y41398D01*
X291268Y39648D01*
X289304Y38141D01*
X287161Y36903D01*
X284874Y35956D01*
X282483Y35315D01*
X280029Y34992D01*
X278791D01*
X249264Y34992D01*
X248957Y34931D01*
X248696Y34757D01*
X248522Y34497D01*
X248461Y34189D01*
Y34063D01*
X248461Y34062D01*
X248461Y34061D01*
X248508Y10156D01*
X248512Y10137D01*
X248509Y10118D01*
X248528Y9732D01*
X248543Y9674D01*
Y9615D01*
X248693Y8858D01*
X248724Y8785D01*
X248739Y8707D01*
X249034Y7994D01*
X249078Y7929D01*
X249108Y7856D01*
X249537Y7214D01*
X249593Y7158D01*
X249637Y7092D01*
X250183Y6547D01*
X250249Y6503D01*
X250304Y6447D01*
X250946Y6018D01*
X251019Y5988D01*
X251085Y5944D01*
X251798Y5648D01*
X251875Y5633D01*
X251948Y5603D01*
X252706Y5452D01*
X252765D01*
X252823Y5438D01*
X253209Y5419D01*
X253228Y5422D01*
X253248Y5418D01*
X255764Y5418D01*
X256048Y5300D01*
X256265Y5083D01*
X256382Y4799D01*
X256382Y16D01*
X243406D01*
X243386Y12D01*
X243366Y15D01*
X242980Y-4D01*
X242922Y-18D01*
X242863D01*
X242106Y-169D01*
X242033Y-199D01*
X241955Y-215D01*
X241242Y-510D01*
X241177Y-554D01*
X241104Y-584D01*
X240462Y-1013D01*
X240406Y-1069D01*
X240340Y-1113D01*
X239794Y-1659D01*
X239751Y-1724D01*
X239695Y-1780D01*
X239266Y-2422D01*
X239236Y-2495D01*
X239192Y-2561D01*
X238896Y-3274D01*
X238881Y-3351D01*
X238851Y-3424D01*
X238700Y-4181D01*
Y-4241D01*
X238686Y-4299D01*
X238667Y-4685D01*
X238670Y-4704D01*
X238666Y-4724D01*
X238666Y-16521D01*
X236916D01*
Y-9049D01*
X233950D01*
Y-9049D01*
X233766D01*
Y-9049D01*
X230801D01*
Y-9049D01*
X230616D01*
Y-9049D01*
X227651D01*
Y-9049D01*
X227467D01*
Y-9049D01*
X224502D01*
X224502Y-9049D01*
X224045Y-8943D01*
Y-4560D01*
X224170Y-4435D01*
X224410Y-3857D01*
Y-3230D01*
X224170Y-2651D01*
X223727Y-2208D01*
X223148Y-1969D01*
X222521D01*
X221943Y-2208D01*
X221500Y-2651D01*
X221260Y-3230D01*
Y-3857D01*
X221500Y-4435D01*
X221624Y-4560D01*
Y-8943D01*
X221168Y-9049D01*
X221168Y-9049D01*
X221168Y-9049D01*
X218202D01*
Y-9049D01*
X218018D01*
Y-9049D01*
X215053D01*
Y-9049D01*
X214868D01*
Y-9049D01*
X211903D01*
Y-9049D01*
X211719D01*
Y-9049D01*
X208757D01*
X208535Y-8884D01*
X208464Y-8549D01*
X208614Y-8187D01*
Y-7561D01*
X208374Y-6982D01*
X207931Y-6539D01*
X207748Y-6463D01*
Y9895D01*
X241932Y44079D01*
X242086Y44309D01*
X242140Y44580D01*
Y47938D01*
X242323Y48014D01*
X242766Y48457D01*
X243005Y49036D01*
Y49662D01*
X242766Y50241D01*
X242323Y50684D01*
X241744Y50924D01*
X241118D01*
X240539Y50684D01*
X240096Y50241D01*
X239856Y49662D01*
Y49036D01*
X240096Y48457D01*
X240539Y48014D01*
X240722Y47938D01*
Y44874D01*
X206538Y10690D01*
X206384Y10460D01*
X206330Y10189D01*
Y-6463D01*
X206147Y-6539D01*
X205748Y-6938D01*
X205465Y-6962D01*
X205181Y-6938D01*
X204782Y-6539D01*
X204599Y-6463D01*
Y13439D01*
X236822Y45662D01*
X236976Y45892D01*
X237030Y46163D01*
Y47875D01*
X237333Y48000D01*
X237776Y48443D01*
X238016Y49022D01*
Y49649D01*
X237776Y50228D01*
X237333Y50671D01*
X236754Y50910D01*
X236128D01*
X235549Y50671D01*
X235106Y50228D01*
X234866Y49649D01*
Y49022D01*
X235106Y48443D01*
X235549Y48000D01*
X235612Y47975D01*
Y46457D01*
X203389Y14233D01*
X203235Y14004D01*
X203181Y13732D01*
Y-6463D01*
X202998Y-6539D01*
X202555Y-6982D01*
X202474Y-7176D01*
X201974Y-7076D01*
Y-5476D01*
X202075Y-5375D01*
X202315Y-4797D01*
Y-4170D01*
X202075Y-3591D01*
X201632Y-3148D01*
X201053Y-2909D01*
X200427D01*
X199848Y-3148D01*
X199405Y-3591D01*
X199165Y-4170D01*
Y-4797D01*
X199405Y-5375D01*
X199553Y-5523D01*
Y-8886D01*
X199120Y-9049D01*
X199120Y-9049D01*
Y-9049D01*
X199120Y-9049D01*
X196159D01*
X195936Y-8884D01*
X195866Y-8549D01*
X196016Y-8187D01*
Y-7561D01*
X195776Y-6982D01*
X195333Y-6539D01*
X195150Y-6463D01*
Y28399D01*
X236118Y69367D01*
X236301Y69291D01*
X236927D01*
X237506Y69531D01*
X237949Y69974D01*
X238189Y70553D01*
Y71179D01*
X237949Y71758D01*
X237506Y72201D01*
X236927Y72441D01*
X236301D01*
X235722Y72201D01*
X235279Y71758D01*
X235039Y71179D01*
Y70553D01*
X235115Y70370D01*
X193940Y29194D01*
X193786Y28964D01*
X193732Y28693D01*
Y-6463D01*
X193549Y-6539D01*
X193149Y-6938D01*
X192866Y-6962D01*
X192583Y-6938D01*
X192183Y-6539D01*
X192000Y-6463D01*
Y31943D01*
X230053Y69995D01*
X230161Y69974D01*
X230604Y69531D01*
X231183Y69291D01*
X231809D01*
X232388Y69531D01*
X232831Y69974D01*
X233071Y70553D01*
Y71179D01*
X232831Y71758D01*
X232388Y72201D01*
X231809Y72441D01*
X231183D01*
X230604Y72201D01*
X230161Y71758D01*
X230085Y71575D01*
X229921D01*
X229650Y71521D01*
X229420Y71367D01*
X190790Y32737D01*
X190636Y32508D01*
X190582Y32236D01*
Y-6463D01*
X190399Y-6539D01*
X189956Y-6982D01*
X189716Y-7561D01*
Y-8187D01*
X189866Y-8549D01*
X189863Y-8701D01*
X189603Y-9027D01*
X189573Y-9049D01*
X186706D01*
Y-9049D01*
X186522D01*
Y-9049D01*
X183557D01*
Y-9049D01*
X183372D01*
Y-9049D01*
X180407D01*
X180407Y-9049D01*
X179951Y-8943D01*
Y-5999D01*
X180028Y-5922D01*
X180268Y-5344D01*
Y-4717D01*
X180028Y-4138D01*
X179585Y-3695D01*
X179006Y-3455D01*
X178380D01*
X177801Y-3695D01*
X177358Y-4138D01*
X177118Y-4717D01*
Y-5344D01*
X177358Y-5922D01*
X177530Y-6094D01*
Y-7247D01*
X177030Y-7347D01*
X176878Y-6982D01*
X176435Y-6539D01*
X176252Y-6463D01*
Y24462D01*
X221157Y69367D01*
X221340Y69291D01*
X221967D01*
X222546Y69531D01*
X222989Y69974D01*
X223228Y70553D01*
Y71179D01*
X222989Y71758D01*
X222546Y72201D01*
X221967Y72441D01*
X221340D01*
X220761Y72201D01*
X220319Y71758D01*
X220079Y71179D01*
Y70553D01*
X220155Y70370D01*
X175042Y25257D01*
X174888Y25027D01*
X174834Y24756D01*
Y-6463D01*
X174651Y-6539D01*
X174252Y-6938D01*
X173969Y-6962D01*
X173685Y-6938D01*
X173286Y-6539D01*
X173103Y-6463D01*
Y28793D01*
X214467Y70157D01*
X215125D01*
X215200Y69974D01*
X215643Y69531D01*
X216222Y69291D01*
X216849D01*
X217427Y69531D01*
X217870Y69974D01*
X218110Y70553D01*
Y71179D01*
X217870Y71758D01*
X217427Y72201D01*
X216849Y72441D01*
X216222D01*
X215643Y72201D01*
X215200Y71758D01*
X215125Y71575D01*
X214173D01*
X213902Y71521D01*
X213672Y71367D01*
X171892Y29588D01*
X171739Y29358D01*
X171685Y29087D01*
Y-6463D01*
X171502Y-6539D01*
X171059Y-6982D01*
X170819Y-7561D01*
Y-8187D01*
X170969Y-8549D01*
X170966Y-8701D01*
X170706Y-9027D01*
X170676Y-9049D01*
X167809D01*
Y-9049D01*
X167624D01*
Y-9049D01*
X164663D01*
X164440Y-8884D01*
X164370Y-8549D01*
X164520Y-8187D01*
Y-7561D01*
X164280Y-6982D01*
X163837Y-6539D01*
X163258Y-6299D01*
X162632D01*
X162053Y-6539D01*
X161610Y-6982D01*
X161370Y-7561D01*
Y-8187D01*
X161520Y-8549D01*
X161517Y-8701D01*
X161257Y-9027D01*
X161227Y-9049D01*
X158360D01*
Y-9049D01*
X158176D01*
Y-9049D01*
X155210D01*
Y-9049D01*
X155026D01*
Y-9049D01*
X152061D01*
Y-9049D01*
X151876D01*
Y-9049D01*
X148911D01*
Y-9049D01*
X148727D01*
Y-9049D01*
X145761D01*
Y-9049D01*
X145577D01*
Y-9049D01*
X142612D01*
Y-9049D01*
X142428D01*
Y-9049D01*
X139513D01*
X139479Y-9023D01*
X139244Y-8754D01*
X139220Y-8549D01*
X139370Y-8187D01*
Y-7561D01*
X139130Y-6982D01*
X138687Y-6539D01*
X138504Y-6463D01*
Y1994D01*
X236761Y100251D01*
X255008D01*
X255083Y100068D01*
X255526Y99625D01*
X256105Y99385D01*
X256732D01*
X257311Y99625D01*
X257754Y100068D01*
X257993Y100646D01*
Y101273D01*
X257754Y101852D01*
X257311Y102295D01*
X256732Y102534D01*
X256105D01*
X255526Y102295D01*
X255083Y101852D01*
X255008Y101669D01*
X236468D01*
X236196Y101615D01*
X235966Y101461D01*
X137294Y2789D01*
X137140Y2559D01*
X137086Y2287D01*
Y-6463D01*
X136903Y-6539D01*
X136460Y-6982D01*
X136221Y-7561D01*
Y-8187D01*
X136370Y-8549D01*
X136313Y-9049D01*
X136313D01*
X136313Y-9049D01*
Y-16521D01*
X135449D01*
Y-3937D01*
X135443Y-3911D01*
X135447Y-3884D01*
X135406Y-3268D01*
X135386Y-3192D01*
X135381Y-3113D01*
X135062Y-1921D01*
X135015Y-1827D01*
X134981Y-1728D01*
X134365Y-660D01*
X134295Y-581D01*
X134237Y-493D01*
X133365Y379D01*
X133278Y437D01*
X133199Y506D01*
X132131Y1123D01*
X132031Y1157D01*
X131937Y1203D01*
X130746Y1522D01*
X130641Y1529D01*
X130538Y1550D01*
X129305D01*
X129202Y1529D01*
X129097Y1522D01*
X127905Y1203D01*
X127811Y1157D01*
X127712Y1123D01*
X126644Y506D01*
X126565Y437D01*
X126478Y379D01*
X125605Y-493D01*
X125547Y-581D01*
X125478Y-660D01*
X124861Y-1728D01*
X124828Y-1827D01*
X124781Y-1921D01*
X124462Y-3113D01*
X124457Y-3192D01*
X124436Y-3268D01*
X124396Y-3884D01*
X124399Y-3911D01*
X124394Y-3937D01*
Y-16521D01*
X123530D01*
Y-9049D01*
X120565D01*
Y-9049D01*
X120380D01*
Y-9049D01*
X117415D01*
Y-9049D01*
X117231D01*
Y-9049D01*
X116457D01*
Y-7380D01*
X134467Y10630D01*
X134565D01*
X135144Y10870D01*
X135587Y11313D01*
X135827Y11891D01*
Y12518D01*
X135587Y13097D01*
X135144Y13540D01*
X134565Y13780D01*
X133939D01*
X133360Y13540D01*
X132917Y13097D01*
X132677Y12518D01*
Y11891D01*
X132917Y11313D01*
X133031Y11199D01*
X115247Y-6585D01*
X115093Y-6815D01*
X115039Y-7087D01*
Y-9049D01*
X114265D01*
Y-9049D01*
X114081D01*
Y-9049D01*
X113307D01*
Y36320D01*
X141052Y64066D01*
X141206Y64296D01*
X141260Y64567D01*
Y97470D01*
X141206Y97741D01*
X141052Y97971D01*
X139524Y99500D01*
X139683Y100000D01*
X140262Y100240D01*
X140705Y100683D01*
X140945Y101261D01*
Y101888D01*
X140705Y102467D01*
X140262Y102910D01*
X139683Y103150D01*
X139057D01*
X138478Y102910D01*
X138035Y102467D01*
X137795Y101888D01*
X137295Y101728D01*
X131311Y107713D01*
Y114516D01*
X131494Y114592D01*
X131937Y115035D01*
X132177Y115614D01*
Y116240D01*
X131937Y116819D01*
X131494Y117262D01*
X130916Y117502D01*
X130289D01*
X129710Y117262D01*
X129267Y116819D01*
X129027Y116240D01*
Y115614D01*
X129267Y115035D01*
X129710Y114592D01*
X129894Y114516D01*
Y107419D01*
X129947Y107148D01*
X130101Y106918D01*
X139842Y97176D01*
Y84796D01*
X139342Y84697D01*
X139229Y84971D01*
X138786Y85414D01*
X138207Y85653D01*
X137581D01*
X137002Y85414D01*
X136559Y84971D01*
X136319Y84392D01*
Y83765D01*
X136431Y83496D01*
X105011Y52076D01*
X104857Y51846D01*
X104803Y51575D01*
Y689D01*
X104595Y603D01*
X104153Y160D01*
X103913Y-418D01*
Y-1045D01*
X104153Y-1624D01*
X104595Y-2067D01*
X105174Y-2307D01*
X105801D01*
X106380Y-2067D01*
X106823Y-1624D01*
X107062Y-1045D01*
Y-418D01*
X106823Y160D01*
X106380Y603D01*
X106221Y669D01*
Y51281D01*
X137484Y82544D01*
X137581Y82504D01*
X138207D01*
X138786Y82744D01*
X139229Y83187D01*
X139342Y83461D01*
X139842Y83361D01*
Y64861D01*
X112097Y37115D01*
X111943Y36885D01*
X111890Y36614D01*
Y-9049D01*
X111116D01*
Y-9049D01*
X110932D01*
Y-9049D01*
X107966D01*
Y-9049D01*
X107782D01*
Y-9049D01*
X106693D01*
Y-9502D01*
X105905D01*
Y-9049D01*
X104817D01*
Y-9049D01*
X104632D01*
Y-9049D01*
X101667D01*
Y-9049D01*
X101483D01*
Y-9049D01*
X98517D01*
Y-9049D01*
X98333D01*
Y-9049D01*
X95381D01*
X95148Y-8863D01*
X95089Y-8549D01*
X95179Y-8331D01*
X95621Y-8181D01*
X95740Y-8185D01*
X95757Y-8202D01*
X96336Y-8442D01*
X96962D01*
X97541Y-8202D01*
X97984Y-7759D01*
X98224Y-7180D01*
Y-6554D01*
X97984Y-5975D01*
X97541Y-5532D01*
X96962Y-5292D01*
X96336D01*
X95757Y-5532D01*
X95314Y-5975D01*
X95277Y-6064D01*
X94679Y-6251D01*
X94480Y-6121D01*
Y-2447D01*
X94418Y-2137D01*
X94243Y-1874D01*
X93765Y-1396D01*
X93502Y-1221D01*
X93192Y-1159D01*
X93192Y-1159D01*
X86162D01*
X70888Y14115D01*
Y41679D01*
X70888Y41679D01*
X70826Y41989D01*
X70721Y42146D01*
X70766Y42253D01*
Y42880D01*
X70526Y43459D01*
X70083Y43902D01*
X69504Y44141D01*
X68878D01*
X68299Y43902D01*
X67856Y43459D01*
X67616Y42880D01*
Y42253D01*
X67856Y41675D01*
X68299Y41232D01*
X68878Y40992D01*
X69270D01*
Y13780D01*
X69270Y13780D01*
X69331Y13470D01*
X69507Y13207D01*
X85255Y-2541D01*
X85255Y-2541D01*
X85517Y-2716D01*
X85827Y-2778D01*
X92857D01*
X92861Y-2782D01*
Y-6488D01*
X92778Y-6523D01*
X92335Y-6966D01*
X92096Y-7544D01*
Y-8171D01*
X92252Y-8549D01*
X92240Y-8729D01*
X92021Y-9000D01*
X91959Y-9049D01*
X89154D01*
X89122Y-9026D01*
X88869Y-8715D01*
X88861Y-8549D01*
X89011Y-8187D01*
Y-7561D01*
X88771Y-6982D01*
X88328Y-6539D01*
X87749Y-6299D01*
X87122D01*
X86737Y-6459D01*
X65376Y14902D01*
Y49925D01*
X66320Y50869D01*
X66320Y50869D01*
X66496Y51132D01*
X66557Y51442D01*
Y86032D01*
X66640Y86067D01*
X67083Y86510D01*
X67323Y87088D01*
Y87715D01*
X67083Y88294D01*
X66640Y88737D01*
X66061Y88976D01*
X65435D01*
X64856Y88737D01*
X64413Y88294D01*
X64173Y87715D01*
Y87088D01*
X64413Y86510D01*
X64856Y86067D01*
X64939Y86032D01*
Y51777D01*
X63995Y50833D01*
X63819Y50570D01*
X63758Y50261D01*
X63758Y50261D01*
Y14567D01*
X63758Y14567D01*
X63819Y14257D01*
X63995Y13995D01*
X85861Y-7871D01*
Y-8187D01*
X86011Y-8549D01*
X85965Y-8797D01*
X85757Y-9020D01*
X85718Y-9049D01*
X82769D01*
Y-9049D01*
X82585D01*
Y-9049D01*
X79620D01*
Y-9049D01*
X79435D01*
Y-9049D01*
X76470D01*
Y-9049D01*
X76286D01*
Y-9049D01*
X73321D01*
Y-9049D01*
X73136D01*
Y-9049D01*
X70222D01*
X70187Y-9023D01*
X69953Y-8754D01*
X69929Y-8549D01*
X70079Y-8187D01*
Y-7561D01*
X69839Y-6982D01*
X69396Y-6539D01*
X69266Y-6485D01*
Y-5658D01*
X69266Y-5658D01*
X69204Y-5348D01*
X69029Y-5085D01*
X69029Y-5085D01*
X59280Y4664D01*
X59017Y4839D01*
X58708Y4901D01*
X58708Y4901D01*
X40967D01*
Y61033D01*
X40967Y61033D01*
X40905Y61343D01*
X40730Y61606D01*
X40730Y61606D01*
X14648Y87687D01*
X14683Y87770D01*
Y88396D01*
X14443Y88975D01*
X14000Y89418D01*
X13421Y89658D01*
X12795D01*
X12216Y89418D01*
X11773Y88975D01*
X11533Y88396D01*
Y87770D01*
X11773Y87191D01*
X12216Y86748D01*
X12795Y86508D01*
X13421D01*
X13504Y86543D01*
X39348Y60698D01*
Y4553D01*
X39348Y4553D01*
X39410Y4243D01*
X39585Y3980D01*
X40047Y3519D01*
X40047Y3519D01*
X40309Y3344D01*
X40619Y3282D01*
X40619Y3282D01*
X58372D01*
X67647Y-5993D01*
Y-6524D01*
X67612Y-6539D01*
X67169Y-6982D01*
X66929Y-7561D01*
Y-8187D01*
X67079Y-8549D01*
X67055Y-8754D01*
X66821Y-9023D01*
X66786Y-9049D01*
X63872D01*
Y-9049D01*
X63687D01*
Y-9049D01*
X60722D01*
Y-9049D01*
X60538D01*
Y-9049D01*
X59449D01*
Y-9502D01*
X58661D01*
Y-9049D01*
X57573D01*
Y-9049D01*
X57388D01*
Y-9049D01*
X54423D01*
Y-9049D01*
X54238D01*
Y-9049D01*
X51273D01*
Y-9049D01*
X51089D01*
Y-9049D01*
X50000D01*
Y-9502D01*
X49213D01*
Y-9049D01*
X48124D01*
Y-9049D01*
X47939D01*
Y-9049D01*
X44974D01*
Y-9049D01*
X44790D01*
Y-9049D01*
X41824D01*
Y-9049D01*
X41640D01*
Y-9049D01*
X38675D01*
Y-9049D01*
X38491D01*
Y-9049D01*
X35525D01*
Y-16521D01*
X33775D01*
Y-4724D01*
X33771Y-4704D01*
X33774Y-4684D01*
X33755Y-4298D01*
X33741Y-4241D01*
Y-4181D01*
X33590Y-3424D01*
X33560Y-3351D01*
X33545Y-3274D01*
X33249Y-2561D01*
X33205Y-2495D01*
X33175Y-2422D01*
X32746Y-1780D01*
X32690Y-1724D01*
X32646Y-1659D01*
X32101Y-1113D01*
X32035Y-1069D01*
X31979Y-1013D01*
X31337Y-584D01*
X31264Y-554D01*
X31198Y-510D01*
X30485Y-215D01*
X30408Y-199D01*
X30335Y-169D01*
X29578Y-18D01*
X29518D01*
X29461Y-4D01*
X29075Y15D01*
X29055Y12D01*
X29035Y16D01*
X16059Y16D01*
Y4646D01*
Y4799D01*
X16176Y5083D01*
X16393Y5300D01*
X16677Y5418D01*
X19193Y5418D01*
X19212Y5422D01*
X19232Y5419D01*
X19618Y5438D01*
X19676Y5452D01*
X19735D01*
X20492Y5603D01*
X20565Y5633D01*
X20643Y5648D01*
X21356Y5944D01*
X21422Y5988D01*
X21495Y6018D01*
X22137Y6447D01*
X22192Y6503D01*
X22258Y6547D01*
X22804Y7092D01*
X22848Y7158D01*
X22904Y7214D01*
X23333Y7856D01*
X23363Y7929D01*
X23407Y7994D01*
X23702Y8707D01*
X23718Y8785D01*
X23748Y8858D01*
X23898Y9615D01*
Y9674D01*
X23913Y9732D01*
X23932Y10118D01*
X23929Y10138D01*
X23933Y10158D01*
X23933Y34016D01*
X23912Y34120D01*
X23905Y34226D01*
X23857Y34400D01*
X23834Y34446D01*
X23824Y34497D01*
X23765Y34585D01*
X23718Y34681D01*
X23679Y34714D01*
X23650Y34757D01*
X23562Y34816D01*
X23482Y34886D01*
X23433Y34903D01*
X23390Y34931D01*
X23285Y34952D01*
X23185Y34986D01*
X23133Y34982D01*
X23083Y34992D01*
X-6445Y34992D01*
X-7682Y34992D01*
X-10137Y35315D01*
X-12527Y35956D01*
X-14814Y36903D01*
X-16958Y38141D01*
X-18921Y39648D01*
X-20672Y41398D01*
X-22178Y43362D01*
X-23416Y45505D01*
X-24363Y47792D01*
X-25004Y50183D01*
X-25327Y52637D01*
X-25327Y53874D01*
X-25327Y178993D01*
X-25327Y180230D01*
X-25004Y182684D01*
X-24363Y185075D01*
X-23416Y187362D01*
X-22179Y189506D01*
X-20672Y191469D01*
X-18922Y193220D01*
X-16958Y194726D01*
X-14814Y195964D01*
X-12527Y196911D01*
X-10137Y197552D01*
X-7683Y197875D01*
X-6445D01*
X278791Y197875D01*
X278791Y197875D01*
X278792Y197875D01*
X280029Y197875D01*
X282484Y197553D01*
D02*
G37*
%LPC*%
G36*
X263676Y192061D02*
X262781D01*
X261916Y191830D01*
X261141Y191382D01*
X260508Y190749D01*
X260060Y189974D01*
X259828Y189109D01*
Y188214D01*
X260060Y187349D01*
X260508Y186574D01*
X261141Y185941D01*
X261916Y185493D01*
X262781Y185261D01*
X263676D01*
X264541Y185493D01*
X265316Y185941D01*
X265949Y186574D01*
X266397Y187349D01*
X266628Y188214D01*
Y189109D01*
X266397Y189974D01*
X265949Y190749D01*
X265316Y191382D01*
X264541Y191830D01*
X263676Y192061D01*
D02*
G37*
G36*
X233676D02*
X232781D01*
X231916Y191830D01*
X231141Y191382D01*
X230508Y190749D01*
X230060Y189974D01*
X229828Y189109D01*
Y188214D01*
X230060Y187349D01*
X230508Y186574D01*
X231141Y185941D01*
X231916Y185493D01*
X232781Y185261D01*
X233676D01*
X234541Y185493D01*
X235316Y185941D01*
X235949Y186574D01*
X236397Y187349D01*
X236628Y188214D01*
Y189109D01*
X236397Y189974D01*
X235949Y190749D01*
X235316Y191382D01*
X234541Y191830D01*
X233676Y192061D01*
D02*
G37*
G36*
X223676D02*
X222781D01*
X221916Y191830D01*
X221141Y191382D01*
X220508Y190749D01*
X220060Y189974D01*
X219828Y189109D01*
Y188214D01*
X220060Y187349D01*
X220508Y186574D01*
X221141Y185941D01*
X221916Y185493D01*
X222781Y185261D01*
X223676D01*
X224541Y185493D01*
X225316Y185941D01*
X225949Y186574D01*
X226397Y187349D01*
X226628Y188214D01*
Y189109D01*
X226397Y189974D01*
X225949Y190749D01*
X225316Y191382D01*
X224541Y191830D01*
X223676Y192061D01*
D02*
G37*
G36*
X193676D02*
X192781D01*
X191916Y191830D01*
X191141Y191382D01*
X190508Y190749D01*
X190060Y189974D01*
X189828Y189109D01*
Y188214D01*
X190060Y187349D01*
X190508Y186574D01*
X191141Y185941D01*
X191916Y185493D01*
X192781Y185261D01*
X193676D01*
X194541Y185493D01*
X195316Y185941D01*
X195949Y186574D01*
X196397Y187349D01*
X196628Y188214D01*
Y189109D01*
X196397Y189974D01*
X195949Y190749D01*
X195316Y191382D01*
X194541Y191830D01*
X193676Y192061D01*
D02*
G37*
G36*
X183676D02*
X182781D01*
X181916Y191830D01*
X181141Y191382D01*
X180508Y190749D01*
X180060Y189974D01*
X179828Y189109D01*
Y188214D01*
X180060Y187349D01*
X180508Y186574D01*
X181141Y185941D01*
X181916Y185493D01*
X182781Y185261D01*
X183676D01*
X184541Y185493D01*
X185316Y185941D01*
X185949Y186574D01*
X186397Y187349D01*
X186628Y188214D01*
Y189109D01*
X186397Y189974D01*
X185949Y190749D01*
X185316Y191382D01*
X184541Y191830D01*
X183676Y192061D01*
D02*
G37*
G36*
X153676D02*
X152781D01*
X151916Y191830D01*
X151141Y191382D01*
X150508Y190749D01*
X150060Y189974D01*
X149828Y189109D01*
Y188214D01*
X150060Y187349D01*
X150508Y186574D01*
X151141Y185941D01*
X151916Y185493D01*
X152781Y185261D01*
X153676D01*
X154541Y185493D01*
X155316Y185941D01*
X155949Y186574D01*
X156397Y187349D01*
X156628Y188214D01*
Y189109D01*
X156397Y189974D01*
X155949Y190749D01*
X155316Y191382D01*
X154541Y191830D01*
X153676Y192061D01*
D02*
G37*
G36*
X143676D02*
X142781D01*
X141916Y191830D01*
X141141Y191382D01*
X140508Y190749D01*
X140060Y189974D01*
X139828Y189109D01*
Y188214D01*
X140060Y187349D01*
X140508Y186574D01*
X141141Y185941D01*
X141916Y185493D01*
X142781Y185261D01*
X143676D01*
X144541Y185493D01*
X145316Y185941D01*
X145949Y186574D01*
X146397Y187349D01*
X146628Y188214D01*
Y189109D01*
X146397Y189974D01*
X145949Y190749D01*
X145316Y191382D01*
X144541Y191830D01*
X143676Y192061D01*
D02*
G37*
G36*
X113676D02*
X112781D01*
X111916Y191830D01*
X111141Y191382D01*
X110508Y190749D01*
X110060Y189974D01*
X109828Y189109D01*
Y188214D01*
X110060Y187349D01*
X110508Y186574D01*
X111141Y185941D01*
X111916Y185493D01*
X112781Y185261D01*
X113676D01*
X114541Y185493D01*
X115316Y185941D01*
X115949Y186574D01*
X116397Y187349D01*
X116628Y188214D01*
Y189109D01*
X116397Y189974D01*
X115949Y190749D01*
X115316Y191382D01*
X114541Y191830D01*
X113676Y192061D01*
D02*
G37*
G36*
X70629Y190528D02*
X69332D01*
X68078Y190192D01*
X66955Y189543D01*
X66037Y188626D01*
X65389Y187502D01*
X65053Y186249D01*
Y184952D01*
X65389Y183698D01*
X66037Y182575D01*
X66955Y181657D01*
X68078Y181009D01*
X69332Y180673D01*
X70629D01*
X71882Y181009D01*
X73006Y181657D01*
X73923Y182575D01*
X74572Y183698D01*
X74908Y184952D01*
Y186249D01*
X74572Y187502D01*
X73923Y188626D01*
X73006Y189543D01*
X71882Y190192D01*
X70629Y190528D01*
D02*
G37*
G36*
X9704D02*
X8406D01*
X7153Y190192D01*
X6030Y189543D01*
X5112Y188626D01*
X4463Y187502D01*
X4128Y186249D01*
Y184952D01*
X4463Y183698D01*
X5112Y182575D01*
X6030Y181657D01*
X7153Y181009D01*
X8406Y180673D01*
X9704D01*
X10957Y181009D01*
X12081Y181657D01*
X12998Y182575D01*
X13647Y183698D01*
X13983Y184952D01*
Y186249D01*
X13647Y187502D01*
X12998Y188626D01*
X12081Y189543D01*
X10957Y190192D01*
X9704Y190528D01*
D02*
G37*
G36*
X282983Y174739D02*
X282088D01*
X281223Y174507D01*
X280448Y174059D01*
X279815Y173426D01*
X279367Y172651D01*
X279135Y171786D01*
Y170891D01*
X279367Y170026D01*
X279815Y169251D01*
X280448Y168618D01*
X281223Y168170D01*
X282088Y167939D01*
X282983D01*
X283848Y168170D01*
X284623Y168618D01*
X285256Y169251D01*
X285704Y170026D01*
X285935Y170891D01*
Y171786D01*
X285704Y172651D01*
X285256Y173426D01*
X284623Y174059D01*
X283848Y174507D01*
X282983Y174739D01*
D02*
G37*
G36*
X252983D02*
X252088D01*
X251223Y174507D01*
X250448Y174059D01*
X249815Y173426D01*
X249367Y172651D01*
X249135Y171786D01*
Y170891D01*
X249367Y170026D01*
X249815Y169251D01*
X250448Y168618D01*
X251223Y168170D01*
X252088Y167939D01*
X252983D01*
X253848Y168170D01*
X254623Y168618D01*
X255256Y169251D01*
X255704Y170026D01*
X255935Y170891D01*
Y171786D01*
X255704Y172651D01*
X255256Y173426D01*
X254623Y174059D01*
X253848Y174507D01*
X252983Y174739D01*
D02*
G37*
G36*
X242983D02*
X242088D01*
X241223Y174507D01*
X240448Y174059D01*
X239815Y173426D01*
X239367Y172651D01*
X239135Y171786D01*
Y170891D01*
X239367Y170026D01*
X239815Y169251D01*
X240448Y168618D01*
X241223Y168170D01*
X242088Y167939D01*
X242983D01*
X243848Y168170D01*
X244623Y168618D01*
X245256Y169251D01*
X245704Y170026D01*
X245935Y170891D01*
Y171786D01*
X245704Y172651D01*
X245256Y173426D01*
X244623Y174059D01*
X243848Y174507D01*
X242983Y174739D01*
D02*
G37*
G36*
X212983D02*
X212088D01*
X211223Y174507D01*
X210448Y174059D01*
X209815Y173426D01*
X209367Y172651D01*
X209135Y171786D01*
Y170891D01*
X209367Y170026D01*
X209815Y169251D01*
X210448Y168618D01*
X211223Y168170D01*
X212088Y167939D01*
X212983D01*
X213848Y168170D01*
X214623Y168618D01*
X215256Y169251D01*
X215704Y170026D01*
X215935Y170891D01*
Y171786D01*
X215704Y172651D01*
X215256Y173426D01*
X214623Y174059D01*
X213848Y174507D01*
X212983Y174739D01*
D02*
G37*
G36*
X162983D02*
X162088D01*
X161223Y174507D01*
X160448Y174059D01*
X159815Y173426D01*
X159367Y172651D01*
X159135Y171786D01*
Y170891D01*
X159367Y170026D01*
X159815Y169251D01*
X160448Y168618D01*
X161223Y168170D01*
X162088Y167939D01*
X162983D01*
X163848Y168170D01*
X164623Y168618D01*
X165256Y169251D01*
X165704Y170026D01*
X165935Y170891D01*
Y171786D01*
X165704Y172651D01*
X165256Y173426D01*
X164623Y174059D01*
X163848Y174507D01*
X162983Y174739D01*
D02*
G37*
G36*
X132983D02*
X132088D01*
X131223Y174507D01*
X130448Y174059D01*
X129815Y173426D01*
X129367Y172651D01*
X129135Y171786D01*
Y170891D01*
X129367Y170026D01*
X129815Y169251D01*
X130448Y168618D01*
X131223Y168170D01*
X132088Y167939D01*
X132983D01*
X133848Y168170D01*
X134623Y168618D01*
X135256Y169251D01*
X135704Y170026D01*
X135935Y170891D01*
Y171786D01*
X135704Y172651D01*
X135256Y173426D01*
X134623Y174059D01*
X133848Y174507D01*
X132983Y174739D01*
D02*
G37*
G36*
X122983D02*
X122088D01*
X121223Y174507D01*
X120448Y174059D01*
X119815Y173426D01*
X119367Y172651D01*
X119135Y171786D01*
Y170891D01*
X119367Y170026D01*
X119815Y169251D01*
X120448Y168618D01*
X121223Y168170D01*
X122088Y167939D01*
X122983D01*
X123848Y168170D01*
X124623Y168618D01*
X125256Y169251D01*
X125704Y170026D01*
X125935Y170891D01*
Y171786D01*
X125704Y172651D01*
X125256Y173426D01*
X124623Y174059D01*
X123848Y174507D01*
X122983Y174739D01*
D02*
G37*
G36*
X92983D02*
X92088D01*
X91223Y174507D01*
X90448Y174059D01*
X89815Y173426D01*
X89367Y172651D01*
X89135Y171786D01*
Y170891D01*
X89367Y170026D01*
X89815Y169251D01*
X90448Y168618D01*
X91223Y168170D01*
X92088Y167939D01*
X92983D01*
X93848Y168170D01*
X94623Y168618D01*
X95256Y169251D01*
X95704Y170026D01*
X95935Y170891D01*
Y171786D01*
X95704Y172651D01*
X95256Y173426D01*
X94623Y174059D01*
X93848Y174507D01*
X92983Y174739D01*
D02*
G37*
G36*
X202983Y174739D02*
X202088D01*
X201223Y174507D01*
X200448Y174059D01*
X199815Y173426D01*
X199367Y172651D01*
X199135Y171786D01*
Y170891D01*
X199367Y170026D01*
X199815Y169251D01*
X200448Y168618D01*
X201223Y168170D01*
X202088Y167939D01*
X202983D01*
X203848Y168170D01*
X204623Y168618D01*
X205256Y169251D01*
X205704Y170026D01*
X205935Y170891D01*
Y171786D01*
X205704Y172651D01*
X205256Y173426D01*
X204623Y174059D01*
X203848Y174507D01*
X202983Y174739D01*
D02*
G37*
G36*
X172983D02*
X172088D01*
X171223Y174507D01*
X170448Y174059D01*
X169815Y173426D01*
X169367Y172651D01*
X169135Y171786D01*
Y170891D01*
X169367Y170026D01*
X169815Y169251D01*
X170448Y168618D01*
X171223Y168170D01*
X172088Y167939D01*
X172983D01*
X173848Y168170D01*
X174623Y168618D01*
X175256Y169251D01*
X175704Y170026D01*
X175935Y170891D01*
Y171786D01*
X175704Y172651D01*
X175256Y173426D01*
X174623Y174059D01*
X173848Y174507D01*
X172983Y174739D01*
D02*
G37*
G36*
X62794Y181201D02*
X61340D01*
X59914Y180917D01*
X58570Y180361D01*
X57361Y179553D01*
X56333Y178525D01*
X55525Y177315D01*
X54969Y175972D01*
X54685Y174546D01*
Y173092D01*
X54969Y171666D01*
X55525Y170322D01*
X56333Y169113D01*
X57361Y168085D01*
X58570Y167277D01*
X59914Y166721D01*
X61340Y166437D01*
X62794D01*
X64220Y166721D01*
X65564Y167277D01*
X66773Y168085D01*
X67801Y169113D01*
X68609Y170322D01*
X69165Y171666D01*
X69449Y173092D01*
Y174546D01*
X69165Y175972D01*
X68609Y177315D01*
X67801Y178525D01*
X66773Y179553D01*
X65564Y180361D01*
X64220Y180917D01*
X62794Y181201D01*
D02*
G37*
G36*
X17794D02*
X16340D01*
X14914Y180917D01*
X13570Y180361D01*
X12361Y179553D01*
X11333Y178525D01*
X10525Y177315D01*
X9969Y175972D01*
X9685Y174546D01*
Y173092D01*
X9969Y171666D01*
X10525Y170322D01*
X11333Y169113D01*
X12361Y168085D01*
X13570Y167277D01*
X14914Y166721D01*
X16340Y166437D01*
X17794D01*
X19220Y166721D01*
X20564Y167277D01*
X21773Y168085D01*
X22801Y169113D01*
X23609Y170322D01*
X24165Y171666D01*
X24449Y173092D01*
Y174546D01*
X24165Y175972D01*
X23609Y177315D01*
X22801Y178525D01*
X21773Y179553D01*
X20564Y180361D01*
X19220Y180917D01*
X17794Y181201D01*
D02*
G37*
G36*
X213676Y162061D02*
X212781D01*
X211916Y161830D01*
X211141Y161382D01*
X211103Y161344D01*
X211441Y161005D01*
X210884Y160449D01*
X210546Y160787D01*
X210508Y160749D01*
X210060Y159974D01*
X209828Y159109D01*
Y158214D01*
X210060Y157349D01*
X210508Y156574D01*
X210546Y156536D01*
X210884Y156874D01*
X211441Y156317D01*
X211103Y155979D01*
X211141Y155941D01*
X211916Y155493D01*
X212781Y155261D01*
X213676D01*
X214541Y155493D01*
X215316Y155941D01*
X215354Y155979D01*
X215016Y156317D01*
X215573Y156874D01*
X215911Y156536D01*
X215949Y156574D01*
X216397Y157349D01*
X216628Y158214D01*
Y159109D01*
X216397Y159974D01*
X215949Y160749D01*
X215911Y160787D01*
X215573Y160449D01*
X215016Y161005D01*
X215354Y161344D01*
X215316Y161382D01*
X214541Y161830D01*
X213676Y162061D01*
D02*
G37*
G36*
X173676D02*
X172781D01*
X171916Y161830D01*
X171141Y161382D01*
X171103Y161344D01*
X171441Y161005D01*
X170884Y160449D01*
X170546Y160787D01*
X170508Y160749D01*
X170060Y159974D01*
X169828Y159109D01*
Y158214D01*
X170060Y157349D01*
X170508Y156574D01*
X170546Y156536D01*
X170884Y156874D01*
X171441Y156317D01*
X171103Y155979D01*
X171141Y155941D01*
X171916Y155493D01*
X172781Y155261D01*
X173676D01*
X174541Y155493D01*
X175316Y155941D01*
X175354Y155979D01*
X175016Y156317D01*
X175573Y156874D01*
X175911Y156536D01*
X175949Y156574D01*
X176397Y157349D01*
X176628Y158214D01*
Y159109D01*
X176397Y159974D01*
X175949Y160749D01*
X175911Y160787D01*
X175573Y160449D01*
X175016Y161005D01*
X175354Y161344D01*
X175316Y161382D01*
X174541Y161830D01*
X173676Y162061D01*
D02*
G37*
G36*
X133676D02*
X132781D01*
X131916Y161830D01*
X131141Y161382D01*
X131103Y161344D01*
X131441Y161005D01*
X130884Y160449D01*
X130546Y160787D01*
X130508Y160749D01*
X130060Y159974D01*
X129828Y159109D01*
Y158214D01*
X130060Y157349D01*
X130508Y156574D01*
X130546Y156536D01*
X130884Y156874D01*
X131441Y156317D01*
X131103Y155979D01*
X131141Y155941D01*
X131916Y155493D01*
X132781Y155261D01*
X133676D01*
X134541Y155493D01*
X135316Y155941D01*
X135354Y155979D01*
X135016Y156317D01*
X135573Y156874D01*
X135911Y156536D01*
X135949Y156574D01*
X136397Y157349D01*
X136628Y158214D01*
Y159109D01*
X136397Y159974D01*
X135949Y160749D01*
X135911Y160787D01*
X135573Y160449D01*
X135016Y161005D01*
X135354Y161344D01*
X135316Y161382D01*
X134541Y161830D01*
X133676Y162061D01*
D02*
G37*
G36*
X263676D02*
X262781D01*
X261916Y161830D01*
X261141Y161382D01*
X260508Y160749D01*
X260060Y159974D01*
X259828Y159109D01*
Y158214D01*
X260060Y157349D01*
X260508Y156574D01*
X261141Y155941D01*
X261916Y155493D01*
X262781Y155261D01*
X263676D01*
X264541Y155493D01*
X265316Y155941D01*
X265949Y156574D01*
X266397Y157349D01*
X266628Y158214D01*
Y159109D01*
X266397Y159974D01*
X265949Y160749D01*
X265316Y161382D01*
X264541Y161830D01*
X263676Y162061D01*
D02*
G37*
G36*
X253676D02*
X252781D01*
X251916Y161830D01*
X251141Y161382D01*
X250508Y160749D01*
X250060Y159974D01*
X249828Y159109D01*
Y158214D01*
X250060Y157349D01*
X250508Y156574D01*
X251141Y155941D01*
X251916Y155493D01*
X252781Y155261D01*
X253676D01*
X254541Y155493D01*
X255316Y155941D01*
X255949Y156574D01*
X256397Y157349D01*
X256628Y158214D01*
Y159109D01*
X256397Y159974D01*
X255949Y160749D01*
X255316Y161382D01*
X254541Y161830D01*
X253676Y162061D01*
D02*
G37*
G36*
X243676D02*
X242781D01*
X241916Y161830D01*
X241141Y161382D01*
X240508Y160749D01*
X240060Y159974D01*
X239828Y159109D01*
Y158214D01*
X240060Y157349D01*
X240508Y156574D01*
X241141Y155941D01*
X241916Y155493D01*
X242781Y155261D01*
X243676D01*
X244541Y155493D01*
X245316Y155941D01*
X245949Y156574D01*
X246397Y157349D01*
X246628Y158214D01*
Y159109D01*
X246397Y159974D01*
X245949Y160749D01*
X245316Y161382D01*
X244541Y161830D01*
X243676Y162061D01*
D02*
G37*
G36*
X233676D02*
X232781D01*
X231916Y161830D01*
X231141Y161382D01*
X230508Y160749D01*
X230060Y159974D01*
X229828Y159109D01*
Y158214D01*
X230060Y157349D01*
X230508Y156574D01*
X231141Y155941D01*
X231916Y155493D01*
X232781Y155261D01*
X233676D01*
X234541Y155493D01*
X235316Y155941D01*
X235949Y156574D01*
X236397Y157349D01*
X236628Y158214D01*
Y159109D01*
X236397Y159974D01*
X235949Y160749D01*
X235316Y161382D01*
X234541Y161830D01*
X233676Y162061D01*
D02*
G37*
G36*
X223676D02*
X222781D01*
X221916Y161830D01*
X221141Y161382D01*
X220508Y160749D01*
X220060Y159974D01*
X219828Y159109D01*
Y158214D01*
X220060Y157349D01*
X220508Y156574D01*
X221141Y155941D01*
X221916Y155493D01*
X222781Y155261D01*
X223676D01*
X224541Y155493D01*
X225316Y155941D01*
X225949Y156574D01*
X226397Y157349D01*
X226628Y158214D01*
Y159109D01*
X226397Y159974D01*
X225949Y160749D01*
X225316Y161382D01*
X224541Y161830D01*
X223676Y162061D01*
D02*
G37*
G36*
X203676D02*
X202781D01*
X201916Y161830D01*
X201141Y161382D01*
X200508Y160749D01*
X200060Y159974D01*
X199828Y159109D01*
Y158214D01*
X200060Y157349D01*
X200508Y156574D01*
X201141Y155941D01*
X201916Y155493D01*
X202781Y155261D01*
X203676D01*
X204541Y155493D01*
X205316Y155941D01*
X205949Y156574D01*
X206397Y157349D01*
X206628Y158214D01*
Y159109D01*
X206397Y159974D01*
X205949Y160749D01*
X205316Y161382D01*
X204541Y161830D01*
X203676Y162061D01*
D02*
G37*
G36*
X193676D02*
X192781D01*
X191916Y161830D01*
X191141Y161382D01*
X190508Y160749D01*
X190060Y159974D01*
X189828Y159109D01*
Y158214D01*
X190060Y157349D01*
X190508Y156574D01*
X191141Y155941D01*
X191916Y155493D01*
X192781Y155261D01*
X193676D01*
X194541Y155493D01*
X195316Y155941D01*
X195949Y156574D01*
X196397Y157349D01*
X196628Y158214D01*
Y159109D01*
X196397Y159974D01*
X195949Y160749D01*
X195316Y161382D01*
X194541Y161830D01*
X193676Y162061D01*
D02*
G37*
G36*
X183676D02*
X182781D01*
X181916Y161830D01*
X181141Y161382D01*
X180508Y160749D01*
X180060Y159974D01*
X179828Y159109D01*
Y158214D01*
X180060Y157349D01*
X180508Y156574D01*
X181141Y155941D01*
X181916Y155493D01*
X182781Y155261D01*
X183676D01*
X184541Y155493D01*
X185316Y155941D01*
X185949Y156574D01*
X186397Y157349D01*
X186628Y158214D01*
Y159109D01*
X186397Y159974D01*
X185949Y160749D01*
X185316Y161382D01*
X184541Y161830D01*
X183676Y162061D01*
D02*
G37*
G36*
X163676D02*
X162781D01*
X161916Y161830D01*
X161141Y161382D01*
X160508Y160749D01*
X160060Y159974D01*
X159828Y159109D01*
Y158214D01*
X160060Y157349D01*
X160508Y156574D01*
X161141Y155941D01*
X161916Y155493D01*
X162781Y155261D01*
X163676D01*
X164541Y155493D01*
X165316Y155941D01*
X165949Y156574D01*
X166397Y157349D01*
X166628Y158214D01*
Y159109D01*
X166397Y159974D01*
X165949Y160749D01*
X165316Y161382D01*
X164541Y161830D01*
X163676Y162061D01*
D02*
G37*
G36*
X153676D02*
X152781D01*
X151916Y161830D01*
X151141Y161382D01*
X150508Y160749D01*
X150060Y159974D01*
X149828Y159109D01*
Y158214D01*
X150060Y157349D01*
X150508Y156574D01*
X151141Y155941D01*
X151916Y155493D01*
X152781Y155261D01*
X153676D01*
X154541Y155493D01*
X155316Y155941D01*
X155949Y156574D01*
X156397Y157349D01*
X156628Y158214D01*
Y159109D01*
X156397Y159974D01*
X155949Y160749D01*
X155316Y161382D01*
X154541Y161830D01*
X153676Y162061D01*
D02*
G37*
G36*
X143676D02*
X142781D01*
X141916Y161830D01*
X141141Y161382D01*
X140508Y160749D01*
X140060Y159974D01*
X139828Y159109D01*
Y158214D01*
X140060Y157349D01*
X140508Y156574D01*
X141141Y155941D01*
X141916Y155493D01*
X142781Y155261D01*
X143676D01*
X144541Y155493D01*
X145316Y155941D01*
X145949Y156574D01*
X146397Y157349D01*
X146628Y158214D01*
Y159109D01*
X146397Y159974D01*
X145949Y160749D01*
X145316Y161382D01*
X144541Y161830D01*
X143676Y162061D01*
D02*
G37*
G36*
X123676D02*
X122781D01*
X121916Y161830D01*
X121141Y161382D01*
X120508Y160749D01*
X120060Y159974D01*
X119828Y159109D01*
Y158214D01*
X120060Y157349D01*
X120508Y156574D01*
X121141Y155941D01*
X121916Y155493D01*
X122781Y155261D01*
X123676D01*
X124541Y155493D01*
X125316Y155941D01*
X125949Y156574D01*
X126397Y157349D01*
X126628Y158214D01*
Y159109D01*
X126397Y159974D01*
X125949Y160749D01*
X125316Y161382D01*
X124541Y161830D01*
X123676Y162061D01*
D02*
G37*
G36*
X113676D02*
X112781D01*
X111916Y161830D01*
X111141Y161382D01*
X110508Y160749D01*
X110060Y159974D01*
X109828Y159109D01*
Y158214D01*
X110060Y157349D01*
X110508Y156574D01*
X111141Y155941D01*
X111916Y155493D01*
X112781Y155261D01*
X113676D01*
X114541Y155493D01*
X115316Y155941D01*
X115949Y156574D01*
X116397Y157349D01*
X116628Y158214D01*
Y159109D01*
X116397Y159974D01*
X115949Y160749D01*
X115316Y161382D01*
X114541Y161830D01*
X113676Y162061D01*
D02*
G37*
G36*
X52463Y151975D02*
X51632D01*
X50829Y151760D01*
X50109Y151344D01*
X49522Y150757D01*
X49106Y150037D01*
X48891Y149234D01*
Y148403D01*
X49106Y147601D01*
X49522Y146881D01*
X50109Y146293D01*
X50829Y145878D01*
X51632Y145663D01*
X52463D01*
X53265Y145878D01*
X53985Y146293D01*
X54573Y146881D01*
X54988Y147601D01*
X55203Y148403D01*
Y149234D01*
X54988Y150037D01*
X54573Y150757D01*
X53985Y151344D01*
X53265Y151760D01*
X52463Y151975D01*
D02*
G37*
G36*
X42463D02*
X41632D01*
X40829Y151760D01*
X40110Y151344D01*
X39522Y150757D01*
X39106Y150037D01*
X38891Y149234D01*
Y148403D01*
X39106Y147601D01*
X39522Y146881D01*
X40110Y146293D01*
X40829Y145878D01*
X41632Y145663D01*
X42463D01*
X43265Y145878D01*
X43985Y146293D01*
X44573Y146881D01*
X44988Y147601D01*
X45203Y148403D01*
Y149234D01*
X44988Y150037D01*
X44573Y150757D01*
X43985Y151344D01*
X43265Y151760D01*
X42463Y151975D01*
D02*
G37*
G36*
X22463D02*
X21632D01*
X20829Y151760D01*
X20109Y151344D01*
X19522Y150757D01*
X19106Y150037D01*
X18891Y149234D01*
Y148403D01*
X19106Y147601D01*
X19522Y146881D01*
X20109Y146293D01*
X20829Y145878D01*
X21632Y145663D01*
X22463D01*
X23265Y145878D01*
X23985Y146293D01*
X24573Y146881D01*
X24988Y147601D01*
X25203Y148403D01*
Y149234D01*
X24988Y150037D01*
X24573Y150757D01*
X23985Y151344D01*
X23265Y151760D01*
X22463Y151975D01*
D02*
G37*
G36*
X222983Y144739D02*
X222088D01*
X221223Y144507D01*
X220448Y144059D01*
X220410Y144021D01*
X220748Y143683D01*
X220191Y143126D01*
X219853Y143464D01*
X219815Y143426D01*
X219367Y142651D01*
X219135Y141786D01*
Y140891D01*
X219367Y140026D01*
X219815Y139251D01*
X219853Y139213D01*
X220191Y139551D01*
X220748Y138994D01*
X220410Y138656D01*
X220448Y138618D01*
X221223Y138170D01*
X222088Y137939D01*
X222983D01*
X223848Y138170D01*
X224623Y138618D01*
X224661Y138656D01*
X224323Y138994D01*
X224880Y139551D01*
X225218Y139213D01*
X225256Y139251D01*
X225704Y140026D01*
X225935Y140891D01*
Y141786D01*
X225704Y142651D01*
X225256Y143426D01*
X225218Y143464D01*
X224880Y143126D01*
X224323Y143683D01*
X224661Y144021D01*
X224623Y144059D01*
X223848Y144507D01*
X222983Y144739D01*
D02*
G37*
G36*
X142983D02*
X142088D01*
X141223Y144507D01*
X140448Y144059D01*
X140410Y144021D01*
X140748Y143683D01*
X140191Y143126D01*
X139853Y143464D01*
X139815Y143426D01*
X139367Y142651D01*
X139135Y141786D01*
Y140891D01*
X139367Y140026D01*
X139815Y139251D01*
X139853Y139213D01*
X140191Y139551D01*
X140748Y138994D01*
X140410Y138656D01*
X140448Y138618D01*
X141223Y138170D01*
X142088Y137939D01*
X142983D01*
X143848Y138170D01*
X144623Y138618D01*
X144661Y138656D01*
X144323Y138994D01*
X144879Y139551D01*
X145218Y139213D01*
X145256Y139251D01*
X145704Y140026D01*
X145935Y140891D01*
Y141786D01*
X145704Y142651D01*
X145256Y143426D01*
X145218Y143464D01*
X144879Y143126D01*
X144323Y143683D01*
X144661Y144021D01*
X144623Y144059D01*
X143848Y144507D01*
X142983Y144739D01*
D02*
G37*
G36*
X102983D02*
X102088D01*
X101223Y144507D01*
X100448Y144059D01*
X100410Y144021D01*
X100748Y143683D01*
X100191Y143126D01*
X99853Y143464D01*
X99815Y143426D01*
X99367Y142651D01*
X99135Y141786D01*
Y140891D01*
X99367Y140026D01*
X99815Y139251D01*
X99853Y139213D01*
X100191Y139551D01*
X100748Y138994D01*
X100410Y138656D01*
X100448Y138618D01*
X101223Y138170D01*
X102088Y137939D01*
X102983D01*
X103848Y138170D01*
X104623Y138618D01*
X104661Y138656D01*
X104323Y138994D01*
X104880Y139551D01*
X105218Y139213D01*
X105256Y139251D01*
X105704Y140026D01*
X105935Y140891D01*
Y141786D01*
X105704Y142651D01*
X105256Y143426D01*
X105218Y143464D01*
X104880Y143126D01*
X104323Y143683D01*
X104661Y144021D01*
X104623Y144059D01*
X103848Y144507D01*
X102983Y144739D01*
D02*
G37*
G36*
X182983Y144739D02*
X182088D01*
X181223Y144507D01*
X180448Y144059D01*
X180410Y144021D01*
X180748Y143683D01*
X180191Y143126D01*
X179853Y143464D01*
X179815Y143426D01*
X179367Y142651D01*
X179135Y141786D01*
Y140891D01*
X179367Y140026D01*
X179815Y139251D01*
X179853Y139213D01*
X180191Y139551D01*
X180748Y138994D01*
X180410Y138656D01*
X180448Y138618D01*
X181223Y138170D01*
X182088Y137939D01*
X182983D01*
X183848Y138170D01*
X184623Y138618D01*
X184661Y138656D01*
X184323Y138994D01*
X184880Y139551D01*
X185218Y139213D01*
X185256Y139251D01*
X185704Y140026D01*
X185935Y140891D01*
Y141786D01*
X185704Y142651D01*
X185256Y143426D01*
X185218Y143464D01*
X184880Y143126D01*
X184323Y143683D01*
X184661Y144021D01*
X184623Y144059D01*
X183848Y144507D01*
X182983Y144739D01*
D02*
G37*
G36*
X132983Y144739D02*
X132088D01*
X131223Y144507D01*
X130448Y144059D01*
X129815Y143426D01*
X129367Y142651D01*
X129135Y141786D01*
Y140891D01*
X129367Y140026D01*
X129815Y139251D01*
X130448Y138618D01*
X130461Y138610D01*
X130327Y138110D01*
X124744D01*
X124610Y138610D01*
X124623Y138618D01*
X125256Y139251D01*
X125704Y140026D01*
X125935Y140891D01*
Y141786D01*
X125704Y142651D01*
X125256Y143426D01*
X124623Y144059D01*
X123848Y144507D01*
X122983Y144739D01*
X122088D01*
X121223Y144507D01*
X120448Y144059D01*
X119815Y143426D01*
X119367Y142651D01*
X119135Y141786D01*
Y140891D01*
X119367Y140026D01*
X119815Y139251D01*
X120448Y138618D01*
X120461Y138610D01*
X120327Y138110D01*
X114961D01*
X114689Y138057D01*
X114459Y137903D01*
X100888Y124331D01*
X89974D01*
X89703Y124277D01*
X89473Y124123D01*
X86650Y121300D01*
X86496Y121070D01*
X86442Y120799D01*
Y91337D01*
X86259Y91262D01*
X85816Y90819D01*
X85576Y90240D01*
Y89613D01*
X85816Y89034D01*
X86259Y88591D01*
X86838Y88352D01*
X87464D01*
X88043Y88591D01*
X88486Y89034D01*
X88726Y89613D01*
Y90240D01*
X88486Y90819D01*
X88043Y91262D01*
X87860Y91337D01*
Y120505D01*
X90268Y122913D01*
X101181D01*
X101452Y122967D01*
X101682Y123121D01*
X115254Y136693D01*
X132297D01*
X132568Y136747D01*
X132798Y136900D01*
X132951Y137130D01*
X133005Y137402D01*
Y137945D01*
X133848Y138170D01*
X134623Y138618D01*
X135256Y139251D01*
X135704Y140026D01*
X135935Y140891D01*
Y141786D01*
X135704Y142651D01*
X135256Y143426D01*
X134623Y144059D01*
X133848Y144507D01*
X132983Y144739D01*
D02*
G37*
G36*
X282983D02*
X282088D01*
X281223Y144507D01*
X280448Y144059D01*
X279815Y143426D01*
X279367Y142651D01*
X279135Y141786D01*
Y140891D01*
X279367Y140026D01*
X279815Y139251D01*
X280448Y138618D01*
X281223Y138170D01*
X282088Y137939D01*
X282983D01*
X283848Y138170D01*
X284623Y138618D01*
X285256Y139251D01*
X285704Y140026D01*
X285935Y140891D01*
Y141786D01*
X285704Y142651D01*
X285256Y143426D01*
X284623Y144059D01*
X283848Y144507D01*
X282983Y144739D01*
D02*
G37*
G36*
X272983D02*
X272088D01*
X271223Y144507D01*
X270448Y144059D01*
X269815Y143426D01*
X269367Y142651D01*
X269135Y141786D01*
Y140891D01*
X269367Y140026D01*
X269815Y139251D01*
X270448Y138618D01*
X271223Y138170D01*
X272088Y137939D01*
X272983D01*
X273848Y138170D01*
X274623Y138618D01*
X275256Y139251D01*
X275704Y140026D01*
X275935Y140891D01*
Y141786D01*
X275704Y142651D01*
X275256Y143426D01*
X274623Y144059D01*
X273848Y144507D01*
X272983Y144739D01*
D02*
G37*
G36*
X262983D02*
X262088D01*
X261223Y144507D01*
X260448Y144059D01*
X259815Y143426D01*
X259367Y142651D01*
X259135Y141786D01*
Y140891D01*
X259367Y140026D01*
X259815Y139251D01*
X260448Y138618D01*
X261223Y138170D01*
X262088Y137939D01*
X262983D01*
X263848Y138170D01*
X264623Y138618D01*
X265256Y139251D01*
X265704Y140026D01*
X265935Y140891D01*
Y141786D01*
X265704Y142651D01*
X265256Y143426D01*
X264623Y144059D01*
X263848Y144507D01*
X262983Y144739D01*
D02*
G37*
G36*
X252983D02*
X252088D01*
X251223Y144507D01*
X250448Y144059D01*
X249815Y143426D01*
X249367Y142651D01*
X249135Y141786D01*
Y140891D01*
X249367Y140026D01*
X249815Y139251D01*
X250448Y138618D01*
X251223Y138170D01*
X252088Y137939D01*
X252983D01*
X253848Y138170D01*
X254623Y138618D01*
X255256Y139251D01*
X255704Y140026D01*
X255935Y140891D01*
Y141786D01*
X255704Y142651D01*
X255256Y143426D01*
X254623Y144059D01*
X253848Y144507D01*
X252983Y144739D01*
D02*
G37*
G36*
X242983D02*
X242088D01*
X241223Y144507D01*
X240448Y144059D01*
X239815Y143426D01*
X239367Y142651D01*
X239135Y141786D01*
Y140891D01*
X239367Y140026D01*
X239815Y139251D01*
X240448Y138618D01*
X241223Y138170D01*
X242088Y137939D01*
X242983D01*
X243848Y138170D01*
X244623Y138618D01*
X245256Y139251D01*
X245704Y140026D01*
X245935Y140891D01*
Y141786D01*
X245704Y142651D01*
X245256Y143426D01*
X244623Y144059D01*
X243848Y144507D01*
X242983Y144739D01*
D02*
G37*
G36*
X232983D02*
X232088D01*
X231223Y144507D01*
X230448Y144059D01*
X229815Y143426D01*
X229367Y142651D01*
X229135Y141786D01*
Y140891D01*
X229367Y140026D01*
X229815Y139251D01*
X230448Y138618D01*
X231223Y138170D01*
X232088Y137939D01*
X232983D01*
X233848Y138170D01*
X234623Y138618D01*
X235256Y139251D01*
X235704Y140026D01*
X235935Y140891D01*
Y141786D01*
X235704Y142651D01*
X235256Y143426D01*
X234623Y144059D01*
X233848Y144507D01*
X232983Y144739D01*
D02*
G37*
G36*
X212983D02*
X212088D01*
X211223Y144507D01*
X210448Y144059D01*
X209815Y143426D01*
X209367Y142651D01*
X209135Y141786D01*
Y140891D01*
X209367Y140026D01*
X209815Y139251D01*
X210448Y138618D01*
X211223Y138170D01*
X212088Y137939D01*
X212983D01*
X213848Y138170D01*
X214623Y138618D01*
X215256Y139251D01*
X215704Y140026D01*
X215935Y140891D01*
Y141786D01*
X215704Y142651D01*
X215256Y143426D01*
X214623Y144059D01*
X213848Y144507D01*
X212983Y144739D01*
D02*
G37*
G36*
X162983D02*
X162088D01*
X161223Y144507D01*
X160448Y144059D01*
X159815Y143426D01*
X159367Y142651D01*
X159135Y141786D01*
Y140891D01*
X159367Y140026D01*
X159815Y139251D01*
X160448Y138618D01*
X161223Y138170D01*
X162088Y137939D01*
X162983D01*
X163848Y138170D01*
X164623Y138618D01*
X165256Y139251D01*
X165704Y140026D01*
X165935Y140891D01*
Y141786D01*
X165704Y142651D01*
X165256Y143426D01*
X164623Y144059D01*
X163848Y144507D01*
X162983Y144739D01*
D02*
G37*
G36*
X152983D02*
X152088D01*
X151223Y144507D01*
X150448Y144059D01*
X149815Y143426D01*
X149367Y142651D01*
X149135Y141786D01*
Y140891D01*
X149367Y140026D01*
X149815Y139251D01*
X150448Y138618D01*
X151223Y138170D01*
X152088Y137939D01*
X152983D01*
X153848Y138170D01*
X154623Y138618D01*
X155256Y139251D01*
X155704Y140026D01*
X155935Y140891D01*
Y141786D01*
X155704Y142651D01*
X155256Y143426D01*
X154623Y144059D01*
X153848Y144507D01*
X152983Y144739D01*
D02*
G37*
G36*
X112983D02*
X112088D01*
X111223Y144507D01*
X110448Y144059D01*
X109815Y143426D01*
X109367Y142651D01*
X109135Y141786D01*
Y140891D01*
X109367Y140026D01*
X109815Y139251D01*
X110448Y138618D01*
X111223Y138170D01*
X112088Y137939D01*
X112983D01*
X113848Y138170D01*
X114623Y138618D01*
X115256Y139251D01*
X115704Y140026D01*
X115935Y140891D01*
Y141786D01*
X115704Y142651D01*
X115256Y143426D01*
X114623Y144059D01*
X113848Y144507D01*
X112983Y144739D01*
D02*
G37*
G36*
X92983D02*
X92088D01*
X91223Y144507D01*
X90448Y144059D01*
X89815Y143426D01*
X89367Y142651D01*
X89135Y141786D01*
Y140891D01*
X89367Y140026D01*
X89815Y139251D01*
X90448Y138618D01*
X91223Y138170D01*
X92088Y137939D01*
X92983D01*
X93848Y138170D01*
X94623Y138618D01*
X95256Y139251D01*
X95704Y140026D01*
X95935Y140891D01*
Y141786D01*
X95704Y142651D01*
X95256Y143426D01*
X94623Y144059D01*
X93848Y144507D01*
X92983Y144739D01*
D02*
G37*
G36*
X202983Y144739D02*
X202088D01*
X201223Y144507D01*
X200448Y144059D01*
X199815Y143426D01*
X199367Y142651D01*
X199135Y141786D01*
Y140891D01*
X199367Y140026D01*
X199815Y139251D01*
X200448Y138618D01*
X201223Y138170D01*
X202088Y137939D01*
X202983D01*
X203848Y138170D01*
X204623Y138618D01*
X205256Y139251D01*
X205704Y140026D01*
X205935Y140891D01*
Y141786D01*
X205704Y142651D01*
X205256Y143426D01*
X204623Y144059D01*
X203848Y144507D01*
X202983Y144739D01*
D02*
G37*
G36*
X192983D02*
X192088D01*
X191223Y144507D01*
X190448Y144059D01*
X189815Y143426D01*
X189367Y142651D01*
X189135Y141786D01*
Y140891D01*
X189367Y140026D01*
X189815Y139251D01*
X190448Y138618D01*
X191223Y138170D01*
X192088Y137939D01*
X192983D01*
X193848Y138170D01*
X194623Y138618D01*
X195256Y139251D01*
X195704Y140026D01*
X195935Y140891D01*
Y141786D01*
X195704Y142651D01*
X195256Y143426D01*
X194623Y144059D01*
X193848Y144507D01*
X192983Y144739D01*
D02*
G37*
G36*
X172983D02*
X172088D01*
X171223Y144507D01*
X170448Y144059D01*
X169815Y143426D01*
X169367Y142651D01*
X169135Y141786D01*
Y140891D01*
X169367Y140026D01*
X169815Y139251D01*
X170448Y138618D01*
X171223Y138170D01*
X172088Y137939D01*
X172983D01*
X173848Y138170D01*
X174623Y138618D01*
X175256Y139251D01*
X175704Y140026D01*
X175935Y140891D01*
Y141786D01*
X175704Y142651D01*
X175256Y143426D01*
X174623Y144059D01*
X173848Y144507D01*
X172983Y144739D01*
D02*
G37*
G36*
X57463Y141975D02*
X56632D01*
X55829Y141760D01*
X55110Y141344D01*
X54522Y140757D01*
X54106Y140037D01*
X53891Y139234D01*
Y138403D01*
X54106Y137601D01*
X54522Y136881D01*
X55110Y136293D01*
X55829Y135878D01*
X56632Y135663D01*
X57463D01*
X58265Y135878D01*
X58985Y136293D01*
X59573Y136881D01*
X59988Y137601D01*
X60203Y138403D01*
Y139234D01*
X59988Y140037D01*
X59573Y140757D01*
X58985Y141344D01*
X58265Y141760D01*
X57463Y141975D01*
D02*
G37*
G36*
X32463Y151975D02*
X31632D01*
X30829Y151760D01*
X30110Y151344D01*
X29522Y150757D01*
X29106Y150037D01*
X28891Y149234D01*
Y148403D01*
X29106Y147601D01*
X29522Y146881D01*
X30110Y146293D01*
X30829Y145878D01*
X31338Y145742D01*
Y138938D01*
X31392Y138667D01*
X31546Y138437D01*
X32618Y137365D01*
X31822Y136569D01*
X31822Y136569D01*
X-409Y104339D01*
X-563Y104109D01*
X-617Y103837D01*
Y94878D01*
X-563Y94607D01*
X-409Y94377D01*
X3424Y90543D01*
Y87008D01*
X3093D01*
X2514Y86768D01*
X2071Y86325D01*
X1831Y85746D01*
Y85120D01*
X2071Y84541D01*
X2514Y84098D01*
X3093Y83858D01*
X3719D01*
X4298Y84098D01*
X4637Y84436D01*
X4975Y84098D01*
X5554Y83858D01*
X6180D01*
X6759Y84098D01*
X7202Y84541D01*
X7442Y85120D01*
Y85746D01*
X7202Y86325D01*
X6759Y86768D01*
X6180Y87008D01*
X5833D01*
Y91247D01*
X5779Y91519D01*
X5625Y91749D01*
X3347Y94026D01*
X3497Y94584D01*
X3845Y94728D01*
X3977Y94860D01*
X7779D01*
X7815Y94848D01*
X8203Y94446D01*
X8203Y94446D01*
Y66828D01*
X3316Y61941D01*
X3140Y61678D01*
X3079Y61368D01*
X3079Y61368D01*
Y51763D01*
X2996Y51729D01*
X2553Y51286D01*
X2313Y50707D01*
Y50080D01*
X2553Y49502D01*
X2996Y49059D01*
X3575Y48819D01*
X4201D01*
X4780Y49059D01*
X5223Y49502D01*
X5463Y50080D01*
Y50707D01*
X5223Y51286D01*
X4780Y51729D01*
X4697Y51763D01*
Y61033D01*
X9585Y65921D01*
X9760Y66183D01*
X9822Y66493D01*
X9822Y66493D01*
Y94110D01*
X10571Y94860D01*
X54930D01*
X54964Y94777D01*
X55407Y94334D01*
X55490Y94300D01*
Y51644D01*
X55490Y51644D01*
X55552Y51335D01*
X55687Y51131D01*
X55512Y50707D01*
Y50080D01*
X55752Y49502D01*
X56195Y49059D01*
X56773Y48819D01*
X57400D01*
X57979Y49059D01*
X58422Y49502D01*
X58661Y50080D01*
Y50707D01*
X58422Y51286D01*
X57979Y51729D01*
X57400Y51968D01*
X57120D01*
X57108Y51980D01*
Y94300D01*
X57191Y94334D01*
X57634Y94777D01*
X57669Y94860D01*
X82655D01*
Y75264D01*
X82655Y75264D01*
X82717Y74955D01*
X82892Y74692D01*
X83354Y74231D01*
X83354Y74231D01*
X83616Y74055D01*
X83926Y73994D01*
X83926Y73994D01*
X85638D01*
X85673Y73911D01*
X86116Y73468D01*
X86695Y73228D01*
X87321D01*
X87900Y73468D01*
X88343Y73911D01*
X88583Y74490D01*
Y75116D01*
X88343Y75695D01*
X87900Y76138D01*
X87321Y76378D01*
X86695D01*
X86116Y76138D01*
X85673Y75695D01*
X85638Y75612D01*
X84274D01*
Y95208D01*
X84274Y95208D01*
X84212Y95518D01*
X84037Y95780D01*
X84037Y95780D01*
X83575Y96241D01*
X83313Y96417D01*
X83003Y96478D01*
X83003Y96478D01*
X57669D01*
X57634Y96561D01*
X57191Y97004D01*
X56612Y97244D01*
X55986D01*
X55407Y97004D01*
X54964Y96561D01*
X54930Y96478D01*
X4485D01*
X4288Y96955D01*
X3845Y97398D01*
X3266Y97638D01*
X2640D01*
X2292Y97494D01*
X1792Y97782D01*
Y103133D01*
X33235Y134576D01*
X33235Y134576D01*
X33317Y134659D01*
X43596D01*
X43867Y134713D01*
X44097Y134866D01*
X45373Y136142D01*
X45829Y135878D01*
X46632Y135663D01*
X47463D01*
X48265Y135878D01*
X48985Y136293D01*
X49573Y136881D01*
X49988Y137601D01*
X50203Y138403D01*
Y139234D01*
X49988Y140037D01*
X49573Y140757D01*
X48985Y141344D01*
X48265Y141760D01*
X47463Y141975D01*
X46632D01*
X45829Y141760D01*
X45110Y141344D01*
X44522Y140757D01*
X44106Y140037D01*
X43891Y139234D01*
Y138403D01*
X44106Y137601D01*
X44370Y137144D01*
X43302Y136077D01*
X39475D01*
X39268Y136577D01*
X39573Y136881D01*
X39988Y137601D01*
X40203Y138403D01*
Y139234D01*
X39988Y140037D01*
X39573Y140757D01*
X38985Y141344D01*
X38265Y141760D01*
X37463Y141975D01*
X36632D01*
X35829Y141760D01*
X35109Y141344D01*
X34522Y140757D01*
X34106Y140037D01*
X33891Y139234D01*
Y138804D01*
X33391Y138597D01*
X32756Y139232D01*
Y145742D01*
X33265Y145878D01*
X33985Y146293D01*
X34573Y146881D01*
X34988Y147601D01*
X35203Y148403D01*
Y149234D01*
X34988Y150037D01*
X34573Y150757D01*
X33985Y151344D01*
X33265Y151760D01*
X32463Y151975D01*
D02*
G37*
G36*
X27463Y141975D02*
X26632D01*
X25829Y141760D01*
X25109Y141344D01*
X24522Y140757D01*
X24106Y140037D01*
X23891Y139234D01*
Y138403D01*
X24106Y137601D01*
X24522Y136881D01*
X25109Y136293D01*
X25829Y135878D01*
X26632Y135663D01*
X27463D01*
X28265Y135878D01*
X28985Y136293D01*
X29573Y136881D01*
X29988Y137601D01*
X30203Y138403D01*
Y139234D01*
X29988Y140037D01*
X29573Y140757D01*
X28985Y141344D01*
X28265Y141760D01*
X27463Y141975D01*
D02*
G37*
G36*
X131309Y134431D02*
X130683D01*
X130104Y134191D01*
X129661Y133748D01*
X129421Y133169D01*
Y132543D01*
X129661Y131964D01*
X130104Y131521D01*
X130683Y131281D01*
X131309D01*
X131888Y131521D01*
X132331Y131964D01*
X132571Y132543D01*
Y133169D01*
X132331Y133748D01*
X131888Y134191D01*
X131309Y134431D01*
D02*
G37*
G36*
X202282Y134252D02*
X201655D01*
X201077Y134012D01*
X200634Y133569D01*
X200394Y132990D01*
Y132364D01*
X200634Y131785D01*
X201077Y131342D01*
X201655Y131102D01*
X202282D01*
X202861Y131342D01*
X203304Y131785D01*
X203543Y132364D01*
Y132990D01*
X203304Y133569D01*
X202861Y134012D01*
X202282Y134252D01*
D02*
G37*
G36*
X166061D02*
X165435D01*
X164856Y134012D01*
X164413Y133569D01*
X164173Y132990D01*
Y132364D01*
X164413Y131785D01*
X164856Y131342D01*
X165435Y131102D01*
X166061D01*
X166640Y131342D01*
X167083Y131785D01*
X167323Y132364D01*
Y132990D01*
X167083Y133569D01*
X166640Y134012D01*
X166061Y134252D01*
D02*
G37*
G36*
X99132D02*
X98506D01*
X97927Y134012D01*
X97484Y133569D01*
X97244Y132990D01*
Y132364D01*
X97484Y131785D01*
X97927Y131342D01*
X98506Y131102D01*
X99132D01*
X99711Y131342D01*
X100154Y131785D01*
X100394Y132364D01*
Y132990D01*
X100154Y133569D01*
X99711Y134012D01*
X99132Y134252D01*
D02*
G37*
G36*
X267242Y127165D02*
X266616D01*
X266037Y126926D01*
X265594Y126483D01*
X265354Y125904D01*
Y125277D01*
X265594Y124698D01*
X266037Y124256D01*
X266616Y124016D01*
X267242D01*
X267821Y124256D01*
X268264Y124698D01*
X268504Y125277D01*
Y125904D01*
X268264Y126483D01*
X267821Y126926D01*
X267242Y127165D01*
D02*
G37*
G36*
X232203D02*
X231576D01*
X230998Y126926D01*
X230555Y126483D01*
X230315Y125904D01*
Y125277D01*
X230555Y124698D01*
X230998Y124256D01*
X231576Y124016D01*
X232203D01*
X232782Y124256D01*
X233225Y124698D01*
X233465Y125277D01*
Y125904D01*
X233225Y126483D01*
X232782Y126926D01*
X232203Y127165D01*
D02*
G37*
G36*
X3463Y117717D02*
X2836D01*
X2258Y117477D01*
X1815Y117034D01*
X1575Y116455D01*
Y115829D01*
X1815Y115250D01*
X2258Y114807D01*
X2836Y114567D01*
X3463D01*
X4042Y114807D01*
X4485Y115250D01*
X4724Y115829D01*
Y116455D01*
X4485Y117034D01*
X4042Y117477D01*
X3463Y117717D01*
D02*
G37*
G36*
X201888Y117323D02*
X201262D01*
X200683Y117083D01*
X200240Y116640D01*
X200000Y116061D01*
Y115435D01*
X200076Y115252D01*
X178681Y93857D01*
X178563Y93833D01*
X178333Y93680D01*
X118396Y33743D01*
X118243Y33513D01*
X118189Y33242D01*
Y7316D01*
X118006Y7241D01*
X117563Y6798D01*
X117323Y6219D01*
Y5592D01*
X117563Y5014D01*
X118006Y4571D01*
X118584Y4331D01*
X119211D01*
X119790Y4571D01*
X120233Y5014D01*
X120472Y5592D01*
Y6219D01*
X120233Y6798D01*
X119790Y7241D01*
X119606Y7316D01*
Y32948D01*
X179158Y92500D01*
X179277Y92523D01*
X179507Y92677D01*
X201078Y114249D01*
X201262Y114173D01*
X201888D01*
X202467Y114413D01*
X202910Y114856D01*
X203150Y115435D01*
Y116061D01*
X202910Y116640D01*
X202467Y117083D01*
X201888Y117323D01*
D02*
G37*
G36*
X56801Y115808D02*
X56175D01*
X55596Y115568D01*
X55153Y115125D01*
X54913Y114547D01*
Y113920D01*
X55153Y113341D01*
X55596Y112898D01*
X56175Y112659D01*
X56801D01*
X57380Y112898D01*
X57823Y113341D01*
X58063Y113920D01*
Y114547D01*
X57823Y115125D01*
X57380Y115568D01*
X56801Y115808D01*
D02*
G37*
G36*
X102943Y104279D02*
X102316D01*
X101737Y104040D01*
X101294Y103597D01*
X101055Y103018D01*
Y102391D01*
X101294Y101813D01*
X101737Y101370D01*
X102316Y101130D01*
X102943D01*
X103521Y101370D01*
X103964Y101813D01*
X104204Y102391D01*
Y103018D01*
X103964Y103597D01*
X103521Y104040D01*
X102943Y104279D01*
D02*
G37*
G36*
X194801Y103937D02*
X194175D01*
X193596Y103697D01*
X193153Y103254D01*
X192913Y102675D01*
Y102049D01*
X193153Y101470D01*
X193596Y101027D01*
X194175Y100787D01*
X194801D01*
X195380Y101027D01*
X195823Y101470D01*
X196063Y102049D01*
Y102675D01*
X195823Y103254D01*
X195380Y103697D01*
X194801Y103937D01*
D02*
G37*
G36*
X168131Y103599D02*
X166696D01*
X165289Y103319D01*
X163963Y102770D01*
X162770Y101973D01*
X161756Y100958D01*
X160959Y99765D01*
X160410Y98440D01*
X160130Y97033D01*
Y95598D01*
X160410Y94191D01*
X160959Y92866D01*
X161756Y91672D01*
X162770Y90658D01*
X163963Y89861D01*
X165289Y89312D01*
X166696Y89032D01*
X168131D01*
X169538Y89312D01*
X170863Y89861D01*
X172056Y90658D01*
X173071Y91672D01*
X173868Y92866D01*
X174417Y94191D01*
X174697Y95598D01*
Y97033D01*
X174417Y98440D01*
X173868Y99765D01*
X173071Y100958D01*
X172056Y101973D01*
X170863Y102770D01*
X169538Y103319D01*
X168131Y103599D01*
D02*
G37*
G36*
X194014Y87008D02*
X193387D01*
X192809Y86768D01*
X192366Y86325D01*
X192290Y86142D01*
X178347D01*
X178075Y86088D01*
X177845Y85934D01*
X121499Y29588D01*
X121345Y29358D01*
X121291Y29087D01*
Y4541D01*
X121155Y4485D01*
X120712Y4042D01*
X120472Y3463D01*
Y2836D01*
X120712Y2258D01*
X121155Y1815D01*
X121734Y1575D01*
X122361D01*
X122939Y1815D01*
X123382Y2258D01*
X123622Y2836D01*
Y3463D01*
X123382Y4042D01*
X122939Y4485D01*
X122709Y4580D01*
Y28793D01*
X178640Y84724D01*
X192290D01*
X192366Y84541D01*
X192809Y84098D01*
X193387Y83858D01*
X194014D01*
X194593Y84098D01*
X195036Y84541D01*
X195276Y85120D01*
Y85746D01*
X195036Y86325D01*
X194593Y86768D01*
X194014Y87008D01*
D02*
G37*
G36*
X192439Y80709D02*
X191813D01*
X191234Y80469D01*
X190791Y80026D01*
X190551Y79447D01*
Y78821D01*
X190791Y78242D01*
X191234Y77799D01*
X191813Y77559D01*
X192439D01*
X193018Y77799D01*
X193461Y78242D01*
X193701Y78821D01*
Y79447D01*
X193461Y80026D01*
X193018Y80469D01*
X192439Y80709D01*
D02*
G37*
G36*
X53069Y70472D02*
X52443D01*
X51864Y70233D01*
X51421Y69790D01*
X51181Y69211D01*
Y68584D01*
X51421Y68006D01*
X51864Y67563D01*
X52443Y67323D01*
X53069D01*
X53648Y67563D01*
X54091Y68006D01*
X54331Y68584D01*
Y69211D01*
X54091Y69790D01*
X53648Y70233D01*
X53069Y70472D01*
D02*
G37*
G36*
X-80D02*
X-707D01*
X-1286Y70233D01*
X-1729Y69790D01*
X-1969Y69211D01*
Y68584D01*
X-1729Y68006D01*
X-1286Y67563D01*
X-707Y67323D01*
X-80D01*
X498Y67563D01*
X941Y68006D01*
X1181Y68584D01*
Y69211D01*
X941Y69790D01*
X498Y70233D01*
X-80Y70472D01*
D02*
G37*
G36*
X169998Y74410D02*
X169372D01*
X168793Y74170D01*
X168350Y73727D01*
X168110Y73148D01*
Y72521D01*
X168350Y71943D01*
X168634Y71658D01*
X168574Y71119D01*
X168555Y71084D01*
X168399Y71020D01*
X167956Y70577D01*
X167717Y69998D01*
Y69372D01*
X167956Y68793D01*
X168399Y68350D01*
X168517Y68301D01*
X168744Y67821D01*
X168504Y67242D01*
Y66616D01*
X168744Y66037D01*
X169187Y65594D01*
X169765Y65354D01*
X170392D01*
X170971Y65594D01*
X171414Y66037D01*
X171653Y66616D01*
Y67242D01*
X171414Y67821D01*
X170971Y68264D01*
X170853Y68313D01*
X170626Y68793D01*
X170866Y69372D01*
Y69998D01*
X170626Y70577D01*
X170342Y70861D01*
X170402Y71401D01*
X170422Y71435D01*
X170577Y71500D01*
X171020Y71943D01*
X171260Y72521D01*
Y73148D01*
X171020Y73727D01*
X170577Y74170D01*
X169998Y74410D01*
D02*
G37*
G36*
X125922Y55654D02*
X125295D01*
X124716Y55414D01*
X124274Y54971D01*
X124034Y54393D01*
Y53766D01*
X124274Y53187D01*
X124716Y52744D01*
X125295Y52505D01*
X125922D01*
X126501Y52744D01*
X126944Y53187D01*
X127183Y53766D01*
Y54393D01*
X126944Y54971D01*
X126501Y55414D01*
X125922Y55654D01*
D02*
G37*
G36*
X214487Y41732D02*
X213860D01*
X213281Y41493D01*
X212838Y41050D01*
X212598Y40471D01*
Y39844D01*
X212838Y39265D01*
X213281Y38822D01*
X213860Y38583D01*
X214487D01*
X215065Y38822D01*
X215508Y39265D01*
X215748Y39844D01*
Y40471D01*
X215508Y41050D01*
X215065Y41493D01*
X214487Y41732D01*
D02*
G37*
G36*
X255163Y41732D02*
X254537D01*
X253958Y41492D01*
X253515Y41049D01*
X253275Y40470D01*
Y39844D01*
X253515Y39265D01*
X253958Y38822D01*
X254537Y38582D01*
X255163D01*
X255742Y38822D01*
X256185Y39265D01*
X256425Y39844D01*
Y40470D01*
X256185Y41049D01*
X255742Y41492D01*
X255163Y41732D01*
D02*
G37*
G36*
X81416Y36220D02*
X80789D01*
X80210Y35981D01*
X79767Y35538D01*
X79528Y34959D01*
Y34332D01*
X79767Y33754D01*
X80210Y33311D01*
X80789Y33071D01*
X81416D01*
X81994Y33311D01*
X82437Y33754D01*
X82677Y34332D01*
Y34959D01*
X82437Y35538D01*
X81994Y35981D01*
X81416Y36220D01*
D02*
G37*
G36*
X58639Y32188D02*
X57824D01*
X57036Y31977D01*
X56330Y31569D01*
X55753Y30993D01*
X55346Y30287D01*
X55135Y29499D01*
Y28684D01*
X55346Y27896D01*
X55753Y27190D01*
X56330Y26613D01*
X57036Y26206D01*
X57824Y25995D01*
X58639D01*
X59427Y26206D01*
X60133Y26613D01*
X60710Y27190D01*
X61117Y27896D01*
X61328Y28684D01*
Y29499D01*
X61117Y30287D01*
X60710Y30993D01*
X60133Y31569D01*
X59427Y31977D01*
X58639Y32188D01*
D02*
G37*
G36*
X48639D02*
X47824D01*
X47036Y31977D01*
X46330Y31569D01*
X45753Y30993D01*
X45346Y30287D01*
X45135Y29499D01*
Y28684D01*
X45346Y27896D01*
X45753Y27190D01*
X46330Y26613D01*
X47036Y26206D01*
X47824Y25995D01*
X48639D01*
X49427Y26206D01*
X50133Y26613D01*
X50710Y27190D01*
X51117Y27896D01*
X51328Y28684D01*
Y29499D01*
X51117Y30287D01*
X50710Y30993D01*
X50133Y31569D01*
X49427Y31977D01*
X48639Y32188D01*
D02*
G37*
G36*
X58639Y22188D02*
X57824D01*
X57036Y21977D01*
X56330Y21569D01*
X56320Y21560D01*
X56660Y21219D01*
X56104Y20662D01*
X55763Y21003D01*
X55753Y20993D01*
X55346Y20287D01*
X55135Y19499D01*
Y18684D01*
X55346Y17896D01*
X55753Y17190D01*
X55763Y17180D01*
X56104Y17520D01*
X56660Y16964D01*
X56320Y16623D01*
X56330Y16613D01*
X57036Y16206D01*
X57824Y15994D01*
X58639D01*
X59427Y16206D01*
X60133Y16613D01*
X60143Y16623D01*
X59802Y16964D01*
X60359Y17520D01*
X60700Y17180D01*
X60710Y17190D01*
X61117Y17896D01*
X61328Y18684D01*
Y19499D01*
X61117Y20287D01*
X60710Y20993D01*
X60700Y21003D01*
X60359Y20662D01*
X59802Y21219D01*
X60143Y21560D01*
X60133Y21569D01*
X59427Y21977D01*
X58639Y22188D01*
D02*
G37*
G36*
X48639D02*
X47824D01*
X47036Y21977D01*
X46330Y21569D01*
X46320Y21560D01*
X46661Y21219D01*
X46104Y20662D01*
X45763Y21003D01*
X45753Y20993D01*
X45346Y20287D01*
X45135Y19499D01*
Y18684D01*
X45346Y17896D01*
X45753Y17190D01*
X45763Y17180D01*
X46104Y17520D01*
X46661Y16964D01*
X46320Y16623D01*
X46330Y16613D01*
X47036Y16206D01*
X47824Y15994D01*
X48639D01*
X49427Y16206D01*
X50133Y16613D01*
X50143Y16623D01*
X49802Y16964D01*
X50359Y17520D01*
X50700Y17180D01*
X50710Y17190D01*
X51117Y17896D01*
X51328Y18684D01*
Y19499D01*
X51117Y20287D01*
X50710Y20993D01*
X50700Y21003D01*
X50359Y20662D01*
X49802Y21219D01*
X50143Y21560D01*
X50133Y21569D01*
X49427Y21977D01*
X48639Y22188D01*
D02*
G37*
G36*
X156772Y16929D02*
X156146D01*
X155567Y16689D01*
X155124Y16246D01*
X154884Y15668D01*
Y15041D01*
X155124Y14462D01*
X155567Y14019D01*
X156146Y13780D01*
X156772D01*
X157351Y14019D01*
X157794Y14462D01*
X158034Y15041D01*
Y15668D01*
X157794Y16246D01*
X157351Y16689D01*
X156772Y16929D01*
D02*
G37*
G36*
X168817Y20079D02*
X168191D01*
X167612Y19839D01*
X167169Y19396D01*
X166929Y18817D01*
Y18191D01*
X167169Y17612D01*
X167390Y17391D01*
X167302Y17146D01*
X167145Y16929D01*
X166598D01*
X166019Y16689D01*
X165576Y16246D01*
X165336Y15668D01*
Y15041D01*
X165576Y14462D01*
X166019Y14019D01*
X166598Y13780D01*
X166672D01*
X166950Y13364D01*
X166923Y13299D01*
Y12673D01*
X167163Y12094D01*
X167606Y11651D01*
X168184Y11411D01*
X168811D01*
X169390Y11651D01*
X169833Y12094D01*
X170072Y12673D01*
Y13299D01*
X169833Y13878D01*
X169390Y14321D01*
X168811Y14561D01*
X168737D01*
X168459Y14976D01*
X168486Y15041D01*
Y15668D01*
X168246Y16246D01*
X168025Y16467D01*
X168113Y16712D01*
X168270Y16929D01*
X168817D01*
X169396Y17169D01*
X169839Y17612D01*
X170079Y18191D01*
Y18817D01*
X169839Y19396D01*
X169396Y19839D01*
X168817Y20079D01*
D02*
G37*
G36*
X216849Y12992D02*
X216222D01*
X215643Y12752D01*
X215200Y12309D01*
X214961Y11731D01*
Y11104D01*
X215200Y10525D01*
X215643Y10082D01*
X216222Y9843D01*
X216849D01*
X217427Y10082D01*
X217870Y10525D01*
X218110Y11104D01*
Y11731D01*
X217870Y12309D01*
X217427Y12752D01*
X216849Y12992D01*
D02*
G37*
G36*
X108638Y12647D02*
X108012D01*
X107433Y12407D01*
X106990Y11964D01*
X106750Y11385D01*
Y10759D01*
X106990Y10180D01*
X107433Y9737D01*
X108012Y9497D01*
X108638D01*
X109217Y9737D01*
X109660Y10180D01*
X109900Y10759D01*
Y11385D01*
X109660Y11964D01*
X109217Y12407D01*
X108638Y12647D01*
D02*
G37*
G36*
X127393Y12598D02*
X126767D01*
X126188Y12358D01*
X125745Y11915D01*
X125505Y11337D01*
Y10710D01*
X125745Y10131D01*
X126188Y9688D01*
X126767Y9448D01*
X127393D01*
X127972Y9688D01*
X128415Y10131D01*
X128655Y10710D01*
Y11337D01*
X128415Y11915D01*
X127972Y12358D01*
X127393Y12598D01*
D02*
G37*
G36*
X102675Y9843D02*
X102049D01*
X101470Y9603D01*
X101027Y9160D01*
X100787Y8581D01*
Y7954D01*
X101027Y7376D01*
X101470Y6933D01*
X102049Y6693D01*
X102675D01*
X103254Y6933D01*
X103697Y7376D01*
X103937Y7954D01*
Y8581D01*
X103697Y9160D01*
X103254Y9603D01*
X102675Y9843D01*
D02*
G37*
G36*
X92439D02*
X91813D01*
X91234Y9603D01*
X90791Y9160D01*
X90551Y8581D01*
Y7954D01*
X90791Y7376D01*
X91234Y6933D01*
X91813Y6693D01*
X92439D01*
X93018Y6933D01*
X93461Y7376D01*
X93701Y7954D01*
Y8581D01*
X93461Y9160D01*
X93018Y9603D01*
X92439Y9843D01*
D02*
G37*
G36*
X82203D02*
X81577D01*
X80998Y9603D01*
X80555Y9160D01*
X80315Y8581D01*
Y7954D01*
X80555Y7376D01*
X80998Y6933D01*
X81577Y6693D01*
X82203D01*
X82782Y6933D01*
X83225Y7376D01*
X83465Y7954D01*
Y8581D01*
X83225Y9160D01*
X82782Y9603D01*
X82203Y9843D01*
D02*
G37*
G36*
X58639Y12188D02*
X57824D01*
X57036Y11977D01*
X56330Y11569D01*
X55753Y10993D01*
X55346Y10287D01*
X55135Y9499D01*
Y8684D01*
X55346Y7896D01*
X55753Y7190D01*
X56330Y6613D01*
X57036Y6205D01*
X57824Y5994D01*
X58639D01*
X59427Y6205D01*
X60133Y6613D01*
X60710Y7190D01*
X61117Y7896D01*
X61328Y8684D01*
Y9499D01*
X61117Y10287D01*
X60710Y10993D01*
X60133Y11569D01*
X59427Y11977D01*
X58639Y12188D01*
D02*
G37*
G36*
X51328D02*
X45135D01*
Y5994D01*
X51328D01*
Y12188D01*
D02*
G37*
G36*
X165368Y117394D02*
X164742D01*
X164163Y117155D01*
X163720Y116712D01*
X163480Y116133D01*
Y115506D01*
X163720Y114927D01*
X164163Y114485D01*
X164346Y114409D01*
Y107868D01*
X161020Y104542D01*
X161020Y104542D01*
X153042Y96564D01*
X152888Y96334D01*
X152834Y96063D01*
Y84782D01*
X152834Y84782D01*
Y73262D01*
X115247Y35675D01*
X115093Y35445D01*
X115039Y35173D01*
Y4561D01*
X114856Y4485D01*
X114413Y4042D01*
X114173Y3463D01*
Y2836D01*
X114413Y2258D01*
X114856Y1815D01*
X115435Y1575D01*
X116061D01*
X116640Y1815D01*
X117083Y2258D01*
X117323Y2836D01*
Y3463D01*
X117083Y4042D01*
X116640Y4485D01*
X116457Y4561D01*
Y34880D01*
X154045Y72467D01*
X154198Y72697D01*
X154252Y72969D01*
Y84782D01*
X154252Y84782D01*
Y95769D01*
X162022Y103539D01*
X162022Y103539D01*
X165556Y107073D01*
X165710Y107303D01*
X165764Y107574D01*
Y114409D01*
X165947Y114485D01*
X166390Y114927D01*
X166630Y115506D01*
Y116133D01*
X166390Y116712D01*
X165947Y117155D01*
X165368Y117394D01*
D02*
G37*
%LPD*%
D11*
X93192Y-1969D02*
X93670Y-2447D01*
Y-7858D02*
Y-2447D01*
X87354Y-7955D02*
X87436Y-7874D01*
X87354Y-8220D02*
Y-7955D01*
X68457Y-7827D02*
X68504Y-7874D01*
X68457Y-7827D02*
Y-5658D01*
X40157Y4553D02*
X40619Y4091D01*
X58708D01*
X40157Y4553D02*
Y61033D01*
X10236Y95669D02*
X56299D01*
X9012Y66493D02*
Y94446D01*
X13108Y88083D02*
X40157Y61033D01*
X9012Y94446D02*
X10236Y95669D01*
X70079Y13780D02*
Y41679D01*
X64567Y14567D02*
Y50261D01*
X65748Y51442D01*
Y87402D01*
X69191Y42567D02*
X70079Y41679D01*
X64567Y14567D02*
X87354Y-8220D01*
X96649Y-6867D02*
X96726Y-6944D01*
X58708Y4091D02*
X68457Y-5658D01*
X70079Y13780D02*
X85827Y-1969D01*
X93192D01*
X56299Y51644D02*
Y95669D01*
X56898Y50582D02*
X57087Y50394D01*
X56898Y50582D02*
Y51045D01*
X56299Y51644D02*
X56898Y51045D01*
X83926Y74803D02*
X87008D01*
X83465Y75264D02*
Y95208D01*
Y75264D02*
X83926Y74803D01*
X83003Y95669D02*
X83465Y95208D01*
X56299Y95669D02*
X56299Y95669D01*
X56299D02*
X56299Y95669D01*
X56299Y95669D02*
X83003D01*
X3888Y61368D02*
X9012Y66493D01*
X3888Y50394D02*
Y61368D01*
X3613Y95669D02*
X10236D01*
X2953Y96063D02*
X3480Y95536D01*
D13*
X105986Y-14647D02*
Y-7701D01*
Y-14647D02*
X106299Y-14961D01*
X90548Y-7874D02*
X90868D01*
X91747Y-8754D01*
X91922D01*
X92076Y-8908D01*
X92076D01*
X92329Y-9161D01*
Y-9161D02*
Y-9161D01*
Y-9161D02*
X92896Y-9728D01*
X92897D01*
X93701Y-10531D01*
Y-14961D02*
Y-10531D01*
X65354Y-7701D02*
X65673D01*
X68504Y-10531D01*
Y-14961D02*
Y-10531D01*
X48252Y-7701D02*
X49460Y-8909D01*
Y-14814D02*
Y-8909D01*
X46409Y-7701D02*
X48252D01*
X49460Y-14814D02*
X49606Y-14961D01*
X59060Y-14956D02*
Y-7701D01*
X59055Y-14961D02*
X59060Y-14956D01*
X203890Y-7874D02*
Y13732D01*
X162945Y-14913D02*
X162992Y-14961D01*
X162945Y-14913D02*
Y-7874D01*
X207039D02*
Y10189D01*
X194441Y-7874D02*
Y28693D01*
X191291Y-7874D02*
Y32236D01*
X175543Y-7874D02*
Y24756D01*
X172394Y-7874D02*
Y29087D01*
X137795Y2287D02*
X236468Y100960D01*
X137795Y-7874D02*
Y2287D01*
X105488Y-732D02*
X105512Y-756D01*
Y51575D02*
X138360Y84423D01*
X134026Y11191D02*
Y11979D01*
X115748Y-14961D02*
Y-7087D01*
X134026Y11979D02*
X134252Y12205D01*
X115748Y-7087D02*
X134026Y11191D01*
X115748Y3150D02*
Y35173D01*
X153543Y72969D01*
X122000Y3197D02*
X122047Y3150D01*
X122000Y3197D02*
Y29087D01*
X118898Y5906D02*
Y33242D01*
X178834Y93178D01*
X179005D01*
X112598Y-14961D02*
X112598Y-14961D01*
X203890Y13732D02*
X236321Y46163D01*
X207039Y10189D02*
X241431Y44580D01*
Y49349D01*
X191291Y32236D02*
X229921Y70866D01*
X194441Y28693D02*
X236614Y70866D01*
X175543Y24756D02*
X221654Y70866D01*
X229921D02*
X231496D01*
X112598Y-14961D02*
Y36614D01*
X105512Y-787D02*
Y51575D01*
X112598Y36614D02*
X140551Y64567D01*
X122000Y29087D02*
X178347Y85433D01*
X165055Y107574D02*
Y115820D01*
X161521Y104040D02*
X165055Y107574D01*
X161521Y104040D02*
X161521D01*
X130602Y107419D02*
Y115927D01*
Y107419D02*
X140551Y97470D01*
X153543Y84782D02*
Y96063D01*
X140551Y64567D02*
Y97470D01*
X153543Y72969D02*
Y84782D01*
X153543Y96063D02*
X161521Y104040D01*
X172394Y29087D02*
X214173Y70866D01*
X178347Y85433D02*
X193701D01*
X179005Y93178D02*
X201575Y115748D01*
X236321Y46163D02*
Y49215D01*
X236441Y49336D01*
X214173Y70866D02*
X216535D01*
X236468Y100960D02*
X256419D01*
X32733Y135078D02*
X33023Y135368D01*
X32733Y135078D02*
X32733D01*
X43596Y135368D02*
X47047Y138819D01*
X33375Y137121D02*
Y137610D01*
X32323Y136068D02*
X32323D01*
X33375Y137121D01*
X33023Y135368D02*
X43596D01*
X32047Y138938D02*
X33375Y137610D01*
X81055Y-7748D02*
X81102Y-7701D01*
X87151Y89926D02*
Y120799D01*
X114961Y137402D02*
X132297D01*
X89974Y123622D02*
X101181D01*
X87151Y120799D02*
X89974Y123622D01*
X101181D02*
X114961Y137402D01*
X132297Y141100D02*
X132535Y141339D01*
X132297Y137402D02*
Y141100D01*
X1083Y103427D02*
X32733Y135078D01*
X92Y103837D02*
X32323Y136068D01*
X32047Y138938D02*
Y148819D01*
X92Y94878D02*
Y103837D01*
X1083Y95288D02*
Y103427D01*
X92Y94878D02*
X4133Y90837D01*
X1083Y95288D02*
X5124Y91247D01*
Y86370D02*
Y91247D01*
X4133Y86480D02*
Y90837D01*
X3406Y85753D02*
X4133Y86480D01*
X3406Y85433D02*
Y85753D01*
X5867Y85433D02*
Y85626D01*
X5124Y86370D02*
X5867Y85626D01*
D14*
X37008Y-14961D02*
D03*
X40157D02*
D03*
X43307D02*
D03*
X46457D02*
D03*
X49606D02*
D03*
X52756D02*
D03*
X55905D02*
D03*
X59055D02*
D03*
X62205D02*
D03*
X65354D02*
D03*
X68504D02*
D03*
X71653D02*
D03*
X74803D02*
D03*
X77953D02*
D03*
X81102D02*
D03*
X84252D02*
D03*
X87402D02*
D03*
X90551D02*
D03*
X93701D02*
D03*
X96850D02*
D03*
X100000D02*
D03*
X103150D02*
D03*
X106299D02*
D03*
X109449D02*
D03*
X112598D02*
D03*
X115748D02*
D03*
X118898D02*
D03*
X122047D02*
D03*
X137795D02*
D03*
X140945D02*
D03*
X144095D02*
D03*
X147244D02*
D03*
X150394D02*
D03*
X153543D02*
D03*
X156693D02*
D03*
X159843D02*
D03*
X162992D02*
D03*
X166142D02*
D03*
X169291D02*
D03*
X172441D02*
D03*
X175591D02*
D03*
X178740D02*
D03*
X181890D02*
D03*
X185039D02*
D03*
X188189D02*
D03*
X191339D02*
D03*
X194488D02*
D03*
X197638D02*
D03*
X200787D02*
D03*
X203937D02*
D03*
X207087D02*
D03*
X210236D02*
D03*
X213386D02*
D03*
X216535D02*
D03*
X219685D02*
D03*
X222835D02*
D03*
X225984D02*
D03*
X232283D02*
D03*
X235433D02*
D03*
X229134D02*
D03*
D24*
X178731Y-5121D02*
X178740Y-5131D01*
X178731Y-5087D02*
X178740Y-5077D01*
Y-14961D02*
Y-5131D01*
X178731Y-5121D02*
Y-5087D01*
X222835Y-14961D02*
Y-3543D01*
X222835Y-3543D01*
X200764Y-14937D02*
X200787Y-14961D01*
X200764Y-14937D02*
Y-4507D01*
X200740Y-4483D02*
X200764Y-4507D01*
D25*
X48232Y9091D02*
D03*
D26*
X58232D02*
D03*
X48232Y19091D02*
D03*
X58232D02*
D03*
X48232Y29091D02*
D03*
X58232D02*
D03*
D27*
X163228Y158661D02*
D03*
X153228D02*
D03*
X183228D02*
D03*
X173228D02*
D03*
X153228Y188661D02*
D03*
X183228D02*
D03*
X172535Y171339D02*
D03*
X202535D02*
D03*
X182535Y141339D02*
D03*
X172535D02*
D03*
X202535D02*
D03*
X192535D02*
D03*
X132535Y171339D02*
D03*
X162535D02*
D03*
X142535Y141339D02*
D03*
X132535D02*
D03*
X162535D02*
D03*
X152535D02*
D03*
X203228Y158661D02*
D03*
X193228D02*
D03*
X223228D02*
D03*
X213228D02*
D03*
X193228Y188661D02*
D03*
X223228D02*
D03*
X263228D02*
D03*
X233228D02*
D03*
X253228Y158661D02*
D03*
X263228D02*
D03*
X233228D02*
D03*
X243228D02*
D03*
X272535Y141339D02*
D03*
X282535D02*
D03*
X252535D02*
D03*
X262535D02*
D03*
X282535Y171339D02*
D03*
X252535D02*
D03*
X212535D02*
D03*
X242535D02*
D03*
X222535Y141339D02*
D03*
X212535D02*
D03*
X242535D02*
D03*
X232535D02*
D03*
X123228Y158661D02*
D03*
X113228D02*
D03*
X143228D02*
D03*
X133228D02*
D03*
X113228Y188661D02*
D03*
X143228D02*
D03*
X92535Y171339D02*
D03*
X122535D02*
D03*
X102535Y141339D02*
D03*
X92535D02*
D03*
X122535D02*
D03*
X112535D02*
D03*
D28*
X22047Y148819D02*
D03*
X27047Y138819D02*
D03*
X32047Y148819D02*
D03*
X37047Y138819D02*
D03*
X42047Y148819D02*
D03*
X47047Y138819D02*
D03*
X52047Y148819D02*
D03*
X57047Y138819D02*
D03*
D29*
X17067Y173819D02*
D03*
X62067D02*
D03*
D30*
X9055Y185600D02*
D03*
X69980D02*
D03*
D31*
X167413Y96315D02*
D03*
D32*
X81102Y34646D02*
D03*
X170079Y66929D02*
D03*
X169685Y72835D02*
D03*
X5906Y98819D02*
D03*
X168504Y18504D02*
D03*
X166911Y15354D02*
D03*
X156459D02*
D03*
X237795Y20866D02*
D03*
X216535Y11417D02*
D03*
X182677Y-7087D02*
D03*
X93670Y-7858D02*
D03*
X90548Y-7874D02*
D03*
X226275Y-7087D02*
D03*
X198158D02*
D03*
X222835Y-3543D02*
D03*
X200740Y-4483D02*
D03*
X203890Y-7874D02*
D03*
X178693Y-5030D02*
D03*
X162945Y-7874D02*
D03*
X207039D02*
D03*
X194441D02*
D03*
X191291D02*
D03*
X175543D02*
D03*
X172394D02*
D03*
X137795D02*
D03*
X87436D02*
D03*
X68504D02*
D03*
X105488Y-732D02*
D03*
X122047Y3150D02*
D03*
X115748D02*
D03*
X118898Y5906D02*
D03*
X134252Y12205D02*
D03*
X127080Y11023D02*
D03*
X246465Y70769D02*
D03*
X277048Y56536D02*
D03*
X231496Y70866D02*
D03*
X287032Y70322D02*
D03*
X256419Y100960D02*
D03*
X264950Y40297D02*
D03*
X241431Y49349D02*
D03*
X254850Y40157D02*
D03*
X236614Y70866D02*
D03*
X264925Y45940D02*
D03*
X262059Y56575D02*
D03*
X266996Y56556D02*
D03*
X281946Y56457D02*
D03*
X236441Y49336D02*
D03*
X229090Y103679D02*
D03*
X226521Y49312D02*
D03*
X150394Y-7701D02*
D03*
X168498Y12986D02*
D03*
X161591Y36246D02*
D03*
X224016Y40157D02*
D03*
X214173D02*
D03*
X157231Y41315D02*
D03*
X144488Y43307D02*
D03*
X223966Y46052D02*
D03*
X144486Y48289D02*
D03*
X221574Y49249D02*
D03*
X164144Y52919D02*
D03*
X183753Y64953D02*
D03*
X137128Y67721D02*
D03*
X163976Y68418D02*
D03*
X143098Y69073D02*
D03*
X169291Y69685D02*
D03*
X221654Y70866D02*
D03*
X216535D02*
D03*
X192126Y79134D02*
D03*
X146720Y80458D02*
D03*
X202626Y81496D02*
D03*
X137894Y84079D02*
D03*
X193701Y85433D02*
D03*
X187461Y89492D02*
D03*
X186575Y94807D02*
D03*
X139370Y101575D02*
D03*
X194488Y102362D02*
D03*
X184396D02*
D03*
X263975Y103991D02*
D03*
X209842Y111811D02*
D03*
X224923Y113443D02*
D03*
X259884Y113693D02*
D03*
X221607Y120968D02*
D03*
X256729Y121187D02*
D03*
X266929Y125591D02*
D03*
X231890D02*
D03*
X221654D02*
D03*
X256793Y126032D02*
D03*
X174167Y111922D02*
D03*
X138976Y112205D02*
D03*
X201575Y115748D02*
D03*
X165055Y115820D02*
D03*
X194882Y120079D02*
D03*
X159055D02*
D03*
X155614Y127772D02*
D03*
X192126Y127953D02*
D03*
X201969Y132677D02*
D03*
X165748D02*
D03*
X191732D02*
D03*
X155710Y132775D02*
D03*
X105986Y-7701D02*
D03*
X81102D02*
D03*
X96649Y-6867D02*
D03*
X102362Y8268D02*
D03*
X92126D02*
D03*
X81890D02*
D03*
X108325Y11072D02*
D03*
X108387Y22770D02*
D03*
X126931Y22920D02*
D03*
X92111Y25611D02*
D03*
X81906Y25645D02*
D03*
X102342Y25648D02*
D03*
X127707Y39407D02*
D03*
X90899Y39825D02*
D03*
X98383Y43023D02*
D03*
X109377Y43154D02*
D03*
X132893Y43310D02*
D03*
X109341Y48532D02*
D03*
X125609Y54079D02*
D03*
X98504Y63331D02*
D03*
X133033Y64104D02*
D03*
X102508Y67413D02*
D03*
X108237Y69174D02*
D03*
X87008Y74803D02*
D03*
X111417Y81890D02*
D03*
X132283Y88583D02*
D03*
X87151Y89926D02*
D03*
X96063Y90158D02*
D03*
X65354Y-7701D02*
D03*
X59060D02*
D03*
X46409D02*
D03*
X69191Y42567D02*
D03*
X3888Y50394D02*
D03*
X57087D02*
D03*
X60236Y52756D02*
D03*
X7087Y53150D02*
D03*
X62598Y61098D02*
D03*
X9241Y61151D02*
D03*
X4896Y68803D02*
D03*
X58268Y68898D02*
D03*
X-394D02*
D03*
X52756D02*
D03*
X69402Y81779D02*
D03*
X46457Y81890D02*
D03*
X-6693D02*
D03*
X16142D02*
D03*
X5867Y85433D02*
D03*
X3406D02*
D03*
X-5914Y87215D02*
D03*
X65748Y87402D02*
D03*
X13108Y88083D02*
D03*
X129134Y96457D02*
D03*
X92913Y97638D02*
D03*
X129134Y101575D02*
D03*
X92849Y102575D02*
D03*
X102629Y102705D02*
D03*
X61927Y106464D02*
D03*
X107087Y111811D02*
D03*
X62205Y114173D02*
D03*
X130602Y115927D02*
D03*
X91732Y120079D02*
D03*
X124016Y120472D02*
D03*
X68504Y125591D02*
D03*
X88528Y127973D02*
D03*
X120840Y128254D02*
D03*
X98819Y132677D02*
D03*
X88569Y132775D02*
D03*
X130996Y132856D02*
D03*
X120760D02*
D03*
X56299Y95669D02*
D03*
X2953Y96063D02*
D03*
X59449Y98425D02*
D03*
X8391Y107157D02*
D03*
X56488Y114233D02*
D03*
X9055Y116142D02*
D03*
X3150D02*
D03*
X45669Y125591D02*
D03*
X-7874Y128347D02*
D03*
X15224Y128380D02*
D03*
X-5512Y180709D02*
D03*
M02*
