G04*
G04 #@! TF.GenerationSoftware,Altium Limited,Altium Designer,24.10.1 (45)*
G04*
G04 Layer_Color=65535*
%FSLAX25Y25*%
%MOIN*%
G70*
G04*
G04 #@! TF.SameCoordinates,17EAC3D7-2FD0-4994-96B9-6E418DA51305*
G04*
G04*
G04 #@! TF.FilePolarity,Positive*
G04*
G01*
G75*
%ADD10C,0.00013*%
%ADD11C,0.00787*%
%ADD12C,0.01000*%
%ADD13C,0.00591*%
G36*
X176888Y105514D02*
X177257Y105361D01*
X177574Y105118D01*
X177574Y105118D01*
X177574Y105117D01*
X177817Y104801D01*
X177970Y104432D01*
X178005Y104166D01*
X178022Y104036D01*
Y103903D01*
Y83067D01*
X178011Y82938D01*
X178011Y82938D01*
X178056Y82708D01*
X178187Y82513D01*
X178188Y82512D01*
X178382Y82382D01*
X178612Y82337D01*
X178614Y82337D01*
X178744Y82348D01*
X184651D01*
X184654Y82345D01*
Y82345D01*
X184654Y82345D01*
X184872Y82302D01*
X185059Y82177D01*
X185184Y81990D01*
X185203Y81894D01*
X185225Y81769D01*
X185227Y81764D01*
X185205Y81645D01*
X185184Y81537D01*
X185063Y81356D01*
X184959Y81284D01*
X184872Y81226D01*
X184654Y81182D01*
X184654D01*
X184651Y81180D01*
X178397D01*
Y81180D01*
X178003Y81232D01*
X177634Y81385D01*
X177316Y81628D01*
X177073Y81946D01*
X176920Y82315D01*
X176885Y82582D01*
X176868Y82712D01*
X176868Y82845D01*
Y103822D01*
X176879Y103822D01*
X176833Y104053D01*
X176702Y104249D01*
X176506Y104380D01*
X176278Y104425D01*
X176278Y104415D01*
X176278Y104415D01*
X159029D01*
X159029Y104415D01*
X159029Y104425D01*
X158801Y104380D01*
X158605Y104249D01*
X158474Y104053D01*
X158429Y103822D01*
X158429Y103822D01*
X158440Y103692D01*
Y82726D01*
X158440Y82726D01*
X158438Y82726D01*
X158440Y82712D01*
X158388Y82315D01*
X158235Y81946D01*
X157997Y81636D01*
X157897Y81556D01*
X157674Y81385D01*
X157304Y81232D01*
X156913Y81180D01*
X156913Y81180D01*
X142032D01*
Y81182D01*
X141812Y81226D01*
X141729Y81280D01*
X141624Y81350D01*
X141499Y81537D01*
X141456Y81758D01*
X141499Y81979D01*
X141554Y82061D01*
X141624Y82166D01*
X141812Y82291D01*
X142032Y82335D01*
Y82336D01*
X156563D01*
X156693Y82326D01*
X156696Y82326D01*
X156926Y82371D01*
X157121Y82502D01*
X157251Y82696D01*
X157297Y82926D01*
X157286D01*
Y103903D01*
X157286Y104036D01*
X157302Y104164D01*
X157338Y104432D01*
X157490Y104801D01*
X157733Y105117D01*
X157734Y105118D01*
X157734Y105118D01*
X158050Y105361D01*
X158419Y105514D01*
X158814Y105566D01*
X158815Y105566D01*
X176493D01*
X176493Y105566D01*
X176888Y105514D01*
D02*
G37*
G36*
X135750Y105566D02*
X152201D01*
X152202Y105554D01*
X152248Y105561D01*
X152438Y105535D01*
X152615Y105462D01*
X152767Y105346D01*
X152883Y105194D01*
X152957Y105017D01*
X152982Y104827D01*
X152957Y104637D01*
X152883Y104460D01*
X152805Y104358D01*
X152814Y104351D01*
X152814Y104350D01*
X136112Y81745D01*
X136094Y81742D01*
X136094D01*
X135974Y81586D01*
X135687Y81365D01*
X135352Y81227D01*
X135053Y81187D01*
X135053D01*
X135045Y81180D01*
X117986D01*
Y81180D01*
X117592Y81232D01*
X117223Y81385D01*
X116905Y81628D01*
X116662Y81946D01*
X116509Y82315D01*
X116474Y82582D01*
X116457Y82712D01*
X116457D01*
Y82845D01*
Y104873D01*
X116459D01*
X116503Y105094D01*
X116628Y105281D01*
X116733Y105351D01*
X116815Y105406D01*
X116906Y105424D01*
X117035Y105449D01*
Y105449D01*
X117253Y105406D01*
X117440Y105281D01*
X117565Y105094D01*
X117609Y104873D01*
X117611Y104873D01*
Y83070D01*
X117600Y82940D01*
Y82940D01*
X117646Y82710D01*
X117776Y82515D01*
X117777Y82515D01*
X117777D01*
X117971Y82385D01*
X118201Y82339D01*
X118204Y82340D01*
X118333Y82350D01*
X135053D01*
X135055Y82351D01*
X135098Y82359D01*
X135182Y82415D01*
X135182Y82415D01*
X135182Y82418D01*
X151152Y104060D01*
X151235Y104163D01*
X151275Y104261D01*
X151276Y104262D01*
X151225Y104385D01*
X151102Y104436D01*
X151101Y104435D01*
X151099Y104434D01*
X150969Y104423D01*
X135968D01*
Y104434D01*
X135737Y104388D01*
X135541Y104257D01*
X135410Y104061D01*
X135364Y103830D01*
X135375Y103819D01*
Y88807D01*
X135375Y88807D01*
X135373Y88807D01*
X135373Y88804D01*
X135329Y88585D01*
X135205Y88398D01*
X135019Y88274D01*
X134799Y88230D01*
Y88231D01*
X134673Y88256D01*
X134579Y88274D01*
X134392Y88399D01*
X134322Y88504D01*
X134267Y88586D01*
X134223Y88807D01*
X134221D01*
Y104036D01*
X134221Y104037D01*
X134273Y104432D01*
X134426Y104801D01*
X134669Y105117D01*
X134669Y105118D01*
X134669Y105118D01*
X134986Y105361D01*
X135354Y105514D01*
X135750Y105566D01*
X135750Y105566D01*
D02*
G37*
G36*
X137775Y74069D02*
X138576Y73933D01*
X139169Y73762D01*
X139180Y73767D01*
X139740Y73535D01*
X140271Y73209D01*
X140664Y72873D01*
X140758Y72781D01*
X141075Y72410D01*
X141387Y71900D01*
X141615Y71349D01*
X141646Y71222D01*
X141642Y71221D01*
X141752Y70840D01*
X141887Y70046D01*
X141932Y69243D01*
X141927Y69158D01*
X141933Y69158D01*
X141933Y69158D01*
Y60471D01*
X140553D01*
Y61910D01*
Y62034D01*
X140553Y62182D01*
X140551Y62187D01*
X140533Y62196D01*
X140419Y62093D01*
X140328Y62010D01*
X140278Y61964D01*
X139538Y61416D01*
X139142Y61178D01*
X139142D01*
X139028Y61108D01*
X138510Y60822D01*
X137947Y60589D01*
X137821Y60543D01*
X137698Y60501D01*
X137310Y60369D01*
X136667Y60241D01*
X136534Y60227D01*
X136189Y60176D01*
X135370Y60135D01*
X135237Y60133D01*
X135105Y60136D01*
X134547Y60173D01*
X133907Y60300D01*
X133599Y60405D01*
X133472Y60448D01*
X133073Y60614D01*
X132550Y60934D01*
X132289Y61157D01*
X132289Y61156D01*
X132126Y61295D01*
X131769Y61714D01*
X131481Y62184D01*
X131417Y62337D01*
X131417D01*
X131367Y62459D01*
X131265Y62705D01*
X131133Y63254D01*
X131095Y63732D01*
X131095Y63866D01*
X131095D01*
X131091Y63909D01*
X131088Y63999D01*
X131135Y64597D01*
X131282Y65207D01*
X131522Y65787D01*
X131851Y66323D01*
X132258Y66800D01*
X132736Y67208D01*
X133056Y67404D01*
X133164Y67477D01*
X133283Y67557D01*
X133795Y67809D01*
X133918Y67861D01*
X134281Y68011D01*
X134409Y68051D01*
X134729Y68165D01*
X134938Y68218D01*
Y68218D01*
X134938Y68218D01*
X135377Y68328D01*
X135508Y68355D01*
Y68355D01*
X135938Y68450D01*
X136116Y68474D01*
X136116Y68475D01*
X136632Y68543D01*
X136765Y68558D01*
X136897Y68574D01*
X137318Y68624D01*
X137319Y68624D01*
X137452Y68630D01*
X137585Y68638D01*
X138045Y68655D01*
X138179Y68660D01*
X138313Y68664D01*
X138936Y68684D01*
X138946Y68684D01*
Y68685D01*
X140538Y68685D01*
X140538D01*
X140538Y68685D01*
X140543Y68687D01*
X140543Y68688D01*
X140552Y68692D01*
X140556Y68766D01*
Y68766D01*
X140554Y68812D01*
X140512Y69773D01*
X140459Y70175D01*
X140444Y70308D01*
X140436Y70407D01*
X140428Y70441D01*
X140330Y70850D01*
X140156Y71270D01*
X139958Y71593D01*
X139876Y71693D01*
X139716Y71887D01*
X139338Y72198D01*
X138963Y72398D01*
X138907Y72428D01*
X138839Y72449D01*
X138839Y72449D01*
X138837Y72444D01*
X138423Y72584D01*
X137727Y72723D01*
X137020Y72769D01*
X136941Y72764D01*
X136807Y72765D01*
X136789Y72766D01*
X136675Y72760D01*
X136090Y72732D01*
X135957Y72723D01*
X135759Y72712D01*
Y72712D01*
X135730Y72708D01*
X135629Y72691D01*
X135453Y72662D01*
X135448Y72666D01*
X135279Y72632D01*
X135158Y72608D01*
X135157Y72608D01*
X135156Y72607D01*
X135032Y72583D01*
X134879Y72553D01*
X134873Y72542D01*
X134750Y72513D01*
X134646Y72488D01*
X134623Y72478D01*
X134624Y72476D01*
X134390Y72380D01*
Y72380D01*
X134169Y72288D01*
X134172Y72281D01*
X133971Y72174D01*
Y72174D01*
X133891Y72130D01*
X133859Y72104D01*
X133529Y71833D01*
X133232Y71472D01*
X133012Y71060D01*
X132876Y70612D01*
X132855Y70400D01*
X131606D01*
X131534Y70478D01*
X131519Y70534D01*
X131608Y70980D01*
X131634Y71107D01*
X131666Y71237D01*
X131733Y71434D01*
D01*
Y71434D01*
Y71434D01*
X131727Y71447D01*
X131798Y71619D01*
X131850Y71742D01*
X131850D01*
X131949Y71983D01*
X132235Y72449D01*
X132572Y72844D01*
X132886Y73112D01*
X132988Y73194D01*
X133097Y73262D01*
X133429Y73465D01*
X133552Y73517D01*
X133742Y73611D01*
X133851Y73652D01*
X133868Y73658D01*
X133993Y73701D01*
X134211Y73775D01*
X134211Y73775D01*
X134423Y73847D01*
X134578Y73878D01*
X134707Y73911D01*
X134971Y73956D01*
Y73956D01*
X134971Y73956D01*
X135256Y74005D01*
X135389Y74022D01*
X135649Y74060D01*
X135832Y74069D01*
X135832Y74070D01*
X136167Y74087D01*
X136300Y74093D01*
X136660Y74108D01*
X136793Y74105D01*
X136964Y74114D01*
X137775Y74069D01*
D02*
G37*
G36*
X129093Y74089D02*
X129106Y72826D01*
X129007Y72736D01*
X128832Y72753D01*
X128714Y72765D01*
X128699Y72764D01*
X128568Y72754D01*
X128325D01*
X128194Y72762D01*
X128189Y72762D01*
X128064Y72752D01*
X127743Y72727D01*
X127308Y72622D01*
X127045Y72513D01*
X127043Y72518D01*
X126543Y72271D01*
X126090Y71969D01*
X126003Y71910D01*
X125982Y71892D01*
X125889Y71821D01*
X125338Y71329D01*
X125141Y71108D01*
X125052Y71009D01*
X125052Y71009D01*
X125052Y71008D01*
X124963Y70908D01*
X124793Y70718D01*
X124369Y70121D01*
X124353Y70098D01*
X124302Y70006D01*
X124307Y70003D01*
X124305Y70000D01*
Y60471D01*
X122926D01*
Y73771D01*
X124305D01*
Y72233D01*
X124305Y72109D01*
Y71949D01*
X124304Y71947D01*
X124305Y71944D01*
Y71941D01*
X124308Y71936D01*
X124313Y71933D01*
X124313Y71933D01*
X124325Y71930D01*
X124439Y72058D01*
X124522Y72150D01*
X124753Y72409D01*
X125352Y72944D01*
X125491Y73043D01*
X125598Y73123D01*
X126121Y73473D01*
X126604Y73711D01*
X126604Y73711D01*
X127031Y73888D01*
X127642Y74035D01*
X127647Y74031D01*
X127799Y74061D01*
X128562Y74111D01*
X128562D01*
X128565Y74114D01*
X128821D01*
X129093Y74089D01*
D02*
G37*
G36*
X197223Y74067D02*
X197827Y73922D01*
X198401Y73684D01*
X198580Y73574D01*
X198693Y73505D01*
X198806Y73433D01*
X199177Y73116D01*
X199522Y72712D01*
X199799Y72260D01*
X199986Y71809D01*
X199990Y71798D01*
X200003Y71766D01*
X200024Y71677D01*
X200055Y71671D01*
X200202Y71891D01*
X200737Y72501D01*
X201150Y72863D01*
X201149Y72864D01*
X201290Y72988D01*
X201909Y73402D01*
X202326Y73607D01*
X202325Y73608D01*
X202503Y73696D01*
X203147Y73915D01*
X203526Y73990D01*
X203526Y73991D01*
X203996Y74071D01*
X204567Y74103D01*
X204699Y74110D01*
Y74110D01*
X204701Y74110D01*
X204832Y74109D01*
X205435Y74062D01*
X205913Y73947D01*
X206037Y73917D01*
X206158Y73868D01*
X206475Y73737D01*
X206591Y73669D01*
X206591D01*
X206880Y73492D01*
X207241Y73184D01*
X207549Y72824D01*
X207753Y72489D01*
X207811Y72369D01*
X207961Y72065D01*
X208071Y71742D01*
X208071Y71742D01*
X208071Y71742D01*
X208171Y71449D01*
X208230Y71148D01*
X208256Y71018D01*
X208280Y70886D01*
X208356Y70435D01*
X208370Y70197D01*
X208380Y70064D01*
X208417Y69307D01*
X208415Y69278D01*
X208417Y69278D01*
X208433Y60566D01*
X208338Y60471D01*
X207054D01*
Y69029D01*
X207065Y69158D01*
X207066Y69178D01*
X207060Y69290D01*
X207031Y69879D01*
X207022Y70012D01*
X207011Y70208D01*
X206988Y70337D01*
X206980Y70382D01*
X206961Y70515D01*
X206961D01*
X206905Y70800D01*
X206878Y70930D01*
X206862Y71012D01*
X206844Y71066D01*
X206812Y71185D01*
X206809Y71194D01*
X206809Y71194D01*
X206807Y71206D01*
X206764Y71308D01*
X206764Y71308D01*
X206672Y71529D01*
X206676Y71531D01*
X206570Y71729D01*
X206570D01*
X206569Y71730D01*
X206496Y71867D01*
X206459Y71911D01*
X206459Y71911D01*
X206458Y71910D01*
X206281Y72126D01*
X206118Y72259D01*
X206115Y72262D01*
X206111Y72265D01*
X206022Y72338D01*
X206015Y72344D01*
Y72344D01*
X205942Y72383D01*
X205827Y72445D01*
X205827Y72445D01*
X205825Y72446D01*
X205825D01*
X205661Y72534D01*
X205624Y72546D01*
X205526Y72575D01*
X205400Y72614D01*
X205401Y72617D01*
X205162Y72674D01*
X205162Y72674D01*
X205039Y72704D01*
X205017Y72709D01*
X204907Y72719D01*
Y72719D01*
X204634Y72740D01*
X204500Y72748D01*
X204348Y72758D01*
X204345Y72758D01*
Y72758D01*
X204218Y72746D01*
X203775Y72711D01*
X203173Y72567D01*
X202600Y72329D01*
X202180Y72072D01*
X202178Y72076D01*
X201526Y71592D01*
X200889Y71015D01*
X200312Y70378D01*
X200145Y70153D01*
X200146Y70152D01*
X200144Y70148D01*
Y60466D01*
X198764D01*
Y69025D01*
X198769Y69158D01*
X198775Y69276D01*
X198774Y69290D01*
X198732Y70154D01*
X198637Y70790D01*
X198640Y70791D01*
X198630Y70894D01*
X198621Y70923D01*
X198472Y71416D01*
X198267Y71798D01*
X198215Y71896D01*
X198200Y71914D01*
X198200Y71914D01*
X198193Y71910D01*
X198011Y72132D01*
X197732Y72361D01*
X197475Y72498D01*
X197413Y72532D01*
X197352Y72550D01*
X197229Y72599D01*
X197224Y72602D01*
X196715Y72724D01*
X196227Y72762D01*
X196193Y72765D01*
X196094Y72762D01*
Y72762D01*
X195554Y72720D01*
X194999Y72586D01*
X194471Y72368D01*
X194005Y72082D01*
X194009Y72075D01*
X193512Y71706D01*
X192803Y71064D01*
X192161Y70355D01*
X192016Y70159D01*
X192018Y70158D01*
X192016Y70153D01*
Y70153D01*
Y60471D01*
X190636D01*
Y73771D01*
X192016D01*
Y72089D01*
X192016Y71966D01*
Y71801D01*
X192018Y71796D01*
X192018Y71796D01*
X192023Y71794D01*
X192023Y71794D01*
X192024Y71794D01*
X192037Y71789D01*
X192150Y71914D01*
X192150D01*
X192233Y72006D01*
X192456Y72251D01*
X193104Y72839D01*
X193342Y73016D01*
Y73016D01*
X193345Y73030D01*
X193988Y73460D01*
X194498Y73712D01*
X194498Y73711D01*
X194498D01*
X194931Y73891D01*
X195524Y74033D01*
X195534Y74027D01*
D01*
X195534Y74027D01*
X195534Y74027D01*
X195799Y74072D01*
X196340Y74102D01*
X196474Y74105D01*
Y74105D01*
X196603Y74115D01*
X197223Y74067D01*
D02*
G37*
G36*
X167230Y74107D02*
X167364Y74108D01*
X168012Y74072D01*
X168705Y73954D01*
X169380Y73760D01*
X169704Y73626D01*
X169715Y73630D01*
X170277Y73353D01*
X170832Y72982D01*
X171334Y72542D01*
X171584Y72257D01*
X171584Y72257D01*
X171793Y72019D01*
X172245Y71342D01*
X172605Y70612D01*
X172789Y70070D01*
X172789Y70070D01*
X172789D01*
X172796Y70066D01*
X173020Y69175D01*
X173171Y68155D01*
X173221Y67125D01*
X173171Y66096D01*
X173020Y65076D01*
X172796Y64186D01*
X172788Y64181D01*
X172788D01*
X172721Y63948D01*
X172450Y63294D01*
X172108Y62674D01*
X171698Y62097D01*
X171592Y61978D01*
X171590Y61980D01*
X171345Y61702D01*
X170839Y61258D01*
X170280Y60884D01*
X169717Y60606D01*
X169707Y60610D01*
X169466Y60510D01*
X168746Y60303D01*
X168007Y60177D01*
X167259Y60135D01*
X166511Y60177D01*
X165772Y60303D01*
X165052Y60510D01*
X164811Y60610D01*
X164800Y60606D01*
X164231Y60886D01*
X163686Y61250D01*
X163193Y61682D01*
X162940Y61971D01*
X162938Y61970D01*
X162821Y62101D01*
X162407Y62684D01*
X162061Y63310D01*
X161787Y63971D01*
X161729Y64173D01*
X161721Y64177D01*
X161493Y65088D01*
X161342Y66106D01*
X161291Y67134D01*
X161342Y68162D01*
X161493Y69180D01*
X161721Y70091D01*
X161729Y70095D01*
Y70095D01*
X161914Y70641D01*
X162273Y71368D01*
X162723Y72042D01*
X162931Y72279D01*
X162932Y72279D01*
X163168Y72549D01*
X163672Y72991D01*
X164229Y73363D01*
X164808Y73648D01*
X164808Y73648D01*
Y73648D01*
X164810Y73651D01*
X165552Y73904D01*
X166348Y74062D01*
X167096Y74111D01*
X167230Y74107D01*
D02*
G37*
G36*
X104838Y68347D02*
X104838Y68347D01*
X104831Y68346D01*
X104839Y68161D01*
X104788Y66868D01*
X104636Y65582D01*
X104497Y64882D01*
X104498Y64881D01*
X104462Y64672D01*
X104266Y63991D01*
X103995Y63336D01*
X103651Y62715D01*
X103358Y62301D01*
X103358D01*
X103358Y62301D01*
X103359Y62296D01*
X102978Y61861D01*
X102478Y61423D01*
X101926Y61054D01*
X101330Y60760D01*
X101142Y60696D01*
X101141Y60698D01*
X100709Y60543D01*
X99785Y60312D01*
X98843Y60172D01*
X97891Y60125D01*
X97602Y60139D01*
X97601Y60137D01*
X97395Y60127D01*
X96372Y60177D01*
X95359Y60327D01*
X94706Y60491D01*
X94693Y60483D01*
X93951Y60735D01*
X93230Y61091D01*
X92818Y61366D01*
X92709Y61439D01*
X92709D01*
X92601Y61518D01*
X92180Y61888D01*
X91773Y62351D01*
X91450Y62834D01*
X91452Y62844D01*
Y62844D01*
X91452D01*
X91193Y63312D01*
X90892Y64039D01*
X90743Y64556D01*
X90744Y64557D01*
X90744D01*
X90744Y64557D01*
X90599Y65136D01*
X90458Y66083D01*
X90441Y66443D01*
X90428Y66455D01*
X90399Y67017D01*
X90406Y67026D01*
X90406D01*
X90406Y67026D01*
X90394Y67465D01*
X90390Y67599D01*
X90390D01*
X90373Y68163D01*
X90368Y68169D01*
X90367Y68349D01*
Y79269D01*
X91747D01*
Y68404D01*
X91745Y68403D01*
X91745D01*
X91745Y68403D01*
X91731Y68075D01*
X91780Y66947D01*
X91927Y65827D01*
X92132Y64903D01*
X92132Y64903D01*
X92147Y64826D01*
X92165Y64773D01*
X92350Y64229D01*
X92629Y63663D01*
X92980Y63138D01*
X93281Y62795D01*
X93274Y62787D01*
X93741Y62389D01*
X94266Y62068D01*
X94834Y61832D01*
X94993Y61794D01*
X95123Y61762D01*
X95499Y61668D01*
X96495Y61520D01*
X97502Y61471D01*
X97609Y61475D01*
X97708Y61470D01*
X97742Y61472D01*
X98744Y61521D01*
X99769Y61673D01*
X100121Y61761D01*
X100120Y61762D01*
X100121Y61762D01*
X100428Y61836D01*
X100975Y62063D01*
X101481Y62373D01*
X101871Y62706D01*
X101931Y62758D01*
X101967Y62799D01*
X101962Y62804D01*
X101962Y62804D01*
X101962Y62804D01*
X102048Y62902D01*
X102214Y63092D01*
X102572Y63628D01*
X102857Y64206D01*
X103052Y64782D01*
X103064Y64816D01*
X103083Y64911D01*
X103082Y64912D01*
X103275Y65783D01*
X103425Y66918D01*
X103474Y68062D01*
X103460Y68403D01*
Y68403D01*
X103458Y68404D01*
Y79269D01*
X104838D01*
Y68347D01*
D02*
G37*
G36*
X177965Y72089D02*
X177966Y71965D01*
Y71965D01*
X177966Y71801D01*
X177968Y71796D01*
X177973Y71794D01*
X177973Y71794D01*
X177988Y71789D01*
X178100Y71914D01*
X178182Y72006D01*
X178387Y72236D01*
X179091Y72865D01*
X179271Y72993D01*
X179272Y72999D01*
X179833Y73374D01*
X180379Y73643D01*
X180498Y73699D01*
X180622Y73743D01*
X181137Y73918D01*
X181509Y73992D01*
X181640Y74015D01*
X181968Y74071D01*
X182534Y74102D01*
X182666Y74108D01*
Y74108D01*
X182686Y74110D01*
X182799Y74109D01*
X183425Y74067D01*
X184023Y73949D01*
X184152Y73912D01*
X184280Y73879D01*
X184772Y73675D01*
Y73675D01*
X184772Y73675D01*
X184774Y73676D01*
X185214Y73405D01*
X185613Y73065D01*
X185953Y72667D01*
X186227Y72220D01*
X186372Y71868D01*
X186416Y71741D01*
X186564Y71304D01*
X186621Y71017D01*
X186649Y70886D01*
X186741Y70343D01*
X186749Y70197D01*
X186749D01*
X186760Y70064D01*
X186798Y69301D01*
X186797Y69278D01*
X186799Y69278D01*
X186799Y69278D01*
Y60471D01*
X185419D01*
Y69026D01*
X185425Y69158D01*
X185431Y69256D01*
X185429Y69291D01*
X185387Y70038D01*
X185263Y70767D01*
X185263Y70767D01*
X185123Y71226D01*
X184873Y71694D01*
X184802Y71781D01*
X184718Y71884D01*
X184718Y71884D01*
X184618Y72006D01*
X184275Y72288D01*
X183882Y72498D01*
X183873Y72500D01*
X183748Y72550D01*
X183732Y72556D01*
X183618Y72584D01*
X183071Y72715D01*
X182411Y72767D01*
X182393Y72768D01*
X182278Y72764D01*
Y72764D01*
X181673Y72716D01*
X181060Y72569D01*
X180476Y72327D01*
X180081Y72085D01*
X180077Y72092D01*
X180061Y72083D01*
X179968Y72014D01*
X179260Y71489D01*
X178521Y70819D01*
X177955Y70195D01*
X177959Y70191D01*
X177957Y70187D01*
Y60471D01*
X176578D01*
Y79269D01*
X177957D01*
X177965Y72089D01*
D02*
G37*
G36*
X158752Y77439D02*
X146106Y62061D01*
X146028Y61965D01*
Y61965D01*
X145927Y61843D01*
X145927Y61841D01*
X145926Y61839D01*
X145926Y61838D01*
X145926Y61838D01*
X145926Y61838D01*
X145927Y61836D01*
X145928Y61834D01*
X145928Y61834D01*
X145928Y61833D01*
X145928Y61833D01*
X145931Y61832D01*
X145933Y61831D01*
X146091D01*
X146215Y61831D01*
X159109D01*
Y60471D01*
X144535D01*
Y62282D01*
X157159Y77677D01*
X157237Y77773D01*
X157337Y77895D01*
X157338Y77897D01*
X157339Y77899D01*
X157339Y77900D01*
X157339Y77900D01*
X157337Y77902D01*
X157337Y77904D01*
X157336Y77904D01*
X157336Y77905D01*
X157336Y77905D01*
X157334Y77905D01*
X157332Y77907D01*
X145661D01*
Y79269D01*
X158752D01*
Y77439D01*
D02*
G37*
G36*
X111072Y60471D02*
X109693D01*
Y79269D01*
X111072D01*
Y60471D01*
D02*
G37*
G36*
X117416Y73781D02*
X117418Y73776D01*
X117423Y73774D01*
X119616D01*
Y72414D01*
X117423D01*
X117418Y72411D01*
X117416Y72406D01*
Y64149D01*
X117411Y64145D01*
X117411D01*
X117411Y64145D01*
X117402Y64009D01*
X117451Y63267D01*
X117538Y62827D01*
X117531Y62826D01*
X117628Y62507D01*
X117786Y62211D01*
X117902Y62069D01*
X117903Y62068D01*
X117903Y62068D01*
X117903Y62068D01*
X117901Y62067D01*
X117940Y62016D01*
X117994Y61974D01*
X118169Y61840D01*
X118376Y61754D01*
X118436Y61730D01*
X118503Y61721D01*
X118632Y61691D01*
X118679Y61680D01*
X119177Y61640D01*
X119265Y61633D01*
X119311Y61637D01*
X119442Y61645D01*
X119640D01*
X119696Y61645D01*
X119726Y61645D01*
X119727Y61645D01*
X119757Y61646D01*
X119757Y61646D01*
X119816Y61647D01*
X119820Y61647D01*
X119893Y61596D01*
X119944Y61530D01*
X119942Y60351D01*
X119772Y60333D01*
X119654Y60322D01*
X119536Y60312D01*
X119494Y60309D01*
X119359Y60311D01*
X119184Y60300D01*
X119184Y60300D01*
X119050Y60285D01*
X119008Y60284D01*
X119008D01*
X118949Y60283D01*
X118900Y60282D01*
X118772Y60292D01*
X118632Y60281D01*
X118087Y60324D01*
X117556Y60452D01*
X117333Y60544D01*
X117325Y60541D01*
X117046Y60690D01*
X116782Y60906D01*
X116566Y61170D01*
X116506Y61282D01*
X116506D01*
X116440Y61399D01*
X116270Y61810D01*
X116152Y62300D01*
X116135Y62518D01*
X116134Y62518D01*
X116083Y62948D01*
X116037Y64139D01*
X116042Y64262D01*
X116036Y64262D01*
X116036Y64262D01*
Y72404D01*
X116034Y72409D01*
X116029Y72411D01*
X114321D01*
Y73771D01*
X116029D01*
X116034Y73773D01*
X116036Y73778D01*
Y77262D01*
X117416D01*
Y73781D01*
D02*
G37*
G36*
X238281Y87795D02*
X211417D01*
Y95653D01*
X238281D01*
Y87795D01*
D02*
G37*
G36*
X228346Y37980D02*
Y30899D01*
Y23742D01*
Y9449D01*
X87795D01*
Y23742D01*
Y30899D01*
D01*
Y37980D01*
Y52609D01*
X228346D01*
Y37980D01*
D02*
G37*
%LPC*%
G36*
X138423Y67336D02*
X138320Y67332D01*
X137306Y67296D01*
X137173Y67289D01*
X137082Y67285D01*
X136783Y67250D01*
X136779Y67253D01*
Y67253D01*
X136283Y67188D01*
X136283Y67187D01*
X136283Y67187D01*
X135816Y67118D01*
X135811Y67110D01*
X135512Y67059D01*
X135382Y67022D01*
X135382Y67021D01*
X134979Y66904D01*
X134978Y66905D01*
X134604Y66778D01*
X134604Y66778D01*
X134477Y66735D01*
X134383Y66688D01*
X134261Y66632D01*
X134142Y66583D01*
X133950Y66466D01*
X133950Y66465D01*
X133662Y66311D01*
X133250Y65973D01*
X132912Y65561D01*
X132661Y65091D01*
X132506Y64581D01*
X132462Y64136D01*
X132454Y64050D01*
X132458Y64002D01*
X132456Y63924D01*
X132497Y63504D01*
X132619Y63101D01*
X132818Y62729D01*
X133085Y62403D01*
X133402Y62143D01*
X133404Y62146D01*
X133772Y61920D01*
X134031Y61813D01*
Y61813D01*
X134031Y61813D01*
X134275Y61712D01*
X134510Y61656D01*
X134515Y61648D01*
X134650Y61621D01*
X134780Y61595D01*
X134781Y61595D01*
Y61595D01*
X134782Y61594D01*
X134782Y61594D01*
X134911Y61569D01*
X135057Y61540D01*
X135057Y61539D01*
X135098Y61531D01*
X135216Y61523D01*
X135349Y61512D01*
X135654Y61495D01*
Y61495D01*
X135787Y61488D01*
X135970Y61477D01*
X135973Y61477D01*
X135992Y61480D01*
X136569Y61517D01*
X137136Y61630D01*
X137351Y61703D01*
X137354Y61702D01*
X137354D01*
Y61702D01*
X137522Y61750D01*
X138183Y62024D01*
X138612Y62261D01*
X138612Y62261D01*
X138842Y62388D01*
X139525Y62872D01*
X139693Y63023D01*
X139698Y63023D01*
X140307Y63574D01*
X140551Y63844D01*
X140551Y63844D01*
X140553Y63849D01*
Y67318D01*
X140551Y67323D01*
X140546Y67325D01*
X138582D01*
X138452Y67335D01*
X138423Y67336D01*
D02*
G37*
G36*
X167221Y72764D02*
X166546Y72720D01*
X165882Y72588D01*
X165346Y72406D01*
X165348Y72401D01*
X165070Y72286D01*
X164550Y71968D01*
X164087Y71572D01*
X163985Y71453D01*
X163985Y71452D01*
X163898Y71352D01*
X163755Y71189D01*
X163407Y70669D01*
X163130Y70107D01*
X162958Y69599D01*
X162961Y69598D01*
X162802Y68964D01*
X162667Y68056D01*
X162622Y67139D01*
X162667Y66223D01*
X162802Y65315D01*
X162961Y64680D01*
X162958Y64679D01*
X163135Y64157D01*
X163421Y63576D01*
X163781Y63038D01*
X163897Y62907D01*
X163898Y62907D01*
X163898Y62907D01*
X163899Y62907D01*
X164116Y62652D01*
X164571Y62264D01*
X165081Y61952D01*
X165348Y61841D01*
X165345Y61834D01*
X165905Y61643D01*
X166528Y61520D01*
X167161Y61478D01*
X167230Y61483D01*
X167291Y61478D01*
X167363Y61483D01*
X167918Y61519D01*
X168535Y61642D01*
X169098Y61833D01*
X169095Y61841D01*
X169362Y61952D01*
X169872Y62264D01*
X170326Y62652D01*
X170544Y62907D01*
X170545Y62907D01*
X170546Y62907D01*
X170665Y63042D01*
X171031Y63590D01*
X171323Y64181D01*
X171450Y64556D01*
X171492Y64680D01*
X171666Y65372D01*
X171796Y66251D01*
X171840Y67139D01*
X171796Y68027D01*
X171666Y68906D01*
X171492Y69599D01*
X171492Y69599D01*
X171328Y70082D01*
X171045Y70655D01*
X170690Y71186D01*
X170545Y71352D01*
Y71352D01*
X170545D01*
X170458Y71452D01*
X170356Y71572D01*
X169893Y71968D01*
X169373Y72286D01*
X169095Y72401D01*
X169097Y72406D01*
X168561Y72588D01*
X167897Y72720D01*
X167221Y72764D01*
D02*
G37*
G36*
X164811Y60610D02*
X164811D01*
D01*
X164811D01*
D02*
G37*
G36*
X169707D02*
X169707D01*
X169707D01*
D01*
D02*
G37*
G36*
X216467Y93679D02*
D01*
Y90935D01*
X216464Y91000D01*
X216461Y91063D01*
X216453Y91123D01*
X216442Y91181D01*
X216431Y91233D01*
X216418Y91282D01*
X216404Y91328D01*
X216390Y91369D01*
X216376Y91407D01*
X216363Y91440D01*
X216349Y91467D01*
X216338Y91492D01*
X216327Y91511D01*
X216319Y91525D01*
X216317Y91533D01*
X216314Y91536D01*
X216284Y91579D01*
X216254Y91623D01*
X216185Y91699D01*
X216150Y91735D01*
X216114Y91765D01*
X216082Y91795D01*
X216049Y91820D01*
X216016Y91844D01*
X215989Y91863D01*
X215962Y91879D01*
X215940Y91896D01*
X215921Y91907D01*
X215907Y91915D01*
X215899Y91918D01*
X215896Y91921D01*
X215844Y91948D01*
X215784Y91972D01*
X215721Y92000D01*
X215656Y92024D01*
X215519Y92071D01*
X215451Y92090D01*
X215386Y92112D01*
X215323Y92128D01*
X215265Y92144D01*
X215211Y92158D01*
X215164Y92172D01*
X215126Y92180D01*
X215099Y92188D01*
X215088Y92191D01*
X215080D01*
X215077Y92194D01*
X215074D01*
X214976Y92218D01*
X214883Y92243D01*
X214804Y92264D01*
X214730Y92289D01*
X214665Y92311D01*
X214608Y92333D01*
X214558Y92352D01*
X214515Y92371D01*
X214479Y92387D01*
X214449Y92401D01*
X214425Y92415D01*
X214405Y92426D01*
X214389Y92436D01*
X214381Y92442D01*
X214375Y92447D01*
X214373D01*
X214335Y92486D01*
X214307Y92524D01*
X214288Y92562D01*
X214274Y92598D01*
X214266Y92630D01*
X214264Y92655D01*
X214261Y92671D01*
Y92674D01*
Y92677D01*
X214264Y92704D01*
X214266Y92729D01*
X214280Y92775D01*
X214299Y92813D01*
X214321Y92846D01*
X214343Y92873D01*
X214362Y92892D01*
X214375Y92906D01*
X214381Y92909D01*
X214419Y92933D01*
X214457Y92955D01*
X214498Y92974D01*
X214542Y92991D01*
X214629Y93015D01*
X214711Y93032D01*
X214752Y93037D01*
X214788Y93040D01*
X214820Y93042D01*
X214848Y93045D01*
X214870Y93048D01*
X214960D01*
X215017Y93042D01*
X215066Y93037D01*
X215113Y93029D01*
X215156Y93018D01*
X215197Y93007D01*
X215233Y92996D01*
X215265Y92985D01*
X215293Y92971D01*
X215317Y92961D01*
X215339Y92950D01*
X215355Y92939D01*
X215369Y92931D01*
X215377Y92925D01*
X215383Y92922D01*
X215386Y92920D01*
X215416Y92895D01*
X215440Y92865D01*
X215487Y92800D01*
X215522Y92731D01*
X215552Y92663D01*
X215563Y92630D01*
X215571Y92600D01*
X215579Y92573D01*
X215585Y92548D01*
X215590Y92529D01*
X215593Y92516D01*
X215596Y92505D01*
Y92502D01*
X216357Y92535D01*
X216349Y92630D01*
X216336Y92720D01*
X216317Y92805D01*
X216289Y92884D01*
X216262Y92958D01*
X216229Y93026D01*
X216196Y93089D01*
X216161Y93143D01*
X216125Y93195D01*
X216093Y93239D01*
X216063Y93277D01*
X216035Y93307D01*
X216011Y93332D01*
X215994Y93351D01*
X215983Y93362D01*
X215978Y93365D01*
X215907Y93419D01*
X215830Y93468D01*
X215746Y93509D01*
X215661Y93548D01*
X215571Y93578D01*
X215481Y93602D01*
X215394Y93624D01*
X215309Y93640D01*
X215227Y93651D01*
X215154Y93662D01*
X215085Y93670D01*
X215025Y93673D01*
X214998Y93676D01*
X214976D01*
X214957Y93679D01*
X216467D01*
X213395D01*
D01*
X214908D01*
X214829Y93676D01*
X214752Y93673D01*
X214679Y93668D01*
X214608Y93657D01*
X214542Y93649D01*
X214482Y93638D01*
X214425Y93624D01*
X214373Y93613D01*
X214326Y93599D01*
X214285Y93589D01*
X214250Y93575D01*
X214220Y93567D01*
X214198Y93559D01*
X214179Y93550D01*
X214168Y93548D01*
X214165Y93545D01*
X214108Y93520D01*
X214056Y93490D01*
X214007Y93460D01*
X213961Y93430D01*
X213919Y93397D01*
X213881Y93367D01*
X213846Y93335D01*
X213813Y93305D01*
X213786Y93275D01*
X213761Y93250D01*
X213739Y93225D01*
X213723Y93204D01*
X213709Y93187D01*
X213701Y93174D01*
X213696Y93165D01*
X213693Y93163D01*
X213666Y93116D01*
X213641Y93067D01*
X213619Y93021D01*
X213600Y92971D01*
X213584Y92925D01*
X213570Y92881D01*
X213562Y92838D01*
X213551Y92800D01*
X213545Y92761D01*
X213540Y92726D01*
X213537Y92696D01*
X213535Y92671D01*
X213532Y92649D01*
Y92636D01*
Y92625D01*
Y92622D01*
X213535Y92540D01*
X213545Y92461D01*
X213565Y92385D01*
X213586Y92314D01*
X213611Y92248D01*
X213641Y92185D01*
X213674Y92128D01*
X213707Y92076D01*
X213737Y92027D01*
X213769Y91986D01*
X213799Y91948D01*
X213824Y91918D01*
X213846Y91896D01*
X213865Y91877D01*
X213876Y91866D01*
X213879Y91863D01*
X213931Y91822D01*
X213988Y91784D01*
X214051Y91746D01*
X214119Y91710D01*
X214187Y91677D01*
X214261Y91647D01*
X214332Y91620D01*
X214403Y91593D01*
X214468Y91571D01*
X214531Y91549D01*
X214588Y91530D01*
X214640Y91516D01*
X214681Y91505D01*
X214698Y91500D01*
X214711Y91497D01*
X214722Y91492D01*
X214730D01*
X214736Y91489D01*
X214738D01*
X214823Y91467D01*
X214902Y91448D01*
X214973Y91432D01*
X215036Y91415D01*
X215093Y91399D01*
X215143Y91385D01*
X215186Y91374D01*
X215225Y91364D01*
X215254Y91355D01*
X215282Y91347D01*
X215304Y91339D01*
X215323Y91334D01*
X215334Y91331D01*
X215345Y91328D01*
X215347Y91325D01*
X215350D01*
X215386Y91312D01*
X215418Y91298D01*
X215476Y91271D01*
X215525Y91241D01*
X215563Y91216D01*
X215590Y91192D01*
X215609Y91175D01*
X215623Y91164D01*
X215626Y91159D01*
X215653Y91123D01*
X215672Y91085D01*
X215686Y91047D01*
X215694Y91011D01*
X215702Y90979D01*
X215705Y90954D01*
Y90938D01*
Y90935D01*
Y90932D01*
X215702Y90894D01*
X215697Y90856D01*
X215689Y90823D01*
X215675Y90788D01*
X215645Y90728D01*
X215612Y90673D01*
X215593Y90651D01*
X215577Y90629D01*
X215560Y90613D01*
X215547Y90596D01*
X215533Y90586D01*
X215525Y90577D01*
X215519Y90572D01*
X215517Y90569D01*
X215481Y90542D01*
X215440Y90517D01*
X215396Y90498D01*
X215353Y90479D01*
X215306Y90465D01*
X215260Y90452D01*
X215170Y90433D01*
X215129Y90427D01*
X215088Y90422D01*
X215053Y90419D01*
X215022Y90416D01*
X214998Y90413D01*
X214962D01*
X214900Y90416D01*
X214840Y90422D01*
X214782Y90430D01*
X214728Y90441D01*
X214679Y90455D01*
X214635Y90468D01*
X214591Y90484D01*
X214556Y90501D01*
X214520Y90517D01*
X214493Y90534D01*
X214465Y90547D01*
X214446Y90561D01*
X214430Y90572D01*
X214419Y90580D01*
X214411Y90586D01*
X214408Y90588D01*
X214373Y90624D01*
X214337Y90662D01*
X214307Y90703D01*
X214280Y90747D01*
X214255Y90793D01*
X214233Y90839D01*
X214195Y90930D01*
X214182Y90970D01*
X214171Y91009D01*
X214160Y91044D01*
X214152Y91077D01*
X214146Y91101D01*
X214141Y91121D01*
X214138Y91132D01*
Y91137D01*
X213395Y91066D01*
D01*
X213412Y90951D01*
X213436Y90842D01*
X213464Y90741D01*
X213499Y90646D01*
X213535Y90561D01*
X213573Y90482D01*
X213611Y90408D01*
X213652Y90345D01*
X213690Y90288D01*
X213726Y90239D01*
X213761Y90195D01*
X213791Y90162D01*
X213816Y90135D01*
X213835Y90116D01*
X213846Y90102D01*
X213851Y90100D01*
X213928Y90042D01*
X214010Y89990D01*
X214097Y89947D01*
X214187Y89908D01*
X214277Y89876D01*
X214370Y89851D01*
X214460Y89829D01*
X214547Y89810D01*
X214629Y89797D01*
X214706Y89786D01*
X214777Y89780D01*
X214837Y89775D01*
X214861Y89772D01*
X214886D01*
X214905Y89769D01*
X214954D01*
X215044Y89772D01*
X215132Y89775D01*
X215214Y89783D01*
X215290Y89791D01*
X215361Y89802D01*
X215429Y89813D01*
X215492Y89824D01*
X215549Y89837D01*
X215599Y89851D01*
X215645Y89862D01*
X215683Y89873D01*
X215713Y89884D01*
X215740Y89892D01*
X215760Y89900D01*
X215771Y89903D01*
X215773Y89906D01*
X215833Y89933D01*
X215891Y89963D01*
X215943Y89996D01*
X215992Y90031D01*
X216038Y90064D01*
X216079Y90100D01*
X216117Y90135D01*
X216153Y90168D01*
X216183Y90201D01*
X216210Y90231D01*
X216232Y90258D01*
X216251Y90280D01*
X216265Y90299D01*
X216276Y90315D01*
X216281Y90323D01*
X216284Y90326D01*
X216317Y90381D01*
X216344Y90433D01*
X216368Y90487D01*
X216390Y90542D01*
X216407Y90594D01*
X216423Y90643D01*
X216434Y90692D01*
X216445Y90738D01*
X216450Y90779D01*
X216456Y90818D01*
X216461Y90850D01*
X216464Y90880D01*
X216467Y90902D01*
Y89769D01*
D01*
Y93679D01*
D02*
G37*
G36*
X235268Y92636D02*
X233494D01*
D01*
X234788D01*
X234725Y92633D01*
X234665Y92622D01*
X234613Y92608D01*
X234566Y92592D01*
X234528Y92576D01*
X234498Y92562D01*
X234487Y92557D01*
X234479Y92551D01*
X234476Y92548D01*
X234474D01*
X234449Y92529D01*
X234422Y92507D01*
X234395Y92483D01*
X234367Y92456D01*
X234315Y92396D01*
X234269Y92335D01*
X234228Y92278D01*
X234209Y92251D01*
X234195Y92229D01*
X234182Y92213D01*
X234173Y92196D01*
X234168Y92188D01*
X234165Y92185D01*
Y92576D01*
X233494D01*
Y89837D01*
X234217D01*
Y90681D01*
Y90747D01*
Y90807D01*
X234220Y90921D01*
X234223Y91025D01*
X234225Y91121D01*
X234231Y91202D01*
X234236Y91279D01*
X234242Y91344D01*
X234247Y91402D01*
X234253Y91451D01*
X234258Y91492D01*
X234263Y91527D01*
X234269Y91555D01*
X234272Y91574D01*
X234274Y91587D01*
X234277Y91596D01*
Y91598D01*
X234288Y91637D01*
X234302Y91675D01*
X234315Y91707D01*
X234329Y91738D01*
X234343Y91765D01*
X234356Y91789D01*
X234381Y91833D01*
X234405Y91863D01*
X234425Y91885D01*
X234436Y91899D01*
X234441Y91901D01*
X234482Y91929D01*
X234526Y91951D01*
X234569Y91964D01*
X234610Y91975D01*
X234646Y91980D01*
X234676Y91986D01*
X234730D01*
X234760Y91980D01*
X234820Y91967D01*
X234878Y91948D01*
X234930Y91926D01*
X234976Y91904D01*
X234995Y91893D01*
X235012Y91885D01*
X235022Y91877D01*
X235033Y91871D01*
X235039Y91869D01*
X235042Y91866D01*
X235268Y92497D01*
X235225Y92521D01*
X235181Y92543D01*
X235137Y92562D01*
X235096Y92578D01*
X235014Y92603D01*
X234941Y92619D01*
X234908Y92625D01*
X234878Y92628D01*
X234853Y92630D01*
X234831Y92633D01*
X234812Y92636D01*
X235268D01*
D02*
G37*
G36*
X221779D02*
Y89837D01*
X220728D01*
Y90681D01*
Y90747D01*
Y90807D01*
X220731Y90921D01*
X220734Y91025D01*
X220736Y91121D01*
X220742Y91202D01*
X220747Y91279D01*
X220753Y91344D01*
X220758Y91402D01*
X220764Y91451D01*
X220769Y91492D01*
X220775Y91527D01*
X220780Y91555D01*
X220783Y91574D01*
X220785Y91587D01*
X220788Y91596D01*
Y91598D01*
X220799Y91637D01*
X220813Y91675D01*
X220827Y91707D01*
X220840Y91738D01*
X220854Y91765D01*
X220867Y91789D01*
X220892Y91833D01*
X220917Y91863D01*
X220936Y91885D01*
X220947Y91899D01*
X220952Y91901D01*
X220993Y91929D01*
X221037Y91951D01*
X221080Y91964D01*
X221121Y91975D01*
X221157Y91980D01*
X221187Y91986D01*
X221241D01*
X221271Y91980D01*
X221332Y91967D01*
X221389Y91948D01*
X221441Y91926D01*
X221487Y91904D01*
X221506Y91893D01*
X221523Y91885D01*
X221533Y91877D01*
X221544Y91871D01*
X221550Y91869D01*
X221553Y91866D01*
X221779Y92497D01*
X221736Y92521D01*
X221692Y92543D01*
X221648Y92562D01*
X221607Y92578D01*
X221525Y92603D01*
X221452Y92619D01*
X221419Y92625D01*
X221389Y92628D01*
X221364Y92630D01*
X221342Y92633D01*
X221323Y92636D01*
X221299D01*
X221236Y92633D01*
X221176Y92622D01*
X221124Y92608D01*
X221078Y92592D01*
X221039Y92576D01*
X221009Y92562D01*
X220998Y92557D01*
X220990Y92551D01*
X220988Y92548D01*
X220985D01*
X220960Y92529D01*
X220933Y92507D01*
X220906Y92483D01*
X220878Y92456D01*
X220827Y92396D01*
X220780Y92335D01*
X220739Y92278D01*
X220720Y92251D01*
X220706Y92229D01*
X220693Y92213D01*
X220685Y92196D01*
X220679Y92188D01*
X220676Y92185D01*
Y92576D01*
X220005D01*
D01*
Y89837D01*
X221779D01*
Y92636D01*
D02*
G37*
G36*
X229298Y91568D02*
X227875D01*
Y90845D01*
X229298D01*
Y91568D01*
D02*
G37*
G36*
X236303Y90561D02*
X235579D01*
Y89837D01*
X236303D01*
Y90561D01*
D02*
G37*
G36*
X235268Y92636D02*
Y89837D01*
D01*
Y92636D01*
D02*
G37*
G36*
X232724Y93616D02*
X229726D01*
Y89837D01*
X230433D01*
Y92311D01*
X231959Y89837D01*
X232724D01*
Y93616D01*
D02*
G37*
G36*
X227215D02*
X226491D01*
Y89837D01*
X227215D01*
Y93616D01*
D02*
G37*
G36*
X225934Y92636D02*
Y89775D01*
X224274D01*
X224362Y89777D01*
X224446Y89788D01*
X224523Y89802D01*
X224558Y89810D01*
X224591Y89821D01*
X224618Y89829D01*
X224646Y89837D01*
X224668Y89843D01*
X224689Y89851D01*
X224703Y89857D01*
X224717Y89862D01*
X224722Y89865D01*
X224725D01*
X224804Y89903D01*
X224878Y89944D01*
X224946Y89990D01*
X225003Y90034D01*
X225031Y90053D01*
X225052Y90072D01*
X225074Y90091D01*
X225091Y90105D01*
X225104Y90119D01*
X225115Y90127D01*
X225121Y90132D01*
X225124Y90135D01*
X225126Y90124D01*
X225129Y90113D01*
X225137Y90086D01*
X225143Y90072D01*
X225145Y90061D01*
X225148Y90053D01*
Y90050D01*
X225162Y90001D01*
X225175Y89958D01*
X225189Y89922D01*
X225200Y89892D01*
X225208Y89868D01*
X225214Y89851D01*
X225219Y89840D01*
Y89837D01*
X225934D01*
X225902Y89908D01*
X225874Y89977D01*
X225850Y90039D01*
X225833Y90094D01*
X225820Y90138D01*
X225814Y90157D01*
X225811Y90173D01*
X225806Y90187D01*
Y90195D01*
X225803Y90201D01*
Y90203D01*
X225798Y90239D01*
X225792Y90274D01*
X225787Y90315D01*
X225784Y90359D01*
X225779Y90446D01*
X225776Y90534D01*
X225773Y90575D01*
Y90613D01*
X225770Y90646D01*
Y90676D01*
Y90700D01*
Y90719D01*
Y90733D01*
Y90736D01*
X225781Y91579D01*
Y91664D01*
X225776Y91743D01*
X225773Y91814D01*
X225765Y91879D01*
X225760Y91940D01*
X225751Y91992D01*
X225741Y92041D01*
X225732Y92082D01*
X225724Y92117D01*
X225713Y92147D01*
X225705Y92174D01*
X225699Y92194D01*
X225691Y92210D01*
X225689Y92221D01*
X225683Y92226D01*
Y92229D01*
X225664Y92262D01*
X225642Y92292D01*
X225590Y92349D01*
X225536Y92398D01*
X225481Y92442D01*
X225429Y92475D01*
X225407Y92488D01*
X225388Y92499D01*
X225372Y92510D01*
X225361Y92516D01*
X225353Y92521D01*
X225350D01*
X225304Y92540D01*
X225252Y92559D01*
X225195Y92576D01*
X225137Y92587D01*
X225017Y92608D01*
X224957Y92617D01*
X224900Y92622D01*
X224845Y92628D01*
X224793Y92630D01*
X224747Y92633D01*
X224706D01*
X224673Y92636D01*
X225934D01*
X223365D01*
X224627D01*
X224528Y92633D01*
X224438Y92628D01*
X224354Y92617D01*
X224274Y92606D01*
X224203Y92592D01*
X224135Y92576D01*
X224075Y92557D01*
X224023Y92540D01*
X223974Y92521D01*
X223933Y92502D01*
X223898Y92486D01*
X223870Y92472D01*
X223849Y92461D01*
X223832Y92450D01*
X223821Y92445D01*
X223818Y92442D01*
X223769Y92404D01*
X223726Y92363D01*
X223682Y92316D01*
X223646Y92270D01*
X223611Y92221D01*
X223581Y92172D01*
X223551Y92125D01*
X223526Y92076D01*
X223507Y92032D01*
X223488Y91992D01*
X223472Y91953D01*
X223461Y91921D01*
X223450Y91893D01*
X223445Y91871D01*
X223442Y91860D01*
X223439Y91855D01*
X224097Y91738D01*
X224124Y91803D01*
X224152Y91860D01*
X224182Y91907D01*
X224209Y91942D01*
X224231Y91970D01*
X224253Y91992D01*
X224264Y92002D01*
X224269Y92005D01*
X224313Y92030D01*
X224362Y92049D01*
X224414Y92062D01*
X224463Y92073D01*
X224504Y92079D01*
X224523D01*
X224539Y92082D01*
X224624D01*
X224670Y92079D01*
X224714Y92073D01*
X224755Y92068D01*
X224790Y92060D01*
X224820Y92054D01*
X224851Y92046D01*
X224875Y92038D01*
X224897Y92027D01*
X224913Y92019D01*
X224930Y92013D01*
X224941Y92005D01*
X224952Y92000D01*
X224957Y91994D01*
X224962Y91992D01*
X224981Y91972D01*
X224998Y91953D01*
X225023Y91907D01*
X225042Y91858D01*
X225052Y91809D01*
X225061Y91765D01*
X225063Y91746D01*
Y91727D01*
X225066Y91713D01*
Y91702D01*
Y91697D01*
Y91694D01*
Y91623D01*
X225025Y91606D01*
X224979Y91590D01*
X224927Y91574D01*
X224872Y91560D01*
X224758Y91530D01*
X224640Y91500D01*
X224586Y91489D01*
X224534Y91478D01*
X224485Y91467D01*
X224444Y91459D01*
X224411Y91451D01*
X224384Y91448D01*
X224367Y91443D01*
X224362D01*
X224294Y91429D01*
X224228Y91415D01*
X224168Y91402D01*
X224113Y91385D01*
X224061Y91372D01*
X224015Y91358D01*
X223971Y91344D01*
X223933Y91331D01*
X223898Y91320D01*
X223868Y91309D01*
X223843Y91298D01*
X223824Y91290D01*
X223808Y91284D01*
X223794Y91279D01*
X223788Y91273D01*
X223786D01*
X223715Y91235D01*
X223652Y91189D01*
X223600Y91142D01*
X223556Y91099D01*
X223521Y91058D01*
X223496Y91025D01*
X223485Y91011D01*
X223480Y91003D01*
X223477Y90998D01*
X223475Y90995D01*
X223439Y90927D01*
X223412Y90856D01*
X223393Y90785D01*
X223379Y90722D01*
X223374Y90692D01*
X223371Y90665D01*
X223368Y90643D01*
Y90621D01*
X223365Y90605D01*
Y90583D01*
X223368Y90520D01*
X223376Y90457D01*
X223387Y90400D01*
X223404Y90345D01*
X223423Y90293D01*
X223442Y90247D01*
X223464Y90203D01*
X223488Y90162D01*
X223510Y90127D01*
X223532Y90094D01*
X223551Y90067D01*
X223570Y90045D01*
X223587Y90029D01*
X223597Y90015D01*
X223606Y90007D01*
X223608Y90004D01*
X223655Y89963D01*
X223707Y89928D01*
X223761Y89898D01*
X223816Y89870D01*
X223870Y89848D01*
X223925Y89832D01*
X223980Y89816D01*
X224031Y89805D01*
X224083Y89794D01*
X224127Y89786D01*
X224168Y89783D01*
X224203Y89777D01*
X224234D01*
X224255Y89775D01*
X225934D01*
Y92636D01*
D02*
G37*
G36*
X222814Y93616D02*
X222090D01*
Y92947D01*
X222814D01*
Y92576D01*
X222090D01*
Y89837D01*
X222814D01*
Y93616D01*
D02*
G37*
G36*
X219448Y92636D02*
Y89775D01*
X218217D01*
X218299Y89777D01*
X218378Y89783D01*
X218454Y89794D01*
X218525Y89807D01*
X218591Y89821D01*
X218653Y89840D01*
X218708Y89859D01*
X218760Y89878D01*
X218806Y89898D01*
X218850Y89914D01*
X218883Y89933D01*
X218913Y89947D01*
X218937Y89960D01*
X218954Y89971D01*
X218965Y89977D01*
X218967Y89979D01*
X219022Y90020D01*
X219074Y90064D01*
X219120Y90113D01*
X219164Y90162D01*
X219202Y90211D01*
X219240Y90263D01*
X219273Y90312D01*
X219300Y90362D01*
X219328Y90405D01*
X219350Y90449D01*
X219369Y90487D01*
X219382Y90520D01*
X219396Y90547D01*
X219404Y90569D01*
X219407Y90580D01*
X219410Y90586D01*
X218689Y90706D01*
X218664Y90632D01*
X218637Y90572D01*
X218607Y90520D01*
X218577Y90479D01*
X218552Y90446D01*
X218531Y90424D01*
X218517Y90411D01*
X218514Y90405D01*
X218511D01*
X218465Y90375D01*
X218419Y90354D01*
X218370Y90337D01*
X218326Y90326D01*
X218285Y90321D01*
X218255Y90318D01*
X218241Y90315D01*
X218225D01*
X218178Y90318D01*
X218135Y90323D01*
X218094Y90332D01*
X218053Y90342D01*
X217982Y90373D01*
X217949Y90386D01*
X217922Y90405D01*
X217894Y90422D01*
X217873Y90435D01*
X217851Y90452D01*
X217834Y90465D01*
X217821Y90476D01*
X217812Y90484D01*
X217807Y90490D01*
X217804Y90493D01*
X217774Y90528D01*
X217750Y90566D01*
X217728Y90607D01*
X217706Y90648D01*
X217690Y90689D01*
X217676Y90730D01*
X217657Y90812D01*
X217649Y90850D01*
X217643Y90883D01*
X217638Y90916D01*
X217635Y90943D01*
Y90965D01*
X217632Y90981D01*
Y90992D01*
Y90995D01*
X219448D01*
X219445Y91145D01*
X219437Y91287D01*
X219421Y91418D01*
X219401Y91538D01*
X219374Y91650D01*
X219347Y91751D01*
X219314Y91844D01*
X219281Y91926D01*
X219249Y91997D01*
X219218Y92060D01*
X219188Y92112D01*
X219161Y92155D01*
X219139Y92188D01*
X219123Y92213D01*
X219109Y92226D01*
X219107Y92232D01*
X219038Y92303D01*
X218965Y92365D01*
X218888Y92420D01*
X218809Y92466D01*
X218727Y92505D01*
X218648Y92537D01*
X218569Y92565D01*
X218495Y92587D01*
X218424Y92603D01*
X218356Y92614D01*
X218299Y92625D01*
X218247Y92630D01*
X218203Y92633D01*
X218186D01*
X218173Y92636D01*
X218146D01*
X218045Y92630D01*
X217949Y92619D01*
X217859Y92600D01*
X217774Y92576D01*
X217695Y92546D01*
X217621Y92513D01*
X217553Y92477D01*
X217490Y92442D01*
X217436Y92406D01*
X217387Y92371D01*
X217343Y92338D01*
X217307Y92308D01*
X217280Y92284D01*
X217261Y92264D01*
X217250Y92254D01*
X217245Y92248D01*
X217182Y92172D01*
X217127Y92093D01*
X217081Y92008D01*
X217040Y91921D01*
X217004Y91830D01*
X216977Y91743D01*
X216953Y91656D01*
X216933Y91571D01*
X216920Y91492D01*
X216909Y91418D01*
X216901Y91353D01*
X216895Y91295D01*
X216893Y91271D01*
Y91249D01*
Y91230D01*
X216890Y91213D01*
Y91183D01*
X216893Y91080D01*
X216901Y90979D01*
X216914Y90883D01*
X216933Y90796D01*
X216953Y90711D01*
X216974Y90635D01*
X216999Y90564D01*
X217026Y90498D01*
X217051Y90438D01*
X217075Y90386D01*
X217097Y90342D01*
X217119Y90307D01*
X217136Y90277D01*
X217149Y90255D01*
X217157Y90244D01*
X217160Y90239D01*
X217228Y90157D01*
X217305Y90086D01*
X217384Y90023D01*
X217469Y89971D01*
X217556Y89925D01*
X217643Y89889D01*
X217731Y89857D01*
X217815Y89832D01*
X217897Y89813D01*
X217974Y89799D01*
X218039Y89788D01*
X218099Y89783D01*
X218127Y89780D01*
X218148Y89777D01*
X218167D01*
X218186Y89775D01*
X219448D01*
Y92636D01*
D02*
G37*
G36*
X217955Y89775D02*
X216890D01*
D01*
X217955D01*
D02*
G37*
%LPD*%
G36*
X232017Y91085D02*
X230466Y93616D01*
X232017D01*
Y91085D01*
D02*
G37*
G36*
X225066Y91006D02*
Y90960D01*
Y90916D01*
X225063Y90875D01*
X225061Y90839D01*
X225058Y90807D01*
Y90779D01*
X225055Y90752D01*
X225052Y90730D01*
X225050Y90711D01*
X225047Y90695D01*
X225044Y90681D01*
X225042Y90670D01*
X225039Y90657D01*
X225036Y90651D01*
X225017Y90602D01*
X224992Y90556D01*
X224965Y90514D01*
X224935Y90479D01*
X224908Y90452D01*
X224886Y90430D01*
X224870Y90419D01*
X224867Y90413D01*
X224864D01*
X224831Y90392D01*
X224796Y90373D01*
X224730Y90340D01*
X224668Y90318D01*
X224610Y90302D01*
X224561Y90293D01*
X224542Y90288D01*
X224523D01*
X224509Y90285D01*
X224490D01*
X224427Y90291D01*
X224370Y90302D01*
X224321Y90321D01*
X224280Y90340D01*
X224247Y90359D01*
X224223Y90378D01*
X224206Y90389D01*
X224201Y90394D01*
X224163Y90438D01*
X224135Y90482D01*
X224116Y90526D01*
X224102Y90566D01*
X224094Y90602D01*
X224092Y90632D01*
X224089Y90643D01*
Y90651D01*
Y90654D01*
Y90657D01*
X224092Y90684D01*
X224094Y90711D01*
X224111Y90763D01*
X224132Y90807D01*
X224160Y90842D01*
X224184Y90872D01*
X224206Y90894D01*
X224223Y90908D01*
X224225Y90913D01*
X224228D01*
X224247Y90924D01*
X224272Y90935D01*
X224299Y90946D01*
X224329Y90960D01*
X224395Y90979D01*
X224460Y90998D01*
X224520Y91014D01*
X224547Y91022D01*
X224572Y91028D01*
X224594Y91033D01*
X224607Y91036D01*
X224618Y91039D01*
X224621D01*
X224676Y91050D01*
X224728Y91063D01*
X224774Y91074D01*
X224818Y91085D01*
X224859Y91093D01*
X224894Y91104D01*
X224927Y91112D01*
X224957Y91121D01*
X224984Y91126D01*
X225006Y91132D01*
X225025Y91137D01*
X225039Y91142D01*
X225052Y91145D01*
X225061Y91148D01*
X225063Y91151D01*
X225066D01*
Y91006D01*
D02*
G37*
G36*
X218230Y92079D02*
X218268Y92073D01*
X218307Y92065D01*
X218342Y92057D01*
X218405Y92030D01*
X218460Y92000D01*
X218484Y91983D01*
X218506Y91967D01*
X218522Y91953D01*
X218539Y91942D01*
X218550Y91931D01*
X218558Y91923D01*
X218563Y91918D01*
X218566Y91915D01*
X218593Y91882D01*
X218618Y91847D01*
X218640Y91811D01*
X218656Y91770D01*
X218686Y91691D01*
X218705Y91615D01*
X218713Y91579D01*
X218719Y91546D01*
X218724Y91516D01*
X218727Y91489D01*
Y91467D01*
X218730Y91451D01*
Y91440D01*
Y91437D01*
X217643D01*
Y91492D01*
X217649Y91544D01*
X217657Y91590D01*
X217665Y91637D01*
X217679Y91677D01*
X217690Y91716D01*
X217703Y91751D01*
X217720Y91784D01*
X217733Y91811D01*
X217747Y91836D01*
X217761Y91858D01*
X217772Y91874D01*
X217782Y91888D01*
X217791Y91899D01*
X217793Y91904D01*
X217796Y91907D01*
X217826Y91937D01*
X217859Y91964D01*
X217889Y91989D01*
X217924Y92008D01*
X217957Y92024D01*
X217990Y92038D01*
X218050Y92060D01*
X218080Y92068D01*
X218105Y92073D01*
X218129Y92076D01*
X218151Y92079D01*
X218167Y92082D01*
X218189D01*
X218230Y92079D01*
D02*
G37*
%LPC*%
G36*
X146547Y45472D02*
X146465D01*
X146302Y45466D01*
X146151Y45447D01*
X146020Y45416D01*
X145906Y45391D01*
X145819Y45359D01*
X145756Y45328D01*
X145731Y45322D01*
X145712Y45309D01*
X145705Y45303D01*
X145699D01*
X145592Y45240D01*
X145505Y45171D01*
X145436Y45096D01*
X145379Y45033D01*
X145335Y44970D01*
X145310Y44926D01*
X145291Y44895D01*
X145285Y44882D01*
X145266Y44832D01*
X145247Y44775D01*
X145222Y44650D01*
X145197Y44518D01*
X145184Y44392D01*
X145178Y44279D01*
Y44229D01*
X145172Y44185D01*
Y44147D01*
Y44122D01*
Y44103D01*
Y44097D01*
Y43783D01*
X144556D01*
Y42910D01*
X145172D01*
Y39582D01*
X144556D01*
Y42910D01*
D01*
Y39582D01*
D01*
X146283D01*
Y42910D01*
X147112D01*
Y43783D01*
X146283D01*
Y44078D01*
X146290Y44191D01*
X146302Y44279D01*
X146315Y44355D01*
X146334Y44417D01*
X146352Y44461D01*
X146371Y44486D01*
X146378Y44505D01*
X146384Y44512D01*
X146428Y44549D01*
X146484Y44574D01*
X146541Y44600D01*
X146597Y44612D01*
X146654Y44618D01*
X146698Y44625D01*
X146830D01*
X146924Y44612D01*
X147012Y44606D01*
X147093Y44593D01*
X147156Y44581D01*
X147213Y44568D01*
X147244Y44562D01*
X147257Y44556D01*
X147401Y45328D01*
X147232Y45378D01*
X147062Y45410D01*
X146905Y45435D01*
X146761Y45454D01*
X146698Y45460D01*
X146641Y45466D01*
X146591D01*
X146547Y45472D01*
D02*
G37*
G36*
X170034Y45378D02*
X165940D01*
X168923D01*
Y43287D01*
X168822Y43394D01*
X168722Y43482D01*
X168621Y43563D01*
X168515Y43626D01*
X168414Y43683D01*
X168314Y43733D01*
X168213Y43771D01*
X168119Y43802D01*
X168031Y43827D01*
X167956Y43846D01*
X167886Y43859D01*
X167824Y43871D01*
X167773D01*
X167736Y43877D01*
X167704D01*
X167566Y43871D01*
X167428Y43852D01*
X167303Y43827D01*
X167183Y43789D01*
X167070Y43745D01*
X166970Y43701D01*
X166869Y43651D01*
X166781Y43601D01*
X166706Y43545D01*
X166637Y43494D01*
X166574Y43450D01*
X166524Y43406D01*
X166486Y43369D01*
X166461Y43343D01*
X166442Y43325D01*
X166436Y43318D01*
X166348Y43212D01*
X166273Y43092D01*
X166203Y42967D01*
X166147Y42835D01*
X166103Y42697D01*
X166059Y42565D01*
X166028Y42433D01*
X166003Y42301D01*
X165984Y42182D01*
X165965Y42062D01*
X165952Y41962D01*
X165946Y41874D01*
Y41799D01*
X165940Y41748D01*
Y41767D01*
Y41698D01*
X165946Y41510D01*
X165965Y41328D01*
X165990Y41158D01*
X166021Y41001D01*
X166059Y40857D01*
X166103Y40718D01*
X166147Y40599D01*
X166197Y40486D01*
X166247Y40392D01*
X166291Y40304D01*
X166335Y40235D01*
X166373Y40172D01*
X166404Y40128D01*
X166436Y40091D01*
X166448Y40072D01*
X166455Y40065D01*
X166555Y39965D01*
X166656Y39877D01*
X166762Y39795D01*
X166863Y39733D01*
X166970Y39676D01*
X167070Y39626D01*
X167171Y39588D01*
X167265Y39563D01*
X167353Y39538D01*
X167434Y39519D01*
X167510Y39506D01*
X167572Y39494D01*
X167623D01*
X167660Y39488D01*
X167692D01*
X167824Y39494D01*
X167949Y39513D01*
X168069Y39544D01*
X168175Y39575D01*
X168263Y39601D01*
X168332Y39632D01*
X168358Y39645D01*
X168383Y39651D01*
X168389Y39657D01*
X168395D01*
X168521Y39733D01*
X168640Y39814D01*
X168741Y39908D01*
X168835Y39996D01*
X168904Y40072D01*
X168960Y40141D01*
X168979Y40159D01*
X168992Y40178D01*
X169004Y40191D01*
Y39582D01*
X170034D01*
Y39538D01*
Y45378D01*
D02*
G37*
G36*
X125898Y43877D02*
X125836D01*
X125735Y43871D01*
X125647Y43859D01*
X125566Y43833D01*
X125490Y43808D01*
X125434Y43783D01*
X125390Y43758D01*
X125365Y43745D01*
X125352Y43739D01*
X125314Y43714D01*
X125270Y43676D01*
X125189Y43595D01*
X125113Y43507D01*
X125038Y43413D01*
X124975Y43325D01*
X124925Y43249D01*
X124906Y43218D01*
X124894Y43199D01*
X124887Y43187D01*
X124881Y43180D01*
Y43783D01*
X123851D01*
Y39582D01*
X126395D01*
X131010D01*
X126570D01*
D01*
X126395D01*
D01*
X126570D01*
X124963D01*
Y40876D01*
Y41070D01*
X124969Y41246D01*
Y41403D01*
X124975Y41547D01*
X124981Y41679D01*
X124988Y41792D01*
X125000Y41893D01*
X125007Y41981D01*
X125013Y42056D01*
X125025Y42119D01*
X125032Y42175D01*
X125038Y42213D01*
X125044Y42244D01*
Y42263D01*
X125051Y42276D01*
Y42282D01*
X125088Y42401D01*
X125132Y42496D01*
X125176Y42577D01*
X125214Y42640D01*
X125252Y42690D01*
X125283Y42722D01*
X125302Y42741D01*
X125308Y42747D01*
X125371Y42791D01*
X125440Y42822D01*
X125503Y42847D01*
X125566Y42860D01*
X125622Y42873D01*
X125666Y42879D01*
X125704D01*
X125798Y42873D01*
X125886Y42854D01*
X125974Y42822D01*
X126055Y42791D01*
X126125Y42753D01*
X126175Y42728D01*
X126212Y42703D01*
X126225Y42697D01*
X126570Y43664D01*
X126438Y43733D01*
X126307Y43789D01*
X126181Y43827D01*
X126068Y43852D01*
X125974Y43865D01*
X125936Y43871D01*
X125898Y43877D01*
D02*
G37*
G36*
X151263D02*
X147401D01*
X149260D01*
X149097Y43871D01*
X148946Y43859D01*
X148802Y43840D01*
X148670Y43821D01*
X148550Y43789D01*
X148444Y43758D01*
X148343Y43727D01*
X148255Y43689D01*
X148180Y43651D01*
X148111Y43620D01*
X148054Y43588D01*
X148010Y43557D01*
X147973Y43538D01*
X147948Y43519D01*
X147935Y43507D01*
X147929Y43501D01*
X147853Y43431D01*
X147791Y43356D01*
X147734Y43281D01*
X147684Y43199D01*
X147640Y43124D01*
X147608Y43048D01*
X147558Y42904D01*
X147539Y42835D01*
X147527Y42778D01*
X147514Y42722D01*
X147508Y42678D01*
X147502Y42634D01*
Y42609D01*
Y42590D01*
Y42584D01*
X147508Y42477D01*
X147520Y42370D01*
X147546Y42276D01*
X147577Y42182D01*
X147615Y42100D01*
X147659Y42018D01*
X147703Y41949D01*
X147753Y41886D01*
X147797Y41830D01*
X147841Y41780D01*
X147885Y41736D01*
X147922Y41704D01*
X147954Y41679D01*
X147979Y41660D01*
X147992Y41648D01*
X147998Y41642D01*
X148073Y41598D01*
X148174Y41547D01*
X148287Y41504D01*
X148412Y41453D01*
X148550Y41409D01*
X148695Y41365D01*
X148977Y41277D01*
X149122Y41240D01*
X149254Y41208D01*
X149373Y41177D01*
X149480Y41152D01*
X149568Y41133D01*
X149637Y41114D01*
X149662Y41108D01*
X149681D01*
X149687Y41102D01*
X149693D01*
X149794Y41076D01*
X149875Y41051D01*
X149938Y41026D01*
X149988Y41001D01*
X150020Y40982D01*
X150045Y40963D01*
X150058Y40957D01*
X150064Y40951D01*
X150089Y40919D01*
X150114Y40882D01*
X150133Y40819D01*
X150139Y40788D01*
X150145Y40762D01*
Y40750D01*
Y40744D01*
X150139Y40674D01*
X150120Y40618D01*
X150095Y40568D01*
X150070Y40524D01*
X150045Y40492D01*
X150020Y40467D01*
X150001Y40455D01*
X149995Y40448D01*
X149907Y40398D01*
X149806Y40361D01*
X149700Y40329D01*
X149593Y40310D01*
X149499Y40298D01*
X149455D01*
X149417Y40291D01*
X149348D01*
X149210Y40298D01*
X149091Y40317D01*
X148984Y40342D01*
X148896Y40373D01*
X148827Y40404D01*
X148776Y40430D01*
X148751Y40448D01*
X148739Y40455D01*
X148663Y40524D01*
X148607Y40599D01*
X148557Y40681D01*
X148519Y40762D01*
X148488Y40832D01*
X148469Y40894D01*
X148462Y40932D01*
X148456Y40938D01*
Y40944D01*
X147345Y40775D01*
D01*
X147376Y40668D01*
X147414Y40562D01*
X147458Y40467D01*
X147508Y40379D01*
X147564Y40291D01*
X147615Y40216D01*
X147671Y40147D01*
X147728Y40078D01*
X147778Y40021D01*
X147828Y39971D01*
X147872Y39933D01*
X147910Y39896D01*
X147948Y39871D01*
X147973Y39852D01*
X147985Y39839D01*
X147992Y39833D01*
X148092Y39770D01*
X148192Y39720D01*
X148305Y39676D01*
X148418Y39632D01*
X148645Y39569D01*
X148864Y39531D01*
X148965Y39519D01*
X149053Y39506D01*
X149141Y39500D01*
X149210Y39494D01*
X149273Y39488D01*
X149354D01*
X149524Y39494D01*
X149687Y39506D01*
X149838Y39525D01*
X149976Y39550D01*
X150101Y39582D01*
X150221Y39619D01*
X150328Y39657D01*
X150422Y39695D01*
X150504Y39733D01*
X150579Y39770D01*
X150642Y39808D01*
X150692Y39839D01*
X150730Y39864D01*
X150755Y39883D01*
X150774Y39896D01*
X150780Y39902D01*
X150868Y39984D01*
X150937Y40065D01*
X151006Y40147D01*
X151062Y40235D01*
X151106Y40317D01*
X151144Y40398D01*
X151175Y40480D01*
X151200Y40555D01*
X151226Y40624D01*
X151238Y40687D01*
X151251Y40750D01*
X151257Y40800D01*
X151263Y40838D01*
Y39557D01*
Y40894D01*
X151257Y40988D01*
X151251Y41083D01*
X151207Y41246D01*
X151150Y41384D01*
X151087Y41504D01*
X151056Y41554D01*
X151025Y41598D01*
X150993Y41635D01*
X150968Y41660D01*
X150943Y41686D01*
X150924Y41704D01*
X150918Y41711D01*
X150912Y41717D01*
X150843Y41774D01*
X150755Y41824D01*
X150667Y41874D01*
X150573Y41918D01*
X150365Y42006D01*
X150164Y42075D01*
X150064Y42106D01*
X149976Y42132D01*
X149888Y42157D01*
X149819Y42175D01*
X149756Y42194D01*
X149712Y42207D01*
X149687Y42213D01*
X149674D01*
X149518Y42251D01*
X149373Y42282D01*
X149248Y42320D01*
X149141Y42345D01*
X149040Y42376D01*
X148959Y42401D01*
X148883Y42427D01*
X148827Y42445D01*
X148776Y42464D01*
X148732Y42483D01*
X148701Y42496D01*
X148676Y42508D01*
X148657Y42515D01*
X148645Y42521D01*
X148638Y42527D01*
X148601Y42559D01*
X148575Y42596D01*
X148557Y42628D01*
X148544Y42659D01*
X148538Y42684D01*
X148531Y42709D01*
Y42722D01*
Y42728D01*
X148538Y42778D01*
X148550Y42822D01*
X148569Y42860D01*
X148594Y42891D01*
X148619Y42917D01*
X148638Y42942D01*
X148651Y42948D01*
X148657Y42954D01*
X148739Y42998D01*
X148833Y43029D01*
X148940Y43048D01*
X149040Y43067D01*
X149134Y43073D01*
X149210Y43080D01*
X149279D01*
X149398Y43073D01*
X149511Y43061D01*
X149599Y43036D01*
X149674Y43017D01*
X149737Y42992D01*
X149775Y42967D01*
X149806Y42954D01*
X149813Y42948D01*
X149875Y42891D01*
X149932Y42835D01*
X149976Y42772D01*
X150014Y42709D01*
X150039Y42653D01*
X150058Y42609D01*
X150070Y42584D01*
Y42571D01*
X151119Y42766D01*
X151050Y42960D01*
X151006Y43048D01*
X150962Y43124D01*
X150912Y43199D01*
X150861Y43268D01*
X150811Y43331D01*
X150767Y43387D01*
X150717Y43431D01*
X150679Y43475D01*
X150635Y43513D01*
X150604Y43545D01*
X150573Y43563D01*
X150554Y43582D01*
X150541Y43595D01*
X150535D01*
X150453Y43645D01*
X150359Y43689D01*
X150265Y43727D01*
X150158Y43758D01*
X149951Y43808D01*
X149744Y43840D01*
X149643Y43852D01*
X149555Y43865D01*
X149474Y43871D01*
X149398D01*
X149342Y43877D01*
X151263D01*
D02*
G37*
G36*
X139796D02*
X139639D01*
X139526Y43865D01*
X139319Y43833D01*
X139130Y43789D01*
X139042Y43764D01*
X138961Y43739D01*
X138892Y43714D01*
X138829Y43689D01*
X138772Y43664D01*
X138722Y43645D01*
X138684Y43626D01*
X138659Y43613D01*
X138641Y43607D01*
X138634Y43601D01*
X138458Y43488D01*
X138308Y43362D01*
X138176Y43231D01*
X138063Y43105D01*
X137981Y42992D01*
X137943Y42942D01*
X137918Y42898D01*
X137899Y42860D01*
X137881Y42835D01*
X137874Y42816D01*
X137868Y42810D01*
X137818Y42715D01*
X137780Y42615D01*
X137711Y42427D01*
X137667Y42244D01*
X137629Y42081D01*
X137623Y42006D01*
X137611Y41943D01*
X137604Y41880D01*
Y41830D01*
X137598Y41792D01*
Y41799D01*
Y39488D01*
X141919D01*
Y39582D01*
Y39488D01*
X139758D01*
X139928Y39494D01*
X140091Y39513D01*
X140248Y39544D01*
X140393Y39588D01*
X140531Y39632D01*
X140656Y39682D01*
X140776Y39739D01*
X140883Y39802D01*
X140977Y39858D01*
X141058Y39915D01*
X141134Y39965D01*
X141190Y40015D01*
X141241Y40053D01*
X141278Y40084D01*
X141297Y40103D01*
X141303Y40109D01*
X141410Y40229D01*
X141504Y40361D01*
X141586Y40486D01*
X141661Y40624D01*
X141718Y40756D01*
X141768Y40888D01*
X141812Y41014D01*
X141843Y41139D01*
X141868Y41252D01*
X141887Y41359D01*
X141900Y41453D01*
X141912Y41535D01*
Y41598D01*
X141919Y41648D01*
Y39582D01*
Y41648D01*
Y41692D01*
X141912Y41868D01*
X141894Y42031D01*
X141862Y42188D01*
X141824Y42332D01*
X141780Y42471D01*
X141724Y42603D01*
X141674Y42722D01*
X141617Y42829D01*
X141554Y42923D01*
X141504Y43011D01*
X141454Y43080D01*
X141404Y43143D01*
X141366Y43193D01*
X141335Y43224D01*
X141316Y43249D01*
X141309Y43256D01*
X141190Y43362D01*
X141071Y43463D01*
X140939Y43545D01*
X140807Y43613D01*
X140682Y43676D01*
X140550Y43727D01*
X140424Y43764D01*
X140305Y43802D01*
X140192Y43827D01*
X140085Y43846D01*
X139991Y43859D01*
X139909Y43865D01*
X139846Y43871D01*
X139796Y43877D01*
D02*
G37*
G36*
X156306D02*
Y41704D01*
X156300Y41893D01*
X156287Y42069D01*
X156256Y42232D01*
X156225Y42383D01*
X156187Y42527D01*
X156143Y42659D01*
X156099Y42778D01*
X156049Y42885D01*
X155999Y42979D01*
X155955Y43067D01*
X155911Y43136D01*
X155873Y43193D01*
X155842Y43243D01*
X155816Y43274D01*
X155798Y43293D01*
X155791Y43299D01*
X155691Y43400D01*
X155590Y43488D01*
X155490Y43570D01*
X155383Y43632D01*
X155276Y43689D01*
X155176Y43739D01*
X155075Y43777D01*
X154981Y43808D01*
X154887Y43827D01*
X154805Y43846D01*
X154736Y43859D01*
X154673Y43871D01*
X154617D01*
X154579Y43877D01*
X154548D01*
X154397Y43871D01*
X154253Y43846D01*
X154121Y43815D01*
X154008Y43777D01*
X153913Y43739D01*
X153876Y43720D01*
X153844Y43708D01*
X153819Y43695D01*
X153800Y43683D01*
X153788Y43676D01*
X153782D01*
X153662Y43601D01*
X153556Y43513D01*
X153461Y43425D01*
X153386Y43343D01*
X153323Y43274D01*
X153279Y43212D01*
X153254Y43174D01*
X153242Y43168D01*
Y43783D01*
X152205D01*
Y37987D01*
X156306D01*
Y43877D01*
D02*
G37*
G36*
X118519D02*
Y41704D01*
X118513Y41893D01*
X118501Y42069D01*
X118469Y42232D01*
X118438Y42383D01*
X118400Y42527D01*
X118356Y42659D01*
X118312Y42778D01*
X118262Y42885D01*
X118212Y42979D01*
X118168Y43067D01*
X118124Y43136D01*
X118086Y43193D01*
X118055Y43243D01*
X118030Y43274D01*
X118011Y43293D01*
X118005Y43299D01*
X117904Y43400D01*
X117804Y43488D01*
X117703Y43570D01*
X117596Y43632D01*
X117490Y43689D01*
X117389Y43739D01*
X117289Y43777D01*
X117194Y43808D01*
X117100Y43827D01*
X117018Y43846D01*
X116949Y43859D01*
X116887Y43871D01*
X116830D01*
X116792Y43877D01*
X116761D01*
X116610Y43871D01*
X116466Y43846D01*
X116334Y43815D01*
X116221Y43777D01*
X116127Y43739D01*
X116089Y43720D01*
X116058Y43708D01*
X116033Y43695D01*
X116014Y43683D01*
X116001Y43676D01*
X115995D01*
X115875Y43601D01*
X115769Y43513D01*
X115675Y43425D01*
X115599Y43343D01*
X115536Y43274D01*
X115492Y43212D01*
X115467Y43174D01*
X115455Y43168D01*
Y43783D01*
X114419D01*
Y37987D01*
X118519Y37987D01*
Y43877D01*
D02*
G37*
G36*
X163327D02*
X161362D01*
D01*
X163283D01*
X163133Y43871D01*
X162982Y43852D01*
X162844Y43821D01*
X162718Y43783D01*
X162592Y43739D01*
X162479Y43689D01*
X162373Y43632D01*
X162278Y43582D01*
X162197Y43526D01*
X162121Y43469D01*
X162052Y43419D01*
X162002Y43375D01*
X161958Y43337D01*
X161927Y43306D01*
X161908Y43287D01*
X161902Y43281D01*
X161808Y43168D01*
X161726Y43042D01*
X161651Y42910D01*
X161588Y42778D01*
X161537Y42640D01*
X161494Y42502D01*
X161456Y42370D01*
X161431Y42244D01*
X161406Y42119D01*
X161393Y42012D01*
X161380Y41905D01*
X161368Y41818D01*
Y41748D01*
X161362Y41692D01*
Y41704D01*
Y41648D01*
X161368Y41491D01*
X161380Y41334D01*
X161399Y41190D01*
X161424Y41051D01*
X161456Y40926D01*
X161494Y40806D01*
X161531Y40693D01*
X161569Y40593D01*
X161607Y40505D01*
X161644Y40423D01*
X161682Y40361D01*
X161713Y40304D01*
X161738Y40254D01*
X161757Y40222D01*
X161770Y40203D01*
X161776Y40197D01*
X161883Y40072D01*
X161996Y39965D01*
X162121Y39871D01*
X162247Y39789D01*
X162385Y39720D01*
X162517Y39663D01*
X162649Y39613D01*
X162781Y39575D01*
X162907Y39544D01*
X163020Y39525D01*
X163126Y39506D01*
X163214Y39500D01*
X163290Y39494D01*
X163346Y39488D01*
X163396D01*
X163522Y39494D01*
X163641Y39500D01*
X163760Y39519D01*
X163867Y39538D01*
X163968Y39563D01*
X164062Y39588D01*
X164150Y39613D01*
X164232Y39645D01*
X164301Y39676D01*
X164363Y39701D01*
X164420Y39726D01*
X164464Y39751D01*
X164502Y39770D01*
X164527Y39789D01*
X164539Y39795D01*
X164546Y39802D01*
X164627Y39864D01*
X164709Y39933D01*
X164847Y40084D01*
X164966Y40235D01*
X165060Y40386D01*
X165098Y40455D01*
X165130Y40524D01*
X165161Y40580D01*
X165186Y40630D01*
X165199Y40674D01*
X165211Y40706D01*
X165224Y40725D01*
Y40731D01*
X164119Y40919D01*
X164081Y40806D01*
X164037Y40712D01*
X163993Y40630D01*
X163943Y40568D01*
X163905Y40518D01*
X163874Y40480D01*
X163848Y40461D01*
X163842Y40455D01*
X163773Y40411D01*
X163698Y40373D01*
X163629Y40348D01*
X163560Y40335D01*
X163497Y40323D01*
X163453Y40317D01*
X163409D01*
X163340Y40323D01*
X163271Y40329D01*
X163145Y40361D01*
X163032Y40404D01*
X162938Y40455D01*
X162863Y40499D01*
X162806Y40543D01*
X162775Y40574D01*
X162768Y40587D01*
X162762D01*
X162674Y40700D01*
X162611Y40825D01*
X162567Y40957D01*
X162536Y41083D01*
X162517Y41190D01*
X162511Y41240D01*
X162504Y41284D01*
X162498Y41315D01*
Y41346D01*
Y41359D01*
Y41365D01*
X165280D01*
Y41598D01*
X165261Y41811D01*
X165236Y42012D01*
X165205Y42200D01*
X165167Y42370D01*
X165123Y42521D01*
X165079Y42665D01*
X165029Y42791D01*
X164979Y42898D01*
X164929Y42992D01*
X164885Y43073D01*
X164841Y43143D01*
X164809Y43193D01*
X164784Y43224D01*
X164765Y43249D01*
X164759Y43256D01*
X164652Y43362D01*
X164539Y43463D01*
X164420Y43545D01*
X164301Y43613D01*
X164175Y43676D01*
X164056Y43727D01*
X163936Y43764D01*
X163817Y43802D01*
X163710Y43827D01*
X163610Y43846D01*
X163516Y43859D01*
X163440Y43865D01*
X163371Y43871D01*
X163327Y43877D01*
D02*
G37*
G36*
X158825D02*
X158781D01*
X158630Y43871D01*
X158479Y43852D01*
X158341Y43821D01*
X158215Y43783D01*
X158090Y43739D01*
X157977Y43689D01*
X157870Y43632D01*
X157776Y43582D01*
X157694Y43526D01*
X157619Y43469D01*
X157550Y43419D01*
X157499Y43375D01*
X157455Y43337D01*
X157424Y43306D01*
X157405Y43287D01*
X157399Y43281D01*
X157305Y43168D01*
X157223Y43042D01*
X157148Y42910D01*
X157085Y42778D01*
X157035Y42640D01*
X156991Y42502D01*
X156953Y42370D01*
X156928Y42244D01*
X156903Y42119D01*
X156890Y42012D01*
X156878Y41905D01*
X156865Y41818D01*
Y41748D01*
X156859Y41692D01*
Y41698D01*
Y41648D01*
X156865Y41491D01*
X156878Y41334D01*
X156896Y41190D01*
X156922Y41051D01*
X156953Y40926D01*
X156991Y40806D01*
X157028Y40693D01*
X157066Y40593D01*
X157104Y40505D01*
X157141Y40423D01*
X157179Y40361D01*
X157211Y40304D01*
X157236Y40254D01*
X157255Y40222D01*
X157267Y40203D01*
X157273Y40197D01*
X157380Y40072D01*
X157493Y39965D01*
X157619Y39871D01*
X157744Y39789D01*
X157882Y39720D01*
X158014Y39663D01*
X158146Y39613D01*
X158278Y39575D01*
X158404Y39544D01*
X158517Y39525D01*
X158624Y39506D01*
X158711Y39500D01*
X158787Y39494D01*
X158843Y39488D01*
X156859D01*
X160777D01*
X158894D01*
X159019Y39494D01*
X159139Y39500D01*
X159258Y39519D01*
X159365Y39538D01*
X159465Y39563D01*
X159559Y39588D01*
X159647Y39613D01*
X159729Y39645D01*
X159798Y39676D01*
X159861Y39701D01*
X159917Y39726D01*
X159961Y39751D01*
X159999Y39770D01*
X160024Y39789D01*
X160037Y39795D01*
X160043Y39802D01*
X160124Y39864D01*
X160206Y39933D01*
X160344Y40084D01*
X160464Y40235D01*
X160558Y40386D01*
X160595Y40455D01*
X160627Y40524D01*
X160658Y40580D01*
X160683Y40630D01*
X160696Y40674D01*
X160708Y40706D01*
X160721Y40725D01*
Y40731D01*
X159616Y40919D01*
X159578Y40806D01*
X159534Y40712D01*
X159490Y40630D01*
X159440Y40568D01*
X159402Y40518D01*
X159371Y40480D01*
X159346Y40461D01*
X159339Y40455D01*
X159270Y40411D01*
X159195Y40373D01*
X159126Y40348D01*
X159057Y40335D01*
X158994Y40323D01*
X158950Y40317D01*
X158906D01*
X158837Y40323D01*
X158768Y40329D01*
X158642Y40361D01*
X158529Y40404D01*
X158435Y40455D01*
X158360Y40499D01*
X158303Y40543D01*
X158272Y40574D01*
X158266Y40587D01*
X158259D01*
X158171Y40700D01*
X158108Y40825D01*
X158065Y40957D01*
X158033Y41083D01*
X158014Y41190D01*
X158008Y41240D01*
X158002Y41284D01*
X157995Y41315D01*
Y41346D01*
Y41359D01*
Y41365D01*
X160777D01*
Y41598D01*
X160759Y41811D01*
X160734Y42012D01*
X160702Y42200D01*
X160664Y42370D01*
X160621Y42521D01*
X160577Y42665D01*
X160526Y42791D01*
X160476Y42898D01*
X160426Y42992D01*
X160382Y43073D01*
X160338Y43143D01*
X160307Y43193D01*
X160281Y43224D01*
X160263Y43249D01*
X160256Y43256D01*
X160150Y43362D01*
X160037Y43463D01*
X159917Y43545D01*
X159798Y43613D01*
X159672Y43676D01*
X159553Y43727D01*
X159434Y43764D01*
X159314Y43802D01*
X159207Y43827D01*
X159107Y43846D01*
X159013Y43859D01*
X158938Y43865D01*
X158868Y43871D01*
X158825Y43877D01*
D02*
G37*
G36*
X121038D02*
X120994D01*
X120843Y43871D01*
X120692Y43852D01*
X120554Y43821D01*
X120429Y43783D01*
X120303Y43739D01*
X120190Y43689D01*
X120083Y43632D01*
X119989Y43582D01*
X119907Y43526D01*
X119832Y43469D01*
X119763Y43419D01*
X119713Y43375D01*
X119669Y43337D01*
X119637Y43306D01*
X119618Y43287D01*
X119612Y43281D01*
X119518Y43168D01*
X119436Y43042D01*
X119361Y42910D01*
X119298Y42778D01*
X119248Y42640D01*
X119204Y42502D01*
X119166Y42370D01*
X119141Y42244D01*
X119116Y42119D01*
X119104Y42012D01*
X119091Y41905D01*
X119078Y41818D01*
Y41748D01*
X119072Y41692D01*
D01*
Y41648D01*
X119078Y41491D01*
X119091Y41334D01*
X119110Y41190D01*
X119135Y41051D01*
X119166Y40926D01*
X119204Y40806D01*
X119242Y40693D01*
X119279Y40593D01*
X119317Y40505D01*
X119355Y40423D01*
X119392Y40361D01*
X119424Y40304D01*
X119449Y40254D01*
X119468Y40222D01*
X119480Y40203D01*
X119487Y40197D01*
X119593Y40072D01*
X119706Y39965D01*
X119832Y39871D01*
X119957Y39789D01*
X120096Y39720D01*
X120228Y39663D01*
X120360Y39613D01*
X120491Y39575D01*
X120617Y39544D01*
X120730Y39525D01*
X120837Y39506D01*
X120925Y39500D01*
X121000Y39494D01*
X121056Y39488D01*
X119072D01*
X122991D01*
Y40718D01*
Y39488D01*
X121107D01*
X121232Y39494D01*
X121352Y39500D01*
X121471Y39519D01*
X121578Y39538D01*
X121678Y39563D01*
X121773Y39588D01*
X121860Y39613D01*
X121942Y39645D01*
X122011Y39676D01*
X122074Y39701D01*
X122130Y39726D01*
X122174Y39751D01*
X122212Y39770D01*
X122237Y39789D01*
X122250Y39795D01*
X122256Y39802D01*
X122338Y39864D01*
X122419Y39933D01*
X122557Y40084D01*
X122677Y40235D01*
X122771Y40386D01*
X122809Y40455D01*
X122840Y40524D01*
X122871Y40580D01*
X122897Y40630D01*
X122909Y40674D01*
X122922Y40706D01*
X122934Y40725D01*
Y40731D01*
X121829Y40919D01*
X121791Y40806D01*
X121747Y40712D01*
X121703Y40630D01*
X121653Y40568D01*
X121616Y40518D01*
X121584Y40480D01*
X121559Y40461D01*
X121553Y40455D01*
X121484Y40411D01*
X121408Y40373D01*
X121339Y40348D01*
X121270Y40335D01*
X121207Y40323D01*
X121163Y40317D01*
X121119D01*
X121050Y40323D01*
X120981Y40329D01*
X120856Y40361D01*
X120743Y40404D01*
X120648Y40455D01*
X120573Y40499D01*
X120517Y40543D01*
X120485Y40574D01*
X120479Y40587D01*
X120473D01*
X120385Y40700D01*
X120322Y40825D01*
X120278Y40957D01*
X120246Y41083D01*
X120228Y41190D01*
X120221Y41240D01*
X120215Y41284D01*
X120209Y41315D01*
Y41346D01*
Y41359D01*
Y41365D01*
X122991D01*
Y40718D01*
Y41365D01*
Y41598D01*
X122972Y41811D01*
X122947Y42012D01*
X122915Y42200D01*
X122878Y42370D01*
X122834Y42521D01*
X122790Y42665D01*
X122740Y42791D01*
X122689Y42898D01*
X122639Y42992D01*
X122595Y43073D01*
X122551Y43143D01*
X122520Y43193D01*
X122495Y43224D01*
X122476Y43249D01*
X122470Y43256D01*
X122363Y43362D01*
X122250Y43463D01*
X122130Y43545D01*
X122011Y43613D01*
X121886Y43676D01*
X121766Y43727D01*
X121647Y43764D01*
X121528Y43802D01*
X121421Y43827D01*
X121320Y43846D01*
X121226Y43859D01*
X121151Y43865D01*
X121082Y43871D01*
X121038Y43877D01*
D02*
G37*
G36*
X210465Y45378D02*
X208706D01*
X207677Y41422D01*
X206634Y45378D01*
X204882D01*
Y39582D01*
X210465D01*
Y45378D01*
D02*
G37*
G36*
X194872Y43783D02*
X193529D01*
X193773D01*
X192969Y41026D01*
X192265Y43783D01*
X190395D01*
X191192D01*
X190469Y41026D01*
X189684Y43783D01*
X188604D01*
X189929Y39582D01*
X191009D01*
X191725Y42282D01*
X192448Y39582D01*
X191889D01*
X193521D01*
X194872Y43783D01*
D02*
G37*
G36*
X137284Y43783D02*
X136185D01*
X135381Y41026D01*
X134678Y43783D01*
X133604D01*
X132882Y41026D01*
X132097Y43783D01*
X131017D01*
X132342Y39582D01*
X131017D01*
D01*
X137284D01*
X135934D01*
X137284Y43783D01*
D02*
G37*
G36*
X109200Y43783D02*
Y40555D01*
X107423D01*
X107341Y40549D01*
X107247D01*
X107153Y40543D01*
X107058Y40536D01*
X106983D01*
X106952Y40530D01*
X106908D01*
X107467Y41139D01*
X109074Y42998D01*
Y43783D01*
X105608D01*
Y42860D01*
X107083Y42866D01*
X107197D01*
X107297Y42873D01*
X107385D01*
X107460Y42879D01*
X107523D01*
X107561Y42885D01*
X107598D01*
X107517Y42803D01*
X107429Y42709D01*
X107335Y42602D01*
X107241Y42496D01*
X107153Y42401D01*
X107115Y42358D01*
X107083Y42326D01*
X107058Y42295D01*
X107040Y42270D01*
X107027Y42257D01*
X107021Y42251D01*
X105451Y40448D01*
Y39582D01*
X109200D01*
Y43783D01*
D02*
G37*
G36*
X213260Y45397D02*
X213222D01*
X213046Y45391D01*
X212883Y45372D01*
X212732Y45341D01*
X212606Y45309D01*
X212550Y45290D01*
X212500Y45272D01*
X212456Y45259D01*
X212418Y45246D01*
X212387Y45234D01*
X212368Y45221D01*
X212355Y45215D01*
X212349D01*
X212211Y45140D01*
X212091Y45058D01*
X211991Y44976D01*
X211909Y44895D01*
X211840Y44826D01*
X211790Y44763D01*
X211765Y44725D01*
X211752Y44719D01*
Y44712D01*
X211677Y44587D01*
X211614Y44449D01*
X211558Y44311D01*
X211514Y44172D01*
X211476Y44053D01*
X211463Y44003D01*
X211451Y43959D01*
X211445Y43921D01*
X211438Y43896D01*
X211432Y43877D01*
Y43871D01*
X212456Y43701D01*
X212481Y43833D01*
X212512Y43953D01*
X212550Y44047D01*
X212594Y44129D01*
X212638Y44191D01*
X212669Y44235D01*
X212694Y44267D01*
X212701Y44273D01*
X212782Y44342D01*
X212864Y44392D01*
X212946Y44424D01*
X213021Y44449D01*
X213090Y44461D01*
X213140Y44474D01*
X213190D01*
X213297Y44468D01*
X213391Y44449D01*
X213467Y44417D01*
X213536Y44386D01*
X213592Y44355D01*
X213630Y44323D01*
X213655Y44304D01*
X213661Y44298D01*
X213718Y44229D01*
X213762Y44154D01*
X213793Y44072D01*
X213818Y44003D01*
X213831Y43934D01*
X213837Y43884D01*
Y43846D01*
Y43840D01*
Y43833D01*
X213825Y43708D01*
X213800Y43601D01*
X213762Y43507D01*
X213718Y43425D01*
X213668Y43362D01*
X213630Y43318D01*
X213605Y43293D01*
X213592Y43281D01*
X213492Y43218D01*
X213385Y43168D01*
X213272Y43130D01*
X213159Y43111D01*
X213059Y43099D01*
X213015D01*
X212977Y43092D01*
X212901D01*
X212782Y42188D01*
X212889Y42219D01*
X212989Y42238D01*
X213071Y42257D01*
X213146Y42263D01*
X213209Y42270D01*
X213253Y42276D01*
X213291D01*
X213410Y42263D01*
X213517Y42238D01*
X213611Y42194D01*
X213693Y42150D01*
X213756Y42106D01*
X213806Y42062D01*
X213831Y42037D01*
X213844Y42025D01*
X213919Y41924D01*
X213975Y41818D01*
X214013Y41704D01*
X214044Y41598D01*
X214057Y41504D01*
X214063Y41466D01*
Y41428D01*
X214070Y41397D01*
Y41378D01*
Y41365D01*
Y41359D01*
X214057Y41202D01*
X214032Y41064D01*
X213994Y40944D01*
X213950Y40844D01*
X213906Y40762D01*
X213869Y40706D01*
X213844Y40668D01*
X213831Y40656D01*
X213737Y40568D01*
X213636Y40505D01*
X213542Y40461D01*
X213448Y40430D01*
X213366Y40411D01*
X213303Y40404D01*
X213278Y40398D01*
X213247D01*
X213134Y40404D01*
X213027Y40430D01*
X212933Y40467D01*
X212851Y40505D01*
X212789Y40543D01*
X212738Y40580D01*
X212713Y40605D01*
X212701Y40612D01*
X212625Y40700D01*
X212562Y40806D01*
X212512Y40907D01*
X212481Y41014D01*
X212449Y41102D01*
X212437Y41177D01*
X212431Y41208D01*
X212424Y41227D01*
Y41240D01*
Y41246D01*
X211350Y41114D01*
X211369Y40982D01*
X211401Y40850D01*
X211438Y40731D01*
X211476Y40618D01*
X211526Y40511D01*
X211577Y40417D01*
X211627Y40329D01*
X211677Y40247D01*
X211734Y40172D01*
X211777Y40109D01*
X211828Y40053D01*
X211865Y40009D01*
X211897Y39971D01*
X211922Y39946D01*
X211941Y39933D01*
X211947Y39927D01*
X212048Y39845D01*
X212154Y39777D01*
X212261Y39720D01*
X212374Y39663D01*
X212481Y39619D01*
X212588Y39588D01*
X212694Y39557D01*
X212795Y39531D01*
X212889Y39513D01*
X212977Y39500D01*
X213059Y39488D01*
X213121Y39481D01*
X213178D01*
X213215Y39475D01*
X215206D01*
X213253D01*
X213404Y39481D01*
X213555Y39500D01*
X213693Y39525D01*
X213825Y39557D01*
X213944Y39601D01*
X214063Y39645D01*
X214170Y39695D01*
X214264Y39745D01*
X214352Y39789D01*
X214428Y39839D01*
X214490Y39883D01*
X214547Y39927D01*
X214591Y39959D01*
X214622Y39984D01*
X214641Y40003D01*
X214647Y40009D01*
X214748Y40116D01*
X214829Y40222D01*
X214905Y40329D01*
X214968Y40442D01*
X215024Y40549D01*
X215068Y40656D01*
X215106Y40762D01*
X215137Y40863D01*
X215162Y40957D01*
X215175Y41039D01*
X215188Y41114D01*
X215200Y41183D01*
Y41233D01*
X215206Y41277D01*
Y41340D01*
Y41309D01*
X215200Y41403D01*
X215194Y41497D01*
X215162Y41673D01*
X215112Y41824D01*
X215056Y41956D01*
X215031Y42012D01*
X214999Y42062D01*
X214974Y42106D01*
X214955Y42144D01*
X214930Y42169D01*
X214917Y42188D01*
X214911Y42200D01*
X214905Y42207D01*
X214848Y42276D01*
X214786Y42339D01*
X214660Y42439D01*
X214528Y42527D01*
X214396Y42590D01*
X214289Y42634D01*
X214239Y42653D01*
X214195Y42665D01*
X214164Y42678D01*
X214139Y42684D01*
X214120Y42690D01*
X214114D01*
X214258Y42778D01*
X214390Y42873D01*
X214503Y42973D01*
X214597Y43073D01*
X214679Y43174D01*
X214748Y43274D01*
X214798Y43375D01*
X214842Y43469D01*
X214880Y43557D01*
X214905Y43645D01*
X214924Y43720D01*
X214936Y43783D01*
X214943Y43833D01*
X214949Y43877D01*
Y43902D01*
Y43909D01*
X214943Y44009D01*
X214930Y44103D01*
X214911Y44198D01*
X214886Y44286D01*
X214817Y44449D01*
X214742Y44587D01*
X214704Y44650D01*
X214666Y44706D01*
X214629Y44756D01*
X214597Y44794D01*
X214572Y44826D01*
X214553Y44851D01*
X214541Y44863D01*
X214534Y44870D01*
X214440Y44964D01*
X214340Y45045D01*
X214233Y45114D01*
X214120Y45177D01*
X214013Y45228D01*
X213906Y45272D01*
X213800Y45303D01*
X213693Y45334D01*
X213599Y45353D01*
X213511Y45372D01*
X213429Y45378D01*
X213360Y45391D01*
X213303D01*
X213260Y45397D01*
D02*
G37*
G36*
X183555Y45303D02*
X180616D01*
X180045Y42282D01*
X180943Y42157D01*
X181012Y42232D01*
X181087Y42295D01*
X181162Y42351D01*
X181238Y42401D01*
X181307Y42439D01*
X181382Y42477D01*
X181514Y42527D01*
X181633Y42552D01*
X181677Y42565D01*
X181721Y42571D01*
X181759Y42577D01*
X181872D01*
X181941Y42565D01*
X182061Y42533D01*
X182167Y42489D01*
X182255Y42445D01*
X182331Y42395D01*
X182381Y42351D01*
X182412Y42320D01*
X182425Y42314D01*
Y42307D01*
X182506Y42194D01*
X182569Y42069D01*
X182613Y41937D01*
X182638Y41805D01*
X182657Y41686D01*
X182663Y41635D01*
Y41591D01*
X182670Y41554D01*
Y41529D01*
Y41510D01*
Y41504D01*
Y41403D01*
X182657Y41302D01*
X182644Y41215D01*
X182632Y41127D01*
X182613Y41051D01*
X182594Y40982D01*
X182569Y40919D01*
X182550Y40863D01*
X182525Y40813D01*
X182500Y40769D01*
X182481Y40731D01*
X182462Y40700D01*
X182450Y40681D01*
X182437Y40662D01*
X182425Y40656D01*
Y40649D01*
X182381Y40599D01*
X182331Y40555D01*
X182230Y40486D01*
X182136Y40436D01*
X182042Y40404D01*
X181960Y40379D01*
X181891Y40373D01*
X181866Y40367D01*
X181834D01*
X181721Y40379D01*
X181621Y40404D01*
X181527Y40436D01*
X181451Y40480D01*
X181382Y40518D01*
X181338Y40555D01*
X181307Y40580D01*
X181294Y40587D01*
X181219Y40674D01*
X181156Y40775D01*
X181106Y40869D01*
X181068Y40970D01*
X181043Y41051D01*
X181030Y41120D01*
X181024Y41146D01*
X181018Y41164D01*
Y41177D01*
Y41183D01*
X179913Y41064D01*
X179938Y40932D01*
X179963Y40806D01*
X180001Y40687D01*
X180045Y40574D01*
X180095Y40474D01*
X180145Y40379D01*
X180195Y40291D01*
X180246Y40210D01*
X180296Y40141D01*
X180346Y40078D01*
X180390Y40028D01*
X180428Y39984D01*
X180465Y39946D01*
X180491Y39921D01*
X180503Y39908D01*
X180509Y39902D01*
X180610Y39827D01*
X180710Y39764D01*
X180817Y39707D01*
X180930Y39657D01*
X181037Y39613D01*
X181150Y39582D01*
X181357Y39531D01*
X181451Y39513D01*
X181539Y39500D01*
X181621Y39488D01*
X181690Y39481D01*
X181746Y39475D01*
X179913D01*
D01*
X183813D01*
Y41522D01*
X183806Y41679D01*
X183788Y41830D01*
X183762Y41968D01*
X183731Y42106D01*
X183693Y42226D01*
X183649Y42345D01*
X183599Y42452D01*
X183555Y42546D01*
X183505Y42634D01*
X183455Y42709D01*
X183411Y42772D01*
X183373Y42822D01*
X183342Y42866D01*
X183317Y42898D01*
X183298Y42917D01*
X183291Y42923D01*
X183191Y43017D01*
X183090Y43099D01*
X182984Y43174D01*
X182877Y43237D01*
X182770Y43287D01*
X182670Y43331D01*
X182569Y43369D01*
X182469Y43394D01*
X182381Y43419D01*
X182299Y43431D01*
X182224Y43444D01*
X182161Y43457D01*
X182104D01*
X182067Y43463D01*
X182035D01*
X181891Y43457D01*
X181753Y43431D01*
X181627Y43406D01*
X181508Y43369D01*
X181414Y43337D01*
X181376Y43318D01*
X181338Y43306D01*
X181313Y43293D01*
X181294Y43281D01*
X181282Y43274D01*
X181275D01*
X181451Y44260D01*
X183555D01*
Y45303D01*
D02*
G37*
G36*
X104747Y43783D02*
X103636D01*
Y42006D01*
Y41843D01*
X103630Y41698D01*
Y41566D01*
X103623Y41453D01*
X103617Y41346D01*
X103611Y41252D01*
X103598Y41171D01*
X103592Y41102D01*
X103586Y41045D01*
X103573Y40995D01*
X103567Y40957D01*
X103560Y40926D01*
X103554Y40901D01*
Y40888D01*
X103548Y40876D01*
X103510Y40794D01*
X103466Y40718D01*
X103416Y40649D01*
X103366Y40593D01*
X103316Y40549D01*
X103278Y40518D01*
X103253Y40492D01*
X103240Y40486D01*
X103158Y40436D01*
X103071Y40398D01*
X102983Y40373D01*
X102907Y40354D01*
X102838Y40342D01*
X102788Y40335D01*
X102738D01*
X102650Y40342D01*
X102568Y40354D01*
X102499Y40373D01*
X102436Y40392D01*
X102386Y40411D01*
X102355Y40430D01*
X102330Y40442D01*
X102323Y40448D01*
X102267Y40499D01*
X102223Y40549D01*
X102185Y40599D01*
X102154Y40649D01*
X102135Y40693D01*
X102116Y40731D01*
X102110Y40756D01*
X102103Y40762D01*
X102091Y40806D01*
X102085Y40869D01*
X102078Y40938D01*
X102072Y41020D01*
X102066Y41102D01*
X102060Y41196D01*
X102053Y41384D01*
Y41472D01*
Y41560D01*
X102047Y41635D01*
Y41711D01*
Y41767D01*
Y41811D01*
Y41836D01*
Y41849D01*
Y43783D01*
X100935D01*
Y39488D01*
X104747D01*
Y43783D01*
D02*
G37*
G36*
X203927Y45378D02*
X199952D01*
Y39582D01*
X201120D01*
Y42044D01*
X203544D01*
Y43023D01*
X201120D01*
Y44399D01*
X203927D01*
Y39858D01*
Y45378D01*
D02*
G37*
G36*
X188479D02*
X184598D01*
Y39582D01*
X185709D01*
Y40926D01*
X186224Y41466D01*
X187279Y39582D01*
X187255D01*
X188479D01*
X186940Y42244D01*
X188378Y43783D01*
X187009D01*
X185709Y42301D01*
Y45378D01*
X188479D01*
D02*
G37*
G36*
X179147Y45397D02*
X177388D01*
D01*
X177306D01*
X177162Y45391D01*
X177024Y45378D01*
X176892Y45359D01*
X176773Y45334D01*
X176653Y45303D01*
X176547Y45272D01*
X176452Y45234D01*
X176358Y45196D01*
X176277Y45158D01*
X176207Y45121D01*
X176145Y45089D01*
X176094Y45058D01*
X176057Y45033D01*
X176025Y45014D01*
X176006Y45001D01*
X176000Y44995D01*
X175906Y44914D01*
X175824Y44826D01*
X175749Y44725D01*
X175686Y44618D01*
X175630Y44512D01*
X175580Y44399D01*
X175536Y44292D01*
X175498Y44185D01*
X175467Y44085D01*
X175441Y43990D01*
X175423Y43902D01*
X175410Y43827D01*
X175397Y43764D01*
X175391Y43714D01*
X175385Y43689D01*
Y43676D01*
X176490Y43570D01*
X176496Y43657D01*
X176509Y43739D01*
X176540Y43884D01*
X176578Y44003D01*
X176616Y44097D01*
X176660Y44172D01*
X176691Y44223D01*
X176716Y44248D01*
X176723Y44260D01*
X176804Y44330D01*
X176898Y44386D01*
X176992Y44424D01*
X177080Y44449D01*
X177162Y44461D01*
X177225Y44474D01*
X177281D01*
X177407Y44468D01*
X177514Y44442D01*
X177608Y44411D01*
X177690Y44373D01*
X177752Y44336D01*
X177796Y44304D01*
X177828Y44279D01*
X177834Y44273D01*
X177903Y44191D01*
X177953Y44097D01*
X177985Y44003D01*
X178010Y43915D01*
X178022Y43827D01*
X178035Y43764D01*
Y43739D01*
Y43720D01*
Y43708D01*
Y43701D01*
X178022Y43576D01*
X177997Y43450D01*
X177960Y43337D01*
X177922Y43237D01*
X177878Y43149D01*
X177840Y43080D01*
X177822Y43055D01*
X177815Y43036D01*
X177803Y43029D01*
Y43023D01*
X177765Y42973D01*
X177715Y42910D01*
X177652Y42841D01*
X177589Y42772D01*
X177438Y42615D01*
X177275Y42458D01*
X177200Y42383D01*
X177124Y42307D01*
X177062Y42244D01*
X176999Y42188D01*
X176949Y42144D01*
X176911Y42106D01*
X176886Y42081D01*
X176880Y42075D01*
X176710Y41918D01*
X176559Y41767D01*
X176415Y41623D01*
X176289Y41491D01*
X176176Y41372D01*
X176076Y41252D01*
X175981Y41152D01*
X175906Y41058D01*
X175837Y40970D01*
X175780Y40901D01*
X175730Y40832D01*
X175693Y40781D01*
X175667Y40744D01*
X175642Y40712D01*
X175636Y40693D01*
X175630Y40687D01*
X175523Y40492D01*
X175441Y40298D01*
X175372Y40109D01*
X175322Y39940D01*
X175303Y39864D01*
X175291Y39795D01*
X175278Y39733D01*
X175266Y39682D01*
X175259Y39638D01*
Y39607D01*
X175253Y39588D01*
Y39582D01*
X179147D01*
Y40731D01*
Y40612D01*
X176936D01*
X177011Y40718D01*
X177049Y40769D01*
X177080Y40819D01*
X177112Y40857D01*
X177137Y40888D01*
X177156Y40907D01*
X177162Y40913D01*
X177193Y40944D01*
X177231Y40988D01*
X177275Y41032D01*
X177325Y41083D01*
X177432Y41190D01*
X177545Y41296D01*
X177652Y41397D01*
X177702Y41441D01*
X177746Y41478D01*
X177778Y41510D01*
X177803Y41535D01*
X177822Y41547D01*
X177828Y41554D01*
X177922Y41642D01*
X178010Y41723D01*
X178092Y41805D01*
X178167Y41874D01*
X178230Y41943D01*
X178293Y42000D01*
X178343Y42056D01*
X178393Y42106D01*
X178462Y42188D01*
X178519Y42244D01*
X178544Y42282D01*
X178556Y42295D01*
X178663Y42439D01*
X178757Y42577D01*
X178832Y42703D01*
X178895Y42810D01*
X178939Y42904D01*
X178958Y42942D01*
X178977Y42973D01*
X178990Y42998D01*
X178996Y43023D01*
X179002Y43029D01*
Y43036D01*
X179052Y43168D01*
X179084Y43299D01*
X179109Y43425D01*
X179128Y43545D01*
X179140Y43639D01*
Y43683D01*
X179147Y43714D01*
Y43783D01*
X179140Y43909D01*
X179128Y44028D01*
X179103Y44141D01*
X179071Y44254D01*
X179034Y44355D01*
X178990Y44449D01*
X178946Y44537D01*
X178902Y44612D01*
X178851Y44687D01*
X178807Y44750D01*
X178763Y44807D01*
X178726Y44851D01*
X178694Y44882D01*
X178669Y44914D01*
X178657Y44926D01*
X178650Y44932D01*
X178556Y45014D01*
X178449Y45083D01*
X178343Y45146D01*
X178236Y45202D01*
X178123Y45246D01*
X178010Y45284D01*
X177903Y45315D01*
X177796Y45341D01*
X177696Y45359D01*
X177602Y45372D01*
X177520Y45384D01*
X177451Y45391D01*
X177388Y45397D01*
X179147D01*
D02*
G37*
G36*
X175090Y39582D02*
X170474Y39582D01*
D01*
X175090Y39582D01*
D02*
G37*
G36*
X147345Y39582D02*
X146338D01*
X147345D01*
D01*
D02*
G37*
G36*
X143910Y45378D02*
X142798D01*
Y39582D01*
X143910D01*
Y45378D01*
D02*
G37*
G36*
X113910Y39582D02*
X109294D01*
D01*
X113910D01*
D02*
G37*
G36*
X199399Y39488D02*
Y38703D01*
X194784D01*
Y37980D01*
X199399D01*
Y39488D01*
D02*
G37*
G36*
X175090Y38703D02*
D01*
X170474Y38703D01*
Y37980D01*
X175090Y37980D01*
Y38703D01*
D02*
G37*
G36*
X131010Y39488D02*
Y38703D01*
X126395D01*
Y37980D01*
X131010D01*
Y39488D01*
D02*
G37*
G36*
X113910Y38703D02*
X109294D01*
Y37980D01*
X113910D01*
Y38703D01*
D02*
G37*
G36*
X154121Y35301D02*
X154077D01*
X153926Y35295D01*
X153775Y35276D01*
X153637Y35245D01*
X153512Y35207D01*
X153386Y35163D01*
X153273Y35113D01*
X153166Y35056D01*
X153072Y35006D01*
X152990Y34950D01*
X152915Y34893D01*
X152846Y34843D01*
X152796Y34799D01*
X152752Y34761D01*
X152720Y34730D01*
X152701Y34711D01*
X152695Y34705D01*
X152601Y34592D01*
X152519Y34466D01*
X152444Y34334D01*
X152381Y34202D01*
X152331Y34064D01*
X152287Y33926D01*
X152249Y33794D01*
X152224Y33669D01*
X152199Y33543D01*
X152187Y33436D01*
X152174Y33329D01*
X152161Y33242D01*
Y33172D01*
X152155Y33116D01*
Y33128D01*
Y33072D01*
X152161Y32915D01*
X152174Y32758D01*
X152193Y32614D01*
X152218Y32475D01*
X152249Y32350D01*
X152287Y32230D01*
X152325Y32117D01*
X152362Y32017D01*
X152400Y31929D01*
X152438Y31847D01*
X152475Y31784D01*
X152507Y31728D01*
X152532Y31678D01*
X152551Y31646D01*
X152563Y31628D01*
X152570Y31621D01*
X152676Y31496D01*
X152789Y31389D01*
X152915Y31295D01*
X153041Y31213D01*
X153179Y31144D01*
X153311Y31087D01*
X153443Y31037D01*
X153574Y30999D01*
X153700Y30968D01*
X153813Y30949D01*
X153920Y30931D01*
X154008Y30924D01*
X154083Y30918D01*
X154140Y30912D01*
X152155D01*
X156074D01*
Y31835D01*
Y30912D01*
X154190D01*
X154315Y30918D01*
X154435Y30924D01*
X154554Y30943D01*
X154661Y30962D01*
X154761Y30987D01*
X154856Y31012D01*
X154943Y31037D01*
X155025Y31069D01*
X155094Y31100D01*
X155157Y31125D01*
X155213Y31150D01*
X155257Y31175D01*
X155295Y31194D01*
X155320Y31213D01*
X155333Y31219D01*
X155339Y31226D01*
X155421Y31288D01*
X155502Y31357D01*
X155640Y31508D01*
X155760Y31659D01*
X155854Y31810D01*
X155892Y31879D01*
X155923Y31948D01*
X155955Y32004D01*
X155980Y32055D01*
X155992Y32098D01*
X156005Y32130D01*
X156017Y32149D01*
Y32155D01*
X154912Y32344D01*
X154874Y32230D01*
X154830Y32136D01*
X154786Y32055D01*
X154736Y31992D01*
X154699Y31942D01*
X154667Y31904D01*
X154642Y31885D01*
X154636Y31879D01*
X154567Y31835D01*
X154491Y31797D01*
X154422Y31772D01*
X154353Y31759D01*
X154290Y31747D01*
X154246Y31741D01*
X154202D01*
X154133Y31747D01*
X154064Y31753D01*
X153939Y31784D01*
X153826Y31828D01*
X153731Y31879D01*
X153656Y31923D01*
X153600Y31967D01*
X153568Y31998D01*
X153562Y32011D01*
X153556D01*
X153468Y32124D01*
X153405Y32249D01*
X153361Y32381D01*
X153330Y32507D01*
X153311Y32614D01*
X153304Y32664D01*
X153298Y32708D01*
X153292Y32739D01*
Y32770D01*
Y32783D01*
Y32789D01*
X156074D01*
Y31835D01*
Y32789D01*
Y33022D01*
X156055Y33235D01*
X156030Y33436D01*
X155999Y33625D01*
X155961Y33794D01*
X155917Y33945D01*
X155873Y34089D01*
X155823Y34215D01*
X155772Y34322D01*
X155722Y34416D01*
X155678Y34497D01*
X155634Y34567D01*
X155603Y34617D01*
X155578Y34648D01*
X155559Y34673D01*
X155553Y34680D01*
X155446Y34786D01*
X155333Y34887D01*
X155213Y34969D01*
X155094Y35038D01*
X154969Y35100D01*
X154849Y35151D01*
X154730Y35188D01*
X154611Y35226D01*
X154504Y35251D01*
X154403Y35270D01*
X154309Y35282D01*
X154234Y35289D01*
X154165Y35295D01*
X154121Y35301D01*
D02*
G37*
G36*
X160796Y35207D02*
X159653D01*
X158856Y33059D01*
X158812Y32928D01*
X158793Y32871D01*
X158774Y32814D01*
X158755Y32770D01*
X158749Y32733D01*
X158737Y32708D01*
Y32701D01*
X158724Y32664D01*
X158711Y32614D01*
X158693Y32551D01*
X158674Y32494D01*
X158655Y32438D01*
X158636Y32387D01*
X158630Y32356D01*
X158624Y32350D01*
Y32344D01*
X158397Y33059D01*
X157606Y35207D01*
X158089D01*
X156438D01*
X158127Y31006D01*
X156438D01*
X160796D01*
X159126D01*
X160796Y35207D01*
D02*
G37*
G36*
X169501Y36821D02*
X167742D01*
D01*
X167660D01*
X167516Y36815D01*
X167378Y36802D01*
X167246Y36783D01*
X167127Y36758D01*
X167007Y36727D01*
X166901Y36696D01*
X166806Y36658D01*
X166712Y36620D01*
X166630Y36582D01*
X166561Y36545D01*
X166499Y36513D01*
X166448Y36482D01*
X166411Y36457D01*
X166379Y36438D01*
X166360Y36426D01*
X166354Y36419D01*
X166260Y36338D01*
X166178Y36250D01*
X166103Y36149D01*
X166040Y36042D01*
X165984Y35936D01*
X165933Y35823D01*
X165890Y35716D01*
X165852Y35609D01*
X165820Y35509D01*
X165795Y35414D01*
X165776Y35326D01*
X165764Y35251D01*
X165751Y35188D01*
X165745Y35138D01*
X165739Y35113D01*
Y35100D01*
X166844Y34994D01*
X166850Y35081D01*
X166863Y35163D01*
X166894Y35308D01*
X166932Y35427D01*
X166970Y35521D01*
X167014Y35596D01*
X167045Y35647D01*
X167070Y35672D01*
X167076Y35684D01*
X167158Y35754D01*
X167252Y35810D01*
X167346Y35848D01*
X167434Y35873D01*
X167516Y35885D01*
X167579Y35898D01*
X167635D01*
X167761Y35892D01*
X167868Y35866D01*
X167962Y35835D01*
X168043Y35797D01*
X168106Y35760D01*
X168150Y35728D01*
X168182Y35703D01*
X168188Y35697D01*
X168257Y35615D01*
X168307Y35521D01*
X168339Y35427D01*
X168364Y35339D01*
X168376Y35251D01*
X168389Y35188D01*
Y35163D01*
Y35144D01*
Y35132D01*
Y35125D01*
X168376Y35000D01*
X168351Y34874D01*
X168314Y34761D01*
X168276Y34661D01*
X168232Y34573D01*
X168194Y34504D01*
X168175Y34479D01*
X168169Y34460D01*
X168157Y34453D01*
Y34447D01*
X168119Y34397D01*
X168069Y34334D01*
X168006Y34265D01*
X167943Y34196D01*
X167792Y34039D01*
X167629Y33882D01*
X167554Y33807D01*
X167478Y33731D01*
X167415Y33669D01*
X167353Y33612D01*
X167303Y33568D01*
X167265Y33530D01*
X167240Y33505D01*
X167233Y33499D01*
X167064Y33342D01*
X166913Y33191D01*
X166769Y33047D01*
X166643Y32915D01*
X166530Y32796D01*
X166429Y32676D01*
X166335Y32576D01*
X166260Y32482D01*
X166191Y32394D01*
X166134Y32325D01*
X166084Y32256D01*
X166047Y32205D01*
X166021Y32168D01*
X165996Y32136D01*
X165990Y32117D01*
X165984Y32111D01*
X165877Y31916D01*
X165795Y31722D01*
X165726Y31533D01*
X165676Y31364D01*
X165657Y31288D01*
X165645Y31219D01*
X165632Y31157D01*
X165619Y31106D01*
X165613Y31062D01*
Y31031D01*
X165607Y31012D01*
Y31006D01*
X169501D01*
Y32142D01*
Y32036D01*
X167290D01*
X167365Y32142D01*
X167403Y32193D01*
X167434Y32243D01*
X167466Y32281D01*
X167491Y32312D01*
X167510Y32331D01*
X167516Y32337D01*
X167547Y32369D01*
X167585Y32412D01*
X167629Y32456D01*
X167679Y32507D01*
X167786Y32614D01*
X167899Y32720D01*
X168006Y32821D01*
X168056Y32865D01*
X168100Y32902D01*
X168131Y32934D01*
X168157Y32959D01*
X168175Y32971D01*
X168182Y32978D01*
X168276Y33066D01*
X168364Y33147D01*
X168445Y33229D01*
X168521Y33298D01*
X168584Y33367D01*
X168646Y33424D01*
X168697Y33480D01*
X168747Y33530D01*
X168816Y33612D01*
X168872Y33669D01*
X168898Y33706D01*
X168910Y33719D01*
X169017Y33863D01*
X169111Y34001D01*
X169186Y34127D01*
X169249Y34234D01*
X169293Y34328D01*
X169312Y34366D01*
X169331Y34397D01*
X169343Y34422D01*
X169350Y34447D01*
X169356Y34453D01*
Y34460D01*
X169406Y34592D01*
X169438Y34724D01*
X169463Y34849D01*
X169482Y34969D01*
X169494Y35063D01*
Y35107D01*
X169501Y35138D01*
Y35207D01*
X169494Y35333D01*
X169482Y35452D01*
X169457Y35565D01*
X169425Y35678D01*
X169387Y35779D01*
X169343Y35873D01*
X169299Y35961D01*
X169255Y36036D01*
X169205Y36112D01*
X169161Y36174D01*
X169117Y36231D01*
X169080Y36275D01*
X169048Y36306D01*
X169023Y36338D01*
X169011Y36350D01*
X169004Y36356D01*
X168910Y36438D01*
X168803Y36507D01*
X168697Y36570D01*
X168590Y36626D01*
X168477Y36670D01*
X168364Y36708D01*
X168257Y36739D01*
X168150Y36765D01*
X168050Y36783D01*
X167956Y36796D01*
X167874Y36808D01*
X167805Y36815D01*
X167742Y36821D01*
X169501D01*
D02*
G37*
G36*
X149254Y36802D02*
X146641D01*
Y31006D01*
X147809D01*
Y33424D01*
X148186D01*
X148305Y33411D01*
X148406Y33405D01*
X148488Y33392D01*
X148550Y33380D01*
X148594Y33367D01*
X148626Y33361D01*
X148632Y33354D01*
X148701Y33329D01*
X148764Y33292D01*
X148827Y33254D01*
X148877Y33210D01*
X148921Y33172D01*
X148959Y33147D01*
X148977Y33122D01*
X148984Y33116D01*
X149021Y33078D01*
X149059Y33028D01*
X149103Y32971D01*
X149153Y32909D01*
X149254Y32770D01*
X149361Y32626D01*
X149455Y32488D01*
X149499Y32431D01*
X149530Y32375D01*
X149562Y32331D01*
X149587Y32300D01*
X149599Y32274D01*
X149605Y32268D01*
X150453Y31006D01*
X149393D01*
X151854D01*
X151144Y32130D01*
X151069Y32256D01*
X150993Y32362D01*
X150924Y32469D01*
X150861Y32563D01*
X150805Y32651D01*
X150748Y32726D01*
X150698Y32796D01*
X150654Y32858D01*
X150617Y32909D01*
X150579Y32953D01*
X150547Y32990D01*
X150522Y33022D01*
X150504Y33040D01*
X150491Y33059D01*
X150478Y33072D01*
X150384Y33166D01*
X150277Y33260D01*
X150171Y33342D01*
X150070Y33411D01*
X149982Y33474D01*
X149913Y33518D01*
X149888Y33537D01*
X149869Y33543D01*
X149857Y33555D01*
X149850D01*
X149988Y33581D01*
X150120Y33612D01*
X150240Y33650D01*
X150353Y33687D01*
X150460Y33731D01*
X150554Y33775D01*
X150635Y33819D01*
X150711Y33869D01*
X150780Y33913D01*
X150836Y33957D01*
X150887Y33995D01*
X150931Y34027D01*
X150962Y34058D01*
X150981Y34077D01*
X150993Y34089D01*
X151000Y34096D01*
X151069Y34177D01*
X151125Y34265D01*
X151175Y34353D01*
X151219Y34447D01*
X151257Y34535D01*
X151288Y34623D01*
X151332Y34799D01*
X151351Y34874D01*
X151364Y34950D01*
X151370Y35013D01*
X151376Y35069D01*
X151383Y35113D01*
Y35144D01*
Y35170D01*
Y35176D01*
X151370Y35364D01*
X151345Y35534D01*
X151301Y35691D01*
X151257Y35823D01*
X151232Y35879D01*
X151207Y35936D01*
X151188Y35980D01*
X151163Y36017D01*
X151150Y36049D01*
X151138Y36068D01*
X151125Y36080D01*
Y36086D01*
X151025Y36224D01*
X150912Y36344D01*
X150805Y36438D01*
X150698Y36520D01*
X150598Y36576D01*
X150560Y36595D01*
X150522Y36614D01*
X150491Y36626D01*
X150472Y36639D01*
X150460Y36645D01*
X150453D01*
X150372Y36670D01*
X150277Y36696D01*
X150171Y36721D01*
X150064Y36733D01*
X149844Y36765D01*
X149618Y36783D01*
X149518Y36790D01*
X149417Y36796D01*
X149329D01*
X149254Y36802D01*
D02*
G37*
G36*
X165004Y36821D02*
X161242D01*
D01*
X163120D01*
X162969Y36815D01*
X162825Y36796D01*
X162687Y36765D01*
X162561Y36727D01*
X162442Y36683D01*
X162335Y36633D01*
X162234Y36576D01*
X162147Y36526D01*
X162071Y36469D01*
X162002Y36413D01*
X161946Y36363D01*
X161895Y36319D01*
X161858Y36281D01*
X161833Y36250D01*
X161814Y36231D01*
X161808Y36224D01*
X161707Y36080D01*
X161619Y35917D01*
X161544Y35741D01*
X161481Y35552D01*
X161424Y35358D01*
X161380Y35163D01*
X161343Y34969D01*
X161311Y34774D01*
X161293Y34592D01*
X161274Y34422D01*
X161261Y34271D01*
X161249Y34133D01*
Y34077D01*
Y34027D01*
X161242Y33983D01*
Y30899D01*
Y33869D01*
X161249Y33568D01*
X161267Y33292D01*
X161293Y33034D01*
X161324Y32802D01*
X161362Y32588D01*
X161406Y32400D01*
X161450Y32230D01*
X161500Y32080D01*
X161550Y31954D01*
X161594Y31841D01*
X161638Y31747D01*
X161676Y31672D01*
X161707Y31615D01*
X161738Y31577D01*
X161751Y31552D01*
X161757Y31546D01*
X161858Y31433D01*
X161964Y31332D01*
X162077Y31245D01*
X162191Y31169D01*
X162304Y31113D01*
X162417Y31056D01*
X162523Y31012D01*
X162630Y30981D01*
X162731Y30956D01*
X162825Y30931D01*
X162907Y30918D01*
X162982Y30912D01*
X163038Y30905D01*
X163082Y30899D01*
X163120D01*
X163271Y30905D01*
X163415Y30924D01*
X163553Y30956D01*
X163679Y30993D01*
X163798Y31037D01*
X163905Y31087D01*
X164005Y31138D01*
X164093Y31194D01*
X164169Y31251D01*
X164238Y31301D01*
X164301Y31351D01*
X164345Y31395D01*
X164382Y31433D01*
X164414Y31464D01*
X164426Y31483D01*
X164433Y31489D01*
X164533Y31634D01*
X164621Y31797D01*
X164696Y31979D01*
X164765Y32161D01*
X164816Y32356D01*
X164866Y32557D01*
X164903Y32752D01*
X164935Y32946D01*
X164954Y33128D01*
X164973Y33298D01*
X164985Y33455D01*
X164998Y33587D01*
Y33650D01*
Y33700D01*
X165004Y33744D01*
Y33857D01*
X164998Y34152D01*
X164979Y34428D01*
X164954Y34686D01*
X164916Y34918D01*
X164872Y35132D01*
X164828Y35326D01*
X164772Y35502D01*
X164721Y35653D01*
X164671Y35791D01*
X164621Y35904D01*
X164571Y36005D01*
X164527Y36080D01*
X164489Y36143D01*
X164464Y36187D01*
X164445Y36212D01*
X164439Y36218D01*
X164345Y36325D01*
X164244Y36419D01*
X164137Y36501D01*
X164031Y36570D01*
X163924Y36626D01*
X163811Y36677D01*
X163704Y36714D01*
X163603Y36746D01*
X163503Y36771D01*
X163409Y36790D01*
X163327Y36802D01*
X163258Y36815D01*
X163202D01*
X163158Y36821D01*
X165004D01*
D02*
G37*
G36*
X146968Y29740D02*
X146861D01*
X146616Y29733D01*
X146509Y29721D01*
X146396Y29708D01*
X146296Y29689D01*
X146202Y29677D01*
X146120Y29658D01*
X146038Y29639D01*
X145963Y29614D01*
X145900Y29595D01*
X145850Y29583D01*
X145800Y29564D01*
X145768Y29551D01*
X145737Y29539D01*
X145724Y29533D01*
X145718D01*
X145555Y29451D01*
X145404Y29357D01*
X145285Y29263D01*
X145178Y29168D01*
X145103Y29080D01*
X145040Y29011D01*
X145021Y28986D01*
X145009Y28967D01*
X144996Y28955D01*
Y28949D01*
X144914Y28804D01*
X144852Y28660D01*
X144808Y28515D01*
X144776Y28390D01*
X144757Y28283D01*
X144751Y28233D01*
Y28195D01*
X144745Y28163D01*
Y28138D01*
Y28126D01*
Y28120D01*
X144751Y27994D01*
X144770Y27875D01*
X144795Y27755D01*
X144826Y27648D01*
X144870Y27548D01*
X144914Y27448D01*
X144965Y27360D01*
X145015Y27278D01*
X145059Y27203D01*
X145109Y27140D01*
X145153Y27083D01*
X145197Y27039D01*
X145228Y27002D01*
X145253Y26977D01*
X145272Y26958D01*
X145279Y26951D01*
X145354Y26889D01*
X145442Y26832D01*
X145542Y26776D01*
X145643Y26719D01*
X145863Y26625D01*
X146082Y26537D01*
X146183Y26506D01*
X146277Y26474D01*
X146365Y26443D01*
X146447Y26424D01*
X146509Y26405D01*
X146553Y26392D01*
X146585Y26380D01*
X146597D01*
X146729Y26349D01*
X146848Y26317D01*
X146955Y26292D01*
X147049Y26267D01*
X147137Y26242D01*
X147213Y26223D01*
X147282Y26204D01*
X147338Y26185D01*
X147389Y26173D01*
X147426Y26160D01*
X147464Y26148D01*
X147489Y26141D01*
X147508Y26135D01*
X147520D01*
X147533Y26129D01*
X147640Y26085D01*
X147728Y26047D01*
X147797Y26003D01*
X147860Y25965D01*
X147897Y25928D01*
X147929Y25903D01*
X147948Y25884D01*
X147954Y25878D01*
X147998Y25821D01*
X148029Y25765D01*
X148048Y25702D01*
X148067Y25645D01*
X148073Y25601D01*
X148079Y25564D01*
Y25532D01*
Y25526D01*
Y25469D01*
X148067Y25413D01*
X148035Y25306D01*
X147985Y25206D01*
X147935Y25124D01*
X147885Y25061D01*
X147835Y25011D01*
X147803Y24980D01*
X147797Y24967D01*
X147791D01*
X147734Y24923D01*
X147671Y24885D01*
X147533Y24829D01*
X147389Y24785D01*
X147250Y24760D01*
X147125Y24741D01*
X147075Y24735D01*
X147024D01*
X146987Y24728D01*
X146930D01*
X146742Y24741D01*
X146572Y24772D01*
X146428Y24810D01*
X146302Y24860D01*
X146252Y24885D01*
X146208Y24910D01*
X146164Y24929D01*
X146133Y24948D01*
X146107Y24967D01*
X146089Y24980D01*
X146082Y24992D01*
X146076D01*
X146020Y25049D01*
X145969Y25105D01*
X145881Y25237D01*
X145806Y25381D01*
X145749Y25520D01*
X145712Y25645D01*
X145693Y25695D01*
X145680Y25746D01*
X145674Y25783D01*
X145668Y25815D01*
X145662Y25834D01*
Y25840D01*
X144525Y25727D01*
X144550Y25551D01*
X144588Y25381D01*
X144632Y25231D01*
X144682Y25086D01*
X144738Y24954D01*
X144795Y24829D01*
X144858Y24722D01*
X144921Y24622D01*
X144977Y24534D01*
X145034Y24458D01*
X145090Y24396D01*
X145134Y24339D01*
X145172Y24301D01*
X145203Y24270D01*
X145222Y24251D01*
X145228Y24245D01*
X145348Y24157D01*
X145473Y24081D01*
X145605Y24012D01*
X145743Y23956D01*
X145881Y23906D01*
X146020Y23868D01*
X146158Y23830D01*
X146296Y23805D01*
X146422Y23786D01*
X146541Y23767D01*
X146648Y23755D01*
X146736Y23749D01*
X146811D01*
X146867Y23742D01*
X144525D01*
X149248D01*
D01*
X147056D01*
X147188Y23749D01*
X147319Y23761D01*
X147432Y23774D01*
X147546Y23793D01*
X147652Y23805D01*
X147747Y23824D01*
X147835Y23849D01*
X147910Y23868D01*
X147979Y23887D01*
X148042Y23899D01*
X148092Y23918D01*
X148130Y23931D01*
X148155Y23943D01*
X148174Y23950D01*
X148180D01*
X148362Y24037D01*
X148519Y24138D01*
X148651Y24251D01*
X148764Y24351D01*
X148852Y24446D01*
X148883Y24490D01*
X148915Y24527D01*
X148933Y24553D01*
X148952Y24578D01*
X148965Y24590D01*
Y24596D01*
X149015Y24678D01*
X149059Y24766D01*
X149128Y24929D01*
X149178Y25086D01*
X149210Y25231D01*
X149222Y25293D01*
X149235Y25350D01*
X149241Y25407D01*
Y25451D01*
X149248Y25482D01*
Y25532D01*
X149235Y25727D01*
X149210Y25909D01*
X149172Y26066D01*
X149153Y26135D01*
X149134Y26198D01*
X149109Y26254D01*
X149091Y26305D01*
X149072Y26349D01*
X149053Y26386D01*
X149034Y26418D01*
X149028Y26436D01*
X149015Y26449D01*
Y26455D01*
X148921Y26587D01*
X148814Y26706D01*
X148707Y26807D01*
X148607Y26895D01*
X148513Y26958D01*
X148437Y27008D01*
X148406Y27020D01*
X148387Y27033D01*
X148374Y27046D01*
X148368D01*
X148287Y27083D01*
X148199Y27127D01*
X148098Y27165D01*
X147998Y27203D01*
X147791Y27272D01*
X147583Y27334D01*
X147489Y27360D01*
X147395Y27385D01*
X147319Y27410D01*
X147244Y27429D01*
X147188Y27441D01*
X147144Y27454D01*
X147119Y27460D01*
X147106D01*
X146955Y27498D01*
X146817Y27536D01*
X146692Y27573D01*
X146579Y27611D01*
X146478Y27642D01*
X146390Y27674D01*
X146315Y27705D01*
X146252Y27730D01*
X146195Y27755D01*
X146145Y27780D01*
X146107Y27799D01*
X146082Y27818D01*
X146057Y27831D01*
X146045Y27843D01*
X146032Y27850D01*
X145976Y27906D01*
X145932Y27962D01*
X145906Y28025D01*
X145881Y28082D01*
X145869Y28126D01*
X145863Y28170D01*
Y28195D01*
Y28201D01*
X145869Y28283D01*
X145894Y28352D01*
X145919Y28415D01*
X145957Y28465D01*
X145988Y28503D01*
X146020Y28534D01*
X146038Y28553D01*
X146045Y28559D01*
X146164Y28628D01*
X146290Y28685D01*
X146428Y28722D01*
X146553Y28747D01*
X146673Y28760D01*
X146723Y28766D01*
X146767Y28773D01*
X146848D01*
X147024Y28766D01*
X147175Y28741D01*
X147301Y28710D01*
X147407Y28672D01*
X147489Y28635D01*
X147546Y28603D01*
X147577Y28578D01*
X147590Y28572D01*
X147678Y28490D01*
X147747Y28390D01*
X147803Y28283D01*
X147847Y28182D01*
X147878Y28088D01*
X147891Y28044D01*
X147904Y28007D01*
X147910Y27981D01*
Y27956D01*
X147916Y27944D01*
Y27937D01*
X149084Y27981D01*
X149072Y28126D01*
X149053Y28264D01*
X149021Y28396D01*
X148977Y28515D01*
X148933Y28628D01*
X148883Y28735D01*
X148833Y28829D01*
X148783Y28917D01*
X148726Y28992D01*
X148676Y29061D01*
X148632Y29124D01*
X148588Y29168D01*
X148550Y29206D01*
X148525Y29237D01*
X148506Y29250D01*
X148500Y29256D01*
X148393Y29344D01*
X148274Y29413D01*
X148142Y29482D01*
X148010Y29539D01*
X147878Y29583D01*
X147740Y29620D01*
X147602Y29652D01*
X147476Y29677D01*
X147351Y29702D01*
X147232Y29715D01*
X147131Y29727D01*
X147037Y29733D01*
X146968Y29740D01*
D02*
G37*
G36*
X167296Y28145D02*
X164577D01*
X166561D01*
X166461Y28138D01*
X166373Y28126D01*
X166291Y28101D01*
X166216Y28076D01*
X166159Y28050D01*
X166116Y28025D01*
X166090Y28013D01*
X166078Y28007D01*
X166040Y27981D01*
X165996Y27944D01*
X165915Y27862D01*
X165839Y27774D01*
X165764Y27680D01*
X165701Y27592D01*
X165651Y27517D01*
X165632Y27485D01*
X165619Y27466D01*
X165613Y27454D01*
X165607Y27448D01*
Y28050D01*
X164577D01*
Y23849D01*
X165689D01*
Y25143D01*
Y25337D01*
X165695Y25513D01*
Y25670D01*
X165701Y25815D01*
X165707Y25947D01*
X165714Y26060D01*
X165726Y26160D01*
X165733Y26248D01*
X165739Y26323D01*
X165751Y26386D01*
X165758Y26443D01*
X165764Y26480D01*
X165770Y26512D01*
Y26531D01*
X165776Y26543D01*
Y26550D01*
X165814Y26669D01*
X165858Y26763D01*
X165902Y26845D01*
X165940Y26908D01*
X165977Y26958D01*
X166009Y26989D01*
X166028Y27008D01*
X166034Y27014D01*
X166097Y27058D01*
X166166Y27090D01*
X166229Y27115D01*
X166291Y27127D01*
X166348Y27140D01*
X166392Y27146D01*
X166429D01*
X166524Y27140D01*
X166612Y27121D01*
X166700Y27090D01*
X166781Y27058D01*
X166850Y27020D01*
X166901Y26995D01*
X166938Y26970D01*
X166951Y26964D01*
X167296Y27931D01*
X167164Y28000D01*
X167032Y28057D01*
X166907Y28094D01*
X166794Y28120D01*
X166700Y28132D01*
X166662Y28138D01*
X166624Y28145D01*
X167296D01*
D02*
G37*
G36*
X168847Y29646D02*
X167736D01*
Y23849D01*
X171617D01*
D01*
X170078Y26512D01*
X171516Y28050D01*
X170147D01*
X168847Y26568D01*
Y29646D01*
D02*
G37*
G36*
X163773Y28145D02*
X159829D01*
D01*
X161613D01*
X161475Y28132D01*
X161343Y28120D01*
X161223Y28101D01*
X161110Y28076D01*
X161010Y28050D01*
X160922Y28025D01*
X160834Y28000D01*
X160765Y27969D01*
X160702Y27944D01*
X160646Y27919D01*
X160602Y27893D01*
X160570Y27875D01*
X160545Y27862D01*
X160533Y27856D01*
X160526Y27850D01*
X160451Y27793D01*
X160382Y27724D01*
X160263Y27586D01*
X160162Y27435D01*
X160081Y27284D01*
X160018Y27152D01*
X159993Y27096D01*
X159974Y27046D01*
X159961Y27002D01*
X159949Y26970D01*
X159942Y26951D01*
Y26945D01*
X160941Y26763D01*
X160978Y26864D01*
X161022Y26951D01*
X161066Y27027D01*
X161110Y27083D01*
X161148Y27127D01*
X161179Y27152D01*
X161198Y27171D01*
X161205Y27178D01*
X161274Y27215D01*
X161349Y27247D01*
X161431Y27265D01*
X161506Y27284D01*
X161569Y27291D01*
X161625Y27297D01*
X161757D01*
X161833Y27291D01*
X161895Y27284D01*
X161958Y27278D01*
X162065Y27253D01*
X162147Y27228D01*
X162203Y27203D01*
X162247Y27178D01*
X162272Y27165D01*
X162278Y27159D01*
X162335Y27102D01*
X162373Y27027D01*
X162404Y26951D01*
X162423Y26876D01*
X162435Y26807D01*
X162442Y26750D01*
Y26706D01*
Y26700D01*
Y26694D01*
Y26587D01*
X162379Y26562D01*
X162310Y26537D01*
X162228Y26512D01*
X162147Y26487D01*
X161964Y26443D01*
X161789Y26399D01*
X161701Y26380D01*
X161619Y26361D01*
X161544Y26349D01*
X161481Y26336D01*
X161431Y26323D01*
X161387Y26317D01*
X161362Y26311D01*
X161355D01*
X161249Y26292D01*
X161154Y26267D01*
X161060Y26242D01*
X160972Y26223D01*
X160897Y26198D01*
X160821Y26179D01*
X160752Y26154D01*
X160696Y26135D01*
X160646Y26116D01*
X160595Y26104D01*
X160558Y26085D01*
X160526Y26072D01*
X160501Y26060D01*
X160482Y26053D01*
X160476Y26047D01*
X160470D01*
X160363Y25991D01*
X160269Y25921D01*
X160187Y25852D01*
X160124Y25783D01*
X160068Y25721D01*
X160030Y25670D01*
X160005Y25639D01*
X159999Y25633D01*
Y25626D01*
X159942Y25520D01*
X159898Y25413D01*
X159873Y25306D01*
X159848Y25206D01*
X159836Y25118D01*
X159829Y25055D01*
Y24992D01*
X159836Y24892D01*
X159848Y24797D01*
X159861Y24710D01*
X159886Y24628D01*
X159949Y24471D01*
X159980Y24408D01*
X160018Y24345D01*
X160049Y24289D01*
X160081Y24238D01*
X160112Y24201D01*
X160143Y24163D01*
X160168Y24138D01*
X160181Y24119D01*
X160194Y24107D01*
X160200Y24100D01*
X160275Y24037D01*
X160351Y23987D01*
X160432Y23943D01*
X160520Y23899D01*
X160690Y23837D01*
X160853Y23799D01*
X160928Y23786D01*
X160997Y23774D01*
X161060Y23767D01*
X161117Y23761D01*
X161161Y23755D01*
X161223D01*
X161362Y23761D01*
X161487Y23774D01*
X161607Y23799D01*
X161707Y23824D01*
X161795Y23849D01*
X161858Y23874D01*
X161883Y23880D01*
X161902Y23887D01*
X161908Y23893D01*
X161914D01*
X162033Y23950D01*
X162147Y24019D01*
X162253Y24088D01*
X162341Y24151D01*
X162417Y24213D01*
X162473Y24264D01*
X162511Y24295D01*
X162523Y24308D01*
X162530Y24295D01*
X162536Y24276D01*
X162548Y24232D01*
X162555Y24194D01*
X162561Y24182D01*
Y24176D01*
X162586Y24100D01*
X162605Y24031D01*
X162630Y23975D01*
X162643Y23931D01*
X162655Y23893D01*
X162668Y23868D01*
X162674Y23855D01*
Y23849D01*
X163773D01*
X163723Y23956D01*
X163679Y24063D01*
X163641Y24157D01*
X163616Y24238D01*
X163597Y24308D01*
X163585Y24364D01*
X163572Y24396D01*
Y24408D01*
X163566Y24458D01*
X163553Y24521D01*
X163541Y24647D01*
X163534Y24785D01*
X163528Y24917D01*
X163522Y25036D01*
Y25086D01*
Y25137D01*
Y25174D01*
Y25199D01*
Y25218D01*
Y25224D01*
X163541Y26524D01*
Y26656D01*
X163534Y26776D01*
X163528Y26882D01*
X163516Y26983D01*
X163503Y27077D01*
X163490Y27159D01*
X163478Y27228D01*
X163465Y27291D01*
X163453Y27347D01*
X163440Y27391D01*
X163428Y27435D01*
X163415Y27466D01*
X163403Y27485D01*
X163396Y27504D01*
X163390Y27517D01*
X163327Y27611D01*
X163246Y27699D01*
X163164Y27774D01*
X163076Y27843D01*
X163001Y27893D01*
X162932Y27931D01*
X162913Y27944D01*
X162894Y27956D01*
X162881Y27962D01*
X162875D01*
X162800Y27994D01*
X162724Y28025D01*
X162548Y28069D01*
X162366Y28101D01*
X162184Y28120D01*
X162096Y28132D01*
X162021Y28138D01*
X161946D01*
X161889Y28145D01*
X163773D01*
D01*
D02*
G37*
G36*
X156865Y29646D02*
X154730D01*
Y23849D01*
X159170D01*
Y27856D01*
X159164Y27981D01*
X159157Y28107D01*
X159139Y28220D01*
X159120Y28327D01*
X159095Y28427D01*
X159063Y28521D01*
X159032Y28603D01*
X159000Y28685D01*
X158969Y28754D01*
X158938Y28810D01*
X158912Y28867D01*
X158881Y28911D01*
X158862Y28942D01*
X158843Y28967D01*
X158837Y28980D01*
X158831Y28986D01*
X158768Y29068D01*
X158699Y29137D01*
X158630Y29200D01*
X158554Y29263D01*
X158416Y29363D01*
X158284Y29438D01*
X158171Y29495D01*
X158121Y29514D01*
X158077Y29533D01*
X158046Y29545D01*
X158021Y29551D01*
X158002Y29558D01*
X157995D01*
X157926Y29570D01*
X157845Y29589D01*
X157751Y29602D01*
X157644Y29608D01*
X157531Y29614D01*
X157418Y29627D01*
X157179Y29633D01*
X157066Y29639D01*
X156966D01*
X156865Y29646D01*
D02*
G37*
G36*
X151332Y24961D02*
X150221D01*
Y23849D01*
X151332D01*
Y24961D01*
D02*
G37*
G36*
X163242Y22508D02*
X161484D01*
D01*
X163242D01*
D02*
G37*
G36*
X154607D02*
X154570D01*
X154394Y22501D01*
X154231Y22483D01*
X154080Y22451D01*
X153954Y22420D01*
X153898Y22401D01*
X153848Y22382D01*
X153804Y22370D01*
X153766Y22357D01*
X153735Y22344D01*
X153716Y22332D01*
X153703Y22326D01*
X153697D01*
X153559Y22250D01*
X153439Y22169D01*
X153339Y22087D01*
X153257Y22005D01*
X153188Y21936D01*
X153138Y21873D01*
X153113Y21836D01*
X153100Y21829D01*
Y21823D01*
X153025Y21698D01*
X152962Y21559D01*
X152906Y21421D01*
X152862Y21283D01*
X152824Y21164D01*
X152811Y21114D01*
X152799Y21070D01*
X152793Y21032D01*
X152786Y21007D01*
X152780Y20988D01*
Y20982D01*
X153804Y20812D01*
X153829Y20944D01*
X153860Y21063D01*
X153898Y21158D01*
X153942Y21239D01*
X153986Y21302D01*
X154017Y21346D01*
X154042Y21377D01*
X154049Y21384D01*
X154130Y21453D01*
X154212Y21503D01*
X154294Y21534D01*
X154369Y21559D01*
X154438Y21572D01*
X154488Y21585D01*
X154538D01*
X154645Y21578D01*
X154739Y21559D01*
X154815Y21528D01*
X154884Y21497D01*
X154940Y21465D01*
X154978Y21434D01*
X155003Y21415D01*
X155009Y21409D01*
X155066Y21340D01*
X155110Y21264D01*
X155141Y21183D01*
X155166Y21114D01*
X155179Y21045D01*
X155185Y20994D01*
Y20956D01*
Y20950D01*
Y20944D01*
X155173Y20818D01*
X155148Y20712D01*
X155110Y20617D01*
X155066Y20536D01*
X155016Y20473D01*
X154978Y20429D01*
X154953Y20404D01*
X154940Y20391D01*
X154840Y20329D01*
X154733Y20278D01*
X154620Y20241D01*
X154507Y20222D01*
X154406Y20209D01*
X154362D01*
X154325Y20203D01*
X154250D01*
X154130Y19299D01*
X154237Y19330D01*
X154337Y19349D01*
X154419Y19368D01*
X154494Y19374D01*
X154557Y19380D01*
X154601Y19387D01*
X154639D01*
X154758Y19374D01*
X154865Y19349D01*
X154959Y19305D01*
X155041Y19261D01*
X155104Y19217D01*
X155154Y19173D01*
X155179Y19148D01*
X155192Y19135D01*
X155267Y19035D01*
X155323Y18928D01*
X155361Y18815D01*
X155393Y18708D01*
X155405Y18614D01*
X155411Y18576D01*
Y18539D01*
X155418Y18507D01*
Y18488D01*
Y18476D01*
Y18470D01*
X155405Y18313D01*
X155380Y18174D01*
X155342Y18055D01*
X155298Y17955D01*
X155254Y17873D01*
X155217Y17817D01*
X155192Y17779D01*
X155179Y17766D01*
X155085Y17678D01*
X154984Y17616D01*
X154890Y17572D01*
X154796Y17540D01*
X154714Y17521D01*
X154651Y17515D01*
X154626Y17509D01*
X154595D01*
X154482Y17515D01*
X154375Y17540D01*
X154281Y17578D01*
X154199Y17616D01*
X154136Y17653D01*
X154086Y17691D01*
X154061Y17716D01*
X154049Y17722D01*
X153973Y17810D01*
X153910Y17917D01*
X153860Y18018D01*
X153829Y18124D01*
X153797Y18212D01*
X153785Y18288D01*
X153779Y18319D01*
X153772Y18338D01*
Y18350D01*
Y18357D01*
X152698Y18225D01*
X152717Y18093D01*
X152749Y17961D01*
X152786Y17842D01*
X152824Y17729D01*
X152874Y17622D01*
X152924Y17528D01*
X152975Y17440D01*
X153025Y17358D01*
X153081Y17283D01*
X153125Y17220D01*
X153176Y17163D01*
X153213Y17120D01*
X153245Y17082D01*
X153270Y17057D01*
X153289Y17044D01*
X153295Y17038D01*
X153395Y16956D01*
X153502Y16887D01*
X153609Y16831D01*
X153722Y16774D01*
X153829Y16730D01*
X153936Y16699D01*
X154042Y16667D01*
X154143Y16642D01*
X154237Y16623D01*
X154325Y16611D01*
X154406Y16598D01*
X154469Y16592D01*
X154526D01*
X154563Y16586D01*
X156554D01*
X154601D01*
X154752Y16592D01*
X154903Y16611D01*
X155041Y16636D01*
X155173Y16667D01*
X155292Y16711D01*
X155411Y16755D01*
X155518Y16805D01*
X155612Y16856D01*
X155700Y16900D01*
X155775Y16950D01*
X155838Y16994D01*
X155895Y17038D01*
X155939Y17069D01*
X155970Y17094D01*
X155989Y17113D01*
X155995Y17120D01*
X156096Y17226D01*
X156177Y17333D01*
X156253Y17440D01*
X156316Y17553D01*
X156372Y17660D01*
X156416Y17766D01*
X156454Y17873D01*
X156485Y17974D01*
X156510Y18068D01*
X156523Y18149D01*
X156535Y18225D01*
X156548Y18294D01*
Y18344D01*
X156554Y18388D01*
Y18419D01*
X156548Y18514D01*
X156542Y18608D01*
X156510Y18784D01*
X156460Y18934D01*
X156404Y19066D01*
X156378Y19123D01*
X156347Y19173D01*
X156322Y19217D01*
X156303Y19255D01*
X156278Y19280D01*
X156265Y19299D01*
X156259Y19311D01*
X156253Y19318D01*
X156196Y19387D01*
X156133Y19449D01*
X156008Y19550D01*
X155876Y19638D01*
X155744Y19701D01*
X155637Y19745D01*
X155587Y19763D01*
X155543Y19776D01*
X155512Y19789D01*
X155487Y19795D01*
X155468Y19801D01*
X155462D01*
X155606Y19889D01*
X155738Y19983D01*
X155851Y20084D01*
X155945Y20184D01*
X156027Y20285D01*
X156096Y20385D01*
X156146Y20486D01*
X156190Y20580D01*
X156228Y20668D01*
X156253Y20756D01*
X156272Y20831D01*
X156284Y20894D01*
X156290Y20944D01*
X156297Y20988D01*
Y21013D01*
Y21019D01*
X156290Y21120D01*
X156278Y21214D01*
X156259Y21308D01*
X156234Y21396D01*
X156165Y21559D01*
X156089Y21698D01*
X156052Y21760D01*
X156014Y21817D01*
X155976Y21867D01*
X155945Y21905D01*
X155920Y21936D01*
X155901Y21961D01*
X155889Y21974D01*
X155882Y21980D01*
X155788Y22074D01*
X155688Y22156D01*
X155581Y22225D01*
X155468Y22288D01*
X155361Y22338D01*
X155254Y22382D01*
X155148Y22413D01*
X155041Y22445D01*
X154947Y22464D01*
X154859Y22483D01*
X154777Y22489D01*
X154708Y22501D01*
X154651D01*
X154607Y22508D01*
D02*
G37*
G36*
X167651Y22413D02*
X164712D01*
X164140Y19393D01*
X165039Y19267D01*
X165108Y19343D01*
X165183Y19405D01*
X165258Y19462D01*
X165334Y19512D01*
X165403Y19550D01*
X165478Y19588D01*
X165610Y19638D01*
X165729Y19663D01*
X165773Y19675D01*
X165817Y19682D01*
X165855Y19688D01*
X165968D01*
X166037Y19675D01*
X166156Y19644D01*
X166263Y19600D01*
X166351Y19556D01*
X166426Y19506D01*
X166477Y19462D01*
X166508Y19431D01*
X166521Y19424D01*
Y19418D01*
X166602Y19305D01*
X166665Y19179D01*
X166709Y19047D01*
X166734Y18915D01*
X166753Y18796D01*
X166759Y18746D01*
Y18702D01*
X166765Y18664D01*
Y18639D01*
Y18620D01*
Y18614D01*
Y18514D01*
X166753Y18413D01*
X166740Y18325D01*
X166728Y18237D01*
X166709Y18162D01*
X166690Y18093D01*
X166665Y18030D01*
X166646Y17974D01*
X166621Y17923D01*
X166596Y17879D01*
X166577Y17842D01*
X166558Y17810D01*
X166546Y17791D01*
X166533Y17773D01*
X166521Y17766D01*
Y17760D01*
X166477Y17710D01*
X166426Y17666D01*
X166326Y17597D01*
X166232Y17547D01*
X166138Y17515D01*
X166056Y17490D01*
X165987Y17484D01*
X165962Y17477D01*
X165930D01*
X165817Y17490D01*
X165717Y17515D01*
X165623Y17547D01*
X165547Y17591D01*
X165478Y17628D01*
X165434Y17666D01*
X165403Y17691D01*
X165390Y17697D01*
X165315Y17785D01*
X165252Y17886D01*
X165202Y17980D01*
X165164Y18080D01*
X165139Y18162D01*
X165126Y18231D01*
X165120Y18256D01*
X165114Y18275D01*
Y18288D01*
Y18294D01*
X164009Y18174D01*
X164034Y18043D01*
X164059Y17917D01*
X164096Y17798D01*
X164140Y17685D01*
X164191Y17584D01*
X164241Y17490D01*
X164291Y17402D01*
X164341Y17320D01*
X164392Y17251D01*
X164442Y17189D01*
X164486Y17138D01*
X164524Y17094D01*
X164561Y17057D01*
X164586Y17031D01*
X164599Y17019D01*
X164605Y17013D01*
X164706Y16937D01*
X164806Y16874D01*
X164913Y16818D01*
X165026Y16768D01*
X165133Y16724D01*
X165246Y16692D01*
X165453Y16642D01*
X165547Y16623D01*
X165635Y16611D01*
X165717Y16598D01*
X165786Y16592D01*
X165842Y16586D01*
X164009D01*
D01*
X167909D01*
Y18633D01*
X167902Y18790D01*
X167883Y18941D01*
X167858Y19079D01*
X167827Y19217D01*
X167789Y19336D01*
X167745Y19456D01*
X167695Y19562D01*
X167651Y19657D01*
X167601Y19745D01*
X167551Y19820D01*
X167507Y19883D01*
X167469Y19933D01*
X167438Y19977D01*
X167412Y20008D01*
X167394Y20027D01*
X167387Y20033D01*
X167287Y20128D01*
X167186Y20209D01*
X167079Y20285D01*
X166973Y20347D01*
X166866Y20398D01*
X166765Y20442D01*
X166665Y20479D01*
X166565Y20504D01*
X166477Y20529D01*
X166395Y20542D01*
X166320Y20555D01*
X166257Y20567D01*
X166200D01*
X166163Y20573D01*
X166131D01*
X165987Y20567D01*
X165849Y20542D01*
X165723Y20517D01*
X165604Y20479D01*
X165509Y20448D01*
X165472Y20429D01*
X165434Y20416D01*
X165409Y20404D01*
X165390Y20391D01*
X165378Y20385D01*
X165371D01*
X165547Y21371D01*
X167651D01*
Y22413D01*
D02*
G37*
G36*
X161484Y22508D02*
X161402D01*
X161258Y22501D01*
X161120Y22489D01*
X160988Y22470D01*
X160869Y22445D01*
X160749Y22413D01*
X160643Y22382D01*
X160548Y22344D01*
X160454Y22307D01*
X160372Y22269D01*
X160303Y22231D01*
X160241Y22200D01*
X160190Y22169D01*
X160153Y22143D01*
X160121Y22125D01*
X160102Y22112D01*
X160096Y22106D01*
X160002Y22024D01*
X159920Y21936D01*
X159845Y21836D01*
X159782Y21729D01*
X159726Y21622D01*
X159675Y21509D01*
X159631Y21402D01*
X159594Y21296D01*
X159562Y21195D01*
X159537Y21101D01*
X159518Y21013D01*
X159506Y20938D01*
X159493Y20875D01*
X159487Y20825D01*
X159481Y20799D01*
Y20787D01*
X160586Y20680D01*
X160592Y20768D01*
X160605Y20850D01*
X160636Y20994D01*
X160674Y21114D01*
X160712Y21208D01*
X160756Y21283D01*
X160787Y21333D01*
X160812Y21359D01*
X160818Y21371D01*
X160900Y21440D01*
X160994Y21497D01*
X161088Y21534D01*
X161176Y21559D01*
X161258Y21572D01*
X161321Y21585D01*
X161377D01*
X161503Y21578D01*
X161610Y21553D01*
X161704Y21522D01*
X161785Y21484D01*
X161848Y21446D01*
X161892Y21415D01*
X161924Y21390D01*
X161930Y21384D01*
X161999Y21302D01*
X162049Y21208D01*
X162081Y21114D01*
X162106Y21026D01*
X162118Y20938D01*
X162131Y20875D01*
Y20850D01*
Y20831D01*
Y20818D01*
Y20812D01*
X162118Y20686D01*
X162093Y20561D01*
X162056Y20448D01*
X162018Y20347D01*
X161974Y20259D01*
X161936Y20190D01*
X161917Y20165D01*
X161911Y20146D01*
X161899Y20140D01*
Y20134D01*
X161861Y20084D01*
X161811Y20021D01*
X161748Y19952D01*
X161685Y19883D01*
X161534Y19726D01*
X161371Y19569D01*
X161296Y19493D01*
X161220Y19418D01*
X161158Y19355D01*
X161095Y19299D01*
X161045Y19255D01*
X161007Y19217D01*
X160982Y19192D01*
X160975Y19186D01*
X160806Y19029D01*
X160655Y18878D01*
X160511Y18733D01*
X160385Y18602D01*
X160272Y18482D01*
X160171Y18363D01*
X160077Y18262D01*
X160002Y18168D01*
X159933Y18080D01*
X159876Y18011D01*
X159826Y17942D01*
X159788Y17892D01*
X159763Y17854D01*
X159738Y17823D01*
X159732Y17804D01*
X159726Y17798D01*
X159619Y17603D01*
X159537Y17408D01*
X159468Y17220D01*
X159418Y17050D01*
X159399Y16975D01*
X159387Y16906D01*
X159374Y16843D01*
X159361Y16793D01*
X159355Y16749D01*
Y16717D01*
X159349Y16699D01*
Y16692D01*
X163242D01*
Y17842D01*
Y17722D01*
X161032D01*
X161107Y17829D01*
X161145Y17879D01*
X161176Y17930D01*
X161208Y17967D01*
X161233Y17999D01*
X161252Y18018D01*
X161258Y18024D01*
X161289Y18055D01*
X161327Y18099D01*
X161371Y18143D01*
X161421Y18193D01*
X161528Y18300D01*
X161641Y18407D01*
X161748Y18507D01*
X161798Y18551D01*
X161842Y18589D01*
X161873Y18620D01*
X161899Y18645D01*
X161917Y18658D01*
X161924Y18664D01*
X162018Y18752D01*
X162106Y18834D01*
X162187Y18915D01*
X162263Y18985D01*
X162326Y19054D01*
X162388Y19110D01*
X162439Y19167D01*
X162489Y19217D01*
X162558Y19299D01*
X162615Y19355D01*
X162640Y19393D01*
X162652Y19405D01*
X162759Y19550D01*
X162853Y19688D01*
X162928Y19814D01*
X162991Y19920D01*
X163035Y20015D01*
X163054Y20052D01*
X163073Y20084D01*
X163085Y20109D01*
X163092Y20134D01*
X163098Y20140D01*
Y20146D01*
X163148Y20278D01*
X163180Y20410D01*
X163205Y20536D01*
X163224Y20655D01*
X163236Y20749D01*
Y20793D01*
X163242Y20825D01*
Y20894D01*
X163236Y21019D01*
X163224Y21139D01*
X163198Y21252D01*
X163167Y21365D01*
X163129Y21465D01*
X163085Y21559D01*
X163041Y21647D01*
X162997Y21723D01*
X162947Y21798D01*
X162903Y21861D01*
X162859Y21917D01*
X162822Y21961D01*
X162790Y21993D01*
X162765Y22024D01*
X162753Y22037D01*
X162746Y22043D01*
X162652Y22125D01*
X162545Y22194D01*
X162439Y22256D01*
X162332Y22313D01*
X162219Y22357D01*
X162106Y22395D01*
X161999Y22426D01*
X161892Y22451D01*
X161792Y22470D01*
X161698Y22483D01*
X161616Y22495D01*
X161547Y22501D01*
X161484Y22508D01*
D02*
G37*
G36*
X159154Y22583D02*
X158319D01*
X156887Y16592D01*
X159154D01*
D01*
X157703D01*
X159154Y22583D01*
D02*
G37*
G36*
X150149Y22508D02*
X148233D01*
X150111D01*
X149960Y22501D01*
X149816Y22483D01*
X149678Y22451D01*
X149552Y22413D01*
X149433Y22370D01*
X149326Y22319D01*
X149225Y22263D01*
X149138Y22212D01*
X149062Y22156D01*
X148993Y22099D01*
X148937Y22049D01*
X148886Y22005D01*
X148849Y21968D01*
X148824Y21936D01*
X148805Y21917D01*
X148799Y21911D01*
X148698Y21767D01*
X148610Y21603D01*
X148535Y21428D01*
X148472Y21239D01*
X148415Y21045D01*
X148371Y20850D01*
X148334Y20655D01*
X148302Y20460D01*
X148284Y20278D01*
X148265Y20109D01*
X148252Y19958D01*
X148240Y19820D01*
Y19763D01*
Y19713D01*
X148233Y19669D01*
Y16586D01*
Y19556D01*
X148240Y19255D01*
X148258Y18978D01*
X148284Y18721D01*
X148315Y18488D01*
X148353Y18275D01*
X148397Y18087D01*
X148441Y17917D01*
X148491Y17766D01*
X148541Y17641D01*
X148585Y17528D01*
X148629Y17434D01*
X148667Y17358D01*
X148698Y17302D01*
X148729Y17264D01*
X148742Y17239D01*
X148748Y17233D01*
X148849Y17120D01*
X148955Y17019D01*
X149068Y16931D01*
X149181Y16856D01*
X149295Y16799D01*
X149408Y16743D01*
X149514Y16699D01*
X149621Y16667D01*
X149722Y16642D01*
X149816Y16617D01*
X149898Y16604D01*
X149973Y16598D01*
X150029Y16592D01*
X150073Y16586D01*
X150111D01*
X150262Y16592D01*
X150406Y16611D01*
X150544Y16642D01*
X150670Y16680D01*
X150789Y16724D01*
X150896Y16774D01*
X150996Y16824D01*
X151084Y16881D01*
X151160Y16937D01*
X151229Y16988D01*
X151292Y17038D01*
X151336Y17082D01*
X151373Y17120D01*
X151405Y17151D01*
X151417Y17170D01*
X151424Y17176D01*
X151524Y17320D01*
X151612Y17484D01*
X151687Y17666D01*
X151756Y17848D01*
X151807Y18043D01*
X151857Y18244D01*
X151894Y18438D01*
X151926Y18633D01*
X151945Y18815D01*
X151964Y18985D01*
X151976Y19142D01*
X151989Y19274D01*
Y19336D01*
Y19387D01*
X151995Y19431D01*
Y19544D01*
X151989Y19839D01*
X151970Y20115D01*
X151945Y20372D01*
X151907Y20605D01*
X151863Y20818D01*
X151819Y21013D01*
X151763Y21189D01*
X151712Y21340D01*
X151662Y21478D01*
X151612Y21591D01*
X151562Y21691D01*
X151518Y21767D01*
X151480Y21829D01*
X151455Y21873D01*
X151436Y21899D01*
X151430Y21905D01*
X151336Y22012D01*
X151235Y22106D01*
X151128Y22187D01*
X151022Y22256D01*
X150915Y22313D01*
X150802Y22363D01*
X150695Y22401D01*
X150594Y22432D01*
X150494Y22457D01*
X150400Y22476D01*
X150318Y22489D01*
X150249Y22501D01*
X150193D01*
X150149Y22508D01*
D02*
G37*
%LPD*%
G36*
X168075Y43023D02*
X168144Y43017D01*
X168276Y42979D01*
X168389Y42929D01*
X168483Y42873D01*
X168565Y42810D01*
X168621Y42759D01*
X168653Y42722D01*
X168665Y42715D01*
Y42709D01*
X168709Y42646D01*
X168753Y42571D01*
X168816Y42414D01*
X168866Y42238D01*
X168898Y42069D01*
X168910Y41987D01*
X168916Y41912D01*
X168923Y41843D01*
Y41786D01*
X168929Y41736D01*
Y41698D01*
Y41673D01*
Y41667D01*
Y41547D01*
X168916Y41434D01*
X168904Y41334D01*
X168885Y41240D01*
X168866Y41152D01*
X168841Y41070D01*
X168822Y40995D01*
X168797Y40932D01*
X168772Y40876D01*
X168747Y40825D01*
X168722Y40781D01*
X168703Y40750D01*
X168684Y40725D01*
X168672Y40700D01*
X168665Y40693D01*
X168659Y40687D01*
X168609Y40630D01*
X168552Y40580D01*
X168496Y40536D01*
X168445Y40505D01*
X168332Y40442D01*
X168232Y40404D01*
X168144Y40386D01*
X168069Y40373D01*
X168043Y40367D01*
X168006D01*
X167918Y40373D01*
X167836Y40386D01*
X167761Y40404D01*
X167685Y40436D01*
X167560Y40505D01*
X167453Y40587D01*
X167372Y40662D01*
X167309Y40731D01*
X167290Y40762D01*
X167271Y40781D01*
X167265Y40794D01*
X167259Y40800D01*
X167227Y40863D01*
X167196Y40926D01*
X167152Y41083D01*
X167120Y41240D01*
X167102Y41403D01*
X167089Y41472D01*
Y41547D01*
X167083Y41610D01*
X167076Y41667D01*
Y41711D01*
Y41742D01*
Y41767D01*
Y41774D01*
X167083Y41886D01*
X167089Y41993D01*
X167102Y42094D01*
X167120Y42182D01*
X167139Y42263D01*
X167158Y42345D01*
X167183Y42414D01*
X167208Y42477D01*
X167233Y42527D01*
X167259Y42577D01*
X167277Y42615D01*
X167296Y42653D01*
X167315Y42678D01*
X167328Y42697D01*
X167340Y42703D01*
Y42709D01*
X167390Y42766D01*
X167447Y42816D01*
X167497Y42860D01*
X167554Y42898D01*
X167667Y42954D01*
X167767Y42992D01*
X167861Y43011D01*
X167937Y43023D01*
X167962Y43029D01*
X167999D01*
X168075Y43023D01*
D02*
G37*
G36*
X139834Y42967D02*
X139909Y42960D01*
X140047Y42923D01*
X140173Y42866D01*
X140280Y42810D01*
X140368Y42747D01*
X140430Y42690D01*
X140449Y42671D01*
X140468Y42653D01*
X140474Y42646D01*
X140481Y42640D01*
X140531Y42577D01*
X140581Y42502D01*
X140650Y42351D01*
X140707Y42194D01*
X140738Y42037D01*
X140751Y41968D01*
X140763Y41899D01*
X140770Y41843D01*
Y41786D01*
X140776Y41748D01*
Y41711D01*
Y41692D01*
Y41686D01*
Y41572D01*
X140763Y41460D01*
X140751Y41359D01*
X140732Y41265D01*
X140707Y41183D01*
X140682Y41102D01*
X140656Y41026D01*
X140631Y40963D01*
X140600Y40907D01*
X140575Y40857D01*
X140550Y40813D01*
X140524Y40781D01*
X140506Y40756D01*
X140493Y40737D01*
X140487Y40725D01*
X140481Y40718D01*
X140424Y40662D01*
X140368Y40612D01*
X140305Y40568D01*
X140242Y40530D01*
X140123Y40473D01*
X140003Y40436D01*
X139903Y40411D01*
X139859Y40404D01*
X139828Y40398D01*
X139796Y40392D01*
X139752D01*
X139671Y40398D01*
X139595Y40404D01*
X139457Y40442D01*
X139331Y40492D01*
X139225Y40555D01*
X139143Y40618D01*
X139074Y40668D01*
X139055Y40687D01*
X139036Y40706D01*
X139030Y40712D01*
X139024Y40718D01*
X138973Y40781D01*
X138929Y40857D01*
X138854Y41007D01*
X138804Y41171D01*
X138772Y41321D01*
X138760Y41397D01*
X138747Y41466D01*
X138741Y41522D01*
Y41579D01*
X138735Y41616D01*
Y41654D01*
Y41673D01*
Y41679D01*
X138741Y41792D01*
X138747Y41899D01*
X138760Y42000D01*
X138779Y42094D01*
X138804Y42182D01*
X138829Y42257D01*
X138854Y42332D01*
X138879Y42395D01*
X138904Y42452D01*
X138929Y42502D01*
X138954Y42546D01*
X138980Y42577D01*
X138998Y42603D01*
X139011Y42628D01*
X139024Y42634D01*
Y42640D01*
X139080Y42697D01*
X139143Y42753D01*
X139199Y42797D01*
X139262Y42835D01*
X139382Y42891D01*
X139501Y42929D01*
X139601Y42954D01*
X139645Y42960D01*
X139683Y42967D01*
X139708Y42973D01*
X139752D01*
X139834Y42967D01*
D02*
G37*
G36*
X137604Y41604D02*
X137611Y41478D01*
X137623Y41353D01*
X137642Y41240D01*
X137661Y41133D01*
X137686Y41032D01*
X137711Y40938D01*
X137736Y40850D01*
X137761Y40775D01*
X137780Y40706D01*
X137805Y40649D01*
X137824Y40599D01*
X137843Y40562D01*
X137856Y40536D01*
X137868Y40518D01*
Y40511D01*
X137981Y40335D01*
X138107Y40178D01*
X138239Y40047D01*
X138364Y39940D01*
X138484Y39858D01*
X138528Y39820D01*
X138572Y39795D01*
X138609Y39770D01*
X138634Y39758D01*
X138653Y39751D01*
X138659Y39745D01*
X138854Y39657D01*
X139049Y39594D01*
X139237Y39550D01*
X139407Y39519D01*
X139482Y39506D01*
X139551Y39500D01*
X139608Y39494D01*
X139658D01*
X139702Y39488D01*
X137598D01*
Y41736D01*
X137604Y41604D01*
D02*
G37*
G36*
X154315Y42992D02*
X154385Y42985D01*
X154510Y42948D01*
X154623Y42898D01*
X154717Y42835D01*
X154793Y42772D01*
X154849Y42722D01*
X154887Y42684D01*
X154900Y42678D01*
Y42671D01*
X154950Y42609D01*
X154987Y42540D01*
X155057Y42383D01*
X155107Y42219D01*
X155138Y42062D01*
X155144Y41987D01*
X155157Y41918D01*
X155163Y41855D01*
Y41799D01*
X155169Y41755D01*
Y41723D01*
Y41698D01*
Y41692D01*
Y41566D01*
X155157Y41447D01*
X155144Y41334D01*
X155125Y41233D01*
X155107Y41139D01*
X155088Y41058D01*
X155063Y40982D01*
X155038Y40919D01*
X155013Y40857D01*
X154987Y40806D01*
X154969Y40769D01*
X154950Y40731D01*
X154931Y40706D01*
X154918Y40687D01*
X154912Y40681D01*
X154906Y40674D01*
X154856Y40618D01*
X154805Y40574D01*
X154749Y40530D01*
X154699Y40499D01*
X154592Y40442D01*
X154491Y40404D01*
X154397Y40386D01*
X154328Y40373D01*
X154303Y40367D01*
X154265D01*
X154190Y40373D01*
X154121Y40379D01*
X153983Y40417D01*
X153870Y40473D01*
X153769Y40536D01*
X153687Y40593D01*
X153625Y40649D01*
X153587Y40687D01*
X153581Y40693D01*
X153574Y40700D01*
X153524Y40769D01*
X153487Y40844D01*
X153417Y41007D01*
X153367Y41183D01*
X153336Y41353D01*
X153323Y41434D01*
X153311Y41504D01*
X153304Y41572D01*
Y41635D01*
X153298Y41679D01*
Y41717D01*
Y41742D01*
Y41748D01*
X153304Y41861D01*
X153311Y41968D01*
X153323Y42062D01*
X153342Y42157D01*
X153361Y42238D01*
X153380Y42314D01*
X153405Y42383D01*
X153430Y42445D01*
X153455Y42496D01*
X153480Y42546D01*
X153499Y42584D01*
X153518Y42621D01*
X153537Y42646D01*
X153549Y42665D01*
X153562Y42671D01*
Y42678D01*
X153612Y42734D01*
X153669Y42785D01*
X153725Y42829D01*
X153782Y42866D01*
X153895Y42923D01*
X154001Y42960D01*
X154096Y42979D01*
X154140Y42985D01*
X154171Y42992D01*
X154202Y42998D01*
X154240D01*
X154315Y42992D01*
D02*
G37*
G36*
X156306Y37987D02*
X153317D01*
Y40097D01*
X153430Y39984D01*
X153537Y39883D01*
X153637Y39802D01*
X153725Y39739D01*
X153800Y39689D01*
X153857Y39651D01*
X153895Y39632D01*
X153907Y39626D01*
X154014Y39582D01*
X154127Y39544D01*
X154234Y39519D01*
X154328Y39506D01*
X154416Y39494D01*
X154485Y39488D01*
X154542D01*
X154680Y39494D01*
X154805Y39513D01*
X154931Y39544D01*
X155044Y39575D01*
X155157Y39619D01*
X155257Y39670D01*
X155358Y39720D01*
X155440Y39777D01*
X155521Y39833D01*
X155590Y39883D01*
X155647Y39933D01*
X155697Y39977D01*
X155741Y40015D01*
X155766Y40040D01*
X155785Y40059D01*
X155791Y40065D01*
X155879Y40178D01*
X155961Y40304D01*
X156030Y40436D01*
X156086Y40568D01*
X156137Y40706D01*
X156181Y40838D01*
X156212Y40976D01*
X156243Y41102D01*
X156262Y41227D01*
X156281Y41340D01*
X156294Y41441D01*
X156300Y41529D01*
Y41604D01*
X156306Y41660D01*
Y37987D01*
D02*
G37*
G36*
X116529Y42992D02*
X116598Y42985D01*
X116723Y42948D01*
X116836Y42898D01*
X116931Y42835D01*
X117006Y42772D01*
X117062Y42722D01*
X117100Y42684D01*
X117113Y42678D01*
Y42671D01*
X117163Y42609D01*
X117201Y42540D01*
X117270Y42383D01*
X117320Y42219D01*
X117351Y42062D01*
X117358Y41987D01*
X117370Y41918D01*
X117376Y41855D01*
Y41799D01*
X117383Y41755D01*
Y41723D01*
Y41698D01*
Y41692D01*
Y41566D01*
X117370Y41447D01*
X117358Y41334D01*
X117339Y41233D01*
X117320Y41139D01*
X117301Y41058D01*
X117276Y40982D01*
X117251Y40919D01*
X117226Y40857D01*
X117201Y40806D01*
X117182Y40769D01*
X117163Y40731D01*
X117144Y40706D01*
X117131Y40687D01*
X117125Y40681D01*
X117119Y40674D01*
X117069Y40618D01*
X117018Y40574D01*
X116962Y40530D01*
X116912Y40499D01*
X116805Y40442D01*
X116704Y40404D01*
X116610Y40386D01*
X116541Y40373D01*
X116516Y40367D01*
X116478D01*
X116403Y40373D01*
X116334Y40379D01*
X116196Y40417D01*
X116083Y40473D01*
X115982Y40536D01*
X115901Y40593D01*
X115838Y40649D01*
X115800Y40687D01*
X115794Y40693D01*
X115788Y40700D01*
X115737Y40769D01*
X115700Y40844D01*
X115631Y41007D01*
X115580Y41183D01*
X115549Y41353D01*
X115536Y41434D01*
X115524Y41503D01*
X115518Y41572D01*
Y41635D01*
X115511Y41679D01*
Y41717D01*
Y41742D01*
Y41748D01*
X115518Y41861D01*
X115524Y41968D01*
X115536Y42062D01*
X115555Y42157D01*
X115574Y42238D01*
X115593Y42314D01*
X115618Y42383D01*
X115643Y42445D01*
X115668Y42496D01*
X115693Y42546D01*
X115712Y42584D01*
X115731Y42621D01*
X115750Y42646D01*
X115762Y42665D01*
X115775Y42671D01*
Y42678D01*
X115825Y42734D01*
X115882Y42785D01*
X115938Y42829D01*
X115995Y42866D01*
X116108Y42923D01*
X116215Y42960D01*
X116309Y42979D01*
X116353Y42985D01*
X116384Y42992D01*
X116416Y42998D01*
X116453D01*
X116529Y42992D01*
D02*
G37*
G36*
X118519Y37987D02*
X115530Y37987D01*
Y40097D01*
X115643Y39984D01*
X115750Y39883D01*
X115850Y39802D01*
X115938Y39739D01*
X116014Y39689D01*
X116070Y39651D01*
X116108Y39632D01*
X116121Y39626D01*
X116227Y39582D01*
X116340Y39544D01*
X116447Y39519D01*
X116541Y39506D01*
X116629Y39494D01*
X116698Y39488D01*
X116755D01*
X116893Y39494D01*
X117018Y39513D01*
X117144Y39544D01*
X117257Y39575D01*
X117370Y39619D01*
X117471Y39670D01*
X117571Y39720D01*
X117653Y39777D01*
X117734Y39833D01*
X117804Y39883D01*
X117860Y39933D01*
X117910Y39977D01*
X117954Y40015D01*
X117979Y40040D01*
X117998Y40059D01*
X118005Y40065D01*
X118092Y40178D01*
X118174Y40304D01*
X118243Y40436D01*
X118300Y40568D01*
X118350Y40706D01*
X118394Y40838D01*
X118425Y40976D01*
X118457Y41102D01*
X118475Y41227D01*
X118494Y41340D01*
X118507Y41441D01*
X118513Y41529D01*
Y41604D01*
X118519Y41660D01*
Y37987D01*
D02*
G37*
G36*
X163465Y43017D02*
X163578Y42992D01*
X163679Y42948D01*
X163760Y42904D01*
X163830Y42854D01*
X163880Y42810D01*
X163911Y42785D01*
X163924Y42772D01*
X164005Y42671D01*
X164062Y42552D01*
X164106Y42433D01*
X164137Y42314D01*
X164156Y42207D01*
X164163Y42163D01*
X164169Y42125D01*
X164175Y42088D01*
Y42062D01*
Y42050D01*
Y42044D01*
X162517D01*
X162523Y42207D01*
X162548Y42345D01*
X162586Y42471D01*
X162630Y42571D01*
X162674Y42653D01*
X162712Y42709D01*
X162737Y42747D01*
X162750Y42759D01*
X162793Y42810D01*
X162844Y42847D01*
X162938Y42917D01*
X163038Y42967D01*
X163133Y42998D01*
X163221Y43017D01*
X163283Y43023D01*
X163308Y43029D01*
X163346D01*
X163465Y43017D01*
D02*
G37*
G36*
X158963D02*
X159076Y42992D01*
X159176Y42948D01*
X159258Y42904D01*
X159327Y42854D01*
X159377Y42810D01*
X159408Y42785D01*
X159421Y42772D01*
X159503Y42671D01*
X159559Y42552D01*
X159603Y42433D01*
X159635Y42314D01*
X159653Y42207D01*
X159660Y42163D01*
X159666Y42125D01*
X159672Y42088D01*
Y42062D01*
Y42050D01*
Y42044D01*
X158014D01*
X158021Y42207D01*
X158046Y42345D01*
X158083Y42471D01*
X158127Y42571D01*
X158171Y42653D01*
X158209Y42709D01*
X158234Y42747D01*
X158247Y42759D01*
X158291Y42810D01*
X158341Y42847D01*
X158435Y42917D01*
X158536Y42967D01*
X158630Y42998D01*
X158718Y43017D01*
X158781Y43023D01*
X158806Y43029D01*
X158843D01*
X158963Y43017D01*
D02*
G37*
G36*
X121176D02*
X121289Y42992D01*
X121389Y42948D01*
X121471Y42904D01*
X121540Y42854D01*
X121590Y42810D01*
X121622Y42785D01*
X121634Y42772D01*
X121716Y42671D01*
X121773Y42552D01*
X121816Y42433D01*
X121848Y42314D01*
X121867Y42207D01*
X121873Y42163D01*
X121879Y42125D01*
X121886Y42088D01*
Y42062D01*
Y42050D01*
Y42044D01*
X120228D01*
X120234Y42207D01*
X120259Y42345D01*
X120297Y42471D01*
X120341Y42571D01*
X120385Y42653D01*
X120422Y42709D01*
X120447Y42747D01*
X120460Y42759D01*
X120504Y42810D01*
X120554Y42847D01*
X120648Y42917D01*
X120749Y42967D01*
X120843Y42998D01*
X120931Y43017D01*
X120994Y43023D01*
X121019Y43029D01*
X121056D01*
X121176Y43017D01*
D02*
G37*
G36*
X209385Y39582D02*
X208236D01*
X209379Y44141D01*
X209385Y39582D01*
D02*
G37*
G36*
X207105D02*
X205962D01*
Y44141D01*
X207105Y39582D01*
D02*
G37*
G36*
X134860Y39582D02*
X133422D01*
X134138Y42282D01*
X134860Y39582D01*
D02*
G37*
G36*
X183813Y39475D02*
X181822D01*
X182004Y39481D01*
X182180Y39506D01*
X182343Y39544D01*
X182494Y39594D01*
X182632Y39651D01*
X182757Y39720D01*
X182877Y39789D01*
X182984Y39858D01*
X183078Y39927D01*
X183159Y39996D01*
X183229Y40065D01*
X183285Y40122D01*
X183335Y40172D01*
X183367Y40210D01*
X183386Y40235D01*
X183392Y40241D01*
X183467Y40348D01*
X183530Y40461D01*
X183587Y40568D01*
X183637Y40681D01*
X183674Y40788D01*
X183712Y40894D01*
X183737Y40995D01*
X183762Y41095D01*
X183775Y41183D01*
X183788Y41265D01*
X183800Y41340D01*
X183806Y41403D01*
X183813Y41453D01*
Y39475D01*
D02*
G37*
G36*
X103718Y39582D02*
X104747D01*
Y39488D01*
X102323D01*
X102474Y39494D01*
X102619Y39519D01*
X102757Y39550D01*
X102870Y39582D01*
X102970Y39619D01*
X103008Y39632D01*
X103045Y39645D01*
X103071Y39657D01*
X103089Y39670D01*
X103102Y39676D01*
X103108D01*
X103240Y39758D01*
X103366Y39839D01*
X103466Y39933D01*
X103554Y40015D01*
X103623Y40090D01*
X103674Y40153D01*
X103692Y40178D01*
X103705Y40197D01*
X103718Y40203D01*
Y39582D01*
D02*
G37*
G36*
X100942Y40913D02*
X100948Y40813D01*
X100961Y40725D01*
X100967Y40643D01*
X100979Y40568D01*
X100992Y40499D01*
X101011Y40436D01*
X101023Y40379D01*
X101036Y40329D01*
X101049Y40285D01*
X101055Y40254D01*
X101067Y40229D01*
X101074Y40210D01*
X101080Y40197D01*
Y40191D01*
X101143Y40072D01*
X101218Y39971D01*
X101300Y39877D01*
X101381Y39808D01*
X101450Y39745D01*
X101507Y39707D01*
X101532Y39689D01*
X101551Y39676D01*
X101557Y39670D01*
X101563D01*
X101695Y39607D01*
X101827Y39563D01*
X101953Y39531D01*
X102072Y39513D01*
X102173Y39500D01*
X102216Y39494D01*
X102254Y39488D01*
X100935D01*
Y41120D01*
X100942Y40913D01*
D02*
G37*
G36*
X154259Y34441D02*
X154372Y34416D01*
X154472Y34372D01*
X154554Y34328D01*
X154623Y34278D01*
X154673Y34234D01*
X154705Y34209D01*
X154717Y34196D01*
X154799Y34096D01*
X154856Y33976D01*
X154900Y33857D01*
X154931Y33738D01*
X154950Y33631D01*
X154956Y33587D01*
X154962Y33549D01*
X154969Y33511D01*
Y33486D01*
Y33474D01*
Y33468D01*
X153311D01*
X153317Y33631D01*
X153342Y33769D01*
X153380Y33895D01*
X153424Y33995D01*
X153468Y34077D01*
X153505Y34133D01*
X153530Y34171D01*
X153543Y34183D01*
X153587Y34234D01*
X153637Y34271D01*
X153731Y34341D01*
X153832Y34391D01*
X153926Y34422D01*
X154014Y34441D01*
X154077Y34447D01*
X154102Y34453D01*
X154140D01*
X154259Y34441D01*
D02*
G37*
G36*
X149153Y35816D02*
X149304D01*
X149367Y35810D01*
X149461D01*
X149492Y35804D01*
X149543D01*
X149568Y35797D01*
X149574D01*
X149674Y35772D01*
X149769Y35741D01*
X149844Y35710D01*
X149907Y35666D01*
X149957Y35634D01*
X149988Y35603D01*
X150014Y35578D01*
X150020Y35571D01*
X150070Y35496D01*
X150108Y35421D01*
X150139Y35345D01*
X150158Y35270D01*
X150171Y35201D01*
X150177Y35151D01*
Y35113D01*
Y35107D01*
Y35100D01*
X150171Y35006D01*
X150158Y34918D01*
X150139Y34843D01*
X150120Y34780D01*
X150095Y34730D01*
X150076Y34692D01*
X150064Y34667D01*
X150058Y34661D01*
X150007Y34598D01*
X149957Y34548D01*
X149901Y34504D01*
X149844Y34472D01*
X149800Y34447D01*
X149762Y34428D01*
X149737Y34422D01*
X149725Y34416D01*
X149681Y34403D01*
X149618Y34391D01*
X149549Y34384D01*
X149474Y34378D01*
X149304Y34366D01*
X149122Y34353D01*
X148952D01*
X148877Y34347D01*
X147809D01*
Y35823D01*
X149065D01*
X149153Y35816D01*
D02*
G37*
G36*
X163195Y35892D02*
X163258Y35879D01*
X163321Y35854D01*
X163377Y35835D01*
X163415Y35810D01*
X163453Y35785D01*
X163472Y35772D01*
X163478Y35766D01*
X163534Y35710D01*
X163585Y35634D01*
X163629Y35552D01*
X163666Y35465D01*
X163698Y35383D01*
X163717Y35320D01*
X163723Y35295D01*
X163729Y35276D01*
X163735Y35264D01*
Y35257D01*
X163754Y35176D01*
X163773Y35088D01*
X163786Y34987D01*
X163798Y34874D01*
X163817Y34648D01*
X163830Y34416D01*
X163836Y34303D01*
Y34202D01*
X163842Y34102D01*
Y34020D01*
Y33951D01*
Y33901D01*
Y33869D01*
Y33857D01*
Y33675D01*
X163836Y33499D01*
X163830Y33342D01*
X163823Y33198D01*
X163817Y33066D01*
X163804Y32946D01*
X163792Y32840D01*
X163786Y32745D01*
X163773Y32664D01*
X163760Y32595D01*
X163748Y32538D01*
X163742Y32488D01*
X163735Y32450D01*
X163729Y32425D01*
X163723Y32412D01*
Y32406D01*
X163685Y32293D01*
X163647Y32193D01*
X163610Y32117D01*
X163566Y32055D01*
X163534Y32004D01*
X163503Y31973D01*
X163484Y31954D01*
X163478Y31948D01*
X163415Y31904D01*
X163359Y31872D01*
X163296Y31854D01*
X163239Y31841D01*
X163189Y31828D01*
X163151Y31822D01*
X163120D01*
X163045Y31828D01*
X162982Y31841D01*
X162919Y31860D01*
X162869Y31885D01*
X162825Y31910D01*
X162787Y31929D01*
X162768Y31942D01*
X162762Y31948D01*
X162706Y32004D01*
X162655Y32080D01*
X162611Y32161D01*
X162574Y32249D01*
X162542Y32325D01*
X162523Y32387D01*
X162517Y32412D01*
X162511Y32431D01*
X162504Y32444D01*
Y32450D01*
X162486Y32532D01*
X162473Y32620D01*
X162461Y32720D01*
X162448Y32833D01*
X162429Y33066D01*
X162417Y33298D01*
X162410Y33411D01*
Y33511D01*
Y33606D01*
X162404Y33694D01*
Y33763D01*
Y33813D01*
Y33844D01*
Y33857D01*
Y34039D01*
X162410Y34209D01*
X162417Y34372D01*
X162423Y34510D01*
X162429Y34642D01*
X162442Y34761D01*
X162448Y34868D01*
X162461Y34962D01*
X162473Y35044D01*
X162479Y35119D01*
X162492Y35176D01*
X162498Y35226D01*
X162504Y35264D01*
X162511Y35289D01*
X162517Y35301D01*
Y35308D01*
X162555Y35421D01*
X162592Y35521D01*
X162636Y35596D01*
X162674Y35659D01*
X162706Y35710D01*
X162737Y35741D01*
X162756Y35760D01*
X162762Y35766D01*
X162825Y35810D01*
X162881Y35841D01*
X162944Y35866D01*
X163001Y35879D01*
X163051Y35892D01*
X163089Y35898D01*
X163120D01*
X163195Y35892D01*
D02*
G37*
G36*
X170417Y23849D02*
X168847D01*
Y25193D01*
X169362Y25733D01*
X170417Y23849D01*
D02*
G37*
G36*
X162442Y25639D02*
Y25501D01*
X162435Y25388D01*
X162429Y25293D01*
X162423Y25218D01*
X162410Y25168D01*
X162404Y25130D01*
X162398Y25105D01*
Y25099D01*
X162366Y25023D01*
X162329Y24954D01*
X162285Y24892D01*
X162234Y24835D01*
X162197Y24791D01*
X162159Y24760D01*
X162134Y24741D01*
X162128Y24735D01*
X162027Y24672D01*
X161927Y24622D01*
X161826Y24590D01*
X161738Y24565D01*
X161663Y24553D01*
X161607Y24546D01*
X161569Y24540D01*
X161556D01*
X161462Y24546D01*
X161374Y24565D01*
X161299Y24596D01*
X161230Y24628D01*
X161179Y24653D01*
X161142Y24684D01*
X161117Y24703D01*
X161110Y24710D01*
X161054Y24779D01*
X161010Y24841D01*
X160985Y24910D01*
X160960Y24973D01*
X160947Y25030D01*
X160941Y25074D01*
Y25099D01*
Y25111D01*
X160947Y25193D01*
X160972Y25268D01*
X161010Y25337D01*
X161048Y25394D01*
X161085Y25438D01*
X161123Y25476D01*
X161148Y25495D01*
X161154Y25501D01*
X161186Y25520D01*
X161223Y25538D01*
X161311Y25570D01*
X161412Y25601D01*
X161512Y25633D01*
X161607Y25651D01*
X161682Y25670D01*
X161713Y25683D01*
X161738D01*
X161751Y25689D01*
X161757D01*
X161920Y25727D01*
X162059Y25758D01*
X162178Y25790D01*
X162272Y25815D01*
X162348Y25834D01*
X162398Y25852D01*
X162429Y25859D01*
X162442Y25865D01*
Y25639D01*
D02*
G37*
G36*
X156777Y28660D02*
X156859D01*
X156934Y28653D01*
X157003D01*
X157066Y28647D01*
X157123D01*
X157167Y28641D01*
X157204Y28635D01*
X157236D01*
X157261Y28628D01*
X157292Y28622D01*
X157305D01*
X157405Y28597D01*
X157499Y28559D01*
X157581Y28521D01*
X157644Y28477D01*
X157700Y28433D01*
X157744Y28396D01*
X157769Y28371D01*
X157776Y28364D01*
X157838Y28283D01*
X157882Y28195D01*
X157920Y28107D01*
X157939Y28025D01*
X157951Y27956D01*
X157964Y27893D01*
Y27856D01*
Y27850D01*
Y27843D01*
X157958Y27749D01*
X157945Y27661D01*
X157920Y27586D01*
X157895Y27523D01*
X157870Y27466D01*
X157845Y27429D01*
X157832Y27397D01*
X157826Y27391D01*
X157776Y27322D01*
X157713Y27265D01*
X157650Y27215D01*
X157594Y27171D01*
X157543Y27140D01*
X157499Y27121D01*
X157474Y27108D01*
X157462Y27102D01*
X157412Y27090D01*
X157355Y27071D01*
X157292Y27064D01*
X157217Y27052D01*
X157066Y27033D01*
X156915Y27027D01*
X156771Y27020D01*
X156708Y27014D01*
X155898D01*
Y28666D01*
X156683D01*
X156777Y28660D01*
D02*
G37*
G36*
X159170Y23849D02*
X155898D01*
Y26035D01*
X156802D01*
X156940Y26041D01*
X157066D01*
X157185Y26047D01*
X157292Y26053D01*
X157393Y26060D01*
X157487Y26066D01*
X157569Y26079D01*
X157638Y26085D01*
X157700Y26091D01*
X157757Y26097D01*
X157801Y26104D01*
X157832Y26110D01*
X157857D01*
X157870Y26116D01*
X157876D01*
X157989Y26148D01*
X158102Y26185D01*
X158203Y26229D01*
X158291Y26273D01*
X158372Y26317D01*
X158429Y26355D01*
X158466Y26380D01*
X158473Y26386D01*
X158479D01*
X158586Y26474D01*
X158686Y26568D01*
X158768Y26663D01*
X158843Y26750D01*
X158900Y26832D01*
X158938Y26901D01*
X158956Y26926D01*
X158969Y26945D01*
X158975Y26951D01*
Y26958D01*
X159038Y27102D01*
X159088Y27253D01*
X159120Y27404D01*
X159145Y27542D01*
X159151Y27611D01*
X159157Y27667D01*
X159164Y27724D01*
X159170Y27768D01*
Y23849D01*
D02*
G37*
G36*
X167909Y16586D02*
X165918D01*
X166100Y16592D01*
X166276Y16617D01*
X166439Y16655D01*
X166590Y16705D01*
X166728Y16761D01*
X166853Y16831D01*
X166973Y16900D01*
X167079Y16969D01*
X167174Y17038D01*
X167255Y17107D01*
X167324Y17176D01*
X167381Y17233D01*
X167431Y17283D01*
X167463Y17320D01*
X167481Y17346D01*
X167488Y17352D01*
X167563Y17459D01*
X167626Y17572D01*
X167682Y17678D01*
X167733Y17791D01*
X167770Y17898D01*
X167808Y18005D01*
X167833Y18105D01*
X167858Y18206D01*
X167871Y18294D01*
X167883Y18375D01*
X167896Y18451D01*
X167902Y18514D01*
X167909Y18564D01*
Y16586D01*
D02*
G37*
G36*
X150186Y21578D02*
X150249Y21566D01*
X150312Y21541D01*
X150368Y21522D01*
X150406Y21497D01*
X150444Y21472D01*
X150463Y21459D01*
X150469Y21453D01*
X150525Y21396D01*
X150576Y21321D01*
X150620Y21239D01*
X150657Y21151D01*
X150689Y21070D01*
X150708Y21007D01*
X150714Y20982D01*
X150720Y20963D01*
X150726Y20950D01*
Y20944D01*
X150745Y20862D01*
X150764Y20774D01*
X150777Y20674D01*
X150789Y20561D01*
X150808Y20335D01*
X150821Y20102D01*
X150827Y19989D01*
Y19889D01*
X150833Y19789D01*
Y19707D01*
Y19638D01*
Y19588D01*
Y19556D01*
Y19544D01*
Y19361D01*
X150827Y19186D01*
X150821Y19029D01*
X150814Y18884D01*
X150808Y18752D01*
X150795Y18633D01*
X150783Y18526D01*
X150777Y18432D01*
X150764Y18350D01*
X150751Y18281D01*
X150739Y18225D01*
X150733Y18174D01*
X150726Y18137D01*
X150720Y18112D01*
X150714Y18099D01*
Y18093D01*
X150676Y17980D01*
X150638Y17879D01*
X150601Y17804D01*
X150557Y17741D01*
X150525Y17691D01*
X150494Y17660D01*
X150475Y17641D01*
X150469Y17634D01*
X150406Y17591D01*
X150350Y17559D01*
X150287Y17540D01*
X150230Y17528D01*
X150180Y17515D01*
X150142Y17509D01*
X150111D01*
X150036Y17515D01*
X149973Y17528D01*
X149910Y17547D01*
X149860Y17572D01*
X149816Y17597D01*
X149778Y17616D01*
X149759Y17628D01*
X149753Y17634D01*
X149697Y17691D01*
X149646Y17766D01*
X149602Y17848D01*
X149565Y17936D01*
X149533Y18011D01*
X149514Y18074D01*
X149508Y18099D01*
X149502Y18118D01*
X149495Y18131D01*
Y18137D01*
X149477Y18218D01*
X149464Y18306D01*
X149452Y18407D01*
X149439Y18520D01*
X149420Y18752D01*
X149408Y18985D01*
X149401Y19098D01*
Y19198D01*
Y19292D01*
X149395Y19380D01*
Y19449D01*
Y19500D01*
Y19531D01*
Y19544D01*
Y19726D01*
X149401Y19895D01*
X149408Y20058D01*
X149414Y20197D01*
X149420Y20329D01*
X149433Y20448D01*
X149439Y20555D01*
X149452Y20649D01*
X149464Y20730D01*
X149470Y20806D01*
X149483Y20862D01*
X149489Y20913D01*
X149495Y20950D01*
X149502Y20975D01*
X149508Y20988D01*
Y20994D01*
X149546Y21107D01*
X149583Y21208D01*
X149627Y21283D01*
X149665Y21346D01*
X149697Y21396D01*
X149728Y21428D01*
X149747Y21446D01*
X149753Y21453D01*
X149816Y21497D01*
X149872Y21528D01*
X149935Y21553D01*
X149992Y21566D01*
X150042Y21578D01*
X150080Y21585D01*
X150111D01*
X150186Y21578D01*
D02*
G37*
D10*
X90370Y67598D02*
X90391Y67025D01*
X116621Y105287D02*
X116450Y104873D01*
X117325Y60526D02*
X118772Y60274D01*
X117908Y62073D02*
X118505Y61730D01*
X117546Y62829D02*
X117908Y62073D01*
X117790Y82527D02*
X118204Y82358D01*
X117618Y82940D02*
X117790Y82527D01*
X117618Y104873D02*
X117035Y105458D01*
X119185Y60281D02*
X119361Y60291D01*
X119918Y61664D02*
X119952Y61669D01*
X119851Y61658D02*
X119918Y61664D01*
X119819Y61656D02*
X119851Y61658D01*
X126596Y73728D02*
X125481Y73056D01*
X129114Y72713D02*
X128699Y72746D01*
X128562Y74121D02*
X127645Y74046D01*
X131619Y71111D02*
X131492Y70393D01*
X131831Y71750D02*
X131714Y71440D01*
X131714D02*
X131619Y71111D01*
X132276Y61142D02*
X132897Y60700D01*
X133592Y60386D01*
X133911Y67879D02*
X133046Y67421D01*
X133977Y72164D02*
X133213Y71408D01*
X132862Y70393D01*
X133544Y73535D02*
X132982Y73204D01*
X132982Y73204D02*
X132129Y72312D01*
X133862Y73673D02*
X133544Y73535D01*
X135059Y61555D02*
X135350Y61522D01*
X135655Y61502D02*
X135973Y61496D01*
X135350Y61522D02*
X135655Y61502D01*
X134519Y61661D02*
X134782Y61602D01*
X134034Y61820D02*
X134519Y61661D01*
X135385Y67009D02*
X134981Y66897D01*
X135819Y67103D02*
X135385Y67009D01*
X134608Y66768D02*
X134266Y66622D01*
X134981Y66897D02*
X134608Y66768D01*
X135503Y68375D02*
X134933Y68235D01*
X136113Y68489D02*
X135503Y68375D01*
X134933Y68235D02*
X134402Y68069D01*
X135387Y74040D02*
X134968Y73976D01*
X135449Y72653D02*
X135157Y72601D01*
X135830Y74085D02*
X135387Y74040D01*
X135761Y72694D02*
X135449Y72653D01*
X136091Y72723D02*
X135761Y72694D01*
X134968Y73976D02*
X134574Y73893D01*
X134574D02*
X134206Y73792D01*
X134629Y72461D02*
X134393Y72373D01*
X134883Y72537D02*
X134629Y72461D01*
X135157Y72601D02*
X134883Y72537D01*
X135053Y81173D02*
X136110Y81730D01*
X135053Y82358D02*
X135176Y82422D01*
X134799Y88221D02*
X135213Y88393D01*
X135382Y88807D01*
X134214D02*
X134385Y88393D01*
X134799Y88221D01*
X135554Y104244D02*
X135382Y103830D01*
X135750Y105573D02*
X134664Y105123D01*
X136537Y60208D02*
X137828Y60526D01*
X136780Y67240D02*
X136284Y67180D01*
X137307Y67283D02*
X136780Y67240D01*
X137451Y68642D02*
X136762Y68578D01*
X138178Y68680D02*
X137451Y68642D01*
X136793Y74121D02*
X136299Y74112D01*
X138608Y62268D02*
X139690Y63032D01*
X141447Y81758D02*
X141618Y81344D01*
X142032Y82344D02*
X141618Y82172D01*
X141447Y81758D01*
X141618Y81344D02*
X142032Y81173D01*
X151225Y104170D02*
X151239Y104332D01*
X152915Y105164D02*
X152201Y105573D01*
X157107Y82513D02*
X157279Y82926D01*
X156693Y82344D02*
X157107Y82513D01*
X158003Y81630D02*
X158447Y82726D01*
X159029Y104407D02*
X158447Y103822D01*
X158815Y105573D02*
X157729Y105123D01*
X176860Y82712D02*
X177310Y81624D01*
X178397Y81173D01*
X178200Y82525D02*
X178614Y82355D01*
X178029Y82938D02*
X178200Y82525D01*
X180494Y73708D02*
X179261Y73006D01*
X182666Y74121D02*
X181637Y74035D01*
X185248Y70764D02*
X184712Y71879D01*
X184777Y73685D02*
X184156Y73927D01*
X185070Y81349D02*
X185237Y81769D01*
X185237Y81769D02*
X184654Y82355D01*
X184654Y81173D02*
X185070Y81349D01*
X186641Y71021D02*
X186434Y71748D01*
X186765Y70198D02*
X186641Y71021D01*
X195531Y74046D02*
X194491Y73728D01*
X197349Y72540D02*
X196094Y72746D01*
X202318Y73625D02*
X201138Y72878D01*
X204633Y72733D02*
X204345Y72741D01*
X206563Y71726D02*
X206450Y71904D01*
X206664Y71526D02*
X206563Y71726D01*
X206754Y71305D02*
X206664Y71526D01*
X206041Y73927D02*
X204699Y74121D01*
X206006Y72331D02*
X205821Y72440D01*
X206600Y73685D02*
X206041Y73927D01*
X205160Y72666D02*
X204905Y72707D01*
X205398Y72607D02*
X205160Y72666D01*
X205619Y72532D02*
X205398Y72607D01*
X205821Y72440D02*
X205619Y72532D01*
X207046Y69158D02*
X207023Y69878D01*
X208387Y70198D02*
X208276Y71021D01*
X206951Y70513D02*
X206897Y70798D01*
X208276Y71021D02*
X208090Y71748D01*
X206897Y70798D02*
X206832Y71062D01*
X206993Y70206D02*
X206951Y70513D01*
X90361Y68163D02*
X90370Y67599D01*
X91436Y62834D02*
X91997Y62066D01*
X92699Y61426D01*
X91754Y68402D02*
X91762Y67520D01*
X91830Y66641D01*
X91957Y65768D01*
X92144Y64906D01*
X103072Y64914D02*
X103254Y65775D01*
X103378Y66645D01*
X103444Y67523D01*
X103451Y68402D01*
X104516Y64878D02*
X104707Y66026D01*
X104817Y67184D01*
X104845Y68347D01*
X116029Y64262D02*
X116047Y63388D01*
X116115Y62516D01*
X116115D02*
X116489Y61273D01*
X117423Y64145D02*
X117546Y62829D01*
X125057Y71004D02*
X124313Y70000D01*
X127048Y72507D02*
X125991Y71879D01*
X131080Y63866D02*
X131156Y63080D01*
X131401Y62330D01*
X132474Y64003D02*
X132703Y62958D01*
X133411Y62157D01*
X134782Y61602D02*
X135059Y61555D01*
X134393Y72373D02*
X134175Y72275D01*
X134664Y105123D02*
X134214Y104036D01*
X135968Y104416D02*
X135554Y104244D01*
X139949Y71587D02*
X138834Y72437D01*
X141661Y71227D02*
X141309Y72062D01*
X140769Y72791D01*
X141940Y69158D02*
X141876Y70203D01*
X141661Y71227D01*
X140538Y68692D02*
X140515Y69501D01*
X140435Y70307D01*
X152820Y104346D02*
X152915Y105164D01*
X162969Y64683D02*
X163346Y63750D01*
X163903Y62912D01*
X163903Y71347D02*
X163344Y70520D01*
X162969Y69596D01*
X170539Y62912D02*
X171100Y63750D01*
X171482Y64683D01*
X171482Y69596D02*
X171101Y70520D01*
X170539Y71347D01*
X178029Y104036D02*
X177579Y105123D01*
X184712Y71879D02*
X183742Y72532D01*
X186806Y69278D02*
X186765Y70198D01*
X193331Y73031D02*
X192646Y72449D01*
X192023Y71801D01*
X198185Y71904D02*
X197349Y72540D01*
X198757Y69158D02*
X198730Y69977D01*
X198629Y70789D01*
X206450Y71904D02*
X206006Y72331D01*
X208090Y71748D02*
X207829Y72378D01*
X208424Y69278D02*
X208387Y70198D01*
X207023Y69878D02*
X206993Y70206D01*
X90421Y66442D02*
X90527Y65490D01*
X90725Y64552D01*
X92144Y64906D02*
X92583Y63781D01*
X93288Y62801D01*
X101956Y62809D02*
X102644Y63793D01*
X103072Y64914D01*
X133955Y66459D02*
X133160Y65849D01*
X132642Y64990D01*
X132474Y64003D01*
X200040Y71681D02*
X199530Y72717D01*
X198704Y73522D01*
X161712Y70100D02*
X161475Y69127D01*
X161332Y68135D01*
X161284Y67134D01*
X161332Y66133D01*
X161475Y65141D01*
X161712Y64167D01*
X162969Y69596D02*
X162759Y68624D01*
X162654Y67636D01*
X162654Y66642D01*
X162759Y65654D01*
X162969Y64683D01*
X171482D02*
X171699Y65653D01*
X171808Y66642D01*
Y67637D01*
X171699Y68625D01*
X171482Y69596D01*
X172806Y64175D02*
X173040Y65144D01*
X173182Y66130D01*
X173229Y67125D01*
X173182Y68121D01*
X173040Y69107D01*
X172806Y70075D01*
X92699Y61426D02*
X93657Y60859D01*
X94701Y60473D01*
X94701Y60473D02*
X95656Y60265D01*
X96625Y60148D01*
X97601Y60121D01*
X93288Y62801D02*
X94135Y62159D01*
X95125Y61769D01*
X100119Y61769D02*
X101112Y62157D01*
X101956Y62809D01*
X116489Y61273D02*
X117325Y60526D01*
X118505Y61730D02*
X119311Y61652D01*
X116450Y82712D02*
X116900Y81624D01*
X117986Y81173D01*
X117035Y105458D02*
X116621Y105287D01*
X125991Y71879D02*
X125057Y71004D01*
X127645Y74046D02*
X126596Y73728D01*
X128194Y72746D02*
X127048Y72507D01*
X133592Y60386D02*
X134404Y60185D01*
X135237Y60121D01*
X137828Y60526D02*
X139152Y61161D01*
X135237Y60121D02*
X136537Y60208D01*
X137351Y61711D02*
X138608Y62268D01*
X133411Y62157D02*
X134034Y61820D01*
X138452Y67318D02*
X137307Y67283D01*
X136284Y67180D02*
X135819Y67103D01*
X134266Y66622D02*
X133955Y66459D01*
X136762Y68578D02*
X136113Y68489D01*
X138946Y68692D02*
X138178Y68680D01*
X140435Y70307D02*
X139949Y71587D01*
X134175Y72275D02*
X133977Y72164D01*
X140769Y72791D02*
X140031Y73380D01*
X139174Y73778D01*
X139174D02*
X137998Y74049D01*
X136793Y74121D01*
X138834Y72437D02*
X137835Y72689D01*
X136807Y72746D01*
X136299Y74112D02*
X135830Y74085D01*
X136807Y72746D02*
X136091Y72723D01*
X134206Y73792D02*
X133862Y73673D01*
X156913Y81173D02*
X158003Y81630D01*
X163903Y62912D02*
X164563Y62293D01*
X165350Y61847D01*
X169092D02*
X169880Y62293D01*
X170539Y62912D01*
X169711Y73644D02*
X168908Y73915D01*
X168076Y74075D01*
X167230Y74121D01*
X180087Y72077D02*
X179321Y71514D01*
X178612Y70882D01*
X177965Y70187D01*
X183742Y72532D02*
X182278Y72746D01*
X184156Y73927D02*
X183418Y74077D01*
X182666Y74121D01*
X181637Y74035D02*
X180494Y73708D01*
X176860Y103822D02*
X176278Y104407D01*
X177579Y105123D02*
X176493Y105573D01*
X198629Y70789D02*
X198185Y71904D01*
X198704Y73522D02*
X197633Y73987D01*
X196473Y74121D01*
X196473Y74121D02*
X195531Y74046D01*
X194491Y73728D02*
X193331Y73031D01*
X206832Y71062D02*
X206754Y71305D01*
X204699Y74121D02*
X203522Y74010D01*
X207829Y72378D02*
X207313Y73124D01*
X206600Y73685D01*
X204905Y72707D02*
X204633Y72733D01*
X203522Y74010D02*
X202318Y73625D01*
X95125Y61769D02*
X95945Y61609D01*
X96775Y61515D01*
X97609Y61490D01*
X90725Y64552D02*
X91024Y63669D01*
X91436Y62834D01*
X101148Y60679D02*
X101984Y61077D01*
X102734Y61620D01*
X103373Y62290D01*
X131401Y62330D02*
X132276Y61142D01*
X132129Y72312D02*
X131831Y71750D01*
X139152Y61161D02*
X139873Y61639D01*
X140546Y62182D01*
X135973Y61496D02*
X137351Y61711D01*
X139690Y63032D02*
X140546Y63849D01*
X134402Y68069D02*
X133911Y67879D01*
X157729Y105123D02*
X157279Y104036D01*
X151239Y104332D02*
X151100Y104416D01*
X162925Y61959D02*
X163784Y61165D01*
X164804Y60592D01*
X161712Y64167D02*
X162017Y63379D01*
X162424Y62639D01*
X162925Y61959D01*
X165350Y72395D02*
X164566Y71956D01*
X163903Y71347D01*
X162916Y72292D02*
X162417Y71618D01*
X162013Y70883D01*
X161712Y70100D01*
X167230Y61496D02*
X168179Y61578D01*
X169092Y61847D01*
X169714Y60592D02*
X170738Y61171D01*
X171605Y61967D01*
X172102Y62647D01*
X172505Y63388D01*
X172806Y64175D01*
X172806Y70075D02*
X172504Y70859D01*
X172099Y71595D01*
X171599Y72270D01*
X170539Y71347D02*
X169877Y71956D01*
X169092Y72395D01*
X179261Y73006D02*
X178586Y72437D01*
X177973Y71801D01*
X182278Y72746D02*
X181133Y72572D01*
X180087Y72077D01*
X185412Y69158D02*
X185377Y69966D01*
X185248Y70764D01*
X196094Y72746D02*
X195002Y72568D01*
X194014Y72069D01*
X201138Y72878D02*
X200550Y72316D01*
X200039Y71681D01*
X204345Y72741D02*
X203216Y72561D01*
X202186Y72063D01*
X103373Y62290D02*
X103882Y63092D01*
X104266Y63961D01*
X104516Y64878D01*
X164804Y73658D02*
X163782Y73084D01*
X162916Y72292D01*
X171599Y72270D02*
X170735Y73066D01*
X169711Y73644D01*
X186434Y71748D02*
X186058Y72532D01*
X185493Y73192D01*
X184777Y73685D01*
X97601Y60121D02*
X98503Y60136D01*
X99400Y60235D01*
X100284Y60416D01*
X101148Y60679D01*
X164804Y60592D02*
X165764Y60295D01*
X166757Y60145D01*
X167761D01*
X168755Y60295D01*
X169714Y60592D01*
X169092Y72395D02*
X168173Y72658D01*
X167221Y72746D01*
X166270Y72658D01*
X165350Y72395D01*
X167230Y74121D02*
X165994Y74011D01*
X164804Y73658D01*
X97609Y61490D02*
X98453Y61516D01*
X99291Y61609D01*
X100119Y61769D01*
X125481Y73056D02*
X124865Y72531D01*
X124313Y71941D01*
X165350Y61847D02*
X166273Y61578D01*
X167230Y61496D01*
X202186Y72063D02*
X201441Y71499D01*
X200760Y70858D01*
X200151Y70148D01*
X194014Y72069D02*
X193291Y71495D01*
X192625Y70854D01*
X192023Y70153D01*
X133046Y67421D02*
X132211Y66764D01*
X131579Y65911D01*
X131193Y64922D01*
X131080Y63866D01*
X90391Y67025D02*
X90421Y66442D01*
X90360Y68349D02*
X90361Y68163D01*
X114314Y72404D02*
Y73778D01*
X118772Y60274D02*
X118831Y60275D01*
X118890Y60275D01*
X118949Y60276D01*
X119008Y60276D02*
X119067Y60278D01*
X119126Y60279D01*
X119185Y60281D01*
X119361Y60291D02*
X119419Y60295D01*
X119537Y60305D01*
X119655Y60315D01*
X119773Y60326D01*
X119949Y60344D01*
X119787Y61654D02*
X119819Y61656D01*
X119756Y61653D02*
X119787Y61654D01*
X119726Y61652D02*
X119756Y61653D01*
X119696Y61652D02*
X119726Y61652D01*
X119640Y61652D02*
X119696Y61652D01*
X119311Y61652D02*
X119640D01*
X119623Y72406D02*
Y73781D01*
X128562Y74121D02*
X128821D01*
X129100Y74096D02*
X129114Y72713D01*
X128821Y74121D02*
X129100Y74096D01*
X128194Y72746D02*
X128699D01*
X140546Y60464D02*
X141940D01*
X185412D02*
X186806D01*
X198757Y60459D02*
X200151D01*
X207046Y60464D02*
X208440D01*
X116029Y73778D02*
Y77269D01*
X117423Y73781D02*
Y77269D01*
X119949Y60344D02*
X119952Y61669D01*
X140546Y60464D02*
Y62182D01*
X144528Y60464D02*
Y62285D01*
X145654Y77899D02*
Y79277D01*
X159116Y60464D02*
Y61839D01*
X158759Y77436D02*
Y79277D01*
X124313Y71941D02*
Y73778D01*
X140546Y63849D02*
Y67318D01*
X177965Y79277D02*
X177973Y71801D01*
X192023D02*
Y73778D01*
X90360Y68349D02*
Y79277D01*
X91754Y68402D02*
Y79277D01*
X103451Y68402D02*
Y79277D01*
X104845Y68347D02*
Y79277D01*
X109685Y60464D02*
Y79277D01*
X111080Y60464D02*
Y79277D01*
X116450Y82712D02*
Y104873D01*
X116029Y64262D02*
Y72404D01*
X117618Y82940D02*
Y104873D01*
X117423Y64145D02*
Y72406D01*
X122919Y60464D02*
Y73778D01*
X124313Y60464D02*
Y70000D01*
X135382Y88807D02*
Y103830D01*
X134214Y88807D02*
Y104036D01*
X141940Y60464D02*
Y69158D01*
X157279Y82926D02*
Y104036D01*
X158447Y82726D02*
Y103822D01*
X176571Y60464D02*
Y79277D01*
X178029Y82938D02*
Y104036D01*
X176860Y82712D02*
Y103822D01*
X177965Y60464D02*
Y70187D01*
X186806Y60464D02*
Y69278D01*
X185412Y60464D02*
Y69158D01*
X190629Y60464D02*
Y73778D01*
X192023Y60464D02*
Y70153D01*
X200151Y60459D02*
Y70148D01*
X198757Y60459D02*
Y69158D01*
X208424Y69278D02*
X208440Y60464D01*
X207046D02*
Y69158D01*
X90360Y79277D02*
X91754D01*
X103451D02*
X104845D01*
X109685Y60464D02*
X111080D01*
X109685Y79277D02*
X111080D01*
X122919Y60464D02*
X124313D01*
X118949Y60276D02*
X119008Y60276D01*
X117423Y73781D02*
X119623D01*
X117423Y72406D02*
X119623D01*
X122919Y73778D02*
X124313D01*
X116029Y77269D02*
X117423D01*
X131492Y70393D02*
X132862D01*
X138452Y67318D02*
X140546D01*
X138946Y68692D02*
X140538D01*
X176571Y60464D02*
X177965D01*
X176571Y79277D02*
X177965D01*
X190629Y60464D02*
X192023D01*
X190629Y73778D02*
X192023D01*
X114314D02*
X116029D01*
X114314Y72404D02*
X116029D01*
X118204Y82358D02*
X135053D01*
X117986Y81173D02*
X135053D01*
X145933Y61839D02*
X159116D01*
X159029Y104407D02*
X176278D01*
X158815Y105573D02*
X176493D01*
X145933Y61839D02*
X158759Y77436D01*
X144528Y60464D02*
X159116D01*
X145654Y77899D02*
X157332D01*
X145654Y79277D02*
X158759D01*
X142032Y82344D02*
X156693D01*
X142032Y81173D02*
X156913D01*
X178614Y82355D02*
X184654D01*
X178397Y81173D02*
X184654D01*
X135750Y105573D02*
X152201D01*
X135968Y104416D02*
X151100D01*
X136110Y81730D02*
X152820Y104346D01*
X135176Y82422D02*
X151225Y104170D01*
X144528Y62285D02*
X157332Y77899D01*
D11*
X237795Y60236D02*
Y86221D01*
X211811D02*
X237795D01*
X211811Y60236D02*
Y86221D01*
Y60236D02*
X237795D01*
D12*
X167535Y181339D02*
X207535D01*
X167535Y131339D02*
X207535D01*
X167535D02*
Y181339D01*
X207535Y131339D02*
Y181339D01*
X127535Y181339D02*
X167535D01*
X127535Y131339D02*
X167535D01*
X127535D02*
Y181339D01*
X167535Y131339D02*
Y181339D01*
X287535Y131339D02*
Y181339D01*
X247535Y131339D02*
Y181339D01*
Y131339D02*
X287535D01*
X247535Y181339D02*
X287535D01*
X207535D02*
X247535D01*
X207535Y131339D02*
X247535D01*
X207535D02*
Y181339D01*
X247535Y131339D02*
Y181339D01*
X87535D02*
X127535D01*
X87535Y131339D02*
X127535D01*
X87535D02*
Y181339D01*
X127535Y131339D02*
Y181339D01*
D13*
X265944Y117059D02*
X264632D01*
X263976Y116403D01*
Y113779D01*
X264632Y113123D01*
X265944D01*
X266600Y113779D01*
Y116403D01*
X265944Y117059D01*
X270536Y116403D02*
X269880Y117059D01*
X268568D01*
X267912Y116403D01*
Y113779D01*
X268568Y113123D01*
X269880D01*
X270536Y113779D01*
X214370Y117387D02*
Y114763D01*
X215682Y113451D01*
X216994Y114763D01*
Y117387D01*
X218306Y112795D02*
X220930D01*
X222242Y117387D02*
Y113451D01*
X224865D01*
X228801Y116731D02*
X228145Y117387D01*
X226833D01*
X226177Y116731D01*
Y116075D01*
X226833Y115419D01*
X228145D01*
X228801Y114763D01*
Y114107D01*
X228145Y113451D01*
X226833D01*
X226177Y114107D01*
X230113Y112795D02*
X232737D01*
X234049Y113451D02*
Y117387D01*
X236017D01*
X236673Y116731D01*
Y115419D01*
X236017Y114763D01*
X234049D01*
X237984Y117387D02*
Y113451D01*
X239296Y114763D01*
X240608Y113451D01*
Y117387D01*
X241920Y113451D02*
Y117387D01*
X243232Y116075D01*
X244544Y117387D01*
Y113451D01*
X174606Y117387D02*
Y114107D01*
X175262Y113451D01*
X176574D01*
X177230Y114107D01*
Y117387D01*
X178542Y112795D02*
X181166D01*
X182478Y117387D02*
Y113451D01*
X185102D01*
X189037Y116731D02*
X188381Y117387D01*
X187069D01*
X186414Y116731D01*
Y116075D01*
X187069Y115419D01*
X188381D01*
X189037Y114763D01*
Y114107D01*
X188381Y113451D01*
X187069D01*
X186414Y114107D01*
X190349Y112795D02*
X192973D01*
X194285Y113451D02*
Y117387D01*
X196253D01*
X196909Y116731D01*
Y115419D01*
X196253Y114763D01*
X194285D01*
X198221Y117387D02*
Y113451D01*
X199533Y114763D01*
X200845Y113451D01*
Y117387D01*
X202156Y113451D02*
Y117387D01*
X203468Y116075D01*
X204780Y117387D01*
Y113451D01*
X133661Y117387D02*
Y113451D01*
X134973Y114763D01*
X136285Y113451D01*
Y117387D01*
X137597Y112795D02*
X140221D01*
X141533Y117387D02*
Y113451D01*
X144157D01*
X148092Y116731D02*
X147436Y117387D01*
X146125D01*
X145469Y116731D01*
Y116075D01*
X146125Y115419D01*
X147436D01*
X148092Y114763D01*
Y114107D01*
X147436Y113451D01*
X146125D01*
X145469Y114107D01*
X149404Y112795D02*
X152028D01*
X153340Y113451D02*
Y117387D01*
X155308D01*
X155964Y116731D01*
Y115419D01*
X155308Y114763D01*
X153340D01*
X157276Y117387D02*
Y113451D01*
X158588Y114763D01*
X159900Y113451D01*
Y117387D01*
X161212Y113451D02*
Y117387D01*
X162523Y116075D01*
X163835Y117387D01*
Y113451D01*
X99671Y116731D02*
X99015Y117387D01*
X97703D01*
X97047Y116731D01*
Y114107D01*
X97703Y113451D01*
X99015D01*
X99671Y114107D01*
Y115419D01*
X98359D01*
X100983Y117387D02*
Y113451D01*
X102951D01*
X103607Y114107D01*
Y116731D01*
X102951Y117387D01*
X100983D01*
X104919Y112795D02*
X107543D01*
X108854Y117387D02*
Y113451D01*
X110822D01*
X111478Y114107D01*
Y116731D01*
X110822Y117387D01*
X108854D01*
X112790D02*
X114102D01*
X113446D01*
Y113451D01*
X112790D01*
X114102D01*
X118694Y116731D02*
X118038Y117387D01*
X116726D01*
X116070Y116731D01*
Y116075D01*
X116726Y115419D01*
X118038D01*
X118694Y114763D01*
Y114107D01*
X118038Y113451D01*
X116726D01*
X116070Y114107D01*
X262731Y125984D02*
X261419D01*
X262074D01*
Y122704D01*
X261419Y122048D01*
X260763D01*
X260107Y122704D01*
X264042Y125328D02*
X264698Y125984D01*
X266010D01*
X266666Y125328D01*
Y124672D01*
X266010Y124016D01*
X265354D01*
X266010D01*
X266666Y123360D01*
Y122704D01*
X266010Y122048D01*
X264698D01*
X264042Y122704D01*
X267978Y125984D02*
Y122048D01*
X269946D01*
X270602Y122704D01*
Y123360D01*
X269946Y124016D01*
X267978D01*
X269946D01*
X270602Y124672D01*
Y125328D01*
X269946Y125984D01*
X267978D01*
X103439Y127165D02*
X102127D01*
X102783D01*
Y123885D01*
X102127Y123229D01*
X101471D01*
X100815Y123885D01*
X107375Y123229D02*
X104751D01*
X107375Y125853D01*
Y126509D01*
X106719Y127165D01*
X105407D01*
X104751Y126509D01*
X111311D02*
X110655Y127165D01*
X109343D01*
X108687Y126509D01*
Y123885D01*
X109343Y123229D01*
X110655D01*
X111311Y123885D01*
Y125197D01*
X109999D01*
X143360Y126771D02*
X142049D01*
X142704D01*
Y123491D01*
X142049Y122835D01*
X141393D01*
X140737Y123491D01*
X147296Y122835D02*
X144672D01*
X147296Y125459D01*
Y126115D01*
X146640Y126771D01*
X145328D01*
X144672Y126115D01*
X151232Y126771D02*
X148608D01*
Y124803D01*
X149920D01*
X148608D01*
Y122835D01*
X223675Y126377D02*
X222364D01*
X223020D01*
Y123098D01*
X222364Y122442D01*
X221708D01*
X221052Y123098D01*
X227611Y122442D02*
X224987D01*
X227611Y125065D01*
Y125721D01*
X226955Y126377D01*
X225643D01*
X224987Y125721D01*
X228923Y126377D02*
Y122442D01*
X230891D01*
X231547Y123098D01*
Y125721D01*
X230891Y126377D01*
X228923D01*
X183203Y125984D02*
X181891D01*
X182547D01*
Y122704D01*
X181891Y122048D01*
X181235D01*
X180579Y122704D01*
X187139Y122048D02*
X184515D01*
X187139Y124672D01*
Y125328D01*
X186483Y125984D01*
X185171D01*
X184515Y125328D01*
X188451Y125984D02*
Y122048D01*
X190419D01*
X191075Y122704D01*
Y123360D01*
X190419Y124016D01*
X188451D01*
X190419D01*
X191075Y124672D01*
Y125328D01*
X190419Y125984D01*
X188451D01*
M02*
