G04*
G04 #@! TF.GenerationSoftware,Altium Limited,Altium Designer,24.10.1 (45)*
G04*
G04 Layer_Color=65535*
%FSLAX25Y25*%
%MOIN*%
G70*
G04*
G04 #@! TF.SameCoordinates,0A93E4DB-C83B-47C1-B495-C13E3F0CF61A*
G04*
G04*
G04 #@! TF.FilePolarity,Positive*
G04*
G01*
G75*
%ADD10C,0.00394*%
%ADD11C,0.00984*%
%ADD12C,0.00500*%
%ADD13C,0.00787*%
%ADD14C,0.01000*%
%ADD15C,0.00591*%
%ADD16C,0.00600*%
%ADD17C,0.01000*%
%ADD18C,0.00300*%
%ADD19C,0.00591*%
G36*
X-19211Y49573D02*
Y48573D01*
X-20711D01*
Y49573D01*
X-19211D01*
D02*
G37*
G36*
X-19555Y113779D02*
X-21260Y114764D01*
Y112795D01*
X-19555Y113779D01*
D02*
G37*
G36*
X16272D02*
X14567Y114764D01*
Y112795D01*
X16272Y113779D01*
D02*
G37*
G36*
X21340Y49967D02*
Y48967D01*
X19840D01*
Y49967D01*
X21340D01*
D02*
G37*
G36*
X73098Y65748D02*
X74803Y64764D01*
Y66732D01*
X73098Y65748D01*
D02*
G37*
G36*
X54461Y82284D02*
X52756Y83268D01*
Y81299D01*
X54461Y82284D01*
D02*
G37*
G36*
X47661Y112813D02*
X45957Y113797D01*
Y111829D01*
X47661Y112813D01*
D02*
G37*
G36*
X131477Y41941D02*
X132461Y43646D01*
X130492D01*
X131477Y41941D01*
D02*
G37*
G36*
X110366Y81245D02*
X108661Y82230D01*
Y80261D01*
X110366Y81245D01*
D02*
G37*
G36*
X83146Y112813D02*
X81441Y113797D01*
Y111829D01*
X83146Y112813D01*
D02*
G37*
G36*
X118634Y112992D02*
X116929Y113976D01*
Y112008D01*
X118634Y112992D01*
D02*
G37*
G36*
X166142Y40451D02*
X167126Y42156D01*
X165157D01*
X166142Y40451D01*
D02*
G37*
G36*
X146008Y82695D02*
X144303Y83679D01*
Y81711D01*
X146008Y82695D01*
D02*
G37*
G36*
X150287Y112813D02*
X148583Y113797D01*
Y111829D01*
X150287Y112813D01*
D02*
G37*
D10*
X64764Y16535D02*
X64604Y17494D01*
X64141Y18349D01*
X63426Y19007D01*
X62536Y19398D01*
X61567Y19478D01*
X60625Y19240D01*
X59811Y18708D01*
X59214Y17941D01*
X58899Y17021D01*
Y16049D01*
X59214Y15130D01*
X59811Y14363D01*
X60625Y13831D01*
X61567Y13593D01*
X62536Y13673D01*
X63426Y14063D01*
X64141Y14722D01*
X64604Y15577D01*
X64764Y16535D01*
X82874Y37966D02*
X82714Y38924D01*
X82251Y39779D01*
X81536Y40437D01*
X80646Y40828D01*
X79677Y40908D01*
X78735Y40670D01*
X77921Y40138D01*
X77324Y39371D01*
X77009Y38452D01*
Y37480D01*
X77324Y36560D01*
X77921Y35793D01*
X78735Y35261D01*
X79677Y35023D01*
X80646Y35103D01*
X81536Y35494D01*
X82251Y36152D01*
X82714Y37007D01*
X82874Y37966D01*
X167913Y4331D02*
X167753Y5289D01*
X167291Y6144D01*
X166576Y6803D01*
X165685Y7193D01*
X164717Y7273D01*
X163775Y7035D01*
X162961Y6503D01*
X162364Y5736D01*
X162048Y4817D01*
Y3845D01*
X162364Y2925D01*
X162961Y2158D01*
X163775Y1627D01*
X164717Y1388D01*
X165685Y1468D01*
X166576Y1859D01*
X167291Y2517D01*
X167753Y3372D01*
X167913Y4331D01*
X157677Y37966D02*
X157517Y38924D01*
X157054Y39779D01*
X156339Y40437D01*
X155449Y40828D01*
X154481Y40908D01*
X153538Y40670D01*
X152725Y40138D01*
X152128Y39371D01*
X151812Y38452D01*
Y37480D01*
X152128Y36560D01*
X152725Y35793D01*
X153538Y35261D01*
X154481Y35023D01*
X155449Y35103D01*
X156339Y35494D01*
X157054Y36152D01*
X157517Y37007D01*
X157677Y37966D01*
X123763D02*
X123603Y38924D01*
X123141Y39779D01*
X122425Y40437D01*
X121535Y40828D01*
X120567Y40908D01*
X119624Y40670D01*
X118811Y40138D01*
X118214Y39371D01*
X117898Y38452D01*
Y37480D01*
X118214Y36560D01*
X118811Y35793D01*
X119624Y35261D01*
X120567Y35023D01*
X121535Y35103D01*
X122425Y35494D01*
X123141Y36152D01*
X123603Y37007D01*
X123763Y37966D01*
D11*
X127862Y83729D02*
X127124Y84155D01*
Y83303D01*
X127862Y83729D01*
X101323Y115297D02*
X100585Y115723D01*
Y114871D01*
X101323Y115297D01*
X136130Y115476D02*
X135392Y115902D01*
Y115050D01*
X136130Y115476D01*
X197Y108989D02*
X-541Y109415D01*
Y108563D01*
X197Y108989D01*
X168465Y115297D02*
X167726Y115723D01*
Y114871D01*
X168465Y115297D01*
X65158Y115297D02*
X64419Y115723D01*
Y114871D01*
X65158Y115297D01*
X89567Y42507D02*
X88829Y42934D01*
Y42081D01*
X89567Y42507D01*
X164185Y85179D02*
X163447Y85605D01*
Y84752D01*
X164185Y85179D01*
X118386Y71218D02*
X117648Y71644D01*
Y70791D01*
X118386Y71218D01*
X153032D02*
X152294Y71644D01*
Y70791D01*
X153032Y71218D01*
X35236Y108661D02*
X34498Y109088D01*
Y108235D01*
X35236Y108661D01*
X72638Y84767D02*
X71900Y85193D01*
Y84341D01*
X72638Y84767D01*
D12*
X88005Y109701D02*
X87979Y109813D01*
X123493Y109880D02*
X123467Y109992D01*
X115225Y78133D02*
X115199Y78245D01*
X-14696Y110668D02*
X-14722Y110780D01*
X155147Y109701D02*
X155120Y109813D01*
X52521Y109701D02*
X52494Y109813D01*
X68239Y68860D02*
X68266Y68748D01*
X128365Y37082D02*
X128477Y37109D01*
X163030Y35592D02*
X163142Y35618D01*
X150867Y79583D02*
X150841Y79695D01*
X59320Y79172D02*
X59293Y79283D01*
X21131Y110668D02*
X21104Y110780D01*
D13*
X209249Y2320D02*
X208461D01*
X209249D01*
X46850Y105889D02*
X47260Y106299D01*
X161417Y15748D02*
Y19685D01*
X168504Y15748D02*
Y19685D01*
X130709Y15748D02*
Y19685D01*
X137795Y15748D02*
Y19685D01*
X171653Y15748D02*
Y19685D01*
X178740Y15748D02*
Y19685D01*
X151181Y15748D02*
Y19685D01*
X158268Y15748D02*
Y19685D01*
X140945Y15748D02*
Y19685D01*
X148031Y15748D02*
Y19685D01*
X139979Y106299D02*
Y138189D01*
X106885Y106342D02*
Y138189D01*
X71652Y106392D02*
Y138189D01*
X111989Y47780D02*
X112382D01*
X111989Y50536D02*
X112382D01*
X101575Y73228D02*
Y106211D01*
Y73228D02*
X137533D01*
X121760Y93572D02*
X124122D01*
X121760Y84910D02*
X124122D01*
X121760D02*
Y93572D01*
X124122Y84910D02*
Y93572D01*
X95221Y125139D02*
X97583D01*
X95221Y116478D02*
X97583D01*
X95221D02*
Y125139D01*
X97583Y116478D02*
Y125139D01*
X82032Y117913D02*
X82426D01*
X82032Y121063D02*
X82426D01*
X96205Y132480D02*
X96599D01*
X96205Y135236D02*
X96599D01*
X96205Y130118D02*
X96599D01*
X96205Y127362D02*
X96599D01*
X130028Y125318D02*
X132390D01*
X130028Y116657D02*
X132390D01*
X130028D02*
Y125318D01*
X132390Y116657D02*
Y125318D01*
X117520Y117323D02*
X117913D01*
X117520Y120472D02*
X117913D01*
X131012Y132659D02*
X131405D01*
X131012Y135415D02*
X131405D01*
X131012Y127541D02*
X131405D01*
X131012Y130297D02*
X131405D01*
X160039Y58858D02*
Y59252D01*
X157283Y58858D02*
Y59252D01*
X160039Y48622D02*
Y49016D01*
X157283Y48622D02*
Y49016D01*
X181890Y133346D02*
X253445D01*
X181890D02*
Y217697D01*
X253445Y133346D02*
Y217697D01*
X181890D02*
X253445D01*
X122744Y95794D02*
X123138D01*
X122744Y98550D02*
X123138D01*
X109252Y85576D02*
X109646D01*
X109252Y88726D02*
X109646D01*
X122744Y103668D02*
X123138D01*
X122744Y100913D02*
X123138D01*
X-3543Y110170D02*
Y118831D01*
X-5906Y110170D02*
Y118831D01*
Y110170D02*
X-3543D01*
X-5906Y118831D02*
X-3543D01*
X-25591Y103740D02*
Y104134D01*
X-22441Y103740D02*
Y104134D01*
X-4921Y123359D02*
X-4528D01*
X-4921Y120603D02*
X-4528D01*
X-4921Y125721D02*
X-4528D01*
X-4921Y128477D02*
X-4528D01*
X94685Y38386D02*
X95079D01*
X94685Y35630D02*
X95079D01*
X162362Y125139D02*
X164724D01*
X162362Y116478D02*
X164724D01*
X162362D02*
Y125139D01*
X164724Y116478D02*
Y125139D01*
X149173Y117913D02*
X149567D01*
X149173Y121063D02*
X149567D01*
X163347Y132480D02*
X163740D01*
X163347Y135236D02*
X163740D01*
X163347Y130118D02*
X163740D01*
X163347Y127362D02*
X163740D01*
X59055Y125139D02*
X61417D01*
X59055Y116478D02*
X61417D01*
X59055D02*
Y125139D01*
X61417Y116478D02*
Y125139D01*
X46547Y117144D02*
X46941D01*
X46547Y120293D02*
X46941D01*
X60039Y132480D02*
X60433D01*
X60039Y135236D02*
X60433D01*
X60039Y130118D02*
X60433D01*
X60039Y127362D02*
X60433D01*
X199803Y121850D02*
X200197D01*
X199803Y119095D02*
X200197D01*
X252953Y120669D02*
X253346D01*
X252953Y123425D02*
X253346D01*
X133052Y54473D02*
Y54867D01*
X129902Y54473D02*
Y54867D01*
X122770Y59625D02*
Y60019D01*
X125526Y59625D02*
Y60019D01*
X253740Y98228D02*
X254134D01*
X253740Y95472D02*
X254134D01*
X193855Y4879D02*
X213855D01*
X193855Y34879D02*
X213855D01*
X193855Y4879D02*
Y34879D01*
X213855Y4879D02*
Y34879D01*
X92716Y63583D02*
X93110D01*
X92716Y66339D02*
X93110D01*
X94685Y43504D02*
X95079D01*
X94685Y40748D02*
X95079D01*
X111989Y45418D02*
X112382D01*
X111989Y42662D02*
X112382D01*
X173682Y40999D02*
X225651D01*
Y133346D01*
Y40999D02*
X275590D01*
X167979Y73228D02*
Y106231D01*
X137533Y73228D02*
X167979D01*
X137533D02*
Y106299D01*
X77953Y73622D02*
Y106270D01*
X38395Y106299D02*
X110236D01*
X30118Y120276D02*
X30512D01*
X30118Y123031D02*
X30512D01*
X74213Y55905D02*
X74606D01*
X74213Y52756D02*
X74606D01*
X74213Y58268D02*
X74606D01*
X74213Y61417D02*
X74606D01*
X159067Y97244D02*
X159461D01*
X159067Y100000D02*
X159461D01*
X67520Y96833D02*
X67913D01*
X67520Y99589D02*
X67913D01*
X149567Y155335D02*
X181739D01*
X149567Y188630D02*
X181688D01*
X160630Y149074D02*
X162205Y147499D01*
X160630Y149074D02*
X162205Y150649D01*
X160630Y149074D02*
X162205Y150649D01*
X160630Y149074D02*
X164567D01*
Y153404D01*
X173622Y86885D02*
X281890D01*
X173622Y40999D02*
Y106299D01*
X253445Y133346D02*
X281772D01*
X183328Y105709D02*
Y106102D01*
X186084Y105709D02*
Y106102D01*
X216792Y105709D02*
Y106102D01*
X214037Y105709D02*
Y106102D01*
X195533Y100000D02*
X204588D01*
X195533D02*
Y111811D01*
X204588D01*
Y100000D02*
Y111811D01*
X200122Y97835D02*
X200516D01*
X200122Y95079D02*
X200516D01*
X199729Y116339D02*
X200122D01*
X199729Y113583D02*
X200122D01*
X-2953Y39567D02*
X-2559D01*
X-2953Y42323D02*
X-2559D01*
X37992Y39567D02*
X38386D01*
X37992Y42323D02*
X38386D01*
X158083Y95021D02*
X160445D01*
X158083Y86360D02*
X160445D01*
X158083D02*
Y95021D01*
X160445Y86360D02*
Y95021D01*
X159067Y102362D02*
X159461D01*
X159067Y105118D02*
X159461D01*
X144894Y87795D02*
X145287D01*
X144894Y90945D02*
X145287D01*
X46850Y73228D02*
X77953D01*
X46850D02*
Y105889D01*
X142126Y106299D02*
X173622D01*
Y138189D01*
X142126D02*
X173622D01*
X110236Y106299D02*
X142126D01*
X108661Y138189D02*
X142126D01*
X78347D02*
X110236D01*
X38189D02*
X78347D01*
X38189Y91441D02*
Y138189D01*
X7087Y91339D02*
X38087D01*
X7087Y138189D02*
X38189D01*
X-40157D02*
X7087D01*
Y91339D02*
Y138189D01*
X-40157Y91339D02*
X7087D01*
X37992Y48228D02*
X38386D01*
X37992Y45472D02*
X38386D01*
X92716Y69095D02*
X93110D01*
X92716Y71850D02*
X93110D01*
X147028Y42662D02*
X147422D01*
X147028Y45418D02*
X147422D01*
X147028Y47780D02*
X147422D01*
X147028Y50536D02*
X147422D01*
X67520Y104707D02*
X67913D01*
X67520Y101951D02*
X67913D01*
X252953Y115551D02*
X253346D01*
X252953Y118307D02*
X253346D01*
X198757Y75000D02*
X199150D01*
X198757Y77756D02*
X199150D01*
X252152Y75000D02*
X252546D01*
X252152Y77756D02*
X252546D01*
X30118Y128150D02*
X30512D01*
X30118Y125394D02*
X30512D01*
X-2953Y45472D02*
X-2559D01*
X-2953Y48228D02*
X-2559D01*
X125565Y48862D02*
Y49255D01*
X122809Y48862D02*
Y49255D01*
X236417Y106496D02*
Y106890D01*
X239173Y106496D02*
Y106890D01*
X266719Y60433D02*
Y60827D01*
X269475Y60433D02*
Y60827D01*
X270669Y106496D02*
Y106890D01*
X267913Y106496D02*
Y106890D01*
X248998Y100787D02*
X258053D01*
X248998D02*
Y112598D01*
X258053D01*
Y100787D02*
Y112598D01*
X29134Y118504D02*
X31496D01*
X29134Y109843D02*
X31496D01*
X29134D02*
Y118504D01*
X31496Y109843D02*
Y118504D01*
X236010Y60433D02*
Y60827D01*
X238766Y60433D02*
Y60827D01*
X213324Y60433D02*
Y60827D01*
X216080Y60433D02*
Y60827D01*
X182615Y60433D02*
Y60827D01*
X185371Y60433D02*
Y60827D01*
X10236Y103740D02*
Y104134D01*
X13386Y103740D02*
Y104134D01*
X68898Y85948D02*
Y94610D01*
X66535Y85948D02*
Y94610D01*
Y85948D02*
X68898D01*
X66535Y94610D02*
X68898D01*
X252805Y49803D02*
X253199D01*
X252805Y52559D02*
X253199D01*
X257270Y54724D02*
Y66535D01*
X248215D02*
X257270D01*
X248215Y54724D02*
Y66535D01*
Y54724D02*
X257270D01*
X199409Y49803D02*
X199803D01*
X199409Y52559D02*
X199803D01*
X203875Y54724D02*
Y66535D01*
X194820D02*
X203875D01*
X194820Y54724D02*
Y66535D01*
Y54724D02*
X203875D01*
X252411Y68307D02*
X252805D01*
X252411Y71063D02*
X252805D01*
X53347Y90533D02*
X53740D01*
X53347Y87384D02*
X53740D01*
X199016Y68307D02*
X199409D01*
X199016Y71063D02*
X199409D01*
X184707Y21977D02*
X184051Y22633D01*
X182739D01*
X182083Y21977D01*
Y19354D01*
X182739Y18698D01*
X184051D01*
X184707Y19354D01*
Y20665D01*
X183395D01*
X186019Y18698D02*
Y22633D01*
X188643Y18698D01*
Y22633D01*
X189955D02*
Y18698D01*
X191923D01*
X192579Y19354D01*
Y21977D01*
X191923Y22633D01*
X189955D01*
X181690Y31032D02*
X182346Y31688D01*
X183658D01*
X184314Y31032D01*
Y30377D01*
X183658Y29721D01*
X183002D01*
X183658D01*
X184314Y29065D01*
Y28409D01*
X183658Y27753D01*
X182346D01*
X181690Y28409D01*
X185626Y31688D02*
Y29065D01*
X186937Y27753D01*
X188249Y29065D01*
Y31688D01*
X189561Y31032D02*
X190217Y31688D01*
X191529D01*
X192185Y31032D01*
Y30377D01*
X191529Y29721D01*
X190873D01*
X191529D01*
X192185Y29065D01*
Y28409D01*
X191529Y27753D01*
X190217D01*
X189561Y28409D01*
X188644Y11610D02*
X186021D01*
Y9642D01*
X187332Y10298D01*
X187988D01*
X188644Y9642D01*
Y8330D01*
X187988Y7674D01*
X186677D01*
X186021Y8330D01*
X189956Y11610D02*
Y8986D01*
X191268Y7674D01*
X192580Y8986D01*
Y11610D01*
X218172D02*
X215548D01*
Y9642D01*
X216860Y10298D01*
X217516D01*
X218172Y9642D01*
Y8330D01*
X217516Y7674D01*
X216204D01*
X215548Y8330D01*
X219484Y11610D02*
Y8986D01*
X220796Y7674D01*
X222108Y8986D01*
Y11610D01*
X218172Y21584D02*
X217516Y22240D01*
X216204D01*
X215548Y21584D01*
Y18960D01*
X216204Y18304D01*
X217516D01*
X218172Y18960D01*
Y20272D01*
X216860D01*
X219484Y18304D02*
Y22240D01*
X222108Y18304D01*
Y22240D01*
X223419D02*
Y18304D01*
X225387D01*
X226043Y18960D01*
Y21584D01*
X225387Y22240D01*
X223419D01*
X215154Y31426D02*
X215810Y32082D01*
X217122D01*
X217778Y31426D01*
Y30770D01*
X217122Y30114D01*
X216466D01*
X217122D01*
X217778Y29458D01*
Y28802D01*
X217122Y28146D01*
X215810D01*
X215154Y28802D01*
X219090Y32082D02*
Y29458D01*
X220402Y28146D01*
X221714Y29458D01*
Y32082D01*
X223026Y31426D02*
X223682Y32082D01*
X224994D01*
X225650Y31426D01*
Y30770D01*
X224994Y30114D01*
X224338D01*
X224994D01*
X225650Y29458D01*
Y28802D01*
X224994Y28146D01*
X223682D01*
X223026Y28802D01*
D14*
X209260Y99405D02*
D03*
X262725Y100193D02*
D03*
X261943Y54130D02*
D03*
X208547D02*
D03*
D15*
X205906Y88583D02*
Y94095D01*
X200905Y93339D02*
Y94095D01*
X210906D01*
Y93339D02*
Y94095D01*
Y88583D02*
Y89339D01*
X200905Y88583D02*
X210906D01*
X200905D02*
Y89339D01*
X205906Y46850D02*
X211417D01*
X205906Y41850D02*
X206661D01*
X205906D02*
Y51850D01*
X206661D01*
X210661D02*
X211417D01*
Y41850D02*
Y51850D01*
X210661Y41850D02*
X211417D01*
X94001Y107874D02*
Y108630D01*
Y107874D02*
X104000D01*
Y108630D01*
Y112630D02*
Y113386D01*
X94001D02*
X104000D01*
X94001Y112630D02*
Y113386D01*
X99001Y107874D02*
Y113386D01*
X76504Y110238D02*
X80654D01*
X76504D02*
Y115388D01*
X80654D01*
X86937Y110238D02*
X87953Y111254D01*
X83804Y110238D02*
X86937D01*
X87953Y111254D02*
Y114175D01*
X86741Y115388D02*
X87953Y114175D01*
X83804Y115388D02*
X86741D01*
X111992Y110417D02*
X116142D01*
X111992D02*
Y115567D01*
X116142D01*
X122425Y110417D02*
X123441Y111433D01*
X119291Y110417D02*
X122425D01*
X123441Y111433D02*
Y114354D01*
X122228Y115567D02*
X123441Y114354D01*
X119291Y115567D02*
X122228D01*
X133571Y108053D02*
Y113565D01*
X128571Y112809D02*
Y113565D01*
X138571D01*
Y112809D02*
Y113565D01*
Y108053D02*
Y108809D01*
X128571Y108053D02*
X138571D01*
X128571D02*
Y108809D01*
X166142Y107874D02*
Y113386D01*
X161142Y112630D02*
Y113386D01*
X171142D01*
Y112630D02*
Y113386D01*
Y107874D02*
Y108630D01*
X161142Y107874D02*
X171142D01*
X161142D02*
Y108630D01*
X103724Y78671D02*
X107874D01*
X103724D02*
Y83820D01*
X107874D01*
X114157Y78671D02*
X115173Y79686D01*
X111024Y78671D02*
X114157D01*
X115173Y79686D02*
Y82608D01*
X113961Y83820D02*
X115173Y82608D01*
X111024Y83820D02*
X113961D01*
X121484Y76306D02*
Y77062D01*
Y76306D02*
X131484D01*
Y77062D01*
Y81062D02*
Y81818D01*
X121484D02*
X131484D01*
X121484Y81062D02*
Y81818D01*
X126484Y76306D02*
Y81818D01*
X-18898Y116354D02*
X-15961D01*
X-14748Y115142D01*
Y112221D02*
Y115142D01*
X-18898Y111205D02*
X-15764D01*
X-14748Y112221D01*
X-26197Y116354D02*
X-22047D01*
X-26197Y111205D02*
Y116354D01*
Y111205D02*
X-22047D01*
X-15323Y98937D02*
X-14567D01*
Y108937D01*
X-15323D02*
X-14567D01*
X-20079D02*
X-19323D01*
X-20079Y98937D02*
Y108937D01*
Y98937D02*
X-19323D01*
X-20079Y103937D02*
X-14567D01*
X-4331Y99146D02*
Y104658D01*
X669Y99146D02*
Y99902D01*
X-9331Y99146D02*
X669D01*
X-9331D02*
Y99902D01*
Y103902D02*
Y104658D01*
X669D01*
Y103902D02*
Y104658D01*
X143646Y110238D02*
X147795D01*
X143646D02*
Y115388D01*
X147795D01*
X154079Y110238D02*
X155095Y111254D01*
X150945Y110238D02*
X154079D01*
X155095Y111254D02*
Y114175D01*
X153882Y115388D02*
X155095Y114175D01*
X150945Y115388D02*
X153882D01*
X57598Y107874D02*
Y108630D01*
Y107874D02*
X67598D01*
Y108630D01*
Y112630D02*
Y113386D01*
X57598D02*
X67598D01*
X57598Y112630D02*
Y113386D01*
X62598Y107874D02*
Y113386D01*
X41020Y110238D02*
X45169D01*
X41020D02*
Y115388D01*
X45169D01*
X51453Y110238D02*
X52469Y111254D01*
X48319Y110238D02*
X51453D01*
X52469Y111254D02*
Y114175D01*
X51256Y115388D02*
X52469Y114175D01*
X48319Y115388D02*
X51256D01*
X267717Y119291D02*
Y124803D01*
X272716Y119291D02*
Y120047D01*
X262717Y119291D02*
X272716D01*
X262717D02*
Y120047D01*
Y124047D02*
Y124803D01*
X272716D01*
Y124047D02*
Y124803D01*
X237795Y119291D02*
Y124803D01*
X232795Y124047D02*
Y124803D01*
X242795D01*
Y124047D02*
Y124803D01*
Y119291D02*
Y120047D01*
X232795Y119291D02*
X242795D01*
X232795D02*
Y120047D01*
X86221Y48425D02*
Y59449D01*
X99606Y48425D02*
Y59449D01*
X75590Y68323D02*
X79740D01*
Y63173D02*
Y68323D01*
X75590Y63173D02*
X79740D01*
X68291Y67307D02*
X69307Y68323D01*
X72441D01*
X68291Y64386D02*
Y67307D01*
Y64386D02*
X69504Y63173D01*
X72441D01*
X128902Y44434D02*
Y48583D01*
X134052D01*
Y44434D02*
Y48583D01*
X128902Y38150D02*
X129918Y37135D01*
X128902Y38150D02*
Y41284D01*
X129918Y37135D02*
X132839D01*
X134052Y38347D01*
Y41284D01*
X163567Y42943D02*
Y47093D01*
X168717D01*
Y42943D02*
Y47093D01*
X163567Y36660D02*
X164583Y35644D01*
X163567Y36660D02*
Y39794D01*
X164583Y35644D02*
X167504D01*
X168717Y36856D01*
Y39794D01*
X175651Y105905D02*
X181163D01*
X175651Y100906D02*
X176407D01*
X175651D02*
Y110906D01*
X176407D01*
X180407D02*
X181163D01*
Y100906D02*
Y110906D01*
X180407Y100906D02*
X181163D01*
X188583Y117717D02*
Y123228D01*
X183583Y122472D02*
Y123228D01*
X193583D01*
Y122472D02*
Y123228D01*
Y117717D02*
Y118472D01*
X183583Y117717D02*
X193583D01*
X183583D02*
Y118472D01*
X218958Y105905D02*
X224470D01*
X218958Y100906D02*
X219714D01*
X218958D02*
Y110906D01*
X219714D01*
X223714D02*
X224470D01*
Y100906D02*
Y110906D01*
X223714Y100906D02*
X224470D01*
X211811Y117717D02*
Y123228D01*
X216811Y117717D02*
Y118472D01*
X206811Y117717D02*
X216811D01*
X206811D02*
Y118472D01*
Y122472D02*
Y123228D01*
X216811D01*
Y122472D02*
Y123228D01*
X188583Y93307D02*
X194095D01*
X188583Y88307D02*
X189339D01*
X188583D02*
Y98307D01*
X189339D01*
X193339D02*
X194095D01*
Y88307D02*
Y98307D01*
X193339Y88307D02*
X194095D01*
X156862Y77756D02*
Y78512D01*
Y77756D02*
X166862D01*
Y78512D01*
Y82512D02*
Y83268D01*
X156862D02*
X166862D01*
X156862Y82512D02*
Y83268D01*
X161862Y77756D02*
Y83268D01*
X139366Y80120D02*
X143516D01*
X139366D02*
Y85270D01*
X143516D01*
X149799Y80120D02*
X150815Y81136D01*
X146665Y80120D02*
X149799D01*
X150815Y81136D02*
Y84057D01*
X149602Y85270D02*
X150815Y84057D01*
X146665Y85270D02*
X149602D01*
X15787Y103937D02*
X21299D01*
X15787Y98937D02*
X16543D01*
X15787D02*
Y108937D01*
X16543D01*
X20543D02*
X21299D01*
Y98937D02*
Y108937D01*
X20543Y98937D02*
X21299D01*
X70315Y77344D02*
Y82856D01*
X65315Y82100D02*
Y82856D01*
X75315D01*
Y82100D02*
Y82856D01*
Y77344D02*
Y78100D01*
X65315Y77344D02*
X75315D01*
X65315D02*
Y78100D01*
X71457Y13189D02*
Y19094D01*
Y13189D02*
X89173D01*
Y19094D01*
X71457D02*
X89173D01*
X91535Y13976D02*
Y31693D01*
X97441D01*
Y13976D02*
Y31693D01*
X91535Y13976D02*
X97441D01*
X55118Y84858D02*
X58055D01*
X59268Y83646D01*
Y80724D02*
Y83646D01*
X55118Y79709D02*
X58252D01*
X59268Y80724D01*
X47819Y84858D02*
X51968D01*
X47819Y79709D02*
Y84858D01*
Y79709D02*
X51968D01*
X9630Y111205D02*
X13780D01*
X9630D02*
Y116354D01*
X13780D01*
X20063Y111205D02*
X21079Y112221D01*
X16929Y111205D02*
X20063D01*
X21079Y112221D02*
Y115142D01*
X19866Y116354D02*
X21079Y115142D01*
X16929Y116354D02*
X19866D01*
X107461Y55457D02*
Y66481D01*
X120847Y55457D02*
Y66481D01*
X155492Y55457D02*
Y66481D01*
X142107Y55457D02*
Y66481D01*
X271640Y60630D02*
X277152D01*
X271640Y55630D02*
X272396D01*
X271640D02*
Y65630D01*
X272396D01*
X276396D02*
X277152D01*
Y55630D02*
Y65630D01*
X276396Y55630D02*
X277152D01*
X233496Y101693D02*
X234252D01*
Y111693D01*
X233496D02*
X234252D01*
X228740D02*
X229496D01*
X228740Y101693D02*
Y111693D01*
Y101693D02*
X229496D01*
X228740Y106693D02*
X234252D01*
X277984Y101693D02*
X278740D01*
Y111693D01*
X277984D02*
X278740D01*
X273228D02*
X273984D01*
X273228Y101693D02*
Y111693D01*
Y101693D02*
X273984D01*
X273228Y106693D02*
X278740D01*
X261449Y178858D02*
X262205D01*
Y188858D01*
X261449D02*
X262205D01*
X256693D02*
X257449D01*
X256693Y178858D02*
Y188858D01*
Y178858D02*
X257449D01*
X256693Y183858D02*
X262205D01*
X235994Y73622D02*
Y74378D01*
Y73622D02*
X245994D01*
Y74378D01*
Y78378D02*
Y79134D01*
X235994D02*
X245994D01*
X235994Y78378D02*
Y79134D01*
X240994Y73622D02*
Y79134D01*
X223001Y55630D02*
X223757D01*
Y65630D01*
X223001D02*
X223757D01*
X218245D02*
X219001D01*
X218245Y55630D02*
Y65630D01*
Y55630D02*
X219001D01*
X218245Y60630D02*
X223757D01*
X179694Y55630D02*
X180450D01*
Y65630D01*
X179694D02*
X180450D01*
X174938D02*
X175694D01*
X174938Y55630D02*
Y65630D01*
Y55630D02*
X175694D01*
X174938Y60630D02*
X180450D01*
X182598Y73622D02*
Y74378D01*
Y73622D02*
X192598D01*
Y74378D01*
Y78378D02*
Y79134D01*
X182598D02*
X192598D01*
X182598Y78378D02*
Y79134D01*
X187598Y73622D02*
Y79134D01*
X233089Y55630D02*
X233845D01*
Y65630D01*
X233089D02*
X233845D01*
X228333D02*
X229089D01*
X228333Y55630D02*
Y65630D01*
Y55630D02*
X229089D01*
X228333Y60630D02*
X233845D01*
X111221Y13976D02*
Y31693D01*
X117126D01*
Y13976D02*
Y31693D01*
X111221Y13976D02*
X117126D01*
X103347D02*
Y31693D01*
X109252D01*
Y13976D02*
Y31693D01*
X103347Y13976D02*
X109252D01*
X163386Y53543D02*
X168898D01*
X168142Y58543D02*
X168898D01*
Y48543D02*
Y58543D01*
X168142Y48543D02*
X168898D01*
X163386D02*
X164142D01*
X163386D02*
Y58543D01*
X164142D01*
X254301Y42520D02*
Y43276D01*
Y42520D02*
X264301D01*
Y43276D01*
Y47276D02*
Y48031D01*
X254301D02*
X264301D01*
X254301Y47276D02*
Y48031D01*
X259301Y42520D02*
Y48031D01*
X246094Y88701D02*
X246850D01*
Y98701D01*
X246094D02*
X246850D01*
X241339D02*
X242094D01*
X241339Y88701D02*
Y98701D01*
Y88701D02*
X242094D01*
X241339Y93701D02*
X246850D01*
X264992Y88307D02*
X265748D01*
Y98307D01*
X264992D02*
X265748D01*
X260236D02*
X260992D01*
X260236Y88307D02*
Y98307D01*
Y88307D02*
X260992D01*
X260236Y93307D02*
X265748D01*
X216158Y78378D02*
Y79134D01*
X206158D02*
X216158D01*
X206158Y78378D02*
Y79134D01*
Y73622D02*
Y74378D01*
Y73622D02*
X216158D01*
Y74378D01*
X211158Y73622D02*
Y79134D01*
X269554Y78378D02*
Y79134D01*
X259554D02*
X269554D01*
X259554Y78378D02*
Y79134D01*
Y73622D02*
Y74378D01*
Y73622D02*
X269554D01*
Y74378D01*
X264554Y73622D02*
Y79134D01*
X192852Y41850D02*
X193608D01*
Y51850D01*
X192852D02*
X193608D01*
X188097D02*
X188853D01*
X188097Y41850D02*
Y51850D01*
Y41850D02*
X188853D01*
X188097Y46850D02*
X193608D01*
X30709Y98819D02*
Y104331D01*
X35709Y98819D02*
Y99575D01*
X25709Y98819D02*
X35709D01*
X25709D02*
Y99575D01*
Y103575D02*
Y104331D01*
X35709D01*
Y103575D02*
Y104331D01*
X246248Y41850D02*
X247004D01*
Y51850D01*
X246248D02*
X247004D01*
X241492D02*
X242248D01*
X241492Y41850D02*
Y51850D01*
Y41850D02*
X242248D01*
X241492Y46850D02*
X247004D01*
X154508Y156890D02*
X150573D01*
X154508Y159514D01*
X150573D01*
Y160826D02*
Y163449D01*
Y162137D01*
X154508D01*
X151229Y167385D02*
X150573Y166729D01*
Y165417D01*
X151229Y164761D01*
X153852D01*
X154508Y165417D01*
Y166729D01*
X153852Y167385D01*
X155164Y168697D02*
Y171321D01*
X150573Y172633D02*
Y173945D01*
Y173289D01*
X154508D01*
Y172633D01*
Y173945D01*
X151229Y178536D02*
X150573Y177880D01*
Y176568D01*
X151229Y175912D01*
X151885D01*
X152541Y176568D01*
Y177880D01*
X153197Y178536D01*
X153852D01*
X154508Y177880D01*
Y176568D01*
X153852Y175912D01*
X150573Y181816D02*
Y180504D01*
X151229Y179848D01*
X153852D01*
X154508Y180504D01*
Y181816D01*
X153852Y182472D01*
X151229D01*
X150573Y181816D01*
X157369Y156890D02*
X159993D01*
X161304Y158202D01*
X159993Y159514D01*
X157369D01*
X161960Y160826D02*
Y163449D01*
X157369Y164761D02*
X161304D01*
X159337D01*
Y167385D01*
X157369D01*
X161304D01*
X158025Y171321D02*
X157369Y170665D01*
Y169353D01*
X158025Y168697D01*
X158681D01*
X159337Y169353D01*
Y170665D01*
X159993Y171321D01*
X160649D01*
X161304Y170665D01*
Y169353D01*
X160649Y168697D01*
X161960Y172633D02*
Y175257D01*
X161304Y176568D02*
X157369D01*
Y178536D01*
X158025Y179192D01*
X159337D01*
X159993Y178536D01*
Y176568D01*
X157369Y180504D02*
X161304D01*
X159993Y181816D01*
X161304Y183128D01*
X157369D01*
X161304Y184440D02*
X157369D01*
X158681Y185752D01*
X157369Y187064D01*
X161304D01*
X170305Y156890D02*
X173585D01*
X174241Y157546D01*
Y158858D01*
X173585Y159514D01*
X170305D01*
X174897Y160826D02*
Y163449D01*
X170305Y164761D02*
X174241D01*
X172273D01*
Y167385D01*
X170305D01*
X174241D01*
X170961Y171321D02*
X170305Y170665D01*
Y169353D01*
X170961Y168697D01*
X171617D01*
X172273Y169353D01*
Y170665D01*
X172929Y171321D01*
X173585D01*
X174241Y170665D01*
Y169353D01*
X173585Y168697D01*
X174897Y172633D02*
Y175257D01*
X174241Y176568D02*
X170305D01*
Y178536D01*
X170961Y179192D01*
X172273D01*
X172929Y178536D01*
Y176568D01*
X170305Y180504D02*
X174241D01*
X172929Y181816D01*
X174241Y183128D01*
X170305D01*
X174241Y184440D02*
X170305D01*
X171617Y185752D01*
X170305Y187064D01*
X174241D01*
X177101Y156890D02*
X181037D01*
X179725Y158202D01*
X181037Y159514D01*
X177101D01*
X181693Y160826D02*
Y163449D01*
X177101Y164761D02*
X181037D01*
X179069D01*
Y167385D01*
X177101D01*
X181037D01*
X177757Y171321D02*
X177101Y170665D01*
Y169353D01*
X177757Y168697D01*
X178413D01*
X179069Y169353D01*
Y170665D01*
X179725Y171321D01*
X180381D01*
X181037Y170665D01*
Y169353D01*
X180381Y168697D01*
X181693Y172633D02*
Y175257D01*
X181037Y176568D02*
X177101D01*
Y178536D01*
X177757Y179192D01*
X179069D01*
X179725Y178536D01*
Y176568D01*
X177101Y180504D02*
X181037D01*
X179725Y181816D01*
X181037Y183128D01*
X177101D01*
X181037Y184440D02*
X177101D01*
X178413Y185752D01*
X177101Y187064D01*
X181037D01*
X39961Y126837D02*
Y130773D01*
X41928D01*
X42584Y130117D01*
Y128805D01*
X41928Y128149D01*
X39961D01*
X41273D02*
X42584Y126837D01*
X43896Y129461D02*
X46520Y126837D01*
X45208Y128149D01*
X46520Y129461D01*
X43896Y126837D01*
X47832Y126181D02*
X50456D01*
X54392Y130117D02*
X53736Y130773D01*
X52424D01*
X51768Y130117D01*
Y127493D01*
X52424Y126837D01*
X53736D01*
X54392Y127493D01*
X74213Y126837D02*
Y130773D01*
X76180D01*
X76836Y130117D01*
Y128805D01*
X76180Y128149D01*
X74213D01*
X75524D02*
X76836Y126837D01*
X78148Y129461D02*
X80772Y126837D01*
X79460Y128149D01*
X80772Y129461D01*
X78148Y126837D01*
X82084Y126181D02*
X84708D01*
X86020Y130773D02*
Y126837D01*
X87988D01*
X88644Y127493D01*
Y128149D01*
X87988Y128805D01*
X86020D01*
X87988D01*
X88644Y129461D01*
Y130117D01*
X87988Y130773D01*
X86020D01*
X109646Y126837D02*
Y130773D01*
X111614D01*
X112269Y130117D01*
Y128805D01*
X111614Y128149D01*
X109646D01*
X110958D02*
X112269Y126837D01*
X113581Y129461D02*
X116205Y126837D01*
X114893Y128149D01*
X116205Y129461D01*
X113581Y126837D01*
X117517Y126181D02*
X120141D01*
X124077Y130773D02*
X121453D01*
Y126837D01*
X124077D01*
X121453Y128805D02*
X122765D01*
X-39961Y96914D02*
X-37337D01*
X-38649D01*
Y92979D01*
X-36025Y95603D02*
X-33401Y92979D01*
X-34713Y94291D01*
X-33401Y95603D01*
X-36025Y92979D01*
X-32089Y92323D02*
X-29465D01*
X-28153Y92979D02*
Y95603D01*
X-26842Y96914D01*
X-25530Y95603D01*
Y92979D01*
Y94947D01*
X-28153D01*
X176182Y119356D02*
X175526Y118700D01*
Y117388D01*
X176182Y116732D01*
X178806D01*
X179462Y117388D01*
Y118700D01*
X178806Y119356D01*
X176182Y123292D02*
X175526Y122636D01*
Y121324D01*
X176182Y120668D01*
X178806D01*
X179462Y121324D01*
Y122636D01*
X178806Y123292D01*
X180118Y124604D02*
Y127228D01*
X179462Y128540D02*
X176838D01*
X175526Y129851D01*
X176838Y131163D01*
X179462D01*
X177494D01*
Y128540D01*
X262402Y139566D02*
Y136942D01*
X263714Y135630D01*
X265025Y136942D01*
Y139566D01*
X266337D02*
Y135630D01*
X268305D01*
X268961Y136286D01*
Y138910D01*
X268305Y139566D01*
X266337D01*
X272897Y138910D02*
X272241Y139566D01*
X270929D01*
X270273Y138910D01*
Y136286D01*
X270929Y135630D01*
X272241D01*
X272897Y136286D01*
X276833Y138910D02*
X276177Y139566D01*
X274865D01*
X274209Y138910D01*
Y136286D01*
X274865Y135630D01*
X276177D01*
X276833Y136286D01*
X227757Y73293D02*
X227101Y72637D01*
Y71325D01*
X227757Y70669D01*
X230381D01*
X231037Y71325D01*
Y72637D01*
X230381Y73293D01*
X227757Y77229D02*
X227101Y76573D01*
Y75261D01*
X227757Y74605D01*
X230381D01*
X231037Y75261D01*
Y76573D01*
X230381Y77229D01*
X231693Y78541D02*
Y81165D01*
X227757Y85100D02*
X227101Y84444D01*
Y83132D01*
X227757Y82477D01*
X230381D01*
X231037Y83132D01*
Y84444D01*
X230381Y85100D01*
X176182Y72899D02*
X175526Y72243D01*
Y70932D01*
X176182Y70276D01*
X178806D01*
X179462Y70932D01*
Y72243D01*
X178806Y72899D01*
X176182Y76835D02*
X175526Y76179D01*
Y74867D01*
X176182Y74211D01*
X178806D01*
X179462Y74867D01*
Y76179D01*
X178806Y76835D01*
X180118Y78147D02*
Y80771D01*
X175526Y82083D02*
X179462D01*
Y84051D01*
X178806Y84707D01*
X178150D01*
X177494Y84051D01*
Y82083D01*
Y84051D01*
X176838Y84707D01*
X176182D01*
X175526Y84051D01*
Y82083D01*
X48622Y96916D02*
Y100852D01*
X50590D01*
X51246Y100196D01*
Y98884D01*
X50590Y98228D01*
X48622D01*
X49934D02*
X51246Y96916D01*
X52558Y99540D02*
X55182Y96916D01*
X53870Y98228D01*
X55182Y99540D01*
X52558Y96916D01*
X56494Y96260D02*
X59117D01*
X60429Y100852D02*
Y96916D01*
X62397D01*
X63053Y97572D01*
Y100196D01*
X62397Y100852D01*
X60429D01*
X139173Y96916D02*
Y100852D01*
X141141D01*
X141797Y100196D01*
Y98884D01*
X141141Y98228D01*
X139173D01*
X140485D02*
X141797Y96916D01*
X143109Y99540D02*
X145733Y96916D01*
X144421Y98228D01*
X145733Y99540D01*
X143109Y96916D01*
X147045Y96260D02*
X149669D01*
X153604Y100852D02*
X150980D01*
Y98884D01*
X152292D01*
X150980D01*
Y96916D01*
X143504Y126837D02*
Y130773D01*
X145472D01*
X146128Y130117D01*
Y128805D01*
X145472Y128149D01*
X143504D01*
X144816D02*
X146128Y126837D01*
X147440Y129461D02*
X150064Y126837D01*
X148752Y128149D01*
X150064Y129461D01*
X147440Y126837D01*
X151375Y126181D02*
X153999D01*
X157935Y130117D02*
X157279Y130773D01*
X155967D01*
X155311Y130117D01*
Y127493D01*
X155967Y126837D01*
X157279D01*
X157935Y127493D01*
Y128805D01*
X156623D01*
X8071Y96914D02*
X10695D01*
X9383D01*
Y92979D01*
X12007Y95603D02*
X14630Y92979D01*
X13318Y94291D01*
X14630Y95603D01*
X12007Y92979D01*
X15942Y92323D02*
X18566D01*
X19878Y96914D02*
Y92979D01*
X21846D01*
X22502Y93635D01*
Y94291D01*
X21846Y94947D01*
X19878D01*
X21846D01*
X22502Y95603D01*
Y96259D01*
X21846Y96914D01*
X19878D01*
X69490Y47638D02*
Y51574D01*
X71458D01*
X72114Y50918D01*
Y49606D01*
X71458Y48950D01*
X69490D01*
X70802D02*
X72114Y47638D01*
X73426D02*
X74737D01*
X74081D01*
Y51574D01*
X73426Y50918D01*
X76705Y51574D02*
X79329D01*
Y50918D01*
X76705Y48294D01*
Y47638D01*
X164698Y-394D02*
X162074D01*
Y-2362D01*
X163386Y-1706D01*
X164042D01*
X164698Y-2362D01*
Y-3674D01*
X164042Y-4330D01*
X162731D01*
X162074Y-3674D01*
X166010Y-394D02*
Y-3018D01*
X167322Y-4330D01*
X168634Y-3018D01*
Y-394D01*
X47530Y11770D02*
X44907D01*
Y9802D01*
X46219Y10458D01*
X46875D01*
X47530Y9802D01*
Y8490D01*
X46875Y7834D01*
X45563D01*
X44907Y8490D01*
X48842Y11770D02*
Y9146D01*
X50154Y7834D01*
X51466Y9146D01*
Y11770D01*
X52778Y7178D02*
X55402D01*
X56714Y11770D02*
X58026D01*
X57370D01*
Y7834D01*
X56714D01*
X58026D01*
X59994D02*
Y10458D01*
X61962D01*
X62617Y9802D01*
Y7834D01*
X63929Y10458D02*
X65241Y7834D01*
X66553Y10458D01*
X69833Y7834D02*
X68521D01*
X67865Y8490D01*
Y9802D01*
X68521Y10458D01*
X69833D01*
X70489Y9802D01*
Y9146D01*
X67865D01*
X71801Y10458D02*
Y7834D01*
Y9146D01*
X72457Y9802D01*
X73113Y10458D01*
X73769D01*
X76393Y11114D02*
Y10458D01*
X75737D01*
X77049D01*
X76393D01*
Y8490D01*
X77049Y7834D01*
X80984D02*
X79672D01*
X79016Y8490D01*
Y9802D01*
X79672Y10458D01*
X80984D01*
X81640Y9802D01*
Y9146D01*
X79016D01*
X82952Y10458D02*
Y7834D01*
Y9146D01*
X83608Y9802D01*
X84264Y10458D01*
X84920D01*
X133445Y60774D02*
X129509D01*
Y62742D01*
X130165Y63398D01*
X131477D01*
X132133Y62742D01*
Y60774D01*
Y62086D02*
X133445Y63398D01*
Y64710D02*
Y66022D01*
Y65366D01*
X129509D01*
X130165Y64710D01*
X129509Y70613D02*
X130165Y69301D01*
X131477Y67989D01*
X132789D01*
X133445Y68645D01*
Y69957D01*
X132789Y70613D01*
X132133D01*
X131477Y69957D01*
Y67989D01*
X256038Y157086D02*
X258661Y153150D01*
Y157086D02*
X256038Y153150D01*
X259973D02*
X261285D01*
X260629D01*
Y157086D01*
X259973Y156430D01*
X230708Y91078D02*
X227560D01*
Y92652D01*
X228084Y93177D01*
X229134D01*
X229659Y92652D01*
Y91078D01*
Y92127D02*
X230708Y93177D01*
Y96325D02*
Y94226D01*
X228609Y96325D01*
X228084D01*
X227560Y95800D01*
Y94751D01*
X228084Y94226D01*
Y97375D02*
X227560Y97899D01*
Y98949D01*
X228084Y99474D01*
X228609D01*
X229134Y98949D01*
Y98424D01*
Y98949D01*
X229659Y99474D01*
X230183D01*
X230708Y98949D01*
Y97899D01*
X230183Y97375D01*
X232022Y114961D02*
Y118110D01*
X233597D01*
X234121Y117585D01*
Y116535D01*
X233597Y116011D01*
X232022D01*
X233072D02*
X234121Y114961D01*
X237270D02*
X235171D01*
X237270Y117060D01*
Y117585D01*
X236745Y118110D01*
X235696D01*
X235171Y117585D01*
X240419Y114961D02*
X238319D01*
X240419Y117060D01*
Y117585D01*
X239894Y118110D01*
X238844D01*
X238319Y117585D01*
X264306Y114961D02*
Y118110D01*
X265880D01*
X266405Y117585D01*
Y116535D01*
X265880Y116011D01*
X264306D01*
X265355D02*
X266405Y114961D01*
X269553D02*
X267454D01*
X269553Y117060D01*
Y117585D01*
X269029Y118110D01*
X267979D01*
X267454Y117585D01*
X270603D02*
X271128Y118110D01*
X272177D01*
X272702Y117585D01*
Y115486D01*
X272177Y114961D01*
X271128D01*
X270603Y115486D01*
Y117585D01*
X280314Y92127D02*
X277166D01*
Y93702D01*
X277691Y94226D01*
X278740D01*
X279265Y93702D01*
Y92127D01*
Y93177D02*
X280314Y94226D01*
Y95276D02*
Y96325D01*
Y95801D01*
X277166D01*
X277691Y95276D01*
Y97900D02*
X277166Y98425D01*
Y99474D01*
X277691Y99999D01*
X278215D01*
X278740Y99474D01*
X279265Y99999D01*
X279790D01*
X280314Y99474D01*
Y98425D01*
X279790Y97900D01*
X279265D01*
X278740Y98425D01*
X278215Y97900D01*
X277691D01*
X278740Y98425D02*
Y99474D01*
X177619Y91471D02*
X174470D01*
Y93046D01*
X174995Y93570D01*
X176044D01*
X176569Y93046D01*
Y91471D01*
Y92521D02*
X177619Y93570D01*
X174470Y94620D02*
Y96719D01*
X174995D01*
X177094Y94620D01*
X177619D01*
Y97768D02*
X175520D01*
X174470Y98818D01*
X175520Y99867D01*
X177619D01*
X176044D01*
Y97768D01*
X183535Y113780D02*
Y116929D01*
X185109D01*
X185634Y116404D01*
Y115354D01*
X185109Y114830D01*
X183535D01*
X184584D02*
X185634Y113780D01*
X188783Y116929D02*
X187733Y116404D01*
X186684Y115354D01*
Y114305D01*
X187208Y113780D01*
X188258D01*
X188783Y114305D01*
Y114830D01*
X188258Y115354D01*
X186684D01*
X189832Y113780D02*
Y115879D01*
X190882Y116929D01*
X191931Y115879D01*
Y113780D01*
Y115354D01*
X189832D01*
X223622Y90290D02*
X220473D01*
Y91864D01*
X220998Y92389D01*
X222047D01*
X222572Y91864D01*
Y90290D01*
Y91340D02*
X223622Y92389D01*
Y95538D02*
Y93439D01*
X221522Y95538D01*
X220998D01*
X220473Y95013D01*
Y93963D01*
X220998Y93439D01*
X223622Y96587D02*
X221522D01*
X220473Y97637D01*
X221522Y98686D01*
X223622D01*
X222047D01*
Y96587D01*
X256825Y172245D02*
Y176181D01*
X258793D01*
X259449Y175524D01*
Y174213D01*
X258793Y173557D01*
X256825D01*
X258137D02*
X259449Y172245D01*
X260761D02*
X262073D01*
X261417D01*
Y176181D01*
X260761Y175524D01*
X232809Y93177D02*
X232284Y92652D01*
Y91602D01*
X232809Y91078D01*
X234908D01*
X235433Y91602D01*
Y92652D01*
X234908Y93177D01*
X232809Y94226D02*
X232284Y94751D01*
Y95800D01*
X232809Y96325D01*
X233333D01*
X233858Y95800D01*
Y95276D01*
Y95800D01*
X234383Y96325D01*
X234908D01*
X235433Y95800D01*
Y94751D01*
X234908Y94226D01*
X235433Y98949D02*
X232284D01*
X233858Y97375D01*
Y99474D01*
X272572Y93964D02*
X272048Y93439D01*
Y92390D01*
X272572Y91865D01*
X274672D01*
X275196Y92390D01*
Y93439D01*
X274672Y93964D01*
X275196Y97113D02*
Y95013D01*
X273097Y97113D01*
X272572D01*
X272048Y96588D01*
Y95538D01*
X272572Y95013D01*
Y98162D02*
X272048Y98687D01*
Y99736D01*
X272572Y100261D01*
X273097D01*
X273622Y99736D01*
X274147Y100261D01*
X274672D01*
X275196Y99736D01*
Y98687D01*
X274672Y98162D01*
X274147D01*
X273622Y98687D01*
X273097Y98162D01*
X272572D01*
X273622Y98687D02*
Y99736D01*
X179265Y93570D02*
X178741Y93046D01*
Y91996D01*
X179265Y91471D01*
X181365D01*
X181889Y91996D01*
Y93046D01*
X181365Y93570D01*
X178741Y94620D02*
Y96719D01*
X179265D01*
X181365Y94620D01*
X181889D01*
Y97768D02*
X179790D01*
X178741Y98818D01*
X179790Y99867D01*
X181889D01*
X180315D01*
Y97768D01*
X216667Y92651D02*
X216142Y92127D01*
Y91077D01*
X216667Y90553D01*
X218766D01*
X219291Y91077D01*
Y92127D01*
X218766Y92651D01*
X219291Y93701D02*
Y94751D01*
Y94226D01*
X216142D01*
X216667Y93701D01*
X219291Y96325D02*
X217192D01*
X216142Y97374D01*
X217192Y98424D01*
X219291D01*
X217717D01*
Y96325D01*
X195926Y3847D02*
X198550Y-89D01*
Y3847D02*
X195926Y-89D01*
X202485D02*
X199862D01*
X202485Y2535D01*
Y3191D01*
X201829Y3847D01*
X200518D01*
X199862Y3191D01*
X102343Y58871D02*
X105623D01*
X106279Y59526D01*
Y60838D01*
X105623Y61494D01*
X102343D01*
X102999Y62806D02*
X102343Y63462D01*
Y64774D01*
X102999Y65430D01*
X103655D01*
X104311Y64774D01*
X104967Y65430D01*
X105623D01*
X106279Y64774D01*
Y63462D01*
X105623Y62806D01*
X104967D01*
X104311Y63462D01*
X103655Y62806D01*
X102999D01*
X104311Y63462D02*
Y64774D01*
X136938Y57510D02*
X140218D01*
X140874Y58166D01*
Y59478D01*
X140218Y60134D01*
X136938D01*
Y61445D02*
Y64069D01*
X137594D01*
X140218Y61445D01*
X140874D01*
X80709Y50657D02*
X83989D01*
X84645Y51313D01*
Y52625D01*
X83989Y53281D01*
X80709D01*
Y57217D02*
X81365Y55905D01*
X82677Y54593D01*
X83989D01*
X84645Y55249D01*
Y56561D01*
X83989Y57217D01*
X83333D01*
X82677Y56561D01*
Y54593D01*
X242258Y116141D02*
Y113517D01*
X242783Y112993D01*
X243832D01*
X244357Y113517D01*
Y116141D01*
X245407Y113517D02*
X245931Y112993D01*
X246981D01*
X247506Y113517D01*
Y115617D01*
X246981Y116141D01*
X245931D01*
X245407Y115617D01*
Y115092D01*
X245931Y114567D01*
X247506D01*
X-19028Y44881D02*
Y41601D01*
X-18372Y40946D01*
X-17060D01*
X-16404Y41601D01*
Y44881D01*
X-13124Y40946D02*
Y44881D01*
X-15092Y42913D01*
X-12468D01*
X21523Y47243D02*
Y43964D01*
X22179Y43308D01*
X23491D01*
X24147Y43964D01*
Y47243D01*
X28083D02*
X25459D01*
Y45276D01*
X26771Y45932D01*
X27427D01*
X28083Y45276D01*
Y43964D01*
X27427Y43308D01*
X26115D01*
X25459Y43964D01*
X2756Y109581D02*
X5380D01*
X5905Y110106D01*
Y111156D01*
X5380Y111680D01*
X2756D01*
X3281Y112730D02*
X2756Y113255D01*
Y114304D01*
X3281Y114829D01*
X3806D01*
X4331Y114304D01*
Y113779D01*
Y114304D01*
X4856Y114829D01*
X5380D01*
X5905Y114304D01*
Y113255D01*
X5380Y112730D01*
X5905Y115879D02*
X3806D01*
X2756Y116928D01*
X3806Y117978D01*
X5905D01*
X4331D01*
Y115879D01*
X128085Y96850D02*
Y94226D01*
X128610Y93701D01*
X129660D01*
X130184Y94226D01*
Y96850D01*
X133333Y93701D02*
X131234D01*
X133333Y95800D01*
Y96325D01*
X132808Y96850D01*
X131759D01*
X131234Y96325D01*
X134382Y93701D02*
Y95800D01*
X135432Y96850D01*
X136482Y95800D01*
Y93701D01*
Y95276D01*
X134382D01*
X206361Y116141D02*
Y113517D01*
X206886Y112993D01*
X207935D01*
X208460Y113517D01*
Y116141D01*
X209509Y112993D02*
X210559D01*
X210034D01*
Y116141D01*
X209509Y115617D01*
X212133Y112993D02*
Y115092D01*
X213183Y116141D01*
X214232Y115092D01*
Y112993D01*
Y114567D01*
X212133D01*
X168503Y60041D02*
X164567D01*
Y62009D01*
X165224Y62665D01*
X166535D01*
X167191Y62009D01*
Y60041D01*
Y61353D02*
X168503Y62665D01*
Y63977D02*
Y65289D01*
Y64633D01*
X164567D01*
X165224Y63977D01*
X164567Y69880D02*
Y67256D01*
X166535D01*
X165879Y68568D01*
Y69224D01*
X166535Y69880D01*
X167847D01*
X168503Y69224D01*
Y67913D01*
X167847Y67256D01*
X69490Y41733D02*
Y45669D01*
X71458D01*
X72114Y45013D01*
Y43701D01*
X71458Y43045D01*
X69490D01*
X70802D02*
X72114Y41733D01*
X73426D02*
X74737D01*
X74081D01*
Y45669D01*
X73426Y45013D01*
X78673Y41733D02*
Y45669D01*
X76705Y43701D01*
X79329D01*
X240089Y90126D02*
X236941D01*
Y91700D01*
X237466Y92225D01*
X238515D01*
X239040Y91700D01*
Y90126D01*
Y91175D02*
X240089Y92225D01*
Y95373D02*
Y93274D01*
X237990Y95373D01*
X237466D01*
X236941Y94849D01*
Y93799D01*
X237466Y93274D01*
X240089Y96423D02*
Y97473D01*
Y96948D01*
X236941D01*
X237466Y96423D01*
X-25589Y129134D02*
Y132283D01*
X-24014D01*
X-23490Y131758D01*
Y130709D01*
X-24014Y130184D01*
X-25589D01*
X-24539D02*
X-23490Y129134D01*
X-22440D02*
X-21391D01*
X-21915D01*
Y132283D01*
X-22440Y131758D01*
X-19816D02*
X-19292Y132283D01*
X-18242D01*
X-17717Y131758D01*
Y129659D01*
X-18242Y129134D01*
X-19292D01*
X-19816Y129659D01*
Y131758D01*
X-16668Y129134D02*
Y131233D01*
X-15618Y132283D01*
X-14569Y131233D01*
Y129134D01*
Y130709D01*
X-16668D01*
X266730Y97335D02*
X269878D01*
Y95761D01*
X269354Y95236D01*
X268304D01*
X267779Y95761D01*
Y97335D01*
Y96285D02*
X266730Y95236D01*
Y94186D02*
Y93137D01*
Y93662D01*
X269878D01*
X269354Y94186D01*
X267254Y91562D02*
X266730Y91038D01*
Y89988D01*
X267254Y89464D01*
X269354D01*
X269878Y89988D01*
Y91038D01*
X269354Y91562D01*
X268829D01*
X268304Y91038D01*
Y89464D01*
X-27166Y98427D02*
X-30314D01*
Y100001D01*
X-29790Y100526D01*
X-28740D01*
X-28215Y100001D01*
Y98427D01*
Y99476D02*
X-27166Y100526D01*
Y101576D02*
Y102625D01*
Y102100D01*
X-30314D01*
X-29790Y101576D01*
X-27166Y106298D02*
Y104199D01*
X-29265Y106298D01*
X-29790D01*
X-30314Y105774D01*
Y104724D01*
X-29790Y104199D01*
X-27166Y107348D02*
X-29265D01*
X-30314Y108397D01*
X-29265Y109447D01*
X-27166D01*
X-28740D01*
Y107348D01*
X-10237Y99477D02*
X-13385D01*
Y101051D01*
X-12861Y101576D01*
X-11811D01*
X-11286Y101051D01*
Y99477D01*
Y100526D02*
X-10237Y101576D01*
Y102625D02*
Y103675D01*
Y103150D01*
X-13385D01*
X-12861Y102625D01*
X-10237Y105249D02*
Y106299D01*
Y105774D01*
X-13385D01*
X-12861Y105249D01*
X-10237Y107873D02*
X-12336D01*
X-13385Y108923D01*
X-12336Y109972D01*
X-10237D01*
X-11811D01*
Y107873D01*
X-9841Y94882D02*
Y98031D01*
X-8266D01*
X-7742Y97506D01*
Y96457D01*
X-8266Y95932D01*
X-9841D01*
X-8791D02*
X-7742Y94882D01*
X-6692D02*
X-5643D01*
X-6167D01*
Y98031D01*
X-6692Y97506D01*
X-4068D02*
X-3544Y98031D01*
X-2494D01*
X-1969Y97506D01*
Y96981D01*
X-2494Y96457D01*
X-3019D01*
X-2494D01*
X-1969Y95932D01*
Y95407D01*
X-2494Y94882D01*
X-3544D01*
X-4068Y95407D01*
X-920Y94882D02*
Y96981D01*
X130Y98031D01*
X1179Y96981D01*
Y94882D01*
Y96457D01*
X-920D01*
X120185Y75258D02*
X117036D01*
Y76832D01*
X117561Y77357D01*
X118610D01*
X119135Y76832D01*
Y75258D01*
Y76307D02*
X120185Y77357D01*
X117561Y78406D02*
X117036Y78931D01*
Y79981D01*
X117561Y80505D01*
X118086D01*
X118610Y79981D01*
X119135Y80505D01*
X119660D01*
X120185Y79981D01*
Y78931D01*
X119660Y78406D01*
X119135D01*
X118610Y78931D01*
X118086Y78406D01*
X117561D01*
X118610Y78931D02*
Y79981D01*
X120185Y81555D02*
X118086D01*
X117036Y82604D01*
X118086Y83654D01*
X120185D01*
X118610D01*
Y81555D01*
X104857Y90552D02*
Y93700D01*
X106431D01*
X106956Y93176D01*
Y92126D01*
X106431Y91601D01*
X104857D01*
X105906D02*
X106956Y90552D01*
X108006Y91076D02*
X108530Y90552D01*
X109580D01*
X110105Y91076D01*
Y93176D01*
X109580Y93700D01*
X108530D01*
X108006Y93176D01*
Y92651D01*
X108530Y92126D01*
X110105D01*
X111154Y90552D02*
Y92651D01*
X112204Y93700D01*
X113253Y92651D01*
Y90552D01*
Y92126D01*
X111154D01*
X222774Y114306D02*
X219625D01*
Y115880D01*
X220150Y116405D01*
X221200D01*
X221724Y115880D01*
Y114306D01*
Y115355D02*
X222774Y116405D01*
Y119029D02*
X219625D01*
X221200Y117454D01*
Y119553D01*
X222774Y120603D02*
X220675D01*
X219625Y121652D01*
X220675Y122702D01*
X222774D01*
X221200D01*
Y120603D01*
X187795Y89109D02*
X184646D01*
Y90683D01*
X185171Y91208D01*
X186221D01*
X186745Y90683D01*
Y89109D01*
Y90158D02*
X187795Y91208D01*
X184646Y94357D02*
Y92258D01*
X186221D01*
X185696Y93307D01*
Y93832D01*
X186221Y94357D01*
X187270D01*
X187795Y93832D01*
Y92782D01*
X187270Y92258D01*
X187795Y95406D02*
X185696D01*
X184646Y96456D01*
X185696Y97505D01*
X187795D01*
X186221D01*
Y95406D01*
X205821Y94882D02*
Y98031D01*
X207395D01*
X207920Y97506D01*
Y96457D01*
X207395Y95932D01*
X205821D01*
X206870D02*
X207920Y94882D01*
X208969Y97506D02*
X209494Y98031D01*
X210544D01*
X211069Y97506D01*
Y96982D01*
X210544Y96457D01*
X210019D01*
X210544D01*
X211069Y95932D01*
Y95407D01*
X210544Y94882D01*
X209494D01*
X208969Y95407D01*
X212118Y94882D02*
Y96982D01*
X213168Y98031D01*
X214217Y96982D01*
Y94882D01*
Y96457D01*
X212118D01*
X103938Y6563D02*
X107873D01*
Y9187D01*
Y12466D02*
X103938D01*
X105905Y10498D01*
Y13122D01*
X112705Y6555D02*
X116641D01*
Y9179D01*
X113361Y10491D02*
X112705Y11147D01*
Y12459D01*
X113361Y13114D01*
X114017D01*
X114673Y12459D01*
Y11802D01*
Y12459D01*
X115329Y13114D01*
X115985D01*
X116641Y12459D01*
Y11147D01*
X115985Y10491D01*
X92127Y6563D02*
X96062D01*
Y9187D01*
Y13122D02*
Y10498D01*
X93439Y13122D01*
X92783D01*
X92127Y12466D01*
Y11154D01*
X92783Y10498D01*
X72179Y24409D02*
Y20473D01*
X74803D01*
X76115D02*
X77427D01*
X76771D01*
Y24409D01*
X76115Y23753D01*
X6431Y183070D02*
X5119D01*
X5775D01*
Y179790D01*
X5119Y179135D01*
X4464D01*
X3808Y179790D01*
X7743Y182414D02*
X8399Y183070D01*
X9711D01*
X10367Y182414D01*
Y181758D01*
X9711Y181102D01*
X9055D01*
X9711D01*
X10367Y180446D01*
Y179790D01*
X9711Y179135D01*
X8399D01*
X7743Y179790D01*
X11679Y179135D02*
Y181758D01*
X12991Y183070D01*
X14303Y181758D01*
Y179135D01*
Y181102D01*
X11679D01*
X126195Y183070D02*
X124883D01*
X125539D01*
Y179790D01*
X124883Y179135D01*
X124227D01*
X123571Y179790D01*
X130131Y179135D02*
X127507D01*
X130131Y181758D01*
Y182414D01*
X129475Y183070D01*
X128163D01*
X127507Y182414D01*
X134067Y183070D02*
X131443D01*
Y179135D01*
X134067D01*
X131443Y181102D02*
X132755D01*
X47061Y183070D02*
X45749D01*
X46405D01*
Y179790D01*
X45749Y179135D01*
X45093D01*
X44437Y179790D01*
X50997Y179135D02*
X48373D01*
X50997Y181758D01*
Y182414D01*
X50341Y183070D01*
X49029D01*
X48373Y182414D01*
X54933D02*
X54277Y183070D01*
X52965D01*
X52309Y182414D01*
Y179790D01*
X52965Y179135D01*
X54277D01*
X54933Y179790D01*
X87140Y183070D02*
X85828D01*
X86484D01*
Y179790D01*
X85828Y179135D01*
X85172D01*
X84516Y179790D01*
X91076Y179135D02*
X88452D01*
X91076Y181758D01*
Y182414D01*
X90420Y183070D01*
X89108D01*
X88452Y182414D01*
X92388Y179135D02*
Y181758D01*
X93700Y183070D01*
X95011Y181758D01*
Y179135D01*
Y181102D01*
X92388D01*
X60500Y65354D02*
Y61418D01*
X62468D01*
X63124Y62074D01*
Y64698D01*
X62468Y65354D01*
X60500D01*
X67059D02*
X64435D01*
Y63386D01*
X65747Y64042D01*
X66403D01*
X67059Y63386D01*
Y62074D01*
X66403Y61418D01*
X65091D01*
X64435Y62074D01*
X135284Y41254D02*
Y37318D01*
X137251D01*
X137907Y37974D01*
Y40598D01*
X137251Y41254D01*
X135284D01*
X141187Y37318D02*
Y41254D01*
X139219Y39286D01*
X141843D01*
X169949Y39763D02*
Y35827D01*
X171916D01*
X172572Y36483D01*
Y39107D01*
X171916Y39763D01*
X169949D01*
X173884Y39107D02*
X174540Y39763D01*
X175852D01*
X176508Y39107D01*
Y38451D01*
X175852Y37795D01*
X175196D01*
X175852D01*
X176508Y37139D01*
Y36483D01*
X175852Y35827D01*
X174540D01*
X173884Y36483D01*
X-35694Y115420D02*
Y112272D01*
X-34120D01*
X-33595Y112796D01*
Y114895D01*
X-34120Y115420D01*
X-35694D01*
X-30446Y112272D02*
X-32546D01*
X-30446Y114371D01*
Y114895D01*
X-30971Y115420D01*
X-32021D01*
X-32546Y114895D01*
X-29397Y112272D02*
Y114371D01*
X-28348Y115420D01*
X-27298Y114371D01*
Y112272D01*
Y113846D01*
X-29397D01*
X105552Y77626D02*
Y74477D01*
X107126D01*
X107651Y75002D01*
Y77101D01*
X107126Y77626D01*
X105552D01*
X108701Y74477D02*
X109750D01*
X109225D01*
Y77626D01*
X108701Y77101D01*
X111324Y74477D02*
Y76577D01*
X112374Y77626D01*
X113423Y76577D01*
Y74477D01*
Y76052D01*
X111324D01*
X236615Y130183D02*
X236090Y130708D01*
X235040D01*
X234516Y130183D01*
Y128084D01*
X235040Y127560D01*
X236090D01*
X236615Y128084D01*
X237664Y130183D02*
X238189Y130708D01*
X239239D01*
X239763Y130183D01*
Y129659D01*
X239239Y129134D01*
X238714D01*
X239239D01*
X239763Y128609D01*
Y128084D01*
X239239Y127560D01*
X238189D01*
X237664Y128084D01*
X240813Y127560D02*
X241862D01*
X241338D01*
Y130708D01*
X240813Y130183D01*
X244226Y119554D02*
X243701Y119030D01*
Y117980D01*
X244226Y117455D01*
X246325D01*
X246850Y117980D01*
Y119030D01*
X246325Y119554D01*
X244226Y120604D02*
X243701Y121129D01*
Y122178D01*
X244226Y122703D01*
X244751D01*
X245276Y122178D01*
Y121653D01*
Y122178D01*
X245800Y122703D01*
X246325D01*
X246850Y122178D01*
Y121129D01*
X246325Y120604D01*
X244226Y123753D02*
X243701Y124277D01*
Y125327D01*
X244226Y125852D01*
X246325D01*
X246850Y125327D01*
Y124277D01*
X246325Y123753D01*
X244226D01*
X267192Y130183D02*
X266668Y130708D01*
X265618D01*
X265093Y130183D01*
Y128084D01*
X265618Y127560D01*
X266668D01*
X267192Y128084D01*
X270341Y127560D02*
X268242D01*
X270341Y129659D01*
Y130183D01*
X269816Y130708D01*
X268767D01*
X268242Y130183D01*
X271390Y128084D02*
X271915Y127560D01*
X272965D01*
X273489Y128084D01*
Y130183D01*
X272965Y130708D01*
X271915D01*
X271390Y130183D01*
Y129659D01*
X271915Y129134D01*
X273489D01*
X192389Y131758D02*
X191864Y132283D01*
X190815D01*
X190290Y131758D01*
Y129659D01*
X190815Y129134D01*
X191864D01*
X192389Y129659D01*
X195013Y129134D02*
Y132283D01*
X193439Y130709D01*
X195538D01*
X196587Y129134D02*
Y131233D01*
X197637Y132283D01*
X198686Y131233D01*
Y129134D01*
Y130709D01*
X196587D01*
X204200Y131758D02*
X203675Y132283D01*
X202626D01*
X202101Y131758D01*
Y129659D01*
X202626Y129134D01*
X203675D01*
X204200Y129659D01*
X207349Y129134D02*
X205250D01*
X207349Y131233D01*
Y131758D01*
X206824Y132283D01*
X205774D01*
X205250Y131758D01*
X208398Y129134D02*
Y131233D01*
X209448Y132283D01*
X210497Y131233D01*
Y129134D01*
Y130709D01*
X208398D01*
X251444Y93176D02*
X250920Y93700D01*
X249870D01*
X249345Y93176D01*
Y91076D01*
X249870Y90552D01*
X250920D01*
X251444Y91076D01*
X252494Y93176D02*
X253019Y93700D01*
X254068D01*
X254593Y93176D01*
Y92651D01*
X254068Y92126D01*
X253543D01*
X254068D01*
X254593Y91601D01*
Y91076D01*
X254068Y90552D01*
X253019D01*
X252494Y91076D01*
X255642Y93176D02*
X256167Y93700D01*
X257217D01*
X257741Y93176D01*
Y92651D01*
X257217Y92126D01*
X256692D01*
X257217D01*
X257741Y91601D01*
Y91076D01*
X257217Y90552D01*
X256167D01*
X255642Y91076D01*
X259187Y116405D02*
X258662Y115880D01*
Y114831D01*
X259187Y114306D01*
X261286D01*
X261810Y114831D01*
Y115880D01*
X261286Y116405D01*
X259187Y117454D02*
X258662Y117979D01*
Y119029D01*
X259187Y119553D01*
X259712D01*
X260236Y119029D01*
Y118504D01*
Y119029D01*
X260761Y119553D01*
X261286D01*
X261810Y119029D01*
Y117979D01*
X261286Y117454D01*
X261810Y122702D02*
Y120603D01*
X259712Y122702D01*
X259187D01*
X258662Y122177D01*
Y121128D01*
X259187Y120603D01*
X4791Y41863D02*
X4135Y42519D01*
X2823D01*
X2167Y41863D01*
Y39239D01*
X2823Y38583D01*
X4135D01*
X4791Y39239D01*
X6103Y38583D02*
X7415D01*
X6759D01*
Y42519D01*
X6103Y41863D01*
X12006Y42519D02*
X9382D01*
Y40551D01*
X10694Y41207D01*
X11350D01*
X12006Y40551D01*
Y39239D01*
X11350Y38583D01*
X10038D01*
X9382Y39239D01*
X4791Y47769D02*
X4135Y48425D01*
X2823D01*
X2167Y47769D01*
Y45145D01*
X2823Y44489D01*
X4135D01*
X4791Y45145D01*
X6103Y44489D02*
X7415D01*
X6759D01*
Y48425D01*
X6103Y47769D01*
X11350Y44489D02*
Y48425D01*
X9382Y46457D01*
X12006D01*
X46917Y42257D02*
X46261Y42913D01*
X44949D01*
X44293Y42257D01*
Y39633D01*
X44949Y38977D01*
X46261D01*
X46917Y39633D01*
X48229Y38977D02*
X49541D01*
X48885D01*
Y42913D01*
X48229Y42257D01*
X51508D02*
X52164Y42913D01*
X53476D01*
X54132Y42257D01*
Y41601D01*
X53476Y40945D01*
X52820D01*
X53476D01*
X54132Y40289D01*
Y39633D01*
X53476Y38977D01*
X52164D01*
X51508Y39633D01*
X46917Y48162D02*
X46261Y48818D01*
X44949D01*
X44293Y48162D01*
Y45538D01*
X44949Y44883D01*
X46261D01*
X46917Y45538D01*
X48229Y44883D02*
X49541D01*
X48885D01*
Y48818D01*
X48229Y48162D01*
X54132Y44883D02*
X51508D01*
X54132Y47506D01*
Y48162D01*
X53476Y48818D01*
X52164D01*
X51508Y48162D01*
X-7742Y132152D02*
X-8266Y132677D01*
X-9316D01*
X-9841Y132152D01*
Y130053D01*
X-9316Y129528D01*
X-8266D01*
X-7742Y130053D01*
X-6692Y129528D02*
X-5643D01*
X-6167D01*
Y132677D01*
X-6692Y132152D01*
X-4068D02*
X-3544Y132677D01*
X-2494D01*
X-1969Y132152D01*
Y130053D01*
X-2494Y129528D01*
X-3544D01*
X-4068Y130053D01*
Y132152D01*
X-920Y129528D02*
Y131627D01*
X130Y132677D01*
X1179Y131627D01*
Y129528D01*
Y131102D01*
X-920D01*
X107456Y104128D02*
X106931Y104652D01*
X105882D01*
X105357Y104128D01*
Y102028D01*
X105882Y101504D01*
X106931D01*
X107456Y102028D01*
X108506D02*
X109030Y101504D01*
X110080D01*
X110605Y102028D01*
Y104128D01*
X110080Y104652D01*
X109030D01*
X108506Y104128D01*
Y103603D01*
X109030Y103078D01*
X110605D01*
X111654Y101504D02*
Y103603D01*
X112704Y104652D01*
X113753Y103603D01*
Y101504D01*
Y103078D01*
X111654D01*
X107456Y98616D02*
X106931Y99140D01*
X105882D01*
X105357Y98616D01*
Y96517D01*
X105882Y95992D01*
X106931D01*
X107456Y96517D01*
X108506Y98616D02*
X109030Y99140D01*
X110080D01*
X110605Y98616D01*
Y98091D01*
X110080Y97566D01*
X110605Y97041D01*
Y96517D01*
X110080Y95992D01*
X109030D01*
X108506Y96517D01*
Y97041D01*
X109030Y97566D01*
X108506Y98091D01*
Y98616D01*
X109030Y97566D02*
X110080D01*
X111654Y95992D02*
Y98091D01*
X112704Y99140D01*
X113753Y98091D01*
Y95992D01*
Y97566D01*
X111654D01*
X74712Y31927D02*
X75368Y32583D01*
X76680D01*
X77336Y31927D01*
Y31271D01*
X76680Y30615D01*
X76024D01*
X76680D01*
X77336Y29959D01*
Y29303D01*
X76680Y28647D01*
X75368D01*
X74712Y29303D01*
X78648Y32583D02*
Y29959D01*
X79960Y28647D01*
X81272Y29959D01*
Y32583D01*
X82584Y31927D02*
X83240Y32583D01*
X84552D01*
X85207Y31927D01*
Y31271D01*
X84552Y30615D01*
X83896D01*
X84552D01*
X85207Y29959D01*
Y29303D01*
X84552Y28647D01*
X83240D01*
X82584Y29303D01*
X123754Y29922D02*
X121130D01*
X123754Y32546D01*
Y33202D01*
X123098Y33858D01*
X121786D01*
X121130Y33202D01*
X125066Y33858D02*
Y31234D01*
X126378Y29922D01*
X127690Y31234D01*
Y33858D01*
X131626D02*
X129002D01*
Y31890D01*
X130314Y32546D01*
X130970D01*
X131626Y31890D01*
Y30578D01*
X130970Y29922D01*
X129658D01*
X129002Y30578D01*
X149450Y29798D02*
X150762D01*
X150106D01*
Y33734D01*
X149450Y33078D01*
X152729Y33734D02*
Y31110D01*
X154041Y29798D01*
X155353Y31110D01*
Y33734D01*
X156665D02*
X159289D01*
Y33078D01*
X156665Y30454D01*
Y29798D01*
D16*
X-32661Y55823D02*
Y72523D01*
X2739Y55823D02*
Y72523D01*
X7891Y56217D02*
Y72917D01*
X43291Y56217D02*
Y72917D01*
D17*
X108858Y199449D02*
X148858D01*
X108858Y149449D02*
X148858D01*
X108858D02*
Y199449D01*
X148858Y149449D02*
Y199449D01*
X28858D02*
X68858D01*
X28858Y149449D02*
X68858D01*
X28858D02*
Y199449D01*
X68858Y149449D02*
Y199449D01*
X108858D01*
X68858Y149449D02*
X108858D01*
X68858D02*
Y199449D01*
X108858Y149449D02*
Y199449D01*
X28858Y149449D02*
Y199449D01*
X-11142Y149449D02*
Y199449D01*
Y149449D02*
X28858D01*
X-11142Y199449D02*
X28858D01*
X-20679Y126843D02*
X-19479D01*
X-20679Y121843D02*
X-19479D01*
X173762Y133346D02*
X181890D01*
X14361Y126516D02*
X15561D01*
X14361Y121516D02*
X15561D01*
D18*
X5905Y77148D02*
X2572Y73816D01*
Y77148D02*
X5905Y73816D01*
X4239Y77148D02*
Y73816D01*
X2572Y75482D02*
X5905D01*
X46456Y77542D02*
X43124Y74210D01*
Y77542D02*
X46456Y74210D01*
X44790Y77542D02*
Y74210D01*
X43124Y75876D02*
X46456D01*
D19*
X-7873Y136483D02*
X-8398Y137007D01*
X-9447D01*
X-9972Y136483D01*
Y134383D01*
X-9447Y133859D01*
X-8398D01*
X-7873Y134383D01*
X-6824Y133859D02*
X-5774D01*
X-6299D01*
Y137007D01*
X-6824Y136483D01*
X-4200Y133859D02*
X-3150D01*
X-3675D01*
Y137007D01*
X-4200Y136483D01*
X-1576Y133859D02*
Y135958D01*
X-526Y137007D01*
X523Y135958D01*
Y133859D01*
Y135433D01*
X-1576D01*
M02*
