G04*
G04 #@! TF.GenerationSoftware,Altium Limited,Altium Designer,24.10.1 (45)*
G04*
G04 Layer_Physical_Order=3*
G04 Layer_Color=16440176*
%FSLAX25Y25*%
%MOIN*%
G70*
G04*
G04 #@! TF.SameCoordinates,0A93E4DB-C83B-47C1-B495-C13E3F0CF61A*
G04*
G04*
G04 #@! TF.FilePolarity,Positive*
G04*
G01*
G75*
%ADD69R,0.05394X0.05394*%
%ADD70C,0.05394*%
%ADD72C,0.01772*%
G36*
X267224Y198340D02*
X269615Y197700D01*
X271902Y196753D01*
X274046Y195516D01*
X276010Y194009D01*
X277760Y192258D01*
X279267Y190295D01*
X280504Y188151D01*
X281452Y185863D01*
X282092Y183472D01*
X282414Y181018D01*
X282414Y179780D01*
X282414Y179780D01*
X282414Y179780D01*
X282414Y54662D01*
X282414Y53424D01*
X282090Y50970D01*
X281450Y48579D01*
X280503Y46293D01*
X279265Y44149D01*
X277758Y42185D01*
X276008Y40435D01*
X274044Y38928D01*
X271901Y37691D01*
X269614Y36744D01*
X267223Y36103D01*
X264769Y35780D01*
X263531Y35780D01*
X234004D01*
X233697Y35719D01*
X233436Y35544D01*
X233262Y35284D01*
X233201Y34977D01*
Y11119D01*
X233205Y11099D01*
X233202Y11079D01*
X233221Y10693D01*
X233236Y10635D01*
X233236Y10576D01*
X233386Y9819D01*
X233417Y9746D01*
X233432Y9669D01*
X233728Y8956D01*
X233771Y8890D01*
X233802Y8817D01*
X234230Y8175D01*
X234286Y8119D01*
X234330Y8054D01*
X234876Y7508D01*
X234942Y7464D01*
X234998Y7408D01*
X235639Y6979D01*
X235712Y6949D01*
X235778Y6905D01*
X236491Y6610D01*
X236568Y6594D01*
X236641Y6564D01*
X237398Y6413D01*
X237458Y6413D01*
X237515Y6399D01*
X237901Y6380D01*
X237921Y6383D01*
X237941Y6379D01*
X240303Y6379D01*
X240304Y6379D01*
X240304Y6379D01*
X240458Y6379D01*
X240741Y6262D01*
X240958Y6045D01*
X241075Y5761D01*
X241075Y5608D01*
X241075Y5607D01*
X241075Y5607D01*
Y977D01*
X228098Y977D01*
X228079Y973D01*
X228059Y975D01*
X227673Y957D01*
X227615Y942D01*
X227556Y942D01*
X226799Y791D01*
X226726Y761D01*
X226648Y746D01*
X225935Y450D01*
X225870Y406D01*
X225797Y376D01*
X225155Y-53D01*
X225099Y-109D01*
X225033Y-153D01*
X224488Y-698D01*
X224444Y-764D01*
X224388Y-820D01*
X223959Y-1462D01*
X223929Y-1535D01*
X223885Y-1600D01*
X223590Y-2313D01*
X223574Y-2391D01*
X223544Y-2464D01*
X223393Y-3221D01*
X223393Y-3280D01*
X223379Y-3338D01*
X223360Y-3724D01*
X223362Y-3743D01*
X223359Y-3763D01*
Y-16278D01*
X120141D01*
Y-2976D01*
X120136Y-2950D01*
X120140Y-2923D01*
X120099Y-2307D01*
X120079Y-2230D01*
X120073Y-2151D01*
X119754Y-960D01*
X119708Y-866D01*
X119674Y-766D01*
X119058Y301D01*
X118988Y381D01*
X118930Y468D01*
X118058Y1340D01*
X117971Y1398D01*
X117892Y1467D01*
X116823Y2084D01*
X116724Y2118D01*
X116630Y2164D01*
X115439Y2483D01*
X115334Y2490D01*
X115231Y2511D01*
X113997D01*
X113894Y2490D01*
X113790Y2483D01*
X112598Y2164D01*
X112504Y2118D01*
X112405Y2084D01*
X111337Y1467D01*
X111258Y1398D01*
X111170Y1340D01*
X110298Y468D01*
X110240Y381D01*
X110171Y301D01*
X109554Y-766D01*
X109520Y-866D01*
X109474Y-960D01*
X109155Y-2151D01*
X109150Y-2230D01*
X109129Y-2307D01*
X109089Y-2923D01*
X109092Y-2950D01*
X109087Y-2976D01*
Y-16278D01*
X18468D01*
X18468Y-3763D01*
X18464Y-3743D01*
X18467Y-3724D01*
X18448Y-3338D01*
X18433Y-3280D01*
X18433Y-3221D01*
X18283Y-2464D01*
X18252Y-2391D01*
X18237Y-2313D01*
X17942Y-1600D01*
X17898Y-1535D01*
X17867Y-1462D01*
X17439Y-820D01*
X17383Y-764D01*
X17339Y-698D01*
X16793Y-153D01*
X16727Y-109D01*
X16672Y-53D01*
X16030Y376D01*
X15957Y406D01*
X15891Y450D01*
X15178Y746D01*
X15101Y761D01*
X15028Y791D01*
X14271Y942D01*
X14211Y942D01*
X14154Y956D01*
X13768Y975D01*
X13748Y973D01*
X13728Y977D01*
X752Y977D01*
Y5607D01*
X751Y5607D01*
X752Y5608D01*
X751Y5761D01*
X869Y6045D01*
X1085Y6262D01*
X1369Y6379D01*
X1523Y6379D01*
X1523Y6379D01*
X1524Y6379D01*
X3886D01*
X3906Y6383D01*
X3925Y6380D01*
X4311Y6399D01*
X4369Y6413D01*
X4428Y6413D01*
X5185Y6564D01*
X5258Y6594D01*
X5336Y6610D01*
X6049Y6905D01*
X6114Y6949D01*
X6187Y6979D01*
X6829Y7408D01*
X6885Y7464D01*
X6951Y7508D01*
X7496Y8054D01*
X7540Y8119D01*
X7596Y8175D01*
X8025Y8817D01*
X8055Y8890D01*
X8099Y8956D01*
X8394Y9669D01*
X8410Y9746D01*
X8440Y9819D01*
X8591Y10576D01*
X8591Y10635D01*
X8606Y10693D01*
X8625Y11079D01*
X8622Y11099D01*
X8626Y11119D01*
Y34977D01*
X8564Y35284D01*
X8390Y35544D01*
X8130Y35719D01*
X7823Y35780D01*
X-21705D01*
X-22942Y35780D01*
X-25396Y36103D01*
X-27787Y36744D01*
X-30074Y37691D01*
X-32218Y38928D01*
X-34181Y40435D01*
X-35932Y42185D01*
X-37438Y44149D01*
X-38676Y46293D01*
X-39623Y48579D01*
X-40264Y50970D01*
X-40587Y53424D01*
X-40587Y54662D01*
Y179780D01*
X-40587Y179780D01*
X-40587Y179780D01*
X-40587Y181018D01*
X-40265Y183472D01*
X-39625Y185863D01*
X-38678Y188151D01*
X-37440Y190295D01*
X-35934Y192259D01*
X-34183Y194009D01*
X-32219Y195516D01*
X-30075Y196753D01*
X-27788Y197700D01*
X-25397Y198340D01*
X-22943Y198663D01*
X-21705Y198662D01*
X-21705Y198662D01*
X-21705Y198662D01*
X263531Y198662D01*
X263532Y198662D01*
X263532Y198662D01*
X264769Y198663D01*
X267224Y198340D01*
D02*
G37*
%LPC*%
G36*
X144306Y192849D02*
X143411D01*
X142546Y192617D01*
X141771Y192169D01*
X141138Y191536D01*
X140690Y190761D01*
X140458Y189896D01*
Y189001D01*
X140690Y188136D01*
X141138Y187361D01*
X141771Y186728D01*
X142546Y186281D01*
X143411Y186049D01*
X144306D01*
X145171Y186281D01*
X145946Y186728D01*
X146579Y187361D01*
X147027Y188136D01*
X147258Y189001D01*
Y189896D01*
X147027Y190761D01*
X146579Y191536D01*
X145946Y192169D01*
X145171Y192617D01*
X144306Y192849D01*
D02*
G37*
G36*
X114306D02*
X113411D01*
X112546Y192617D01*
X111771Y192169D01*
X111138Y191536D01*
X110690Y190761D01*
X110458Y189896D01*
Y189001D01*
X110690Y188136D01*
X111138Y187361D01*
X111771Y186728D01*
X112546Y186281D01*
X113411Y186049D01*
X114306D01*
X115171Y186281D01*
X115946Y186728D01*
X116579Y187361D01*
X117027Y188136D01*
X117258Y189001D01*
Y189896D01*
X117027Y190761D01*
X116579Y191536D01*
X115946Y192169D01*
X115171Y192617D01*
X114306Y192849D01*
D02*
G37*
G36*
X104306D02*
X103411D01*
X102546Y192617D01*
X101771Y192169D01*
X101138Y191536D01*
X100690Y190761D01*
X100458Y189896D01*
Y189001D01*
X100690Y188136D01*
X101138Y187361D01*
X101771Y186728D01*
X102546Y186281D01*
X103411Y186049D01*
X104306D01*
X105171Y186281D01*
X105946Y186728D01*
X106579Y187361D01*
X107027Y188136D01*
X107258Y189001D01*
Y189896D01*
X107027Y190761D01*
X106579Y191536D01*
X105946Y192169D01*
X105171Y192617D01*
X104306Y192849D01*
D02*
G37*
G36*
X74306D02*
X73411D01*
X72546Y192617D01*
X71771Y192169D01*
X71138Y191536D01*
X70690Y190761D01*
X70458Y189896D01*
Y189001D01*
X70690Y188136D01*
X71138Y187361D01*
X71771Y186728D01*
X72546Y186281D01*
X73411Y186049D01*
X74306D01*
X75171Y186281D01*
X75946Y186728D01*
X76579Y187361D01*
X77027Y188136D01*
X77258Y189001D01*
Y189896D01*
X77027Y190761D01*
X76579Y191536D01*
X75946Y192169D01*
X75171Y192617D01*
X74306Y192849D01*
D02*
G37*
G36*
X64306D02*
X63411D01*
X62546Y192617D01*
X61771Y192169D01*
X61138Y191536D01*
X60690Y190761D01*
X60458Y189896D01*
Y189001D01*
X60690Y188136D01*
X61138Y187361D01*
X61771Y186728D01*
X62546Y186281D01*
X63411Y186049D01*
X64306D01*
X65171Y186281D01*
X65946Y186728D01*
X66579Y187361D01*
X67027Y188136D01*
X67258Y189001D01*
Y189896D01*
X67027Y190761D01*
X66579Y191536D01*
X65946Y192169D01*
X65171Y192617D01*
X64306Y192849D01*
D02*
G37*
G36*
X34306D02*
X33411D01*
X32546Y192617D01*
X31771Y192169D01*
X31138Y191536D01*
X30690Y190761D01*
X30458Y189896D01*
Y189001D01*
X30690Y188136D01*
X31138Y187361D01*
X31771Y186728D01*
X32546Y186281D01*
X33411Y186049D01*
X34306D01*
X35171Y186281D01*
X35946Y186728D01*
X36579Y187361D01*
X37027Y188136D01*
X37258Y189001D01*
Y189896D01*
X37027Y190761D01*
X36579Y191536D01*
X35946Y192169D01*
X35171Y192617D01*
X34306Y192849D01*
D02*
G37*
G36*
X24306D02*
X23411D01*
X22546Y192617D01*
X21771Y192169D01*
X21138Y191536D01*
X20690Y190761D01*
X20458Y189896D01*
Y189001D01*
X20690Y188136D01*
X21138Y187361D01*
X21771Y186728D01*
X22546Y186281D01*
X23411Y186049D01*
X24306D01*
X25171Y186281D01*
X25946Y186728D01*
X26579Y187361D01*
X27027Y188136D01*
X27258Y189001D01*
Y189896D01*
X27027Y190761D01*
X26579Y191536D01*
X25946Y192169D01*
X25171Y192617D01*
X24306Y192849D01*
D02*
G37*
G36*
X-5694D02*
X-6589D01*
X-7454Y192617D01*
X-8229Y192169D01*
X-8862Y191536D01*
X-9310Y190761D01*
X-9542Y189896D01*
Y189001D01*
X-9310Y188136D01*
X-8862Y187361D01*
X-8229Y186728D01*
X-7454Y186281D01*
X-6589Y186049D01*
X-5694D01*
X-4829Y186281D01*
X-4054Y186728D01*
X-3421Y187361D01*
X-2973Y188136D01*
X-2742Y189001D01*
Y189896D01*
X-2973Y190761D01*
X-3421Y191536D01*
X-4054Y192169D01*
X-4829Y192617D01*
X-5694Y192849D01*
D02*
G37*
G36*
X248680Y191315D02*
X247383D01*
X246129Y190980D01*
X245006Y190331D01*
X244089Y189413D01*
X243440Y188290D01*
X243104Y187037D01*
Y185739D01*
X243440Y184486D01*
X244089Y183362D01*
X245006Y182445D01*
X246129Y181796D01*
X247383Y181460D01*
X248680D01*
X249934Y181796D01*
X251057Y182445D01*
X251975Y183362D01*
X252623Y184486D01*
X252959Y185739D01*
Y187037D01*
X252623Y188290D01*
X251975Y189413D01*
X251057Y190331D01*
X249934Y190980D01*
X248680Y191315D01*
D02*
G37*
G36*
X187755D02*
X186458D01*
X185204Y190980D01*
X184081Y190331D01*
X183163Y189413D01*
X182515Y188290D01*
X182179Y187037D01*
Y185739D01*
X182515Y184486D01*
X183163Y183362D01*
X184081Y182445D01*
X185204Y181796D01*
X186458Y181460D01*
X187755D01*
X189008Y181796D01*
X190132Y182445D01*
X191049Y183362D01*
X191698Y184486D01*
X192034Y185739D01*
Y187037D01*
X191698Y188290D01*
X191049Y189413D01*
X190132Y190331D01*
X189008Y190980D01*
X187755Y191315D01*
D02*
G37*
G36*
X262912Y183071D02*
X262285D01*
X261706Y182831D01*
X261263Y182388D01*
X261024Y181809D01*
Y181183D01*
X261263Y180604D01*
X261706Y180161D01*
X262285Y179921D01*
X262912D01*
X263491Y180161D01*
X263933Y180604D01*
X264173Y181183D01*
Y181809D01*
X263933Y182388D01*
X263491Y182831D01*
X262912Y183071D01*
D02*
G37*
G36*
X164999Y175526D02*
X164104D01*
X163239Y175294D01*
X162463Y174847D01*
X161830Y174214D01*
X161383Y173438D01*
X161151Y172574D01*
Y171678D01*
X161383Y170814D01*
X161830Y170038D01*
X162463Y169405D01*
X163239Y168958D01*
X164104Y168726D01*
X164999D01*
X165864Y168958D01*
X166639Y169405D01*
X167272Y170038D01*
X167719Y170814D01*
X167951Y171678D01*
Y172574D01*
X167719Y173438D01*
X167272Y174214D01*
X166639Y174847D01*
X165864Y175294D01*
X164999Y175526D01*
D02*
G37*
G36*
X134999D02*
X134104D01*
X133239Y175294D01*
X132464Y174847D01*
X131831Y174214D01*
X131383Y173438D01*
X131151Y172574D01*
Y171678D01*
X131383Y170814D01*
X131831Y170038D01*
X132464Y169405D01*
X133239Y168958D01*
X134104Y168726D01*
X134999D01*
X135863Y168958D01*
X136639Y169405D01*
X137272Y170038D01*
X137720Y170814D01*
X137951Y171678D01*
Y172574D01*
X137720Y173438D01*
X137272Y174214D01*
X136639Y174847D01*
X135863Y175294D01*
X134999Y175526D01*
D02*
G37*
G36*
X124999D02*
X124104D01*
X123239Y175294D01*
X122464Y174847D01*
X121831Y174214D01*
X121383Y173438D01*
X121151Y172574D01*
Y171678D01*
X121383Y170814D01*
X121831Y170038D01*
X122464Y169405D01*
X123239Y168958D01*
X124104Y168726D01*
X124999D01*
X125864Y168958D01*
X126639Y169405D01*
X127272Y170038D01*
X127720Y170814D01*
X127951Y171678D01*
Y172574D01*
X127720Y173438D01*
X127272Y174214D01*
X126639Y174847D01*
X125864Y175294D01*
X124999Y175526D01*
D02*
G37*
G36*
X94999D02*
X94104D01*
X93239Y175294D01*
X92464Y174847D01*
X91831Y174214D01*
X91383Y173438D01*
X91151Y172574D01*
Y171678D01*
X91383Y170814D01*
X91831Y170038D01*
X92464Y169405D01*
X93239Y168958D01*
X94104Y168726D01*
X94999D01*
X95864Y168958D01*
X96639Y169405D01*
X97272Y170038D01*
X97720Y170814D01*
X97951Y171678D01*
Y172574D01*
X97720Y173438D01*
X97272Y174214D01*
X96639Y174847D01*
X95864Y175294D01*
X94999Y175526D01*
D02*
G37*
G36*
X44999D02*
X44104D01*
X43239Y175294D01*
X42463Y174847D01*
X41831Y174214D01*
X41383Y173438D01*
X41151Y172574D01*
Y171678D01*
X41383Y170814D01*
X41831Y170038D01*
X42463Y169405D01*
X43239Y168958D01*
X44104Y168726D01*
X44999D01*
X45864Y168958D01*
X46639Y169405D01*
X47272Y170038D01*
X47719Y170814D01*
X47951Y171678D01*
Y172574D01*
X47719Y173438D01*
X47272Y174214D01*
X46639Y174847D01*
X45864Y175294D01*
X44999Y175526D01*
D02*
G37*
G36*
X14999D02*
X14104D01*
X13239Y175294D01*
X12464Y174847D01*
X11830Y174214D01*
X11383Y173438D01*
X11151Y172574D01*
Y171678D01*
X11383Y170814D01*
X11830Y170038D01*
X12464Y169405D01*
X13239Y168958D01*
X14104Y168726D01*
X14999D01*
X15864Y168958D01*
X16639Y169405D01*
X17272Y170038D01*
X17719Y170814D01*
X17951Y171678D01*
Y172574D01*
X17719Y173438D01*
X17272Y174214D01*
X16639Y174847D01*
X15864Y175294D01*
X14999Y175526D01*
D02*
G37*
G36*
X4999D02*
X4104D01*
X3239Y175294D01*
X2464Y174847D01*
X1830Y174214D01*
X1383Y173438D01*
X1151Y172574D01*
Y171678D01*
X1383Y170814D01*
X1830Y170038D01*
X2464Y169405D01*
X3239Y168958D01*
X4104Y168726D01*
X4999D01*
X5864Y168958D01*
X6639Y169405D01*
X7272Y170038D01*
X7720Y170814D01*
X7951Y171678D01*
Y172574D01*
X7720Y173438D01*
X7272Y174214D01*
X6639Y174847D01*
X5864Y175294D01*
X4999Y175526D01*
D02*
G37*
G36*
X-25001D02*
X-25896D01*
X-26761Y175294D01*
X-27536Y174847D01*
X-28170Y174214D01*
X-28617Y173438D01*
X-28849Y172574D01*
Y171678D01*
X-28617Y170814D01*
X-28170Y170038D01*
X-27536Y169405D01*
X-26761Y168958D01*
X-25896Y168726D01*
X-25001D01*
X-24137Y168958D01*
X-23361Y169405D01*
X-22728Y170038D01*
X-22280Y170814D01*
X-22049Y171678D01*
Y172574D01*
X-22280Y173438D01*
X-22728Y174214D01*
X-23361Y174847D01*
X-24137Y175294D01*
X-25001Y175526D01*
D02*
G37*
G36*
X84999Y175526D02*
X84104D01*
X83239Y175294D01*
X82464Y174847D01*
X81831Y174214D01*
X81383Y173438D01*
X81151Y172574D01*
Y171678D01*
X81383Y170814D01*
X81831Y170038D01*
X82464Y169405D01*
X83239Y168958D01*
X84104Y168726D01*
X84999D01*
X85864Y168958D01*
X86639Y169405D01*
X87272Y170038D01*
X87720Y170814D01*
X87951Y171678D01*
Y172574D01*
X87720Y173438D01*
X87272Y174214D01*
X86639Y174847D01*
X85864Y175294D01*
X84999Y175526D01*
D02*
G37*
G36*
X54999D02*
X54104D01*
X53239Y175294D01*
X52464Y174847D01*
X51831Y174214D01*
X51383Y173438D01*
X51151Y172574D01*
Y171678D01*
X51383Y170814D01*
X51831Y170038D01*
X52464Y169405D01*
X53239Y168958D01*
X54104Y168726D01*
X54999D01*
X55863Y168958D01*
X56639Y169405D01*
X57272Y170038D01*
X57719Y170814D01*
X57951Y171678D01*
Y172574D01*
X57719Y173438D01*
X57272Y174214D01*
X56639Y174847D01*
X55863Y175294D01*
X54999Y175526D01*
D02*
G37*
G36*
X240747Y181988D02*
X239293D01*
X237866Y181704D01*
X236523Y181148D01*
X235314Y180340D01*
X234286Y179312D01*
X233478Y178103D01*
X232922Y176760D01*
X232638Y175333D01*
Y173879D01*
X232922Y172453D01*
X233478Y171110D01*
X234286Y169901D01*
X235314Y168872D01*
X236523Y168065D01*
X237866Y167508D01*
X239293Y167224D01*
X240747D01*
X242173Y167508D01*
X243516Y168065D01*
X244725Y168872D01*
X245754Y169901D01*
X246561Y171110D01*
X247118Y172453D01*
X247402Y173879D01*
Y175333D01*
X247118Y176760D01*
X246561Y178103D01*
X245754Y179312D01*
X244725Y180340D01*
X243516Y181148D01*
X242173Y181704D01*
X240747Y181988D01*
D02*
G37*
G36*
X195747D02*
X194293D01*
X192867Y181704D01*
X191523Y181148D01*
X190314Y180340D01*
X189286Y179312D01*
X188478Y178103D01*
X187922Y176760D01*
X187638Y175333D01*
Y173879D01*
X187922Y172453D01*
X188478Y171110D01*
X189286Y169901D01*
X190314Y168872D01*
X191523Y168065D01*
X192867Y167508D01*
X194293Y167224D01*
X195747D01*
X197173Y167508D01*
X198516Y168065D01*
X199725Y168872D01*
X200754Y169901D01*
X201561Y171110D01*
X202118Y172453D01*
X202402Y173879D01*
Y175333D01*
X202118Y176760D01*
X201561Y178103D01*
X200754Y179312D01*
X199725Y180340D01*
X198516Y181148D01*
X197173Y181704D01*
X195747Y181988D01*
D02*
G37*
G36*
X144306Y162849D02*
X143411D01*
X142546Y162617D01*
X141771Y162170D01*
X141138Y161537D01*
X140690Y160761D01*
X140458Y159896D01*
Y159001D01*
X140690Y158136D01*
X141138Y157361D01*
X141771Y156728D01*
X142546Y156281D01*
X143411Y156049D01*
X144306D01*
X145171Y156281D01*
X145946Y156728D01*
X146579Y157361D01*
X147027Y158136D01*
X147258Y159001D01*
Y159896D01*
X147027Y160761D01*
X146579Y161537D01*
X145946Y162170D01*
X145171Y162617D01*
X144306Y162849D01*
D02*
G37*
G36*
X134306D02*
X133411D01*
X132546Y162617D01*
X131771Y162170D01*
X131138Y161537D01*
X130690Y160761D01*
X130458Y159896D01*
Y159001D01*
X130690Y158136D01*
X131138Y157361D01*
X131771Y156728D01*
X132546Y156281D01*
X133411Y156049D01*
X134306D01*
X135171Y156281D01*
X135946Y156728D01*
X136579Y157361D01*
X137027Y158136D01*
X137258Y159001D01*
Y159896D01*
X137027Y160761D01*
X136579Y161537D01*
X135946Y162170D01*
X135171Y162617D01*
X134306Y162849D01*
D02*
G37*
G36*
X124306D02*
X123411D01*
X122546Y162617D01*
X121771Y162170D01*
X121138Y161537D01*
X120690Y160761D01*
X120458Y159896D01*
Y159001D01*
X120690Y158136D01*
X121138Y157361D01*
X121771Y156728D01*
X122546Y156281D01*
X123411Y156049D01*
X124306D01*
X125171Y156281D01*
X125946Y156728D01*
X126579Y157361D01*
X127027Y158136D01*
X127258Y159001D01*
Y159896D01*
X127027Y160761D01*
X126579Y161537D01*
X125946Y162170D01*
X125171Y162617D01*
X124306Y162849D01*
D02*
G37*
G36*
X114306D02*
X113411D01*
X112546Y162617D01*
X111771Y162170D01*
X111138Y161537D01*
X110690Y160761D01*
X110458Y159896D01*
Y159001D01*
X110690Y158136D01*
X111138Y157361D01*
X111771Y156728D01*
X112546Y156281D01*
X113411Y156049D01*
X114306D01*
X115171Y156281D01*
X115946Y156728D01*
X116579Y157361D01*
X117027Y158136D01*
X117258Y159001D01*
Y159896D01*
X117027Y160761D01*
X116579Y161537D01*
X115946Y162170D01*
X115171Y162617D01*
X114306Y162849D01*
D02*
G37*
G36*
X104306D02*
X103411D01*
X102546Y162617D01*
X101771Y162170D01*
X101138Y161537D01*
X100690Y160761D01*
X100458Y159896D01*
Y159001D01*
X100690Y158136D01*
X101138Y157361D01*
X101771Y156728D01*
X102546Y156281D01*
X103411Y156049D01*
X104306D01*
X105171Y156281D01*
X105946Y156728D01*
X106579Y157361D01*
X107027Y158136D01*
X107258Y159001D01*
Y159896D01*
X107027Y160761D01*
X106579Y161537D01*
X105946Y162170D01*
X105171Y162617D01*
X104306Y162849D01*
D02*
G37*
G36*
X94306D02*
X93411D01*
X92546Y162617D01*
X91771Y162170D01*
X91138Y161537D01*
X90690Y160761D01*
X90458Y159896D01*
Y159001D01*
X90690Y158136D01*
X91138Y157361D01*
X91771Y156728D01*
X92546Y156281D01*
X93411Y156049D01*
X94306D01*
X95171Y156281D01*
X95946Y156728D01*
X96579Y157361D01*
X97027Y158136D01*
X97258Y159001D01*
Y159896D01*
X97027Y160761D01*
X96579Y161537D01*
X95946Y162170D01*
X95171Y162617D01*
X94306Y162849D01*
D02*
G37*
G36*
X84306D02*
X83411D01*
X82546Y162617D01*
X81771Y162170D01*
X81138Y161537D01*
X80690Y160761D01*
X80458Y159896D01*
Y159001D01*
X80690Y158136D01*
X81138Y157361D01*
X81771Y156728D01*
X82546Y156281D01*
X83411Y156049D01*
X84306D01*
X85171Y156281D01*
X85946Y156728D01*
X86579Y157361D01*
X87027Y158136D01*
X87258Y159001D01*
Y159896D01*
X87027Y160761D01*
X86579Y161537D01*
X85946Y162170D01*
X85171Y162617D01*
X84306Y162849D01*
D02*
G37*
G36*
X74306D02*
X73411D01*
X72546Y162617D01*
X71771Y162170D01*
X71138Y161537D01*
X70690Y160761D01*
X70458Y159896D01*
Y159001D01*
X70690Y158136D01*
X71138Y157361D01*
X71771Y156728D01*
X72546Y156281D01*
X73411Y156049D01*
X74306D01*
X75171Y156281D01*
X75946Y156728D01*
X76579Y157361D01*
X77027Y158136D01*
X77258Y159001D01*
Y159896D01*
X77027Y160761D01*
X76579Y161537D01*
X75946Y162170D01*
X75171Y162617D01*
X74306Y162849D01*
D02*
G37*
G36*
X64306D02*
X63411D01*
X62546Y162617D01*
X61771Y162170D01*
X61138Y161537D01*
X60690Y160761D01*
X60458Y159896D01*
Y159001D01*
X60690Y158136D01*
X61138Y157361D01*
X61771Y156728D01*
X62546Y156281D01*
X63411Y156049D01*
X64306D01*
X65171Y156281D01*
X65946Y156728D01*
X66579Y157361D01*
X67027Y158136D01*
X67258Y159001D01*
Y159896D01*
X67027Y160761D01*
X66579Y161537D01*
X65946Y162170D01*
X65171Y162617D01*
X64306Y162849D01*
D02*
G37*
G36*
X54306D02*
X53411D01*
X52546Y162617D01*
X51771Y162170D01*
X51138Y161537D01*
X50690Y160761D01*
X50458Y159896D01*
Y159001D01*
X50690Y158136D01*
X51138Y157361D01*
X51771Y156728D01*
X52546Y156281D01*
X53411Y156049D01*
X54306D01*
X55171Y156281D01*
X55946Y156728D01*
X56579Y157361D01*
X57027Y158136D01*
X57258Y159001D01*
Y159896D01*
X57027Y160761D01*
X56579Y161537D01*
X55946Y162170D01*
X55171Y162617D01*
X54306Y162849D01*
D02*
G37*
G36*
X44306D02*
X43411D01*
X42546Y162617D01*
X41771Y162170D01*
X41138Y161537D01*
X40690Y160761D01*
X40458Y159896D01*
Y159001D01*
X40690Y158136D01*
X41138Y157361D01*
X41771Y156728D01*
X42546Y156281D01*
X43411Y156049D01*
X44306D01*
X45171Y156281D01*
X45946Y156728D01*
X46579Y157361D01*
X47027Y158136D01*
X47258Y159001D01*
Y159896D01*
X47027Y160761D01*
X46579Y161537D01*
X45946Y162170D01*
X45171Y162617D01*
X44306Y162849D01*
D02*
G37*
G36*
X34306D02*
X33411D01*
X32546Y162617D01*
X31771Y162170D01*
X31138Y161537D01*
X30690Y160761D01*
X30458Y159896D01*
Y159001D01*
X30690Y158136D01*
X31138Y157361D01*
X31771Y156728D01*
X32546Y156281D01*
X33411Y156049D01*
X34306D01*
X35171Y156281D01*
X35946Y156728D01*
X36579Y157361D01*
X37027Y158136D01*
X37258Y159001D01*
Y159896D01*
X37027Y160761D01*
X36579Y161537D01*
X35946Y162170D01*
X35171Y162617D01*
X34306Y162849D01*
D02*
G37*
G36*
X24306D02*
X23411D01*
X22546Y162617D01*
X21771Y162170D01*
X21138Y161537D01*
X20690Y160761D01*
X20458Y159896D01*
Y159001D01*
X20690Y158136D01*
X21138Y157361D01*
X21771Y156728D01*
X22546Y156281D01*
X23411Y156049D01*
X24306D01*
X25171Y156281D01*
X25946Y156728D01*
X26579Y157361D01*
X27027Y158136D01*
X27258Y159001D01*
Y159896D01*
X27027Y160761D01*
X26579Y161537D01*
X25946Y162170D01*
X25171Y162617D01*
X24306Y162849D01*
D02*
G37*
G36*
X14306D02*
X13411D01*
X12546Y162617D01*
X11771Y162170D01*
X11138Y161537D01*
X10690Y160761D01*
X10458Y159896D01*
Y159001D01*
X10690Y158136D01*
X11138Y157361D01*
X11771Y156728D01*
X12546Y156281D01*
X13411Y156049D01*
X14306D01*
X15171Y156281D01*
X15946Y156728D01*
X16579Y157361D01*
X17027Y158136D01*
X17258Y159001D01*
Y159896D01*
X17027Y160761D01*
X16579Y161537D01*
X15946Y162170D01*
X15171Y162617D01*
X14306Y162849D01*
D02*
G37*
G36*
X4306D02*
X3411D01*
X2546Y162617D01*
X1771Y162170D01*
X1138Y161537D01*
X690Y160761D01*
X458Y159896D01*
Y159001D01*
X690Y158136D01*
X1138Y157361D01*
X1771Y156728D01*
X2546Y156281D01*
X3411Y156049D01*
X4306D01*
X5171Y156281D01*
X5946Y156728D01*
X6579Y157361D01*
X7027Y158136D01*
X7258Y159001D01*
Y159896D01*
X7027Y160761D01*
X6579Y161537D01*
X5946Y162170D01*
X5171Y162617D01*
X4306Y162849D01*
D02*
G37*
G36*
X-5694D02*
X-6589D01*
X-7454Y162617D01*
X-8229Y162170D01*
X-8862Y161537D01*
X-9310Y160761D01*
X-9542Y159896D01*
Y159001D01*
X-9310Y158136D01*
X-8862Y157361D01*
X-8229Y156728D01*
X-7454Y156281D01*
X-6589Y156049D01*
X-5694D01*
X-4829Y156281D01*
X-4054Y156728D01*
X-3421Y157361D01*
X-2973Y158136D01*
X-2742Y159001D01*
Y159896D01*
X-2973Y160761D01*
X-3421Y161537D01*
X-4054Y162170D01*
X-4829Y162617D01*
X-5694Y162849D01*
D02*
G37*
G36*
X235455Y152762D02*
X234624D01*
X233821Y152547D01*
X233102Y152132D01*
X232514Y151544D01*
X232099Y150824D01*
X231884Y150022D01*
Y149191D01*
X232099Y148388D01*
X232514Y147669D01*
X233102Y147081D01*
X233821Y146666D01*
X234624Y146450D01*
X235455D01*
X236258Y146666D01*
X236977Y147081D01*
X237565Y147669D01*
X237980Y148388D01*
X238195Y149191D01*
Y150022D01*
X237980Y150824D01*
X237565Y151544D01*
X236977Y152132D01*
X236258Y152547D01*
X235455Y152762D01*
D02*
G37*
G36*
X225455D02*
X224624D01*
X223821Y152547D01*
X223102Y152132D01*
X222514Y151544D01*
X222098Y150824D01*
X221884Y150022D01*
Y149191D01*
X222098Y148388D01*
X222514Y147669D01*
X223102Y147081D01*
X223821Y146666D01*
X224624Y146450D01*
X225455D01*
X226257Y146666D01*
X226977Y147081D01*
X227565Y147669D01*
X227980Y148388D01*
X228195Y149191D01*
Y150022D01*
X227980Y150824D01*
X227565Y151544D01*
X226977Y152132D01*
X226257Y152547D01*
X225455Y152762D01*
D02*
G37*
G36*
X215455D02*
X214624D01*
X213821Y152547D01*
X213102Y152132D01*
X212514Y151544D01*
X212099Y150824D01*
X211883Y150022D01*
Y149191D01*
X212099Y148388D01*
X212514Y147669D01*
X213102Y147081D01*
X213821Y146666D01*
X214624Y146450D01*
X215455D01*
X216258Y146666D01*
X216977Y147081D01*
X217565Y147669D01*
X217980Y148388D01*
X218195Y149191D01*
Y150022D01*
X217980Y150824D01*
X217565Y151544D01*
X216977Y152132D01*
X216258Y152547D01*
X215455Y152762D01*
D02*
G37*
G36*
X205455D02*
X204624D01*
X203821Y152547D01*
X203102Y152132D01*
X202514Y151544D01*
X202098Y150824D01*
X201884Y150022D01*
Y149191D01*
X202098Y148388D01*
X202514Y147669D01*
X203102Y147081D01*
X203821Y146666D01*
X204624Y146450D01*
X205455D01*
X206258Y146666D01*
X206977Y147081D01*
X207565Y147669D01*
X207980Y148388D01*
X208195Y149191D01*
Y150022D01*
X207980Y150824D01*
X207565Y151544D01*
X206977Y152132D01*
X206258Y152547D01*
X205455Y152762D01*
D02*
G37*
G36*
X164999Y145526D02*
X164104D01*
X163239Y145294D01*
X162463Y144847D01*
X161830Y144214D01*
X161383Y143438D01*
X161151Y142574D01*
Y141678D01*
X161383Y140814D01*
X161830Y140038D01*
X162463Y139405D01*
X163239Y138958D01*
X164104Y138726D01*
X164999D01*
X165864Y138958D01*
X166639Y139405D01*
X167272Y140038D01*
X167719Y140814D01*
X167951Y141678D01*
Y142574D01*
X167719Y143438D01*
X167272Y144214D01*
X166639Y144847D01*
X165864Y145294D01*
X164999Y145526D01*
D02*
G37*
G36*
X154999D02*
X154104D01*
X153239Y145294D01*
X152463Y144847D01*
X151830Y144214D01*
X151383Y143438D01*
X151151Y142574D01*
Y141678D01*
X151383Y140814D01*
X151830Y140038D01*
X152463Y139405D01*
X153239Y138958D01*
X154104Y138726D01*
X154999D01*
X155863Y138958D01*
X156639Y139405D01*
X157272Y140038D01*
X157720Y140814D01*
X157951Y141678D01*
Y142574D01*
X157720Y143438D01*
X157272Y144214D01*
X156639Y144847D01*
X155863Y145294D01*
X154999Y145526D01*
D02*
G37*
G36*
X144999D02*
X144104D01*
X143239Y145294D01*
X142464Y144847D01*
X141831Y144214D01*
X141383Y143438D01*
X141151Y142574D01*
Y141678D01*
X141383Y140814D01*
X141831Y140038D01*
X142464Y139405D01*
X143239Y138958D01*
X144104Y138726D01*
X144999D01*
X145863Y138958D01*
X146639Y139405D01*
X147272Y140038D01*
X147720Y140814D01*
X147951Y141678D01*
Y142574D01*
X147720Y143438D01*
X147272Y144214D01*
X146639Y144847D01*
X145863Y145294D01*
X144999Y145526D01*
D02*
G37*
G36*
X134999D02*
X134104D01*
X133239Y145294D01*
X132464Y144847D01*
X131831Y144214D01*
X131383Y143438D01*
X131151Y142574D01*
Y141678D01*
X131383Y140814D01*
X131831Y140038D01*
X132464Y139405D01*
X133239Y138958D01*
X134104Y138726D01*
X134999D01*
X135863Y138958D01*
X136639Y139405D01*
X137272Y140038D01*
X137720Y140814D01*
X137951Y141678D01*
Y142574D01*
X137720Y143438D01*
X137272Y144214D01*
X136639Y144847D01*
X135863Y145294D01*
X134999Y145526D01*
D02*
G37*
G36*
X124999D02*
X124104D01*
X123239Y145294D01*
X122464Y144847D01*
X121831Y144214D01*
X121383Y143438D01*
X121151Y142574D01*
Y141678D01*
X121383Y140814D01*
X121831Y140038D01*
X122464Y139405D01*
X123239Y138958D01*
X124104Y138726D01*
X124999D01*
X125864Y138958D01*
X126639Y139405D01*
X127272Y140038D01*
X127720Y140814D01*
X127951Y141678D01*
Y142574D01*
X127720Y143438D01*
X127272Y144214D01*
X126639Y144847D01*
X125864Y145294D01*
X124999Y145526D01*
D02*
G37*
G36*
X114999D02*
X114104D01*
X113239Y145294D01*
X112464Y144847D01*
X111831Y144214D01*
X111383Y143438D01*
X111151Y142574D01*
Y141678D01*
X111383Y140814D01*
X111831Y140038D01*
X112464Y139405D01*
X113239Y138958D01*
X114104Y138726D01*
X114999D01*
X115864Y138958D01*
X116639Y139405D01*
X117272Y140038D01*
X117720Y140814D01*
X117951Y141678D01*
Y142574D01*
X117720Y143438D01*
X117272Y144214D01*
X116639Y144847D01*
X115864Y145294D01*
X114999Y145526D01*
D02*
G37*
G36*
X104999D02*
X104104D01*
X103239Y145294D01*
X102464Y144847D01*
X101831Y144214D01*
X101383Y143438D01*
X101151Y142574D01*
Y141678D01*
X101383Y140814D01*
X101831Y140038D01*
X102464Y139405D01*
X103239Y138958D01*
X104104Y138726D01*
X104999D01*
X105864Y138958D01*
X106639Y139405D01*
X107272Y140038D01*
X107720Y140814D01*
X107951Y141678D01*
Y142574D01*
X107720Y143438D01*
X107272Y144214D01*
X106639Y144847D01*
X105864Y145294D01*
X104999Y145526D01*
D02*
G37*
G36*
X94999D02*
X94104D01*
X93239Y145294D01*
X92464Y144847D01*
X91831Y144214D01*
X91383Y143438D01*
X91151Y142574D01*
Y141678D01*
X91383Y140814D01*
X91831Y140038D01*
X92464Y139405D01*
X93239Y138958D01*
X94104Y138726D01*
X94999D01*
X95864Y138958D01*
X96639Y139405D01*
X97272Y140038D01*
X97720Y140814D01*
X97951Y141678D01*
Y142574D01*
X97720Y143438D01*
X97272Y144214D01*
X96639Y144847D01*
X95864Y145294D01*
X94999Y145526D01*
D02*
G37*
G36*
X44999D02*
X44104D01*
X43239Y145294D01*
X42463Y144847D01*
X41831Y144214D01*
X41383Y143438D01*
X41151Y142574D01*
Y141678D01*
X41383Y140814D01*
X41831Y140038D01*
X42463Y139405D01*
X43239Y138958D01*
X44104Y138726D01*
X44999D01*
X45864Y138958D01*
X46639Y139405D01*
X47272Y140038D01*
X47719Y140814D01*
X47951Y141678D01*
Y142574D01*
X47719Y143438D01*
X47272Y144214D01*
X46639Y144847D01*
X45864Y145294D01*
X44999Y145526D01*
D02*
G37*
G36*
X34999D02*
X34104D01*
X33239Y145294D01*
X32463Y144847D01*
X31830Y144214D01*
X31383Y143438D01*
X31151Y142574D01*
Y141678D01*
X31383Y140814D01*
X31830Y140038D01*
X32463Y139405D01*
X33239Y138958D01*
X34104Y138726D01*
X34999D01*
X35864Y138958D01*
X36639Y139405D01*
X37272Y140038D01*
X37720Y140814D01*
X37951Y141678D01*
Y142574D01*
X37720Y143438D01*
X37272Y144214D01*
X36639Y144847D01*
X35864Y145294D01*
X34999Y145526D01*
D02*
G37*
G36*
X24999D02*
X24104D01*
X23239Y145294D01*
X22464Y144847D01*
X21831Y144214D01*
X21383Y143438D01*
X21151Y142574D01*
Y141678D01*
X21383Y140814D01*
X21831Y140038D01*
X22464Y139405D01*
X23239Y138958D01*
X24104Y138726D01*
X24999D01*
X25864Y138958D01*
X26639Y139405D01*
X27272Y140038D01*
X27720Y140814D01*
X27951Y141678D01*
Y142574D01*
X27720Y143438D01*
X27272Y144214D01*
X26639Y144847D01*
X25864Y145294D01*
X24999Y145526D01*
D02*
G37*
G36*
X14999D02*
X14104D01*
X13239Y145294D01*
X12464Y144847D01*
X11830Y144214D01*
X11383Y143438D01*
X11151Y142574D01*
Y141678D01*
X11383Y140814D01*
X11830Y140038D01*
X12464Y139405D01*
X13239Y138958D01*
X14104Y138726D01*
X14999D01*
X15864Y138958D01*
X16639Y139405D01*
X17272Y140038D01*
X17719Y140814D01*
X17951Y141678D01*
Y142574D01*
X17719Y143438D01*
X17272Y144214D01*
X16639Y144847D01*
X15864Y145294D01*
X14999Y145526D01*
D02*
G37*
G36*
X4999D02*
X4104D01*
X3239Y145294D01*
X2464Y144847D01*
X1830Y144214D01*
X1383Y143438D01*
X1151Y142574D01*
Y141678D01*
X1383Y140814D01*
X1830Y140038D01*
X2464Y139405D01*
X3239Y138958D01*
X4104Y138726D01*
X4999D01*
X5864Y138958D01*
X6639Y139405D01*
X7272Y140038D01*
X7720Y140814D01*
X7951Y141678D01*
Y142574D01*
X7720Y143438D01*
X7272Y144214D01*
X6639Y144847D01*
X5864Y145294D01*
X4999Y145526D01*
D02*
G37*
G36*
X-5001D02*
X-5896D01*
X-6761Y145294D01*
X-7536Y144847D01*
X-8169Y144214D01*
X-8617Y143438D01*
X-8849Y142574D01*
Y141678D01*
X-8617Y140814D01*
X-8169Y140038D01*
X-7536Y139405D01*
X-6761Y138958D01*
X-5896Y138726D01*
X-5001D01*
X-4137Y138958D01*
X-3361Y139405D01*
X-2728Y140038D01*
X-2280Y140814D01*
X-2049Y141678D01*
Y142574D01*
X-2280Y143438D01*
X-2728Y144214D01*
X-3361Y144847D01*
X-4137Y145294D01*
X-5001Y145526D01*
D02*
G37*
G36*
X-15001D02*
X-15896D01*
X-16761Y145294D01*
X-17537Y144847D01*
X-18169Y144214D01*
X-18617Y143438D01*
X-18849Y142574D01*
Y141678D01*
X-18617Y140814D01*
X-18169Y140038D01*
X-17537Y139405D01*
X-16761Y138958D01*
X-15896Y138726D01*
X-15001D01*
X-14137Y138958D01*
X-13361Y139405D01*
X-12728Y140038D01*
X-12280Y140814D01*
X-12049Y141678D01*
Y142574D01*
X-12280Y143438D01*
X-12728Y144214D01*
X-13361Y144847D01*
X-14137Y145294D01*
X-15001Y145526D01*
D02*
G37*
G36*
X-25001D02*
X-25896D01*
X-26761Y145294D01*
X-27536Y144847D01*
X-28170Y144214D01*
X-28617Y143438D01*
X-28849Y142574D01*
Y141678D01*
X-28617Y140814D01*
X-28170Y140038D01*
X-27536Y139405D01*
X-26761Y138958D01*
X-25896Y138726D01*
X-25001D01*
X-24137Y138958D01*
X-23361Y139405D01*
X-22728Y140038D01*
X-22280Y140814D01*
X-22049Y141678D01*
Y142574D01*
X-22280Y143438D01*
X-22728Y144214D01*
X-23361Y144847D01*
X-24137Y145294D01*
X-25001Y145526D01*
D02*
G37*
G36*
X84999Y145526D02*
X84104D01*
X83239Y145294D01*
X82464Y144847D01*
X81831Y144214D01*
X81383Y143438D01*
X81151Y142574D01*
Y141678D01*
X81383Y140814D01*
X81831Y140038D01*
X82464Y139405D01*
X83239Y138958D01*
X84104Y138726D01*
X84999D01*
X85864Y138958D01*
X86639Y139405D01*
X87272Y140038D01*
X87720Y140814D01*
X87951Y141678D01*
Y142574D01*
X87720Y143438D01*
X87272Y144214D01*
X86639Y144847D01*
X85864Y145294D01*
X84999Y145526D01*
D02*
G37*
G36*
X74999D02*
X74104D01*
X73239Y145294D01*
X72464Y144847D01*
X71830Y144214D01*
X71383Y143438D01*
X71151Y142574D01*
Y141678D01*
X71383Y140814D01*
X71830Y140038D01*
X72464Y139405D01*
X73239Y138958D01*
X74104Y138726D01*
X74999D01*
X75863Y138958D01*
X76639Y139405D01*
X77272Y140038D01*
X77719Y140814D01*
X77951Y141678D01*
Y142574D01*
X77719Y143438D01*
X77272Y144214D01*
X76639Y144847D01*
X75863Y145294D01*
X74999Y145526D01*
D02*
G37*
G36*
X64999D02*
X64104D01*
X63239Y145294D01*
X62463Y144847D01*
X61831Y144214D01*
X61383Y143438D01*
X61151Y142574D01*
Y141678D01*
X61383Y140814D01*
X61831Y140038D01*
X62463Y139405D01*
X63239Y138958D01*
X64104Y138726D01*
X64999D01*
X65864Y138958D01*
X66639Y139405D01*
X67272Y140038D01*
X67720Y140814D01*
X67951Y141678D01*
Y142574D01*
X67720Y143438D01*
X67272Y144214D01*
X66639Y144847D01*
X65864Y145294D01*
X64999Y145526D01*
D02*
G37*
G36*
X54999D02*
X54104D01*
X53239Y145294D01*
X52464Y144847D01*
X51831Y144214D01*
X51383Y143438D01*
X51151Y142574D01*
Y141678D01*
X51383Y140814D01*
X51831Y140038D01*
X52464Y139405D01*
X53239Y138958D01*
X54104Y138726D01*
X54999D01*
X55863Y138958D01*
X56639Y139405D01*
X57272Y140038D01*
X57719Y140814D01*
X57951Y141678D01*
Y142574D01*
X57719Y143438D01*
X57272Y144214D01*
X56639Y144847D01*
X55863Y145294D01*
X54999Y145526D01*
D02*
G37*
G36*
X230455Y142762D02*
X229624D01*
X228821Y142547D01*
X228102Y142132D01*
X227514Y141544D01*
X227098Y140824D01*
X226884Y140022D01*
Y139191D01*
X227098Y138388D01*
X227514Y137669D01*
X228102Y137081D01*
X228821Y136665D01*
X229624Y136450D01*
X230455D01*
X231258Y136665D01*
X231977Y137081D01*
X232565Y137669D01*
X232980Y138388D01*
X233195Y139191D01*
Y140022D01*
X232980Y140824D01*
X232565Y141544D01*
X231977Y142132D01*
X231258Y142547D01*
X230455Y142762D01*
D02*
G37*
G36*
X220455D02*
X219624D01*
X218821Y142547D01*
X218102Y142132D01*
X217514Y141544D01*
X217098Y140824D01*
X216883Y140022D01*
Y139191D01*
X217098Y138388D01*
X217514Y137669D01*
X218102Y137081D01*
X218821Y136665D01*
X219624Y136450D01*
X220455D01*
X221257Y136665D01*
X221977Y137081D01*
X222565Y137669D01*
X222980Y138388D01*
X223195Y139191D01*
Y140022D01*
X222980Y140824D01*
X222565Y141544D01*
X221977Y142132D01*
X221257Y142547D01*
X220455Y142762D01*
D02*
G37*
G36*
X210455D02*
X209624D01*
X208821Y142547D01*
X208102Y142132D01*
X207514Y141544D01*
X207099Y140824D01*
X206884Y140022D01*
Y139191D01*
X207099Y138388D01*
X207514Y137669D01*
X208102Y137081D01*
X208821Y136665D01*
X209624Y136450D01*
X210455D01*
X211258Y136665D01*
X211977Y137081D01*
X212565Y137669D01*
X212980Y138388D01*
X213195Y139191D01*
Y140022D01*
X212980Y140824D01*
X212565Y141544D01*
X211977Y142132D01*
X211258Y142547D01*
X210455Y142762D01*
D02*
G37*
G36*
X200455D02*
X199624D01*
X198821Y142547D01*
X198102Y142132D01*
X197514Y141544D01*
X197099Y140824D01*
X196883Y140022D01*
Y139191D01*
X197099Y138388D01*
X197514Y137669D01*
X198102Y137081D01*
X198821Y136665D01*
X199624Y136450D01*
X200455D01*
X201257Y136665D01*
X201977Y137081D01*
X202565Y137669D01*
X202980Y138388D01*
X203195Y139191D01*
Y140022D01*
X202980Y140824D01*
X202565Y141544D01*
X201977Y142132D01*
X201257Y142547D01*
X200455Y142762D01*
D02*
G37*
G36*
X136640Y135219D02*
X136013D01*
X135435Y134979D01*
X134992Y134536D01*
X134752Y133957D01*
Y133330D01*
X134992Y132752D01*
X135435Y132309D01*
X136013Y132069D01*
X136640D01*
X137219Y132309D01*
X137662Y132752D01*
X137902Y133330D01*
Y133957D01*
X137662Y134536D01*
X137219Y134979D01*
X136640Y135219D01*
D02*
G37*
G36*
X126404D02*
X125777D01*
X125198Y134979D01*
X124756Y134536D01*
X124516Y133957D01*
Y133330D01*
X124756Y132752D01*
X125198Y132309D01*
X125777Y132069D01*
X126404D01*
X126983Y132309D01*
X127426Y132752D01*
X127665Y133330D01*
Y133957D01*
X127426Y134536D01*
X126983Y134979D01*
X126404Y135219D01*
D02*
G37*
G36*
X168831Y135137D02*
X168204D01*
X167625Y134898D01*
X167182Y134455D01*
X166943Y133876D01*
Y133249D01*
X167182Y132671D01*
X167625Y132228D01*
X168204Y131988D01*
X168831D01*
X169410Y132228D01*
X169852Y132671D01*
X170092Y133249D01*
Y133876D01*
X169852Y134455D01*
X169410Y134898D01*
X168831Y135137D01*
D02*
G37*
G36*
X101690D02*
X101063D01*
X100484Y134898D01*
X100041Y134455D01*
X99801Y133876D01*
Y133249D01*
X100041Y132671D01*
X100484Y132228D01*
X101063Y131988D01*
X101690D01*
X102268Y132228D01*
X102711Y132671D01*
X102951Y133249D01*
Y133876D01*
X102711Y134455D01*
X102268Y134898D01*
X101690Y135137D01*
D02*
G37*
G36*
X158581Y135039D02*
X157955D01*
X157376Y134800D01*
X156933Y134357D01*
X156693Y133778D01*
Y133151D01*
X156933Y132572D01*
X157376Y132130D01*
X157955Y131890D01*
X158581D01*
X159160Y132130D01*
X159603Y132572D01*
X159843Y133151D01*
Y133778D01*
X159603Y134357D01*
X159160Y134800D01*
X158581Y135039D01*
D02*
G37*
G36*
X91652D02*
X91025D01*
X90447Y134800D01*
X90004Y134357D01*
X89764Y133778D01*
Y133151D01*
X90004Y132572D01*
X90447Y132130D01*
X91025Y131890D01*
X91652D01*
X92231Y132130D01*
X92674Y132572D01*
X92913Y133151D01*
Y133778D01*
X92674Y134357D01*
X92231Y134800D01*
X91652Y135039D01*
D02*
G37*
G36*
X65668D02*
X65041D01*
X64462Y134800D01*
X64019Y134357D01*
X63779Y133778D01*
Y133151D01*
X64019Y132572D01*
X64462Y132130D01*
X65041Y131890D01*
X65668D01*
X66246Y132130D01*
X66689Y132572D01*
X66929Y133151D01*
Y133778D01*
X66689Y134357D01*
X66246Y134800D01*
X65668Y135039D01*
D02*
G37*
G36*
X55431D02*
X54805D01*
X54226Y134800D01*
X53783Y134357D01*
X53543Y133778D01*
Y133151D01*
X53783Y132572D01*
X54226Y132130D01*
X54805Y131890D01*
X55431D01*
X56010Y132130D01*
X56453Y132572D01*
X56693Y133151D01*
Y133778D01*
X56453Y134357D01*
X56010Y134800D01*
X55431Y135039D01*
D02*
G37*
G36*
X242176Y130742D02*
X241549D01*
X240970Y130502D01*
X240527Y130059D01*
X240288Y129481D01*
Y128854D01*
X240527Y128275D01*
X240970Y127832D01*
X241549Y127593D01*
X242176D01*
X242755Y127832D01*
X243197Y128275D01*
X243437Y128854D01*
Y129481D01*
X243197Y130059D01*
X242755Y130502D01*
X242176Y130742D01*
D02*
G37*
G36*
X265274Y130709D02*
X264647D01*
X264069Y130469D01*
X263626Y130026D01*
X263386Y129447D01*
Y128821D01*
X263626Y128242D01*
X264069Y127799D01*
X264647Y127559D01*
X265274D01*
X265853Y127799D01*
X266296Y128242D01*
X266535Y128821D01*
Y129447D01*
X266296Y130026D01*
X265853Y130469D01*
X265274Y130709D01*
D02*
G37*
G36*
X136560Y130616D02*
X135933D01*
X135354Y130376D01*
X134911Y129933D01*
X134672Y129355D01*
Y128728D01*
X134911Y128149D01*
X135354Y127706D01*
X135933Y127467D01*
X136560D01*
X137138Y127706D01*
X137582Y128149D01*
X137821Y128728D01*
Y129355D01*
X137582Y129933D01*
X137138Y130376D01*
X136560Y130616D01*
D02*
G37*
G36*
X168872Y130336D02*
X168245D01*
X167666Y130096D01*
X167223Y129653D01*
X166984Y129074D01*
Y128447D01*
X167223Y127869D01*
X167666Y127426D01*
X168245Y127186D01*
X168872D01*
X169450Y127426D01*
X169894Y127869D01*
X170133Y128447D01*
Y129074D01*
X169894Y129653D01*
X169450Y130096D01*
X168872Y130336D01*
D02*
G37*
G36*
X65274Y130315D02*
X64647D01*
X64069Y130075D01*
X63626Y129632D01*
X63386Y129053D01*
Y128427D01*
X63626Y127848D01*
X64069Y127405D01*
X64647Y127165D01*
X65274D01*
X65853Y127405D01*
X66296Y127848D01*
X66535Y128427D01*
Y129053D01*
X66296Y129632D01*
X65853Y130075D01*
X65274Y130315D01*
D02*
G37*
G36*
X101786Y130134D02*
X101160D01*
X100581Y129894D01*
X100138Y129452D01*
X99898Y128873D01*
Y128246D01*
X100138Y127667D01*
X100581Y127224D01*
X101160Y126985D01*
X101786D01*
X102365Y127224D01*
X102808Y127667D01*
X103048Y128246D01*
Y128873D01*
X102808Y129452D01*
X102365Y129894D01*
X101786Y130134D01*
D02*
G37*
G36*
X606Y128394D02*
X-20D01*
X-599Y128154D01*
X-1042Y127711D01*
X-1282Y127133D01*
Y126506D01*
X-1042Y125927D01*
X-599Y125484D01*
X-20Y125244D01*
X606D01*
X1185Y125484D01*
X1628Y125927D01*
X1868Y126506D01*
Y127133D01*
X1628Y127711D01*
X1185Y128154D01*
X606Y128394D01*
D02*
G37*
G36*
X211731Y127953D02*
X211104D01*
X210525Y127713D01*
X210082Y127270D01*
X209842Y126691D01*
Y126065D01*
X210082Y125486D01*
X210525Y125043D01*
X211104Y124803D01*
X211731D01*
X212309Y125043D01*
X212752Y125486D01*
X212992Y126065D01*
Y126691D01*
X212752Y127270D01*
X212309Y127713D01*
X211731Y127953D01*
D02*
G37*
G36*
X188896D02*
X188269D01*
X187691Y127713D01*
X187248Y127270D01*
X187008Y126691D01*
Y126065D01*
X187248Y125486D01*
X187691Y125043D01*
X188269Y124803D01*
X188896D01*
X189475Y125043D01*
X189918Y125486D01*
X190157Y126065D01*
Y126691D01*
X189918Y127270D01*
X189475Y127713D01*
X188896Y127953D01*
D02*
G37*
G36*
X35746D02*
X35120D01*
X34541Y127713D01*
X34098Y127270D01*
X33858Y126691D01*
Y126065D01*
X34098Y125486D01*
X34541Y125043D01*
X35120Y124803D01*
X35746D01*
X36325Y125043D01*
X36768Y125486D01*
X37008Y126065D01*
Y126691D01*
X36768Y127270D01*
X36325Y127713D01*
X35746Y127953D01*
D02*
G37*
G36*
X25510D02*
X24884D01*
X24305Y127713D01*
X23862Y127270D01*
X23622Y126691D01*
Y126065D01*
X23862Y125486D01*
X24305Y125043D01*
X24884Y124803D01*
X25510D01*
X26089Y125043D01*
X26532Y125486D01*
X26772Y126065D01*
Y126691D01*
X26532Y127270D01*
X26089Y127713D01*
X25510Y127953D01*
D02*
G37*
G36*
X-9529D02*
X-10156D01*
X-10735Y127713D01*
X-11178Y127270D01*
X-11417Y126691D01*
Y126065D01*
X-11178Y125486D01*
X-10735Y125043D01*
X-10156Y124803D01*
X-9529D01*
X-8951Y125043D01*
X-8507Y125486D01*
X-8268Y126065D01*
Y126691D01*
X-8507Y127270D01*
X-8951Y127713D01*
X-9529Y127953D01*
D02*
G37*
G36*
X671Y123549D02*
X45D01*
X-534Y123310D01*
X-977Y122867D01*
X-1217Y122288D01*
Y121661D01*
X-977Y121083D01*
X-534Y120640D01*
X45Y120400D01*
X671D01*
X1250Y120640D01*
X1693Y121083D01*
X1933Y121661D01*
Y122288D01*
X1693Y122867D01*
X1250Y123310D01*
X671Y123549D01*
D02*
G37*
G36*
X35793Y123331D02*
X35167D01*
X34588Y123091D01*
X34145Y122648D01*
X33905Y122069D01*
Y121443D01*
X34145Y120864D01*
X34588Y120421D01*
X35167Y120181D01*
X35793D01*
X36372Y120421D01*
X36815Y120864D01*
X37055Y121443D01*
Y122069D01*
X36815Y122648D01*
X36372Y123091D01*
X35793Y123331D01*
D02*
G37*
G36*
X133384Y122835D02*
X132758D01*
X132179Y122595D01*
X131736Y122152D01*
X131496Y121573D01*
Y120947D01*
X131736Y120368D01*
X132179Y119925D01*
X132758Y119685D01*
X133384D01*
X133963Y119925D01*
X134406Y120368D01*
X134646Y120947D01*
Y121573D01*
X134406Y122152D01*
X133963Y122595D01*
X133384Y122835D01*
D02*
G37*
G36*
X165668Y122441D02*
X165041D01*
X164462Y122201D01*
X164019Y121758D01*
X163779Y121179D01*
Y120553D01*
X164019Y119974D01*
X164462Y119531D01*
X165041Y119291D01*
X165668D01*
X166246Y119531D01*
X166689Y119974D01*
X166929Y120553D01*
Y121179D01*
X166689Y121758D01*
X166246Y122201D01*
X165668Y122441D01*
D02*
G37*
G36*
X98345D02*
X97718D01*
X97139Y122201D01*
X96697Y121758D01*
X96457Y121179D01*
Y120553D01*
X96697Y119974D01*
X97139Y119531D01*
X97718Y119291D01*
X98345D01*
X98924Y119531D01*
X99366Y119974D01*
X99606Y120553D01*
Y121179D01*
X99366Y121758D01*
X98924Y122201D01*
X98345Y122441D01*
D02*
G37*
G36*
X62518D02*
X61892D01*
X61313Y122201D01*
X60870Y121758D01*
X60630Y121179D01*
Y120553D01*
X60870Y119974D01*
X61313Y119531D01*
X61892Y119291D01*
X62518D01*
X63097Y119531D01*
X63540Y119974D01*
X63779Y120553D01*
Y121179D01*
X63540Y121758D01*
X63097Y122201D01*
X62518Y122441D01*
D02*
G37*
G36*
X248345Y118504D02*
X247718D01*
X247139Y118264D01*
X246696Y117821D01*
X246457Y117242D01*
Y116616D01*
X246696Y116037D01*
X247139Y115594D01*
X247718Y115354D01*
X248345D01*
X248923Y115594D01*
X249367Y116037D01*
X249606Y116616D01*
Y117242D01*
X249367Y117821D01*
X248923Y118264D01*
X248345Y118504D01*
D02*
G37*
G36*
X126797Y118289D02*
X126171D01*
X125592Y118050D01*
X125149Y117607D01*
X124909Y117028D01*
Y116401D01*
X125149Y115823D01*
X125592Y115380D01*
X126171Y115140D01*
X126797D01*
X127376Y115380D01*
X127819Y115823D01*
X128059Y116401D01*
Y117028D01*
X127819Y117607D01*
X127376Y118050D01*
X126797Y118289D01*
D02*
G37*
G36*
X92345Y118182D02*
X91719D01*
X91140Y117942D01*
X90697Y117499D01*
X90457Y116920D01*
Y116294D01*
X90697Y115715D01*
X91140Y115272D01*
X91719Y115032D01*
X92345D01*
X92924Y115272D01*
X93367Y115715D01*
X93607Y116294D01*
Y116920D01*
X93367Y117499D01*
X92924Y117942D01*
X92345Y118182D01*
D02*
G37*
G36*
X55825Y118110D02*
X55199D01*
X54620Y117870D01*
X54177Y117428D01*
X53937Y116849D01*
Y116222D01*
X54177Y115643D01*
X54620Y115200D01*
X55199Y114961D01*
X55825D01*
X56404Y115200D01*
X56847Y115643D01*
X57087Y116222D01*
Y116849D01*
X56847Y117428D01*
X56404Y117870D01*
X55825Y118110D01*
D02*
G37*
G36*
X195195Y116535D02*
X194569D01*
X193990Y116296D01*
X193547Y115853D01*
X193307Y115274D01*
Y114647D01*
X193547Y114069D01*
X193990Y113626D01*
X194569Y113386D01*
X195195D01*
X195774Y113626D01*
X196217Y114069D01*
X196457Y114647D01*
Y115274D01*
X196217Y115853D01*
X195774Y116296D01*
X195195Y116535D01*
D02*
G37*
G36*
X-2485Y116055D02*
X-3111D01*
X-3690Y115815D01*
X-4133Y115372D01*
X-4372Y114794D01*
Y114167D01*
X-4133Y113588D01*
X-3690Y113145D01*
X-3111Y112906D01*
X-2485D01*
X-1906Y113145D01*
X-1463Y113588D01*
X-1223Y114167D01*
Y114794D01*
X-1463Y115372D01*
X-1906Y115815D01*
X-2485Y116055D01*
D02*
G37*
G36*
X32476Y115805D02*
X31850D01*
X31271Y115566D01*
X30828Y115123D01*
X30588Y114544D01*
Y113917D01*
X30828Y113339D01*
X31271Y112896D01*
X31850Y112656D01*
X32476D01*
X33055Y112896D01*
X33498Y113339D01*
X33738Y113917D01*
Y114544D01*
X33498Y115123D01*
X33055Y115566D01*
X32476Y115805D01*
D02*
G37*
G36*
X118423Y114567D02*
X117797D01*
X117218Y114327D01*
X116775Y113884D01*
X116535Y113305D01*
Y112679D01*
X116775Y112100D01*
X117218Y111657D01*
X117797Y111417D01*
X118423D01*
X119002Y111657D01*
X119445Y112100D01*
X119685Y112679D01*
Y113305D01*
X119445Y113884D01*
X119002Y114327D01*
X118423Y114567D01*
D02*
G37*
G36*
X83232Y114285D02*
X82606D01*
X82027Y114045D01*
X81584Y113602D01*
X81344Y113023D01*
Y112397D01*
X81584Y111818D01*
X82027Y111375D01*
X82606Y111135D01*
X83232D01*
X83811Y111375D01*
X84254Y111818D01*
X84494Y112397D01*
Y113023D01*
X84254Y113602D01*
X83811Y114045D01*
X83232Y114285D01*
D02*
G37*
G36*
X150313Y114173D02*
X149687D01*
X149108Y113934D01*
X148665Y113490D01*
X148425Y112912D01*
Y112285D01*
X148665Y111706D01*
X149108Y111263D01*
X149687Y111024D01*
X150313D01*
X150892Y111263D01*
X151335Y111706D01*
X151575Y112285D01*
Y112912D01*
X151335Y113490D01*
X150892Y113934D01*
X150313Y114173D01*
D02*
G37*
G36*
X47557D02*
X46931D01*
X46352Y113934D01*
X45909Y113490D01*
X45669Y112912D01*
Y112285D01*
X45909Y111706D01*
X46352Y111263D01*
X46931Y111024D01*
X47557D01*
X48136Y111263D01*
X48579Y111706D01*
X48819Y112285D01*
Y112912D01*
X48579Y113490D01*
X48136Y113934D01*
X47557Y114173D01*
D02*
G37*
G36*
X249008Y109520D02*
X248382D01*
X247803Y109280D01*
X247360Y108837D01*
X247120Y108258D01*
Y107632D01*
X247360Y107053D01*
X247803Y106610D01*
X248382Y106370D01*
X249008D01*
X249587Y106610D01*
X250030Y107053D01*
X250270Y107632D01*
Y108258D01*
X250030Y108837D01*
X249587Y109280D01*
X249008Y109520D01*
D02*
G37*
G36*
X195473Y108826D02*
X194846D01*
X194268Y108586D01*
X193825Y108143D01*
X193585Y107565D01*
Y106938D01*
X193825Y106359D01*
X194268Y105916D01*
X194846Y105676D01*
X195473D01*
X196052Y105916D01*
X196495Y106359D01*
X196734Y106938D01*
Y107565D01*
X196495Y108143D01*
X196052Y108586D01*
X195473Y108826D01*
D02*
G37*
G36*
X-6576Y106353D02*
X-7202D01*
X-7781Y106113D01*
X-8224Y105670D01*
X-8463Y105091D01*
Y104465D01*
X-8224Y103886D01*
X-7781Y103443D01*
X-7202Y103203D01*
X-6576D01*
X-5997Y103443D01*
X-5554Y103886D01*
X-5314Y104465D01*
Y105091D01*
X-5554Y105670D01*
X-5997Y106113D01*
X-6576Y106353D01*
D02*
G37*
G36*
X28310Y106041D02*
X27683D01*
X27104Y105802D01*
X26661Y105359D01*
X26422Y104780D01*
Y104153D01*
X26661Y103575D01*
X27104Y103131D01*
X27683Y102892D01*
X28310D01*
X28888Y103131D01*
X29331Y103575D01*
X29571Y104153D01*
Y104780D01*
X29331Y105359D01*
X28888Y105802D01*
X28310Y106041D01*
D02*
G37*
G36*
X154771Y105067D02*
X154144D01*
X153565Y104827D01*
X153122Y104384D01*
X152882Y103805D01*
Y103179D01*
X153122Y102600D01*
X153565Y102157D01*
X154144Y101917D01*
X154771D01*
X155349Y102157D01*
X155792Y102600D01*
X156032Y103179D01*
Y103805D01*
X155792Y104384D01*
X155349Y104827D01*
X154771Y105067D01*
D02*
G37*
G36*
X164551Y104937D02*
X163925D01*
X163346Y104697D01*
X162903Y104254D01*
X162663Y103675D01*
Y103049D01*
X162903Y102470D01*
X163346Y102027D01*
X163925Y101787D01*
X164551D01*
X165130Y102027D01*
X165573Y102470D01*
X165813Y103049D01*
Y103675D01*
X165573Y104254D01*
X165130Y104697D01*
X164551Y104937D01*
D02*
G37*
G36*
X73004Y104724D02*
X72377D01*
X71799Y104485D01*
X71356Y104042D01*
X71116Y103463D01*
Y102836D01*
X71356Y102258D01*
X71799Y101815D01*
X72377Y101575D01*
X73004D01*
X73583Y101815D01*
X74026Y102258D01*
X74265Y102836D01*
Y103463D01*
X74026Y104042D01*
X73583Y104485D01*
X73004Y104724D01*
D02*
G37*
G36*
X62912D02*
X62285D01*
X61706Y104485D01*
X61263Y104042D01*
X61024Y103463D01*
Y102836D01*
X61263Y102258D01*
X61706Y101815D01*
X62285Y101575D01*
X62912D01*
X63490Y101815D01*
X63933Y102258D01*
X64173Y102836D01*
Y103463D01*
X63933Y104042D01*
X63490Y104485D01*
X62912Y104724D01*
D02*
G37*
G36*
X128266Y103937D02*
X127639D01*
X127061Y103697D01*
X126618Y103254D01*
X126378Y102675D01*
Y102049D01*
X126618Y101470D01*
X127061Y101027D01*
X127639Y100787D01*
X128266D01*
X128845Y101027D01*
X129288Y101470D01*
X129528Y102049D01*
Y102675D01*
X129288Y103254D01*
X128845Y103697D01*
X128266Y103937D01*
D02*
G37*
G36*
X118030D02*
X117403D01*
X116824Y103697D01*
X116382Y103254D01*
X116142Y102675D01*
Y102049D01*
X116382Y101470D01*
X116824Y101027D01*
X117403Y100787D01*
X118030D01*
X118609Y101027D01*
X119052Y101470D01*
X119291Y102049D01*
Y102675D01*
X119052Y103254D01*
X118609Y103697D01*
X118030Y103937D01*
D02*
G37*
G36*
X981Y103322D02*
X355D01*
X-224Y103082D01*
X-667Y102639D01*
X-907Y102060D01*
Y101434D01*
X-667Y100855D01*
X-224Y100412D01*
X355Y100172D01*
X981D01*
X1560Y100412D01*
X2003Y100855D01*
X2243Y101434D01*
Y102060D01*
X2003Y102639D01*
X1560Y103082D01*
X981Y103322D01*
D02*
G37*
G36*
X251494Y101181D02*
X250868D01*
X250289Y100941D01*
X249846Y100498D01*
X249606Y99920D01*
Y99293D01*
X249846Y98714D01*
X250289Y98271D01*
X250868Y98032D01*
X251494D01*
X252073Y98271D01*
X252516Y98714D01*
X252756Y99293D01*
Y99920D01*
X252516Y100498D01*
X252073Y100941D01*
X251494Y101181D01*
D02*
G37*
G36*
X197951Y100787D02*
X197325D01*
X196746Y100548D01*
X196303Y100105D01*
X196063Y99526D01*
Y98899D01*
X196303Y98321D01*
X196746Y97878D01*
X197325Y97638D01*
X197951D01*
X198530Y97878D01*
X198973Y98321D01*
X199213Y98899D01*
Y99526D01*
X198973Y100105D01*
X198530Y100548D01*
X197951Y100787D01*
D02*
G37*
G36*
X164487Y100000D02*
X163860D01*
X163281Y99760D01*
X162838Y99317D01*
X162598Y98738D01*
Y98112D01*
X162838Y97533D01*
X163281Y97090D01*
X163860Y96850D01*
X164487D01*
X165065Y97090D01*
X165508Y97533D01*
X165748Y98112D01*
Y98738D01*
X165508Y99317D01*
X165065Y99760D01*
X164487Y100000D01*
D02*
G37*
G36*
X128266Y98819D02*
X127639D01*
X127061Y98579D01*
X126618Y98136D01*
X126378Y97557D01*
Y96931D01*
X126618Y96352D01*
X127061Y95909D01*
X127639Y95669D01*
X128266D01*
X128845Y95909D01*
X129288Y96352D01*
X129528Y96931D01*
Y97557D01*
X129288Y98136D01*
X128845Y98579D01*
X128266Y98819D01*
D02*
G37*
G36*
X254447Y98425D02*
X253821D01*
X253242Y98185D01*
X252799Y97742D01*
X252559Y97164D01*
Y96537D01*
X252799Y95958D01*
X253242Y95515D01*
X253821Y95276D01*
X254447D01*
X255026Y95515D01*
X255469Y95958D01*
X255709Y96537D01*
Y97164D01*
X255469Y97742D01*
X255026Y98185D01*
X254447Y98425D01*
D02*
G37*
G36*
X201101Y98032D02*
X200474D01*
X199895Y97792D01*
X199452Y97349D01*
X199213Y96770D01*
Y96143D01*
X199452Y95565D01*
X199895Y95122D01*
X200474Y94882D01*
X201101D01*
X201679Y95122D01*
X202122Y95565D01*
X202362Y96143D01*
Y96770D01*
X202122Y97349D01*
X201679Y97792D01*
X201101Y98032D01*
D02*
G37*
G36*
X70824Y97169D02*
X70198D01*
X69619Y96929D01*
X69176Y96486D01*
X68936Y95908D01*
Y95281D01*
X69176Y94702D01*
X69619Y94259D01*
X70198Y94020D01*
X70824D01*
X71403Y94259D01*
X71846Y94702D01*
X72086Y95281D01*
Y95908D01*
X71846Y96486D01*
X71403Y96929D01*
X70824Y97169D01*
D02*
G37*
G36*
X90390Y104386D02*
X88956D01*
X87549Y104106D01*
X86223Y103557D01*
X85030Y102760D01*
X84016Y101746D01*
X83219Y100553D01*
X82670Y99227D01*
X82390Y97820D01*
Y96386D01*
X82670Y94978D01*
X83219Y93653D01*
X84016Y92460D01*
X85030Y91445D01*
X86223Y90648D01*
X87549Y90099D01*
X88956Y89819D01*
X90390D01*
X91798Y90099D01*
X93123Y90648D01*
X94316Y91445D01*
X95331Y92460D01*
X96128Y93653D01*
X96677Y94978D01*
X96957Y96386D01*
Y97820D01*
X96677Y99227D01*
X96128Y100553D01*
X95331Y101746D01*
X94316Y102760D01*
X93123Y103557D01*
X91798Y104106D01*
X90390Y104386D01*
D02*
G37*
G36*
X161337Y92520D02*
X160710D01*
X160132Y92280D01*
X159689Y91837D01*
X159449Y91258D01*
Y90632D01*
X159689Y90053D01*
X160132Y89610D01*
X160710Y89370D01*
X161337D01*
X161916Y89610D01*
X162359Y90053D01*
X162598Y90632D01*
Y91258D01*
X162359Y91837D01*
X161916Y92280D01*
X161337Y92520D01*
D02*
G37*
G36*
X170249Y92289D02*
X169623D01*
X169044Y92049D01*
X168601Y91606D01*
X168361Y91027D01*
Y90401D01*
X168601Y89822D01*
X169044Y89379D01*
X169623Y89139D01*
X170249D01*
X170828Y89379D01*
X171271Y89822D01*
X171511Y90401D01*
Y91027D01*
X171271Y91606D01*
X170828Y92049D01*
X170249Y92289D01*
D02*
G37*
G36*
X69939Y91855D02*
X69312D01*
X68733Y91615D01*
X68290Y91172D01*
X68050Y90593D01*
Y89966D01*
X68290Y89388D01*
X68733Y88945D01*
X69312Y88705D01*
X69939D01*
X70517Y88945D01*
X70960Y89388D01*
X71200Y89966D01*
Y90593D01*
X70960Y91172D01*
X70517Y91615D01*
X69939Y91855D01*
D02*
G37*
G36*
X125116Y90945D02*
X124490D01*
X123911Y90705D01*
X123468Y90262D01*
X123228Y89683D01*
Y89057D01*
X123468Y88478D01*
X123911Y88035D01*
X124490Y87795D01*
X125116D01*
X125695Y88035D01*
X126138Y88478D01*
X126378Y89057D01*
Y89683D01*
X126138Y90262D01*
X125695Y90705D01*
X125116Y90945D01*
D02*
G37*
G36*
X244292Y90445D02*
X243666D01*
X243087Y90206D01*
X242644Y89763D01*
X242404Y89184D01*
Y88557D01*
X242644Y87979D01*
X243087Y87536D01*
X243666Y87296D01*
X244292D01*
X244871Y87536D01*
X245314Y87979D01*
X245554Y88557D01*
Y89184D01*
X245314Y89763D01*
X244871Y90206D01*
X244292Y90445D01*
D02*
G37*
G36*
X253994Y87795D02*
X253367D01*
X252788Y87555D01*
X252450Y87217D01*
X252112Y87555D01*
X251533Y87795D01*
X250906D01*
X250328Y87555D01*
X249885Y87112D01*
X249645Y86534D01*
Y85907D01*
X249885Y85328D01*
X250328Y84885D01*
X250906Y84646D01*
X251533D01*
X252112Y84885D01*
X252450Y85224D01*
X252788Y84885D01*
X253367Y84646D01*
X253994D01*
X254573Y84885D01*
X255015Y85328D01*
X255255Y85907D01*
Y86534D01*
X255015Y87112D01*
X254573Y87555D01*
X253994Y87795D01*
D02*
G37*
G36*
X191652Y89764D02*
X191025D01*
X190446Y89524D01*
X190004Y89081D01*
X189764Y88502D01*
Y87876D01*
X190004Y87297D01*
X190446Y86854D01*
X191025Y86614D01*
X191652D01*
X192231Y86854D01*
X192674Y87297D01*
X192913Y87876D01*
Y88502D01*
X192674Y89081D01*
X192231Y89524D01*
X191652Y89764D01*
D02*
G37*
G36*
X263313Y89578D02*
X262687D01*
X262108Y89338D01*
X261665Y88895D01*
X261425Y88316D01*
Y87690D01*
X261665Y87111D01*
X262108Y86668D01*
X262687Y86428D01*
X263313D01*
X263892Y86668D01*
X264335Y87111D01*
X264575Y87690D01*
Y88316D01*
X264335Y88895D01*
X263892Y89338D01*
X263313Y89578D01*
D02*
G37*
G36*
X63699Y87795D02*
X63073D01*
X62494Y87555D01*
X62051Y87112D01*
X61811Y86534D01*
Y85907D01*
X62051Y85328D01*
X62494Y84885D01*
X63073Y84646D01*
X63699D01*
X64278Y84885D01*
X64721Y85328D01*
X64961Y85907D01*
Y86534D01*
X64721Y87112D01*
X64278Y87555D01*
X63699Y87795D01*
D02*
G37*
G36*
X119506Y86441D02*
X118880D01*
X118301Y86201D01*
X117858Y85758D01*
X117618Y85179D01*
Y84553D01*
X117858Y83974D01*
X118301Y83531D01*
X118880Y83291D01*
X119506D01*
X120085Y83531D01*
X120528Y83974D01*
X120768Y84553D01*
Y85179D01*
X120528Y85758D01*
X120085Y86201D01*
X119506Y86441D01*
D02*
G37*
G36*
X264093Y84252D02*
X263466D01*
X262888Y84012D01*
X262444Y83569D01*
X262205Y82990D01*
Y82364D01*
X262444Y81785D01*
X262888Y81342D01*
X263466Y81102D01*
X264093D01*
X264672Y81342D01*
X265115Y81785D01*
X265354Y82364D01*
Y82990D01*
X265115Y83569D01*
X264672Y84012D01*
X264093Y84252D01*
D02*
G37*
G36*
X241258D02*
X240632D01*
X240053Y84012D01*
X239610Y83569D01*
X239370Y82990D01*
Y82364D01*
X239610Y81785D01*
X240053Y81342D01*
X240632Y81102D01*
X241258D01*
X241837Y81342D01*
X242280Y81785D01*
X242520Y82364D01*
Y82990D01*
X242280Y83569D01*
X241837Y84012D01*
X241258Y84252D01*
D02*
G37*
G36*
X210943D02*
X210317D01*
X209738Y84012D01*
X209295Y83569D01*
X209055Y82990D01*
Y82364D01*
X209295Y81785D01*
X209738Y81342D01*
X210317Y81102D01*
X210943D01*
X211522Y81342D01*
X211965Y81785D01*
X212205Y82364D01*
Y82990D01*
X211965Y83569D01*
X211522Y84012D01*
X210943Y84252D01*
D02*
G37*
G36*
X145983D02*
X145356D01*
X144777Y84012D01*
X144334Y83569D01*
X144095Y82990D01*
Y82364D01*
X144334Y81785D01*
X144777Y81342D01*
X145356Y81102D01*
X145983D01*
X146561Y81342D01*
X147004Y81785D01*
X147244Y82364D01*
Y82990D01*
X147004Y83569D01*
X146561Y84012D01*
X145983Y84252D01*
D02*
G37*
G36*
X187998Y84141D02*
X187372D01*
X186793Y83902D01*
X186350Y83459D01*
X186110Y82880D01*
Y82253D01*
X186350Y81675D01*
X186793Y81232D01*
X187372Y80992D01*
X187998D01*
X188577Y81232D01*
X189020Y81675D01*
X189260Y82253D01*
Y82880D01*
X189020Y83459D01*
X188577Y83902D01*
X187998Y84141D01*
D02*
G37*
G36*
X54774Y83858D02*
X54147D01*
X53569Y83618D01*
X53126Y83175D01*
X52886Y82597D01*
Y81970D01*
X53126Y81391D01*
X53569Y80948D01*
X54147Y80709D01*
X54774D01*
X55353Y80948D01*
X55796Y81391D01*
X56036Y81970D01*
Y82597D01*
X55796Y83175D01*
X55353Y83618D01*
X54774Y83858D01*
D02*
G37*
G36*
X110679Y82820D02*
X110053D01*
X109474Y82580D01*
X109031Y82137D01*
X108791Y81559D01*
Y80932D01*
X109031Y80353D01*
X109474Y79910D01*
X110053Y79671D01*
X110679D01*
X111258Y79910D01*
X111701Y80353D01*
X111941Y80932D01*
Y81559D01*
X111701Y82137D01*
X111258Y82580D01*
X110679Y82820D01*
D02*
G37*
G36*
X65274Y81496D02*
X64647D01*
X64069Y81256D01*
X63626Y80813D01*
X63386Y80234D01*
Y79608D01*
X63626Y79029D01*
X64069Y78586D01*
X64647Y78347D01*
X65274D01*
X65853Y78586D01*
X66296Y79029D01*
X66535Y79608D01*
Y80234D01*
X66296Y80813D01*
X65853Y81256D01*
X65274Y81496D01*
D02*
G37*
G36*
X170392Y77165D02*
X169765D01*
X169187Y76926D01*
X168744Y76483D01*
X168504Y75904D01*
Y75277D01*
X168744Y74699D01*
X169187Y74256D01*
X169765Y74016D01*
X170392D01*
X170971Y74256D01*
X171414Y74699D01*
X171653Y75277D01*
Y75904D01*
X171414Y76483D01*
X170971Y76926D01*
X170392Y77165D01*
D02*
G37*
G36*
X40864Y73228D02*
X40238D01*
X39659Y72989D01*
X39216Y72546D01*
X38976Y71967D01*
Y71340D01*
X39216Y70762D01*
X39659Y70319D01*
X40238Y70079D01*
X40864D01*
X41443Y70319D01*
X41886Y70762D01*
X42126Y71340D01*
Y71967D01*
X41886Y72546D01*
X41443Y72989D01*
X40864Y73228D01*
D02*
G37*
G36*
X35746D02*
X35120D01*
X34541Y72989D01*
X34098Y72546D01*
X33858Y71967D01*
Y71340D01*
X34098Y70762D01*
X34541Y70319D01*
X35120Y70079D01*
X35746D01*
X36325Y70319D01*
X36768Y70762D01*
X37008Y71340D01*
Y71967D01*
X36768Y72546D01*
X36325Y72989D01*
X35746Y73228D01*
D02*
G37*
G36*
X25904D02*
X25277D01*
X24699Y72989D01*
X24256Y72546D01*
X24016Y71967D01*
Y71340D01*
X24256Y70762D01*
X24699Y70319D01*
X25277Y70079D01*
X25904D01*
X26483Y70319D01*
X26926Y70762D01*
X27165Y71340D01*
Y71967D01*
X26926Y72546D01*
X26483Y72989D01*
X25904Y73228D01*
D02*
G37*
G36*
X20786D02*
X20159D01*
X19580Y72989D01*
X19137Y72546D01*
X18898Y71967D01*
Y71340D01*
X19137Y70762D01*
X19580Y70319D01*
X20159Y70079D01*
X20786D01*
X21364Y70319D01*
X21808Y70762D01*
X22047Y71340D01*
Y71967D01*
X21808Y72546D01*
X21364Y72989D01*
X20786Y73228D01*
D02*
G37*
G36*
X10935Y73132D02*
X10308D01*
X9730Y72892D01*
X9287Y72449D01*
X9047Y71870D01*
Y71244D01*
X9287Y70665D01*
X9730Y70222D01*
X10308Y69982D01*
X10935D01*
X11514Y70222D01*
X11957Y70665D01*
X12196Y71244D01*
Y71870D01*
X11957Y72449D01*
X11514Y72892D01*
X10935Y73132D01*
D02*
G37*
G36*
X-29632Y72684D02*
X-30259D01*
X-30837Y72445D01*
X-31280Y72002D01*
X-31520Y71423D01*
Y70796D01*
X-31280Y70218D01*
X-30837Y69775D01*
X-30259Y69535D01*
X-29632D01*
X-29053Y69775D01*
X-28610Y70218D01*
X-28370Y70796D01*
Y71423D01*
X-28610Y72002D01*
X-29053Y72445D01*
X-29632Y72684D01*
D02*
G37*
G36*
X88108Y72047D02*
X87482D01*
X86903Y71807D01*
X86460Y71364D01*
X86221Y70786D01*
Y70159D01*
X86460Y69580D01*
X86903Y69137D01*
X87482Y68898D01*
X88108D01*
X88687Y69137D01*
X89130Y69580D01*
X89370Y70159D01*
Y70786D01*
X89130Y71364D01*
X88687Y71807D01*
X88108Y72047D01*
D02*
G37*
G36*
X149163Y71536D02*
X148536D01*
X147957Y71297D01*
X147514Y70853D01*
X147274Y70275D01*
Y69648D01*
X147514Y69069D01*
X147957Y68626D01*
X148536Y68387D01*
X149163D01*
X149741Y68626D01*
X150184Y69069D01*
X150424Y69648D01*
Y70275D01*
X150184Y70853D01*
X149741Y71297D01*
X149163Y71536D01*
D02*
G37*
G36*
X114302Y71435D02*
X113676D01*
X113097Y71195D01*
X112654Y70752D01*
X112414Y70173D01*
Y69547D01*
X112654Y68968D01*
X113097Y68525D01*
X113676Y68285D01*
X114302D01*
X114881Y68525D01*
X115324Y68968D01*
X115564Y69547D01*
Y70173D01*
X115324Y70752D01*
X114881Y71195D01*
X114302Y71435D01*
D02*
G37*
G36*
X199132Y71260D02*
X198506D01*
X197927Y71020D01*
X197484Y70577D01*
X197244Y69998D01*
Y69372D01*
X197484Y68793D01*
X197927Y68350D01*
X198506Y68110D01*
X199132D01*
X199711Y68350D01*
X200154Y68793D01*
X200394Y69372D01*
Y69998D01*
X200154Y70577D01*
X199711Y71020D01*
X199132Y71260D01*
D02*
G37*
G36*
X252504Y71165D02*
X251877D01*
X251299Y70925D01*
X250856Y70482D01*
X250616Y69903D01*
Y69277D01*
X250856Y68698D01*
X251299Y68255D01*
X251877Y68015D01*
X252504D01*
X253083Y68255D01*
X253526Y68698D01*
X253765Y69277D01*
Y69903D01*
X253526Y70482D01*
X253083Y70925D01*
X252504Y71165D01*
D02*
G37*
G36*
X93423Y70780D02*
X92797D01*
X92218Y70541D01*
X91775Y70098D01*
X91536Y69519D01*
Y68892D01*
X91775Y68314D01*
X92218Y67871D01*
X92797Y67631D01*
X93423D01*
X94002Y67871D01*
X94445Y68314D01*
X94685Y68892D01*
Y69519D01*
X94445Y70098D01*
X94002Y70541D01*
X93423Y70780D01*
D02*
G37*
G36*
X120272Y70083D02*
X119645D01*
X119067Y69843D01*
X118624Y69400D01*
X118384Y68822D01*
Y68195D01*
X118624Y67616D01*
X119067Y67173D01*
X119645Y66934D01*
X120272D01*
X120851Y67173D01*
X121294Y67616D01*
X121533Y68195D01*
Y68822D01*
X121294Y69400D01*
X120851Y69843D01*
X120272Y70083D01*
D02*
G37*
G36*
X154892Y69775D02*
X154266D01*
X153687Y69536D01*
X153244Y69093D01*
X153004Y68514D01*
Y67887D01*
X153244Y67309D01*
X153687Y66865D01*
X154266Y66626D01*
X154892D01*
X155471Y66865D01*
X155914Y67309D01*
X156154Y67887D01*
Y68514D01*
X155914Y69093D01*
X155471Y69536D01*
X154892Y69775D01*
D02*
G37*
G36*
X73647Y67315D02*
X73020D01*
X72442Y67076D01*
X71999Y66633D01*
X71759Y66054D01*
Y65427D01*
X71999Y64849D01*
X72442Y64406D01*
X73020Y64166D01*
X73647D01*
X74226Y64406D01*
X74669Y64849D01*
X74909Y65427D01*
Y66054D01*
X74669Y66633D01*
X74226Y67076D01*
X73647Y67315D01*
D02*
G37*
G36*
X124367Y66466D02*
X123741D01*
X123162Y66226D01*
X122719Y65783D01*
X122479Y65205D01*
Y64578D01*
X122719Y63999D01*
X123162Y63556D01*
X123741Y63317D01*
X124367D01*
X124946Y63556D01*
X125389Y63999D01*
X125629Y64578D01*
Y65205D01*
X125389Y65783D01*
X124946Y66226D01*
X124367Y66466D01*
D02*
G37*
G36*
X158896Y65693D02*
X158269D01*
X157690Y65454D01*
X157247Y65011D01*
X157008Y64432D01*
Y63805D01*
X157247Y63226D01*
X157690Y62783D01*
X158269Y62544D01*
X158896D01*
X159475Y62783D01*
X159917Y63226D01*
X160157Y63805D01*
Y64432D01*
X159917Y65011D01*
X159475Y65454D01*
X158896Y65693D01*
D02*
G37*
G36*
X248159Y63513D02*
X247533D01*
X246954Y63274D01*
X246511Y62831D01*
X246271Y62252D01*
Y61625D01*
X246511Y61047D01*
X246954Y60604D01*
X247533Y60364D01*
X248159D01*
X248738Y60604D01*
X249181Y61047D01*
X249421Y61625D01*
Y62252D01*
X249181Y62831D01*
X248738Y63274D01*
X248159Y63513D01*
D02*
G37*
G36*
X194801Y63460D02*
X194175D01*
X193596Y63221D01*
X193153Y62777D01*
X192913Y62199D01*
Y61572D01*
X193153Y60993D01*
X193596Y60550D01*
X194175Y60311D01*
X194801D01*
X195380Y60550D01*
X195823Y60993D01*
X196063Y61572D01*
Y62199D01*
X195823Y62777D01*
X195380Y63221D01*
X194801Y63460D01*
D02*
G37*
G36*
X-4659Y58938D02*
X-5285D01*
X-5864Y58698D01*
X-6307Y58255D01*
X-6547Y57676D01*
Y57050D01*
X-6307Y56471D01*
X-5864Y56028D01*
X-5285Y55788D01*
X-4659D01*
X-4080Y56028D01*
X-3637Y56471D01*
X-3397Y57050D01*
Y57676D01*
X-3637Y58255D01*
X-4080Y58698D01*
X-4659Y58938D01*
D02*
G37*
G36*
X-9596Y58918D02*
X-10222D01*
X-10801Y58678D01*
X-11244Y58235D01*
X-11484Y57656D01*
Y57030D01*
X-11244Y56451D01*
X-10801Y56008D01*
X-10222Y55768D01*
X-9596D01*
X-9017Y56008D01*
X-8574Y56451D01*
X-8334Y57030D01*
Y57656D01*
X-8574Y58235D01*
X-9017Y58678D01*
X-9596Y58918D01*
D02*
G37*
G36*
X-19649Y58899D02*
X-20275D01*
X-20854Y58659D01*
X-21297Y58216D01*
X-21537Y57637D01*
Y57011D01*
X-21297Y56432D01*
X-20854Y55989D01*
X-20275Y55749D01*
X-19649D01*
X-19070Y55989D01*
X-18627Y56432D01*
X-18387Y57011D01*
Y57637D01*
X-18627Y58216D01*
X-19070Y58659D01*
X-19649Y58899D01*
D02*
G37*
G36*
X-24546Y58819D02*
X-25173D01*
X-25751Y58579D01*
X-26194Y58136D01*
X-26434Y57558D01*
Y56931D01*
X-26194Y56352D01*
X-25751Y55909D01*
X-25173Y55670D01*
X-24546D01*
X-23967Y55909D01*
X-23524Y56352D01*
X-23284Y56931D01*
Y57558D01*
X-23524Y58136D01*
X-23967Y58579D01*
X-24546Y58819D01*
D02*
G37*
G36*
X131791Y56442D02*
X131165D01*
X130586Y56202D01*
X130143Y55759D01*
X129903Y55180D01*
Y54554D01*
X130143Y53975D01*
X130586Y53532D01*
X131165Y53292D01*
X131791D01*
X132370Y53532D01*
X132813Y53975D01*
X133053Y54554D01*
Y55180D01*
X132813Y55759D01*
X132370Y56202D01*
X131791Y56442D01*
D02*
G37*
G36*
X250313Y55512D02*
X249687D01*
X249108Y55272D01*
X248665Y54829D01*
X248425Y54250D01*
Y53624D01*
X248665Y53045D01*
X249108Y52602D01*
X249687Y52362D01*
X250313D01*
X250892Y52602D01*
X251335Y53045D01*
X251575Y53624D01*
Y54250D01*
X251335Y54829D01*
X250892Y55272D01*
X250313Y55512D01*
D02*
G37*
G36*
X93256Y55281D02*
X92630D01*
X92051Y55041D01*
X91608Y54598D01*
X91368Y54019D01*
Y53393D01*
X91608Y52814D01*
X92051Y52371D01*
X92630Y52131D01*
X93256D01*
X93835Y52371D01*
X94278Y52814D01*
X94518Y53393D01*
Y54019D01*
X94278Y54598D01*
X93835Y55041D01*
X93256Y55281D01*
D02*
G37*
G36*
X197164Y55118D02*
X196537D01*
X195958Y54878D01*
X195515Y54435D01*
X195276Y53857D01*
Y53230D01*
X195515Y52651D01*
X195958Y52208D01*
X196537Y51968D01*
X197164D01*
X197742Y52208D01*
X198185Y52651D01*
X198425Y53230D01*
Y53857D01*
X198185Y54435D01*
X197742Y54878D01*
X197164Y55118D01*
D02*
G37*
G36*
X253512Y52756D02*
X252885D01*
X252307Y52516D01*
X251864Y52073D01*
X251624Y51494D01*
Y50868D01*
X251864Y50289D01*
X252307Y49846D01*
X252885Y49606D01*
X253512D01*
X254091Y49846D01*
X254534Y50289D01*
X254773Y50868D01*
Y51494D01*
X254534Y52073D01*
X254091Y52516D01*
X253512Y52756D01*
D02*
G37*
G36*
X200313D02*
X199687D01*
X199108Y52516D01*
X198665Y52073D01*
X198425Y51494D01*
Y50868D01*
X198665Y50289D01*
X199108Y49846D01*
X199687Y49606D01*
X200313D01*
X200892Y49846D01*
X201335Y50289D01*
X201575Y50868D01*
Y51494D01*
X201335Y52073D01*
X200892Y52516D01*
X200313Y52756D01*
D02*
G37*
G36*
X15969Y51711D02*
X15343D01*
X14764Y51472D01*
X14321Y51029D01*
X14081Y50450D01*
Y49823D01*
X14321Y49244D01*
X14764Y48801D01*
X15343Y48562D01*
X15969D01*
X16548Y48801D01*
X16991Y49244D01*
X17231Y49823D01*
Y50450D01*
X16991Y51029D01*
X16548Y51472D01*
X15969Y51711D01*
D02*
G37*
G36*
X20959Y51698D02*
X20332D01*
X19753Y51458D01*
X19310Y51015D01*
X19071Y50436D01*
Y49810D01*
X19310Y49231D01*
X19753Y48788D01*
X20332Y48548D01*
X20959D01*
X21538Y48788D01*
X21981Y49231D01*
X22220Y49810D01*
Y50436D01*
X21981Y51015D01*
X21538Y51458D01*
X20959Y51698D01*
D02*
G37*
G36*
X30879Y51675D02*
X30252D01*
X29673Y51435D01*
X29230Y50992D01*
X28991Y50413D01*
Y49786D01*
X29230Y49208D01*
X29673Y48765D01*
X30252Y48525D01*
X30879D01*
X31457Y48765D01*
X31900Y49208D01*
X32140Y49786D01*
Y50413D01*
X31900Y50992D01*
X31457Y51435D01*
X30879Y51675D01*
D02*
G37*
G36*
X35826Y51611D02*
X35199D01*
X34621Y51372D01*
X34178Y50928D01*
X33938Y50350D01*
Y49723D01*
X34178Y49144D01*
X34621Y48701D01*
X35199Y48462D01*
X35826D01*
X36405Y48701D01*
X36848Y49144D01*
X37088Y49723D01*
Y50350D01*
X36848Y50928D01*
X36405Y51372D01*
X35826Y51611D01*
D02*
G37*
G36*
X148059Y50894D02*
X147432D01*
X146853Y50655D01*
X146410Y50212D01*
X146171Y49633D01*
Y49006D01*
X146410Y48427D01*
X146853Y47984D01*
X147432Y47745D01*
X148059D01*
X148637Y47984D01*
X149081Y48427D01*
X149320Y49006D01*
Y49633D01*
X149081Y50212D01*
X148637Y50655D01*
X148059Y50894D01*
D02*
G37*
G36*
X112914Y50651D02*
X112287D01*
X111708Y50411D01*
X111265Y49968D01*
X111026Y49389D01*
Y48763D01*
X111265Y48184D01*
X111708Y47741D01*
X112287Y47501D01*
X112914D01*
X113492Y47741D01*
X113935Y48184D01*
X114175Y48763D01*
Y49389D01*
X113935Y49968D01*
X113492Y50411D01*
X112914Y50651D01*
D02*
G37*
G36*
X33434Y48414D02*
X32807D01*
X32229Y48174D01*
X31786Y47731D01*
X31546Y47152D01*
Y46526D01*
X31786Y45947D01*
X32229Y45504D01*
X32807Y45264D01*
X33434D01*
X34013Y45504D01*
X34456Y45947D01*
X34696Y46526D01*
Y47152D01*
X34456Y47731D01*
X34013Y48174D01*
X33434Y48414D01*
D02*
G37*
G36*
X-7525Y48302D02*
X-8152D01*
X-8730Y48062D01*
X-9173Y47619D01*
X-9413Y47040D01*
Y46414D01*
X-9173Y45835D01*
X-8730Y45392D01*
X-8152Y45152D01*
X-7525D01*
X-6946Y45392D01*
X-6503Y45835D01*
X-6264Y46414D01*
Y47040D01*
X-6503Y47619D01*
X-6946Y48062D01*
X-7525Y48302D01*
D02*
G37*
G36*
X124507Y45672D02*
X123880D01*
X123301Y45432D01*
X122858Y44989D01*
X122618Y44410D01*
Y43784D01*
X122858Y43205D01*
X123301Y42762D01*
X123880Y42522D01*
X124507D01*
X125085Y42762D01*
X125528Y43205D01*
X125768Y43784D01*
Y44410D01*
X125528Y44989D01*
X125085Y45432D01*
X124507Y45672D01*
D02*
G37*
G36*
X112912Y45669D02*
X112285D01*
X111706Y45430D01*
X111263Y44987D01*
X111024Y44408D01*
Y43781D01*
X111263Y43202D01*
X111706Y42759D01*
X112285Y42520D01*
X112912D01*
X113490Y42759D01*
X113934Y43202D01*
X114173Y43781D01*
Y44408D01*
X113934Y44987D01*
X113490Y45430D01*
X112912Y45669D01*
D02*
G37*
G36*
X148023Y45516D02*
X147396D01*
X146817Y45276D01*
X146374Y44833D01*
X146134Y44254D01*
Y43628D01*
X146374Y43049D01*
X146817Y42606D01*
X147396Y42366D01*
X148023D01*
X148601Y42606D01*
X149044Y43049D01*
X149284Y43628D01*
Y44254D01*
X149044Y44833D01*
X148601Y45276D01*
X148023Y45516D01*
D02*
G37*
G36*
X159017Y45386D02*
X158390D01*
X157811Y45146D01*
X157369Y44703D01*
X157129Y44124D01*
Y43498D01*
X157369Y42919D01*
X157811Y42476D01*
X158390Y42236D01*
X159017D01*
X159596Y42476D01*
X160039Y42919D01*
X160278Y43498D01*
Y44124D01*
X160039Y44703D01*
X159596Y45146D01*
X159017Y45386D01*
D02*
G37*
G36*
X188209Y44929D02*
X187582D01*
X187004Y44689D01*
X186560Y44246D01*
X186321Y43667D01*
Y43041D01*
X186560Y42462D01*
X187004Y42019D01*
X187582Y41779D01*
X188209D01*
X188788Y42019D01*
X189231Y42462D01*
X189470Y43041D01*
Y43667D01*
X189231Y44246D01*
X188788Y44689D01*
X188209Y44929D01*
D02*
G37*
G36*
X100169Y43677D02*
X99542D01*
X98964Y43438D01*
X98521Y42995D01*
X98281Y42416D01*
Y41789D01*
X98521Y41210D01*
X98964Y40767D01*
X99542Y40528D01*
X100169D01*
X100748Y40767D01*
X101191Y41210D01*
X101430Y41789D01*
Y42416D01*
X101191Y42995D01*
X100748Y43438D01*
X100169Y43677D01*
D02*
G37*
G36*
X-7551Y42659D02*
X-8177D01*
X-8756Y42419D01*
X-9199Y41976D01*
X-9439Y41398D01*
Y40771D01*
X-9199Y40192D01*
X-8756Y39749D01*
X-8177Y39510D01*
X-7551D01*
X-6972Y39749D01*
X-6529Y40192D01*
X-6289Y40771D01*
Y41398D01*
X-6529Y41976D01*
X-6972Y42419D01*
X-7551Y42659D01*
D02*
G37*
G36*
X43227Y42520D02*
X42600D01*
X42021Y42280D01*
X41578Y41837D01*
X41339Y41258D01*
Y40632D01*
X41578Y40053D01*
X42021Y39610D01*
X42600Y39370D01*
X43227D01*
X43805Y39610D01*
X44248Y40053D01*
X44488Y40632D01*
Y41258D01*
X44248Y41837D01*
X43805Y42280D01*
X43227Y42520D01*
D02*
G37*
G36*
X33384D02*
X32758D01*
X32179Y42280D01*
X31736Y41837D01*
X31496Y41258D01*
Y40632D01*
X31736Y40053D01*
X32179Y39610D01*
X32758Y39370D01*
X33384D01*
X33963Y39610D01*
X34406Y40053D01*
X34646Y40632D01*
Y41258D01*
X34406Y41837D01*
X33963Y42280D01*
X33384Y42520D01*
D02*
G37*
G36*
X2550Y42519D02*
X1923D01*
X1345Y42279D01*
X902Y41836D01*
X662Y41258D01*
Y40631D01*
X902Y40052D01*
X1345Y39609D01*
X1923Y39369D01*
X2550D01*
X3129Y39609D01*
X3572Y40052D01*
X3811Y40631D01*
Y41258D01*
X3572Y41836D01*
X3129Y42279D01*
X2550Y42519D01*
D02*
G37*
G36*
X166501Y42187D02*
X165874D01*
X165296Y41947D01*
X164852Y41504D01*
X164613Y40925D01*
Y40299D01*
X164852Y39720D01*
X165296Y39277D01*
X165874Y39037D01*
X166501D01*
X167080Y39277D01*
X167523Y39720D01*
X167762Y40299D01*
Y40925D01*
X167523Y41504D01*
X167080Y41947D01*
X166501Y42187D01*
D02*
G37*
G36*
X129693Y41769D02*
X129066D01*
X128487Y41530D01*
X128044Y41087D01*
X127805Y40508D01*
Y39881D01*
X128044Y39303D01*
X128487Y38860D01*
X129066Y38620D01*
X129693D01*
X130271Y38860D01*
X130714Y39303D01*
X130954Y39881D01*
Y40508D01*
X130714Y41087D01*
X130271Y41530D01*
X129693Y41769D01*
D02*
G37*
G36*
X95809Y38608D02*
X95182D01*
X94604Y38368D01*
X94160Y37925D01*
X93921Y37347D01*
Y36720D01*
X94160Y36141D01*
X94604Y35698D01*
X95182Y35459D01*
X95809D01*
X96388Y35698D01*
X96831Y36141D01*
X97070Y36720D01*
Y37347D01*
X96831Y37925D01*
X96388Y38368D01*
X95809Y38608D01*
D02*
G37*
G36*
X209263Y32976D02*
X208447D01*
X207660Y32765D01*
X206954Y32357D01*
X206377Y31780D01*
X205969Y31074D01*
X205866Y30687D01*
X205339Y30652D01*
X205272Y30813D01*
X204829Y31256D01*
X204250Y31496D01*
X203624D01*
X203045Y31256D01*
X202602Y30813D01*
X202434Y30408D01*
X201909Y30447D01*
X201741Y31074D01*
X201333Y31780D01*
X200757Y32357D01*
X200050Y32765D01*
X199263Y32976D01*
X198448D01*
X197660Y32765D01*
X196954Y32357D01*
X196377Y31780D01*
X195969Y31074D01*
X195758Y30286D01*
Y29471D01*
X195969Y28683D01*
X196377Y27977D01*
X196954Y27401D01*
X197660Y26993D01*
X198448Y26782D01*
X199263D01*
X200050Y26993D01*
X200757Y27401D01*
X201333Y27977D01*
X201741Y28683D01*
X201923Y29362D01*
X202282Y29444D01*
X202435Y29431D01*
X202602Y29029D01*
X203045Y28586D01*
X203624Y28346D01*
X204250D01*
X204829Y28586D01*
X205272Y29029D01*
X205325Y29157D01*
X205852Y29122D01*
X205969Y28683D01*
X206377Y27977D01*
X206954Y27401D01*
X207660Y26993D01*
X208447Y26782D01*
X209263D01*
X210051Y26993D01*
X210757Y27401D01*
X211333Y27977D01*
X211741Y28683D01*
X211952Y29471D01*
Y30286D01*
X211741Y31074D01*
X211333Y31780D01*
X210757Y32357D01*
X210051Y32765D01*
X209263Y32976D01*
D02*
G37*
G36*
X155058Y28010D02*
X154431D01*
X153852Y27771D01*
X153409Y27327D01*
X153169Y26749D01*
Y26122D01*
X153409Y25543D01*
X153852Y25100D01*
X154431Y24861D01*
X155058D01*
X155636Y25100D01*
X156079Y25543D01*
X156319Y26122D01*
Y26749D01*
X156079Y27327D01*
X155636Y27771D01*
X155058Y28010D01*
D02*
G37*
G36*
X175494Y28007D02*
X174867D01*
X174288Y27768D01*
X173846Y27325D01*
X173606Y26746D01*
Y26119D01*
X173846Y25540D01*
X174288Y25097D01*
X174867Y24858D01*
X175494D01*
X176073Y25097D01*
X176516Y25540D01*
X176755Y26119D01*
Y26746D01*
X176516Y27325D01*
X176073Y27768D01*
X175494Y28007D01*
D02*
G37*
G36*
X165289Y27974D02*
X164662D01*
X164084Y27734D01*
X163640Y27291D01*
X163401Y26712D01*
Y26086D01*
X163640Y25507D01*
X164084Y25064D01*
X164662Y24824D01*
X165289D01*
X165868Y25064D01*
X166311Y25507D01*
X166550Y26086D01*
Y26712D01*
X166311Y27291D01*
X165868Y27734D01*
X165289Y27974D01*
D02*
G37*
G36*
X130469Y25282D02*
X129842D01*
X129263Y25042D01*
X128821Y24599D01*
X128581Y24021D01*
Y23394D01*
X128821Y22815D01*
X129263Y22372D01*
X129842Y22132D01*
X130469D01*
X131048Y22372D01*
X131491Y22815D01*
X131730Y23394D01*
Y24021D01*
X131491Y24599D01*
X131048Y25042D01*
X130469Y25282D01*
D02*
G37*
G36*
X149013Y25132D02*
X148386D01*
X147807Y24892D01*
X147364Y24449D01*
X147125Y23871D01*
Y23244D01*
X147364Y22665D01*
X147807Y22222D01*
X148386Y21983D01*
X149013D01*
X149592Y22222D01*
X150034Y22665D01*
X150274Y23244D01*
Y23871D01*
X150034Y24449D01*
X149592Y24892D01*
X149013Y25132D01*
D02*
G37*
G36*
X209263Y22976D02*
X208447D01*
X207660Y22764D01*
X206954Y22357D01*
X206377Y21780D01*
X205969Y21074D01*
X205891Y20783D01*
X205364Y20748D01*
X205272Y20971D01*
X204829Y21414D01*
X204250Y21654D01*
X203624D01*
X203045Y21414D01*
X202602Y20971D01*
X202410Y20508D01*
X201910Y20480D01*
X201900Y20482D01*
X201741Y21074D01*
X201333Y21780D01*
X200757Y22357D01*
X200050Y22764D01*
X199263Y22976D01*
X198448D01*
X197660Y22764D01*
X196954Y22357D01*
X196377Y21780D01*
X195969Y21074D01*
X195758Y20286D01*
Y19471D01*
X195969Y18683D01*
X196377Y17977D01*
X196954Y17401D01*
X197660Y16993D01*
X198448Y16782D01*
X199263D01*
X200050Y16993D01*
X200757Y17401D01*
X201333Y17977D01*
X201741Y18683D01*
X201948Y19458D01*
X201979Y19475D01*
X202452Y19549D01*
X202602Y19187D01*
X203045Y18744D01*
X203624Y18504D01*
X204250D01*
X204829Y18744D01*
X205272Y19187D01*
X205299Y19252D01*
X205826Y19218D01*
X205969Y18683D01*
X206377Y17977D01*
X206954Y17401D01*
X207660Y16993D01*
X208447Y16782D01*
X209263D01*
X210051Y16993D01*
X210757Y17401D01*
X211333Y17977D01*
X211741Y18683D01*
X211952Y19471D01*
Y20286D01*
X211741Y21074D01*
X211333Y21780D01*
X210757Y22357D01*
X210051Y22764D01*
X209263Y22976D01*
D02*
G37*
G36*
X211952Y12976D02*
X209249D01*
Y12523D01*
X208461D01*
Y12976D01*
X205758D01*
Y10272D01*
X206211D01*
Y9485D01*
X205758D01*
Y6782D01*
X208461D01*
Y7235D01*
X209249D01*
Y6782D01*
X211952D01*
Y9485D01*
X211499D01*
Y10272D01*
X211952D01*
Y12976D01*
D02*
G37*
G36*
X199263D02*
X198448D01*
X197660Y12765D01*
X196954Y12357D01*
X196944Y12347D01*
X197284Y12006D01*
X196728Y11450D01*
X196387Y11790D01*
X196377Y11780D01*
X195969Y11074D01*
X195758Y10287D01*
Y9471D01*
X195969Y8683D01*
X196377Y7977D01*
X196387Y7967D01*
X196728Y8308D01*
X197284Y7751D01*
X196944Y7411D01*
X196954Y7401D01*
X197660Y6993D01*
X198448Y6782D01*
X199263D01*
X200050Y6993D01*
X200757Y7401D01*
X200767Y7411D01*
X200426Y7751D01*
X200983Y8308D01*
X201323Y7967D01*
X201333Y7977D01*
X201741Y8683D01*
X201952Y9471D01*
Y10287D01*
X201741Y11074D01*
X201333Y11780D01*
X201323Y11790D01*
X200983Y11450D01*
X200426Y12006D01*
X200767Y12347D01*
X200757Y12357D01*
X200050Y12765D01*
X199263Y12976D01*
D02*
G37*
G36*
X144801Y-394D02*
X144175D01*
X143596Y-634D01*
X143153Y-1076D01*
X142913Y-1655D01*
Y-2282D01*
X143153Y-2860D01*
X143596Y-3303D01*
X144175Y-3543D01*
X144801D01*
X145380Y-3303D01*
X145823Y-2860D01*
X146063Y-2282D01*
Y-1655D01*
X145823Y-1076D01*
X145380Y-634D01*
X144801Y-394D01*
D02*
G37*
G36*
X160751Y-4505D02*
X160124D01*
X159546Y-4744D01*
X159103Y-5187D01*
X158863Y-5766D01*
Y-6393D01*
X159103Y-6972D01*
X159546Y-7415D01*
X160124Y-7654D01*
X160751D01*
X161330Y-7415D01*
X161773Y-6972D01*
X162012Y-6393D01*
Y-5766D01*
X161773Y-5187D01*
X161330Y-4744D01*
X160751Y-4505D01*
D02*
G37*
G36*
X210990Y-5339D02*
X210364D01*
X209785Y-5578D01*
X209342Y-6021D01*
X209102Y-6600D01*
Y-7227D01*
X209342Y-7805D01*
X209785Y-8248D01*
X210364Y-8488D01*
X210990D01*
X211569Y-8248D01*
X212012Y-7805D01*
X212252Y-7227D01*
Y-6600D01*
X212012Y-6021D01*
X211569Y-5578D01*
X210990Y-5339D01*
D02*
G37*
G36*
X198340D02*
X197713D01*
X197134Y-5578D01*
X196691Y-6021D01*
X196452Y-6600D01*
Y-7227D01*
X196691Y-7805D01*
X197134Y-8248D01*
X197713Y-8488D01*
X198340D01*
X198918Y-8248D01*
X199362Y-7805D01*
X199601Y-7227D01*
Y-6600D01*
X199362Y-6021D01*
X198918Y-5578D01*
X198340Y-5339D01*
D02*
G37*
G36*
X192045D02*
X191419D01*
X190840Y-5578D01*
X190397Y-6021D01*
X190157Y-6600D01*
Y-7227D01*
X190397Y-7805D01*
X190840Y-8248D01*
X191419Y-8488D01*
X192045D01*
X192624Y-8248D01*
X193067Y-7805D01*
X193307Y-7227D01*
Y-6600D01*
X193067Y-6021D01*
X192624Y-5578D01*
X192045Y-5339D01*
D02*
G37*
G36*
X176297D02*
X175671D01*
X175092Y-5578D01*
X174649Y-6021D01*
X174409Y-6600D01*
Y-7227D01*
X174649Y-7805D01*
X175092Y-8248D01*
X175671Y-8488D01*
X176297D01*
X176876Y-8248D01*
X177319Y-7805D01*
X177559Y-7227D01*
Y-6600D01*
X177319Y-6021D01*
X176876Y-5578D01*
X176297Y-5339D01*
D02*
G37*
G36*
X166061D02*
X165435D01*
X164856Y-5578D01*
X164413Y-6021D01*
X164173Y-6600D01*
Y-7227D01*
X164413Y-7805D01*
X164856Y-8248D01*
X165435Y-8488D01*
X166061D01*
X166640Y-8248D01*
X167083Y-7805D01*
X167323Y-7227D01*
Y-6600D01*
X167083Y-6021D01*
X166640Y-5578D01*
X166061Y-5339D01*
D02*
G37*
G36*
X151414D02*
X150787D01*
X150209Y-5578D01*
X149766Y-6021D01*
X149526Y-6600D01*
Y-7227D01*
X149766Y-7805D01*
X150209Y-8248D01*
X150787Y-8488D01*
X151414D01*
X151993Y-8248D01*
X152436Y-7805D01*
X152675Y-7227D01*
Y-6600D01*
X152436Y-6021D01*
X151993Y-5578D01*
X151414Y-5339D01*
D02*
G37*
G36*
X107006D02*
X106380D01*
X105801Y-5578D01*
X105358Y-6021D01*
X105118Y-6600D01*
Y-7227D01*
X105358Y-7805D01*
X105801Y-8248D01*
X106380Y-8488D01*
X107006D01*
X107585Y-8248D01*
X108028Y-7805D01*
X108268Y-7227D01*
Y-6600D01*
X108028Y-6021D01*
X107585Y-5578D01*
X107006Y-5339D01*
D02*
G37*
G36*
X75510D02*
X74884D01*
X74305Y-5578D01*
X73862Y-6021D01*
X73622Y-6600D01*
Y-7227D01*
X73862Y-7805D01*
X74305Y-8248D01*
X74884Y-8488D01*
X75510D01*
X76089Y-8248D01*
X76532Y-7805D01*
X76772Y-7227D01*
Y-6600D01*
X76532Y-6021D01*
X76089Y-5578D01*
X75510Y-5339D01*
D02*
G37*
G36*
X59762D02*
X59136D01*
X58557Y-5578D01*
X58114Y-6021D01*
X57874Y-6600D01*
Y-7227D01*
X58114Y-7805D01*
X58557Y-8248D01*
X59136Y-8488D01*
X59762D01*
X60341Y-8248D01*
X60784Y-7805D01*
X61024Y-7227D01*
Y-6600D01*
X60784Y-6021D01*
X60341Y-5578D01*
X59762Y-5339D01*
D02*
G37*
G36*
X38207D02*
X37581D01*
X37002Y-5578D01*
X36559Y-6021D01*
X36319Y-6600D01*
Y-7227D01*
X36559Y-7805D01*
X37002Y-8248D01*
X37581Y-8488D01*
X38207D01*
X38786Y-8248D01*
X39229Y-7805D01*
X39469Y-7227D01*
Y-6600D01*
X39229Y-6021D01*
X38786Y-5578D01*
X38207Y-5339D01*
D02*
G37*
%LPD*%
D69*
X208855Y9879D02*
D03*
D70*
X198855D02*
D03*
D72*
X148761Y11859D02*
D03*
X88589Y13773D02*
D03*
X129921Y11811D02*
D03*
X164961Y9055D02*
D03*
X154724D02*
D03*
X175197D02*
D03*
X203543Y9843D02*
D03*
X257480Y69685D02*
D03*
X204331D02*
D03*
X253937Y116929D02*
D03*
X200599Y115021D02*
D03*
M02*
