G04*
G04 #@! TF.GenerationSoftware,Altium Limited,Altium Designer,24.10.1 (45)*
G04*
G04 Layer_Color=8388736*
%FSLAX25Y25*%
%MOIN*%
G70*
G04*
G04 #@! TF.SameCoordinates,0A93E4DB-C83B-47C1-B495-C13E3F0CF61A*
G04*
G04*
G04 #@! TF.FilePolarity,Negative*
G04*
G01*
G75*
%ADD22R,0.02200X0.05750*%
%ADD31R,0.02410X0.07107*%
%ADD36R,0.02401X0.07107*%
G04:AMPARAMS|DCode=38|XSize=53.54mil|YSize=77.56mil|CornerRadius=10.81mil|HoleSize=0mil|Usage=FLASHONLY|Rotation=90.000|XOffset=0mil|YOffset=0mil|HoleType=Round|Shape=RoundedRectangle|*
%AMROUNDEDRECTD38*
21,1,0.05354,0.05593,0,0,90.0*
21,1,0.03192,0.07756,0,0,90.0*
1,1,0.02163,0.02797,0.01596*
1,1,0.02163,0.02797,-0.01596*
1,1,0.02163,-0.02797,-0.01596*
1,1,0.02163,-0.02797,0.01596*
%
%ADD38ROUNDEDRECTD38*%
%ADD39R,0.03937X0.04331*%
%ADD40R,0.04331X0.03937*%
%ADD41R,0.03347X0.04134*%
%ADD42C,0.04528*%
%ADD43O,0.03937X0.02165*%
%ADD44R,0.04134X0.04528*%
%ADD45R,0.03740X0.03740*%
%ADD46R,0.04134X0.03347*%
%ADD47R,0.04528X0.04134*%
%ADD48R,0.04528X0.06102*%
%ADD49R,0.03740X0.03740*%
%ADD50R,0.06102X0.02362*%
G04:AMPARAMS|DCode=51|XSize=33.86mil|YSize=40.55mil|CornerRadius=7.57mil|HoleSize=0mil|Usage=FLASHONLY|Rotation=180.000|XOffset=0mil|YOffset=0mil|HoleType=Round|Shape=RoundedRectangle|*
%AMROUNDEDRECTD51*
21,1,0.03386,0.02542,0,0,180.0*
21,1,0.01873,0.04055,0,0,180.0*
1,1,0.01513,-0.00936,0.01271*
1,1,0.01513,0.00936,0.01271*
1,1,0.01513,0.00936,-0.01271*
1,1,0.01513,-0.00936,-0.01271*
%
%ADD51ROUNDEDRECTD51*%
%ADD52R,0.06102X0.04528*%
%ADD53R,0.02559X0.11417*%
%ADD54C,0.06591*%
%ADD55C,0.09646*%
%ADD56C,0.04784*%
%ADD57C,0.06102*%
%ADD58R,0.05984X0.05984*%
%ADD59C,0.05984*%
%ADD60C,0.13976*%
%ADD61C,0.02362*%
D22*
X39Y74898D02*
D03*
X-4961D02*
D03*
X-9961D02*
D03*
X-14961D02*
D03*
X-19961D02*
D03*
X-24961D02*
D03*
X-29961D02*
D03*
Y53448D02*
D03*
X-24961D02*
D03*
X-19961D02*
D03*
X-14961D02*
D03*
X-9961D02*
D03*
X-4961D02*
D03*
X39D02*
D03*
X40591Y75292D02*
D03*
X35591D02*
D03*
X30591D02*
D03*
X25591D02*
D03*
X20591D02*
D03*
X15590D02*
D03*
X10591D02*
D03*
Y53842D02*
D03*
X15590D02*
D03*
X20591D02*
D03*
X25591D02*
D03*
X30591D02*
D03*
X35591D02*
D03*
X40591D02*
D03*
D31*
X89173Y49408D02*
D03*
X92913D02*
D03*
X96653D02*
D03*
Y58467D02*
D03*
X89173D02*
D03*
D36*
X117894Y56440D02*
D03*
X114154D02*
D03*
X110414D02*
D03*
Y65499D02*
D03*
X114154D02*
D03*
X117894D02*
D03*
X152540D02*
D03*
X148800D02*
D03*
X145059D02*
D03*
Y56440D02*
D03*
X148800D02*
D03*
X152540D02*
D03*
D38*
X164961Y12008D02*
D03*
Y23425D02*
D03*
X134252Y12008D02*
D03*
Y23425D02*
D03*
X175197Y12008D02*
D03*
Y23425D02*
D03*
X154724Y12008D02*
D03*
Y23425D02*
D03*
X144488Y12008D02*
D03*
Y23425D02*
D03*
D39*
X203346Y91339D02*
D03*
X208465D02*
D03*
X101560Y110630D02*
D03*
X96442D02*
D03*
X131012Y110809D02*
D03*
X136130D02*
D03*
X163583Y110630D02*
D03*
X168701D02*
D03*
X129043Y79062D02*
D03*
X123925D02*
D03*
X-1772Y101902D02*
D03*
X-6890D02*
D03*
X65158Y110630D02*
D03*
X60039D02*
D03*
X270276Y122047D02*
D03*
X265158D02*
D03*
X235236Y122047D02*
D03*
X240354D02*
D03*
X186024Y120472D02*
D03*
X191142D02*
D03*
X214370D02*
D03*
X209252D02*
D03*
X164421Y80512D02*
D03*
X159303D02*
D03*
X67756Y80100D02*
D03*
X72874D02*
D03*
X243553Y76378D02*
D03*
X238435D02*
D03*
X190157D02*
D03*
X185039D02*
D03*
X261860Y45276D02*
D03*
X256742D02*
D03*
X208599Y76378D02*
D03*
X213717D02*
D03*
X261995D02*
D03*
X267113D02*
D03*
X33268Y101575D02*
D03*
X28150D02*
D03*
D40*
X208661Y44291D02*
D03*
Y49409D02*
D03*
X-17323Y106496D02*
D03*
Y101378D02*
D03*
X178407Y103347D02*
D03*
Y108465D02*
D03*
X221714Y103347D02*
D03*
Y108465D02*
D03*
X191339Y90748D02*
D03*
Y95866D02*
D03*
X18543Y101378D02*
D03*
Y106496D02*
D03*
X274396Y58071D02*
D03*
Y63189D02*
D03*
X231496Y109252D02*
D03*
Y104134D02*
D03*
X275984Y109252D02*
D03*
Y104134D02*
D03*
X259449Y186417D02*
D03*
Y181299D02*
D03*
X221001Y63189D02*
D03*
Y58071D02*
D03*
X177694Y63189D02*
D03*
Y58071D02*
D03*
X231089Y63189D02*
D03*
Y58071D02*
D03*
X166142Y56102D02*
D03*
Y50984D02*
D03*
X244094Y96260D02*
D03*
Y91142D02*
D03*
X262992Y95866D02*
D03*
Y90748D02*
D03*
X190852Y49409D02*
D03*
Y44291D02*
D03*
X244248Y49409D02*
D03*
Y44291D02*
D03*
D41*
X114941Y49158D02*
D03*
X109430D02*
D03*
X99158Y133858D02*
D03*
X93646D02*
D03*
Y128740D02*
D03*
X99158D02*
D03*
X133965Y134037D02*
D03*
X128453D02*
D03*
X133965Y128919D02*
D03*
X128453D02*
D03*
X125697Y97172D02*
D03*
X120185D02*
D03*
Y102290D02*
D03*
X125697D02*
D03*
X-7480Y121981D02*
D03*
X-1969D02*
D03*
Y127099D02*
D03*
X-7480D02*
D03*
X92126Y37008D02*
D03*
X97638D02*
D03*
X166299Y133858D02*
D03*
X160787D02*
D03*
Y128740D02*
D03*
X166299D02*
D03*
X62992Y133858D02*
D03*
X57480D02*
D03*
X57480Y128740D02*
D03*
X62992D02*
D03*
X202756Y120472D02*
D03*
X197244D02*
D03*
X255906Y122047D02*
D03*
X250394D02*
D03*
X251181Y96850D02*
D03*
X256693D02*
D03*
X95669Y64961D02*
D03*
X90158D02*
D03*
X92126Y42126D02*
D03*
X97638D02*
D03*
X109430Y44040D02*
D03*
X114941D02*
D03*
X33071Y121653D02*
D03*
X27559D02*
D03*
X162020Y98622D02*
D03*
X156508D02*
D03*
X70472Y98211D02*
D03*
X64961D02*
D03*
X197563Y96457D02*
D03*
X203075D02*
D03*
X197170Y114961D02*
D03*
X202681D02*
D03*
X-0Y40945D02*
D03*
X-5512D02*
D03*
X40945D02*
D03*
X35433D02*
D03*
X162020Y103740D02*
D03*
X156508D02*
D03*
X35433Y46850D02*
D03*
X40945D02*
D03*
X95669Y70473D02*
D03*
X90158D02*
D03*
X149981Y44040D02*
D03*
X144469D02*
D03*
X149981Y49158D02*
D03*
X144469D02*
D03*
X64961Y103329D02*
D03*
X70472D02*
D03*
X255906Y116929D02*
D03*
X250394D02*
D03*
X201710Y76378D02*
D03*
X196198D02*
D03*
X255105D02*
D03*
X249593D02*
D03*
X27559Y126772D02*
D03*
X33071D02*
D03*
X-0Y46850D02*
D03*
X-5512D02*
D03*
X255758Y51181D02*
D03*
X250246D02*
D03*
X202362D02*
D03*
X196850D02*
D03*
X255364Y69685D02*
D03*
X249852D02*
D03*
X201969D02*
D03*
X196457D02*
D03*
D42*
X61811Y16535D02*
D03*
X79921Y37966D02*
D03*
X164961Y4331D02*
D03*
X154724Y37966D02*
D03*
X120810D02*
D03*
D43*
X118512Y91800D02*
D03*
Y89241D02*
D03*
Y86682D02*
D03*
X127370Y91800D02*
D03*
Y89241D02*
D03*
Y86682D02*
D03*
X91973Y123368D02*
D03*
Y120808D02*
D03*
Y118249D02*
D03*
X100831Y123368D02*
D03*
Y120808D02*
D03*
Y118249D02*
D03*
X126779Y123547D02*
D03*
Y120988D02*
D03*
Y118429D02*
D03*
X135638Y123547D02*
D03*
Y120988D02*
D03*
Y118429D02*
D03*
X-295Y111942D02*
D03*
Y114500D02*
D03*
Y117060D02*
D03*
X-9154Y111942D02*
D03*
Y114500D02*
D03*
Y117060D02*
D03*
X159114Y123368D02*
D03*
Y120808D02*
D03*
Y118249D02*
D03*
X167972Y123368D02*
D03*
Y120808D02*
D03*
Y118249D02*
D03*
X55807Y123368D02*
D03*
Y120808D02*
D03*
Y118249D02*
D03*
X64665Y123368D02*
D03*
Y120808D02*
D03*
Y118249D02*
D03*
X154835Y93249D02*
D03*
Y90690D02*
D03*
Y88131D02*
D03*
X163693Y93249D02*
D03*
Y90690D02*
D03*
Y88131D02*
D03*
X25886Y116732D02*
D03*
Y114173D02*
D03*
Y111614D02*
D03*
X34744Y116732D02*
D03*
Y114173D02*
D03*
Y111614D02*
D03*
X72146Y87720D02*
D03*
Y90279D02*
D03*
Y92838D02*
D03*
X63287Y87720D02*
D03*
Y90279D02*
D03*
Y92838D02*
D03*
D44*
X79079Y119488D02*
D03*
X85378D02*
D03*
X114567Y118898D02*
D03*
X120866D02*
D03*
X106299Y87151D02*
D03*
X112598D02*
D03*
X146221Y119488D02*
D03*
X152520D02*
D03*
X43595Y118719D02*
D03*
X49894D02*
D03*
X77559Y54331D02*
D03*
X71260D02*
D03*
Y59842D02*
D03*
X77559D02*
D03*
X141941Y89370D02*
D03*
X148240D02*
D03*
X56693Y88959D02*
D03*
X50394D02*
D03*
D45*
X79079Y112813D02*
D03*
X85378D02*
D03*
X114567Y112992D02*
D03*
X120866D02*
D03*
X106299Y81245D02*
D03*
X112598D02*
D03*
X-17323Y113779D02*
D03*
X-23622D02*
D03*
X146221Y112813D02*
D03*
X152520D02*
D03*
X43595Y112813D02*
D03*
X49894D02*
D03*
X77165Y65748D02*
D03*
X70866D02*
D03*
X141941Y82695D02*
D03*
X148240D02*
D03*
X56693Y82284D02*
D03*
X50394D02*
D03*
X12205Y113779D02*
D03*
X18504D02*
D03*
D46*
X158661Y61811D02*
D03*
Y56299D02*
D03*
X158661Y51575D02*
D03*
Y46063D02*
D03*
X124148Y57066D02*
D03*
Y62578D02*
D03*
X184706Y103150D02*
D03*
Y108661D02*
D03*
X215415D02*
D03*
Y103150D02*
D03*
X124187Y51814D02*
D03*
Y46302D02*
D03*
X237795Y103937D02*
D03*
Y109449D02*
D03*
X268097Y57874D02*
D03*
Y63386D02*
D03*
X269291Y109449D02*
D03*
Y103937D02*
D03*
X237388Y57874D02*
D03*
Y63386D02*
D03*
X214702Y57874D02*
D03*
Y63386D02*
D03*
X183993Y57874D02*
D03*
Y63386D02*
D03*
D47*
X-24016Y107087D02*
D03*
Y100787D02*
D03*
X131477Y51520D02*
D03*
Y57819D02*
D03*
X11811Y107087D02*
D03*
Y100787D02*
D03*
D48*
X-23720Y124343D02*
D03*
X-16437D02*
D03*
X94488Y27953D02*
D03*
Y17717D02*
D03*
X114173Y27953D02*
D03*
Y17717D02*
D03*
X106299Y27953D02*
D03*
Y17717D02*
D03*
X11319Y124016D02*
D03*
X18602D02*
D03*
D49*
X131477Y46009D02*
D03*
Y39709D02*
D03*
X166142Y44518D02*
D03*
Y38219D02*
D03*
D50*
X208722Y102067D02*
D03*
Y104626D02*
D03*
Y107185D02*
D03*
Y109744D02*
D03*
X191399D02*
D03*
Y107185D02*
D03*
Y104626D02*
D03*
Y102067D02*
D03*
X262187Y102854D02*
D03*
Y105413D02*
D03*
Y107972D02*
D03*
Y110531D02*
D03*
X244864D02*
D03*
Y107972D02*
D03*
Y105413D02*
D03*
Y102854D02*
D03*
X244081Y56791D02*
D03*
Y59350D02*
D03*
Y61909D02*
D03*
Y64468D02*
D03*
X261404D02*
D03*
Y61909D02*
D03*
Y59350D02*
D03*
Y56791D02*
D03*
X190686D02*
D03*
Y59350D02*
D03*
Y61909D02*
D03*
Y64468D02*
D03*
X208009D02*
D03*
Y61909D02*
D03*
Y59350D02*
D03*
Y56791D02*
D03*
D51*
X197126Y126378D02*
D03*
X191063D02*
D03*
X208937D02*
D03*
X202874D02*
D03*
X202221Y82677D02*
D03*
X208284D02*
D03*
X262087Y129134D02*
D03*
X256024D02*
D03*
X244606D02*
D03*
X250669D02*
D03*
X243412Y82677D02*
D03*
X249475D02*
D03*
X255236D02*
D03*
X261299D02*
D03*
X190017D02*
D03*
X196080D02*
D03*
D52*
X75197Y16142D02*
D03*
X85433D02*
D03*
D53*
X220126Y-14000D02*
D03*
X216976D02*
D03*
X213827D02*
D03*
X210677D02*
D03*
X207528D02*
D03*
X204378D02*
D03*
X201228D02*
D03*
X198079D02*
D03*
X194929D02*
D03*
X191779D02*
D03*
X188630D02*
D03*
X185480D02*
D03*
X182331D02*
D03*
X179181D02*
D03*
X176031D02*
D03*
X172882D02*
D03*
X169732D02*
D03*
X166583D02*
D03*
X163433D02*
D03*
X160284D02*
D03*
X157134D02*
D03*
X153984D02*
D03*
X150835D02*
D03*
X147685D02*
D03*
X144535D02*
D03*
X141386D02*
D03*
X138236D02*
D03*
X135087D02*
D03*
X131937D02*
D03*
X128787D02*
D03*
X125638D02*
D03*
X122488D02*
D03*
X106740D02*
D03*
X103591D02*
D03*
X100441D02*
D03*
X97291D02*
D03*
X94142D02*
D03*
X90992D02*
D03*
X87843D02*
D03*
X84693D02*
D03*
X81543D02*
D03*
X78394D02*
D03*
X75244D02*
D03*
X72095D02*
D03*
X68945D02*
D03*
X65795D02*
D03*
X62646D02*
D03*
X59496D02*
D03*
X56346D02*
D03*
X53197D02*
D03*
X50047D02*
D03*
X46898D02*
D03*
X43748D02*
D03*
X40598D02*
D03*
X37449D02*
D03*
X34299D02*
D03*
X31150D02*
D03*
X28000D02*
D03*
X24850D02*
D03*
X21701D02*
D03*
D54*
X113858Y189449D02*
D03*
X143858D02*
D03*
X123858Y159449D02*
D03*
X113858D02*
D03*
X143858D02*
D03*
X133858D02*
D03*
X33858Y189449D02*
D03*
X63858D02*
D03*
X43858Y159449D02*
D03*
X33858D02*
D03*
X63858D02*
D03*
X53858D02*
D03*
X73858Y189449D02*
D03*
X103858D02*
D03*
X83858Y159449D02*
D03*
X73858D02*
D03*
X103858D02*
D03*
X93858D02*
D03*
X13858D02*
D03*
X23858D02*
D03*
X-6142D02*
D03*
X3858D02*
D03*
X23858Y189449D02*
D03*
X-6142D02*
D03*
X144551Y142126D02*
D03*
X134551D02*
D03*
X164551D02*
D03*
X154551D02*
D03*
X134551Y172126D02*
D03*
X164551D02*
D03*
X4551D02*
D03*
X-25449D02*
D03*
X-5449Y142126D02*
D03*
X4551D02*
D03*
X-25449D02*
D03*
X-15449D02*
D03*
X64551Y142126D02*
D03*
X54551D02*
D03*
X84551D02*
D03*
X74551D02*
D03*
X54551Y172126D02*
D03*
X84551D02*
D03*
X24551Y142126D02*
D03*
X14551D02*
D03*
X44551D02*
D03*
X34551D02*
D03*
X14551Y172126D02*
D03*
X44551D02*
D03*
X104551Y142126D02*
D03*
X94551D02*
D03*
X124551D02*
D03*
X114551D02*
D03*
X94551Y172126D02*
D03*
X124551D02*
D03*
D55*
X187106Y186388D02*
D03*
X248031D02*
D03*
D56*
X195020Y174606D02*
D03*
X240020D02*
D03*
D57*
X200039Y139606D02*
D03*
X205039Y149606D02*
D03*
X210039Y139606D02*
D03*
X215039Y149606D02*
D03*
X220039Y139606D02*
D03*
X225039Y149606D02*
D03*
X230039Y139606D02*
D03*
X235039Y149606D02*
D03*
D58*
X208855Y9879D02*
D03*
D59*
X198855D02*
D03*
X208855Y19879D02*
D03*
X198855D02*
D03*
X208855Y29879D02*
D03*
X198855D02*
D03*
D60*
X89673Y97103D02*
D03*
D61*
X191339Y88189D02*
D03*
X187896Y43354D02*
D03*
X194488Y61885D02*
D03*
X148699Y23557D02*
D03*
X148761Y11859D02*
D03*
X119193Y84866D02*
D03*
X93110Y69206D02*
D03*
X119959Y68508D02*
D03*
X113989Y69860D02*
D03*
X147709Y43941D02*
D03*
X147746Y49319D02*
D03*
X154744Y26436D02*
D03*
X124054Y64891D02*
D03*
X131478Y54867D02*
D03*
X148849Y69961D02*
D03*
X112600Y49076D02*
D03*
X95496Y37033D02*
D03*
X99856Y42103D02*
D03*
X92943Y53706D02*
D03*
X-7838Y46727D02*
D03*
X2237Y40944D02*
D03*
X-4972Y57363D02*
D03*
X-9909Y57343D02*
D03*
X-24859Y57244D02*
D03*
X-19962Y57324D02*
D03*
X158704Y43811D02*
D03*
X130156Y23707D02*
D03*
X164976Y26399D02*
D03*
X175180Y26432D02*
D03*
X248695Y107945D02*
D03*
X195160Y107251D02*
D03*
X69625Y90280D02*
D03*
X70511Y95594D02*
D03*
X250000Y53937D02*
D03*
X247846Y61939D02*
D03*
X243979Y88871D02*
D03*
X-6889Y104778D02*
D03*
X10622Y71557D02*
D03*
X-29945Y71110D02*
D03*
X30565Y50100D02*
D03*
X35513Y50036D02*
D03*
X33121Y46839D02*
D03*
X-2798Y114480D02*
D03*
X358Y121975D02*
D03*
X27996Y104466D02*
D03*
X32163Y114231D02*
D03*
X35480Y121756D02*
D03*
X118110Y112992D02*
D03*
X124803Y89370D02*
D03*
X127953Y97244D02*
D03*
X161024Y90945D02*
D03*
X164173Y98425D02*
D03*
X165354Y120866D02*
D03*
X168558Y128761D02*
D03*
X133071Y121260D02*
D03*
X136247Y129041D02*
D03*
X98032Y120866D02*
D03*
X101473Y128560D02*
D03*
X47244Y112598D02*
D03*
X62205Y120866D02*
D03*
X64961Y128740D02*
D03*
X151101Y-6913D02*
D03*
X75197D02*
D03*
X59449D02*
D03*
X37894D02*
D03*
X203937Y29921D02*
D03*
Y20079D02*
D03*
X106693Y-6913D02*
D03*
X210677D02*
D03*
X198026D02*
D03*
X191732D02*
D03*
X175984D02*
D03*
X165748D02*
D03*
X88589Y13773D02*
D03*
X129921Y11811D02*
D03*
X164961Y9055D02*
D03*
X154724D02*
D03*
X175197D02*
D03*
X203543Y9843D02*
D03*
X154579Y68201D02*
D03*
X251181Y99606D02*
D03*
X117717Y102362D02*
D03*
X127953D02*
D03*
X62598Y103150D02*
D03*
X72691D02*
D03*
X263000Y88003D02*
D03*
X166188Y40612D02*
D03*
X124193Y44097D02*
D03*
X112598Y44094D02*
D03*
X110366Y81245D02*
D03*
X54461Y82284D02*
D03*
X82919Y112710D02*
D03*
X150000Y112598D02*
D03*
X145669Y82677D02*
D03*
X-9843Y126378D02*
D03*
X293Y126819D02*
D03*
X25197Y126378D02*
D03*
X35433D02*
D03*
X55118Y133465D02*
D03*
X65354D02*
D03*
X91339D02*
D03*
X101376Y133563D02*
D03*
X126091Y133644D02*
D03*
X136327D02*
D03*
X158268Y133465D02*
D03*
X168517Y133563D02*
D03*
X154457Y103492D02*
D03*
X164238Y103362D02*
D03*
X200787Y96457D02*
D03*
X197638Y99213D02*
D03*
X20646Y50123D02*
D03*
X15656Y50136D02*
D03*
X129379Y40194D02*
D03*
X87795Y70472D02*
D03*
X40551Y71653D02*
D03*
X158582Y64118D02*
D03*
X73334Y65741D02*
D03*
X64961Y79921D02*
D03*
X262598Y181496D02*
D03*
X668Y101747D02*
D03*
X35433Y71653D02*
D03*
X25591D02*
D03*
X20472D02*
D03*
X33071Y40945D02*
D03*
X42913D02*
D03*
X-7864Y41084D02*
D03*
X144488Y-1969D02*
D03*
X92032Y116607D02*
D03*
X63386Y86221D02*
D03*
X55512Y116535D02*
D03*
X126484Y116715D02*
D03*
X170079Y75590D02*
D03*
X252191Y69590D02*
D03*
X253680Y86221D02*
D03*
X251220D02*
D03*
X198819Y69685D02*
D03*
X196850Y53543D02*
D03*
X200000Y51181D02*
D03*
X187685Y82567D02*
D03*
X160438Y-6080D02*
D03*
X257480Y69685D02*
D03*
X204331D02*
D03*
X210630Y82677D02*
D03*
X211417Y126378D02*
D03*
X188583D02*
D03*
X263779Y82677D02*
D03*
X240945D02*
D03*
X253937Y116929D02*
D03*
X248031D02*
D03*
X194882Y114961D02*
D03*
X200599Y115021D02*
D03*
X241862Y129167D02*
D03*
X169936Y90714D02*
D03*
X264961Y129134D02*
D03*
X254134Y96850D02*
D03*
X253199Y51181D02*
D03*
M02*
