G04*
G04 #@! TF.GenerationSoftware,Altium Limited,Altium Designer,24.10.1 (45)*
G04*
G04 Layer_Color=32896*
%FSLAX25Y25*%
%MOIN*%
G70*
G04*
G04 #@! TF.SameCoordinates,0A93E4DB-C83B-47C1-B495-C13E3F0CF61A*
G04*
G04*
G04 #@! TF.FilePolarity,Positive*
G04*
G01*
G75*
%ADD13C,0.00787*%
%ADD15C,0.00591*%
%ADD17C,0.01000*%
%ADD73C,0.00013*%
G36*
X181345Y111026D02*
X181714Y110873D01*
X182030Y110630D01*
X182030Y110629D01*
X182031Y110629D01*
X182273Y110313D01*
X182426Y109944D01*
X182462Y109676D01*
X182478Y109548D01*
X182478Y109415D01*
Y88438D01*
X182467D01*
X182513Y88208D01*
X182643Y88013D01*
X182838Y87883D01*
X183068Y87837D01*
X183071Y87838D01*
X183201Y87848D01*
X197732D01*
Y87846D01*
X197952Y87803D01*
X198139Y87678D01*
X198209Y87573D01*
X198264Y87491D01*
X198308Y87270D01*
X198264Y87049D01*
X198139Y86862D01*
X198034Y86792D01*
X197952Y86737D01*
X197732Y86693D01*
Y86692D01*
X182851D01*
X182851Y86692D01*
X182459Y86744D01*
X182090Y86897D01*
X181867Y87068D01*
X181767Y87148D01*
X181529Y87458D01*
X181376Y87827D01*
X181324Y88224D01*
X181326Y88237D01*
X181324Y88238D01*
X181324Y88238D01*
Y109204D01*
X181335Y109334D01*
X181335Y109334D01*
X181289Y109565D01*
X181158Y109761D01*
X180963Y109891D01*
X180734Y109937D01*
X180734Y109926D01*
X180734Y109926D01*
X163486D01*
X163486Y109926D01*
X163486Y109937D01*
X163258Y109891D01*
X163062Y109761D01*
X162931Y109565D01*
X162885Y109334D01*
X162896Y109334D01*
Y88357D01*
X162896Y88224D01*
X162879Y88094D01*
X162844Y87827D01*
X162691Y87458D01*
X162448Y87140D01*
X162130Y86897D01*
X161761Y86744D01*
X161367Y86692D01*
Y86692D01*
X155112D01*
X155110Y86694D01*
X155110D01*
X154892Y86737D01*
X154805Y86796D01*
X154701Y86868D01*
X154580Y87049D01*
X154559Y87157D01*
X154537Y87276D01*
X154538Y87281D01*
X154561Y87406D01*
X154580Y87502D01*
X154705Y87689D01*
X154892Y87814D01*
X155110Y87857D01*
X155110Y87857D01*
Y87857D01*
X155112Y87859D01*
X161020D01*
X161149Y87849D01*
X161152Y87848D01*
X161382Y87894D01*
X161576Y88024D01*
X161577Y88024D01*
X161707Y88219D01*
X161753Y88449D01*
X161753Y88449D01*
X161742Y88579D01*
Y109415D01*
Y109548D01*
X161759Y109678D01*
X161794Y109944D01*
X161947Y110313D01*
X162190Y110629D01*
X162190Y110629D01*
X162190Y110630D01*
X162507Y110873D01*
X162875Y111026D01*
X163271Y111078D01*
X163271Y111077D01*
X180949D01*
X180949Y111078D01*
X181345Y111026D01*
D02*
G37*
G36*
X204409D02*
X204778Y110873D01*
X205095Y110630D01*
X205095Y110629D01*
X205095Y110629D01*
X205338Y110313D01*
X205491Y109944D01*
X205543Y109549D01*
X205543Y109548D01*
Y94319D01*
X205541D01*
X205497Y94098D01*
X205442Y94016D01*
X205372Y93911D01*
X205185Y93786D01*
X205091Y93767D01*
X204964Y93742D01*
Y93742D01*
X204745Y93786D01*
X204559Y93910D01*
X204434Y94096D01*
X204391Y94316D01*
X204391Y94319D01*
X204389Y94319D01*
X204389Y94319D01*
Y109331D01*
X204400Y109342D01*
X204354Y109573D01*
X204223Y109769D01*
X204027Y109900D01*
X203796Y109946D01*
Y109935D01*
X188794D01*
X188664Y109946D01*
X188662Y109947D01*
X188661Y109947D01*
X188539Y109897D01*
X188488Y109774D01*
X188489Y109773D01*
X188529Y109675D01*
X188611Y109571D01*
X204582Y87929D01*
X204582Y87927D01*
X204582Y87927D01*
X204665Y87871D01*
X204709Y87862D01*
X204711Y87862D01*
X221430D01*
X221560Y87852D01*
X221563Y87851D01*
X221793Y87897D01*
X221987Y88026D01*
X221987D01*
X221988Y88027D01*
X222118Y88222D01*
X222164Y88452D01*
Y88452D01*
X222153Y88582D01*
Y110385D01*
X222155Y110385D01*
X222199Y110605D01*
X222323Y110793D01*
X222511Y110917D01*
X222728Y110961D01*
Y110961D01*
X222857Y110936D01*
X222949Y110917D01*
X223031Y110863D01*
X223136Y110793D01*
X223261Y110605D01*
X223305Y110385D01*
X223307D01*
Y88357D01*
Y88224D01*
X223307D01*
X223290Y88094D01*
X223255Y87827D01*
X223102Y87458D01*
X222858Y87140D01*
X222541Y86897D01*
X222171Y86744D01*
X221778Y86692D01*
Y86692D01*
X204718D01*
X204711Y86699D01*
X204711D01*
X204411Y86739D01*
X204077Y86877D01*
X203790Y87097D01*
X203670Y87254D01*
X203670D01*
X203652Y87257D01*
X186950Y109862D01*
X186950Y109863D01*
X186959Y109870D01*
X186880Y109972D01*
X186807Y110149D01*
X186782Y110339D01*
X186807Y110529D01*
X186880Y110706D01*
X186997Y110857D01*
X187149Y110974D01*
X187326Y111047D01*
X187516Y111072D01*
X187562Y111066D01*
X187563Y111077D01*
X204014D01*
X204014Y111078D01*
X204409Y111026D01*
D02*
G37*
G36*
X173416Y79574D02*
X174212Y79415D01*
X174954Y79163D01*
X174956Y79160D01*
Y79160D01*
X174956Y79160D01*
X175534Y78875D01*
X176092Y78502D01*
X176596Y78061D01*
X176832Y77791D01*
X176833Y77791D01*
X177041Y77554D01*
X177491Y76880D01*
X177850Y76153D01*
X178035Y75607D01*
Y75607D01*
X178043Y75603D01*
X178271Y74691D01*
X178422Y73673D01*
X178472Y72645D01*
X178422Y71618D01*
X178271Y70600D01*
X178043Y69689D01*
X178034Y69684D01*
X177976Y69483D01*
X177703Y68822D01*
X177357Y68196D01*
X176943Y67613D01*
X176826Y67482D01*
X176824Y67483D01*
X176571Y67194D01*
X176078Y66762D01*
X175533Y66398D01*
X174964Y66118D01*
X174953Y66122D01*
X174712Y66022D01*
X173992Y65815D01*
X173253Y65689D01*
X172505Y65647D01*
X171756Y65689D01*
X171018Y65815D01*
X170298Y66022D01*
X170057Y66122D01*
X170047Y66118D01*
X169484Y66396D01*
X168924Y66770D01*
X168418Y67214D01*
X168174Y67492D01*
X168172Y67490D01*
X168066Y67609D01*
X167656Y68186D01*
X167314Y68806D01*
X167043Y69460D01*
X166976Y69693D01*
X166976D01*
X166967Y69697D01*
X166744Y70588D01*
X166593Y71608D01*
X166542Y72637D01*
X166593Y73667D01*
X166744Y74686D01*
X166968Y75578D01*
X166974Y75582D01*
X166974D01*
X166974Y75582D01*
X167158Y76124D01*
X167518Y76854D01*
X167971Y77531D01*
X168179Y77769D01*
X168180Y77768D01*
X168430Y78054D01*
X168932Y78494D01*
X169487Y78865D01*
X170049Y79142D01*
X170060Y79138D01*
X170384Y79272D01*
X171059Y79466D01*
X171752Y79584D01*
X172400Y79620D01*
X172534Y79619D01*
X172668Y79623D01*
X173416Y79574D01*
D02*
G37*
G36*
X202970Y79617D02*
X203104Y79620D01*
X203464Y79605D01*
X203597Y79598D01*
X203931Y79582D01*
X203932Y79581D01*
X204115Y79572D01*
X204375Y79534D01*
X204507Y79517D01*
X204792Y79468D01*
X204792Y79468D01*
Y79468D01*
X205056Y79423D01*
X205186Y79390D01*
X205341Y79359D01*
X205553Y79287D01*
X205553Y79287D01*
X205771Y79213D01*
X205896Y79170D01*
X205912Y79164D01*
X206021Y79123D01*
X206212Y79029D01*
X206335Y78977D01*
X206667Y78774D01*
X206775Y78706D01*
X206878Y78624D01*
X207192Y78356D01*
X207529Y77961D01*
X207815Y77495D01*
X207914Y77254D01*
X207914D01*
X207965Y77131D01*
X208037Y76959D01*
X208031Y76946D01*
X208097Y76748D01*
X208130Y76619D01*
X208156Y76492D01*
X208245Y76046D01*
X208230Y75989D01*
X208157Y75912D01*
X206908D01*
X206887Y76124D01*
X206752Y76571D01*
X206531Y76984D01*
X206235Y77345D01*
X205904Y77616D01*
X205873Y77642D01*
X205793Y77685D01*
Y77685D01*
X205592Y77793D01*
X205595Y77800D01*
X205374Y77891D01*
Y77891D01*
X205140Y77988D01*
X205141Y77990D01*
X205117Y78000D01*
X205014Y78025D01*
X204891Y78054D01*
X204885Y78064D01*
X204732Y78095D01*
X204608Y78119D01*
X204607Y78120D01*
X204606Y78120D01*
X204485Y78144D01*
X204316Y78177D01*
X204311Y78173D01*
X204135Y78203D01*
X204034Y78220D01*
X204005Y78224D01*
Y78224D01*
X203807Y78235D01*
X203674Y78243D01*
X203089Y78272D01*
X202975Y78278D01*
X202957Y78277D01*
X202823Y78276D01*
X202744Y78281D01*
X202036Y78234D01*
X201341Y78096D01*
X200927Y77956D01*
X200925Y77960D01*
X200925Y77961D01*
X200857Y77940D01*
X200801Y77910D01*
X200426Y77710D01*
X200048Y77399D01*
X199888Y77205D01*
X199806Y77104D01*
X199608Y76782D01*
X199434Y76362D01*
X199336Y75952D01*
X199328Y75919D01*
X199320Y75820D01*
X199305Y75687D01*
X199252Y75284D01*
X199210Y74324D01*
X199208Y74278D01*
Y74278D01*
X199211Y74204D01*
X199221Y74199D01*
X199221Y74199D01*
X199226Y74197D01*
X199226Y74197D01*
X199226D01*
X200818Y74197D01*
Y74196D01*
X200828Y74196D01*
X201451Y74176D01*
X201585Y74171D01*
X201718Y74167D01*
X202179Y74150D01*
X202312Y74142D01*
X202445Y74136D01*
X202446Y74136D01*
X202867Y74086D01*
X202999Y74070D01*
X203132Y74054D01*
X203647Y73987D01*
X203648Y73986D01*
X203826Y73962D01*
X204256Y73867D01*
Y73867D01*
X204387Y73840D01*
X204826Y73730D01*
X204826Y73729D01*
Y73729D01*
X205035Y73677D01*
X205355Y73563D01*
X205483Y73523D01*
X205845Y73373D01*
X205969Y73321D01*
X206481Y73068D01*
X206600Y72989D01*
X206708Y72916D01*
X207028Y72720D01*
X207505Y72312D01*
X207913Y71834D01*
X208241Y71299D01*
X208482Y70719D01*
X208628Y70108D01*
X208675Y69511D01*
X208673Y69420D01*
X208669Y69378D01*
X208669D01*
X208669Y69244D01*
X208631Y68766D01*
X208499Y68217D01*
X208397Y67971D01*
X208347Y67849D01*
X208347D01*
X208283Y67696D01*
X207995Y67226D01*
X207637Y66807D01*
X207475Y66668D01*
X207475Y66668D01*
X207214Y66446D01*
X206691Y66125D01*
X206292Y65960D01*
X206165Y65917D01*
X205857Y65812D01*
X205217Y65685D01*
X204659Y65648D01*
X204527Y65645D01*
X204394Y65647D01*
X203575Y65688D01*
X203230Y65739D01*
X203097Y65753D01*
X202454Y65881D01*
X202066Y66013D01*
X201943Y66055D01*
X201817Y66100D01*
X201253Y66334D01*
X200736Y66620D01*
X200622Y66690D01*
X200622D01*
X200226Y66928D01*
X199486Y67476D01*
X199436Y67522D01*
X199344Y67605D01*
X199231Y67708D01*
X199213Y67699D01*
X199211Y67694D01*
X199211Y67546D01*
Y67422D01*
Y65983D01*
X197831D01*
Y74670D01*
X197831Y74670D01*
X197837Y74670D01*
X197832Y74754D01*
X197877Y75558D01*
X198012Y76352D01*
X198122Y76733D01*
X198118Y76734D01*
X198148Y76860D01*
X198377Y77412D01*
X198689Y77921D01*
X199006Y78292D01*
X199100Y78385D01*
X199493Y78721D01*
X200024Y79047D01*
X200584Y79279D01*
X200595Y79274D01*
X201188Y79445D01*
X201989Y79581D01*
X202799Y79626D01*
X202970Y79617D01*
D02*
G37*
G36*
X163186Y65983D02*
X161806D01*
Y75699D01*
X161804Y75703D01*
X161809Y75707D01*
X161243Y76331D01*
X160504Y77001D01*
X159796Y77526D01*
X159703Y77595D01*
X159687Y77604D01*
X159682Y77597D01*
X159287Y77839D01*
X158704Y78081D01*
X158090Y78228D01*
X157486Y78276D01*
Y78276D01*
X157370Y78280D01*
X157353Y78278D01*
X156693Y78227D01*
X156146Y78095D01*
X156031Y78068D01*
X156016Y78061D01*
X155891Y78012D01*
X155881Y78009D01*
X155489Y77800D01*
X155146Y77518D01*
X155046Y77396D01*
X155046Y77395D01*
X154962Y77293D01*
X154891Y77206D01*
X154640Y76738D01*
X154501Y76279D01*
X154501Y76279D01*
X154377Y75550D01*
X154335Y74803D01*
X154333Y74767D01*
X154339Y74670D01*
X154344Y74537D01*
Y65983D01*
X152965D01*
Y74790D01*
X152965Y74790D01*
X152967Y74790D01*
X152966Y74812D01*
X153003Y75576D01*
X153014Y75709D01*
X153014D01*
X153023Y75854D01*
X153115Y76398D01*
X153142Y76529D01*
X153200Y76816D01*
X153348Y77253D01*
X153391Y77380D01*
X153537Y77732D01*
X153811Y78179D01*
X154151Y78577D01*
X154549Y78917D01*
X154990Y79187D01*
X154991Y79187D01*
X154991Y79187D01*
Y79187D01*
X155484Y79391D01*
X155612Y79424D01*
X155740Y79460D01*
X156338Y79579D01*
X156965Y79620D01*
X157078Y79621D01*
X157098Y79620D01*
Y79620D01*
X157230Y79614D01*
X157796Y79583D01*
X158124Y79527D01*
X158255Y79504D01*
X158627Y79430D01*
X159141Y79255D01*
X159266Y79211D01*
X159385Y79155D01*
X159931Y78885D01*
X160492Y78511D01*
X160493Y78505D01*
X160673Y78377D01*
X161377Y77748D01*
X161582Y77518D01*
X161664Y77426D01*
X161776Y77301D01*
X161791Y77306D01*
X161791Y77306D01*
X161796Y77308D01*
X161798Y77313D01*
X161798Y77477D01*
Y77477D01*
X161798Y77601D01*
X161806Y84781D01*
X163186D01*
Y65983D01*
D02*
G37*
G36*
X143290Y79617D02*
Y79617D01*
X143424Y79614D01*
X143965Y79583D01*
X144230Y79538D01*
X144230Y79538D01*
X144230Y79538D01*
D01*
X144240Y79545D01*
X144833Y79402D01*
X145266Y79223D01*
X145266D01*
X145266Y79223D01*
X145776Y78972D01*
X146419Y78542D01*
X146421Y78528D01*
Y78528D01*
X146660Y78351D01*
X147308Y77763D01*
X147531Y77517D01*
X147614Y77426D01*
X147614D01*
X147727Y77301D01*
X147740Y77306D01*
X147741Y77306D01*
X147741Y77306D01*
X147746Y77308D01*
X147746Y77308D01*
X147748Y77313D01*
Y77477D01*
X147748Y77601D01*
Y79283D01*
X149127D01*
Y65983D01*
X147748D01*
Y75665D01*
Y75665D01*
X147746Y75669D01*
X147748Y75671D01*
X147603Y75867D01*
X146960Y76576D01*
X146252Y77218D01*
X145754Y77587D01*
X145759Y77594D01*
X145293Y77879D01*
X144765Y78098D01*
X144209Y78232D01*
X143670Y78274D01*
Y78274D01*
X143571Y78277D01*
X143536Y78274D01*
X143049Y78236D01*
X142540Y78113D01*
X142534Y78111D01*
X142411Y78062D01*
X142351Y78044D01*
X142288Y78010D01*
X142032Y77873D01*
X141753Y77644D01*
X141571Y77422D01*
X141564Y77426D01*
X141564Y77426D01*
X141549Y77408D01*
X141496Y77310D01*
X141292Y76927D01*
X141142Y76434D01*
X141134Y76406D01*
X141123Y76303D01*
X141126Y76302D01*
X141032Y75665D01*
X140989Y74802D01*
X140989Y74788D01*
X140995Y74670D01*
X141000Y74537D01*
Y65978D01*
X139620D01*
Y75660D01*
X139618Y75664D01*
X139619Y75665D01*
X139452Y75890D01*
X138875Y76527D01*
X138238Y77104D01*
X137586Y77588D01*
X137583Y77584D01*
X137164Y77841D01*
X136591Y78079D01*
X135988Y78223D01*
X135546Y78258D01*
X135419Y78270D01*
Y78270D01*
X135415Y78270D01*
X135264Y78260D01*
X135130Y78252D01*
X134857Y78230D01*
Y78230D01*
X134746Y78221D01*
X134725Y78216D01*
X134602Y78186D01*
X134602Y78186D01*
X134363Y78128D01*
X134363Y78126D01*
X134238Y78087D01*
X134140Y78057D01*
X134103Y78045D01*
X133939Y77958D01*
X133939D01*
X133937Y77957D01*
X133937Y77957D01*
X133822Y77895D01*
X133749Y77856D01*
Y77856D01*
X133742Y77850D01*
X133652Y77777D01*
X133649Y77774D01*
X133645Y77771D01*
X133482Y77637D01*
X133306Y77422D01*
X133304Y77423D01*
X133304Y77423D01*
X133268Y77378D01*
X133194Y77241D01*
X133194Y77241D01*
X133194D01*
X133088Y77043D01*
X133092Y77041D01*
X133000Y76820D01*
X133000Y76820D01*
X132957Y76718D01*
X132954Y76706D01*
X132954Y76706D01*
X132952Y76697D01*
X132920Y76577D01*
X132902Y76524D01*
X132885Y76442D01*
X132859Y76311D01*
X132803Y76026D01*
X132803D01*
X132784Y75894D01*
X132776Y75848D01*
X132752Y75720D01*
X132741Y75524D01*
X132733Y75390D01*
X132704Y74802D01*
X132698Y74690D01*
X132699Y74670D01*
X132710Y74540D01*
Y65983D01*
X131425D01*
X131331Y66078D01*
X131347Y74790D01*
X131348Y74790D01*
X131347Y74819D01*
X131384Y75575D01*
X131394Y75709D01*
X131407Y75947D01*
X131484Y76398D01*
X131508Y76530D01*
X131534Y76660D01*
X131593Y76961D01*
X131693Y77254D01*
X131693Y77254D01*
X131693Y77254D01*
X131802Y77577D01*
X131952Y77880D01*
X132010Y78001D01*
X132215Y78335D01*
X132523Y78696D01*
X132884Y79004D01*
X133173Y79181D01*
X133173D01*
X133289Y79249D01*
X133605Y79380D01*
X133727Y79429D01*
X133851Y79458D01*
X134329Y79573D01*
X134932Y79621D01*
X135063Y79622D01*
X135065Y79622D01*
Y79622D01*
X135196Y79615D01*
X135768Y79583D01*
X136237Y79503D01*
X136238Y79502D01*
X136617Y79427D01*
X137261Y79208D01*
X137439Y79120D01*
X137438Y79119D01*
X137855Y78914D01*
X138473Y78500D01*
X138615Y78376D01*
X138614Y78375D01*
X139027Y78013D01*
X139562Y77403D01*
X139709Y77183D01*
X139740Y77189D01*
X139761Y77278D01*
X139773Y77310D01*
X139778Y77320D01*
X139965Y77772D01*
X140242Y78224D01*
X140587Y78628D01*
X140958Y78945D01*
X141070Y79017D01*
X141184Y79086D01*
X141363Y79196D01*
X141937Y79433D01*
X142541Y79578D01*
X143160Y79627D01*
X143290Y79617D01*
D02*
G37*
G36*
X194102Y83418D02*
X182432D01*
X182430Y83417D01*
X182428Y83417D01*
X182428Y83417D01*
X182428Y83416D01*
X182427Y83416D01*
X182426Y83414D01*
X182425Y83412D01*
X182425Y83411D01*
X182425Y83411D01*
X182426Y83409D01*
X182427Y83406D01*
X182527Y83284D01*
X182605Y83189D01*
X195229Y67794D01*
Y65983D01*
X180655D01*
Y67343D01*
X193549D01*
X193673Y67343D01*
X193831D01*
X193833Y67344D01*
X193835Y67345D01*
X193835Y67345D01*
X193836Y67345D01*
X193836Y67345D01*
X193837Y67348D01*
X193838Y67350D01*
X193838Y67350D01*
X193838Y67350D01*
X193838Y67351D01*
X193837Y67353D01*
X193836Y67355D01*
X193736Y67477D01*
Y67477D01*
X193657Y67573D01*
X181012Y82951D01*
Y84781D01*
X194102D01*
Y83418D01*
D02*
G37*
G36*
X223728Y79290D02*
X223730Y79285D01*
X223735Y79283D01*
X225443D01*
Y77923D01*
X223735D01*
X223730Y77921D01*
X223728Y77915D01*
Y69774D01*
X223728Y69774D01*
X223722Y69774D01*
X223727Y69651D01*
X223680Y68460D01*
X223629Y68030D01*
X223629Y68030D01*
X223612Y67812D01*
X223494Y67322D01*
X223324Y66911D01*
X223258Y66794D01*
X223258D01*
X223198Y66682D01*
X222982Y66418D01*
X222718Y66202D01*
X222439Y66053D01*
X222431Y66056D01*
X222208Y65963D01*
X221676Y65836D01*
X221131Y65793D01*
X220992Y65804D01*
X220864Y65794D01*
X220815Y65795D01*
X220756Y65795D01*
X220756D01*
X220713Y65796D01*
X220580Y65812D01*
X220580Y65812D01*
X220404Y65823D01*
X220270Y65820D01*
X220227Y65824D01*
X220110Y65834D01*
X219992Y65845D01*
X219822Y65863D01*
X219819Y67042D01*
X219871Y67108D01*
X219943Y67159D01*
X219948Y67159D01*
X220007Y67158D01*
X220007Y67158D01*
X220037Y67157D01*
X220038Y67157D01*
X220067Y67157D01*
X220124Y67156D01*
X220322D01*
X220453Y67149D01*
X220499Y67145D01*
X220587Y67152D01*
X221085Y67191D01*
X221132Y67203D01*
X221261Y67233D01*
X221328Y67242D01*
X221388Y67266D01*
X221595Y67352D01*
X221769Y67486D01*
X221824Y67528D01*
X221863Y67578D01*
X221861Y67580D01*
X221861Y67580D01*
X221861Y67580D01*
X221861Y67581D01*
X221978Y67723D01*
X222136Y68019D01*
X222233Y68338D01*
X222225Y68339D01*
X222313Y68779D01*
X222361Y69521D01*
X222353Y69657D01*
X222353Y69657D01*
X222353D01*
X222348Y69661D01*
Y77918D01*
X222346Y77923D01*
X222341Y77925D01*
X220148D01*
Y79286D01*
X222341D01*
X222346Y79288D01*
X222348Y79293D01*
Y82774D01*
X223728D01*
Y79290D01*
D02*
G37*
G36*
X249397Y73861D02*
X249396Y73680D01*
X249391Y73675D01*
X249374Y73111D01*
X249374D01*
X249370Y72977D01*
X249357Y72537D01*
X249357Y72537D01*
X249357D01*
X249365Y72529D01*
X249336Y71967D01*
X249323Y71955D01*
X249306Y71595D01*
X249165Y70648D01*
X249020Y70069D01*
X249020Y70069D01*
X249020D01*
X249020Y70068D01*
X248872Y69551D01*
X248570Y68824D01*
X248311Y68355D01*
X248311D01*
Y68355D01*
X248314Y68346D01*
X247990Y67862D01*
X247584Y67399D01*
X247163Y67030D01*
X247055Y66951D01*
X247055D01*
X246945Y66878D01*
X246534Y66603D01*
X245813Y66247D01*
X245071Y65995D01*
X245058Y66003D01*
X244405Y65839D01*
X243392Y65689D01*
X242369Y65639D01*
X242163Y65649D01*
X242162Y65651D01*
X241873Y65637D01*
X240921Y65684D01*
X239979Y65824D01*
X239054Y66055D01*
X238623Y66210D01*
X238622Y66208D01*
X238434Y66272D01*
X237838Y66566D01*
X237285Y66935D01*
X236786Y67373D01*
X236405Y67807D01*
X236406Y67813D01*
X236406Y67813D01*
X236406D01*
X236112Y68226D01*
X235769Y68847D01*
X235498Y69503D01*
X235301Y70184D01*
X235266Y70393D01*
X235267Y70394D01*
X235128Y71094D01*
X234976Y72379D01*
X234925Y73672D01*
X234932Y73858D01*
X234926Y73858D01*
X234926Y73858D01*
Y84781D01*
X236306D01*
Y73916D01*
X236304Y73914D01*
Y73914D01*
X236289Y73574D01*
X236339Y72430D01*
X236489Y71295D01*
X236682Y70424D01*
X236681Y70423D01*
X236700Y70328D01*
X236711Y70293D01*
X236907Y69718D01*
X237192Y69140D01*
X237549Y68604D01*
X237716Y68414D01*
X237802Y68316D01*
X237802Y68316D01*
X237802Y68316D01*
X237797Y68311D01*
X237832Y68269D01*
X237893Y68218D01*
X238283Y67885D01*
X238788Y67575D01*
X239336Y67348D01*
X239643Y67274D01*
X239643Y67274D01*
X239643Y67273D01*
X239995Y67185D01*
X241020Y67033D01*
X242021Y66984D01*
X242056Y66982D01*
X242155Y66987D01*
X242262Y66982D01*
X243268Y67032D01*
X244265Y67180D01*
X244640Y67274D01*
X244770Y67306D01*
X244929Y67344D01*
X245498Y67579D01*
X246023Y67901D01*
X246489Y68299D01*
X246483Y68307D01*
X246784Y68650D01*
X247134Y69175D01*
X247413Y69741D01*
X247598Y70285D01*
X247616Y70338D01*
X247632Y70415D01*
X247631Y70415D01*
X247836Y71339D01*
X247984Y72458D01*
X248033Y73586D01*
X248019Y73914D01*
X248019Y73914D01*
X248019D01*
X248017Y73916D01*
Y84781D01*
X249397D01*
Y73861D01*
D02*
G37*
G36*
X230071Y65983D02*
X228691D01*
Y84781D01*
X230071D01*
Y65983D01*
D02*
G37*
G36*
X211202Y79623D02*
X211202D01*
X211965Y79573D01*
X212117Y79543D01*
X212122Y79546D01*
X212733Y79400D01*
X213160Y79223D01*
X213160Y79223D01*
X213643Y78985D01*
X214166Y78635D01*
X214273Y78555D01*
X214412Y78456D01*
X215011Y77921D01*
X215242Y77662D01*
X215324Y77570D01*
X215439Y77442D01*
X215451Y77445D01*
X215451Y77445D01*
X215456Y77447D01*
X215458Y77452D01*
Y77456D01*
X215459Y77459D01*
X215458Y77460D01*
Y77621D01*
X215458Y77745D01*
Y79283D01*
X216838D01*
Y65983D01*
X215458D01*
Y75512D01*
X215457Y75515D01*
X215462Y75518D01*
X215411Y75610D01*
X215394Y75633D01*
X214971Y76230D01*
X214801Y76420D01*
X214712Y76520D01*
X214712Y76521D01*
X214711Y76521D01*
X214623Y76620D01*
X214426Y76840D01*
X213875Y77333D01*
X213782Y77403D01*
X213761Y77422D01*
X213673Y77481D01*
X213220Y77783D01*
X212721Y78030D01*
X212719Y78025D01*
X212456Y78134D01*
X212020Y78239D01*
X211700Y78264D01*
X211575Y78274D01*
X211570Y78273D01*
X211439Y78266D01*
X211195D01*
X211065Y78275D01*
X211050Y78277D01*
X210932Y78265D01*
X210757Y78248D01*
X210658Y78338D01*
X210671Y79601D01*
X210943Y79626D01*
X211199D01*
X211202Y79623D01*
D02*
G37*
G36*
X158268Y62058D02*
Y47428D01*
Y40347D01*
Y33188D01*
X101536D01*
D01*
X158268D01*
Y18898D01*
X17717D01*
Y33188D01*
Y40347D01*
D01*
Y47428D01*
Y62058D01*
X158268D01*
D02*
G37*
G36*
X188583Y18898D02*
X161719D01*
Y26755D01*
X188583D01*
Y18898D01*
D02*
G37*
%LPC*%
G36*
X172542Y78276D02*
X171867Y78232D01*
X171203Y78100D01*
X170667Y77918D01*
X170669Y77913D01*
X170391Y77798D01*
X169871Y77479D01*
X169407Y77083D01*
X169306Y76964D01*
X169218Y76863D01*
X169218D01*
Y76863D01*
X169073Y76698D01*
X168719Y76167D01*
X168436Y75594D01*
X168272Y75111D01*
X168272Y75111D01*
X168098Y74418D01*
X167968Y73539D01*
X167924Y72651D01*
X167968Y71763D01*
X168098Y70884D01*
X168272Y70192D01*
X168314Y70068D01*
X168441Y69693D01*
X168732Y69102D01*
X169098Y68554D01*
X169217Y68418D01*
X169219Y68419D01*
X169220Y68419D01*
X169437Y68164D01*
X169892Y67776D01*
X170402Y67463D01*
X170669Y67353D01*
X170666Y67345D01*
X171229Y67154D01*
X171845Y67031D01*
X172401Y66995D01*
X172473Y66990D01*
X172534Y66994D01*
X172603Y66990D01*
X173236Y67032D01*
X173858Y67155D01*
X174419Y67345D01*
X174416Y67353D01*
X174683Y67463D01*
X175193Y67776D01*
X175647Y68164D01*
X175865Y68419D01*
X175865Y68419D01*
X175866Y68419D01*
X175867Y68418D01*
X175983Y68550D01*
X176342Y69088D01*
X176628Y69669D01*
X176806Y70191D01*
X176803Y70192D01*
X176962Y70826D01*
X177096Y71734D01*
X177141Y72651D01*
X177096Y73568D01*
X176962Y74476D01*
X176803Y75110D01*
X176806Y75111D01*
X176633Y75619D01*
X176356Y76181D01*
X176008Y76701D01*
X175866Y76863D01*
X175779Y76964D01*
X175778Y76965D01*
X175677Y77083D01*
X175213Y77479D01*
X174694Y77798D01*
X174416Y77913D01*
X174417Y77918D01*
X173882Y78100D01*
X173218Y78232D01*
X172542Y78276D01*
D02*
G37*
G36*
X174953Y66122D02*
X174953D01*
X174953D01*
D01*
D02*
G37*
G36*
X170057D02*
X170057D01*
D01*
X170057D01*
D02*
G37*
G36*
X208031Y76946D02*
Y76946D01*
D01*
Y76946D01*
D02*
G37*
G36*
X201341Y72848D02*
X201312Y72847D01*
X201182Y72837D01*
X199218D01*
X199213Y72835D01*
X199211Y72830D01*
Y69361D01*
X199213Y69356D01*
X199212Y69356D01*
X199457Y69086D01*
X200066Y68534D01*
X200071Y68535D01*
X200239Y68384D01*
X200922Y67900D01*
X201151Y67773D01*
X201151Y67773D01*
X201581Y67536D01*
X202242Y67262D01*
X202410Y67213D01*
Y67213D01*
X202410D01*
X202413Y67215D01*
X202627Y67142D01*
X203195Y67029D01*
X203772Y66991D01*
X203790Y66989D01*
X203794Y66989D01*
X203977Y66999D01*
X204109Y67007D01*
Y67007D01*
X204415Y67024D01*
X204548Y67035D01*
X204665Y67042D01*
X204707Y67051D01*
X204707Y67052D01*
X204852Y67081D01*
X204981Y67106D01*
X204982Y67106D01*
X204983Y67107D01*
Y67107D01*
X204983Y67107D01*
X205114Y67133D01*
X205249Y67159D01*
X205254Y67168D01*
X205489Y67224D01*
X205733Y67325D01*
X205733Y67325D01*
Y67325D01*
X205992Y67432D01*
X206360Y67658D01*
X206362Y67655D01*
X206679Y67915D01*
X206946Y68241D01*
X207145Y68613D01*
X207267Y69016D01*
X207308Y69436D01*
X207305Y69514D01*
X207310Y69562D01*
X207302Y69647D01*
X207258Y70093D01*
X207103Y70603D01*
X206852Y71073D01*
X206514Y71485D01*
X206102Y71823D01*
X205814Y71977D01*
X205813Y71978D01*
X205622Y72095D01*
X205503Y72144D01*
X205381Y72200D01*
X205286Y72246D01*
X205160Y72289D01*
X205159Y72290D01*
X204785Y72417D01*
X204785Y72416D01*
X204382Y72532D01*
X204382Y72534D01*
X204252Y72571D01*
X203953Y72622D01*
X203947Y72630D01*
X203481Y72699D01*
X203480Y72699D01*
X203481Y72699D01*
X202985Y72765D01*
Y72765D01*
X202981Y72762D01*
X202682Y72797D01*
X202591Y72800D01*
X202458Y72808D01*
X201444Y72844D01*
X201341Y72848D01*
D02*
G37*
G36*
X70792Y54848D02*
X68739D01*
D01*
X70792D01*
D02*
G37*
G36*
X32889D02*
X30824D01*
D01*
X32764D01*
X32722Y54844D01*
X32667Y54840D01*
X32596Y54831D01*
X32517Y54819D01*
X32429Y54806D01*
X32332Y54781D01*
X32227Y54756D01*
X32123Y54723D01*
X32014Y54677D01*
X31905Y54626D01*
X31796Y54567D01*
X31687Y54496D01*
X31586Y54417D01*
X31490Y54325D01*
X31486Y54320D01*
X31473Y54304D01*
X31452Y54283D01*
X31427Y54249D01*
X31394Y54207D01*
X31360Y54161D01*
X31322Y54107D01*
X31285Y54044D01*
X31247Y53977D01*
X31209Y53901D01*
X31176Y53822D01*
X31142Y53738D01*
X31117Y53650D01*
X31096Y53558D01*
X31084Y53461D01*
X31079Y53361D01*
Y53352D01*
Y53327D01*
X31084Y53290D01*
X31092Y53235D01*
X31104Y53168D01*
X31125Y53097D01*
X31151Y53013D01*
X31184Y52921D01*
X31230Y52829D01*
X31285Y52728D01*
X31352Y52628D01*
X31431Y52523D01*
X31528Y52422D01*
X31582Y52372D01*
X31641Y52326D01*
X31704Y52276D01*
X31771Y52229D01*
X31842Y52183D01*
X31917Y52141D01*
X31913D01*
X31896Y52137D01*
X31871Y52129D01*
X31834Y52121D01*
X31792Y52108D01*
X31746Y52087D01*
X31691Y52066D01*
X31632Y52041D01*
X31570Y52012D01*
X31503Y51978D01*
X31435Y51940D01*
X31373Y51894D01*
X31306Y51848D01*
X31243Y51790D01*
X31180Y51731D01*
X31121Y51664D01*
X31117Y51660D01*
X31109Y51647D01*
X31092Y51626D01*
X31075Y51597D01*
X31054Y51563D01*
X31029Y51517D01*
X31000Y51467D01*
X30970Y51412D01*
X30945Y51350D01*
X30916Y51283D01*
X30891Y51207D01*
X30870Y51127D01*
X30853Y51044D01*
X30836Y50956D01*
X30828Y50864D01*
X30824Y50767D01*
Y48928D01*
Y50734D01*
X30828Y50692D01*
X30832Y50637D01*
X30841Y50574D01*
X30853Y50495D01*
X30870Y50411D01*
X30895Y50319D01*
X30924Y50218D01*
X30962Y50114D01*
X31008Y50005D01*
X31058Y49896D01*
X31125Y49782D01*
X31201Y49674D01*
X31285Y49569D01*
X31385Y49464D01*
X31394Y49460D01*
X31410Y49443D01*
X31444Y49414D01*
X31486Y49380D01*
X31540Y49338D01*
X31603Y49297D01*
X31683Y49246D01*
X31767Y49196D01*
X31863Y49146D01*
X31968Y49100D01*
X32081Y49053D01*
X32206Y49012D01*
X32336Y48978D01*
X32475Y48953D01*
X32621Y48932D01*
X32772Y48928D01*
X32806D01*
X32847Y48932D01*
X32902Y48936D01*
X32969Y48940D01*
X33049Y48953D01*
X33132Y48965D01*
X33229Y48987D01*
X33329Y49007D01*
X33434Y49037D01*
X33543Y49074D01*
X33652Y49121D01*
X33761Y49171D01*
X33870Y49229D01*
X33975Y49301D01*
X34075Y49380D01*
X34079Y49384D01*
X34096Y49401D01*
X34126Y49426D01*
X34159Y49464D01*
X34197Y49506D01*
X34243Y49560D01*
X34293Y49628D01*
X34343Y49699D01*
X34398Y49778D01*
X34448Y49866D01*
X34498Y49967D01*
X34549Y50072D01*
X34591Y50181D01*
X34624Y50302D01*
X34653Y50428D01*
X34674Y50562D01*
X33597Y50696D01*
Y50692D01*
X33593Y50679D01*
Y50658D01*
X33585Y50629D01*
X33581Y50591D01*
X33568Y50554D01*
X33560Y50507D01*
X33543Y50461D01*
X33510Y50361D01*
X33459Y50256D01*
X33401Y50151D01*
X33363Y50105D01*
X33325Y50063D01*
X33321Y50059D01*
X33313Y50055D01*
X33300Y50042D01*
X33283Y50030D01*
X33262Y50013D01*
X33237Y49996D01*
X33170Y49959D01*
X33091Y49917D01*
X32998Y49883D01*
X32894Y49858D01*
X32839Y49854D01*
X32781Y49850D01*
X32747D01*
X32722Y49854D01*
X32693Y49858D01*
X32659Y49862D01*
X32579Y49883D01*
X32487Y49912D01*
X32441Y49933D01*
X32391Y49959D01*
X32340Y49988D01*
X32294Y50026D01*
X32248Y50063D01*
X32202Y50109D01*
X32198Y50114D01*
X32194Y50122D01*
X32181Y50134D01*
X32165Y50156D01*
X32148Y50185D01*
X32127Y50214D01*
X32106Y50252D01*
X32081Y50294D01*
X32060Y50344D01*
X32039Y50394D01*
X32018Y50453D01*
X32001Y50516D01*
X31984Y50583D01*
X31972Y50654D01*
X31968Y50734D01*
X31963Y50813D01*
Y50818D01*
Y50830D01*
Y50855D01*
X31968Y50884D01*
X31972Y50918D01*
X31976Y50960D01*
X31980Y51006D01*
X31993Y51052D01*
X32018Y51161D01*
X32060Y51270D01*
X32085Y51324D01*
X32114Y51379D01*
X32148Y51433D01*
X32190Y51480D01*
X32194Y51484D01*
X32198Y51492D01*
X32211Y51500D01*
X32232Y51517D01*
X32253Y51538D01*
X32278Y51559D01*
X32345Y51605D01*
X32424Y51647D01*
X32517Y51689D01*
X32567Y51706D01*
X32621Y51714D01*
X32680Y51723D01*
X32739Y51727D01*
X32776D01*
X32797Y51723D01*
X32822D01*
X32881Y51718D01*
X32956Y51706D01*
X33044Y51693D01*
X33141Y51672D01*
X33246Y51643D01*
X33124Y52548D01*
X33049D01*
X33011Y52552D01*
X32969Y52556D01*
X32919Y52561D01*
X32868Y52569D01*
X32755Y52590D01*
X32642Y52623D01*
X32584Y52649D01*
X32529Y52674D01*
X32479Y52703D01*
X32433Y52741D01*
X32429Y52745D01*
X32424Y52749D01*
X32412Y52762D01*
X32395Y52778D01*
X32378Y52799D01*
X32357Y52824D01*
X32336Y52854D01*
X32311Y52887D01*
X32269Y52967D01*
X32232Y53063D01*
X32215Y53114D01*
X32202Y53172D01*
X32198Y53231D01*
X32194Y53294D01*
Y53298D01*
Y53306D01*
Y53323D01*
X32198Y53344D01*
Y53369D01*
X32202Y53394D01*
X32215Y53461D01*
X32236Y53537D01*
X32269Y53612D01*
X32311Y53688D01*
X32370Y53759D01*
X32378Y53767D01*
X32403Y53788D01*
X32441Y53813D01*
X32496Y53847D01*
X32563Y53880D01*
X32642Y53905D01*
X32730Y53926D01*
X32835Y53935D01*
X32864D01*
X32881Y53931D01*
X32906D01*
X32936Y53926D01*
X33003Y53910D01*
X33078Y53885D01*
X33162Y53851D01*
X33246Y53801D01*
X33288Y53767D01*
X33325Y53734D01*
X33329Y53729D01*
X33334Y53725D01*
X33342Y53713D01*
X33359Y53696D01*
X33371Y53675D01*
X33392Y53650D01*
X33409Y53621D01*
X33430Y53587D01*
X33451Y53549D01*
X33472Y53508D01*
X33493Y53461D01*
X33514Y53407D01*
X33531Y53352D01*
X33547Y53294D01*
X33560Y53227D01*
X33568Y53160D01*
X34591Y53332D01*
Y53336D01*
X34586Y53357D01*
X34578Y53382D01*
X34570Y53420D01*
X34561Y53466D01*
X34545Y53516D01*
X34532Y53575D01*
X34511Y53633D01*
X34465Y53767D01*
X34410Y53910D01*
X34348Y54048D01*
X34310Y54111D01*
X34272Y54174D01*
X34268Y54178D01*
X34264Y54186D01*
X34251Y54203D01*
X34230Y54224D01*
X34209Y54253D01*
X34184Y54283D01*
X34151Y54316D01*
X34113Y54354D01*
X34075Y54391D01*
X34029Y54434D01*
X33979Y54475D01*
X33924Y54513D01*
X33866Y54555D01*
X33807Y54597D01*
X33669Y54668D01*
X33665Y54672D01*
X33652Y54677D01*
X33631Y54685D01*
X33602Y54697D01*
X33564Y54710D01*
X33522Y54727D01*
X33472Y54743D01*
X33417Y54760D01*
X33354Y54777D01*
X33288Y54790D01*
X33216Y54806D01*
X33141Y54819D01*
X32977Y54840D01*
X32889Y54848D01*
D02*
G37*
G36*
X68739D02*
X68701D01*
X68655Y54844D01*
X68597Y54840D01*
X68525Y54836D01*
X68442Y54823D01*
X68349Y54811D01*
X68249Y54790D01*
X68144Y54764D01*
X68031Y54735D01*
X67918Y54697D01*
X67809Y54651D01*
X67696Y54597D01*
X67587Y54538D01*
X67486Y54467D01*
X67390Y54383D01*
X67386Y54379D01*
X67369Y54362D01*
X67344Y54337D01*
X67314Y54299D01*
X67277Y54253D01*
X67235Y54203D01*
X67189Y54136D01*
X67143Y54065D01*
X67097Y53985D01*
X67050Y53901D01*
X67009Y53805D01*
X66971Y53704D01*
X66942Y53596D01*
X66916Y53478D01*
X66900Y53357D01*
X66896Y53231D01*
Y53231D01*
Y53231D01*
Y53164D01*
X66900Y53130D01*
X66904Y53088D01*
X66908Y53042D01*
X66912Y52992D01*
X66929Y52879D01*
X66954Y52753D01*
X66992Y52619D01*
X67038Y52485D01*
Y52481D01*
X67046Y52468D01*
X67055Y52452D01*
X67063Y52422D01*
X67080Y52393D01*
X67101Y52355D01*
X67122Y52309D01*
X67147Y52263D01*
X67176Y52209D01*
X67210Y52150D01*
X67285Y52024D01*
X67377Y51890D01*
X67482Y51748D01*
X67486Y51744D01*
X67490Y51735D01*
X67503Y51723D01*
X67520Y51702D01*
X67545Y51672D01*
X67574Y51639D01*
X67608Y51601D01*
X67650Y51559D01*
X67696Y51509D01*
X67750Y51454D01*
X67809Y51392D01*
X67876Y51324D01*
X67947Y51253D01*
X68027Y51178D01*
X68115Y51094D01*
X68211Y51006D01*
X68215Y51002D01*
X68232Y50985D01*
X68261Y50960D01*
X68295Y50926D01*
X68337Y50889D01*
X68387Y50847D01*
X68437Y50797D01*
X68492Y50746D01*
X68605Y50637D01*
X68718Y50533D01*
X68768Y50482D01*
X68810Y50440D01*
X68852Y50398D01*
X68881Y50365D01*
X68886Y50357D01*
X68902Y50340D01*
X68932Y50306D01*
X68961Y50269D01*
X68999Y50222D01*
X69037Y50168D01*
X69074Y50114D01*
X69108Y50059D01*
X66896D01*
Y49028D01*
X70792D01*
Y49041D01*
Y49037D01*
X70788Y49053D01*
X70784Y49087D01*
X70775Y49129D01*
X70767Y49179D01*
X70754Y49242D01*
X70742Y49309D01*
X70721Y49384D01*
X70700Y49468D01*
X70671Y49556D01*
X70641Y49644D01*
X70608Y49741D01*
X70566Y49837D01*
X70520Y49938D01*
X70469Y50034D01*
X70415Y50134D01*
X70411Y50139D01*
X70398Y50160D01*
X70377Y50189D01*
X70352Y50231D01*
X70315Y50281D01*
X70264Y50344D01*
X70206Y50419D01*
X70139Y50503D01*
X70059Y50600D01*
X69971Y50704D01*
X69866Y50818D01*
X69753Y50943D01*
X69623Y51077D01*
X69485Y51215D01*
X69330Y51366D01*
X69162Y51526D01*
X69158Y51530D01*
X69154Y51534D01*
X69129Y51555D01*
X69091Y51593D01*
X69041Y51639D01*
X68982Y51697D01*
X68915Y51760D01*
X68844Y51832D01*
X68764Y51907D01*
X68609Y52066D01*
X68530Y52141D01*
X68458Y52221D01*
X68387Y52292D01*
X68328Y52359D01*
X68278Y52422D01*
X68240Y52473D01*
X68236Y52477D01*
X68232Y52489D01*
X68220Y52506D01*
X68203Y52531D01*
X68186Y52565D01*
X68169Y52598D01*
X68148Y52640D01*
X68123Y52686D01*
X68081Y52791D01*
X68048Y52904D01*
X68018Y53030D01*
X68014Y53093D01*
X68010Y53155D01*
Y53160D01*
Y53172D01*
Y53189D01*
X68014Y53218D01*
Y53248D01*
X68018Y53281D01*
X68035Y53365D01*
X68060Y53457D01*
X68094Y53553D01*
X68144Y53641D01*
X68178Y53688D01*
X68211Y53725D01*
X68215Y53729D01*
X68220Y53734D01*
X68232Y53742D01*
X68249Y53759D01*
X68270Y53771D01*
X68295Y53788D01*
X68324Y53809D01*
X68354Y53826D01*
X68433Y53864D01*
X68530Y53897D01*
X68638Y53918D01*
X68701Y53922D01*
X68764Y53926D01*
X68798D01*
X68823Y53922D01*
X68852D01*
X68886Y53914D01*
X68965Y53901D01*
X69053Y53876D01*
X69150Y53838D01*
X69192Y53813D01*
X69238Y53788D01*
X69280Y53755D01*
X69322Y53717D01*
X69326Y53713D01*
X69330Y53709D01*
X69342Y53696D01*
X69355Y53675D01*
X69372Y53654D01*
X69389Y53625D01*
X69405Y53591D01*
X69426Y53553D01*
X69447Y53508D01*
X69468Y53457D01*
X69489Y53399D01*
X69506Y53336D01*
X69523Y53264D01*
X69539Y53189D01*
X69548Y53109D01*
X69556Y53021D01*
X70662Y53130D01*
Y53135D01*
Y53143D01*
X70658Y53155D01*
Y53172D01*
X70654Y53193D01*
X70650Y53218D01*
X70637Y53281D01*
X70625Y53357D01*
X70604Y53440D01*
X70578Y53537D01*
X70549Y53637D01*
X70511Y53746D01*
X70469Y53855D01*
X70419Y53964D01*
X70361Y54073D01*
X70298Y54178D01*
X70222Y54274D01*
X70139Y54366D01*
X70046Y54446D01*
X70042Y54450D01*
X70021Y54463D01*
X69992Y54484D01*
X69954Y54509D01*
X69900Y54538D01*
X69841Y54572D01*
X69766Y54609D01*
X69686Y54647D01*
X69598Y54685D01*
X69498Y54723D01*
X69389Y54756D01*
X69275Y54785D01*
X69150Y54811D01*
X69020Y54831D01*
X68881Y54844D01*
X68739Y54848D01*
D02*
G37*
G36*
X66129Y54752D02*
X62232D01*
D01*
X62488D01*
Y53713D01*
X64583D01*
X64763Y52724D01*
X64759Y52728D01*
X64746Y52732D01*
X64725Y52741D01*
X64700Y52753D01*
X64662Y52766D01*
X64625Y52783D01*
X64578Y52799D01*
X64528Y52820D01*
X64474Y52837D01*
X64411Y52854D01*
X64285Y52883D01*
X64143Y52904D01*
X64071Y52912D01*
X63967D01*
X63929Y52908D01*
X63879Y52904D01*
X63812Y52896D01*
X63740Y52883D01*
X63657Y52866D01*
X63569Y52845D01*
X63472Y52816D01*
X63372Y52783D01*
X63267Y52737D01*
X63162Y52686D01*
X63053Y52623D01*
X62949Y52552D01*
X62848Y52468D01*
X62747Y52372D01*
X62743Y52368D01*
X62726Y52347D01*
X62701Y52318D01*
X62668Y52276D01*
X62626Y52221D01*
X62584Y52154D01*
X62538Y52079D01*
X62488Y51995D01*
X62441Y51898D01*
X62395Y51794D01*
X62349Y51676D01*
X62312Y51555D01*
X62278Y51421D01*
X62253Y51278D01*
X62236Y51132D01*
X62232Y50972D01*
Y50939D01*
X62236Y50901D01*
X62240Y50851D01*
X62245Y50788D01*
X62253Y50717D01*
X62265Y50633D01*
X62282Y50545D01*
X62307Y50449D01*
X62333Y50344D01*
X62366Y50239D01*
X62408Y50130D01*
X62458Y50021D01*
X62513Y49912D01*
X62576Y49804D01*
X62651Y49695D01*
X62659Y49686D01*
X62676Y49661D01*
X62710Y49623D01*
X62756Y49573D01*
X62810Y49519D01*
X62881Y49452D01*
X62965Y49384D01*
X63057Y49313D01*
X63162Y49238D01*
X63279Y49171D01*
X63409Y49104D01*
X63548Y49049D01*
X63699Y48999D01*
X63862Y48961D01*
X64034Y48936D01*
X64126Y48932D01*
X64218Y48928D01*
X64252D01*
X64293Y48932D01*
X64352Y48936D01*
X64419Y48940D01*
X64499Y48949D01*
X64587Y48965D01*
X64683Y48982D01*
X64784Y49003D01*
X64889Y49033D01*
X64997Y49066D01*
X65106Y49108D01*
X65215Y49158D01*
X65324Y49213D01*
X65429Y49280D01*
X65525Y49355D01*
X65530Y49359D01*
X65546Y49376D01*
X65571Y49401D01*
X65605Y49435D01*
X65647Y49477D01*
X65689Y49531D01*
X65739Y49590D01*
X65789Y49661D01*
X65844Y49741D01*
X65894Y49829D01*
X65944Y49921D01*
X65995Y50026D01*
X66036Y50134D01*
X66074Y50256D01*
X66108Y50378D01*
X66129Y50512D01*
X65022Y50629D01*
Y50625D01*
X65018Y50612D01*
Y50591D01*
X65010Y50566D01*
X65006Y50537D01*
X64997Y50499D01*
X64972Y50415D01*
X64935Y50319D01*
X64884Y50218D01*
X64826Y50122D01*
X64788Y50076D01*
X64746Y50034D01*
X64742Y50030D01*
X64733Y50026D01*
X64721Y50013D01*
X64704Y50000D01*
X64683Y49984D01*
X64654Y49967D01*
X64591Y49925D01*
X64511Y49883D01*
X64419Y49850D01*
X64314Y49825D01*
X64260Y49820D01*
X64205Y49816D01*
X64172D01*
X64147Y49820D01*
X64117Y49825D01*
X64084Y49833D01*
X64000Y49850D01*
X63908Y49883D01*
X63862Y49908D01*
X63812Y49933D01*
X63761Y49967D01*
X63711Y50005D01*
X63665Y50046D01*
X63619Y50097D01*
X63615Y50101D01*
X63606Y50109D01*
X63598Y50126D01*
X63581Y50151D01*
X63564Y50181D01*
X63543Y50218D01*
X63518Y50260D01*
X63497Y50310D01*
X63476Y50369D01*
X63451Y50432D01*
X63430Y50503D01*
X63414Y50579D01*
X63397Y50662D01*
X63384Y50755D01*
X63380Y50851D01*
X63376Y50956D01*
Y50960D01*
Y50981D01*
Y51006D01*
X63380Y51044D01*
X63384Y51090D01*
X63388Y51140D01*
X63397Y51195D01*
X63405Y51257D01*
X63434Y51387D01*
X63455Y51454D01*
X63476Y51521D01*
X63506Y51588D01*
X63539Y51647D01*
X63577Y51706D01*
X63619Y51760D01*
X63623Y51764D01*
X63631Y51773D01*
X63644Y51785D01*
X63661Y51802D01*
X63686Y51823D01*
X63715Y51844D01*
X63749Y51869D01*
X63787Y51894D01*
X63828Y51919D01*
X63875Y51945D01*
X63979Y51986D01*
X64042Y52003D01*
X64101Y52016D01*
X64168Y52024D01*
X64239Y52028D01*
X64260D01*
X64285Y52024D01*
X64319Y52020D01*
X64360Y52016D01*
X64411Y52007D01*
X64465Y51995D01*
X64524Y51974D01*
X64591Y51953D01*
X64658Y51924D01*
X64729Y51890D01*
X64805Y51848D01*
X64876Y51802D01*
X64951Y51744D01*
X65027Y51681D01*
X65098Y51605D01*
X65995Y51735D01*
X65425Y54752D01*
X66129D01*
D02*
G37*
G36*
X140635Y53231D02*
X136885D01*
X137007D01*
Y52443D01*
X138616Y50591D01*
X139181Y49979D01*
X139160D01*
X139139Y49984D01*
X139072D01*
X139031Y49988D01*
X138938Y49992D01*
X138838Y49996D01*
X138746Y50001D01*
X138704D01*
X138666Y50005D01*
X136885D01*
Y49028D01*
X140635D01*
Y49900D01*
X139060Y51706D01*
X139056Y51710D01*
X139043Y51727D01*
X139022Y51748D01*
X138997Y51777D01*
X138963Y51815D01*
X138926Y51857D01*
X138888Y51903D01*
X138842Y51949D01*
X138750Y52053D01*
X138653Y52158D01*
X138565Y52255D01*
X138523Y52297D01*
X138486Y52334D01*
X138519D01*
X138565Y52330D01*
X138624Y52326D01*
X138695D01*
X138783Y52322D01*
X138884Y52318D01*
X138997D01*
X140480Y52309D01*
Y53231D01*
X140635D01*
D01*
D02*
G37*
G36*
X61444Y54827D02*
X57560D01*
X60334D01*
Y51748D01*
X59035Y53231D01*
X57665D01*
X59102Y51693D01*
X57560Y49028D01*
X58758D01*
X59819Y50918D01*
X60334Y50373D01*
Y49028D01*
X61444D01*
Y54827D01*
D02*
G37*
G36*
X106319Y53323D02*
X106277D01*
X106252Y53319D01*
X106227D01*
X106160Y53315D01*
X106080Y53306D01*
X105984Y53290D01*
X105879Y53273D01*
X105766Y53248D01*
X105645Y53214D01*
X105519Y53172D01*
X105389Y53122D01*
X105255Y53063D01*
X105125Y52992D01*
X104999Y52908D01*
X104874Y52812D01*
X104756Y52703D01*
X104748Y52695D01*
X104731Y52674D01*
X104698Y52640D01*
X104660Y52590D01*
X104614Y52531D01*
X104564Y52456D01*
X104509Y52372D01*
X104450Y52276D01*
X104392Y52167D01*
X104337Y52049D01*
X104287Y51920D01*
X104241Y51781D01*
X104199Y51630D01*
X104170Y51475D01*
X104153Y51308D01*
X104145Y51136D01*
Y53323D01*
D01*
D01*
Y48932D01*
Y51094D01*
X104149Y51073D01*
Y51044D01*
X104153Y50977D01*
X104161Y50897D01*
X104178Y50801D01*
X104195Y50696D01*
X104220Y50583D01*
X104253Y50461D01*
X104295Y50331D01*
X104346Y50202D01*
X104404Y50068D01*
X104476Y49938D01*
X104555Y49804D01*
X104652Y49678D01*
X104761Y49556D01*
X104769Y49548D01*
X104790Y49531D01*
X104823Y49498D01*
X104869Y49460D01*
X104932Y49410D01*
X105003Y49359D01*
X105087Y49301D01*
X105184Y49246D01*
X105293Y49188D01*
X105410Y49129D01*
X105536Y49079D01*
X105674Y49028D01*
X105821Y48991D01*
X105976Y48957D01*
X106139Y48940D01*
X106311Y48932D01*
X104145D01*
X108481D01*
X106369D01*
X106407Y48936D01*
X106462Y48940D01*
X106520Y48945D01*
X106591Y48953D01*
X106667Y48965D01*
X106747Y48978D01*
X106834Y48995D01*
X106927Y49016D01*
X107019Y49041D01*
X107115Y49070D01*
X107216Y49108D01*
X107312Y49146D01*
X107413Y49192D01*
X107417Y49196D01*
X107434Y49204D01*
X107463Y49221D01*
X107501Y49242D01*
X107543Y49267D01*
X107593Y49301D01*
X107647Y49338D01*
X107710Y49384D01*
X107773Y49435D01*
X107836Y49494D01*
X107903Y49556D01*
X107970Y49623D01*
X108033Y49699D01*
X108096Y49778D01*
X108154Y49862D01*
X108209Y49954D01*
X108213Y49959D01*
X108221Y49979D01*
X108234Y50005D01*
X108251Y50046D01*
X108272Y50093D01*
X108297Y50151D01*
X108318Y50222D01*
X108343Y50298D01*
X108372Y50386D01*
X108393Y50478D01*
X108418Y50579D01*
X108439Y50688D01*
X108456Y50805D01*
X108469Y50926D01*
X108477Y51052D01*
X108481Y51186D01*
Y51241D01*
X108477Y51283D01*
X108473Y51329D01*
X108469Y51387D01*
X108460Y51454D01*
X108448Y51526D01*
X108431Y51605D01*
X108414Y51689D01*
X108393Y51777D01*
X108368Y51869D01*
X108335Y51965D01*
X108297Y52062D01*
X108255Y52158D01*
X108209Y52255D01*
X108205Y52259D01*
X108196Y52276D01*
X108179Y52305D01*
X108159Y52338D01*
X108129Y52385D01*
X108096Y52435D01*
X108058Y52489D01*
X108012Y52548D01*
X107957Y52611D01*
X107899Y52678D01*
X107836Y52741D01*
X107769Y52808D01*
X107694Y52871D01*
X107614Y52933D01*
X107530Y52992D01*
X107438Y53047D01*
X107434Y53051D01*
X107417Y53059D01*
X107388Y53072D01*
X107350Y53088D01*
X107304Y53109D01*
X107245Y53135D01*
X107182Y53160D01*
X107111Y53185D01*
X107032Y53210D01*
X106944Y53235D01*
X106851Y53260D01*
X106755Y53281D01*
X106650Y53298D01*
X106545Y53311D01*
X106432Y53319D01*
X106319Y53323D01*
D02*
G37*
G36*
X115068Y53231D02*
X113991D01*
X113203Y50474D01*
X112478Y53231D01*
X111410D01*
X110710Y50474D01*
X109906Y53231D01*
X108808D01*
X110161Y49028D01*
X113740D01*
X115068Y53231D01*
D02*
G37*
G36*
X127009Y53323D02*
X123083D01*
Y48932D01*
Y53323D01*
X125040D01*
X125019Y53319D01*
X124994D01*
X124927Y53315D01*
X124847Y53306D01*
X124759Y53290D01*
X124655Y53273D01*
X124546Y53248D01*
X124433Y53214D01*
X124311Y53172D01*
X124189Y53122D01*
X124064Y53063D01*
X123942Y52992D01*
X123825Y52908D01*
X123712Y52812D01*
X123607Y52703D01*
X123603Y52695D01*
X123582Y52674D01*
X123557Y52636D01*
X123523Y52586D01*
X123481Y52519D01*
X123435Y52439D01*
X123389Y52343D01*
X123339Y52234D01*
X123289Y52108D01*
X123238Y51965D01*
X123196Y51810D01*
X123155Y51639D01*
X123125Y51454D01*
X123100Y51253D01*
X123088Y51035D01*
X123083Y50805D01*
X125870D01*
Y50801D01*
Y50784D01*
X125865Y50759D01*
Y50725D01*
X125861Y50683D01*
X125853Y50633D01*
X125845Y50583D01*
X125832Y50524D01*
X125803Y50398D01*
X125782Y50336D01*
X125757Y50273D01*
X125723Y50210D01*
X125690Y50147D01*
X125652Y50088D01*
X125606Y50034D01*
X125602Y50030D01*
X125593Y50021D01*
X125581Y50009D01*
X125560Y49992D01*
X125534Y49971D01*
X125501Y49946D01*
X125468Y49925D01*
X125426Y49900D01*
X125384Y49870D01*
X125333Y49850D01*
X125224Y49804D01*
X125162Y49787D01*
X125099Y49774D01*
X125032Y49766D01*
X124960Y49762D01*
X124935D01*
X124914Y49766D01*
X124868Y49770D01*
X124805Y49778D01*
X124738Y49795D01*
X124663Y49820D01*
X124592Y49854D01*
X124521Y49900D01*
X124516D01*
X124512Y49908D01*
X124491Y49929D01*
X124458Y49963D01*
X124420Y50013D01*
X124374Y50076D01*
X124328Y50156D01*
X124286Y50248D01*
X124248Y50361D01*
X123142Y50176D01*
X123146Y50168D01*
X123150Y50151D01*
X123163Y50118D01*
X123184Y50076D01*
X123205Y50026D01*
X123234Y49967D01*
X123268Y49900D01*
X123310Y49833D01*
X123352Y49757D01*
X123402Y49682D01*
X123460Y49602D01*
X123519Y49527D01*
X123586Y49452D01*
X123657Y49376D01*
X123737Y49309D01*
X123821Y49246D01*
X123825Y49242D01*
X123842Y49234D01*
X123867Y49217D01*
X123905Y49196D01*
X123951Y49175D01*
X124001Y49146D01*
X124068Y49121D01*
X124139Y49091D01*
X124219Y49062D01*
X124303Y49033D01*
X124399Y49003D01*
X124500Y48982D01*
X124609Y48961D01*
X124726Y48945D01*
X124847Y48936D01*
X124973Y48932D01*
X123083D01*
X125019D01*
X125048Y48936D01*
X125078D01*
X125111Y48940D01*
X125153Y48945D01*
X125245Y48953D01*
X125346Y48970D01*
X125463Y48991D01*
X125589Y49020D01*
X125719Y49058D01*
X125853Y49108D01*
X125987Y49162D01*
X126121Y49234D01*
X126251Y49313D01*
X126373Y49410D01*
X126490Y49519D01*
X126595Y49644D01*
X126599Y49653D01*
X126611Y49669D01*
X126632Y49703D01*
X126657Y49749D01*
X126691Y49804D01*
X126725Y49870D01*
X126762Y49950D01*
X126800Y50042D01*
X126842Y50143D01*
X126880Y50252D01*
X126913Y50369D01*
X126942Y50499D01*
X126972Y50633D01*
X126993Y50780D01*
X127005Y50935D01*
X127009Y51094D01*
Y51140D01*
X127005Y51165D01*
Y51195D01*
Y51228D01*
X127001Y51266D01*
X126993Y51354D01*
X126980Y51454D01*
X126963Y51568D01*
X126942Y51689D01*
X126913Y51819D01*
X126875Y51953D01*
X126833Y52087D01*
X126779Y52225D01*
X126716Y52359D01*
X126645Y52489D01*
X126561Y52611D01*
X126465Y52728D01*
X126456Y52737D01*
X126440Y52753D01*
X126410Y52783D01*
X126368Y52820D01*
X126314Y52866D01*
X126247Y52917D01*
X126171Y52971D01*
X126088Y53026D01*
X125991Y53080D01*
X125886Y53135D01*
X125773Y53185D01*
X125652Y53231D01*
X125522Y53269D01*
X125384Y53298D01*
X125237Y53315D01*
X125082Y53323D01*
X127009D01*
D01*
D02*
G37*
G36*
X89199D02*
X85273D01*
Y48932D01*
Y53323D01*
X87230D01*
X87209Y53319D01*
X87183D01*
X87116Y53315D01*
X87037Y53306D01*
X86949Y53290D01*
X86844Y53273D01*
X86735Y53248D01*
X86622Y53214D01*
X86501Y53172D01*
X86379Y53122D01*
X86253Y53063D01*
X86132Y52992D01*
X86014Y52908D01*
X85901Y52812D01*
X85797Y52703D01*
X85792Y52695D01*
X85771Y52674D01*
X85746Y52636D01*
X85713Y52586D01*
X85671Y52519D01*
X85625Y52439D01*
X85579Y52343D01*
X85528Y52234D01*
X85478Y52108D01*
X85428Y51965D01*
X85386Y51810D01*
X85344Y51639D01*
X85315Y51454D01*
X85290Y51253D01*
X85277Y51035D01*
X85273Y50805D01*
X88059D01*
Y50801D01*
Y50784D01*
X88055Y50759D01*
Y50725D01*
X88051Y50683D01*
X88042Y50633D01*
X88034Y50583D01*
X88021Y50524D01*
X87992Y50398D01*
X87971Y50336D01*
X87946Y50273D01*
X87912Y50210D01*
X87879Y50147D01*
X87841Y50088D01*
X87795Y50034D01*
X87791Y50030D01*
X87783Y50021D01*
X87770Y50009D01*
X87749Y49992D01*
X87724Y49971D01*
X87690Y49946D01*
X87657Y49925D01*
X87615Y49900D01*
X87573Y49870D01*
X87523Y49850D01*
X87414Y49804D01*
X87351Y49787D01*
X87288Y49774D01*
X87221Y49766D01*
X87150Y49762D01*
X87125D01*
X87104Y49766D01*
X87058Y49770D01*
X86995Y49778D01*
X86928Y49795D01*
X86852Y49820D01*
X86781Y49854D01*
X86710Y49900D01*
X86706D01*
X86702Y49908D01*
X86681Y49929D01*
X86647Y49963D01*
X86609Y50013D01*
X86563Y50076D01*
X86517Y50156D01*
X86475Y50248D01*
X86438Y50361D01*
X85331Y50176D01*
X85336Y50168D01*
X85340Y50151D01*
X85352Y50118D01*
X85373Y50076D01*
X85394Y50026D01*
X85424Y49967D01*
X85457Y49900D01*
X85499Y49833D01*
X85541Y49757D01*
X85591Y49682D01*
X85650Y49602D01*
X85709Y49527D01*
X85776Y49452D01*
X85847Y49376D01*
X85926Y49309D01*
X86010Y49246D01*
X86014Y49242D01*
X86031Y49234D01*
X86056Y49217D01*
X86094Y49196D01*
X86140Y49175D01*
X86190Y49146D01*
X86257Y49121D01*
X86329Y49091D01*
X86408Y49062D01*
X86492Y49033D01*
X86589Y49003D01*
X86689Y48982D01*
X86798Y48961D01*
X86915Y48945D01*
X87037Y48936D01*
X87163Y48932D01*
X87209D01*
X87238Y48936D01*
X87267D01*
X87301Y48940D01*
X87343Y48945D01*
X87435Y48953D01*
X87535Y48970D01*
X87653Y48991D01*
X87778Y49020D01*
X87908Y49058D01*
X88042Y49108D01*
X88177Y49162D01*
X88311Y49234D01*
X88440Y49313D01*
X88562Y49410D01*
X88679Y49519D01*
X88784Y49644D01*
X88788Y49653D01*
X88801Y49669D01*
X88822Y49703D01*
X88847Y49749D01*
X88880Y49804D01*
X88914Y49870D01*
X88952Y49950D01*
X88989Y50042D01*
X89031Y50143D01*
X89069Y50252D01*
X89103Y50369D01*
X89132Y50499D01*
X89161Y50633D01*
X89182Y50780D01*
X89195Y50935D01*
X89199Y51094D01*
Y51140D01*
X89195Y51165D01*
Y51195D01*
Y51228D01*
X89191Y51266D01*
X89182Y51354D01*
X89170Y51454D01*
X89153Y51568D01*
X89132Y51689D01*
X89103Y51819D01*
X89065Y51953D01*
X89023Y52087D01*
X88968Y52225D01*
X88906Y52359D01*
X88834Y52489D01*
X88750Y52611D01*
X88654Y52728D01*
X88646Y52737D01*
X88629Y52753D01*
X88600Y52783D01*
X88558Y52820D01*
X88503Y52866D01*
X88436Y52917D01*
X88361Y52971D01*
X88277Y53026D01*
X88181Y53080D01*
X88076Y53135D01*
X87963Y53185D01*
X87841Y53231D01*
X87711Y53269D01*
X87573Y53298D01*
X87427Y53315D01*
X87271Y53323D01*
X89199D01*
D01*
D02*
G37*
G36*
X82767D02*
X82725D01*
X82704Y53319D01*
X82679D01*
X82612Y53315D01*
X82533Y53306D01*
X82445Y53290D01*
X82340Y53273D01*
X82231Y53248D01*
X82118Y53214D01*
X81996Y53172D01*
X81875Y53122D01*
X81749Y53063D01*
X81628Y52992D01*
X81510Y52908D01*
X81397Y52812D01*
X81292Y52703D01*
X81288Y52695D01*
X81267Y52674D01*
X81242Y52636D01*
X81208Y52586D01*
X81167Y52519D01*
X81121Y52439D01*
X81074Y52343D01*
X81024Y52234D01*
X80974Y52108D01*
X80924Y51965D01*
X80882Y51810D01*
X80840Y51639D01*
X80810Y51454D01*
X80785Y51253D01*
X80773Y51035D01*
X80769Y50805D01*
X83555D01*
Y50801D01*
Y50784D01*
X83551Y50759D01*
Y50725D01*
X83547Y50683D01*
X83538Y50633D01*
X83530Y50583D01*
X83517Y50524D01*
X83488Y50398D01*
X83467Y50336D01*
X83442Y50273D01*
X83408Y50210D01*
X83375Y50147D01*
X83337Y50088D01*
X83291Y50034D01*
X83287Y50030D01*
X83278Y50021D01*
X83266Y50009D01*
X83245Y49992D01*
X83220Y49971D01*
X83186Y49946D01*
X83153Y49925D01*
X83111Y49900D01*
X83069Y49870D01*
X83019Y49850D01*
X82910Y49804D01*
X82847Y49787D01*
X82784Y49774D01*
X82717Y49766D01*
X82646Y49762D01*
X82621D01*
X82600Y49766D01*
X82553Y49770D01*
X82491Y49778D01*
X82424Y49795D01*
X82348Y49820D01*
X82277Y49854D01*
X82206Y49900D01*
X82201D01*
X82197Y49908D01*
X82176Y49929D01*
X82143Y49963D01*
X82105Y50013D01*
X82059Y50076D01*
X82013Y50156D01*
X81971Y50248D01*
X81933Y50361D01*
X80827Y50176D01*
X80831Y50168D01*
X80836Y50151D01*
X80848Y50118D01*
X80869Y50076D01*
X80890Y50026D01*
X80919Y49967D01*
X80953Y49900D01*
X80995Y49833D01*
X81037Y49757D01*
X81087Y49682D01*
X81146Y49602D01*
X81204Y49527D01*
X81271Y49452D01*
X81343Y49376D01*
X81422Y49309D01*
X81506Y49246D01*
X81510Y49242D01*
X81527Y49234D01*
X81552Y49217D01*
X81590Y49196D01*
X81636Y49175D01*
X81686Y49146D01*
X81753Y49121D01*
X81824Y49091D01*
X81904Y49062D01*
X81988Y49033D01*
X82084Y49003D01*
X82185Y48982D01*
X82294Y48961D01*
X82411Y48945D01*
X82533Y48936D01*
X82658Y48932D01*
X80769D01*
X84695D01*
X82704D01*
X82734Y48936D01*
X82763D01*
X82797Y48940D01*
X82838Y48945D01*
X82931Y48953D01*
X83031Y48970D01*
X83148Y48991D01*
X83274Y49020D01*
X83404Y49058D01*
X83538Y49108D01*
X83672Y49162D01*
X83806Y49234D01*
X83936Y49313D01*
X84058Y49410D01*
X84175Y49519D01*
X84280Y49644D01*
X84284Y49653D01*
X84297Y49669D01*
X84317Y49703D01*
X84343Y49749D01*
X84376Y49804D01*
X84410Y49870D01*
X84447Y49950D01*
X84485Y50042D01*
X84527Y50143D01*
X84565Y50252D01*
X84598Y50369D01*
X84627Y50499D01*
X84657Y50633D01*
X84678Y50780D01*
X84690Y50935D01*
X84695Y51094D01*
Y51140D01*
X84690Y51165D01*
Y51195D01*
Y51228D01*
X84686Y51266D01*
X84678Y51354D01*
X84665Y51454D01*
X84649Y51568D01*
X84627Y51689D01*
X84598Y51819D01*
X84561Y51953D01*
X84519Y52087D01*
X84464Y52225D01*
X84401Y52359D01*
X84330Y52489D01*
X84246Y52611D01*
X84150Y52728D01*
X84141Y52737D01*
X84125Y52753D01*
X84095Y52783D01*
X84053Y52820D01*
X83999Y52866D01*
X83932Y52917D01*
X83857Y52971D01*
X83773Y53026D01*
X83676Y53080D01*
X83572Y53135D01*
X83459Y53185D01*
X83337Y53231D01*
X83207Y53269D01*
X83069Y53298D01*
X82922Y53315D01*
X82767Y53323D01*
D02*
G37*
G36*
X145160Y53231D02*
X141339D01*
Y49028D01*
X142370D01*
Y49657D01*
X142374Y49653D01*
X142383Y49640D01*
X142395Y49623D01*
X142412Y49602D01*
X142433Y49573D01*
X142462Y49540D01*
X142496Y49502D01*
X142533Y49464D01*
X142575Y49422D01*
X142621Y49376D01*
X142722Y49288D01*
X142843Y49204D01*
X142977Y49125D01*
X142982D01*
X142994Y49116D01*
X143015Y49108D01*
X143040Y49095D01*
X143078Y49079D01*
X143116Y49062D01*
X143162Y49045D01*
X143216Y49028D01*
X143271Y49012D01*
X143334Y48995D01*
X143468Y48961D01*
X143610Y48940D01*
X143690Y48936D01*
X143765Y48932D01*
X143807D01*
X143836Y48936D01*
X143874D01*
X143916Y48940D01*
X143966Y48949D01*
X144021Y48957D01*
X144138Y48978D01*
X144264Y49012D01*
X144398Y49058D01*
X144465Y49083D01*
X144528Y49116D01*
X144532Y49121D01*
X144540Y49125D01*
X144561Y49137D01*
X144582Y49150D01*
X144612Y49171D01*
X144641Y49192D01*
X144712Y49250D01*
X144792Y49326D01*
X144876Y49414D01*
X144951Y49519D01*
X144984Y49573D01*
X145014Y49636D01*
Y49640D01*
X145018Y49653D01*
X145026Y49669D01*
X145035Y49699D01*
X145047Y49732D01*
X145060Y49774D01*
X145072Y49825D01*
X145085Y49879D01*
X145102Y49942D01*
X145114Y50013D01*
X145127Y50088D01*
X145135Y50172D01*
X145148Y50264D01*
X145152Y50361D01*
X145160Y50461D01*
Y49028D01*
Y53231D01*
D02*
G37*
G36*
X119505Y53323D02*
D01*
Y49028D01*
X115068D01*
D01*
X119505D01*
Y53109D01*
D01*
D01*
Y53323D01*
D02*
G37*
G36*
X103273Y54827D02*
X102163D01*
Y49028D01*
X103273D01*
Y54827D01*
D02*
G37*
G36*
X99603Y54924D02*
X99523D01*
X99477Y54919D01*
X99427Y54915D01*
X99372Y54911D01*
X99309Y54907D01*
X99242Y54899D01*
X99167Y54890D01*
X99012Y54865D01*
X98844Y54827D01*
X98672Y54781D01*
X98823Y54006D01*
X98827D01*
X98836Y54010D01*
X98848Y54014D01*
X98869Y54019D01*
X98890Y54023D01*
X98920Y54027D01*
X98987Y54040D01*
X99062Y54052D01*
X99150Y54065D01*
X99242Y54069D01*
X99335Y54073D01*
X99372D01*
X99414Y54069D01*
X99468Y54061D01*
X99523Y54044D01*
X99582Y54027D01*
X99632Y53998D01*
X99678Y53960D01*
X99682Y53956D01*
X99695Y53939D01*
X99712Y53905D01*
X99728Y53864D01*
X99749Y53805D01*
X99758Y53767D01*
X99766Y53729D01*
X99774Y53684D01*
X99779Y53637D01*
X99783Y53583D01*
Y53524D01*
Y53231D01*
X98953D01*
Y52355D01*
X99783D01*
Y49028D01*
X98719D01*
X101509D01*
Y53231D01*
D01*
X100893D01*
Y53545D01*
Y53549D01*
Y53570D01*
Y53596D01*
Y53633D01*
X100889Y53675D01*
Y53725D01*
X100885Y53780D01*
X100881Y53843D01*
X100868Y53968D01*
X100847Y54102D01*
X100822Y54224D01*
X100805Y54283D01*
X100784Y54333D01*
Y54337D01*
X100780Y54346D01*
X100772Y54358D01*
X100763Y54375D01*
X100734Y54425D01*
X100688Y54484D01*
X100633Y54551D01*
X100562Y54622D01*
X100520Y54655D01*
X100474Y54689D01*
X100424Y54723D01*
X100369Y54756D01*
X100365D01*
X100357Y54764D01*
X100340Y54773D01*
X100315Y54781D01*
X100286Y54794D01*
X100248Y54811D01*
X100206Y54823D01*
X100160Y54840D01*
X100105Y54857D01*
X100047Y54869D01*
X99984Y54886D01*
X99917Y54899D01*
X99846Y54907D01*
X99766Y54915D01*
X99603Y54924D01*
D02*
G37*
G36*
X57443Y53231D02*
X51183D01*
D01*
X52536Y49028D01*
X53601D01*
X54325Y51731D01*
X55038Y49028D01*
X56115D01*
X57443Y53231D01*
D01*
D02*
G37*
G36*
X46080Y54827D02*
X42103D01*
Y49028D01*
Y53847D01*
X44910D01*
Y52473D01*
X42489D01*
Y51492D01*
X44910D01*
Y49028D01*
X42103D01*
X46080D01*
Y54827D01*
D02*
G37*
G36*
X41152D02*
X35559D01*
Y49028D01*
X37459D01*
X36644D01*
X36648Y53591D01*
X37796Y49028D01*
X38923D01*
X40067Y53591D01*
Y49028D01*
X41152D01*
Y54827D01*
D02*
G37*
G36*
X37796Y49028D02*
X37459D01*
X37796D01*
D01*
D02*
G37*
G36*
X98672Y53323D02*
X94797D01*
Y50784D01*
Y53323D01*
X96716D01*
X96657Y53319D01*
X96586Y53315D01*
X96506Y53306D01*
X96414Y53298D01*
X96314Y53290D01*
X96213Y53273D01*
X96108Y53252D01*
X95999Y53231D01*
X95894Y53202D01*
X95790Y53172D01*
X95693Y53130D01*
X95601Y53088D01*
X95517Y53038D01*
X95513Y53034D01*
X95501Y53026D01*
X95476Y53009D01*
X95450Y52988D01*
X95417Y52954D01*
X95375Y52921D01*
X95333Y52879D01*
X95287Y52829D01*
X95241Y52774D01*
X95191Y52711D01*
X95144Y52644D01*
X95098Y52569D01*
X95052Y52489D01*
X95010Y52401D01*
X94973Y52309D01*
X94939Y52209D01*
X95987Y52016D01*
Y52020D01*
X95991Y52028D01*
X95995Y52041D01*
X95999Y52058D01*
X96020Y52100D01*
X96045Y52154D01*
X96083Y52213D01*
X96125Y52276D01*
X96179Y52334D01*
X96246Y52389D01*
X96255Y52393D01*
X96267Y52401D01*
X96280Y52410D01*
X96301Y52418D01*
X96322Y52431D01*
X96381Y52456D01*
X96456Y52481D01*
X96548Y52502D01*
X96657Y52519D01*
X96779Y52523D01*
X96850D01*
X96887Y52519D01*
X96929Y52514D01*
X96971D01*
X97022Y52506D01*
X97126Y52494D01*
X97231Y52468D01*
X97327Y52439D01*
X97369Y52418D01*
X97407Y52397D01*
X97411Y52393D01*
X97428Y52380D01*
X97445Y52364D01*
X97470Y52338D01*
X97491Y52305D01*
X97512Y52267D01*
X97529Y52221D01*
X97533Y52171D01*
Y52167D01*
Y52150D01*
X97529Y52129D01*
X97520Y52104D01*
X97508Y52070D01*
X97487Y52037D01*
X97461Y52003D01*
X97424Y51970D01*
X97415Y51965D01*
X97403Y51957D01*
X97386Y51949D01*
X97361Y51940D01*
X97327Y51924D01*
X97290Y51907D01*
X97239Y51890D01*
X97177Y51869D01*
X97105Y51848D01*
X97022Y51819D01*
X96925Y51794D01*
X96812Y51764D01*
X96686Y51731D01*
X96548Y51697D01*
X96469Y51676D01*
X96389Y51660D01*
X96385D01*
X96381Y51656D01*
X96368D01*
X96351Y51651D01*
X96305Y51639D01*
X96246Y51622D01*
X96171Y51605D01*
X96087Y51580D01*
X95999Y51555D01*
X95899Y51521D01*
X95697Y51450D01*
X95593Y51408D01*
X95492Y51366D01*
X95392Y51320D01*
X95304Y51270D01*
X95220Y51220D01*
X95149Y51165D01*
X95144Y51161D01*
X95132Y51153D01*
X95115Y51136D01*
X95094Y51111D01*
X95065Y51082D01*
X95035Y51044D01*
X95006Y51002D01*
X94973Y50952D01*
X94939Y50893D01*
X94910Y50834D01*
X94876Y50767D01*
X94851Y50692D01*
X94830Y50612D01*
X94813Y50528D01*
X94801Y50436D01*
X94797Y50340D01*
Y50315D01*
X94801Y50285D01*
X94805Y50244D01*
X94813Y50193D01*
X94822Y50134D01*
X94839Y50072D01*
X94855Y50000D01*
X94885Y49925D01*
X94914Y49845D01*
X94956Y49762D01*
X95002Y49678D01*
X95056Y49594D01*
X95123Y49510D01*
X95199Y49426D01*
X95283Y49347D01*
X95287Y49343D01*
X95304Y49330D01*
X95333Y49309D01*
X95371Y49284D01*
X95425Y49250D01*
X95484Y49217D01*
X95559Y49179D01*
X95643Y49141D01*
X95735Y49100D01*
X95844Y49062D01*
X95957Y49028D01*
X96087Y48999D01*
X96226Y48970D01*
X96376Y48949D01*
X96535Y48936D01*
X96707Y48932D01*
X96745D01*
X96791Y48936D01*
X96850D01*
X96921Y48945D01*
X97005Y48949D01*
X97097Y48961D01*
X97198Y48974D01*
X97307Y48995D01*
X97415Y49016D01*
X97529Y49045D01*
X97646Y49079D01*
X97755Y49121D01*
X97868Y49167D01*
X97973Y49217D01*
X98069Y49280D01*
X98073Y49284D01*
X98090Y49297D01*
X98115Y49317D01*
X98149Y49343D01*
X98191Y49380D01*
X98237Y49422D01*
X98283Y49472D01*
X98337Y49527D01*
X98392Y49594D01*
X98446Y49665D01*
X98501Y49741D01*
X98555Y49825D01*
X98601Y49917D01*
X98647Y50013D01*
X98672Y50083D01*
X98676Y50093D01*
D01*
X98677Y50097D01*
X98682Y50109D01*
D01*
X98685Y50118D01*
D01*
D01*
X98719Y50227D01*
X98672Y50234D01*
X97604Y50398D01*
Y50394D01*
X97600Y50386D01*
X97596Y50369D01*
X97591Y50344D01*
X97583Y50319D01*
X97571Y50285D01*
X97541Y50214D01*
X97503Y50134D01*
X97457Y50051D01*
X97395Y49975D01*
X97319Y49904D01*
X97315D01*
X97311Y49896D01*
X97298Y49887D01*
X97277Y49879D01*
X97256Y49866D01*
X97231Y49850D01*
X97198Y49837D01*
X97160Y49820D01*
X97118Y49804D01*
X97072Y49791D01*
X97022Y49774D01*
X96967Y49762D01*
X96908Y49753D01*
X96846Y49745D01*
X96779Y49736D01*
X96665D01*
X96636Y49741D01*
X96598D01*
X96561Y49745D01*
X96515Y49749D01*
X96464Y49757D01*
X96360Y49774D01*
X96251Y49804D01*
X96150Y49841D01*
X96100Y49866D01*
X96058Y49891D01*
X96049Y49896D01*
X96033Y49913D01*
X96012Y49938D01*
X95982Y49971D01*
X95957Y50013D01*
X95932Y50063D01*
X95915Y50122D01*
X95911Y50189D01*
Y50193D01*
Y50210D01*
X95915Y50235D01*
X95920Y50264D01*
X95932Y50294D01*
X95945Y50331D01*
X95966Y50365D01*
X95991Y50398D01*
X95995Y50403D01*
X96008Y50411D01*
X96033Y50428D01*
X96070Y50449D01*
X96117Y50470D01*
X96184Y50495D01*
X96221Y50507D01*
X96263Y50520D01*
X96314Y50533D01*
X96364Y50545D01*
X96368D01*
X96381Y50549D01*
X96397Y50554D01*
X96422Y50558D01*
X96452Y50566D01*
X96489Y50574D01*
X96531Y50583D01*
X96577Y50595D01*
X96632Y50608D01*
X96686Y50621D01*
X96808Y50654D01*
X96942Y50688D01*
X97080Y50725D01*
X97227Y50763D01*
X97369Y50809D01*
X97512Y50851D01*
X97650Y50897D01*
X97776Y50947D01*
X97893Y50994D01*
X97943Y51014D01*
X97989Y51040D01*
X98031Y51065D01*
X98069Y51086D01*
X98073Y51090D01*
X98090Y51102D01*
X98115Y51119D01*
X98145Y51148D01*
X98182Y51182D01*
X98224Y51224D01*
X98270Y51274D01*
X98316Y51333D01*
X98362Y51396D01*
X98409Y51467D01*
X98450Y51542D01*
X98488Y51630D01*
X98517Y51718D01*
X98542Y51819D01*
X98559Y51924D01*
X98563Y52033D01*
Y52041D01*
Y52058D01*
X98559Y52087D01*
X98555Y52125D01*
X98551Y52171D01*
X98542Y52225D01*
X98526Y52284D01*
X98509Y52351D01*
X98488Y52422D01*
X98459Y52498D01*
X98425Y52573D01*
X98383Y52649D01*
X98333Y52728D01*
X98279Y52803D01*
X98211Y52879D01*
X98136Y52950D01*
X98132Y52954D01*
X98115Y52967D01*
X98090Y52984D01*
X98052Y53009D01*
X98006Y53038D01*
X97952Y53067D01*
X97885Y53101D01*
X97805Y53139D01*
X97717Y53172D01*
X97621Y53206D01*
X97512Y53235D01*
X97390Y53264D01*
X97260Y53290D01*
X97118Y53306D01*
X96963Y53319D01*
X96799Y53323D01*
X98672D01*
D02*
G37*
G36*
X80769D02*
D01*
Y48932D01*
Y53323D01*
D01*
D02*
G37*
G36*
X77123Y54827D02*
X76013D01*
Y49028D01*
X77044D01*
Y49644D01*
X77048Y49640D01*
X77056Y49628D01*
X77069Y49611D01*
X77090Y49586D01*
X77115Y49556D01*
X77144Y49523D01*
X77178Y49485D01*
X77215Y49443D01*
X77308Y49355D01*
X77412Y49267D01*
X77530Y49183D01*
X77588Y49141D01*
X77655Y49108D01*
X77660D01*
X77672Y49100D01*
X77689Y49091D01*
X77714Y49079D01*
X77748Y49066D01*
X77785Y49053D01*
X77827Y49037D01*
X77873Y49020D01*
X77978Y48987D01*
X78100Y48961D01*
X78225Y48940D01*
X78359Y48932D01*
X76013D01*
D01*
X80115D01*
D01*
X78393D01*
X78430Y48936D01*
X78481Y48940D01*
X78544Y48949D01*
X78615Y48961D01*
X78699Y48982D01*
X78787Y49003D01*
X78879Y49037D01*
X78979Y49075D01*
X79084Y49121D01*
X79189Y49179D01*
X79294Y49246D01*
X79398Y49322D01*
X79499Y49414D01*
X79599Y49514D01*
X79604Y49523D01*
X79620Y49540D01*
X79646Y49577D01*
X79679Y49623D01*
X79717Y49682D01*
X79763Y49753D01*
X79809Y49837D01*
X79855Y49938D01*
X79905Y50046D01*
X79952Y50168D01*
X79993Y50302D01*
X80035Y50445D01*
X80069Y50604D01*
X80094Y50771D01*
X80111Y50952D01*
X80115Y51140D01*
Y51211D01*
X80111Y51241D01*
Y51278D01*
X80107Y51316D01*
X80098Y51404D01*
X80090Y51509D01*
X80073Y51622D01*
X80052Y51744D01*
X80027Y51873D01*
X79993Y52007D01*
X79952Y52141D01*
X79905Y52276D01*
X79847Y52410D01*
X79780Y52535D01*
X79704Y52657D01*
X79616Y52766D01*
X79612Y52774D01*
X79591Y52791D01*
X79566Y52816D01*
X79524Y52854D01*
X79478Y52896D01*
X79415Y52942D01*
X79348Y52992D01*
X79268Y53047D01*
X79181Y53097D01*
X79084Y53147D01*
X78979Y53193D01*
X78866Y53235D01*
X78745Y53273D01*
X78619Y53298D01*
X78485Y53319D01*
X78343Y53323D01*
X78313D01*
X78276Y53319D01*
X78225Y53315D01*
X78162Y53306D01*
X78091Y53294D01*
X78012Y53273D01*
X77928Y53252D01*
X77831Y53218D01*
X77735Y53181D01*
X77634Y53135D01*
X77530Y53076D01*
X77425Y53009D01*
X77324Y52929D01*
X77224Y52841D01*
X77123Y52737D01*
Y54827D01*
D02*
G37*
G36*
X64218Y48928D02*
X63971D01*
X64218D01*
D01*
D02*
G37*
G36*
X122229Y53323D02*
X120205D01*
X120176Y53319D01*
X120142Y53315D01*
X120104Y53311D01*
X120058Y53306D01*
X120008Y53298D01*
X119895Y53273D01*
X119769Y53235D01*
X119706Y53210D01*
X119639Y53181D01*
X119572Y53147D01*
X119505Y53109D01*
D01*
X119853Y52141D01*
X119857Y52146D01*
X119866Y52150D01*
X119882Y52158D01*
X119899Y52171D01*
X119924Y52183D01*
X119953Y52200D01*
X120025Y52234D01*
X120104Y52267D01*
X120192Y52297D01*
X120284Y52318D01*
X120331Y52326D01*
X120414D01*
X120460Y52318D01*
X120515Y52309D01*
X120578Y52292D01*
X120645Y52271D01*
X120712Y52238D01*
X120775Y52196D01*
X120783Y52192D01*
X120800Y52171D01*
X120829Y52137D01*
X120867Y52091D01*
X120905Y52024D01*
X120925Y51986D01*
X120947Y51945D01*
X120967Y51898D01*
X120988Y51848D01*
X121009Y51790D01*
X121026Y51731D01*
Y51727D01*
X121030Y51714D01*
X121035Y51693D01*
X121039Y51664D01*
X121047Y51622D01*
X121055Y51568D01*
X121064Y51505D01*
X121072Y51429D01*
X121081Y51341D01*
X121089Y51241D01*
X121097Y51123D01*
X121106Y50998D01*
X121110Y50851D01*
X121114Y50692D01*
X121118Y50516D01*
Y50424D01*
Y50323D01*
Y49028D01*
X119685D01*
Y48153D01*
X115068D01*
D01*
Y47428D01*
X119685D01*
Y49028D01*
X122229D01*
Y53231D01*
X121198D01*
Y52632D01*
X121194Y52636D01*
X121185Y52649D01*
X121173Y52674D01*
X121152Y52699D01*
X121131Y52732D01*
X121101Y52774D01*
X121039Y52862D01*
X120967Y52954D01*
X120888Y53047D01*
X120846Y53088D01*
X120804Y53126D01*
X120762Y53160D01*
X120724Y53189D01*
X120720D01*
X120716Y53193D01*
X120703Y53202D01*
X120687Y53210D01*
X120641Y53231D01*
X120582Y53256D01*
X120511Y53281D01*
X120431Y53302D01*
X120339Y53319D01*
X120243Y53323D01*
X122229D01*
D02*
G37*
G36*
X75573Y49028D02*
Y48153D01*
X70956Y48153D01*
Y48153D01*
Y47428D01*
X75573D01*
Y49028D01*
D02*
G37*
G36*
X51254Y49028D02*
Y48153D01*
X46637D01*
D01*
Y47428D01*
X51254D01*
Y49028D01*
D02*
G37*
G36*
X129398Y53323D02*
X127562D01*
Y47432D01*
Y51077D01*
X127567Y51048D01*
Y51014D01*
X127571Y50977D01*
X127579Y50889D01*
X127588Y50784D01*
X127604Y50671D01*
X127625Y50549D01*
X127655Y50419D01*
X127688Y50290D01*
X127730Y50151D01*
X127780Y50017D01*
X127839Y49883D01*
X127906Y49753D01*
X127986Y49628D01*
X128078Y49514D01*
X128082Y49506D01*
X128103Y49489D01*
X128128Y49460D01*
X128170Y49422D01*
X128220Y49380D01*
X128279Y49330D01*
X128350Y49276D01*
X128426Y49225D01*
X128514Y49171D01*
X128610Y49116D01*
X128710Y49066D01*
X128824Y49024D01*
X128937Y48987D01*
X129062Y48957D01*
X129192Y48940D01*
X129326Y48932D01*
X129360D01*
X129385Y48936D01*
X129419D01*
X129452Y48940D01*
X129494Y48945D01*
X129536Y48949D01*
X129637Y48965D01*
X129745Y48991D01*
X129854Y49024D01*
X129963Y49070D01*
X129967D01*
X129976Y49079D01*
X129993Y49087D01*
X130014Y49095D01*
X130039Y49112D01*
X130068Y49133D01*
X130102Y49154D01*
X130143Y49183D01*
X130231Y49246D01*
X130278Y49284D01*
X130332Y49330D01*
X130382Y49376D01*
X130441Y49426D01*
X130496Y49485D01*
X130554Y49544D01*
Y47432D01*
X131665D01*
Y53231D01*
D01*
X130630D01*
Y52611D01*
X130625Y52615D01*
X130621Y52623D01*
X130609Y52640D01*
X130592Y52665D01*
X130571Y52690D01*
X130546Y52724D01*
X130521Y52758D01*
X130487Y52795D01*
X130408Y52875D01*
X130315Y52963D01*
X130206Y53047D01*
X130085Y53126D01*
X130081Y53130D01*
X130068Y53135D01*
X130051Y53143D01*
X130026Y53155D01*
X129993Y53172D01*
X129955Y53189D01*
X129909Y53206D01*
X129859Y53227D01*
X129804Y53243D01*
X129745Y53260D01*
X129616Y53294D01*
X129473Y53315D01*
X129398Y53323D01*
D02*
G37*
G36*
X91587D02*
X89752D01*
Y47432D01*
Y51077D01*
X89756Y51048D01*
Y51014D01*
X89760Y50977D01*
X89769Y50889D01*
X89777Y50784D01*
X89794Y50671D01*
X89815Y50549D01*
X89844Y50419D01*
X89878Y50290D01*
X89920Y50151D01*
X89970Y50017D01*
X90029Y49883D01*
X90096Y49753D01*
X90175Y49628D01*
X90267Y49514D01*
X90272Y49506D01*
X90292Y49489D01*
X90318Y49460D01*
X90359Y49422D01*
X90410Y49380D01*
X90468Y49330D01*
X90540Y49276D01*
X90615Y49225D01*
X90703Y49171D01*
X90799Y49116D01*
X90900Y49066D01*
X91013Y49024D01*
X91126Y48987D01*
X91252Y48957D01*
X91382Y48940D01*
X91516Y48932D01*
X91549D01*
X91575Y48936D01*
X91608D01*
X91642Y48940D01*
X91684Y48945D01*
X91725Y48949D01*
X91826Y48965D01*
X91935Y48991D01*
X92044Y49024D01*
X92153Y49070D01*
X92157D01*
X92165Y49079D01*
X92182Y49087D01*
X92203Y49095D01*
X92228Y49112D01*
X92257Y49133D01*
X92291Y49154D01*
X92333Y49183D01*
X92421Y49246D01*
X92467Y49284D01*
X92522Y49330D01*
X92572Y49376D01*
X92630Y49426D01*
X92685Y49485D01*
X92744Y49544D01*
Y47432D01*
X93854D01*
Y53231D01*
X92819D01*
Y52611D01*
X92815Y52615D01*
X92811Y52623D01*
X92798Y52640D01*
X92781Y52665D01*
X92760Y52690D01*
X92735Y52724D01*
X92710Y52758D01*
X92677Y52795D01*
X92597Y52875D01*
X92505Y52963D01*
X92396Y53047D01*
X92274Y53126D01*
X92270Y53130D01*
X92257Y53135D01*
X92241Y53143D01*
X92216Y53155D01*
X92182Y53172D01*
X92144Y53189D01*
X92098Y53206D01*
X92048Y53227D01*
X91994Y53243D01*
X91935Y53260D01*
X91805Y53294D01*
X91663Y53315D01*
X91587Y53323D01*
D02*
G37*
G36*
X136793Y49028D02*
Y48153D01*
X132176D01*
Y47428D01*
X136793D01*
Y49028D01*
D02*
G37*
G36*
X77919Y46268D02*
X77014D01*
Y40448D01*
X79562D01*
X78125D01*
Y44634D01*
X78133Y44625D01*
X78154Y44609D01*
X78188Y44579D01*
X78234Y44542D01*
X78292Y44496D01*
X78364Y44441D01*
X78443Y44378D01*
X78535Y44315D01*
X78636Y44248D01*
X78745Y44177D01*
X78862Y44106D01*
X78988Y44039D01*
X79122Y43972D01*
X79264Y43905D01*
X79411Y43846D01*
X79562Y43792D01*
Y44806D01*
Y44802D01*
X79558D01*
X79541Y44810D01*
X79520Y44818D01*
X79486Y44831D01*
X79444Y44848D01*
X79398Y44864D01*
X79344Y44890D01*
X79281Y44919D01*
X79214Y44956D01*
X79143Y44994D01*
X79063Y45036D01*
X78984Y45086D01*
X78896Y45141D01*
X78808Y45199D01*
X78715Y45267D01*
X78619Y45338D01*
X78615Y45342D01*
X78598Y45355D01*
X78569Y45380D01*
X78535Y45409D01*
X78493Y45447D01*
X78447Y45493D01*
X78397Y45543D01*
X78338Y45602D01*
X78284Y45669D01*
X78225Y45740D01*
X78167Y45816D01*
X78108Y45899D01*
X78053Y45983D01*
X78003Y46075D01*
X77957Y46172D01*
X77919Y46268D01*
D02*
G37*
G36*
X82486D02*
X82449D01*
X82407Y46264D01*
X82348Y46260D01*
X82277Y46251D01*
X82193Y46235D01*
X82105Y46218D01*
X82005Y46193D01*
X81904Y46159D01*
X81795Y46121D01*
X81686Y46071D01*
X81577Y46012D01*
X81468Y45945D01*
X81363Y45866D01*
X81263Y45769D01*
X81171Y45665D01*
X81162Y45656D01*
X81158Y45648D01*
X81146Y45631D01*
X81133Y45610D01*
X81116Y45589D01*
X81100Y45560D01*
X81083Y45526D01*
X81062Y45493D01*
X81037Y45451D01*
X81016Y45405D01*
X80991Y45355D01*
X80966Y45296D01*
X80940Y45237D01*
X80911Y45174D01*
X80886Y45103D01*
X80861Y45028D01*
X80831Y44948D01*
X80806Y44864D01*
X80781Y44776D01*
X80756Y44680D01*
X80735Y44584D01*
X80710Y44479D01*
X80689Y44370D01*
X80672Y44253D01*
X80655Y44135D01*
X80639Y44010D01*
X80626Y43880D01*
X80613Y43746D01*
X80605Y43603D01*
X80601Y43457D01*
D01*
Y43197D01*
X80605Y43151D01*
Y43096D01*
X80609Y43038D01*
X80613Y42970D01*
X80618Y42903D01*
X80622Y42828D01*
X80630Y42748D01*
X80647Y42577D01*
X80672Y42392D01*
X80702Y42200D01*
X80739Y42003D01*
X80785Y41806D01*
X80840Y41613D01*
X80907Y41424D01*
X80982Y41248D01*
X81024Y41165D01*
X81070Y41085D01*
X81121Y41010D01*
X81171Y40938D01*
X81175Y40930D01*
X81192Y40913D01*
X81221Y40884D01*
X81259Y40846D01*
X81305Y40800D01*
X81363Y40750D01*
X81435Y40699D01*
X81514Y40645D01*
X81602Y40586D01*
X81699Y40536D01*
X81808Y40486D01*
X81925Y40440D01*
X82051Y40402D01*
X82189Y40373D01*
X82331Y40356D01*
X82486Y40347D01*
X82524D01*
X82566Y40352D01*
X82625Y40356D01*
X82700Y40369D01*
X82780Y40381D01*
X82876Y40402D01*
X82973Y40427D01*
X83081Y40465D01*
X83190Y40507D01*
X83303Y40557D01*
X83421Y40620D01*
X83534Y40695D01*
X83643Y40783D01*
X83752Y40884D01*
X83852Y40997D01*
X83857Y41005D01*
X83873Y41026D01*
X83886Y41047D01*
X83899Y41068D01*
X83915Y41093D01*
X83932Y41123D01*
X83953Y41160D01*
X83970Y41198D01*
X83995Y41244D01*
X84016Y41290D01*
X84037Y41345D01*
X84062Y41399D01*
X84087Y41462D01*
X84108Y41529D01*
X84133Y41600D01*
X84158Y41680D01*
X84183Y41760D01*
X84204Y41848D01*
X84225Y41940D01*
X84246Y42036D01*
X84267Y42141D01*
X84288Y42250D01*
X84305Y42363D01*
X84322Y42480D01*
X84334Y42606D01*
X84347Y42736D01*
X84355Y42870D01*
X84364Y43012D01*
X84368Y43159D01*
Y43385D01*
X84364Y43423D01*
Y43469D01*
Y43523D01*
X84359Y43582D01*
X84355Y43645D01*
X84351Y43716D01*
X84343Y43792D01*
X84338Y43871D01*
X84322Y44039D01*
X84297Y44223D01*
X84267Y44416D01*
X84229Y44609D01*
X84183Y44806D01*
X84129Y45003D01*
X84066Y45187D01*
X83991Y45363D01*
X83945Y45447D01*
X83903Y45526D01*
X83852Y45602D01*
X83802Y45673D01*
X83798Y45681D01*
X83781Y45698D01*
X83752Y45728D01*
X83714Y45765D01*
X83668Y45811D01*
X83609Y45862D01*
X83538Y45916D01*
X83459Y45970D01*
X83371Y46025D01*
X83274Y46079D01*
X83165Y46130D01*
X83048Y46176D01*
X82922Y46213D01*
X82784Y46243D01*
X82642Y46260D01*
X82486Y46268D01*
D02*
G37*
G36*
X89165Y44651D02*
X87031D01*
X88001D01*
X87209Y42505D01*
X86978Y41789D01*
Y41793D01*
X86974Y41801D01*
X86970Y41814D01*
X86961Y41835D01*
X86949Y41881D01*
X86928Y41936D01*
X86911Y41998D01*
X86890Y42057D01*
X86878Y42107D01*
X86869Y42132D01*
X86865Y42149D01*
X86861Y42158D01*
X86857Y42179D01*
X86844Y42216D01*
X86827Y42258D01*
X86810Y42313D01*
X86790Y42375D01*
X86769Y42438D01*
X86743Y42505D01*
X85947Y44651D01*
X84803D01*
X86471Y40448D01*
X87473D01*
X89165Y44651D01*
D02*
G37*
G36*
X93460Y44743D02*
X89534D01*
Y40352D01*
Y44743D01*
X91491D01*
X91470Y44739D01*
X91445D01*
X91378Y44734D01*
X91298Y44726D01*
X91210Y44709D01*
X91105Y44693D01*
X90996Y44667D01*
X90883Y44634D01*
X90762Y44592D01*
X90640Y44542D01*
X90514Y44483D01*
X90393Y44412D01*
X90276Y44328D01*
X90162Y44232D01*
X90058Y44123D01*
X90054Y44114D01*
X90033Y44093D01*
X90008Y44056D01*
X89974Y44005D01*
X89932Y43938D01*
X89886Y43859D01*
X89840Y43762D01*
X89790Y43653D01*
X89739Y43528D01*
X89689Y43385D01*
X89647Y43230D01*
X89605Y43058D01*
X89576Y42874D01*
X89551Y42673D01*
X89538Y42455D01*
X89534Y42225D01*
X92320D01*
Y42220D01*
Y42204D01*
X92316Y42179D01*
Y42145D01*
X92312Y42103D01*
X92304Y42053D01*
X92295Y42003D01*
X92283Y41944D01*
X92253Y41818D01*
X92232Y41755D01*
X92207Y41693D01*
X92174Y41630D01*
X92140Y41567D01*
X92102Y41508D01*
X92056Y41454D01*
X92052Y41449D01*
X92044Y41441D01*
X92031Y41429D01*
X92010Y41412D01*
X91985Y41391D01*
X91952Y41366D01*
X91918Y41345D01*
X91876Y41320D01*
X91834Y41290D01*
X91784Y41269D01*
X91675Y41223D01*
X91612Y41206D01*
X91549Y41194D01*
X91482Y41186D01*
X91411Y41181D01*
X91386D01*
X91365Y41186D01*
X91319Y41190D01*
X91256Y41198D01*
X91189Y41215D01*
X91114Y41240D01*
X91042Y41273D01*
X90971Y41320D01*
X90967D01*
X90963Y41328D01*
X90942Y41349D01*
X90908Y41383D01*
X90871Y41433D01*
X90825Y41496D01*
X90778Y41575D01*
X90737Y41667D01*
X90699Y41780D01*
X89593Y41596D01*
X89597Y41588D01*
X89601Y41571D01*
X89614Y41537D01*
X89635Y41496D01*
X89656Y41445D01*
X89685Y41387D01*
X89718Y41320D01*
X89760Y41253D01*
X89802Y41177D01*
X89852Y41102D01*
X89911Y41022D01*
X89970Y40947D01*
X90037Y40871D01*
X90108Y40796D01*
X90188Y40729D01*
X90272Y40666D01*
X90276Y40662D01*
X90292Y40653D01*
X90318Y40637D01*
X90355Y40616D01*
X90401Y40595D01*
X90452Y40565D01*
X90519Y40540D01*
X90590Y40511D01*
X90670Y40482D01*
X90753Y40452D01*
X90850Y40423D01*
X90950Y40402D01*
X91059Y40381D01*
X91176Y40364D01*
X91298Y40356D01*
X91424Y40352D01*
X89534D01*
X91470D01*
X91499Y40356D01*
X91528D01*
X91562Y40360D01*
X91604Y40364D01*
X91696Y40373D01*
X91797Y40389D01*
X91914Y40410D01*
X92040Y40440D01*
X92170Y40477D01*
X92304Y40528D01*
X92438Y40582D01*
X92572Y40653D01*
X92702Y40733D01*
X92823Y40829D01*
X92940Y40938D01*
X93045Y41064D01*
X93050Y41072D01*
X93062Y41089D01*
X93083Y41123D01*
X93108Y41169D01*
X93142Y41223D01*
X93175Y41290D01*
X93213Y41370D01*
X93251Y41462D01*
X93292Y41563D01*
X93330Y41672D01*
X93364Y41789D01*
X93393Y41919D01*
X93422Y42053D01*
X93443Y42200D01*
X93456Y42355D01*
X93460Y42514D01*
Y42560D01*
X93456Y42585D01*
Y42614D01*
Y42648D01*
X93452Y42685D01*
X93443Y42774D01*
X93431Y42874D01*
X93414Y42987D01*
X93393Y43109D01*
X93364Y43239D01*
X93326Y43373D01*
X93284Y43507D01*
X93230Y43645D01*
X93167Y43779D01*
X93095Y43909D01*
X93012Y44030D01*
X92915Y44148D01*
X92907Y44156D01*
X92890Y44173D01*
X92861Y44202D01*
X92819Y44240D01*
X92765Y44286D01*
X92698Y44336D01*
X92622Y44391D01*
X92538Y44445D01*
X92442Y44500D01*
X92337Y44554D01*
X92224Y44605D01*
X92102Y44651D01*
X91973Y44688D01*
X91834Y44718D01*
X91688Y44734D01*
X91533Y44743D01*
X93460D01*
D01*
D02*
G37*
G36*
X98970Y46247D02*
X96422D01*
X96360Y46243D01*
X96280D01*
X96192Y46239D01*
X96096Y46235D01*
X95991Y46226D01*
X95882Y46218D01*
X95773Y46209D01*
X95547Y46180D01*
X95442Y46163D01*
X95341Y46142D01*
X95245Y46117D01*
X95161Y46088D01*
X95157D01*
X95144Y46079D01*
X95119Y46071D01*
X95090Y46058D01*
X95056Y46042D01*
X95015Y46017D01*
X94968Y45991D01*
X94918Y45962D01*
X94864Y45924D01*
X94809Y45882D01*
X94755Y45836D01*
X94696Y45786D01*
X94642Y45732D01*
X94587Y45669D01*
X94537Y45602D01*
X94487Y45531D01*
X94482Y45526D01*
X94474Y45514D01*
X94462Y45489D01*
X94445Y45459D01*
X94428Y45422D01*
X94407Y45380D01*
X94382Y45325D01*
X94357Y45267D01*
X94336Y45204D01*
X94311Y45132D01*
X94290Y45057D01*
X94269Y44978D01*
X94256Y44894D01*
X94244Y44806D01*
X94235Y44718D01*
X94231Y44621D01*
Y44613D01*
Y44592D01*
X94235Y44559D01*
Y44512D01*
X94244Y44458D01*
X94252Y44391D01*
X94265Y44320D01*
X94277Y44240D01*
X94298Y44156D01*
X94323Y44068D01*
X94357Y43980D01*
X94394Y43888D01*
X94436Y43800D01*
X94491Y43708D01*
X94550Y43624D01*
X94617Y43540D01*
X94621Y43536D01*
X94633Y43523D01*
X94658Y43503D01*
X94688Y43473D01*
X94730Y43440D01*
X94776Y43402D01*
X94834Y43360D01*
X94901Y43314D01*
X94981Y43268D01*
X95065Y43226D01*
X95157Y43180D01*
X95262Y43138D01*
X95375Y43096D01*
X95496Y43063D01*
X95626Y43033D01*
X95765Y43008D01*
X95760Y43004D01*
X95748Y43000D01*
X95727Y42987D01*
X95702Y42970D01*
X95668Y42950D01*
X95631Y42924D01*
X95589Y42895D01*
X95543Y42866D01*
X95442Y42790D01*
X95337Y42707D01*
X95232Y42614D01*
X95136Y42518D01*
X95132Y42514D01*
X95123Y42505D01*
X95111Y42489D01*
X95090Y42468D01*
X95065Y42438D01*
X95035Y42401D01*
X95002Y42355D01*
X94960Y42300D01*
X94914Y42241D01*
X94864Y42174D01*
X94809Y42095D01*
X94751Y42011D01*
X94688Y41915D01*
X94621Y41814D01*
X94545Y41701D01*
X94470Y41579D01*
X93762Y40448D01*
X95165D01*
X96008Y41709D01*
X96012Y41718D01*
X96029Y41739D01*
X96049Y41772D01*
X96079Y41818D01*
X96117Y41873D01*
X96158Y41931D01*
X96205Y41998D01*
X96255Y42070D01*
X96360Y42212D01*
X96410Y42283D01*
X96460Y42355D01*
X96506Y42417D01*
X96552Y42472D01*
X96594Y42522D01*
X96628Y42560D01*
X96636Y42568D01*
X96657Y42589D01*
X96691Y42619D01*
X96732Y42656D01*
X96787Y42698D01*
X96846Y42736D01*
X96908Y42774D01*
X96980Y42803D01*
X96988Y42807D01*
X97001Y42811D01*
X97013Y42815D01*
X97034Y42820D01*
X97059Y42824D01*
X97089Y42832D01*
X97122Y42836D01*
X97160Y42845D01*
X97202Y42849D01*
X97252Y42853D01*
X97307Y42862D01*
X97361Y42866D01*
X97424D01*
X97495Y42870D01*
X97801D01*
Y40448D01*
X95898D01*
X98970D01*
Y46247D01*
D02*
G37*
G36*
X81491Y37587D02*
Y37495D01*
X80461D01*
Y36896D01*
X80456Y36900D01*
X80448Y36913D01*
X80436Y36938D01*
X80414Y36963D01*
X80394Y36996D01*
X80364Y37038D01*
X80301Y37126D01*
X80230Y37218D01*
X80151Y37311D01*
X80109Y37352D01*
X80067Y37390D01*
X80025Y37424D01*
X79987Y37453D01*
X79983D01*
X79979Y37457D01*
X79966Y37466D01*
X79949Y37474D01*
X79903Y37495D01*
X79845Y37520D01*
X79773Y37545D01*
X79694Y37566D01*
X79602Y37583D01*
X79505Y37587D01*
X81491D01*
X79468D01*
X79438Y37583D01*
X79405Y37579D01*
X79367Y37575D01*
X79321Y37570D01*
X79271Y37562D01*
X79158Y37537D01*
X79032Y37499D01*
X78969Y37474D01*
X78902Y37445D01*
X78835Y37411D01*
X78768Y37374D01*
D01*
X79116Y36406D01*
X79120Y36410D01*
X79128Y36414D01*
X79145Y36422D01*
X79162Y36435D01*
X79187Y36448D01*
X79216Y36464D01*
X79287Y36498D01*
X79367Y36531D01*
X79455Y36561D01*
X79547Y36582D01*
X79593Y36590D01*
X79677D01*
X79723Y36582D01*
X79778Y36573D01*
X79840Y36556D01*
X79908Y36536D01*
X79975Y36502D01*
X80037Y36460D01*
X80046Y36456D01*
X80063Y36435D01*
X80092Y36401D01*
X80130Y36355D01*
X80167Y36288D01*
X80188Y36250D01*
X80209Y36209D01*
X80230Y36162D01*
X80251Y36112D01*
X80272Y36054D01*
X80289Y35995D01*
Y35991D01*
X80293Y35978D01*
X80297Y35957D01*
X80301Y35928D01*
X80310Y35886D01*
X80318Y35831D01*
X80326Y35769D01*
X80335Y35693D01*
X80343Y35605D01*
X80352Y35505D01*
X80360Y35387D01*
X80368Y35262D01*
X80373Y35115D01*
X80377Y34956D01*
X80381Y34780D01*
Y34688D01*
Y34587D01*
Y33292D01*
X78768D01*
X81491D01*
Y37587D01*
D02*
G37*
G36*
X84303D02*
X84232D01*
X84181Y37583D01*
X84118D01*
X84047Y37579D01*
X83968Y37575D01*
X83884Y37566D01*
X83796Y37558D01*
X83704Y37545D01*
X83519Y37512D01*
X83431Y37495D01*
X83343Y37470D01*
X83264Y37440D01*
X83192Y37411D01*
X83188D01*
X83176Y37403D01*
X83159Y37394D01*
X83134Y37378D01*
X83104Y37361D01*
X83071Y37340D01*
X82991Y37290D01*
X82908Y37223D01*
X82824Y37147D01*
X82744Y37059D01*
X82711Y37013D01*
X82681Y36963D01*
Y36959D01*
X82673Y36950D01*
X82669Y36933D01*
X82656Y36908D01*
X82648Y36879D01*
X82635Y36837D01*
X82618Y36791D01*
X82606Y36737D01*
X82593Y36674D01*
X82577Y36598D01*
X82564Y36519D01*
X82556Y36426D01*
X82543Y36326D01*
X82539Y36217D01*
X82530Y36095D01*
Y35966D01*
X82547Y34671D01*
Y34667D01*
Y34646D01*
Y34616D01*
Y34579D01*
Y34533D01*
X82543Y34482D01*
Y34424D01*
X82539Y34361D01*
X82535Y34227D01*
X82526Y34093D01*
X82522Y34026D01*
X82514Y33963D01*
X82505Y33908D01*
X82497Y33854D01*
Y33850D01*
X82493Y33841D01*
Y33829D01*
X82484Y33808D01*
X82480Y33783D01*
X82472Y33753D01*
X82451Y33686D01*
X82426Y33602D01*
X82388Y33506D01*
X82346Y33401D01*
X82296Y33292D01*
X83394D01*
Y33297D01*
X83402Y33313D01*
X83410Y33338D01*
X83423Y33376D01*
X83440Y33422D01*
X83461Y33477D01*
X83482Y33544D01*
X83503Y33619D01*
Y33623D01*
X83507Y33636D01*
X83511Y33653D01*
X83519Y33674D01*
X83532Y33716D01*
X83536Y33732D01*
X83540Y33749D01*
X83544Y33745D01*
X83553Y33737D01*
X83570Y33724D01*
X83591Y33703D01*
X83616Y33682D01*
X83649Y33653D01*
X83683Y33623D01*
X83725Y33594D01*
X83813Y33527D01*
X83917Y33456D01*
X84030Y33393D01*
X84152Y33334D01*
X84156D01*
X84165Y33330D01*
X84185Y33322D01*
X84206Y33313D01*
X84240Y33301D01*
X84273Y33292D01*
X84315Y33280D01*
X84357Y33267D01*
X84408Y33250D01*
X84462Y33238D01*
X84579Y33217D01*
X84709Y33200D01*
X84843Y33196D01*
X82296D01*
D01*
X86239D01*
Y34470D01*
X86234Y34495D01*
Y34528D01*
X86230Y34562D01*
X86226Y34604D01*
X86218Y34650D01*
X86197Y34746D01*
X86167Y34855D01*
X86125Y34964D01*
X86071Y35069D01*
X86067Y35073D01*
X86063Y35081D01*
X86054Y35094D01*
X86037Y35115D01*
X86000Y35165D01*
X85945Y35228D01*
X85878Y35295D01*
X85799Y35366D01*
X85702Y35438D01*
X85593Y35496D01*
X85589D01*
X85581Y35505D01*
X85560Y35513D01*
X85535Y35522D01*
X85505Y35534D01*
X85468Y35551D01*
X85422Y35568D01*
X85367Y35584D01*
X85308Y35605D01*
X85241Y35626D01*
X85170Y35647D01*
X85091Y35668D01*
X85007Y35693D01*
X84915Y35714D01*
X84814Y35735D01*
X84709Y35756D01*
X84701D01*
X84676Y35765D01*
X84634Y35769D01*
X84584Y35781D01*
X84521Y35794D01*
X84445Y35811D01*
X84366Y35827D01*
X84282Y35844D01*
X84102Y35890D01*
X83926Y35936D01*
X83842Y35957D01*
X83762Y35982D01*
X83691Y36007D01*
X83628Y36033D01*
Y36142D01*
Y36146D01*
Y36154D01*
Y36171D01*
X83632Y36192D01*
Y36221D01*
X83637Y36250D01*
X83649Y36318D01*
X83666Y36393D01*
X83695Y36468D01*
X83733Y36540D01*
X83758Y36569D01*
X83788Y36598D01*
X83796Y36603D01*
X83804Y36611D01*
X83821Y36619D01*
X83838Y36632D01*
X83863Y36640D01*
X83888Y36653D01*
X83921Y36669D01*
X83959Y36682D01*
X84005Y36695D01*
X84051Y36703D01*
X84106Y36716D01*
X84169Y36724D01*
X84236Y36732D01*
X84307Y36737D01*
X84437D01*
X84462Y36732D01*
X84491D01*
X84554Y36724D01*
X84630Y36707D01*
X84709Y36686D01*
X84785Y36657D01*
X84852Y36619D01*
X84860Y36615D01*
X84877Y36598D01*
X84910Y36565D01*
X84944Y36523D01*
X84986Y36468D01*
X85032Y36397D01*
X85074Y36309D01*
X85116Y36209D01*
X86125Y36389D01*
X86121Y36397D01*
X86117Y36414D01*
X86109Y36448D01*
X86092Y36489D01*
X86075Y36540D01*
X86050Y36598D01*
X86021Y36661D01*
X85991Y36728D01*
X85954Y36804D01*
X85908Y36875D01*
X85861Y36950D01*
X85807Y37026D01*
X85753Y37097D01*
X85685Y37168D01*
X85619Y37231D01*
X85543Y37290D01*
X85539Y37294D01*
X85522Y37302D01*
X85497Y37319D01*
X85464Y37336D01*
X85422Y37357D01*
X85367Y37382D01*
X85304Y37411D01*
X85229Y37440D01*
X85149Y37466D01*
X85057Y37495D01*
X84952Y37520D01*
X84843Y37541D01*
X84722Y37558D01*
X84592Y37575D01*
X84454Y37583D01*
X84303Y37587D01*
D02*
G37*
G36*
X78332Y39091D02*
X74448D01*
X77222D01*
Y36012D01*
X75923Y37495D01*
X74553D01*
X75990Y35957D01*
X74448Y33292D01*
X75646D01*
X76706Y35182D01*
X77222Y34637D01*
Y33292D01*
X78332D01*
Y39091D01*
D02*
G37*
G36*
X95846Y34403D02*
X94736D01*
Y33292D01*
X95846D01*
Y34403D01*
D02*
G37*
G36*
X91338Y39091D02*
X89293D01*
X89205Y39087D01*
X89109D01*
X89004Y39083D01*
X88891Y39079D01*
X88656Y39070D01*
X88539Y39062D01*
X88426Y39054D01*
X88321Y39045D01*
X88225Y39033D01*
X88141Y39020D01*
X88107Y39012D01*
X88074Y39003D01*
X88070D01*
X88053Y38995D01*
X88024Y38987D01*
X87990Y38978D01*
X87948Y38961D01*
X87898Y38941D01*
X87843Y38915D01*
X87780Y38882D01*
X87718Y38848D01*
X87651Y38806D01*
X87584Y38760D01*
X87512Y38710D01*
X87441Y38651D01*
X87370Y38584D01*
X87303Y38513D01*
X87240Y38434D01*
X87236Y38429D01*
X87223Y38413D01*
X87207Y38387D01*
X87186Y38354D01*
X87160Y38312D01*
X87131Y38258D01*
X87102Y38199D01*
X87068Y38128D01*
X87039Y38052D01*
X87010Y37968D01*
X86980Y37876D01*
X86955Y37776D01*
X86930Y37667D01*
X86913Y37554D01*
X86905Y37432D01*
X86901Y37306D01*
Y33292D01*
Y37256D01*
X86905Y37218D01*
Y37172D01*
X86909Y37118D01*
X86917Y37059D01*
X86926Y36992D01*
X86934Y36925D01*
X86947Y36850D01*
X86984Y36699D01*
X87031Y36548D01*
X87064Y36477D01*
X87098Y36406D01*
X87102Y36401D01*
X87106Y36389D01*
X87119Y36372D01*
X87131Y36347D01*
X87152Y36318D01*
X87173Y36280D01*
X87232Y36200D01*
X87303Y36108D01*
X87387Y36012D01*
X87483Y35919D01*
X87588Y35836D01*
X87592Y35831D01*
X87600Y35827D01*
X87617Y35815D01*
X87638Y35802D01*
X87667Y35785D01*
X87697Y35765D01*
X87734Y35743D01*
X87776Y35723D01*
X87868Y35677D01*
X87969Y35630D01*
X88078Y35588D01*
X88195Y35559D01*
X88200D01*
X88216Y35555D01*
X88237Y35551D01*
X88275Y35547D01*
X88317Y35542D01*
X88371Y35534D01*
X88430Y35526D01*
X88505Y35522D01*
X88585Y35513D01*
X88673Y35505D01*
X88774Y35496D01*
X88882Y35492D01*
X89000Y35488D01*
X89126Y35484D01*
X89264Y35480D01*
X90169D01*
Y33292D01*
X91338D01*
Y39091D01*
D02*
G37*
G36*
X99215Y39188D02*
X99140D01*
X99110Y39184D01*
X99077D01*
X99035Y39179D01*
X98943Y39175D01*
X98838Y39163D01*
X98725Y39146D01*
X98599Y39129D01*
X98469Y39104D01*
X98335Y39070D01*
X98197Y39033D01*
X98059Y38987D01*
X97929Y38928D01*
X97799Y38865D01*
X97681Y38790D01*
X97573Y38706D01*
X97564Y38702D01*
X97547Y38685D01*
X97522Y38656D01*
X97485Y38618D01*
X97443Y38572D01*
X97397Y38513D01*
X97346Y38446D01*
X97292Y38366D01*
X97237Y38283D01*
X97187Y38186D01*
X97137Y38082D01*
X97095Y37968D01*
X97053Y37847D01*
X97024Y37717D01*
X97003Y37579D01*
X96990Y37432D01*
X98159Y37382D01*
Y37386D01*
X98163Y37403D01*
X98168Y37424D01*
X98176Y37453D01*
X98184Y37491D01*
X98197Y37533D01*
X98209Y37579D01*
X98226Y37629D01*
X98272Y37734D01*
X98327Y37839D01*
X98398Y37939D01*
X98436Y37985D01*
X98482Y38023D01*
X98486Y38027D01*
X98494Y38031D01*
X98507Y38040D01*
X98528Y38052D01*
X98553Y38069D01*
X98586Y38086D01*
X98624Y38102D01*
X98666Y38124D01*
X98716Y38140D01*
X98771Y38157D01*
X98834Y38174D01*
X98901Y38190D01*
X98972Y38203D01*
X99047Y38212D01*
X99135Y38220D01*
X99274D01*
X99307Y38216D01*
X99349Y38212D01*
X99399Y38207D01*
X99454Y38203D01*
X99517Y38195D01*
X99642Y38170D01*
X99777Y38132D01*
X99844Y38107D01*
X99906Y38077D01*
X99965Y38044D01*
X100024Y38006D01*
X100032Y38002D01*
X100053Y37981D01*
X100082Y37952D01*
X100116Y37910D01*
X100149Y37859D01*
X100179Y37801D01*
X100200Y37730D01*
X100204Y37692D01*
X100208Y37650D01*
Y37646D01*
Y37642D01*
X100204Y37617D01*
X100200Y37579D01*
X100187Y37528D01*
X100166Y37474D01*
X100137Y37415D01*
X100095Y37357D01*
X100036Y37298D01*
X100032D01*
X100024Y37290D01*
X100011Y37281D01*
X99986Y37264D01*
X99957Y37248D01*
X99919Y37227D01*
X99873Y37206D01*
X99818Y37181D01*
X99751Y37151D01*
X99676Y37122D01*
X99588Y37089D01*
X99487Y37055D01*
X99374Y37017D01*
X99253Y36984D01*
X99110Y36946D01*
X98959Y36908D01*
X98955D01*
X98951Y36904D01*
X98939D01*
X98922Y36900D01*
X98880Y36887D01*
X98821Y36875D01*
X98750Y36854D01*
X98666Y36833D01*
X98578Y36808D01*
X98482Y36783D01*
X98381Y36749D01*
X98277Y36720D01*
X98067Y36649D01*
X97966Y36611D01*
X97870Y36569D01*
X97778Y36531D01*
X97698Y36489D01*
X97694Y36485D01*
X97681Y36481D01*
X97660Y36468D01*
X97631Y36452D01*
X97598Y36426D01*
X97556Y36401D01*
X97514Y36372D01*
X97464Y36334D01*
X97413Y36297D01*
X97363Y36250D01*
X97309Y36204D01*
X97254Y36150D01*
X97149Y36033D01*
X97103Y35966D01*
X97057Y35899D01*
X97053Y35894D01*
X97049Y35882D01*
X97036Y35861D01*
X97019Y35831D01*
X97003Y35794D01*
X96982Y35752D01*
X96961Y35702D01*
X96940Y35643D01*
X96919Y35580D01*
X96898Y35509D01*
X96877Y35434D01*
X96860Y35354D01*
X96843Y35266D01*
X96831Y35174D01*
X96827Y35077D01*
X96823Y34977D01*
Y34927D01*
X96827Y34893D01*
X96831Y34847D01*
X96839Y34797D01*
X96848Y34738D01*
X96856Y34675D01*
X96873Y34604D01*
X96890Y34528D01*
X96915Y34453D01*
X96940Y34373D01*
X96973Y34290D01*
X97011Y34206D01*
X97053Y34126D01*
X97103Y34042D01*
X97107Y34038D01*
X97116Y34026D01*
X97133Y34001D01*
X97154Y33971D01*
X97183Y33938D01*
X97216Y33896D01*
X97258Y33850D01*
X97304Y33799D01*
X97359Y33749D01*
X97417Y33695D01*
X97480Y33640D01*
X97552Y33590D01*
X97627Y33535D01*
X97707Y33485D01*
X97795Y33439D01*
X97887Y33397D01*
X97891Y33393D01*
X97908Y33389D01*
X97937Y33376D01*
X97979Y33364D01*
X98025Y33347D01*
X98084Y33330D01*
X98155Y33313D01*
X98230Y33292D01*
X98318Y33271D01*
X98415Y33255D01*
X98519Y33238D01*
X98628Y33221D01*
X98746Y33209D01*
X98871Y33196D01*
X99006Y33192D01*
X99143Y33188D01*
X99219D01*
X99249Y33192D01*
X99286D01*
X99324Y33196D01*
X99416Y33204D01*
X99525Y33213D01*
X99642Y33230D01*
X99768Y33250D01*
X99902Y33280D01*
X100040Y33313D01*
X100183Y33351D01*
X100321Y33401D01*
X100460Y33460D01*
X100593Y33527D01*
X100719Y33607D01*
X100837Y33695D01*
X100845Y33699D01*
X100862Y33720D01*
X100891Y33749D01*
X100929Y33791D01*
X100975Y33841D01*
X101029Y33908D01*
X101084Y33984D01*
X101142Y34072D01*
X101205Y34168D01*
X101264Y34281D01*
X101323Y34403D01*
X101377Y34533D01*
X101432Y34679D01*
X101473Y34834D01*
X101511Y35002D01*
X101536Y35178D01*
D01*
X100397Y35287D01*
Y35278D01*
X100392Y35262D01*
X100384Y35232D01*
X100376Y35195D01*
X100363Y35144D01*
X100346Y35090D01*
X100330Y35031D01*
X100309Y34968D01*
X100250Y34830D01*
X100216Y34759D01*
X100179Y34688D01*
X100137Y34621D01*
X100091Y34558D01*
X100036Y34499D01*
X99982Y34445D01*
X99978Y34440D01*
X99965Y34432D01*
X99948Y34420D01*
X99923Y34403D01*
X99894Y34382D01*
X99852Y34361D01*
X99810Y34336D01*
X99756Y34311D01*
X99701Y34285D01*
X99634Y34260D01*
X99567Y34239D01*
X99492Y34218D01*
X99408Y34202D01*
X99320Y34189D01*
X99228Y34181D01*
X99131Y34176D01*
X99077D01*
X99039Y34181D01*
X98993Y34185D01*
X98939Y34189D01*
X98876Y34197D01*
X98813Y34206D01*
X98674Y34235D01*
X98603Y34256D01*
X98532Y34277D01*
X98465Y34306D01*
X98398Y34336D01*
X98335Y34373D01*
X98281Y34415D01*
X98277Y34420D01*
X98268Y34428D01*
X98255Y34440D01*
X98235Y34457D01*
X98214Y34482D01*
X98189Y34508D01*
X98163Y34541D01*
X98134Y34574D01*
X98084Y34658D01*
X98038Y34751D01*
X98017Y34805D01*
X98004Y34855D01*
X97996Y34914D01*
X97992Y34973D01*
Y34977D01*
Y34981D01*
Y35006D01*
X97996Y35044D01*
X98008Y35094D01*
X98021Y35149D01*
X98042Y35207D01*
X98071Y35266D01*
X98113Y35320D01*
X98117Y35329D01*
X98138Y35346D01*
X98168Y35371D01*
X98209Y35408D01*
X98268Y35446D01*
X98343Y35492D01*
X98431Y35534D01*
X98482Y35555D01*
X98536Y35576D01*
X98540D01*
X98545Y35580D01*
X98561Y35584D01*
X98578Y35588D01*
X98607Y35597D01*
X98641Y35609D01*
X98683Y35622D01*
X98729Y35635D01*
X98788Y35651D01*
X98855Y35668D01*
X98930Y35689D01*
X99018Y35714D01*
X99115Y35739D01*
X99223Y35765D01*
X99345Y35794D01*
X99475Y35827D01*
X99479D01*
X99487Y35831D01*
X99500D01*
X99517Y35840D01*
X99538Y35844D01*
X99563Y35853D01*
X99626Y35869D01*
X99705Y35890D01*
X99793Y35919D01*
X99890Y35953D01*
X99990Y35987D01*
X100099Y36029D01*
X100208Y36070D01*
X100321Y36116D01*
X100426Y36167D01*
X100531Y36221D01*
X100627Y36280D01*
X100715Y36338D01*
X100795Y36401D01*
X100799Y36406D01*
X100816Y36422D01*
X100845Y36452D01*
X100879Y36485D01*
X100916Y36531D01*
X100962Y36590D01*
X101013Y36653D01*
X101059Y36728D01*
X101109Y36808D01*
X101159Y36896D01*
X101205Y36992D01*
X101243Y37093D01*
X101277Y37202D01*
X101306Y37319D01*
X101323Y37440D01*
X101327Y37566D01*
Y37570D01*
Y37587D01*
Y37608D01*
X101323Y37642D01*
X101318Y37679D01*
X101314Y37725D01*
X101306Y37780D01*
X101297Y37839D01*
X101281Y37897D01*
X101268Y37964D01*
X101247Y38031D01*
X101222Y38102D01*
X101193Y38178D01*
X101159Y38249D01*
X101121Y38325D01*
X101080Y38396D01*
X101075Y38400D01*
X101067Y38413D01*
X101054Y38434D01*
X101033Y38459D01*
X101008Y38492D01*
X100975Y38530D01*
X100937Y38568D01*
X100895Y38614D01*
X100845Y38660D01*
X100791Y38710D01*
X100732Y38756D01*
X100669Y38806D01*
X100598Y38853D01*
X100522Y38899D01*
X100443Y38945D01*
X100355Y38982D01*
X100350Y38987D01*
X100334Y38991D01*
X100304Y39003D01*
X100271Y39016D01*
X100225Y39028D01*
X100170Y39050D01*
X100108Y39066D01*
X100036Y39087D01*
X99957Y39104D01*
X99869Y39125D01*
X99777Y39142D01*
X99676Y39154D01*
X99567Y39171D01*
X99454Y39179D01*
X99336Y39184D01*
X99215Y39188D01*
D02*
G37*
G36*
X96823Y33188D02*
X17717D01*
X96823D01*
D01*
D02*
G37*
G36*
X86712Y31952D02*
X84659D01*
D01*
X86712D01*
D02*
G37*
G36*
X91577D02*
X91451D01*
X91409Y31948D01*
X91355Y31944D01*
X91283Y31936D01*
X91204Y31923D01*
X91116Y31910D01*
X91019Y31885D01*
X90915Y31860D01*
X90810Y31827D01*
X90701Y31781D01*
X90592Y31730D01*
X90483Y31672D01*
X90374Y31600D01*
X90274Y31521D01*
X90177Y31429D01*
X90173Y31424D01*
X90160Y31408D01*
X90140Y31387D01*
X90114Y31353D01*
X90081Y31311D01*
X90047Y31265D01*
X90010Y31211D01*
X89972Y31148D01*
X89934Y31081D01*
X89897Y31005D01*
X89863Y30926D01*
X89829Y30842D01*
X89804Y30754D01*
X89783Y30662D01*
X89771Y30566D01*
X89767Y30465D01*
Y30457D01*
Y30432D01*
X89771Y30394D01*
X89779Y30339D01*
X89792Y30272D01*
X89813Y30201D01*
X89838Y30117D01*
X89871Y30025D01*
X89917Y29933D01*
X89972Y29832D01*
X90039Y29732D01*
X90118Y29627D01*
X90215Y29526D01*
X90269Y29476D01*
X90328Y29430D01*
X90391Y29380D01*
X90458Y29334D01*
X90529Y29288D01*
X90605Y29246D01*
X90600D01*
X90584Y29241D01*
X90558Y29233D01*
X90521Y29225D01*
X90479Y29212D01*
X90433Y29191D01*
X90378Y29170D01*
X90320Y29145D01*
X90257Y29116D01*
X90190Y29082D01*
X90123Y29045D01*
X90060Y28999D01*
X89993Y28952D01*
X89930Y28894D01*
X89867Y28835D01*
X89808Y28768D01*
X89804Y28764D01*
X89796Y28751D01*
X89779Y28730D01*
X89762Y28701D01*
X89741Y28668D01*
X89716Y28621D01*
X89687Y28571D01*
X89658Y28517D01*
X89632Y28454D01*
X89603Y28387D01*
X89578Y28311D01*
X89557Y28232D01*
X89540Y28148D01*
X89524Y28060D01*
X89515Y27968D01*
X89511Y27871D01*
Y26032D01*
Y27838D01*
X89515Y27796D01*
X89519Y27742D01*
X89528Y27679D01*
X89540Y27599D01*
X89557Y27515D01*
X89582Y27423D01*
X89612Y27323D01*
X89649Y27218D01*
X89695Y27109D01*
X89746Y27000D01*
X89813Y26887D01*
X89888Y26778D01*
X89972Y26673D01*
X90073Y26568D01*
X90081Y26564D01*
X90098Y26547D01*
X90131Y26518D01*
X90173Y26485D01*
X90228Y26443D01*
X90290Y26401D01*
X90370Y26350D01*
X90454Y26300D01*
X90550Y26250D01*
X90655Y26204D01*
X90768Y26158D01*
X90894Y26116D01*
X91024Y26082D01*
X91162Y26057D01*
X91308Y26036D01*
X91459Y26032D01*
X89511D01*
X91493D01*
X91535Y26036D01*
X91589Y26040D01*
X91656Y26044D01*
X91736Y26057D01*
X91820Y26070D01*
X91916Y26091D01*
X92017Y26112D01*
X92121Y26141D01*
X92230Y26179D01*
X92339Y26225D01*
X92448Y26275D01*
X92557Y26334D01*
X92662Y26405D01*
X92762Y26485D01*
X92767Y26489D01*
X92783Y26505D01*
X92813Y26531D01*
X92846Y26568D01*
X92884Y26610D01*
X92930Y26665D01*
X92980Y26732D01*
X93031Y26803D01*
X93085Y26882D01*
X93135Y26970D01*
X93186Y27071D01*
X93236Y27176D01*
X93278Y27285D01*
X93311Y27406D01*
X93341Y27532D01*
X93362Y27666D01*
X92285Y27800D01*
Y27796D01*
X92281Y27783D01*
Y27762D01*
X92272Y27733D01*
X92268Y27695D01*
X92255Y27658D01*
X92247Y27612D01*
X92230Y27566D01*
X92197Y27465D01*
X92146Y27360D01*
X92088Y27255D01*
X92050Y27209D01*
X92012Y27167D01*
X92008Y27163D01*
X92000Y27159D01*
X91987Y27147D01*
X91970Y27134D01*
X91950Y27117D01*
X91924Y27100D01*
X91857Y27063D01*
X91778Y27021D01*
X91686Y26987D01*
X91581Y26962D01*
X91526Y26958D01*
X91468Y26954D01*
X91434D01*
X91409Y26958D01*
X91380Y26962D01*
X91346Y26966D01*
X91267Y26987D01*
X91174Y27017D01*
X91128Y27038D01*
X91078Y27063D01*
X91028Y27092D01*
X90982Y27130D01*
X90936Y27167D01*
X90890Y27213D01*
X90885Y27218D01*
X90881Y27226D01*
X90869Y27239D01*
X90852Y27260D01*
X90835Y27289D01*
X90814Y27318D01*
X90793Y27356D01*
X90768Y27398D01*
X90747Y27448D01*
X90726Y27498D01*
X90705Y27557D01*
X90688Y27620D01*
X90672Y27687D01*
X90659Y27758D01*
X90655Y27838D01*
X90651Y27918D01*
Y27922D01*
Y27934D01*
Y27959D01*
X90655Y27989D01*
X90659Y28022D01*
X90663Y28064D01*
X90667Y28110D01*
X90680Y28156D01*
X90705Y28265D01*
X90747Y28374D01*
X90772Y28429D01*
X90802Y28483D01*
X90835Y28538D01*
X90877Y28584D01*
X90881Y28588D01*
X90885Y28596D01*
X90898Y28605D01*
X90919Y28621D01*
X90940Y28642D01*
X90965Y28663D01*
X91032Y28709D01*
X91112Y28751D01*
X91204Y28793D01*
X91254Y28810D01*
X91308Y28818D01*
X91367Y28827D01*
X91426Y28831D01*
X91464D01*
X91484Y28827D01*
X91510D01*
X91568Y28822D01*
X91644Y28810D01*
X91732Y28797D01*
X91828Y28776D01*
X91933Y28747D01*
X91811Y29652D01*
X91736D01*
X91698Y29656D01*
X91656Y29660D01*
X91606Y29665D01*
X91556Y29673D01*
X91443Y29694D01*
X91329Y29728D01*
X91271Y29753D01*
X91216Y29778D01*
X91166Y29807D01*
X91120Y29845D01*
X91116Y29849D01*
X91112Y29853D01*
X91099Y29866D01*
X91082Y29883D01*
X91066Y29904D01*
X91044Y29929D01*
X91024Y29958D01*
X90998Y29991D01*
X90956Y30071D01*
X90919Y30167D01*
X90902Y30218D01*
X90890Y30276D01*
X90885Y30335D01*
X90881Y30398D01*
Y30402D01*
Y30411D01*
Y30427D01*
X90885Y30448D01*
Y30473D01*
X90890Y30498D01*
X90902Y30566D01*
X90923Y30641D01*
X90956Y30716D01*
X90998Y30792D01*
X91057Y30863D01*
X91066Y30871D01*
X91091Y30892D01*
X91128Y30918D01*
X91183Y30951D01*
X91250Y30985D01*
X91329Y31010D01*
X91417Y31031D01*
X91522Y31039D01*
X91552D01*
X91568Y31035D01*
X91593D01*
X91623Y31031D01*
X91690Y31014D01*
X91765Y30989D01*
X91849Y30955D01*
X91933Y30905D01*
X91975Y30871D01*
X92012Y30838D01*
X92017Y30834D01*
X92021Y30830D01*
X92029Y30817D01*
X92046Y30800D01*
X92058Y30779D01*
X92080Y30754D01*
X92096Y30725D01*
X92117Y30691D01*
X92138Y30654D01*
X92159Y30612D01*
X92180Y30566D01*
X92201Y30511D01*
X92218Y30457D01*
X92234Y30398D01*
X92247Y30331D01*
X92255Y30264D01*
X93278Y30436D01*
Y30440D01*
X93274Y30461D01*
X93265Y30486D01*
X93257Y30524D01*
X93248Y30570D01*
X93232Y30620D01*
X93219Y30679D01*
X93198Y30737D01*
X93152Y30871D01*
X93098Y31014D01*
X93035Y31152D01*
X92997Y31215D01*
X92959Y31278D01*
X92955Y31282D01*
X92951Y31290D01*
X92938Y31307D01*
X92918Y31328D01*
X92896Y31357D01*
X92871Y31387D01*
X92838Y31420D01*
X92800Y31458D01*
X92762Y31496D01*
X92716Y31538D01*
X92666Y31580D01*
X92612Y31617D01*
X92553Y31659D01*
X92494Y31701D01*
X92356Y31772D01*
X92352Y31776D01*
X92339Y31781D01*
X92318Y31789D01*
X92289Y31802D01*
X92251Y31814D01*
X92209Y31831D01*
X92159Y31848D01*
X92105Y31864D01*
X92042Y31881D01*
X91975Y31894D01*
X91904Y31910D01*
X91828Y31923D01*
X91665Y31944D01*
X91577Y31952D01*
D02*
G37*
G36*
X84659D02*
X84621D01*
X84575Y31948D01*
X84517Y31944D01*
X84445Y31940D01*
X84361Y31927D01*
X84269Y31915D01*
X84169Y31894D01*
X84064Y31869D01*
X83951Y31839D01*
X83838Y31802D01*
X83729Y31756D01*
X83616Y31701D01*
X83507Y31642D01*
X83406Y31571D01*
X83310Y31487D01*
X83306Y31483D01*
X83289Y31466D01*
X83264Y31441D01*
X83234Y31404D01*
X83197Y31357D01*
X83155Y31307D01*
X83109Y31240D01*
X83063Y31169D01*
X83017Y31089D01*
X82970Y31005D01*
X82929Y30909D01*
X82891Y30809D01*
X82862Y30700D01*
X82836Y30582D01*
X82820Y30461D01*
X82815Y30335D01*
Y30352D01*
Y30335D01*
Y30268D01*
X82820Y30235D01*
X82824Y30193D01*
X82828Y30147D01*
X82832Y30096D01*
X82849Y29983D01*
X82874Y29857D01*
X82912Y29723D01*
X82958Y29589D01*
Y29585D01*
X82966Y29572D01*
X82975Y29556D01*
X82983Y29526D01*
X83000Y29497D01*
X83021Y29459D01*
X83042Y29413D01*
X83067Y29367D01*
X83096Y29313D01*
X83130Y29254D01*
X83205Y29128D01*
X83297Y28994D01*
X83402Y28852D01*
X83406Y28848D01*
X83410Y28839D01*
X83423Y28827D01*
X83440Y28806D01*
X83465Y28776D01*
X83494Y28743D01*
X83528Y28705D01*
X83570Y28663D01*
X83616Y28613D01*
X83670Y28558D01*
X83729Y28496D01*
X83796Y28429D01*
X83867Y28357D01*
X83947Y28282D01*
X84035Y28198D01*
X84131Y28110D01*
X84135Y28106D01*
X84152Y28089D01*
X84181Y28064D01*
X84215Y28031D01*
X84257Y27993D01*
X84307Y27951D01*
X84357Y27901D01*
X84412Y27850D01*
X84525Y27742D01*
X84638Y27637D01*
X84688Y27586D01*
X84730Y27545D01*
X84772Y27503D01*
X84801Y27469D01*
X84806Y27461D01*
X84822Y27444D01*
X84852Y27411D01*
X84881Y27373D01*
X84919Y27327D01*
X84957Y27272D01*
X84994Y27218D01*
X85028Y27163D01*
X82815D01*
Y26133D01*
X86712D01*
Y26141D01*
D01*
X86708Y26158D01*
X86704Y26191D01*
X86695Y26233D01*
X86687Y26283D01*
X86674Y26346D01*
X86662Y26413D01*
X86641Y26489D01*
X86620Y26572D01*
X86591Y26660D01*
X86561Y26748D01*
X86528Y26845D01*
X86486Y26941D01*
X86440Y27042D01*
X86389Y27138D01*
X86335Y27239D01*
X86331Y27243D01*
X86318Y27264D01*
X86297Y27293D01*
X86272Y27335D01*
X86234Y27385D01*
X86184Y27448D01*
X86125Y27524D01*
X86058Y27607D01*
X85979Y27704D01*
X85891Y27808D01*
X85786Y27922D01*
X85673Y28047D01*
X85543Y28181D01*
X85405Y28320D01*
X85250Y28471D01*
X85082Y28630D01*
X85078Y28634D01*
X85074Y28638D01*
X85049Y28659D01*
X85011Y28697D01*
X84961Y28743D01*
X84902Y28802D01*
X84835Y28864D01*
X84764Y28936D01*
X84684Y29011D01*
X84529Y29170D01*
X84449Y29246D01*
X84378Y29325D01*
X84307Y29397D01*
X84248Y29464D01*
X84198Y29526D01*
X84160Y29577D01*
X84156Y29581D01*
X84152Y29594D01*
X84139Y29610D01*
X84123Y29635D01*
X84106Y29669D01*
X84089Y29702D01*
X84068Y29744D01*
X84043Y29790D01*
X84001Y29895D01*
X83968Y30008D01*
X83938Y30134D01*
X83934Y30197D01*
X83930Y30260D01*
Y30264D01*
Y30276D01*
Y30293D01*
X83934Y30323D01*
Y30352D01*
X83938Y30385D01*
X83955Y30469D01*
X83980Y30561D01*
X84014Y30658D01*
X84064Y30746D01*
X84097Y30792D01*
X84131Y30830D01*
X84135Y30834D01*
X84139Y30838D01*
X84152Y30846D01*
X84169Y30863D01*
X84190Y30876D01*
X84215Y30892D01*
X84244Y30913D01*
X84273Y30930D01*
X84353Y30968D01*
X84449Y31001D01*
X84558Y31022D01*
X84621Y31026D01*
X84684Y31031D01*
X84718D01*
X84743Y31026D01*
X84772D01*
X84806Y31018D01*
X84885Y31005D01*
X84973Y30980D01*
X85070Y30943D01*
X85111Y30918D01*
X85158Y30892D01*
X85199Y30859D01*
X85241Y30821D01*
X85246Y30817D01*
X85250Y30813D01*
X85262Y30800D01*
X85275Y30779D01*
X85292Y30758D01*
X85308Y30729D01*
X85325Y30695D01*
X85346Y30658D01*
X85367Y30612D01*
X85388Y30561D01*
X85409Y30503D01*
X85426Y30440D01*
X85443Y30369D01*
X85459Y30293D01*
X85468Y30214D01*
X85476Y30126D01*
X86582Y30235D01*
Y30239D01*
Y30247D01*
X86578Y30260D01*
Y30276D01*
X86574Y30297D01*
X86570Y30323D01*
X86557Y30385D01*
X86545Y30461D01*
X86523Y30545D01*
X86498Y30641D01*
X86469Y30742D01*
X86431Y30850D01*
X86389Y30959D01*
X86339Y31068D01*
X86281Y31177D01*
X86218Y31282D01*
X86142Y31378D01*
X86058Y31471D01*
X85966Y31550D01*
X85962Y31554D01*
X85941Y31567D01*
X85912Y31588D01*
X85874Y31613D01*
X85820Y31642D01*
X85761Y31676D01*
X85685Y31714D01*
X85606Y31751D01*
X85518Y31789D01*
X85417Y31827D01*
X85308Y31860D01*
X85195Y31890D01*
X85070Y31915D01*
X84940Y31936D01*
X84801Y31948D01*
X84659Y31952D01*
D02*
G37*
G36*
X82049Y31856D02*
X78408D01*
Y30817D01*
X80502D01*
X80683Y29828D01*
X80678Y29832D01*
X80666Y29836D01*
X80645Y29845D01*
X80620Y29857D01*
X80582Y29870D01*
X80544Y29887D01*
X80498Y29904D01*
X80448Y29924D01*
X80394Y29941D01*
X80331Y29958D01*
X80205Y29987D01*
X80063Y30008D01*
X79991Y30017D01*
X79887D01*
X79849Y30013D01*
X79799Y30008D01*
X79732Y30000D01*
X79660Y29987D01*
X79576Y29971D01*
X79488Y29950D01*
X79392Y29920D01*
X79292Y29887D01*
X79187Y29841D01*
X79082Y29790D01*
X78973Y29728D01*
X78868Y29656D01*
X78768Y29572D01*
X78667Y29476D01*
X78663Y29472D01*
X78646Y29451D01*
X78621Y29422D01*
X78588Y29380D01*
X78546Y29325D01*
X78504Y29258D01*
X78458Y29183D01*
X78408Y29099D01*
X78361Y29003D01*
X78315Y28898D01*
X78269Y28781D01*
X78232Y28659D01*
X78198Y28525D01*
X78173Y28383D01*
X78156Y28236D01*
X78152Y28077D01*
Y28043D01*
X78156Y28005D01*
X78160Y27955D01*
X78164Y27892D01*
X78173Y27821D01*
X78185Y27737D01*
X78202Y27649D01*
X78227Y27553D01*
X78253Y27448D01*
X78286Y27343D01*
X78328Y27235D01*
X78378Y27126D01*
X78433Y27017D01*
X78496Y26908D01*
X78571Y26799D01*
X78579Y26790D01*
X78596Y26765D01*
X78630Y26728D01*
X78676Y26677D01*
X78730Y26623D01*
X78801Y26556D01*
X78885Y26489D01*
X78977Y26417D01*
X79082Y26342D01*
X79199Y26275D01*
X79329Y26208D01*
X79468Y26153D01*
X79618Y26103D01*
X79782Y26065D01*
X79954Y26040D01*
X80046Y26036D01*
X80138Y26032D01*
X78152D01*
X80172D01*
X80213Y26036D01*
X80272Y26040D01*
X80339Y26044D01*
X80419Y26053D01*
X80507Y26070D01*
X80603Y26086D01*
X80704Y26107D01*
X80808Y26137D01*
X80917Y26170D01*
X81026Y26212D01*
X81135Y26262D01*
X81244Y26317D01*
X81349Y26384D01*
X81445Y26459D01*
X81449Y26463D01*
X81466Y26480D01*
X81491Y26505D01*
X81525Y26539D01*
X81567Y26581D01*
X81609Y26635D01*
X81659Y26694D01*
X81709Y26765D01*
X81764Y26845D01*
X81814Y26933D01*
X81864Y27025D01*
X81915Y27130D01*
X81956Y27239D01*
X81994Y27360D01*
X82028Y27482D01*
X82049Y27616D01*
X80942Y27733D01*
Y27729D01*
X80938Y27716D01*
Y27695D01*
X80930Y27670D01*
X80926Y27641D01*
X80917Y27603D01*
X80892Y27519D01*
X80854Y27423D01*
X80804Y27323D01*
X80746Y27226D01*
X80708Y27180D01*
X80666Y27138D01*
X80662Y27134D01*
X80653Y27130D01*
X80641Y27117D01*
X80624Y27105D01*
X80603Y27088D01*
X80574Y27071D01*
X80511Y27029D01*
X80431Y26987D01*
X80339Y26954D01*
X80234Y26929D01*
X80180Y26924D01*
X80125Y26920D01*
X80092D01*
X80067Y26924D01*
X80037Y26929D01*
X80004Y26937D01*
X79920Y26954D01*
X79828Y26987D01*
X79782Y27012D01*
X79732Y27038D01*
X79681Y27071D01*
X79631Y27109D01*
X79585Y27151D01*
X79539Y27201D01*
X79535Y27205D01*
X79526Y27213D01*
X79518Y27230D01*
X79501Y27255D01*
X79484Y27285D01*
X79463Y27323D01*
X79438Y27364D01*
X79417Y27415D01*
X79396Y27473D01*
X79371Y27536D01*
X79350Y27607D01*
X79334Y27683D01*
X79317Y27767D01*
X79304Y27859D01*
X79300Y27955D01*
X79296Y28060D01*
Y28064D01*
Y28085D01*
Y28110D01*
X79300Y28148D01*
X79304Y28194D01*
X79308Y28244D01*
X79317Y28299D01*
X79325Y28362D01*
X79354Y28492D01*
X79375Y28558D01*
X79396Y28626D01*
X79426Y28693D01*
X79459Y28751D01*
X79497Y28810D01*
X79539Y28864D01*
X79543Y28869D01*
X79551Y28877D01*
X79564Y28890D01*
X79581Y28906D01*
X79606Y28927D01*
X79635Y28948D01*
X79669Y28973D01*
X79706Y28999D01*
X79748Y29024D01*
X79794Y29049D01*
X79899Y29091D01*
X79962Y29107D01*
X80021Y29120D01*
X80088Y29128D01*
X80159Y29133D01*
X80180D01*
X80205Y29128D01*
X80238Y29124D01*
X80280Y29120D01*
X80331Y29112D01*
X80385Y29099D01*
X80444Y29078D01*
X80511Y29057D01*
X80578Y29028D01*
X80649Y28994D01*
X80725Y28952D01*
X80796Y28906D01*
X80871Y28848D01*
X80947Y28785D01*
X81018Y28709D01*
X81915Y28839D01*
X81345Y31856D01*
X82049D01*
D02*
G37*
G36*
X97832Y31952D02*
X94065D01*
X95913D01*
X95871Y31948D01*
X95813Y31944D01*
X95741Y31936D01*
X95658Y31919D01*
X95570Y31902D01*
X95469Y31877D01*
X95369Y31844D01*
X95260Y31806D01*
X95151Y31756D01*
X95042Y31697D01*
X94933Y31630D01*
X94828Y31550D01*
X94727Y31454D01*
X94635Y31349D01*
X94627Y31341D01*
X94623Y31332D01*
X94610Y31316D01*
X94598Y31295D01*
X94581Y31274D01*
X94564Y31244D01*
X94547Y31211D01*
X94526Y31177D01*
X94501Y31135D01*
X94480Y31089D01*
X94455Y31039D01*
X94430Y30980D01*
X94405Y30922D01*
X94376Y30859D01*
X94350Y30788D01*
X94325Y30712D01*
X94296Y30633D01*
X94271Y30549D01*
X94246Y30461D01*
X94221Y30364D01*
X94200Y30268D01*
X94174Y30163D01*
X94153Y30054D01*
X94137Y29937D01*
X94120Y29820D01*
X94103Y29694D01*
X94091Y29564D01*
X94078Y29430D01*
X94070Y29288D01*
X94065Y29141D01*
Y26032D01*
Y28881D01*
X94070Y28835D01*
Y28781D01*
X94074Y28722D01*
X94078Y28655D01*
X94082Y28588D01*
X94086Y28512D01*
X94095Y28433D01*
X94112Y28261D01*
X94137Y28077D01*
X94166Y27884D01*
X94204Y27687D01*
X94250Y27490D01*
X94304Y27297D01*
X94371Y27109D01*
X94447Y26933D01*
X94489Y26849D01*
X94535Y26769D01*
X94585Y26694D01*
X94635Y26623D01*
X94639Y26614D01*
X94656Y26598D01*
X94686Y26568D01*
X94723Y26531D01*
X94769Y26485D01*
X94828Y26434D01*
X94899Y26384D01*
X94979Y26329D01*
X95067Y26271D01*
X95163Y26221D01*
X95272Y26170D01*
X95390Y26124D01*
X95515Y26086D01*
X95653Y26057D01*
X95796Y26040D01*
X95951Y26032D01*
X97832D01*
X95989D01*
X96031Y26036D01*
X96089Y26040D01*
X96165Y26053D01*
X96244Y26065D01*
X96341Y26086D01*
X96437Y26112D01*
X96546Y26149D01*
X96655Y26191D01*
X96768Y26241D01*
X96885Y26304D01*
X96999Y26380D01*
X97107Y26468D01*
X97216Y26568D01*
X97317Y26681D01*
X97321Y26690D01*
X97338Y26711D01*
X97351Y26732D01*
X97363Y26753D01*
X97380Y26778D01*
X97397Y26807D01*
X97417Y26845D01*
X97434Y26882D01*
X97459Y26929D01*
X97480Y26975D01*
X97501Y27029D01*
X97527Y27084D01*
X97552Y27147D01*
X97573Y27213D01*
X97598Y27285D01*
X97623Y27364D01*
X97648Y27444D01*
X97669Y27532D01*
X97690Y27624D01*
X97711Y27720D01*
X97732Y27825D01*
X97753Y27934D01*
X97769Y28047D01*
X97786Y28165D01*
X97799Y28290D01*
X97811Y28420D01*
X97820Y28554D01*
X97828Y28697D01*
X97832Y28844D01*
Y29070D01*
X97828Y29107D01*
Y29153D01*
Y29208D01*
X97824Y29267D01*
X97820Y29329D01*
X97816Y29401D01*
X97807Y29476D01*
X97803Y29556D01*
X97786Y29723D01*
X97761Y29908D01*
X97732Y30101D01*
X97694Y30293D01*
X97648Y30490D01*
X97593Y30687D01*
X97531Y30871D01*
X97455Y31047D01*
X97409Y31131D01*
X97367Y31211D01*
X97317Y31286D01*
X97267Y31357D01*
X97263Y31366D01*
X97246Y31383D01*
X97216Y31412D01*
X97179Y31450D01*
X97133Y31496D01*
X97074Y31546D01*
X97003Y31600D01*
X96923Y31655D01*
X96835Y31709D01*
X96739Y31764D01*
X96630Y31814D01*
X96513Y31860D01*
X96387Y31898D01*
X96249Y31927D01*
X96106Y31944D01*
X95951Y31952D01*
X97832D01*
D02*
G37*
G36*
X87743Y32028D02*
X86905D01*
X88359Y26032D01*
X89180D01*
X87743Y32028D01*
D02*
G37*
%LPD*%
G36*
X106386Y52414D02*
X106424Y52410D01*
X106470Y52401D01*
X106516Y52389D01*
X106571Y52376D01*
X106625Y52359D01*
X106684Y52338D01*
X106747Y52309D01*
X106809Y52276D01*
X106868Y52238D01*
X106931Y52192D01*
X106990Y52141D01*
X107048Y52083D01*
X107052Y52079D01*
X107061Y52066D01*
X107073Y52049D01*
X107094Y52020D01*
X107115Y51986D01*
X107140Y51945D01*
X107166Y51894D01*
X107195Y51840D01*
X107220Y51777D01*
X107249Y51706D01*
X107274Y51626D01*
X107296Y51542D01*
X107316Y51446D01*
X107329Y51350D01*
X107337Y51241D01*
X107342Y51128D01*
Y51119D01*
Y51098D01*
Y51069D01*
X107337Y51023D01*
X107333Y50972D01*
X107325Y50910D01*
X107316Y50843D01*
X107304Y50771D01*
X107291Y50696D01*
X107270Y50616D01*
X107245Y50537D01*
X107216Y50457D01*
X107182Y50382D01*
X107145Y50306D01*
X107098Y50235D01*
X107048Y50168D01*
X107044Y50164D01*
X107036Y50156D01*
X107019Y50139D01*
X106994Y50118D01*
X106964Y50093D01*
X106931Y50063D01*
X106889Y50034D01*
X106843Y50005D01*
X106793Y49971D01*
X106738Y49942D01*
X106679Y49913D01*
X106613Y49887D01*
X106545Y49866D01*
X106470Y49850D01*
X106395Y49841D01*
X106315Y49837D01*
X106294D01*
X106273Y49841D01*
X106244D01*
X106206Y49845D01*
X106160Y49854D01*
X106114Y49866D01*
X106059Y49879D01*
X106005Y49896D01*
X105946Y49917D01*
X105883Y49946D01*
X105825Y49975D01*
X105762Y50013D01*
X105703Y50059D01*
X105640Y50109D01*
X105586Y50168D01*
X105582Y50172D01*
X105573Y50185D01*
X105557Y50202D01*
X105540Y50231D01*
X105519Y50264D01*
X105494Y50306D01*
X105464Y50357D01*
X105435Y50411D01*
X105410Y50478D01*
X105381Y50549D01*
X105356Y50629D01*
X105334Y50713D01*
X105318Y50809D01*
X105301Y50910D01*
X105293Y51019D01*
X105288Y51132D01*
Y51140D01*
Y51161D01*
Y51190D01*
X105293Y51232D01*
X105297Y51287D01*
X105305Y51345D01*
X105314Y51412D01*
X105326Y51484D01*
X105343Y51559D01*
X105360Y51635D01*
X105385Y51714D01*
X105414Y51794D01*
X105448Y51873D01*
X105490Y51949D01*
X105532Y52016D01*
X105586Y52083D01*
X105590Y52087D01*
X105598Y52095D01*
X105615Y52112D01*
X105640Y52137D01*
X105666Y52162D01*
X105703Y52188D01*
X105741Y52221D01*
X105787Y52250D01*
X105837Y52280D01*
X105892Y52313D01*
X105955Y52338D01*
X106017Y52368D01*
X106085Y52389D01*
X106160Y52406D01*
X106235Y52414D01*
X106315Y52418D01*
X106357D01*
X106386Y52414D01*
D02*
G37*
G36*
X112663Y49028D02*
X111226D01*
X111951Y51731D01*
X112663Y49028D01*
D02*
G37*
G36*
X125074Y52468D02*
X125107Y52464D01*
X125145Y52460D01*
X125183Y52452D01*
X125229Y52439D01*
X125321Y52406D01*
X125371Y52385D01*
X125421Y52359D01*
X125476Y52330D01*
X125522Y52292D01*
X125572Y52250D01*
X125618Y52204D01*
X125622Y52200D01*
X125627Y52192D01*
X125639Y52175D01*
X125656Y52154D01*
X125673Y52129D01*
X125694Y52095D01*
X125715Y52058D01*
X125736Y52016D01*
X125761Y51965D01*
X125782Y51911D01*
X125798Y51852D01*
X125819Y51790D01*
X125832Y51718D01*
X125845Y51647D01*
X125853Y51568D01*
Y51484D01*
X124185D01*
Y51488D01*
Y51505D01*
X124189Y51530D01*
Y51563D01*
X124194Y51605D01*
X124202Y51651D01*
X124211Y51702D01*
X124223Y51756D01*
X124252Y51873D01*
X124299Y51995D01*
X124324Y52058D01*
X124357Y52112D01*
X124395Y52167D01*
X124437Y52217D01*
X124441Y52221D01*
X124449Y52229D01*
X124462Y52242D01*
X124479Y52259D01*
X124504Y52276D01*
X124529Y52297D01*
X124562Y52322D01*
X124600Y52347D01*
X124684Y52393D01*
X124780Y52435D01*
X124835Y52447D01*
X124893Y52460D01*
X124952Y52468D01*
X125015Y52473D01*
X125048D01*
X125074Y52468D01*
D02*
G37*
G36*
X87263D02*
X87297Y52464D01*
X87334Y52460D01*
X87372Y52452D01*
X87418Y52439D01*
X87510Y52406D01*
X87561Y52385D01*
X87611Y52359D01*
X87665Y52330D01*
X87711Y52292D01*
X87762Y52250D01*
X87808Y52204D01*
X87812Y52200D01*
X87816Y52192D01*
X87829Y52175D01*
X87845Y52154D01*
X87862Y52129D01*
X87883Y52095D01*
X87904Y52058D01*
X87925Y52016D01*
X87950Y51965D01*
X87971Y51911D01*
X87988Y51852D01*
X88009Y51790D01*
X88021Y51718D01*
X88034Y51647D01*
X88042Y51568D01*
Y51484D01*
X86375D01*
Y51488D01*
Y51505D01*
X86379Y51530D01*
Y51563D01*
X86383Y51605D01*
X86392Y51651D01*
X86400Y51702D01*
X86413Y51756D01*
X86442Y51873D01*
X86488Y51995D01*
X86513Y52058D01*
X86547Y52112D01*
X86584Y52167D01*
X86626Y52217D01*
X86630Y52221D01*
X86639Y52229D01*
X86651Y52242D01*
X86668Y52259D01*
X86693Y52276D01*
X86718Y52297D01*
X86752Y52322D01*
X86790Y52347D01*
X86873Y52393D01*
X86970Y52435D01*
X87024Y52447D01*
X87083Y52460D01*
X87142Y52468D01*
X87204Y52473D01*
X87238D01*
X87263Y52468D01*
D02*
G37*
G36*
X82759D02*
X82792Y52464D01*
X82830Y52460D01*
X82868Y52452D01*
X82914Y52439D01*
X83006Y52406D01*
X83056Y52385D01*
X83107Y52359D01*
X83161Y52330D01*
X83207Y52292D01*
X83257Y52250D01*
X83303Y52204D01*
X83308Y52200D01*
X83312Y52192D01*
X83324Y52175D01*
X83341Y52154D01*
X83358Y52129D01*
X83379Y52095D01*
X83400Y52058D01*
X83421Y52016D01*
X83446Y51965D01*
X83467Y51911D01*
X83484Y51852D01*
X83505Y51790D01*
X83517Y51718D01*
X83530Y51647D01*
X83538Y51568D01*
Y51484D01*
X81871D01*
Y51488D01*
Y51505D01*
X81875Y51530D01*
Y51563D01*
X81879Y51605D01*
X81887Y51651D01*
X81896Y51702D01*
X81908Y51756D01*
X81938Y51873D01*
X81984Y51995D01*
X82009Y52058D01*
X82042Y52112D01*
X82080Y52167D01*
X82122Y52217D01*
X82126Y52221D01*
X82134Y52229D01*
X82147Y52242D01*
X82164Y52259D01*
X82189Y52276D01*
X82214Y52297D01*
X82248Y52322D01*
X82285Y52347D01*
X82369Y52393D01*
X82465Y52435D01*
X82520Y52447D01*
X82579Y52460D01*
X82637Y52468D01*
X82700Y52473D01*
X82734D01*
X82759Y52468D01*
D02*
G37*
G36*
X144050Y51299D02*
Y51295D01*
Y51291D01*
Y51278D01*
Y51262D01*
Y51215D01*
Y51157D01*
Y51090D01*
X144046Y51010D01*
Y50922D01*
X144042Y50834D01*
X144038Y50646D01*
X144029Y50554D01*
X144025Y50470D01*
X144017Y50390D01*
X144012Y50319D01*
X144000Y50260D01*
X143991Y50214D01*
Y50210D01*
X143987Y50206D01*
X143979Y50181D01*
X143962Y50143D01*
X143941Y50101D01*
X143908Y50046D01*
X143870Y49996D01*
X143824Y49942D01*
X143769Y49896D01*
X143761Y49891D01*
X143740Y49879D01*
X143702Y49858D01*
X143656Y49841D01*
X143598Y49820D01*
X143526Y49799D01*
X143443Y49787D01*
X143355Y49783D01*
X143325D01*
X143304Y49787D01*
X143283D01*
X143254Y49791D01*
X143183Y49804D01*
X143103Y49820D01*
X143019Y49850D01*
X142931Y49887D01*
X142843Y49938D01*
X142839D01*
X142835Y49946D01*
X142823Y49954D01*
X142806Y49967D01*
X142768Y50001D01*
X142718Y50042D01*
X142667Y50101D01*
X142617Y50164D01*
X142571Y50239D01*
X142533Y50323D01*
Y50327D01*
X142529Y50336D01*
X142525Y50352D01*
X142521Y50373D01*
X142512Y50403D01*
X142508Y50445D01*
X142500Y50491D01*
X142491Y50554D01*
X142483Y50621D01*
X142475Y50700D01*
X142471Y50792D01*
X142462Y50901D01*
X142458Y51019D01*
X142454Y51148D01*
X142449Y51295D01*
Y51459D01*
Y53231D01*
X144050D01*
Y51299D01*
D02*
G37*
G36*
X101509Y49028D02*
X100893D01*
Y52355D01*
X101509D01*
Y49028D01*
D02*
G37*
G36*
X55578Y50474D02*
X54853Y53231D01*
X56366D01*
X55578Y50474D01*
D02*
G37*
G36*
X53085D02*
X52281Y53231D01*
X53785D01*
X53085Y50474D01*
D02*
G37*
G36*
X38353Y50868D02*
X37318Y54827D01*
X39401D01*
X38353Y50868D01*
D02*
G37*
G36*
X78116Y52468D02*
X78150Y52464D01*
X78188Y52456D01*
X78234Y52447D01*
X78280Y52435D01*
X78330Y52418D01*
X78385Y52393D01*
X78439Y52368D01*
X78493Y52338D01*
X78552Y52301D01*
X78606Y52259D01*
X78661Y52209D01*
X78711Y52154D01*
X78715Y52150D01*
X78724Y52141D01*
X78736Y52121D01*
X78753Y52095D01*
X78774Y52062D01*
X78795Y52020D01*
X78820Y51974D01*
X78841Y51920D01*
X78866Y51857D01*
X78891Y51785D01*
X78912Y51710D01*
X78933Y51626D01*
X78950Y51534D01*
X78963Y51433D01*
X78971Y51329D01*
X78975Y51215D01*
Y51207D01*
Y51186D01*
Y51153D01*
X78971Y51107D01*
Y51052D01*
X78967Y50989D01*
X78958Y50918D01*
X78950Y50843D01*
X78929Y50683D01*
X78896Y50524D01*
X78875Y50445D01*
X78850Y50373D01*
X78824Y50306D01*
X78791Y50244D01*
X78787Y50239D01*
X78778Y50227D01*
X78762Y50206D01*
X78741Y50176D01*
X78715Y50143D01*
X78682Y50105D01*
X78640Y50068D01*
X78598Y50030D01*
X78548Y49988D01*
X78489Y49950D01*
X78426Y49913D01*
X78359Y49879D01*
X78288Y49854D01*
X78213Y49829D01*
X78129Y49816D01*
X78041Y49812D01*
X78024D01*
X78003Y49816D01*
X77978D01*
X77944Y49820D01*
X77907Y49829D01*
X77865Y49837D01*
X77815Y49854D01*
X77768Y49870D01*
X77714Y49891D01*
X77660Y49917D01*
X77605Y49950D01*
X77551Y49984D01*
X77496Y50030D01*
X77442Y50076D01*
X77391Y50134D01*
X77387Y50139D01*
X77379Y50151D01*
X77366Y50168D01*
X77350Y50197D01*
X77329Y50231D01*
X77303Y50273D01*
X77283Y50323D01*
X77253Y50378D01*
X77228Y50445D01*
X77207Y50516D01*
X77182Y50595D01*
X77161Y50683D01*
X77144Y50780D01*
X77132Y50884D01*
X77123Y50994D01*
X77119Y51111D01*
Y51115D01*
Y51119D01*
Y51144D01*
Y51178D01*
X77123Y51228D01*
X77127Y51287D01*
X77132Y51358D01*
X77140Y51433D01*
X77153Y51513D01*
X77182Y51685D01*
X77203Y51773D01*
X77232Y51857D01*
X77262Y51940D01*
X77295Y52020D01*
X77337Y52091D01*
X77383Y52154D01*
X77387Y52158D01*
X77396Y52167D01*
X77408Y52183D01*
X77429Y52204D01*
X77454Y52229D01*
X77488Y52255D01*
X77521Y52284D01*
X77563Y52313D01*
X77609Y52343D01*
X77660Y52372D01*
X77714Y52397D01*
X77773Y52422D01*
X77836Y52443D01*
X77903Y52460D01*
X77974Y52468D01*
X78049Y52473D01*
X78087D01*
X78116Y52468D01*
D02*
G37*
G36*
X129247Y53319D02*
X129197Y53315D01*
X129134Y53306D01*
X129058Y53294D01*
X128979Y53277D01*
X128886Y53252D01*
X128790Y53223D01*
X128694Y53185D01*
X128589Y53139D01*
X128484Y53080D01*
X128379Y53017D01*
X128275Y52938D01*
X128170Y52850D01*
X128074Y52749D01*
X128069Y52741D01*
X128053Y52724D01*
X128028Y52690D01*
X127994Y52644D01*
X127956Y52586D01*
X127910Y52514D01*
X127864Y52431D01*
X127818Y52334D01*
X127772Y52225D01*
X127726Y52108D01*
X127680Y51974D01*
X127642Y51832D01*
X127609Y51676D01*
X127583Y51513D01*
X127567Y51337D01*
X127562Y51148D01*
Y53323D01*
X129285D01*
X129247Y53319D01*
D02*
G37*
G36*
X129691Y52439D02*
X129725Y52435D01*
X129766Y52426D01*
X129813Y52418D01*
X129863Y52406D01*
X129913Y52389D01*
X129967Y52364D01*
X130026Y52338D01*
X130081Y52309D01*
X130139Y52271D01*
X130194Y52229D01*
X130248Y52179D01*
X130303Y52125D01*
X130307Y52121D01*
X130315Y52112D01*
X130328Y52091D01*
X130345Y52066D01*
X130366Y52033D01*
X130386Y51995D01*
X130412Y51945D01*
X130437Y51890D01*
X130462Y51827D01*
X130487Y51760D01*
X130508Y51685D01*
X130529Y51601D01*
X130546Y51509D01*
X130558Y51412D01*
X130567Y51308D01*
X130571Y51195D01*
Y51186D01*
Y51165D01*
Y51128D01*
X130567Y51077D01*
X130562Y51019D01*
X130554Y50952D01*
X130546Y50880D01*
X130537Y50797D01*
X130504Y50629D01*
X130479Y50541D01*
X130454Y50453D01*
X130420Y50369D01*
X130382Y50290D01*
X130341Y50214D01*
X130290Y50147D01*
X130286Y50143D01*
X130278Y50134D01*
X130261Y50118D01*
X130240Y50097D01*
X130211Y50068D01*
X130181Y50042D01*
X130143Y50009D01*
X130097Y49979D01*
X130051Y49950D01*
X129997Y49917D01*
X129942Y49891D01*
X129884Y49866D01*
X129817Y49841D01*
X129750Y49825D01*
X129678Y49816D01*
X129603Y49812D01*
X129586D01*
X129565Y49816D01*
X129536D01*
X129507Y49820D01*
X129465Y49829D01*
X129423Y49837D01*
X129377Y49850D01*
X129326Y49866D01*
X129272Y49887D01*
X129218Y49913D01*
X129163Y49942D01*
X129109Y49979D01*
X129054Y50021D01*
X129004Y50068D01*
X128954Y50122D01*
X128949Y50126D01*
X128941Y50139D01*
X128928Y50156D01*
X128912Y50181D01*
X128895Y50214D01*
X128870Y50256D01*
X128849Y50306D01*
X128824Y50365D01*
X128798Y50432D01*
X128778Y50507D01*
X128752Y50591D01*
X128736Y50683D01*
X128719Y50784D01*
X128706Y50893D01*
X128698Y51010D01*
X128694Y51140D01*
Y51148D01*
Y51170D01*
Y51203D01*
X128698Y51249D01*
X128702Y51303D01*
X128706Y51366D01*
X128715Y51438D01*
X128727Y51513D01*
X128761Y51672D01*
X128782Y51752D01*
X128807Y51832D01*
X128836Y51911D01*
X128874Y51986D01*
X128916Y52058D01*
X128962Y52121D01*
X128966Y52125D01*
X128974Y52133D01*
X128987Y52150D01*
X129008Y52171D01*
X129037Y52196D01*
X129067Y52221D01*
X129104Y52250D01*
X129146Y52284D01*
X129192Y52313D01*
X129243Y52343D01*
X129297Y52368D01*
X129356Y52393D01*
X129414Y52414D01*
X129481Y52431D01*
X129553Y52439D01*
X129624Y52443D01*
X129662D01*
X129691Y52439D01*
D02*
G37*
G36*
X91436Y53319D02*
X91386Y53315D01*
X91323Y53306D01*
X91248Y53294D01*
X91168Y53277D01*
X91076Y53252D01*
X90980Y53223D01*
X90883Y53185D01*
X90778Y53139D01*
X90674Y53080D01*
X90569Y53017D01*
X90464Y52938D01*
X90359Y52850D01*
X90263Y52749D01*
X90259Y52741D01*
X90242Y52724D01*
X90217Y52690D01*
X90184Y52644D01*
X90146Y52586D01*
X90100Y52514D01*
X90054Y52431D01*
X90008Y52334D01*
X89961Y52225D01*
X89915Y52108D01*
X89869Y51974D01*
X89832Y51832D01*
X89798Y51676D01*
X89773Y51513D01*
X89756Y51337D01*
X89752Y51148D01*
Y53323D01*
X91474D01*
X91436Y53319D01*
D02*
G37*
G36*
X91880Y52439D02*
X91914Y52435D01*
X91956Y52426D01*
X92002Y52418D01*
X92052Y52406D01*
X92102Y52389D01*
X92157Y52364D01*
X92216Y52338D01*
X92270Y52309D01*
X92329Y52271D01*
X92383Y52229D01*
X92438Y52179D01*
X92492Y52125D01*
X92496Y52121D01*
X92505Y52112D01*
X92517Y52091D01*
X92534Y52066D01*
X92555Y52033D01*
X92576Y51995D01*
X92601Y51945D01*
X92626Y51890D01*
X92651Y51827D01*
X92677Y51760D01*
X92698Y51685D01*
X92718Y51601D01*
X92735Y51509D01*
X92748Y51412D01*
X92756Y51308D01*
X92760Y51195D01*
Y51186D01*
Y51165D01*
Y51128D01*
X92756Y51077D01*
X92752Y51019D01*
X92744Y50952D01*
X92735Y50880D01*
X92727Y50797D01*
X92693Y50629D01*
X92668Y50541D01*
X92643Y50453D01*
X92610Y50369D01*
X92572Y50290D01*
X92530Y50214D01*
X92480Y50147D01*
X92475Y50143D01*
X92467Y50134D01*
X92450Y50118D01*
X92429Y50097D01*
X92400Y50068D01*
X92371Y50042D01*
X92333Y50009D01*
X92287Y49979D01*
X92241Y49950D01*
X92186Y49917D01*
X92132Y49891D01*
X92073Y49866D01*
X92006Y49841D01*
X91939Y49825D01*
X91868Y49816D01*
X91792Y49812D01*
X91776D01*
X91755Y49816D01*
X91725D01*
X91696Y49820D01*
X91654Y49829D01*
X91612Y49837D01*
X91566Y49850D01*
X91516Y49866D01*
X91461Y49887D01*
X91407Y49913D01*
X91352Y49942D01*
X91298Y49979D01*
X91244Y50021D01*
X91193Y50068D01*
X91143Y50122D01*
X91139Y50126D01*
X91130Y50139D01*
X91118Y50156D01*
X91101Y50181D01*
X91084Y50214D01*
X91059Y50256D01*
X91038Y50306D01*
X91013Y50365D01*
X90988Y50432D01*
X90967Y50507D01*
X90942Y50591D01*
X90925Y50683D01*
X90908Y50784D01*
X90896Y50893D01*
X90887Y51010D01*
X90883Y51140D01*
Y51148D01*
Y51170D01*
Y51203D01*
X90887Y51249D01*
X90892Y51303D01*
X90896Y51366D01*
X90904Y51438D01*
X90917Y51513D01*
X90950Y51672D01*
X90971Y51752D01*
X90996Y51832D01*
X91026Y51911D01*
X91063Y51986D01*
X91105Y52058D01*
X91151Y52121D01*
X91156Y52125D01*
X91164Y52133D01*
X91176Y52150D01*
X91198Y52171D01*
X91227Y52196D01*
X91256Y52221D01*
X91294Y52250D01*
X91336Y52284D01*
X91382Y52313D01*
X91432Y52343D01*
X91487Y52368D01*
X91545Y52393D01*
X91604Y52414D01*
X91671Y52431D01*
X91742Y52439D01*
X91813Y52443D01*
X91851D01*
X91880Y52439D01*
D02*
G37*
G36*
X82558Y45338D02*
X82608Y45329D01*
X82662Y45313D01*
X82721Y45292D01*
X82784Y45258D01*
X82847Y45216D01*
X82855Y45212D01*
X82872Y45191D01*
X82901Y45158D01*
X82939Y45112D01*
X82977Y45049D01*
X82998Y45011D01*
X83019Y44969D01*
X83039Y44923D01*
X83056Y44868D01*
X83077Y44814D01*
X83094Y44755D01*
Y44751D01*
X83098Y44734D01*
X83102Y44709D01*
X83111Y44672D01*
X83119Y44625D01*
X83132Y44567D01*
X83140Y44496D01*
X83148Y44412D01*
X83161Y44320D01*
X83169Y44211D01*
X83182Y44093D01*
X83190Y43964D01*
X83195Y43817D01*
X83203Y43662D01*
X83207Y43490D01*
Y43306D01*
Y43301D01*
Y43293D01*
Y43281D01*
Y43260D01*
Y43239D01*
Y43209D01*
Y43138D01*
X83203Y43058D01*
Y42962D01*
X83199Y42857D01*
X83195Y42748D01*
X83190Y42631D01*
X83182Y42514D01*
X83174Y42396D01*
X83165Y42283D01*
X83153Y42174D01*
X83140Y42074D01*
X83123Y41982D01*
X83107Y41902D01*
Y41898D01*
X83102Y41885D01*
X83094Y41864D01*
X83086Y41839D01*
X83077Y41810D01*
X83065Y41776D01*
X83035Y41697D01*
X82998Y41613D01*
X82951Y41529D01*
X82901Y41454D01*
X82876Y41420D01*
X82847Y41395D01*
X82838Y41391D01*
X82818Y41374D01*
X82784Y41357D01*
X82742Y41332D01*
X82688Y41311D01*
X82629Y41290D01*
X82558Y41273D01*
X82486Y41269D01*
X82478D01*
X82453Y41273D01*
X82415Y41278D01*
X82365Y41286D01*
X82310Y41299D01*
X82248Y41324D01*
X82189Y41353D01*
X82126Y41395D01*
X82118Y41403D01*
X82101Y41420D01*
X82072Y41454D01*
X82034Y41500D01*
X81996Y41567D01*
X81975Y41605D01*
X81954Y41646D01*
X81933Y41693D01*
X81917Y41743D01*
X81896Y41797D01*
X81879Y41856D01*
Y41860D01*
X81875Y41877D01*
X81866Y41902D01*
X81862Y41940D01*
X81850Y41986D01*
X81841Y42044D01*
X81833Y42116D01*
X81820Y42200D01*
X81808Y42292D01*
X81799Y42396D01*
X81787Y42518D01*
X81778Y42648D01*
X81774Y42790D01*
X81766Y42950D01*
X81762Y43121D01*
Y43306D01*
Y43310D01*
Y43318D01*
Y43331D01*
Y43352D01*
Y43373D01*
Y43402D01*
Y43469D01*
X81766Y43553D01*
Y43649D01*
X81770Y43750D01*
X81774Y43863D01*
X81778Y43976D01*
X81787Y44093D01*
X81795Y44211D01*
X81808Y44324D01*
X81816Y44433D01*
X81833Y44537D01*
X81850Y44625D01*
X81866Y44705D01*
Y44709D01*
X81871Y44722D01*
X81879Y44743D01*
X81883Y44768D01*
X81896Y44797D01*
X81908Y44831D01*
X81938Y44910D01*
X81975Y44998D01*
X82021Y45082D01*
X82072Y45158D01*
X82101Y45191D01*
X82130Y45216D01*
X82139Y45221D01*
X82155Y45237D01*
X82189Y45258D01*
X82231Y45283D01*
X82285Y45304D01*
X82344Y45325D01*
X82415Y45342D01*
X82486Y45346D01*
X82520D01*
X82558Y45338D01*
D02*
G37*
G36*
X91524Y43888D02*
X91558Y43884D01*
X91596Y43880D01*
X91633Y43871D01*
X91679Y43859D01*
X91772Y43825D01*
X91822Y43804D01*
X91872Y43779D01*
X91926Y43750D01*
X91973Y43712D01*
X92023Y43670D01*
X92069Y43624D01*
X92073Y43620D01*
X92077Y43611D01*
X92090Y43595D01*
X92107Y43574D01*
X92124Y43549D01*
X92144Y43515D01*
X92165Y43477D01*
X92186Y43436D01*
X92212Y43385D01*
X92232Y43331D01*
X92249Y43272D01*
X92270Y43209D01*
X92283Y43138D01*
X92295Y43067D01*
X92304Y42987D01*
Y42903D01*
X90636D01*
Y42908D01*
Y42924D01*
X90640Y42950D01*
Y42983D01*
X90644Y43025D01*
X90653Y43071D01*
X90661Y43121D01*
X90674Y43176D01*
X90703Y43293D01*
X90749Y43415D01*
X90774Y43477D01*
X90808Y43532D01*
X90846Y43586D01*
X90887Y43637D01*
X90892Y43641D01*
X90900Y43649D01*
X90912Y43662D01*
X90929Y43679D01*
X90954Y43695D01*
X90980Y43716D01*
X91013Y43741D01*
X91051Y43767D01*
X91135Y43813D01*
X91231Y43855D01*
X91286Y43867D01*
X91344Y43880D01*
X91403Y43888D01*
X91466Y43892D01*
X91499D01*
X91524Y43888D01*
D02*
G37*
G36*
X97801Y43796D02*
X96804D01*
X96737Y43800D01*
X96577D01*
X96489Y43804D01*
X96309Y43813D01*
X96221Y43817D01*
X96137Y43825D01*
X96062Y43834D01*
X95991Y43842D01*
X95932Y43850D01*
X95886Y43863D01*
X95882D01*
X95878Y43867D01*
X95853Y43876D01*
X95815Y43896D01*
X95765Y43922D01*
X95714Y43955D01*
X95660Y43997D01*
X95605Y44047D01*
X95559Y44110D01*
X95555Y44118D01*
X95538Y44144D01*
X95522Y44181D01*
X95496Y44232D01*
X95476Y44295D01*
X95455Y44370D01*
X95442Y44454D01*
X95438Y44546D01*
Y44550D01*
Y44559D01*
Y44575D01*
X95442Y44596D01*
Y44621D01*
X95446Y44646D01*
X95459Y44714D01*
X95476Y44789D01*
X95505Y44868D01*
X95543Y44944D01*
X95597Y45015D01*
Y45019D01*
X95605Y45024D01*
X95626Y45044D01*
X95660Y45074D01*
X95710Y45112D01*
X95773Y45149D01*
X95848Y45187D01*
X95936Y45221D01*
X96037Y45246D01*
X96054D01*
X96070Y45250D01*
X96091D01*
X96121Y45254D01*
X96154D01*
X96196Y45258D01*
X96309D01*
X96376Y45262D01*
X96456D01*
X96548Y45267D01*
X97801D01*
Y43796D01*
D02*
G37*
G36*
X83637Y35304D02*
X83649Y35299D01*
X83670Y35295D01*
X83691Y35287D01*
X83720Y35278D01*
X83754Y35270D01*
X83796Y35262D01*
X83842Y35249D01*
X83892Y35237D01*
X83947Y35220D01*
X84009Y35207D01*
X84077Y35190D01*
X84148Y35174D01*
X84227Y35153D01*
X84311Y35136D01*
X84315D01*
X84332Y35132D01*
X84353Y35128D01*
X84387Y35119D01*
X84424Y35111D01*
X84466Y35098D01*
X84558Y35073D01*
X84659Y35044D01*
X84759Y35015D01*
X84806Y34993D01*
X84847Y34977D01*
X84885Y34960D01*
X84915Y34943D01*
X84919D01*
X84923Y34935D01*
X84948Y34914D01*
X84982Y34880D01*
X85019Y34834D01*
X85061Y34780D01*
X85095Y34713D01*
X85120Y34633D01*
X85124Y34591D01*
X85128Y34549D01*
Y34545D01*
Y34541D01*
Y34528D01*
X85124Y34512D01*
X85120Y34466D01*
X85107Y34411D01*
X85086Y34348D01*
X85057Y34281D01*
X85015Y34214D01*
X84957Y34147D01*
X84948Y34139D01*
X84923Y34122D01*
X84885Y34093D01*
X84835Y34063D01*
X84772Y34034D01*
X84697Y34005D01*
X84609Y33988D01*
X84512Y33980D01*
X84483D01*
X84462Y33984D01*
X84433D01*
X84403Y33992D01*
X84328Y34005D01*
X84240Y34030D01*
X84144Y34063D01*
X84043Y34114D01*
X83989Y34143D01*
X83938Y34176D01*
X83934D01*
X83930Y34185D01*
X83905Y34202D01*
X83871Y34235D01*
X83829Y34277D01*
X83783Y34332D01*
X83741Y34394D01*
X83704Y34466D01*
X83674Y34541D01*
X83670Y34549D01*
X83666Y34570D01*
X83662Y34587D01*
X83658Y34608D01*
X83653Y34633D01*
X83649Y34663D01*
X83645Y34696D01*
X83641Y34738D01*
Y34780D01*
X83637Y34830D01*
X83632Y34885D01*
X83628Y34947D01*
Y35015D01*
Y35086D01*
Y35308D01*
X83632D01*
X83637Y35304D01*
D02*
G37*
G36*
X86239Y33196D02*
X84873D01*
X84906Y33200D01*
X84952D01*
X85007Y33209D01*
X85070Y33213D01*
X85137Y33225D01*
X85216Y33242D01*
X85296Y33259D01*
X85380Y33284D01*
X85464Y33309D01*
X85547Y33343D01*
X85631Y33385D01*
X85715Y33431D01*
X85795Y33485D01*
X85866Y33548D01*
X85870Y33552D01*
X85882Y33565D01*
X85899Y33586D01*
X85924Y33611D01*
X85954Y33644D01*
X85983Y33686D01*
X86016Y33737D01*
X86050Y33791D01*
X86088Y33854D01*
X86121Y33921D01*
X86151Y33992D01*
X86180Y34072D01*
X86205Y34155D01*
X86222Y34244D01*
X86234Y34340D01*
X86239Y34436D01*
Y33196D01*
D02*
G37*
G36*
X90169Y36460D02*
X89419D01*
X89364Y36464D01*
X89302D01*
X89230Y36468D01*
X89159Y36473D01*
X89004Y36481D01*
X88853Y36498D01*
X88782Y36506D01*
X88715Y36519D01*
X88660Y36531D01*
X88610Y36548D01*
X88606D01*
X88598Y36552D01*
X88589Y36556D01*
X88572Y36565D01*
X88530Y36586D01*
X88476Y36619D01*
X88417Y36657D01*
X88354Y36707D01*
X88296Y36766D01*
X88241Y36833D01*
Y36837D01*
X88237Y36841D01*
X88229Y36854D01*
X88221Y36867D01*
X88200Y36908D01*
X88174Y36963D01*
X88149Y37030D01*
X88128Y37105D01*
X88112Y37193D01*
X88107Y37286D01*
Y37290D01*
Y37298D01*
Y37315D01*
X88112Y37340D01*
Y37365D01*
X88116Y37399D01*
X88133Y37470D01*
X88153Y37554D01*
X88187Y37642D01*
X88233Y37730D01*
X88262Y37771D01*
X88296Y37809D01*
Y37813D01*
X88304Y37818D01*
X88329Y37843D01*
X88367Y37876D01*
X88422Y37922D01*
X88493Y37964D01*
X88572Y38006D01*
X88665Y38044D01*
X88765Y38069D01*
X88774D01*
X88790Y38073D01*
X88807Y38077D01*
X88832D01*
X88866Y38082D01*
X88903Y38086D01*
X88950Y38090D01*
X89004Y38094D01*
X89063Y38098D01*
X89130Y38102D01*
X89209D01*
X89293Y38107D01*
X89389Y38111D01*
X90169D01*
Y36460D01*
D02*
G37*
G36*
X96022Y31022D02*
X96073Y31014D01*
X96127Y30997D01*
X96186Y30976D01*
X96249Y30943D01*
X96311Y30901D01*
X96320Y30897D01*
X96337Y30876D01*
X96366Y30842D01*
X96403Y30796D01*
X96441Y30733D01*
X96462Y30695D01*
X96483Y30654D01*
X96504Y30608D01*
X96521Y30553D01*
X96542Y30498D01*
X96559Y30440D01*
Y30436D01*
X96563Y30419D01*
X96567Y30394D01*
X96575Y30356D01*
X96584Y30310D01*
X96596Y30251D01*
X96605Y30180D01*
X96613Y30096D01*
X96626Y30004D01*
X96634Y29895D01*
X96647Y29778D01*
X96655Y29648D01*
X96659Y29501D01*
X96667Y29346D01*
X96672Y29175D01*
Y28990D01*
Y28986D01*
Y28978D01*
Y28965D01*
Y28944D01*
Y28923D01*
Y28894D01*
Y28822D01*
X96667Y28743D01*
Y28646D01*
X96663Y28542D01*
X96659Y28433D01*
X96655Y28315D01*
X96647Y28198D01*
X96638Y28081D01*
X96630Y27968D01*
X96617Y27859D01*
X96605Y27758D01*
X96588Y27666D01*
X96571Y27586D01*
Y27582D01*
X96567Y27570D01*
X96559Y27549D01*
X96550Y27524D01*
X96542Y27494D01*
X96529Y27461D01*
X96500Y27381D01*
X96462Y27297D01*
X96416Y27213D01*
X96366Y27138D01*
X96341Y27105D01*
X96311Y27079D01*
X96303Y27075D01*
X96282Y27059D01*
X96249Y27042D01*
X96207Y27017D01*
X96152Y26996D01*
X96093Y26975D01*
X96022Y26958D01*
X95951Y26954D01*
X95943D01*
X95917Y26958D01*
X95880Y26962D01*
X95829Y26970D01*
X95775Y26983D01*
X95712Y27008D01*
X95653Y27038D01*
X95591Y27079D01*
X95582Y27088D01*
X95565Y27105D01*
X95536Y27138D01*
X95499Y27184D01*
X95461Y27251D01*
X95440Y27289D01*
X95419Y27331D01*
X95398Y27377D01*
X95381Y27427D01*
X95360Y27482D01*
X95344Y27540D01*
Y27545D01*
X95339Y27561D01*
X95331Y27586D01*
X95327Y27624D01*
X95314Y27670D01*
X95306Y27729D01*
X95297Y27800D01*
X95285Y27884D01*
X95272Y27976D01*
X95264Y28081D01*
X95251Y28202D01*
X95243Y28332D01*
X95239Y28475D01*
X95230Y28634D01*
X95226Y28806D01*
Y28990D01*
Y28994D01*
Y29003D01*
Y29015D01*
Y29036D01*
Y29057D01*
Y29087D01*
Y29153D01*
X95230Y29237D01*
Y29334D01*
X95235Y29434D01*
X95239Y29547D01*
X95243Y29660D01*
X95251Y29778D01*
X95260Y29895D01*
X95272Y30008D01*
X95281Y30117D01*
X95297Y30222D01*
X95314Y30310D01*
X95331Y30390D01*
Y30394D01*
X95335Y30406D01*
X95344Y30427D01*
X95348Y30452D01*
X95360Y30482D01*
X95373Y30515D01*
X95402Y30595D01*
X95440Y30683D01*
X95486Y30767D01*
X95536Y30842D01*
X95565Y30876D01*
X95595Y30901D01*
X95603Y30905D01*
X95620Y30922D01*
X95653Y30943D01*
X95695Y30968D01*
X95750Y30989D01*
X95809Y31010D01*
X95880Y31026D01*
X95951Y31031D01*
X95985D01*
X96022Y31022D01*
D02*
G37*
%LPC*%
G36*
X179995Y23738D02*
Y23678D01*
X179324D01*
Y23288D01*
X179321Y23290D01*
X179315Y23299D01*
X179307Y23315D01*
X179294Y23331D01*
X179280Y23353D01*
X179261Y23381D01*
X179220Y23438D01*
X179174Y23498D01*
X179122Y23558D01*
X179094Y23585D01*
X179067Y23610D01*
X179040Y23632D01*
X179015Y23651D01*
X179013D01*
X179010Y23653D01*
X179002Y23659D01*
X178991Y23664D01*
X178961Y23678D01*
X178922Y23694D01*
X178876Y23711D01*
X178824Y23724D01*
X178764Y23735D01*
X178701Y23738D01*
X178677D01*
X178658Y23735D01*
X178636Y23733D01*
X178611Y23730D01*
X178581Y23727D01*
X178548Y23722D01*
X178475Y23705D01*
X178393Y23681D01*
X178352Y23664D01*
X178308Y23645D01*
X178264Y23623D01*
X178221Y23599D01*
X178447Y22968D01*
X178450Y22971D01*
X178456Y22974D01*
X178466Y22979D01*
X178477Y22987D01*
X178494Y22996D01*
X178513Y23007D01*
X178559Y23028D01*
X178611Y23050D01*
X178668Y23069D01*
X178729Y23083D01*
X178759Y23088D01*
X178813D01*
X178843Y23083D01*
X178879Y23077D01*
X178920Y23066D01*
X178963Y23053D01*
X179007Y23031D01*
X179048Y23004D01*
X179053Y23001D01*
X179064Y22987D01*
X179084Y22965D01*
X179108Y22936D01*
X179133Y22892D01*
X179146Y22867D01*
X179160Y22840D01*
X179174Y22810D01*
X179187Y22777D01*
X179201Y22739D01*
X179212Y22701D01*
Y22698D01*
X179215Y22690D01*
X179217Y22676D01*
X179220Y22657D01*
X179225Y22630D01*
X179231Y22594D01*
X179236Y22553D01*
X179242Y22504D01*
X179247Y22447D01*
X179253Y22381D01*
X179258Y22305D01*
X179264Y22223D01*
X179266Y22127D01*
X179269Y22024D01*
X179272Y21909D01*
Y21849D01*
Y21783D01*
Y20940D01*
X178221D01*
X179995D01*
Y23738D01*
D02*
G37*
G36*
X166506D02*
Y23678D01*
X165835D01*
Y23288D01*
X165832Y23290D01*
X165827Y23299D01*
X165818Y23315D01*
X165805Y23331D01*
X165791Y23353D01*
X165772Y23381D01*
X165731Y23438D01*
X165685Y23498D01*
X165633Y23558D01*
X165605Y23585D01*
X165578Y23610D01*
X165551Y23632D01*
X165526Y23651D01*
X165524D01*
X165521Y23653D01*
X165513Y23659D01*
X165502Y23664D01*
X165472Y23678D01*
X165434Y23694D01*
X165387Y23711D01*
X165335Y23724D01*
X165275Y23735D01*
X165212Y23738D01*
X165188D01*
X165169Y23735D01*
X165147Y23733D01*
X165122Y23730D01*
X165092Y23727D01*
X165059Y23722D01*
X164986Y23705D01*
X164904Y23681D01*
X164863Y23664D01*
X164819Y23645D01*
X164776Y23623D01*
X164732Y23599D01*
X164958Y22968D01*
X164961Y22971D01*
X164967Y22974D01*
X164978Y22979D01*
X164989Y22987D01*
X165005Y22996D01*
X165024Y23007D01*
X165070Y23028D01*
X165122Y23050D01*
X165180Y23069D01*
X165240Y23083D01*
X165270Y23088D01*
X165324D01*
X165354Y23083D01*
X165390Y23077D01*
X165431Y23066D01*
X165474Y23053D01*
X165518Y23031D01*
X165559Y23004D01*
X165565Y23001D01*
X165575Y22987D01*
X165594Y22965D01*
X165619Y22936D01*
X165644Y22892D01*
X165657Y22867D01*
X165671Y22840D01*
X165685Y22810D01*
X165698Y22777D01*
X165712Y22739D01*
X165723Y22701D01*
Y22698D01*
X165726Y22690D01*
X165728Y22676D01*
X165731Y22657D01*
X165736Y22630D01*
X165742Y22594D01*
X165747Y22553D01*
X165753Y22504D01*
X165758Y22447D01*
X165764Y22381D01*
X165769Y22305D01*
X165775Y22223D01*
X165777Y22127D01*
X165780Y22024D01*
X165783Y21909D01*
Y21849D01*
Y21783D01*
Y20940D01*
X164732D01*
X166506D01*
Y23738D01*
D02*
G37*
G36*
X176635D02*
Y21707D01*
X176632Y21723D01*
Y21745D01*
X176629Y21767D01*
X176627Y21794D01*
X176621Y21824D01*
X176607Y21887D01*
X176588Y21958D01*
X176561Y22029D01*
X176525Y22097D01*
X176523Y22100D01*
X176520Y22106D01*
X176514Y22114D01*
X176504Y22127D01*
X176479Y22160D01*
X176444Y22201D01*
X176400Y22245D01*
X176348Y22291D01*
X176285Y22338D01*
X176214Y22376D01*
X176212D01*
X176206Y22381D01*
X176192Y22387D01*
X176176Y22392D01*
X176157Y22400D01*
X176132Y22411D01*
X176102Y22422D01*
X176067Y22433D01*
X176029Y22447D01*
X175985Y22460D01*
X175938Y22474D01*
X175887Y22488D01*
X175832Y22504D01*
X175772Y22518D01*
X175707Y22531D01*
X175638Y22545D01*
X175633D01*
X175616Y22551D01*
X175589Y22553D01*
X175556Y22561D01*
X175515Y22570D01*
X175466Y22581D01*
X175414Y22591D01*
X175360Y22602D01*
X175242Y22633D01*
X175128Y22662D01*
X175073Y22676D01*
X175021Y22693D01*
X174975Y22709D01*
X174934Y22725D01*
Y22796D01*
Y22799D01*
Y22804D01*
Y22815D01*
X174937Y22829D01*
Y22848D01*
X174939Y22867D01*
X174948Y22911D01*
X174958Y22960D01*
X174978Y23009D01*
X175002Y23056D01*
X175019Y23075D01*
X175038Y23094D01*
X175043Y23097D01*
X175048Y23102D01*
X175059Y23108D01*
X175070Y23116D01*
X175087Y23121D01*
X175103Y23129D01*
X175125Y23140D01*
X175150Y23148D01*
X175180Y23157D01*
X175210Y23162D01*
X175245Y23170D01*
X175286Y23176D01*
X175330Y23181D01*
X175376Y23184D01*
X175461D01*
X175477Y23181D01*
X175496D01*
X175537Y23176D01*
X175586Y23165D01*
X175638Y23151D01*
X175687Y23132D01*
X175731Y23108D01*
X175736Y23105D01*
X175747Y23094D01*
X175769Y23072D01*
X175791Y23045D01*
X175818Y23009D01*
X175848Y22963D01*
X175876Y22905D01*
X175903Y22840D01*
X176561Y22957D01*
X176558Y22963D01*
X176556Y22974D01*
X176550Y22996D01*
X176539Y23023D01*
X176528Y23056D01*
X176512Y23094D01*
X176493Y23135D01*
X176474Y23178D01*
X176449Y23228D01*
X176419Y23274D01*
X176389Y23323D01*
X176354Y23372D01*
X176318Y23419D01*
X176274Y23465D01*
X176231Y23506D01*
X176181Y23544D01*
X176179Y23547D01*
X176168Y23552D01*
X176151Y23563D01*
X176130Y23574D01*
X176102Y23588D01*
X176067Y23604D01*
X176026Y23623D01*
X175977Y23642D01*
X175925Y23659D01*
X175865Y23678D01*
X175797Y23694D01*
X175726Y23708D01*
X175646Y23719D01*
X175562Y23730D01*
X175472Y23735D01*
X175373Y23738D01*
X175327D01*
X175294Y23735D01*
X175253D01*
X175207Y23733D01*
X175155Y23730D01*
X175100Y23724D01*
X175043Y23719D01*
X174983Y23711D01*
X174863Y23689D01*
X174806Y23678D01*
X174748Y23662D01*
X174696Y23642D01*
X174650Y23623D01*
X174647D01*
X174639Y23618D01*
X174628Y23613D01*
X174612Y23602D01*
X174593Y23591D01*
X174571Y23577D01*
X174519Y23544D01*
X174464Y23501D01*
X174410Y23451D01*
X174358Y23394D01*
X174336Y23364D01*
X174317Y23331D01*
Y23329D01*
X174311Y23323D01*
X174309Y23312D01*
X174301Y23296D01*
X174295Y23277D01*
X174287Y23249D01*
X174276Y23219D01*
X174268Y23184D01*
X174260Y23143D01*
X174249Y23094D01*
X174241Y23042D01*
X174235Y22982D01*
X174227Y22916D01*
X174224Y22845D01*
X174219Y22766D01*
Y22682D01*
X174230Y21838D01*
Y21835D01*
Y21822D01*
Y21802D01*
Y21778D01*
Y21748D01*
X174227Y21715D01*
Y21677D01*
X174224Y21636D01*
X174221Y21549D01*
X174216Y21461D01*
X174213Y21418D01*
X174208Y21377D01*
X174202Y21341D01*
X174197Y21306D01*
Y21303D01*
X174194Y21297D01*
Y21289D01*
X174189Y21276D01*
X174186Y21259D01*
X174180Y21240D01*
X174167Y21196D01*
X174150Y21142D01*
X174126Y21079D01*
X174099Y21011D01*
X174066Y20940D01*
D01*
X174781D01*
Y20943D01*
X174786Y20954D01*
X174792Y20970D01*
X174800Y20994D01*
X174811Y21024D01*
X174825Y21060D01*
X174838Y21104D01*
X174852Y21153D01*
Y21156D01*
X174855Y21164D01*
X174857Y21175D01*
X174863Y21188D01*
X174871Y21216D01*
X174874Y21226D01*
X174876Y21237D01*
X174879Y21235D01*
X174885Y21229D01*
X174896Y21221D01*
X174909Y21207D01*
X174926Y21194D01*
X174948Y21175D01*
X174969Y21156D01*
X174997Y21136D01*
X175054Y21093D01*
X175122Y21046D01*
X175196Y21005D01*
X175275Y20967D01*
X175278D01*
X175283Y20964D01*
X175297Y20959D01*
X175311Y20954D01*
X175332Y20945D01*
X175354Y20940D01*
X175382Y20932D01*
X175409Y20923D01*
X175442Y20912D01*
X175477Y20904D01*
X175554Y20891D01*
X175638Y20880D01*
X175726Y20877D01*
X176635D01*
Y23738D01*
D02*
G37*
G36*
X170274Y24718D02*
X169534D01*
X167983Y22187D01*
Y24718D01*
X167276D01*
Y20940D01*
X169406D01*
X168041D01*
X169567Y23413D01*
Y20940D01*
X170274D01*
Y24718D01*
D02*
G37*
G36*
X172125Y22671D02*
X170702D01*
Y21947D01*
X172125D01*
Y22671D01*
D02*
G37*
G36*
X177910Y24718D02*
X177186D01*
Y24049D01*
X177910D01*
Y23678D01*
X177186D01*
Y20940D01*
X177910D01*
Y24718D01*
D02*
G37*
G36*
X173509D02*
X172785D01*
Y20940D01*
X173509D01*
Y24718D01*
D02*
G37*
G36*
X164421Y21663D02*
X163697D01*
Y20940D01*
X164421D01*
Y21663D01*
D02*
G37*
G36*
X183110Y23738D02*
X180552D01*
X181827D01*
X181814Y23735D01*
X181797D01*
X181753Y23733D01*
X181702Y23727D01*
X181644Y23716D01*
X181576Y23705D01*
X181505Y23689D01*
X181431Y23667D01*
X181352Y23640D01*
X181273Y23607D01*
X181191Y23569D01*
X181112Y23522D01*
X181035Y23468D01*
X180962Y23405D01*
X180894Y23334D01*
X180891Y23329D01*
X180877Y23315D01*
X180861Y23290D01*
X180839Y23258D01*
X180812Y23214D01*
X180781Y23162D01*
X180752Y23099D01*
X180719Y23028D01*
X180686Y22946D01*
X180653Y22854D01*
X180626Y22753D01*
X180599Y22641D01*
X180579Y22521D01*
X180563Y22389D01*
X180555Y22248D01*
X180552Y22097D01*
D01*
X182368D01*
Y22095D01*
Y22084D01*
X182365Y22067D01*
Y22046D01*
X182362Y22018D01*
X182357Y21985D01*
X182351Y21953D01*
X182343Y21914D01*
X182324Y21833D01*
X182310Y21792D01*
X182294Y21751D01*
X182272Y21710D01*
X182250Y21669D01*
X182226Y21631D01*
X182196Y21595D01*
X182193Y21592D01*
X182187Y21587D01*
X182179Y21579D01*
X182166Y21568D01*
X182149Y21554D01*
X182127Y21538D01*
X182106Y21524D01*
X182078Y21508D01*
X182051Y21489D01*
X182018Y21475D01*
X181947Y21445D01*
X181906Y21434D01*
X181865Y21426D01*
X181822Y21420D01*
X181775Y21418D01*
X181759D01*
X181745Y21420D01*
X181715Y21423D01*
X181674Y21429D01*
X181631Y21439D01*
X181581Y21456D01*
X181535Y21478D01*
X181489Y21508D01*
X181486D01*
X181483Y21513D01*
X181470Y21527D01*
X181448Y21549D01*
X181423Y21581D01*
X181393Y21622D01*
X181363Y21674D01*
X181336Y21734D01*
X181311Y21808D01*
X180590Y21688D01*
X180593Y21682D01*
X180596Y21671D01*
X180604Y21650D01*
X180618Y21622D01*
X180631Y21590D01*
X180650Y21551D01*
X180672Y21508D01*
X180700Y21464D01*
X180727Y21415D01*
X180760Y21366D01*
X180798Y21314D01*
X180836Y21265D01*
X180880Y21216D01*
X180926Y21166D01*
X180978Y21123D01*
X181033Y21082D01*
X181035Y21079D01*
X181046Y21074D01*
X181063Y21063D01*
X181087Y21049D01*
X181117Y21035D01*
X181150Y21016D01*
X181194Y21000D01*
X181240Y20981D01*
X181292Y20962D01*
X181347Y20943D01*
X181409Y20923D01*
X181475Y20910D01*
X181546Y20896D01*
X181622Y20885D01*
X181702Y20880D01*
X181783Y20877D01*
X181814D01*
D01*
X182045D01*
X181814D01*
X181833Y20880D01*
X181852D01*
X181874Y20883D01*
X181901Y20885D01*
X181961Y20891D01*
X182026Y20902D01*
X182103Y20915D01*
X182185Y20934D01*
X182269Y20959D01*
X182357Y20992D01*
X182444Y21027D01*
X182531Y21074D01*
X182616Y21125D01*
X182695Y21188D01*
X182772Y21259D01*
X182840Y21341D01*
X182843Y21347D01*
X182851Y21358D01*
X182864Y21379D01*
X182881Y21409D01*
X182903Y21445D01*
X182925Y21489D01*
X182949Y21541D01*
X182974Y21600D01*
X183001Y21666D01*
X183026Y21737D01*
X183047Y21813D01*
X183066Y21898D01*
X183086Y21985D01*
X183099Y22081D01*
X183107Y22182D01*
X183110Y22286D01*
Y20877D01*
D01*
Y23738D01*
D02*
G37*
G36*
X186605Y24781D02*
D01*
Y20872D01*
X185095D01*
X185114Y20874D01*
X185139D01*
X185163Y20877D01*
X185223Y20883D01*
X185294Y20888D01*
X185371Y20899D01*
X185453Y20912D01*
X185540Y20932D01*
X185630Y20954D01*
X185723Y20978D01*
X185813Y21011D01*
X185903Y21049D01*
X185990Y21093D01*
X186072Y21145D01*
X186149Y21202D01*
X186154Y21205D01*
X186165Y21218D01*
X186184Y21237D01*
X186209Y21265D01*
X186239Y21297D01*
X186274Y21341D01*
X186310Y21390D01*
X186348Y21448D01*
X186389Y21510D01*
X186427Y21584D01*
X186465Y21663D01*
X186501Y21748D01*
X186536Y21844D01*
X186564Y21945D01*
X186588Y22054D01*
X186605Y22168D01*
X185862Y22239D01*
Y22234D01*
X185859Y22223D01*
X185854Y22204D01*
X185848Y22179D01*
X185840Y22147D01*
X185829Y22111D01*
X185818Y22073D01*
X185805Y22032D01*
X185766Y21942D01*
X185745Y21895D01*
X185720Y21849D01*
X185693Y21805D01*
X185663Y21764D01*
X185627Y21726D01*
X185592Y21691D01*
X185589Y21688D01*
X185581Y21682D01*
X185570Y21674D01*
X185554Y21663D01*
X185535Y21650D01*
X185507Y21636D01*
X185480Y21620D01*
X185444Y21603D01*
X185409Y21587D01*
X185365Y21571D01*
X185321Y21557D01*
X185272Y21543D01*
X185218Y21532D01*
X185160Y21524D01*
X185100Y21519D01*
X185038Y21516D01*
X185002D01*
X184977Y21519D01*
X184948Y21521D01*
X184912Y21524D01*
X184871Y21530D01*
X184830Y21535D01*
X184740Y21554D01*
X184694Y21568D01*
X184647Y21581D01*
X184604Y21600D01*
X184560Y21620D01*
X184519Y21644D01*
X184483Y21671D01*
X184481Y21674D01*
X184475Y21680D01*
X184467Y21688D01*
X184453Y21699D01*
X184440Y21715D01*
X184423Y21732D01*
X184407Y21753D01*
X184388Y21775D01*
X184355Y21830D01*
X184325Y21890D01*
X184311Y21925D01*
X184303Y21958D01*
X184298Y21996D01*
X184295Y22035D01*
Y22037D01*
Y22040D01*
Y22056D01*
X184298Y22081D01*
X184306Y22114D01*
X184314Y22149D01*
X184328Y22187D01*
X184347Y22226D01*
X184374Y22261D01*
X184377Y22267D01*
X184391Y22277D01*
X184410Y22294D01*
X184437Y22319D01*
X184475Y22343D01*
X184524Y22373D01*
X184582Y22400D01*
X184615Y22414D01*
X184650Y22428D01*
X184653D01*
X184655Y22430D01*
X184666Y22433D01*
X184677Y22436D01*
X184696Y22441D01*
X184718Y22449D01*
X184746Y22458D01*
X184775Y22466D01*
X184814Y22477D01*
X184857Y22488D01*
X184907Y22501D01*
X184964Y22518D01*
X185027Y22534D01*
X185098Y22551D01*
X185177Y22570D01*
X185261Y22591D01*
X185264D01*
X185270Y22594D01*
X185278D01*
X185289Y22600D01*
X185302Y22602D01*
X185319Y22608D01*
X185360Y22619D01*
X185412Y22633D01*
X185469Y22652D01*
X185532Y22673D01*
X185597Y22695D01*
X185668Y22723D01*
X185739Y22750D01*
X185813Y22780D01*
X185881Y22813D01*
X185949Y22848D01*
X186012Y22886D01*
X186070Y22925D01*
X186121Y22965D01*
X186124Y22968D01*
X186135Y22979D01*
X186154Y22998D01*
X186176Y23020D01*
X186201Y23050D01*
X186231Y23088D01*
X186263Y23129D01*
X186293Y23178D01*
X186326Y23230D01*
X186359Y23288D01*
X186389Y23350D01*
X186414Y23416D01*
X186435Y23487D01*
X186454Y23563D01*
X186465Y23642D01*
X186468Y23724D01*
Y23727D01*
Y23738D01*
Y23752D01*
X186465Y23774D01*
X186463Y23798D01*
X186460Y23828D01*
X186454Y23864D01*
X186449Y23902D01*
X186438Y23940D01*
X186430Y23984D01*
X186416Y24027D01*
X186400Y24074D01*
X186381Y24123D01*
X186359Y24169D01*
X186334Y24219D01*
X186307Y24265D01*
X186304Y24268D01*
X186299Y24276D01*
X186291Y24290D01*
X186277Y24306D01*
X186261Y24328D01*
X186239Y24352D01*
X186214Y24377D01*
X186187Y24407D01*
X186154Y24437D01*
X186119Y24470D01*
X186081Y24500D01*
X186039Y24532D01*
X185993Y24563D01*
X185944Y24593D01*
X185892Y24623D01*
X185835Y24647D01*
X185832Y24650D01*
X185821Y24653D01*
X185802Y24661D01*
X185780Y24669D01*
X185750Y24677D01*
X185715Y24691D01*
X185674Y24702D01*
X185627Y24715D01*
X185575Y24726D01*
X185518Y24740D01*
X185458Y24751D01*
X185392Y24759D01*
X185321Y24770D01*
X185248Y24776D01*
X185171Y24778D01*
X185092Y24781D01*
X185043D01*
X185024Y24778D01*
X185002D01*
X184975Y24776D01*
X184915Y24773D01*
X184846Y24765D01*
X184773Y24754D01*
X184691Y24743D01*
X184606Y24726D01*
X184519Y24704D01*
X184429Y24680D01*
X184339Y24650D01*
X184254Y24612D01*
X184169Y24571D01*
X184093Y24522D01*
X184022Y24467D01*
X184017Y24464D01*
X184006Y24453D01*
X183989Y24434D01*
X183965Y24410D01*
X183937Y24380D01*
X183907Y24341D01*
X183875Y24298D01*
X183839Y24246D01*
X183804Y24191D01*
X183771Y24128D01*
X183738Y24060D01*
X183711Y23987D01*
X183684Y23907D01*
X183664Y23823D01*
X183651Y23733D01*
X183643Y23637D01*
X184404Y23604D01*
Y23607D01*
X184407Y23618D01*
X184410Y23632D01*
X184415Y23651D01*
X184421Y23675D01*
X184429Y23703D01*
X184437Y23733D01*
X184448Y23765D01*
X184478Y23834D01*
X184513Y23902D01*
X184560Y23967D01*
X184584Y23998D01*
X184615Y24022D01*
X184617Y24025D01*
X184623Y24027D01*
X184631Y24033D01*
X184644Y24041D01*
X184661Y24052D01*
X184683Y24063D01*
X184707Y24074D01*
X184735Y24088D01*
X184767Y24099D01*
X184803Y24109D01*
X184844Y24120D01*
X184887Y24131D01*
X184934Y24139D01*
X184983Y24145D01*
X185040Y24150D01*
X185130D01*
X185152Y24148D01*
X185180Y24145D01*
X185212Y24142D01*
X185248Y24139D01*
X185289Y24134D01*
X185371Y24118D01*
X185458Y24093D01*
X185502Y24077D01*
X185543Y24058D01*
X185581Y24036D01*
X185619Y24011D01*
X185625Y24008D01*
X185638Y23995D01*
X185657Y23976D01*
X185679Y23948D01*
X185701Y23915D01*
X185720Y23877D01*
X185734Y23831D01*
X185737Y23806D01*
X185739Y23779D01*
Y23776D01*
Y23774D01*
X185737Y23757D01*
X185734Y23733D01*
X185726Y23700D01*
X185712Y23664D01*
X185693Y23626D01*
X185666Y23588D01*
X185627Y23550D01*
X185625D01*
X185619Y23544D01*
X185611Y23539D01*
X185594Y23528D01*
X185575Y23517D01*
X185551Y23503D01*
X185521Y23490D01*
X185485Y23473D01*
X185442Y23454D01*
X185392Y23435D01*
X185335Y23413D01*
X185270Y23391D01*
X185196Y23367D01*
X185117Y23345D01*
X185024Y23320D01*
X184926Y23296D01*
X184923D01*
X184920Y23293D01*
X184912D01*
X184901Y23290D01*
X184874Y23282D01*
X184836Y23274D01*
X184789Y23260D01*
X184735Y23247D01*
X184677Y23230D01*
X184615Y23214D01*
X184549Y23192D01*
X184481Y23173D01*
X184344Y23127D01*
X184279Y23102D01*
X184216Y23075D01*
X184156Y23050D01*
X184104Y23023D01*
X184101Y23020D01*
X184093Y23017D01*
X184079Y23009D01*
X184060Y22998D01*
X184038Y22982D01*
X184011Y22965D01*
X183984Y22946D01*
X183951Y22922D01*
X183918Y22897D01*
X183886Y22867D01*
X183850Y22837D01*
X183815Y22802D01*
X183746Y22725D01*
X183716Y22682D01*
X183686Y22638D01*
X183684Y22635D01*
X183681Y22627D01*
X183673Y22613D01*
X183662Y22594D01*
X183651Y22570D01*
X183637Y22542D01*
X183624Y22510D01*
X183610Y22471D01*
X183596Y22430D01*
X183582Y22384D01*
X183569Y22335D01*
X183558Y22283D01*
X183547Y22226D01*
X183539Y22166D01*
X183536Y22103D01*
X183533Y22037D01*
Y22005D01*
X183536Y21983D01*
X183539Y21953D01*
X183544Y21920D01*
X183550Y21882D01*
X183555Y21841D01*
X183566Y21794D01*
X183577Y21745D01*
X183593Y21696D01*
X183610Y21644D01*
X183632Y21590D01*
X183656Y21535D01*
X183684Y21483D01*
X183716Y21429D01*
X183719Y21426D01*
X183724Y21418D01*
X183735Y21401D01*
X183749Y21382D01*
X183768Y21360D01*
X183790Y21333D01*
X183817Y21303D01*
X183847Y21270D01*
X183883Y21237D01*
X183921Y21202D01*
X183962Y21166D01*
X184008Y21134D01*
X184057Y21098D01*
X184109Y21065D01*
X184167Y21035D01*
X184227Y21008D01*
X184230Y21005D01*
X184240Y21003D01*
X184259Y20994D01*
X184287Y20986D01*
X184317Y20975D01*
X184355Y20964D01*
X184402Y20954D01*
X184451Y20940D01*
X184508Y20926D01*
X184571Y20915D01*
X184639Y20904D01*
X184710Y20893D01*
X184786Y20885D01*
X184868Y20877D01*
X184956Y20874D01*
X185046Y20872D01*
X183533D01*
X186605D01*
Y24781D01*
D02*
G37*
%LPD*%
G36*
X174939Y22250D02*
X174948Y22248D01*
X174961Y22245D01*
X174975Y22239D01*
X174994Y22234D01*
X175016Y22228D01*
X175043Y22223D01*
X175073Y22215D01*
X175106Y22207D01*
X175141Y22196D01*
X175182Y22187D01*
X175226Y22176D01*
X175272Y22166D01*
X175324Y22152D01*
X175379Y22141D01*
X175382D01*
X175392Y22138D01*
X175406Y22136D01*
X175428Y22130D01*
X175453Y22125D01*
X175480Y22117D01*
X175540Y22100D01*
X175605Y22081D01*
X175671Y22062D01*
X175701Y22048D01*
X175728Y22037D01*
X175753Y22026D01*
X175772Y22016D01*
X175775D01*
X175777Y22010D01*
X175794Y21996D01*
X175816Y21974D01*
X175840Y21945D01*
X175867Y21909D01*
X175889Y21865D01*
X175906Y21813D01*
X175909Y21786D01*
X175911Y21759D01*
Y21756D01*
Y21753D01*
Y21745D01*
X175909Y21734D01*
X175906Y21704D01*
X175898Y21669D01*
X175884Y21628D01*
X175865Y21584D01*
X175838Y21541D01*
X175799Y21497D01*
X175794Y21491D01*
X175777Y21480D01*
X175753Y21461D01*
X175720Y21442D01*
X175679Y21423D01*
X175630Y21404D01*
X175573Y21393D01*
X175510Y21388D01*
X175491D01*
X175477Y21390D01*
X175458D01*
X175439Y21396D01*
X175390Y21404D01*
X175332Y21420D01*
X175270Y21442D01*
X175204Y21475D01*
X175169Y21494D01*
X175136Y21516D01*
X175133D01*
X175130Y21521D01*
X175114Y21532D01*
X175092Y21554D01*
X175065Y21581D01*
X175035Y21617D01*
X175008Y21658D01*
X174983Y21704D01*
X174964Y21753D01*
X174961Y21759D01*
X174958Y21772D01*
X174956Y21783D01*
X174953Y21797D01*
X174950Y21813D01*
X174948Y21833D01*
X174945Y21854D01*
X174942Y21882D01*
Y21909D01*
X174939Y21942D01*
X174937Y21977D01*
X174934Y22018D01*
Y22062D01*
Y22108D01*
Y22253D01*
X174937D01*
X174939Y22250D01*
D02*
G37*
G36*
X176635Y20877D02*
X175745D01*
X175767Y20880D01*
X175797D01*
X175832Y20885D01*
X175873Y20888D01*
X175917Y20896D01*
X175969Y20907D01*
X176020Y20918D01*
X176075Y20934D01*
X176130Y20951D01*
X176184Y20973D01*
X176239Y21000D01*
X176293Y21030D01*
X176345Y21065D01*
X176392Y21106D01*
X176394Y21109D01*
X176403Y21117D01*
X176414Y21131D01*
X176430Y21147D01*
X176449Y21169D01*
X176468Y21196D01*
X176490Y21229D01*
X176512Y21265D01*
X176536Y21306D01*
X176558Y21349D01*
X176577Y21396D01*
X176596Y21448D01*
X176613Y21502D01*
X176624Y21560D01*
X176632Y21622D01*
X176635Y21685D01*
Y20877D01*
D02*
G37*
G36*
X181849Y23181D02*
X181871Y23178D01*
X181895Y23176D01*
X181920Y23170D01*
X181950Y23162D01*
X182010Y23140D01*
X182043Y23127D01*
X182076Y23110D01*
X182111Y23091D01*
X182141Y23066D01*
X182174Y23039D01*
X182204Y23009D01*
X182207Y23007D01*
X182209Y23001D01*
X182218Y22990D01*
X182228Y22976D01*
X182239Y22960D01*
X182253Y22938D01*
X182267Y22914D01*
X182280Y22886D01*
X182297Y22854D01*
X182310Y22818D01*
X182321Y22780D01*
X182335Y22739D01*
X182343Y22693D01*
X182351Y22646D01*
X182357Y22594D01*
Y22540D01*
X181270D01*
Y22542D01*
Y22553D01*
X181273Y22570D01*
Y22591D01*
X181276Y22619D01*
X181281Y22649D01*
X181287Y22682D01*
X181295Y22717D01*
X181314Y22794D01*
X181344Y22873D01*
X181360Y22914D01*
X181382Y22949D01*
X181407Y22985D01*
X181434Y23017D01*
X181437Y23020D01*
X181442Y23026D01*
X181450Y23034D01*
X181461Y23045D01*
X181478Y23056D01*
X181494Y23069D01*
X181516Y23086D01*
X181541Y23102D01*
X181595Y23132D01*
X181658Y23159D01*
X181693Y23167D01*
X181732Y23176D01*
X181770Y23181D01*
X181811Y23184D01*
X181833D01*
X181849Y23181D01*
D02*
G37*
G36*
X183110Y22316D02*
X183107Y22332D01*
Y22351D01*
Y22373D01*
X183105Y22398D01*
X183099Y22455D01*
X183091Y22521D01*
X183080Y22594D01*
X183066Y22673D01*
X183047Y22758D01*
X183023Y22845D01*
X182996Y22933D01*
X182960Y23023D01*
X182919Y23110D01*
X182873Y23195D01*
X182818Y23274D01*
X182755Y23350D01*
X182750Y23356D01*
X182739Y23367D01*
X182720Y23386D01*
X182693Y23411D01*
X182657Y23440D01*
X182613Y23473D01*
X182564Y23509D01*
X182510Y23544D01*
X182447Y23580D01*
X182379Y23615D01*
X182305Y23648D01*
X182226Y23678D01*
X182141Y23703D01*
X182051Y23722D01*
X181955Y23733D01*
X181854Y23738D01*
X183110D01*
Y22316D01*
D02*
G37*
D13*
X162598Y27953D02*
X188583D01*
Y53937D01*
X162598D02*
X188583D01*
X162598Y27953D02*
Y53937D01*
D15*
X-7677Y120209D02*
X-6365D01*
X-5709Y119553D01*
Y116929D01*
X-6365Y116273D01*
X-7677D01*
X-8332Y116929D01*
Y119553D01*
X-7677Y120209D01*
X-12268Y119553D02*
X-11612Y120209D01*
X-10300D01*
X-9644Y119553D01*
Y116929D01*
X-10300Y116273D01*
X-11612D01*
X-12268Y116929D01*
X43898Y120537D02*
Y117913D01*
X42586Y116601D01*
X41274Y117913D01*
Y120537D01*
X39962Y115945D02*
X37338D01*
X36026Y120537D02*
Y116601D01*
X33402D01*
X29467Y119881D02*
X30123Y120537D01*
X31435D01*
X32090Y119881D01*
Y119225D01*
X31435Y118569D01*
X30123D01*
X29467Y117913D01*
Y117257D01*
X30123Y116601D01*
X31435D01*
X32090Y117257D01*
X28155Y115945D02*
X25531D01*
X24219Y116601D02*
Y120537D01*
X22251D01*
X21595Y119881D01*
Y118569D01*
X22251Y117913D01*
X24219D01*
X20283Y120537D02*
Y116601D01*
X18971Y117913D01*
X17659Y116601D01*
Y120537D01*
X16348Y116601D02*
Y120537D01*
X15036Y119225D01*
X13724Y120537D01*
Y116601D01*
X84842Y120537D02*
Y117257D01*
X84187Y116601D01*
X82875D01*
X82219Y117257D01*
Y120537D01*
X80907Y115945D02*
X78283D01*
X76971Y120537D02*
Y116601D01*
X74347D01*
X70411Y119881D02*
X71067Y120537D01*
X72379D01*
X73035Y119881D01*
Y119225D01*
X72379Y118569D01*
X71067D01*
X70411Y117913D01*
Y117257D01*
X71067Y116601D01*
X72379D01*
X73035Y117257D01*
X69100Y115945D02*
X66476D01*
X65164Y116601D02*
Y120537D01*
X63196D01*
X62540Y119881D01*
Y118569D01*
X63196Y117913D01*
X65164D01*
X61228Y120537D02*
Y116601D01*
X59916Y117913D01*
X58604Y116601D01*
Y120537D01*
X57292Y116601D02*
Y120537D01*
X55980Y119225D01*
X54668Y120537D01*
Y116601D01*
X125000Y120537D02*
Y116601D01*
X123688Y117913D01*
X122376Y116601D01*
Y120537D01*
X121064Y115945D02*
X118440D01*
X117129Y120537D02*
Y116601D01*
X114505D01*
X110569Y119881D02*
X111225Y120537D01*
X112537D01*
X113193Y119881D01*
Y119225D01*
X112537Y118569D01*
X111225D01*
X110569Y117913D01*
Y117257D01*
X111225Y116601D01*
X112537D01*
X113193Y117257D01*
X109257Y115945D02*
X106633D01*
X105321Y116601D02*
Y120537D01*
X103353D01*
X102698Y119881D01*
Y118569D01*
X103353Y117913D01*
X105321D01*
X101386Y120537D02*
Y116601D01*
X100074Y117913D01*
X98762Y116601D01*
Y120537D01*
X97450Y116601D02*
Y120537D01*
X96138Y119225D01*
X94826Y120537D01*
Y116601D01*
X159384Y119881D02*
X160040Y120537D01*
X161352D01*
X162008Y119881D01*
Y117257D01*
X161352Y116601D01*
X160040D01*
X159384Y117257D01*
Y118569D01*
X160696D01*
X158072Y120537D02*
Y116601D01*
X156104D01*
X155448Y117257D01*
Y119881D01*
X156104Y120537D01*
X158072D01*
X154136Y115945D02*
X151513D01*
X150201Y120537D02*
Y116601D01*
X148233D01*
X147577Y117257D01*
Y119881D01*
X148233Y120537D01*
X150201D01*
X146265D02*
X144953D01*
X145609D01*
Y116601D01*
X146265D01*
X144953D01*
X140361Y119881D02*
X141017Y120537D01*
X142329D01*
X142985Y119881D01*
Y119225D01*
X142329Y118569D01*
X141017D01*
X140361Y117913D01*
Y117257D01*
X141017Y116601D01*
X142329D01*
X142985Y117257D01*
X-5644Y126771D02*
X-4332D01*
X-4988D01*
Y123491D01*
X-4332Y122835D01*
X-3676D01*
X-3020Y123491D01*
X-6956Y126115D02*
X-7612Y126771D01*
X-8924D01*
X-9580Y126115D01*
Y125459D01*
X-8924Y124803D01*
X-8268D01*
X-8924D01*
X-9580Y124147D01*
Y123491D01*
X-8924Y122835D01*
X-7612D01*
X-6956Y123491D01*
X-10892Y126771D02*
Y122835D01*
X-12859D01*
X-13515Y123491D01*
Y124147D01*
X-12859Y124803D01*
X-10892D01*
X-12859D01*
X-13515Y125459D01*
Y126115D01*
X-12859Y126771D01*
X-10892D01*
X153647Y127952D02*
X154959D01*
X154303D01*
Y124672D01*
X154959Y124016D01*
X155615D01*
X156271Y124672D01*
X149712Y124016D02*
X152336D01*
X149712Y126640D01*
Y127296D01*
X150368Y127952D01*
X151680D01*
X152336Y127296D01*
X145776D02*
X146432Y127952D01*
X147744D01*
X148400Y127296D01*
Y124672D01*
X147744Y124016D01*
X146432D01*
X145776Y124672D01*
Y125984D01*
X147088D01*
X113726Y127558D02*
X115038D01*
X114382D01*
Y124279D01*
X115038Y123623D01*
X115694D01*
X116350Y124279D01*
X109791Y123623D02*
X112414D01*
X109791Y126247D01*
Y126902D01*
X110446Y127558D01*
X111758D01*
X112414Y126902D01*
X105855Y127558D02*
X108478D01*
Y125591D01*
X107167D01*
X108478D01*
Y123623D01*
X33411Y127165D02*
X34723D01*
X34067D01*
Y123885D01*
X34723Y123229D01*
X35379D01*
X36035Y123885D01*
X29475Y123229D02*
X32099D01*
X29475Y125853D01*
Y126509D01*
X30131Y127165D01*
X31443D01*
X32099Y126509D01*
X28163Y127165D02*
Y123229D01*
X26196D01*
X25540Y123885D01*
Y126509D01*
X26196Y127165D01*
X28163D01*
X73884Y126771D02*
X75195D01*
X74540D01*
Y123491D01*
X75195Y122835D01*
X75851D01*
X76507Y123491D01*
X69948Y122835D02*
X72572D01*
X69948Y125459D01*
Y126115D01*
X70604Y126771D01*
X71916D01*
X72572Y126115D01*
X68636Y126771D02*
Y122835D01*
X66668D01*
X66012Y123491D01*
Y124147D01*
X66668Y124803D01*
X68636D01*
X66668D01*
X66012Y125459D01*
Y126115D01*
X66668Y126771D01*
X68636D01*
D17*
X129551Y132126D02*
Y182126D01*
X169551Y132126D02*
Y182126D01*
X129551Y132126D02*
X169551D01*
X129551Y182126D02*
X169551D01*
X-30449D02*
X9551D01*
X-30449Y132126D02*
X9551D01*
Y182126D01*
X-30449Y132126D02*
Y182126D01*
X49551Y132126D02*
Y182126D01*
X89551Y132126D02*
Y182126D01*
X49551Y132126D02*
X89551D01*
X49551Y182126D02*
X89551D01*
X9551Y132126D02*
Y182126D01*
X49551Y132126D02*
Y182126D01*
X9551Y132126D02*
X49551D01*
X9551Y182126D02*
X49551D01*
X89551Y132126D02*
Y182126D01*
X129551Y132126D02*
Y182126D01*
X89551Y132126D02*
X129551D01*
X89551Y182126D02*
X129551D01*
D73*
X208684Y69378D02*
X208571Y70433D01*
X208185Y71423D01*
X207552Y72276D01*
X206718Y72933D01*
X147741Y75665D02*
X147139Y76366D01*
X146473Y77006D01*
X145750Y77581D01*
X139613Y75660D02*
X139004Y76370D01*
X138323Y77011D01*
X137577Y77575D01*
X172534Y67008D02*
X173491Y67089D01*
X174413Y67359D01*
X215451Y77452D02*
X214898Y78043D01*
X214283Y78568D01*
X239645Y67281D02*
X240473Y67121D01*
X241311Y67028D01*
X242154Y67002D01*
X174960Y79170D02*
X173770Y79523D01*
X172534Y79633D01*
X174413Y77907D02*
X173494Y78170D01*
X172542Y78258D01*
X171590Y78170D01*
X170671Y77907D01*
X170050Y66104D02*
X171009Y65807D01*
X172002Y65656D01*
X173007D01*
X174000Y65807D01*
X174960Y66104D01*
X238616Y66191D02*
X239479Y65928D01*
X240363Y65747D01*
X241260Y65648D01*
X242163Y65633D01*
X154986Y79197D02*
X154271Y78704D01*
X153706Y78043D01*
X153330Y77260D01*
X170052Y79156D02*
X169029Y78578D01*
X168165Y77781D01*
X176847Y77804D02*
X175982Y78596D01*
X174960Y79170D01*
X235248Y70390D02*
X235497Y69473D01*
X235881Y68604D01*
X236391Y67802D01*
X137577Y77575D02*
X136548Y78073D01*
X135419Y78253D01*
X139724Y77193D02*
X139214Y77827D01*
X138626Y78389D01*
X145750Y77581D02*
X144762Y78080D01*
X143670Y78258D01*
X154516Y76276D02*
X154387Y75478D01*
X154352Y74670D01*
X159677Y77589D02*
X158630Y78084D01*
X157486Y78258D01*
X161791Y77313D02*
X161178Y77949D01*
X160503Y78518D01*
X170671Y77907D02*
X169886Y77468D01*
X169224Y76859D01*
X168165Y77781D02*
X167665Y77107D01*
X167260Y76371D01*
X166957Y75587D01*
X166957Y69687D02*
X167258Y68900D01*
X167661Y68159D01*
X168159Y67479D01*
X169025Y66683D01*
X170050Y66104D01*
X170671Y67359D02*
X171585Y67090D01*
X172534Y67008D01*
X178052Y75612D02*
X177751Y76395D01*
X177347Y77130D01*
X176847Y77804D01*
X175860Y76859D02*
X175198Y77468D01*
X174413Y77907D01*
X176839Y67471D02*
X177340Y68151D01*
X177746Y68891D01*
X178052Y69679D01*
X174960Y66104D02*
X175979Y66677D01*
X176839Y67471D01*
X188664Y109927D02*
X188525Y109844D01*
X182485Y109548D02*
X182035Y110635D01*
X205853Y73390D02*
X205362Y73581D01*
X199218Y69361D02*
X200074Y68544D01*
X202413Y67222D02*
X203790Y67008D01*
X199218Y67694D02*
X199891Y67151D01*
X200612Y66673D01*
X207933Y77262D02*
X207635Y77824D01*
X207488Y66654D02*
X208363Y67841D01*
X236391Y67802D02*
X237030Y67132D01*
X237780Y66589D01*
X238616Y66191D01*
X248328Y68346D02*
X248740Y69181D01*
X249039Y70064D01*
X242154Y67002D02*
X242989Y67027D01*
X243819Y67120D01*
X244639Y67281D01*
X137446Y79137D02*
X136242Y79521D01*
X135131Y78244D02*
X134859Y78219D01*
X133164Y79197D02*
X132450Y78636D01*
X131935Y77889D01*
X136242Y79521D02*
X135065Y79633D01*
X133010Y76817D02*
X132932Y76574D01*
X146433Y78543D02*
X145273Y79240D01*
X144233Y79558D02*
X143290Y79633D01*
X143290Y79633D02*
X142131Y79499D01*
X141060Y79033D01*
X141578Y77416D02*
X141135Y76301D01*
X163271Y111085D02*
X162185Y110635D01*
X163486Y109919D02*
X162903Y109334D01*
X159270Y79220D02*
X158127Y79546D01*
X157098Y79633D02*
X156346Y79589D01*
X155607Y79439D01*
X157486Y78258D02*
X156022Y78044D01*
X161799Y75699D02*
X161152Y76394D01*
X160443Y77026D01*
X159677Y77589D01*
X172534Y79633D02*
X171688Y79587D01*
X170855Y79427D01*
X170052Y79156D01*
X169224Y68424D02*
X169884Y67804D01*
X170671Y67359D01*
X174413D02*
X175201Y67804D01*
X175860Y68424D01*
X181761Y87142D02*
X182851Y86685D01*
X205902Y79185D02*
X205558Y79304D01*
X203673Y78235D02*
X202957Y78258D01*
X203933Y79597D02*
X203465Y79624D01*
X202957Y78258D02*
X201928Y78201D01*
X200930Y77949D01*
X202971Y79633D02*
X201766Y79561D01*
X200590Y79290D01*
X200590D02*
X199733Y78892D01*
X198995Y78303D01*
X205787Y77675D02*
X205589Y77786D01*
X199814Y77098D02*
X199329Y75819D01*
X201585Y74191D02*
X200818Y74204D01*
X203651Y74001D02*
X203002Y74090D01*
X205809Y71971D02*
X205498Y72134D01*
X203945Y72615D02*
X203479Y72692D01*
X202457Y72795D02*
X201312Y72830D01*
X205730Y67331D02*
X206353Y67668D01*
X201156Y67780D02*
X202413Y67222D01*
X203227Y65719D02*
X204527Y65633D01*
X200612Y66673D02*
X201936Y66037D01*
X204527Y65633D02*
X205360Y65696D01*
X206172Y65898D01*
X212716Y78018D02*
X211570Y78258D01*
X213167Y79240D02*
X212119Y79558D01*
X214707Y76516D02*
X213773Y77391D01*
X223143Y110799D02*
X222728Y110970D01*
X221778Y86685D02*
X222864Y87136D01*
X223314Y88224D01*
X220453Y67164D02*
X221259Y67242D01*
X222439Y66037D02*
X223275Y66785D01*
X237807Y68321D02*
X238652Y67669D01*
X239645Y67281D01*
X244639Y67281D02*
X245628Y67670D01*
X246476Y68313D01*
X242163Y65633D02*
X243139Y65659D01*
X244108Y65777D01*
X245062Y65984D01*
X245062Y65984D02*
X246107Y66370D01*
X247064Y66938D01*
X166957Y75587D02*
X166723Y74619D01*
X166582Y73632D01*
X166535Y72637D01*
X166582Y71642D01*
X166723Y70656D01*
X166957Y69687D01*
X168282Y75108D02*
X168065Y74137D01*
X167955Y73148D01*
Y72154D01*
X168065Y71165D01*
X168282Y70195D01*
X176794Y70195D02*
X177005Y71166D01*
X177110Y72154D01*
X177110Y73148D01*
X177005Y74136D01*
X176794Y75108D01*
X178052Y69679D02*
X178289Y70653D01*
X178432Y71645D01*
X178480Y72645D01*
X178432Y73647D01*
X178289Y74638D01*
X178052Y75612D01*
X141060Y79033D02*
X140233Y78228D01*
X139724Y77193D01*
X207290Y69514D02*
X207121Y70502D01*
X206604Y71360D01*
X205809Y71971D01*
X236692Y70426D02*
X237120Y69305D01*
X237807Y68321D01*
X246476Y68313D02*
X247181Y69293D01*
X247619Y70418D01*
X249039Y70064D02*
X249237Y71001D01*
X249342Y71954D01*
X132771Y75718D02*
X132741Y75390D01*
X131377Y75710D02*
X131340Y74790D01*
X131935Y77889D02*
X131674Y77260D01*
X133758Y77843D02*
X133314Y77416D01*
X141135Y76301D02*
X141034Y75488D01*
X141007Y74670D01*
X142415Y78052D02*
X141578Y77416D01*
X147741Y77313D02*
X147118Y77961D01*
X146433Y78543D01*
X152999Y75710D02*
X152957Y74790D01*
X156022Y78044D02*
X155052Y77391D01*
X162185Y110635D02*
X161735Y109548D01*
X169224Y76859D02*
X168663Y76032D01*
X168282Y75108D01*
X168282Y70195D02*
X168664Y69262D01*
X169224Y68424D01*
X176794Y75108D02*
X176419Y76032D01*
X175860Y76859D01*
X175860Y68424D02*
X176418Y69261D01*
X176794Y70195D01*
X186848Y110676D02*
X186944Y109858D01*
X199329Y75819D02*
X199249Y75013D01*
X199226Y74204D01*
X198102Y76739D02*
X197888Y75714D01*
X197824Y74670D01*
X198995Y78303D02*
X198455Y77574D01*
X198102Y76739D01*
X200930Y77949D02*
X199814Y77098D01*
X204210Y109756D02*
X203796Y109927D01*
X205550Y109548D02*
X205100Y110635D01*
X205589Y77786D02*
X205371Y77885D01*
X204705Y67067D02*
X204982Y67113D01*
X206353Y67668D02*
X207060Y68470D01*
X207290Y69514D01*
X208363Y67841D02*
X208608Y68592D01*
X208684Y69378D01*
X213773Y77391D02*
X212716Y78018D01*
X215451Y75512D02*
X214707Y76516D01*
X222218Y68340D02*
X222341Y69656D01*
X223275Y66785D02*
X223649Y68028D01*
X223649D02*
X223717Y68900D01*
X223735Y69774D01*
X234919Y73858D02*
X234947Y72695D01*
X235057Y71537D01*
X235248Y70390D01*
X236313Y73914D02*
X236320Y73035D01*
X236385Y72157D01*
X236510Y71286D01*
X236692Y70426D01*
X247619Y70418D02*
X247806Y71280D01*
X247934Y72153D01*
X248002Y73032D01*
X248010Y73914D01*
X247064Y66938D02*
X247767Y67578D01*
X248328Y68346D01*
X249394Y73110D02*
X249403Y73675D01*
X132813Y76025D02*
X132771Y75718D01*
X132932Y76574D02*
X132867Y76310D01*
X131674Y77260D02*
X131488Y76533D01*
X132867Y76310D02*
X132813Y76025D01*
X131488Y76533D02*
X131377Y75710D01*
X132741Y75390D02*
X132717Y74670D01*
X134145Y78044D02*
X133942Y77952D01*
X134365Y78119D02*
X134145Y78044D01*
X134603Y78177D02*
X134365Y78119D01*
X134859Y78219D02*
X134603Y78177D01*
X133723Y79439D02*
X133164Y79197D01*
X133942Y77952D02*
X133758Y77843D01*
X135065Y79633D02*
X133723Y79439D01*
X133099Y77038D02*
X133010Y76817D01*
X133201Y77238D02*
X133099Y77038D01*
X133314Y77416D02*
X133201Y77238D01*
X135419Y78253D02*
X135131Y78244D01*
X138626Y78389D02*
X137446Y79137D01*
X143670Y78258D02*
X142415Y78052D01*
X145273Y79240D02*
X144233Y79558D01*
X153123Y76533D02*
X152999Y75710D01*
X153330Y77260D02*
X153123Y76533D01*
X154694Y86861D02*
X155110Y86685D01*
X155110Y87867D02*
X154527Y87281D01*
X154527Y87281D02*
X154694Y86861D01*
X155607Y79439D02*
X154986Y79197D01*
X155052Y77391D02*
X154516Y76276D01*
X158127Y79546D02*
X157098Y79633D01*
X160503Y78518D02*
X159270Y79220D01*
X161563Y88036D02*
X161735Y88449D01*
X161149Y87867D02*
X161563Y88036D01*
X161367Y86685D02*
X162453Y87136D01*
X162903Y88224D01*
X182035Y110635D02*
X180949Y111085D01*
X181317Y109334D02*
X180734Y109919D01*
X181317Y88238D02*
X181761Y87142D01*
X182657Y88025D02*
X183071Y87855D01*
X182485Y88438D02*
X182657Y88025D01*
X187563Y111085D02*
X186848Y110676D01*
X188525Y109844D02*
X188539Y109682D01*
X197732Y86685D02*
X198146Y86856D01*
X198317Y87270D02*
X198146Y87684D01*
X197732Y87855D01*
X198146Y86856D02*
X198317Y87270D01*
X200074Y68544D02*
X201156Y67780D01*
X203465Y79624D02*
X202971Y79633D01*
X202313Y74153D02*
X201585Y74191D01*
X203002Y74090D02*
X202313Y74153D01*
X202984Y72752D02*
X202457Y72795D01*
X203479Y72692D02*
X202984Y72752D01*
X201936Y66037D02*
X203227Y65719D01*
X205100Y110635D02*
X204014Y111085D01*
X204382Y109342D02*
X204210Y109756D01*
X204964Y93733D02*
X205378Y93905D01*
X205550Y94319D01*
X204382D02*
X204551Y93905D01*
X204964Y93733D01*
X204588Y87934D02*
X204711Y87870D01*
X203654Y87242D02*
X204711Y86685D01*
X204880Y78048D02*
X204607Y78113D01*
X205135Y77973D02*
X204880Y78048D01*
X205371Y77885D02*
X205135Y77973D01*
X205558Y79304D02*
X205189Y79405D01*
X205189D02*
X204796Y79488D01*
X204003Y78206D02*
X203673Y78235D01*
X204314Y78165D02*
X204003Y78206D01*
X204377Y79552D02*
X203933Y79597D01*
X204607Y78113D02*
X204314Y78165D01*
X204796Y79488D02*
X204377Y79552D01*
X205362Y73581D02*
X204831Y73746D01*
X204260Y73886D02*
X203651Y74001D01*
X204831Y73746D02*
X204260Y73886D01*
X205155Y72280D02*
X204783Y72409D01*
X205498Y72134D02*
X205155Y72280D01*
X204379Y72520D02*
X203944Y72615D01*
X204783Y72409D02*
X204379Y72520D01*
X205245Y67173D02*
X205730Y67331D01*
X204982Y67113D02*
X205245Y67173D01*
X204109Y67014D02*
X204414Y67034D01*
X203790Y67008D02*
X204109Y67014D01*
X204414Y67034D02*
X204705Y67067D01*
X206220Y79047D02*
X205902Y79185D01*
X207635Y77824D02*
X206782Y78716D01*
X206782Y78716D02*
X206220Y79047D01*
X206902Y75905D02*
X206551Y76920D01*
X205787Y77675D01*
X206718Y72933D02*
X205853Y73390D01*
X206172Y65898D02*
X206867Y66211D01*
X207488Y66654D01*
X208145Y76622D02*
X208049Y76952D01*
X208049D02*
X207933Y77262D01*
X208271Y75905D02*
X208145Y76622D01*
X212119Y79558D02*
X211202Y79633D01*
X211065Y78258D02*
X210650Y78225D01*
X214283Y78568D02*
X213168Y79240D01*
X219912Y67169D02*
X219945Y67167D01*
X219846Y67176D02*
X219912Y67169D01*
X219812Y67181D02*
X219846Y67176D01*
X220403Y65803D02*
X220579Y65793D01*
X222728Y110970D02*
X222146Y110385D01*
X221974Y88039D02*
X222146Y88452D01*
X221560Y87870D02*
X221974Y88039D01*
X221856Y67585D02*
X222218Y68340D01*
X221259Y67242D02*
X221856Y67585D01*
X220991Y65786D02*
X222439Y66037D01*
X223314Y110385D02*
X223143Y110799D01*
X249373Y72537D02*
X249394Y73110D01*
X182432Y83411D02*
X195236Y67797D01*
X188539Y109682D02*
X204588Y87934D01*
X186944Y109858D02*
X203654Y87242D01*
X188664Y109927D02*
X203796D01*
X187563Y111085D02*
X204014D01*
X155110Y86685D02*
X161367D01*
X155110Y87867D02*
X161149D01*
X182851Y86685D02*
X197732D01*
X183071Y87855D02*
X197732D01*
X181005Y84788D02*
X194110D01*
X182432Y83411D02*
X194110D01*
X180648Y65976D02*
X195236D01*
X181005Y82948D02*
X193831Y67351D01*
X163271Y111085D02*
X180949D01*
X163486Y109919D02*
X180734D01*
X180648Y67351D02*
X193831D01*
X204711Y86685D02*
X221778D01*
X204711Y87870D02*
X221560D01*
X223735Y77915D02*
X225450D01*
X223735Y79290D02*
X225450D01*
X147741D02*
X149135D01*
X147741Y65976D02*
X149135D01*
X161799Y84788D02*
X163193D01*
X161799Y65976D02*
X163193D01*
X199226Y74204D02*
X200818D01*
X199218Y72830D02*
X201312D01*
X206902Y75905D02*
X208271D01*
X222341Y82781D02*
X223735D01*
X215451Y79290D02*
X216845D01*
X220141Y77918D02*
X222341D01*
X220141Y79293D02*
X222341D01*
X220756Y65788D02*
X220815Y65787D01*
X215451Y65976D02*
X216845D01*
X228684Y84788D02*
X230078D01*
X228684Y65976D02*
X230078D01*
X234919Y84788D02*
X236313D01*
X248010D02*
X249404D01*
X132717Y65976D02*
Y74670D01*
X131323Y65976D02*
X131340Y74790D01*
X141007Y65970D02*
Y74670D01*
X139613Y65970D02*
Y75660D01*
X147741Y65976D02*
Y75665D01*
X149135Y65976D02*
Y79290D01*
X154352Y65976D02*
Y74670D01*
X152957Y65976D02*
Y74790D01*
X161799Y65976D02*
Y75699D01*
X162903Y88224D02*
Y109334D01*
X161735Y88449D02*
Y109548D01*
X163193Y65976D02*
Y84788D01*
X181317Y88238D02*
Y109334D01*
X182485Y88438D02*
Y109548D01*
X197824Y65976D02*
Y74670D01*
X205550Y94319D02*
Y109548D01*
X204382Y94319D02*
Y109342D01*
X215451Y65976D02*
Y75512D01*
X216845Y65976D02*
Y79290D01*
X222341Y69656D02*
Y77918D01*
X222146Y88452D02*
Y110385D01*
X223735Y69774D02*
Y77915D01*
X223314Y88224D02*
Y110385D01*
X228684Y65976D02*
Y84788D01*
X230078Y65976D02*
Y84788D01*
X234919Y73858D02*
Y84788D01*
X236313Y73914D02*
Y84788D01*
X248010Y73914D02*
Y84788D01*
X249404Y73861D02*
Y84788D01*
X147741Y77313D02*
Y79290D01*
X161791Y77313D02*
X161799Y84788D01*
X199218Y69361D02*
Y72830D01*
X215451Y77452D02*
Y79290D01*
X181005Y82948D02*
Y84788D01*
X180648Y65976D02*
Y67351D01*
X194110Y83411D02*
Y84788D01*
X195236Y65976D02*
Y67797D01*
X199218Y65976D02*
Y67694D01*
X219812Y67181D02*
X219815Y65856D01*
X222341Y79293D02*
Y82781D01*
X223735Y79290D02*
Y82781D01*
X131323Y65976D02*
X132717D01*
X139613Y65970D02*
X141007D01*
X152957Y65976D02*
X154352D01*
X197824D02*
X199218D01*
X211065Y78258D02*
X211570D01*
X210664Y79608D02*
X210942Y79633D01*
X210650Y78225D02*
X210664Y79608D01*
X210942Y79633D02*
X211202D01*
X220141Y77918D02*
Y79293D01*
X220124Y67164D02*
X220453D01*
X220067Y67164D02*
X220124Y67164D01*
X220038Y67164D02*
X220067Y67164D01*
X220007Y67165D02*
X220038Y67164D01*
X219976Y67166D02*
X220007Y67165D01*
X219945Y67167D02*
X219976Y67166D01*
X219815Y65856D02*
X219991Y65837D01*
X220109Y65826D01*
X220227Y65816D01*
X220344Y65807D01*
X220403Y65803D01*
X220579Y65793D02*
X220638Y65791D01*
X220697Y65790D01*
X220756Y65788D01*
X220815Y65787D02*
X220874Y65787D01*
X220933Y65786D01*
X220991Y65786D01*
X225450Y77915D02*
Y79290D01*
X249403Y73675D02*
X249404Y73861D01*
X249342Y71954D02*
X249373Y72537D01*
M02*
