G04*
G04 #@! TF.GenerationSoftware,Altium Limited,Altium Designer,24.10.1 (45)*
G04*
G04 Layer_Color=16711935*
%FSLAX25Y25*%
%MOIN*%
G70*
G04*
G04 #@! TF.SameCoordinates,0A93E4DB-C83B-47C1-B495-C13E3F0CF61A*
G04*
G04*
G04 #@! TF.FilePolarity,Negative*
G04*
G01*
G75*
%ADD53R,0.02559X0.11417*%
%ADD54C,0.06591*%
%ADD55C,0.09646*%
%ADD56C,0.04784*%
%ADD57C,0.06102*%
%ADD58R,0.05984X0.05984*%
%ADD59C,0.05984*%
%ADD60C,0.13976*%
%ADD61C,0.02362*%
D53*
X220126Y-14000D02*
D03*
X216976D02*
D03*
X213827D02*
D03*
X210677D02*
D03*
X207528D02*
D03*
X204378D02*
D03*
X201228D02*
D03*
X198079D02*
D03*
X194929D02*
D03*
X191779D02*
D03*
X188630D02*
D03*
X185480D02*
D03*
X182331D02*
D03*
X179181D02*
D03*
X176031D02*
D03*
X172882D02*
D03*
X169732D02*
D03*
X166583D02*
D03*
X163433D02*
D03*
X160284D02*
D03*
X157134D02*
D03*
X153984D02*
D03*
X150835D02*
D03*
X147685D02*
D03*
X144535D02*
D03*
X141386D02*
D03*
X138236D02*
D03*
X135087D02*
D03*
X131937D02*
D03*
X128787D02*
D03*
X125638D02*
D03*
X122488D02*
D03*
X106740D02*
D03*
X103591D02*
D03*
X100441D02*
D03*
X97291D02*
D03*
X94142D02*
D03*
X90992D02*
D03*
X87843D02*
D03*
X84693D02*
D03*
X81543D02*
D03*
X78394D02*
D03*
X75244D02*
D03*
X72095D02*
D03*
X68945D02*
D03*
X65795D02*
D03*
X62646D02*
D03*
X59496D02*
D03*
X56346D02*
D03*
X53197D02*
D03*
X50047D02*
D03*
X46898D02*
D03*
X43748D02*
D03*
X40598D02*
D03*
X37449D02*
D03*
X34299D02*
D03*
X31150D02*
D03*
X28000D02*
D03*
X24850D02*
D03*
X21701D02*
D03*
D54*
X113858Y189449D02*
D03*
X143858D02*
D03*
X123858Y159449D02*
D03*
X113858D02*
D03*
X143858D02*
D03*
X133858D02*
D03*
X33858Y189449D02*
D03*
X63858D02*
D03*
X43858Y159449D02*
D03*
X33858D02*
D03*
X63858D02*
D03*
X53858D02*
D03*
X73858Y189449D02*
D03*
X103858D02*
D03*
X83858Y159449D02*
D03*
X73858D02*
D03*
X103858D02*
D03*
X93858D02*
D03*
X13858D02*
D03*
X23858D02*
D03*
X-6142D02*
D03*
X3858D02*
D03*
X23858Y189449D02*
D03*
X-6142D02*
D03*
X144551Y142126D02*
D03*
X134551D02*
D03*
X164551D02*
D03*
X154551D02*
D03*
X134551Y172126D02*
D03*
X164551D02*
D03*
X4551D02*
D03*
X-25449D02*
D03*
X-5449Y142126D02*
D03*
X4551D02*
D03*
X-25449D02*
D03*
X-15449D02*
D03*
X64551Y142126D02*
D03*
X54551D02*
D03*
X84551D02*
D03*
X74551D02*
D03*
X54551Y172126D02*
D03*
X84551D02*
D03*
X24551Y142126D02*
D03*
X14551D02*
D03*
X44551D02*
D03*
X34551D02*
D03*
X14551Y172126D02*
D03*
X44551D02*
D03*
X104551Y142126D02*
D03*
X94551D02*
D03*
X124551D02*
D03*
X114551D02*
D03*
X94551Y172126D02*
D03*
X124551D02*
D03*
D55*
X187106Y186388D02*
D03*
X248031D02*
D03*
D56*
X195020Y174606D02*
D03*
X240020D02*
D03*
D57*
X200039Y139606D02*
D03*
X205039Y149606D02*
D03*
X210039Y139606D02*
D03*
X215039Y149606D02*
D03*
X220039Y139606D02*
D03*
X225039Y149606D02*
D03*
X230039Y139606D02*
D03*
X235039Y149606D02*
D03*
D58*
X208855Y9879D02*
D03*
D59*
X198855D02*
D03*
X208855Y19879D02*
D03*
X198855D02*
D03*
X208855Y29879D02*
D03*
X198855D02*
D03*
D60*
X89673Y97103D02*
D03*
D61*
X191339Y88189D02*
D03*
X187896Y43354D02*
D03*
X194488Y61885D02*
D03*
X148699Y23557D02*
D03*
X148761Y11859D02*
D03*
X119193Y84866D02*
D03*
X93110Y69206D02*
D03*
X119959Y68508D02*
D03*
X113989Y69860D02*
D03*
X147709Y43941D02*
D03*
X147746Y49319D02*
D03*
X154744Y26436D02*
D03*
X124054Y64891D02*
D03*
X131478Y54867D02*
D03*
X148849Y69961D02*
D03*
X112600Y49076D02*
D03*
X95496Y37033D02*
D03*
X99856Y42103D02*
D03*
X92943Y53706D02*
D03*
X-7838Y46727D02*
D03*
X2237Y40944D02*
D03*
X-4972Y57363D02*
D03*
X-9909Y57343D02*
D03*
X-24859Y57244D02*
D03*
X-19962Y57324D02*
D03*
X158704Y43811D02*
D03*
X130156Y23707D02*
D03*
X164976Y26399D02*
D03*
X175180Y26432D02*
D03*
X248695Y107945D02*
D03*
X195160Y107251D02*
D03*
X69625Y90280D02*
D03*
X70511Y95594D02*
D03*
X250000Y53937D02*
D03*
X247846Y61939D02*
D03*
X243979Y88871D02*
D03*
X-6889Y104778D02*
D03*
X10622Y71557D02*
D03*
X-29945Y71110D02*
D03*
X30565Y50100D02*
D03*
X35513Y50036D02*
D03*
X33121Y46839D02*
D03*
X-2798Y114480D02*
D03*
X358Y121975D02*
D03*
X27996Y104466D02*
D03*
X32163Y114231D02*
D03*
X35480Y121756D02*
D03*
X118110Y112992D02*
D03*
X124803Y89370D02*
D03*
X127953Y97244D02*
D03*
X161024Y90945D02*
D03*
X164173Y98425D02*
D03*
X165354Y120866D02*
D03*
X168558Y128761D02*
D03*
X133071Y121260D02*
D03*
X136247Y129041D02*
D03*
X98032Y120866D02*
D03*
X101473Y128560D02*
D03*
X47244Y112598D02*
D03*
X62205Y120866D02*
D03*
X64961Y128740D02*
D03*
X151101Y-6913D02*
D03*
X75197D02*
D03*
X59449D02*
D03*
X37894D02*
D03*
X203937Y29921D02*
D03*
Y20079D02*
D03*
X106693Y-6913D02*
D03*
X210677D02*
D03*
X198026D02*
D03*
X191732D02*
D03*
X175984D02*
D03*
X165748D02*
D03*
X88589Y13773D02*
D03*
X129921Y11811D02*
D03*
X164961Y9055D02*
D03*
X154724D02*
D03*
X175197D02*
D03*
X203543Y9843D02*
D03*
X154579Y68201D02*
D03*
X251181Y99606D02*
D03*
X117717Y102362D02*
D03*
X127953D02*
D03*
X62598Y103150D02*
D03*
X72691D02*
D03*
X263000Y88003D02*
D03*
X166188Y40612D02*
D03*
X124193Y44097D02*
D03*
X112598Y44094D02*
D03*
X110366Y81245D02*
D03*
X54461Y82284D02*
D03*
X82919Y112710D02*
D03*
X150000Y112598D02*
D03*
X145669Y82677D02*
D03*
X-9843Y126378D02*
D03*
X293Y126819D02*
D03*
X25197Y126378D02*
D03*
X35433D02*
D03*
X55118Y133465D02*
D03*
X65354D02*
D03*
X91339D02*
D03*
X101376Y133563D02*
D03*
X126091Y133644D02*
D03*
X136327D02*
D03*
X158268Y133465D02*
D03*
X168517Y133563D02*
D03*
X154457Y103492D02*
D03*
X164238Y103362D02*
D03*
X200787Y96457D02*
D03*
X197638Y99213D02*
D03*
X20646Y50123D02*
D03*
X15656Y50136D02*
D03*
X129379Y40194D02*
D03*
X87795Y70472D02*
D03*
X40551Y71653D02*
D03*
X158582Y64118D02*
D03*
X73334Y65741D02*
D03*
X64961Y79921D02*
D03*
X262598Y181496D02*
D03*
X668Y101747D02*
D03*
X35433Y71653D02*
D03*
X25591D02*
D03*
X20472D02*
D03*
X33071Y40945D02*
D03*
X42913D02*
D03*
X-7864Y41084D02*
D03*
X144488Y-1969D02*
D03*
X92032Y116607D02*
D03*
X63386Y86221D02*
D03*
X55512Y116535D02*
D03*
X126484Y116715D02*
D03*
X170079Y75590D02*
D03*
X252191Y69590D02*
D03*
X253680Y86221D02*
D03*
X251220D02*
D03*
X198819Y69685D02*
D03*
X196850Y53543D02*
D03*
X200000Y51181D02*
D03*
X187685Y82567D02*
D03*
X160438Y-6080D02*
D03*
X257480Y69685D02*
D03*
X204331D02*
D03*
X210630Y82677D02*
D03*
X211417Y126378D02*
D03*
X188583D02*
D03*
X263779Y82677D02*
D03*
X240945D02*
D03*
X253937Y116929D02*
D03*
X248031D02*
D03*
X194882Y114961D02*
D03*
X200599Y115021D02*
D03*
X241862Y129167D02*
D03*
X169936Y90714D02*
D03*
X264961Y129134D02*
D03*
X254134Y96850D02*
D03*
X253199Y51181D02*
D03*
M02*
