M48
;Layer_Color=9474304
;FILE_FORMAT=2:4
INCH,TZ
;TYPE=PLATED
T01F00S00C0.0118
T02F00S00C0.0350
T03F00S00C0.0354
T04F00S00C0.0380
T05F00S00C0.0402
T06F00S00C0.0630
;TYPE=NON_PLATED
T07F00S00C0.1260
T08F00S00C0.1280
%
T01
X3115Y-669
X-817Y5394
X-1137Y5118
X-602Y6194
X4734Y6188
X4498Y5354
X4183Y5118
X5394Y4335
X6585Y3543
X6665Y2643
X7686Y2640
X8709Y2643
X9313Y2356
X9307Y1186
X8711Y905
X7687
X6663
X6585Y-669
X7529
X8150
X9094
X9331Y-276
X11182Y1181
X11168Y2371
X11288Y3976
X11764Y4410
X12923Y4409
X12925Y4905
X14197Y4210
X14634Y3703
X14889Y5371
X15482Y6772
X16850Y6574
X12864Y6852
X12187Y6851
X11841Y6489
X11048Y5487
X9409Y4932
X9412Y4394
X8313Y4381
X7564Y4061
X8325Y6412
X8725Y6820
X14120Y1614
X15166
X15324Y1377
X15325Y1929
X16742Y-669
X18228
X13514
X5000
X4380
X21102
X20128Y1220
X22254Y2165
X22119Y5012
X22617Y5014
X21127Y5010
X20632Y5004
X20871Y4684
X20876Y4094
X19892
X23959Y4094
X24969Y4108
X24967Y4673
X25174Y5734
X24680Y5736
X26179Y5732
X26669Y5724
X27178Y7111
X23121Y7156
X22136Y7165
X21624
X20640
X20128
X21383Y10447
X20967Y11423
X20635Y12176
X20640Y12638
X21663
X24154Y12682
X24147Y12197
X24463Y11448
X24872Y10478
X24116Y10175
X25167Y12638
X19459Y11260
X18632Y11653
X17963Y12087
X17687Y12874
X17648Y13346
X18671
X18425Y10276
X17416
X17634Y9520
X17723Y8989
X18346Y8583
X18189Y7953
X19291Y8504
X16179Y8426
X15197Y8581
X14636Y9031
X14321Y9818
Y10330
X15325
X15891Y11271
X14980Y11661
X14380Y12087
X14036Y12856
X14045Y13356
X15049Y13346
X11574Y13364
X10550
X10558Y12904
X10876Y12126
X11535Y11671
X12372Y11299
X11859Y10244
X10881Y10231
X10849Y9698
X10544Y9967
X11202Y8989
X12737Y8162
X14370Y7047
X15433Y7008
X15512Y7283
X9298Y6996
X7175Y7559
X5415Y8257
X5049Y8819
X4419Y9921
X4104Y9646
X4667Y10725
X4695Y11496
X4123Y11502
X5325Y12638
X7327Y12876
X7331Y13356
X8356Y13346
X7648Y12087
X9183Y11260
X4301Y6968
X3750
X3120Y8268
X89
X-215Y8887
X-939Y8622
X-1185
X-1230Y9685
X-935Y9961
X-686Y10794
X-630Y11772
X-1295Y11777
X-2313Y12913
X-150Y13063
X3041Y12638
X-2117Y8800
X-2195Y8268
X-1565Y6968
X-1036Y6959
X-2874Y18386
T02
X19728Y17213
X20797Y18945
X21797
X22728Y17213
X23728
X24797Y18945
X26728Y17213
X18728Y17213
X17797Y18945
X16797
X15728Y17213
X14728Y17213
X13797Y18945
X12797
X11728Y17213
X10728
X9797Y18945
X7728Y17213
T03
X333Y14298
X1333
X2333
X3333
X2833Y15298
X1833
X833
X-167
T04
X19728Y14213
X20728
X21728
X22728
X23728
X24728
X25728
X26728
X24797Y15945
X23797
X22797
X21797
X20797
X19797
X18797
X17797
X16797
X15797
X14797
X13797
X12797
X11797
X10797
X9797
X9728Y14213
X8728
X7728
X10728
X11728
X12728
X13728
X14728
X15728Y14213
X16728
X17728
X18728
T05
X3298Y988
Y1988
Y2988
X4298
Y1988
Y988
T06
X4626Y18976
X-1467
T07
X9027Y9624
T08
X-665Y17798
X3835
M30
