M48
;Layer_Color=9474304
;FILE_FORMAT=2:4
INCH,TZ
;TYPE=PLATED
T01F00S00C0.0118
T02F00S00C0.0350
T03F00S00C0.0354
T04F00S00C0.0380
T05F00S00C0.0402
T06F00S00C0.0630
;TYPE=NON_PLATED
T07F00S00C0.1260
T08F00S00C0.1280
%
T01
X3115Y-669
X-817Y5394
X-1137Y5118
X-602Y6194
X4734Y6188
X4498Y5354
X4183Y5118
X5394Y4335
X6585Y3543
X6665Y2643
X7686Y2640
X8709Y2643
X9313Y2356
X9307Y1186
X8711Y905
X7687
X6663
X6585Y-669
X7529
X8132Y-590
X9094Y-669
X9331Y-276
X9488Y-39
X11490Y505
X11182Y1181
X11168Y2371
X11288Y3976
X11764Y4410
X12923Y4409
X12925Y4905
X14197Y4210
X14634Y3703
X14889Y5371
X15482Y6772
X16850Y6574
X16850Y3819
X19321Y4045
X18937Y2835
X18622Y709
X18228Y-669
X16742
X13514
X14120Y1614
X15166
X15324Y1377
X15325Y1929
X12864Y6852
X12187Y6851
X11841Y6489
X11048Y5487
X9409Y4932
X9412Y4394
X8313Y4381
X7564Y4061
X8325Y6412
X8725Y6820
X19370Y6811
X5000Y-669
X4380
X19803Y118
X20128Y1220
X20354Y2913
X19685Y2992
X22254Y2165
X21102Y-669
X20472Y11968
X19961Y12677
X20354Y13543
X20315Y14331
X21142Y14291
Y14567
Y14843
Y15118
X20630Y15630
X20276Y16535
X19803
X19656Y20702
X24480Y22373
X18789Y22474
X17780
X17998Y21718
X18087Y21187
X18711Y20781
X18553Y20151
X16544Y20624
X15561Y20779
X15000Y21229
X14685Y22017
Y22528
X15689
X12223Y22442
X11245Y22429
X11213Y21897
X10909Y22166
X11566Y21187
X13102Y20360
X12916Y19804
X12756Y16772
X13425
X14488Y17244
Y14764
X14370Y14488
Y14213
X14488Y13937
X13386Y13425
X11693Y13937
X11417Y15236
X9409Y15354
Y15945
Y14685
Y14173
X9134Y13583
X8386Y13032
X8110
X7717Y13898
X8110Y16378
X8386
X11693Y17283
X11417Y11929
X11693Y10551
X13386Y10039
X14488Y10512
X14331Y10748
Y11024
X14488Y11417
X17165Y10709
X18346
Y10197
Y9724
X18504Y8386
X18976
X19409Y8819
X18307Y6969
X15433Y7008
X15512Y7283
X14331Y7323
Y7598
X14488Y8031
X14370Y7047
X11457Y8543
X9298Y6996
X7165Y7559
X5415Y8257
X5049Y8819
X4419Y9921
X4104Y9646
X4667Y10725
X4695Y11496
X4123Y11502
X5325Y12638
X4301Y6968
X17165Y12205
X17165Y12717
X17165Y13583
Y14094
Y14528
X17126Y15079
X17205Y16063
X17165Y16575
X18346Y16063
Y15591
Y15079
X19291Y14852
Y14606
X18110Y14094
X19528Y12677
X3041Y12638
X-150Y13063
X-630Y11772
X-1295Y11777
X-686Y10794
X-935Y9961
X-1230Y9685
X-1185Y8622
X-939
X-215Y8887
X89Y8268
X-2195
X-2117Y8800
X-1565Y6968
X-1036Y6959
X3750Y6968
X3120Y8268
X-2313Y12913
X-2874Y30974
X7696Y25554
X7691Y25074
X8012Y24285
X8720Y25545
X10915Y25562
X10923Y25102
X11240Y24324
X11899Y23870
X12736Y23497
X14744Y24285
X15344Y23859
X16255Y23469
X17244Y22953
X18327Y24285
X18051Y25072
X18012Y25545
X17598Y25551
X19035Y25545
X18996Y23852
X15413Y25545
X14410Y25554
X14400Y25054
X11938Y25562
X9547Y23458
X19823
X21331Y23621
X20999Y24374
X21004Y24836
X22028
X21748Y22645
X25236Y22676
X24827Y23646
X24511Y24396
X24518Y24880
X25532Y24836
T02
X7728Y29811
X10728
X11728
X12797Y31543
X13797
X14728Y29811
X15728
X16797Y31543
X17797
X18728Y29811
X9797Y31543
X20797
X21797
X22728Y29811
X23728
X24797Y31543
X26728Y29811
X19728
T03
X333Y26897
X1333
X2333
X3333
X2833Y27897
X1833
X833
X-167
T04
X7728Y26811
X8728
X9728
X10728
X11728
X12728
X13728
X14728
X15728
X16728
X17728
X18728
X18797Y28543
X17797
X16797
X15797
X14797
X13797
X12797
X11797
X10797
X9797
X19797
X20797
X21797
X22797
X23797
X24797
X24728Y26811
X25728
X26728
X23728
X22728
X21728
X20728
X19728
T05
X3298Y988
Y1988
Y2988
X4298
Y1988
Y988
X8016Y8055
X9016
Y9055
X8016
Y10055
X9016
T06
X-1467Y31575
X4626
T07
X25197Y7087
Y18898
X8268
X2953Y14961
T08
X-665Y30397
X3835
M30
