M48
;Layer_Color=9474304
;FILE_FORMAT=2:4
INCH,TZ
;TYPE=PLATED
T01F00S00C0.0118
T02F00S00C0.0350
T03F00S00C0.0354
T04F00S00C0.0380
T05F00S00C0.0402
T06F00S00C0.0630
;TYPE=NON_PLATED
T07F00S00C0.1260
T08F00S00C0.1280
%
T01
X3789Y-691
X3307Y4094
X3312Y4684
X3551Y5004
X3057Y5010
X2065Y5012
X1566Y5014
X224Y4094
X-786Y4108
X-784Y4673
X-991Y5734
X-497Y5736
X-1996Y5732
X-2486Y5724
X4291Y4094
X7333Y6574
X9294Y5371
X9986Y4210
X9550Y3703
X11260Y4409
X11260Y4908
X12419Y4410
X12938Y4019
X13148Y5487
X12405Y6489
X11996Y6851
X15458Y6820
X15858Y6412
X15870Y4381
X16619Y4061
X16498Y2640
X17518Y2643
X17520Y906
X16496
X15472
X14876Y1186
X14870Y2356
X15474Y2644
X14771Y4394
X14775Y4932
X13016Y2371
X12992Y1181
X14449Y-197
X15110Y-691
X16044Y-608
X16575Y-691
X17598
X19173
X19803
X21068
X20354Y984
X20394Y2008
Y2992
X20000Y5118
X19685Y5354
X19449Y6189
X18790Y4335
X8859Y1377
X7520Y-691
X5945
X10669
X25000Y5394
X25320Y5118
X24785Y6194
X25219Y6959
X25748Y6969
X26378Y8268
X26300Y8800
X25368Y8622
X25122
X24398Y8887
X24094Y8268
X25118Y9961
X25413Y9685
X24870Y10794
X24803Y11693
X25394
X26496Y12913
X24186Y12917
X21142Y12638
X26260Y18150
X20060Y11502
X19488Y11496
X19516Y10725
X19764Y9921
X20079Y9646
X19134Y8819
X18768Y8257
X21063Y8268
X20433Y6969
X19882
X17008Y7559
X16994Y9071
X16102Y9094
X16417Y9843
X16424Y10336
X15446Y10349
X15000Y11260
X16535Y12087
X16856Y12876
X16852Y13356
X15827Y13346
X13633Y13364
X13625Y12904
X13307Y12126
X12648Y11671
X11811Y11299
X11772Y10236
X12795
Y9724
X12480Y8937
X11919Y8487
X11037Y8125
X11399Y6986
X9311Y6921
X8780Y7047
X6496Y7992
X6339Y8622
X6963Y9028
X7051Y9559
X7269Y10315
X6260
X6220Y12087
X6496Y12874
X6535Y13346
X5512
X5551Y11654
X8292Y11271
X9203Y11661
X9803Y12087
X10147Y12856
X10138Y13356
X9134Y13346
X12609Y13364
X18858Y12638
X14567Y8268
X14885Y6996
X5446Y8228
X4055Y7165
X3543
X2559
X2047
X1062Y7156
X67Y10175
X-689Y10478
X-280Y11448
X36Y12197
X29Y12682
X-984Y12638
X2520
X3543
X3548Y12176
X3216Y11423
X2800Y10447
X4724Y11260
X-2995Y7111
T02
X6386Y18945
X7386
X8455Y17213
X9455Y17213
X10386Y18945
X11386
X12455Y17213
X13455
X14386Y18945
X16455Y17213
X5455Y17213
X4455Y17213
X3386Y18945
X2386
X1455Y17213
X455
X-614Y18945
X-2545Y17213
T03
X22004Y13961
X23004
X22504Y14961
X21504
X23504
X20504
X20004Y13961
X21004
T04
X6455Y14213
X7455
X8455
X9455Y14213
X10455
X11455
X12455
X13455
X14455
X15455
X16455
X14386Y15945
X13386
X12386
X11386
X10386
X9386
X8386
X7386
X6386
X5386
X4386
X3386
X2386
X1386
X386
X-614
X-545Y14213
X455
X1455
X2455
X3455
X4455
X5455Y14213
X-1545Y14213
X-2545
T05
X19886Y988
X20886
Y1988
X19886
Y2988
X20886
T06
X24803Y18639
X18711
T07
X8967Y9710
T08
X24002Y17461
X19502
M30
