G04*
G04 #@! TF.GenerationSoftware,Altium Limited,Altium Designer,26.7.1 (11)*
G04*
G04 Layer_Color=16711935*
G04 Board_Origin=214816925|133688692*
%FSLAX25Y25*%
%MOIN*%
G70*
G04*
G04 #@! TF.SameCoordinates,8AC4BC75-6789-43DF-8F29-ECE6FFC62F55*
G04*
G04*
G04 #@! TF.FilePolarity,Negative*
G04*
G01*
G75*
%ADD15R,0.02559X0.11417*%
%ADD16C,0.05984*%
%ADD17C,0.06591*%
%ADD18C,0.13976*%
%ADD19R,0.05984X0.05984*%
%ADD20C,0.06102*%
%ADD21C,0.04784*%
%ADD22C,0.09646*%
%ADD23C,0.02362*%
%ADD24C,0.02559*%
%ADD44R,0.02401X0.07107*%
%ADD46R,0.03773X0.03963*%
G04:AMPARAMS|DCode=48|XSize=85.4mil|YSize=22.92mil|CornerRadius=11.46mil|HoleSize=0mil|Usage=FLASHONLY|Rotation=0.000|XOffset=0mil|YOffset=0mil|HoleType=Round|Shape=RoundedRectangle|*
%AMROUNDEDRECTD48*
21,1,0.08540,0.00000,0,0,0.0*
21,1,0.06248,0.02292,0,0,0.0*
1,1,0.02292,0.03124,0.00000*
1,1,0.02292,-0.03124,0.00000*
1,1,0.02292,-0.03124,0.00000*
1,1,0.02292,0.03124,0.00000*
%
%ADD48ROUNDEDRECTD48*%
%ADD49R,0.02410X0.07107*%
%ADD50R,0.03963X0.03773*%
%ADD61R,0.08540X0.02292*%
%ADD62R,0.03772X0.03591*%
%ADD65R,0.06594X0.03150*%
%ADD66O,0.05906X0.02362*%
%ADD67O,0.02165X0.03937*%
G04:AMPARAMS|DCode=68|XSize=53.54mil|YSize=77.56mil|CornerRadius=10.81mil|HoleSize=0mil|Usage=FLASHONLY|Rotation=90.000|XOffset=0mil|YOffset=0mil|HoleType=Round|Shape=RoundedRectangle|*
%AMROUNDEDRECTD68*
21,1,0.05354,0.05593,0,0,90.0*
21,1,0.03192,0.07756,0,0,90.0*
1,1,0.02163,0.02797,0.01596*
1,1,0.02163,0.02797,-0.01596*
1,1,0.02163,-0.02797,-0.01596*
1,1,0.02163,-0.02797,0.01596*
%
%ADD68ROUNDEDRECTD68*%
%ADD69R,0.03347X0.04134*%
%ADD70R,0.06102X0.02362*%
G04:AMPARAMS|DCode=71|XSize=33.86mil|YSize=40.55mil|CornerRadius=7.57mil|HoleSize=0mil|Usage=FLASHONLY|Rotation=0.000|XOffset=0mil|YOffset=0mil|HoleType=Round|Shape=RoundedRectangle|*
%AMROUNDEDRECTD71*
21,1,0.03386,0.02542,0,0,0.0*
21,1,0.01873,0.04055,0,0,0.0*
1,1,0.01513,0.00936,-0.01271*
1,1,0.01513,-0.00936,-0.01271*
1,1,0.01513,-0.00936,0.01271*
1,1,0.01513,0.00936,0.01271*
%
%ADD71ROUNDEDRECTD71*%
%ADD72R,0.03740X0.03740*%
%ADD73R,0.04134X0.03347*%
%ADD74R,0.04331X0.03937*%
%ADD75C,0.04528*%
%ADD76R,0.03740X0.03740*%
%ADD77O,0.03937X0.02165*%
%ADD78R,0.03937X0.04331*%
G04:AMPARAMS|DCode=79|XSize=25.59mil|YSize=41.34mil|CornerRadius=6.2mil|HoleSize=0mil|Usage=FLASHONLY|Rotation=90.000|XOffset=0mil|YOffset=0mil|HoleType=Round|Shape=RoundedRectangle|*
%AMROUNDEDRECTD79*
21,1,0.02559,0.02894,0,0,90.0*
21,1,0.01319,0.04134,0,0,90.0*
1,1,0.01240,0.01447,0.00659*
1,1,0.01240,0.01447,-0.00659*
1,1,0.01240,-0.01447,-0.00659*
1,1,0.01240,-0.01447,0.00659*
%
%ADD79ROUNDEDRECTD79*%
%ADD80R,0.02756X0.04724*%
%ADD81O,0.02953X0.04921*%
%ADD82R,0.04134X0.04528*%
%ADD83R,0.04528X0.06102*%
%ADD84R,0.04528X0.04134*%
%ADD85R,0.05315X0.04921*%
%ADD86R,0.06102X0.04528*%
D15*
X34252Y-14173D02*
D03*
X43701D02*
D03*
X53150D02*
D03*
X78347D02*
D03*
X90945D02*
D03*
X21654D02*
D03*
X24803D02*
D03*
X27953D02*
D03*
X31102D02*
D03*
X37402D02*
D03*
X40551D02*
D03*
X46850D02*
D03*
X50000D02*
D03*
X56299D02*
D03*
X59449D02*
D03*
X62598D02*
D03*
X65748D02*
D03*
X68898D02*
D03*
X72047D02*
D03*
X75197D02*
D03*
X81496D02*
D03*
X84646D02*
D03*
X87795D02*
D03*
X94095D02*
D03*
X97244D02*
D03*
X100394D02*
D03*
X103543D02*
D03*
X106693D02*
D03*
X131890D02*
D03*
X122441D02*
D03*
X125591D02*
D03*
X128740D02*
D03*
X135039D02*
D03*
X138189D02*
D03*
X141339D02*
D03*
X144488D02*
D03*
X182283D02*
D03*
X172835D02*
D03*
X175984D02*
D03*
X179134D02*
D03*
X185433D02*
D03*
X188583D02*
D03*
X191732D02*
D03*
X194882D02*
D03*
X198031D02*
D03*
X201181D02*
D03*
X204331D02*
D03*
X207480D02*
D03*
X210630D02*
D03*
X213779D02*
D03*
X216929D02*
D03*
X220079D02*
D03*
X169685D02*
D03*
X166535D02*
D03*
X163386D02*
D03*
X160236D02*
D03*
X157087D02*
D03*
X147638D02*
D03*
X150787D02*
D03*
X153937D02*
D03*
D16*
X32976Y19878D02*
D03*
X42976D02*
D03*
X32976Y29878D02*
D03*
X42976D02*
D03*
X90158Y80551D02*
D03*
X80158Y90551D02*
D03*
X90158D02*
D03*
X80158Y100551D02*
D03*
X90158D02*
D03*
X42976Y9878D02*
D03*
D17*
X87280Y268110D02*
D03*
X117973Y285433D02*
D03*
X127279Y268110D02*
D03*
X197972Y285433D02*
D03*
X207279Y268110D02*
D03*
X167280D02*
D03*
X157972Y285433D02*
D03*
X97280Y268110D02*
D03*
X107973Y285433D02*
D03*
X137279Y268110D02*
D03*
X187972Y285433D02*
D03*
X217280Y268110D02*
D03*
X177279D02*
D03*
X147972Y285433D02*
D03*
X167972Y315433D02*
D03*
X137972D02*
D03*
Y285433D02*
D03*
X167972D02*
D03*
X177972D02*
D03*
X207972D02*
D03*
X177972Y315433D02*
D03*
X207972D02*
D03*
X197280Y298110D02*
D03*
X227279D02*
D03*
X197280Y268110D02*
D03*
X227279D02*
D03*
X117280Y298110D02*
D03*
X147280D02*
D03*
X117280Y268110D02*
D03*
X147280D02*
D03*
X247972Y315433D02*
D03*
X217972D02*
D03*
X237972Y285433D02*
D03*
X247972D02*
D03*
X217972D02*
D03*
X227973D02*
D03*
X257280Y268110D02*
D03*
X267280D02*
D03*
X237280D02*
D03*
X247280D02*
D03*
X267280Y298110D02*
D03*
X237280D02*
D03*
X157280D02*
D03*
X187279D02*
D03*
X157280Y268110D02*
D03*
X187279D02*
D03*
X97973Y285433D02*
D03*
X127972D02*
D03*
X97973Y315433D02*
D03*
X127972D02*
D03*
X77280Y298110D02*
D03*
X107280D02*
D03*
X77280Y268110D02*
D03*
X107280D02*
D03*
D18*
X251969Y70866D02*
D03*
X29528Y149606D02*
D03*
X82677Y188976D02*
D03*
X251969D02*
D03*
D19*
X80158Y80551D02*
D03*
X32976Y9878D02*
D03*
D20*
X-1673Y278966D02*
D03*
X3327Y268967D02*
D03*
X8327Y278966D02*
D03*
X13327Y268967D02*
D03*
X18327Y278966D02*
D03*
X23327Y268967D02*
D03*
X28327Y278966D02*
D03*
X33327Y268967D02*
D03*
D21*
X-6654Y303966D02*
D03*
X38346D02*
D03*
D22*
X-14665Y315748D02*
D03*
X46260D02*
D03*
D23*
X171653Y122047D02*
D03*
X183465Y150787D02*
D03*
X171653Y140945D02*
D03*
X192913Y146063D02*
D03*
X211417Y145669D02*
D03*
X198031Y1181D02*
D03*
X168504Y38189D02*
D03*
X181102Y140945D02*
D03*
X31154Y-6693D02*
D03*
X43804D02*
D03*
X50000D02*
D03*
X65847D02*
D03*
X66650Y26432D02*
D03*
X-10360Y69590D02*
D03*
X-8169Y53936D02*
D03*
X-6015Y61938D02*
D03*
X-21949Y82677D02*
D03*
X31201D02*
D03*
X886D02*
D03*
X44980Y53543D02*
D03*
X47343Y61885D02*
D03*
X75643Y40611D02*
D03*
X43012Y69684D02*
D03*
X54146Y82566D02*
D03*
X90945Y-6693D02*
D03*
X76855Y26398D02*
D03*
X87086Y26435D02*
D03*
X93131Y23557D02*
D03*
X111675Y23707D02*
D03*
X112881Y39764D02*
D03*
X83127Y43810D02*
D03*
X83248Y64118D02*
D03*
X87252Y68200D02*
D03*
X92981Y69961D02*
D03*
X94121Y43941D02*
D03*
X117637Y44096D02*
D03*
X118405Y64891D02*
D03*
X-21169Y88002D02*
D03*
X-9350Y99606D02*
D03*
X-6865Y107944D02*
D03*
X-23130Y129133D02*
D03*
X-6299Y117717D02*
D03*
X44193Y99212D02*
D03*
X46671Y107251D02*
D03*
X46949Y114960D02*
D03*
X30413Y126377D02*
D03*
X53248D02*
D03*
X-1496Y130631D02*
D03*
X-28740Y309744D02*
D03*
X129232Y44094D02*
D03*
X135138Y-6693D02*
D03*
X128642Y68517D02*
D03*
X129255Y49051D02*
D03*
X141975Y42102D02*
D03*
X146335Y37033D02*
D03*
X143701Y70472D02*
D03*
X148888Y53706D02*
D03*
X167421Y-6693D02*
D03*
X182283D02*
D03*
X168497Y65740D02*
D03*
X211019Y-6693D02*
D03*
X222539Y21653D02*
D03*
X202756Y165354D02*
D03*
X198031D02*
D03*
X121872Y68508D02*
D03*
X94085Y49319D02*
D03*
X75292Y-6693D02*
D03*
X165435Y206239D02*
D03*
X131016Y203603D02*
D03*
X179981Y217182D02*
D03*
X109146Y255625D02*
D03*
X109226Y251022D02*
D03*
X112402Y243241D02*
D03*
X95473Y234579D02*
D03*
X112447Y224288D02*
D03*
X112127Y218966D02*
D03*
X115662Y211870D02*
D03*
X76955Y255543D02*
D03*
X76914Y250742D02*
D03*
X80118Y242847D02*
D03*
X180867Y211867D02*
D03*
X248270Y236461D02*
D03*
X213310Y236211D02*
D03*
X198228Y234579D02*
D03*
X252361Y226759D02*
D03*
X217476Y226447D02*
D03*
X196555Y207021D02*
D03*
X144096Y255543D02*
D03*
X180118Y255445D02*
D03*
X180512Y250721D02*
D03*
X144000Y250540D02*
D03*
X183268Y242847D02*
D03*
X147441D02*
D03*
X127362Y234973D02*
D03*
X162553Y234690D02*
D03*
X146850Y225283D02*
D03*
X177802Y224737D02*
D03*
X146850Y220165D02*
D03*
X245179Y248800D02*
D03*
X210039Y248359D02*
D03*
X245114Y243955D02*
D03*
X209993Y243737D02*
D03*
X150000Y212291D02*
D03*
X171653Y145276D02*
D03*
X192913Y148524D02*
D03*
X65847Y35432D02*
D03*
X154823Y67716D02*
D03*
X154331Y70079D02*
D03*
X155118Y72835D02*
D03*
X185531Y201509D02*
D03*
X119382Y255625D02*
D03*
X87205Y255445D02*
D03*
X187894Y224737D02*
D03*
X154134Y255445D02*
D03*
X156890Y225283D02*
D03*
X122228Y224417D02*
D03*
X190354Y255445D02*
D03*
X255315Y248359D02*
D03*
X220276D02*
D03*
X171653Y107087D02*
D03*
X172047Y160630D02*
D03*
X129158Y198039D02*
D03*
X172441Y229528D02*
D03*
X175984Y255512D02*
D03*
X153441Y238588D02*
D03*
X189961Y238516D02*
D03*
X244805Y223728D02*
D03*
X187106Y207808D02*
D03*
X109086Y221655D02*
D03*
X118988Y238695D02*
D03*
X155610Y207787D02*
D03*
X114901Y5052D02*
D03*
X81324Y-5899D02*
D03*
X93307Y-2756D02*
D03*
X186221Y7087D02*
D03*
X94882Y-394D02*
D03*
X94095Y153543D02*
D03*
X203150Y143307D02*
D03*
X204724Y119685D02*
D03*
X171260Y150787D02*
D03*
X171653Y135827D02*
D03*
X114567Y85433D02*
D03*
X114173Y119291D02*
D03*
Y152362D02*
D03*
X94095Y141732D02*
D03*
X127559Y167717D02*
D03*
X71653Y75590D02*
D03*
X-12952Y117774D02*
D03*
X-15650Y69684D02*
D03*
X-11368Y51181D02*
D03*
X-9389Y86220D02*
D03*
X-11850D02*
D03*
X-12303Y96850D02*
D03*
X-2148Y88870D02*
D03*
X110476Y54866D02*
D03*
X93069Y11859D02*
D03*
X153248Y19291D02*
D03*
X151655Y16141D02*
D03*
X141203D02*
D03*
X201280Y12204D02*
D03*
X111824Y11810D02*
D03*
X153242Y13773D02*
D03*
X87106Y9055D02*
D03*
X76870D02*
D03*
X66634D02*
D03*
X53935Y43354D02*
D03*
X41831Y51181D02*
D03*
X37500Y69684D02*
D03*
X50492Y88188D02*
D03*
X41043Y96456D02*
D03*
X41232Y115020D02*
D03*
D24*
X171653Y165748D02*
D03*
X183465Y155905D02*
D03*
Y160630D02*
D03*
X77165Y138976D02*
D03*
X81102Y163779D02*
D03*
X91339Y135827D02*
D03*
X83858Y163779D02*
D03*
X94095Y159449D02*
D03*
X116929Y105512D02*
D03*
Y172835D02*
D03*
Y139370D02*
D03*
X133858Y100394D02*
D03*
Y134252D02*
D03*
X144882Y105118D02*
D03*
Y80315D02*
D03*
Y139370D02*
D03*
Y114173D02*
D03*
X185039Y83858D02*
D03*
X189764D02*
D03*
X134252Y167717D02*
D03*
X144882Y147638D02*
D03*
Y172441D02*
D03*
X199606Y126772D02*
D03*
X195276D02*
D03*
X194095Y88189D02*
D03*
X94095Y146850D02*
D03*
X211417Y151181D02*
D03*
Y148425D02*
D03*
Y142913D02*
D03*
X193209Y40453D02*
D03*
X203543Y29134D02*
D03*
X196850Y29921D02*
D03*
X189370Y28346D02*
D03*
X83858Y130315D02*
D03*
X81102D02*
D03*
X143307Y107480D02*
D03*
Y73228D02*
D03*
Y75984D02*
D03*
Y110236D02*
D03*
X143701Y142126D02*
D03*
Y144882D02*
D03*
X183465Y97244D02*
D03*
X203543Y135433D02*
D03*
X206299Y156299D02*
D03*
X183071Y69685D02*
D03*
X193701Y68110D02*
D03*
X171653Y127165D02*
D03*
X183465Y101969D02*
D03*
Y107087D02*
D03*
D44*
X93031Y65498D02*
D03*
X89291D02*
D03*
X127677D02*
D03*
X123937D02*
D03*
Y56439D02*
D03*
X127677D02*
D03*
X131417D02*
D03*
Y65498D02*
D03*
X89291Y56439D02*
D03*
X93031D02*
D03*
X96771D02*
D03*
Y65498D02*
D03*
D46*
X111929Y172764D02*
D03*
X112205Y105614D02*
D03*
X112205Y139967D02*
D03*
X89454Y159563D02*
D03*
Y146863D02*
D03*
Y141148D02*
D03*
Y153848D02*
D03*
X112205Y134252D02*
D03*
X111929Y167048D02*
D03*
X112205Y99898D02*
D03*
D48*
X140014Y100413D02*
D03*
X140014Y134272D02*
D03*
X140132Y167563D02*
D03*
X140014Y85413D02*
D03*
X140014Y119272D02*
D03*
X140132Y152563D02*
D03*
X121521Y167563D02*
D03*
Y162563D02*
D03*
Y157563D02*
D03*
X140132Y162563D02*
D03*
Y157563D02*
D03*
X121403Y134272D02*
D03*
X121403Y100413D02*
D03*
Y90413D02*
D03*
Y95413D02*
D03*
X140014D02*
D03*
Y90413D02*
D03*
X121403Y124272D02*
D03*
Y129272D02*
D03*
X140014D02*
D03*
Y124272D02*
D03*
D49*
X148917Y49407D02*
D03*
X152657Y58466D02*
D03*
Y49407D02*
D03*
X145177D02*
D03*
Y58466D02*
D03*
D50*
X149504Y82283D02*
D03*
Y103543D02*
D03*
X149504Y116535D02*
D03*
Y137008D02*
D03*
Y149213D02*
D03*
Y170472D02*
D03*
X155220D02*
D03*
Y149213D02*
D03*
Y116535D02*
D03*
Y137008D02*
D03*
X155220Y82283D02*
D03*
Y103543D02*
D03*
D61*
X121521Y152563D02*
D03*
X121403Y119272D02*
D03*
X121403Y85413D02*
D03*
D62*
X112311Y127165D02*
D03*
X106587D02*
D03*
X155240Y123228D02*
D03*
X149516D02*
D03*
X155224Y130315D02*
D03*
X149500D02*
D03*
X155224Y155905D02*
D03*
X149500D02*
D03*
X155224Y163779D02*
D03*
X149500D02*
D03*
X112035Y160063D02*
D03*
X106311D02*
D03*
X149500Y89370D02*
D03*
X155224D02*
D03*
X106480Y92913D02*
D03*
X112205D02*
D03*
X149500Y96457D02*
D03*
X155224D02*
D03*
D65*
X166882Y135787D02*
D03*
Y140787D02*
D03*
Y145787D02*
D03*
Y150787D02*
D03*
Y155787D02*
D03*
Y160787D02*
D03*
Y165787D02*
D03*
X188236D02*
D03*
Y160787D02*
D03*
Y155787D02*
D03*
Y150787D02*
D03*
Y145787D02*
D03*
Y140787D02*
D03*
Y135787D02*
D03*
X166882Y122205D02*
D03*
X188236Y102205D02*
D03*
Y107205D02*
D03*
X166882Y127205D02*
D03*
X188236D02*
D03*
Y97205D02*
D03*
X166882D02*
D03*
Y102205D02*
D03*
Y107205D02*
D03*
Y112205D02*
D03*
Y117205D02*
D03*
X188236Y122205D02*
D03*
Y117205D02*
D03*
Y112205D02*
D03*
D66*
X216732Y145965D02*
D03*
Y151083D02*
D03*
Y148524D02*
D03*
Y143405D02*
D03*
X197441Y148524D02*
D03*
Y145965D02*
D03*
Y151083D02*
D03*
Y143405D02*
D03*
D67*
X173819Y33957D02*
D03*
X168701D02*
D03*
X171260D02*
D03*
Y25098D02*
D03*
X173819D02*
D03*
X168701D02*
D03*
D68*
X66634Y23425D02*
D03*
X76870D02*
D03*
X87106D02*
D03*
X97343D02*
D03*
X107579D02*
D03*
X97343Y12007D02*
D03*
X87106D02*
D03*
X66634D02*
D03*
X76870D02*
D03*
X107579D02*
D03*
D69*
X-8415Y51181D02*
D03*
X-8021Y69684D02*
D03*
X44980Y51181D02*
D03*
X45374Y69684D02*
D03*
X91850Y44039D02*
D03*
Y49158D02*
D03*
X126889Y44039D02*
D03*
Y49158D02*
D03*
X-9350Y96850D02*
D03*
X-8563Y116929D02*
D03*
X44267Y96456D02*
D03*
X44661Y114960D02*
D03*
X144193Y42125D02*
D03*
Y37007D02*
D03*
X146161Y70472D02*
D03*
X146161Y64960D02*
D03*
X212402Y248752D02*
D03*
X182480Y255839D02*
D03*
X111508Y250900D02*
D03*
X247441Y249080D02*
D03*
X180020Y219798D02*
D03*
X146315Y255839D02*
D03*
X212402Y243634D02*
D03*
X182480Y250721D02*
D03*
X149106Y225212D02*
D03*
X79173Y250721D02*
D03*
X146315D02*
D03*
X149106Y220093D02*
D03*
X114665Y224666D02*
D03*
X247441Y243962D02*
D03*
X111508Y256018D02*
D03*
X180020Y224916D02*
D03*
X114665Y219548D02*
D03*
X79173Y255839D02*
D03*
X188189Y64173D02*
D03*
X188386Y59449D02*
D03*
X134763Y146284D02*
D03*
Y141559D02*
D03*
X134646Y108268D02*
D03*
Y112992D02*
D03*
X134646Y74409D02*
D03*
Y79134D02*
D03*
X151673Y70472D02*
D03*
X151673Y64960D02*
D03*
X217914Y248752D02*
D03*
X187992Y255839D02*
D03*
X117020Y250900D02*
D03*
X252953Y249080D02*
D03*
X185531Y219798D02*
D03*
X151826Y255839D02*
D03*
X217914Y243634D02*
D03*
X187992Y250721D02*
D03*
X154618Y225212D02*
D03*
X84685Y250721D02*
D03*
X151826D02*
D03*
X154618Y220093D02*
D03*
X120177Y224666D02*
D03*
X252953Y243962D02*
D03*
X117020Y256018D02*
D03*
X185531Y224916D02*
D03*
X120177Y219548D02*
D03*
X84685Y255839D02*
D03*
X193701Y64173D02*
D03*
X193898Y59449D02*
D03*
X140275Y146284D02*
D03*
Y141559D02*
D03*
X140157Y108268D02*
D03*
Y112992D02*
D03*
X140157Y74409D02*
D03*
Y79134D02*
D03*
X-7762Y76377D02*
D03*
X-13274D02*
D03*
X-13927Y51181D02*
D03*
X-13533Y69684D02*
D03*
X-14862Y96850D02*
D03*
X-14075Y116929D02*
D03*
Y122047D02*
D03*
X-8563D02*
D03*
X39862Y69684D02*
D03*
X132401Y49158D02*
D03*
X149705Y37007D02*
D03*
Y42125D02*
D03*
X132401Y44039D02*
D03*
X38756Y96456D02*
D03*
X97362Y49158D02*
D03*
Y44039D02*
D03*
X45633Y76377D02*
D03*
X40121D02*
D03*
X39469Y51181D02*
D03*
X39149Y114960D02*
D03*
X44587Y120472D02*
D03*
X39075D02*
D03*
D70*
X-2251Y61909D02*
D03*
X51145D02*
D03*
X-3033Y107972D02*
D03*
X50432Y107185D02*
D03*
X-19573Y56791D02*
D03*
Y59350D02*
D03*
Y61909D02*
D03*
Y64468D02*
D03*
X-2251D02*
D03*
Y59350D02*
D03*
Y56791D02*
D03*
X-3033Y102854D02*
D03*
Y105413D02*
D03*
Y110531D02*
D03*
X-20356D02*
D03*
Y107972D02*
D03*
Y105413D02*
D03*
Y102854D02*
D03*
X33822Y56791D02*
D03*
Y59350D02*
D03*
Y61909D02*
D03*
Y64468D02*
D03*
X51145D02*
D03*
Y59350D02*
D03*
Y56791D02*
D03*
X50432Y102066D02*
D03*
Y104625D02*
D03*
Y109744D02*
D03*
X33109D02*
D03*
Y107185D02*
D03*
Y104625D02*
D03*
Y102066D02*
D03*
D71*
X-19468Y82677D02*
D03*
X-1581D02*
D03*
X33546D02*
D03*
X51814D02*
D03*
X32894Y126377D02*
D03*
X50768D02*
D03*
X-2775Y129133D02*
D03*
X-20256D02*
D03*
X-7644Y82677D02*
D03*
X-13406D02*
D03*
X-8839Y129133D02*
D03*
X-14193D02*
D03*
X39609Y82677D02*
D03*
X45751D02*
D03*
X44705Y126377D02*
D03*
X38957D02*
D03*
D72*
X75689Y38218D02*
D03*
X110354Y39709D02*
D03*
X75689Y44517D02*
D03*
X110354Y46008D02*
D03*
D73*
X83169Y46062D02*
D03*
X83169Y61810D02*
D03*
X117644Y46302D02*
D03*
X117683Y62577D02*
D03*
X198031Y161811D02*
D03*
X202756D02*
D03*
X200000Y129921D02*
D03*
X195276D02*
D03*
X185039Y87008D02*
D03*
X189764Y87008D02*
D03*
X77165Y135827D02*
D03*
X87795D02*
D03*
X197047Y33071D02*
D03*
X198031Y156299D02*
D03*
X202756D02*
D03*
X200000Y135433D02*
D03*
X195276D02*
D03*
X185039Y92520D02*
D03*
X189764Y92520D02*
D03*
X77165Y130315D02*
D03*
X87795D02*
D03*
X197047Y38583D02*
D03*
X4442Y63385D02*
D03*
Y57873D02*
D03*
X-26266Y63385D02*
D03*
Y57873D02*
D03*
X-27461Y109448D02*
D03*
Y103937D02*
D03*
X4036D02*
D03*
Y109448D02*
D03*
X27129Y57873D02*
D03*
Y63385D02*
D03*
X26416Y108661D02*
D03*
Y103149D02*
D03*
X117683Y57065D02*
D03*
X57838Y57873D02*
D03*
Y63385D02*
D03*
X117644Y51814D02*
D03*
X83169Y56299D02*
D03*
X83169Y51574D02*
D03*
X57125Y108661D02*
D03*
Y103149D02*
D03*
D74*
X-21161Y90747D02*
D03*
X-25984Y309941D02*
D03*
X203346Y32677D02*
D03*
X189173Y32087D02*
D03*
X182874Y48819D02*
D03*
X262795Y223359D02*
D03*
X226929D02*
D03*
X182874Y65158D02*
D03*
X203346Y43504D02*
D03*
Y48622D02*
D03*
X182874Y60039D02*
D03*
Y53937D02*
D03*
X189173Y37205D02*
D03*
X203346Y37795D02*
D03*
X196850Y109646D02*
D03*
Y114764D02*
D03*
X204724Y109646D02*
D03*
Y114764D02*
D03*
X226929Y228477D02*
D03*
X262795D02*
D03*
X75590Y56102D02*
D03*
Y50984D02*
D03*
X10742Y63188D02*
D03*
Y58070D02*
D03*
X-32566Y63188D02*
D03*
Y58070D02*
D03*
X-2417Y44291D02*
D03*
Y49409D02*
D03*
X-21161Y95866D02*
D03*
X-2264Y91141D02*
D03*
Y96259D02*
D03*
X-34154Y109251D02*
D03*
Y104133D02*
D03*
X33169Y44291D02*
D03*
Y49409D02*
D03*
X50978D02*
D03*
Y44291D02*
D03*
X20830Y63188D02*
D03*
Y58070D02*
D03*
X20117Y103346D02*
D03*
Y108464D02*
D03*
X64137Y63188D02*
D03*
Y58070D02*
D03*
X10335Y104133D02*
D03*
Y109251D02*
D03*
X50492Y95866D02*
D03*
Y90747D02*
D03*
X63424Y108464D02*
D03*
Y103346D02*
D03*
X-25984Y315059D02*
D03*
D75*
X135138Y1300D02*
D03*
X161909Y37965D02*
D03*
X180020Y16535D02*
D03*
X76870Y4330D02*
D03*
X87106Y37965D02*
D03*
X121020D02*
D03*
D76*
X170965Y65747D02*
D03*
X225295Y21456D02*
D03*
X92953Y234794D02*
D03*
X193799Y207021D02*
D03*
X162205Y204166D02*
D03*
X128445Y203620D02*
D03*
X195579Y234794D02*
D03*
X124606Y234973D02*
D03*
X160094Y234794D02*
D03*
X166393D02*
D03*
X130906Y234973D02*
D03*
X269095Y235760D02*
D03*
X262795D02*
D03*
X201878Y234794D02*
D03*
X134744Y203620D02*
D03*
X168504Y204166D02*
D03*
X233268Y235760D02*
D03*
X226969D02*
D03*
X200098Y207021D02*
D03*
X99252Y234794D02*
D03*
X218996Y21456D02*
D03*
X164665Y65747D02*
D03*
D77*
X178347Y211867D02*
D03*
X180807Y242789D02*
D03*
X144641Y242789D02*
D03*
X147433Y212162D02*
D03*
X245768Y236481D02*
D03*
X77500Y242789D02*
D03*
X210729Y236154D02*
D03*
X112992Y211616D02*
D03*
X109835Y242968D02*
D03*
X86358Y240230D02*
D03*
X187205Y211867D02*
D03*
X189665Y242789D02*
D03*
X153500Y242789D02*
D03*
X156291Y212162D02*
D03*
X254626Y236481D02*
D03*
X86358Y242789D02*
D03*
X219587Y236154D02*
D03*
X121850Y211616D02*
D03*
X118693Y242968D02*
D03*
X180807Y240230D02*
D03*
Y245348D02*
D03*
X109835Y240409D02*
D03*
Y245528D02*
D03*
X118693Y240409D02*
D03*
Y245528D02*
D03*
X121850Y214175D02*
D03*
Y209057D02*
D03*
X112992Y214175D02*
D03*
Y209057D02*
D03*
X219587Y238713D02*
D03*
Y233595D02*
D03*
X210729Y238713D02*
D03*
Y233595D02*
D03*
X77500Y240230D02*
D03*
Y245348D02*
D03*
X86358D02*
D03*
X254626Y239040D02*
D03*
Y233922D02*
D03*
X245768Y239040D02*
D03*
Y233922D02*
D03*
X156291Y214721D02*
D03*
Y209603D02*
D03*
X147433Y214721D02*
D03*
Y209603D02*
D03*
X144641Y240230D02*
D03*
Y245348D02*
D03*
X153500Y240230D02*
D03*
Y245348D02*
D03*
X189665Y240230D02*
D03*
Y245348D02*
D03*
X187205Y214426D02*
D03*
Y209308D02*
D03*
X178347Y214426D02*
D03*
Y209308D02*
D03*
D78*
X217323Y223556D02*
D03*
X252362Y223883D02*
D03*
X185433Y232611D02*
D03*
X114461Y232790D02*
D03*
X81890Y232611D02*
D03*
X149031D02*
D03*
X182736Y201688D02*
D03*
X150878Y201983D02*
D03*
X117382Y201437D02*
D03*
X180315Y232611D02*
D03*
X112264Y201437D02*
D03*
X145760Y201983D02*
D03*
X247244Y223883D02*
D03*
X177618Y201688D02*
D03*
X143913Y232611D02*
D03*
X212205Y223556D02*
D03*
X76772Y232611D02*
D03*
X109343Y232790D02*
D03*
X3396Y76377D02*
D03*
X-1722D02*
D03*
X-25282Y76377D02*
D03*
X-20164D02*
D03*
X-14911Y45275D02*
D03*
X-20029D02*
D03*
X-28445Y122047D02*
D03*
X-23327D02*
D03*
X6594Y122047D02*
D03*
X1476D02*
D03*
X33231Y76377D02*
D03*
X28113D02*
D03*
X51673Y76377D02*
D03*
X56791D02*
D03*
X33366Y91338D02*
D03*
X38484D02*
D03*
X32579Y120472D02*
D03*
X27461D02*
D03*
X50689D02*
D03*
X55807D02*
D03*
D79*
X82367Y160777D02*
D03*
Y134045D02*
D03*
Y139793D02*
D03*
Y144557D02*
D03*
Y150305D02*
D03*
Y155029D02*
D03*
D80*
X193209Y43602D02*
D03*
Y53839D02*
D03*
X196949D02*
D03*
X189469D02*
D03*
Y43602D02*
D03*
X196949D02*
D03*
D81*
X197047Y92913D02*
D03*
X200787Y103150D02*
D03*
X204528Y92913D02*
D03*
D82*
X164272Y54330D02*
D03*
X134744Y210296D02*
D03*
X128445D02*
D03*
X160094Y241469D02*
D03*
X166393D02*
D03*
X124606Y240879D02*
D03*
X130906D02*
D03*
X168504Y210072D02*
D03*
X162205D02*
D03*
X200098Y213320D02*
D03*
X193799D02*
D03*
X195579Y240699D02*
D03*
X201878D02*
D03*
X92953Y241469D02*
D03*
X99252D02*
D03*
X170571Y54330D02*
D03*
Y59842D02*
D03*
X164272D02*
D03*
D83*
X261910Y246324D02*
D03*
X226870Y245997D02*
D03*
X234154D02*
D03*
X269193Y246324D02*
D03*
X147343Y17716D02*
D03*
Y27952D02*
D03*
X127657Y17716D02*
D03*
Y27952D02*
D03*
X135531Y17716D02*
D03*
Y27952D02*
D03*
D84*
X233662Y222768D02*
D03*
X269488D02*
D03*
Y229067D02*
D03*
X233662D02*
D03*
X212303Y15157D02*
D03*
Y21456D02*
D03*
X206791D02*
D03*
Y15157D02*
D03*
X201280D02*
D03*
Y21456D02*
D03*
X110354Y51520D02*
D03*
Y57819D02*
D03*
D85*
X214961Y132874D02*
D03*
Y124606D02*
D03*
D86*
X156398Y16141D02*
D03*
X166634D02*
D03*
M02*
