G04*
G04 #@! TF.GenerationSoftware,Altium Limited,Altium Designer,26.7.1 (11)*
G04*
G04 Layer_Color=8388736*
G04 Board_Origin=214816925|133688692*
%FSLAX25Y25*%
%MOIN*%
G70*
G04*
G04 #@! TF.SameCoordinates,8AC4BC75-6789-43DF-8F29-ECE6FFC62F55*
G04*
G04*
G04 #@! TF.FilePolarity,Negative*
G04*
G01*
G75*
%ADD15R,0.02559X0.11417*%
%ADD16C,0.05984*%
%ADD17C,0.06591*%
%ADD18C,0.13976*%
%ADD19R,0.05984X0.05984*%
%ADD20C,0.06102*%
%ADD21C,0.04784*%
%ADD22C,0.09646*%
%ADD23C,0.02362*%
%ADD24C,0.02559*%
D15*
X198031Y-14173D02*
D03*
X201181D02*
D03*
X31102D02*
D03*
X50000D02*
D03*
X40551D02*
D03*
X65748D02*
D03*
X75197D02*
D03*
X94095D02*
D03*
X135039D02*
D03*
X163386D02*
D03*
X185433D02*
D03*
X207480D02*
D03*
X103543D02*
D03*
X21654D02*
D03*
X24803D02*
D03*
X27953D02*
D03*
X34252D02*
D03*
X37402D02*
D03*
X43701D02*
D03*
X46850D02*
D03*
X53150D02*
D03*
X56299D02*
D03*
X59449D02*
D03*
X62598D02*
D03*
X68898D02*
D03*
X72047D02*
D03*
X78347D02*
D03*
X81496D02*
D03*
X84646D02*
D03*
X87795D02*
D03*
X90945D02*
D03*
X97244D02*
D03*
X100394D02*
D03*
X106693D02*
D03*
X122441D02*
D03*
X125591D02*
D03*
X128740D02*
D03*
X131890D02*
D03*
X138189D02*
D03*
X141339D02*
D03*
X144488D02*
D03*
X147638D02*
D03*
X150787D02*
D03*
X153937D02*
D03*
X157087D02*
D03*
X160236D02*
D03*
X166535D02*
D03*
X169685D02*
D03*
X172835D02*
D03*
X175984D02*
D03*
X179134D02*
D03*
X182283D02*
D03*
X188583D02*
D03*
X191732D02*
D03*
X194882D02*
D03*
X204331D02*
D03*
X210630D02*
D03*
X213779D02*
D03*
X216929D02*
D03*
X220079D02*
D03*
D16*
X32976Y19878D02*
D03*
X42976D02*
D03*
X32976Y29878D02*
D03*
X42976D02*
D03*
X90158Y80551D02*
D03*
X80158Y90551D02*
D03*
X90158D02*
D03*
X80158Y100551D02*
D03*
X90158D02*
D03*
X42976Y9878D02*
D03*
D17*
X87280Y268110D02*
D03*
X117973Y285433D02*
D03*
X127279Y268110D02*
D03*
X197972Y285433D02*
D03*
X207279Y268110D02*
D03*
X167280D02*
D03*
X157972Y285433D02*
D03*
X97280Y268110D02*
D03*
X107973Y285433D02*
D03*
X137279Y268110D02*
D03*
X187972Y285433D02*
D03*
X217280Y268110D02*
D03*
X177279D02*
D03*
X147972Y285433D02*
D03*
X167972Y315433D02*
D03*
X137972D02*
D03*
Y285433D02*
D03*
X167972D02*
D03*
X177972D02*
D03*
X207972D02*
D03*
X177972Y315433D02*
D03*
X207972D02*
D03*
X197280Y298110D02*
D03*
X227279D02*
D03*
X197280Y268110D02*
D03*
X227279D02*
D03*
X117280Y298110D02*
D03*
X147280D02*
D03*
X117280Y268110D02*
D03*
X147280D02*
D03*
X247972Y315433D02*
D03*
X217972D02*
D03*
X237972Y285433D02*
D03*
X247972D02*
D03*
X217972D02*
D03*
X227973D02*
D03*
X257280Y268110D02*
D03*
X267280D02*
D03*
X237280D02*
D03*
X247280D02*
D03*
X267280Y298110D02*
D03*
X237280D02*
D03*
X157280D02*
D03*
X187279D02*
D03*
X157280Y268110D02*
D03*
X187279D02*
D03*
X97973Y285433D02*
D03*
X127972D02*
D03*
X97973Y315433D02*
D03*
X127972D02*
D03*
X77280Y298110D02*
D03*
X107280D02*
D03*
X77280Y268110D02*
D03*
X107280D02*
D03*
D18*
X251969Y70866D02*
D03*
X29528Y149606D02*
D03*
X82677Y188976D02*
D03*
X251969D02*
D03*
D19*
X80158Y80551D02*
D03*
X32976Y9878D02*
D03*
D20*
X-1673Y278966D02*
D03*
X3327Y268967D02*
D03*
X8327Y278966D02*
D03*
X13327Y268967D02*
D03*
X18327Y278966D02*
D03*
X23327Y268967D02*
D03*
X28327Y278966D02*
D03*
X33327Y268967D02*
D03*
D21*
X-6654Y303966D02*
D03*
X38346D02*
D03*
D22*
X-14665Y315748D02*
D03*
X46260D02*
D03*
D23*
X171653Y122047D02*
D03*
X183465Y150787D02*
D03*
X171653Y140945D02*
D03*
X192913Y146063D02*
D03*
X211417Y145669D02*
D03*
X198031Y1181D02*
D03*
X168504Y38189D02*
D03*
X181102Y140945D02*
D03*
X31154Y-6693D02*
D03*
X43804D02*
D03*
X50000D02*
D03*
X65847D02*
D03*
X66650Y26432D02*
D03*
X-10360Y69590D02*
D03*
X-8169Y53936D02*
D03*
X-6015Y61938D02*
D03*
X-21949Y82677D02*
D03*
X31201D02*
D03*
X886D02*
D03*
X44980Y53543D02*
D03*
X47343Y61885D02*
D03*
X75643Y40611D02*
D03*
X43012Y69684D02*
D03*
X54146Y82566D02*
D03*
X90945Y-6693D02*
D03*
X76855Y26398D02*
D03*
X87086Y26435D02*
D03*
X93131Y23557D02*
D03*
X111675Y23707D02*
D03*
X112881Y39764D02*
D03*
X83127Y43810D02*
D03*
X83248Y64118D02*
D03*
X87252Y68200D02*
D03*
X92981Y69961D02*
D03*
X94121Y43941D02*
D03*
X117637Y44096D02*
D03*
X118405Y64891D02*
D03*
X-21169Y88002D02*
D03*
X-9350Y99606D02*
D03*
X-6865Y107944D02*
D03*
X-23130Y129133D02*
D03*
X-6299Y117717D02*
D03*
X44193Y99212D02*
D03*
X46671Y107251D02*
D03*
X46949Y114960D02*
D03*
X30413Y126377D02*
D03*
X53248D02*
D03*
X-1496Y130631D02*
D03*
X-28740Y309744D02*
D03*
X129232Y44094D02*
D03*
X135138Y-6693D02*
D03*
X128642Y68517D02*
D03*
X129255Y49051D02*
D03*
X141975Y42102D02*
D03*
X146335Y37033D02*
D03*
X143701Y70472D02*
D03*
X148888Y53706D02*
D03*
X167421Y-6693D02*
D03*
X182283D02*
D03*
X168497Y65740D02*
D03*
X211019Y-6693D02*
D03*
X222539Y21653D02*
D03*
X202756Y165354D02*
D03*
X198031D02*
D03*
X121872Y68508D02*
D03*
X94085Y49319D02*
D03*
X75292Y-6693D02*
D03*
X165435Y206239D02*
D03*
X131016Y203603D02*
D03*
X179981Y217182D02*
D03*
X109146Y255625D02*
D03*
X109226Y251022D02*
D03*
X112402Y243241D02*
D03*
X95473Y234579D02*
D03*
X112447Y224288D02*
D03*
X112127Y218966D02*
D03*
X115662Y211870D02*
D03*
X76955Y255543D02*
D03*
X76914Y250742D02*
D03*
X80118Y242847D02*
D03*
X180867Y211867D02*
D03*
X248270Y236461D02*
D03*
X213310Y236211D02*
D03*
X198228Y234579D02*
D03*
X252361Y226759D02*
D03*
X217476Y226447D02*
D03*
X196555Y207021D02*
D03*
X144096Y255543D02*
D03*
X180118Y255445D02*
D03*
X180512Y250721D02*
D03*
X144000Y250540D02*
D03*
X183268Y242847D02*
D03*
X147441D02*
D03*
X127362Y234973D02*
D03*
X162553Y234690D02*
D03*
X146850Y225283D02*
D03*
X177802Y224737D02*
D03*
X146850Y220165D02*
D03*
X245179Y248800D02*
D03*
X210039Y248359D02*
D03*
X245114Y243955D02*
D03*
X209993Y243737D02*
D03*
X150000Y212291D02*
D03*
X171653Y145276D02*
D03*
X192913Y148524D02*
D03*
X65847Y35432D02*
D03*
X154823Y67716D02*
D03*
X154331Y70079D02*
D03*
X155118Y72835D02*
D03*
X185531Y201509D02*
D03*
X119382Y255625D02*
D03*
X87205Y255445D02*
D03*
X187894Y224737D02*
D03*
X154134Y255445D02*
D03*
X156890Y225283D02*
D03*
X122228Y224417D02*
D03*
X190354Y255445D02*
D03*
X255315Y248359D02*
D03*
X220276D02*
D03*
X171653Y107087D02*
D03*
X172047Y160630D02*
D03*
X129158Y198039D02*
D03*
X172441Y229528D02*
D03*
X175984Y255512D02*
D03*
X153441Y238588D02*
D03*
X189961Y238516D02*
D03*
X244805Y223728D02*
D03*
X187106Y207808D02*
D03*
X109086Y221655D02*
D03*
X118988Y238695D02*
D03*
X155610Y207787D02*
D03*
X114901Y5052D02*
D03*
X81324Y-5899D02*
D03*
X93307Y-2756D02*
D03*
X186221Y7087D02*
D03*
X94882Y-394D02*
D03*
X94095Y153543D02*
D03*
X203150Y143307D02*
D03*
X204724Y119685D02*
D03*
X171260Y150787D02*
D03*
X171653Y135827D02*
D03*
X114567Y85433D02*
D03*
X114173Y119291D02*
D03*
Y152362D02*
D03*
X94095Y141732D02*
D03*
X127559Y167717D02*
D03*
X71653Y75590D02*
D03*
X-12952Y117774D02*
D03*
X-15650Y69684D02*
D03*
X-11368Y51181D02*
D03*
X-9389Y86220D02*
D03*
X-11850D02*
D03*
X-12303Y96850D02*
D03*
X-2148Y88870D02*
D03*
X110476Y54866D02*
D03*
X93069Y11859D02*
D03*
X153248Y19291D02*
D03*
X151655Y16141D02*
D03*
X141203D02*
D03*
X201280Y12204D02*
D03*
X111824Y11810D02*
D03*
X153242Y13773D02*
D03*
X87106Y9055D02*
D03*
X76870D02*
D03*
X66634D02*
D03*
X53935Y43354D02*
D03*
X41831Y51181D02*
D03*
X37500Y69684D02*
D03*
X50492Y88188D02*
D03*
X41043Y96456D02*
D03*
X41232Y115020D02*
D03*
D24*
X171653Y165748D02*
D03*
X183465Y155905D02*
D03*
Y160630D02*
D03*
X77165Y138976D02*
D03*
X81102Y163779D02*
D03*
X91339Y135827D02*
D03*
X83858Y163779D02*
D03*
X94095Y159449D02*
D03*
X116929Y105512D02*
D03*
Y172835D02*
D03*
Y139370D02*
D03*
X133858Y100394D02*
D03*
Y134252D02*
D03*
X144882Y105118D02*
D03*
Y80315D02*
D03*
Y139370D02*
D03*
Y114173D02*
D03*
X185039Y83858D02*
D03*
X189764D02*
D03*
X134252Y167717D02*
D03*
X144882Y147638D02*
D03*
Y172441D02*
D03*
X199606Y126772D02*
D03*
X195276D02*
D03*
X194095Y88189D02*
D03*
X94095Y146850D02*
D03*
X211417Y151181D02*
D03*
Y148425D02*
D03*
Y142913D02*
D03*
X193209Y40453D02*
D03*
X203543Y29134D02*
D03*
X196850Y29921D02*
D03*
X189370Y28346D02*
D03*
X83858Y130315D02*
D03*
X81102D02*
D03*
X143307Y107480D02*
D03*
Y73228D02*
D03*
Y75984D02*
D03*
Y110236D02*
D03*
X143701Y142126D02*
D03*
Y144882D02*
D03*
X183465Y97244D02*
D03*
X203543Y135433D02*
D03*
X206299Y156299D02*
D03*
X183071Y69685D02*
D03*
X193701Y68110D02*
D03*
X171653Y127165D02*
D03*
X183465Y101969D02*
D03*
Y107087D02*
D03*
M02*
