G04*
G04 #@! TF.GenerationSoftware,Altium Limited,Altium Designer,26.7.1 (11)*
G04*
G04 Layer_Color=8421504*
G04 Board_Origin=214816925|133688692*
%FSLAX25Y25*%
%MOIN*%
G70*
G04*
G04 #@! TF.SameCoordinates,3685C11F-F3B2-4E0A-94B4-B1A7EC5887E0*
G04*
G04*
G04 #@! TF.FilePolarity,Positive*
G04*
G01*
G75*
%ADD14R,0.02165X0.11024*%
D14*
X201181Y-14173D02*
D03*
X198031D02*
D03*
X207480D02*
D03*
X185433D02*
D03*
X163386D02*
D03*
X135039D02*
D03*
X94095D02*
D03*
X75197D02*
D03*
X65748D02*
D03*
X40551D02*
D03*
X50000D02*
D03*
X31102D02*
D03*
X103543D02*
D03*
X21654D02*
D03*
X24803D02*
D03*
X27953D02*
D03*
X34252D02*
D03*
X37402D02*
D03*
X43701D02*
D03*
X46850D02*
D03*
X53150D02*
D03*
X56299D02*
D03*
X59449D02*
D03*
X62598D02*
D03*
X68898D02*
D03*
X72047D02*
D03*
X78347D02*
D03*
X81496D02*
D03*
X84646D02*
D03*
X87795D02*
D03*
X90945D02*
D03*
X97244D02*
D03*
X100394D02*
D03*
X106693D02*
D03*
X122441D02*
D03*
X125591D02*
D03*
X128740D02*
D03*
X131890D02*
D03*
X138189D02*
D03*
X141339D02*
D03*
X144488D02*
D03*
X147638D02*
D03*
X150787D02*
D03*
X153937D02*
D03*
X157087D02*
D03*
X160236D02*
D03*
X166535D02*
D03*
X169685D02*
D03*
X172835D02*
D03*
X175984D02*
D03*
X179134D02*
D03*
X182283D02*
D03*
X188583D02*
D03*
X191732D02*
D03*
X194882D02*
D03*
X204331D02*
D03*
X210630D02*
D03*
X213779D02*
D03*
X216929D02*
D03*
X220079D02*
D03*
M02*
