G04*
G04 #@! TF.GenerationSoftware,Altium Limited,Altium Designer,26.7.1 (11)*
G04*
G04 Layer_Physical_Order=2*
G04 Layer_Color=36540*
G04 Board_Origin=214816925|133688692*
%FSLAX25Y25*%
%MOIN*%
G70*
G04*
G04 #@! TF.SameCoordinates,8AC4BC75-6789-43DF-8F29-ECE6FFC62F55*
G04*
G04*
G04 #@! TF.FilePolarity,Positive*
G04*
G01*
G75*
%ADD25C,0.01575*%
%ADD26C,0.05394*%
%ADD27C,0.06000*%
%ADD29R,0.05394X0.05394*%
%ADD33C,0.01772*%
%ADD34C,0.01968*%
G36*
X263503Y322525D02*
X263550Y322522D01*
X263581Y322525D01*
X263612Y322519D01*
X264878Y322514D01*
X267389Y322176D01*
X269833Y321513D01*
X272171Y320537D01*
X274361Y319265D01*
X276368Y317719D01*
X278156Y315925D01*
X279695Y313913D01*
X280959Y311718D01*
X281926Y309377D01*
X282581Y306930D01*
X282911Y304419D01*
X282911Y303153D01*
X282911Y54661D01*
X282911Y53391D01*
X282580Y50873D01*
X281922Y48420D01*
X280950Y46073D01*
X279680Y43874D01*
X278134Y41859D01*
X276338Y40063D01*
X274323Y38516D01*
X272124Y37247D01*
X269777Y36274D01*
X267324Y35617D01*
X264806Y35285D01*
X263535D01*
X234549Y35285D01*
X234242Y35224D01*
X233981Y35050D01*
X233807Y34790D01*
X233746Y34483D01*
Y34251D01*
X64665D01*
Y322526D01*
X263503Y322525D01*
D02*
G37*
G36*
X63363Y322526D02*
X63863Y322525D01*
Y34251D01*
X63924Y33944D01*
X64098Y33684D01*
X64358Y33510D01*
X64665Y33449D01*
X233746D01*
X233746Y32949D01*
X233746Y10944D01*
X233750Y10925D01*
X233747Y10905D01*
X233764Y10567D01*
X233778Y10510D01*
Y10450D01*
X233910Y9788D01*
X233940Y9715D01*
X233955Y9638D01*
X234214Y9014D01*
X234258Y8948D01*
X234288Y8875D01*
X234663Y8314D01*
X234719Y8258D01*
X234763Y8192D01*
X235240Y7715D01*
X235306Y7671D01*
X235362Y7615D01*
X235923Y7240D01*
X235996Y7210D01*
X236062Y7166D01*
X236685Y6908D01*
X236763Y6892D01*
X236836Y6862D01*
X237498Y6730D01*
X237558D01*
X237615Y6716D01*
X237953Y6699D01*
X237972Y6702D01*
X237992Y6698D01*
X240353D01*
X240608Y6698D01*
X241072Y6505D01*
X241427Y6150D01*
X241619Y5686D01*
X241620Y5435D01*
X241620Y309D01*
X228150Y309D01*
X228130Y305D01*
X228110Y308D01*
X227773Y292D01*
X227715Y277D01*
X227656D01*
X226993Y146D01*
X226920Y115D01*
X226843Y100D01*
X226219Y-158D01*
X226153Y-202D01*
X226080Y-233D01*
X225519Y-608D01*
X225463Y-664D01*
X225397Y-708D01*
X224920Y-1185D01*
X224876Y-1251D01*
X224820Y-1307D01*
X224445Y-1868D01*
X224415Y-1941D01*
X224371Y-2007D01*
X224113Y-2630D01*
X224097Y-2708D01*
X224067Y-2781D01*
X223936Y-3443D01*
Y-3502D01*
X223921Y-3560D01*
X223904Y-3898D01*
X223907Y-3917D01*
X223903Y-3937D01*
Y-15491D01*
X119699D01*
Y-3150D01*
X119694Y-3124D01*
X119697Y-3098D01*
X119661Y-2545D01*
X119641Y-2469D01*
X119635Y-2390D01*
X119350Y-1323D01*
X119303Y-1229D01*
X119269Y-1130D01*
X118717Y-173D01*
X118648Y-94D01*
X118590Y-7D01*
X117809Y774D01*
X117721Y832D01*
X117642Y902D01*
X116686Y1454D01*
X116586Y1488D01*
X116492Y1534D01*
X115425Y1820D01*
X115321Y1827D01*
X115218Y1847D01*
X114113D01*
X114010Y1827D01*
X113905Y1820D01*
X112839Y1534D01*
X112744Y1488D01*
X112645Y1454D01*
X111688Y902D01*
X111609Y832D01*
X111522Y774D01*
X110741Y-7D01*
X110683Y-94D01*
X110614Y-173D01*
X110061Y-1130D01*
X110028Y-1229D01*
X109981Y-1323D01*
X109695Y-2390D01*
X109690Y-2469D01*
X109670Y-2545D01*
X109634Y-3098D01*
X109637Y-3124D01*
X109632Y-3150D01*
Y-15491D01*
X18026D01*
X18026Y-3937D01*
X18022Y-3917D01*
X18025Y-3898D01*
X18008Y-3560D01*
X17994Y-3502D01*
Y-3443D01*
X17862Y-2781D01*
X17832Y-2708D01*
X17816Y-2630D01*
X17558Y-2007D01*
X17514Y-1941D01*
X17484Y-1868D01*
X17109Y-1307D01*
X17053Y-1251D01*
X17009Y-1185D01*
X16532Y-708D01*
X16466Y-664D01*
X16410Y-608D01*
X15849Y-233D01*
X15776Y-202D01*
X15710Y-158D01*
X15086Y100D01*
X15009Y115D01*
X14936Y146D01*
X14274Y277D01*
X14214D01*
X14156Y292D01*
X13819Y308D01*
X13799Y305D01*
X13780Y309D01*
X309Y309D01*
Y5431D01*
X310Y5686D01*
X502Y6150D01*
X857Y6505D01*
X1321Y6698D01*
X1573Y6698D01*
X3937Y6698D01*
X3957Y6702D01*
X3976Y6699D01*
X4314Y6716D01*
X4372Y6730D01*
X4431D01*
X5093Y6862D01*
X5166Y6892D01*
X5244Y6908D01*
X5867Y7166D01*
X5933Y7210D01*
X6006Y7240D01*
X6567Y7615D01*
X6623Y7671D01*
X6689Y7715D01*
X7166Y8192D01*
X7210Y8258D01*
X7266Y8314D01*
X7641Y8875D01*
X7672Y8948D01*
X7716Y9014D01*
X7974Y9638D01*
X7989Y9715D01*
X8020Y9788D01*
X8151Y10450D01*
Y10510D01*
X8166Y10567D01*
X8182Y10905D01*
X8179Y10925D01*
X8183Y10944D01*
X8183Y34483D01*
X8122Y34790D01*
X7948Y35050D01*
X7688Y35225D01*
X7380Y35286D01*
X-21701Y35285D01*
X-22971Y35286D01*
X-25489Y35617D01*
X-27942Y36274D01*
X-30289Y37247D01*
X-32488Y38517D01*
X-34503Y40063D01*
X-36299Y41859D01*
X-37846Y43874D01*
X-39116Y46073D01*
X-40088Y48420D01*
X-40745Y50873D01*
X-41076Y53391D01*
X-41077Y54661D01*
X-41077Y303150D01*
X-41076Y304422D01*
X-40745Y306940D01*
X-40087Y309393D01*
X-39115Y311739D01*
X-37845Y313938D01*
X-36299Y315953D01*
X-34504Y317748D01*
X-32489Y319294D01*
X-30290Y320564D01*
X-27944Y321536D01*
X-25491Y322194D01*
X-22974Y322525D01*
X-21704Y322526D01*
X63363Y322526D01*
D02*
G37*
%LPC*%
G36*
X248420Y318833D02*
X247525D01*
X246660Y318601D01*
X245885Y318154D01*
X245252Y317521D01*
X244804Y316745D01*
X244572Y315881D01*
Y314985D01*
X244804Y314121D01*
X245252Y313345D01*
X245885Y312712D01*
X246660Y312265D01*
X247525Y312033D01*
X248420D01*
X249285Y312265D01*
X250060Y312712D01*
X250693Y313345D01*
X251141Y314121D01*
X251373Y314985D01*
Y315881D01*
X251141Y316745D01*
X250693Y317521D01*
X250060Y318154D01*
X249285Y318601D01*
X248420Y318833D01*
D02*
G37*
G36*
X218420D02*
X217525D01*
X216660Y318601D01*
X215885Y318154D01*
X215252Y317521D01*
X214804Y316745D01*
X214573Y315881D01*
Y314985D01*
X214804Y314121D01*
X215252Y313345D01*
X215885Y312712D01*
X216660Y312265D01*
X217525Y312033D01*
X218420D01*
X219285Y312265D01*
X220060Y312712D01*
X220693Y313345D01*
X221141Y314121D01*
X221373Y314985D01*
Y315881D01*
X221141Y316745D01*
X220693Y317521D01*
X220060Y318154D01*
X219285Y318601D01*
X218420Y318833D01*
D02*
G37*
G36*
X208420D02*
X207525D01*
X206660Y318601D01*
X205885Y318154D01*
X205252Y317521D01*
X204804Y316745D01*
X204572Y315881D01*
Y314985D01*
X204804Y314121D01*
X205252Y313345D01*
X205885Y312712D01*
X206660Y312265D01*
X207525Y312033D01*
X208420D01*
X209285Y312265D01*
X210060Y312712D01*
X210693Y313345D01*
X211141Y314121D01*
X211372Y314985D01*
Y315881D01*
X211141Y316745D01*
X210693Y317521D01*
X210060Y318154D01*
X209285Y318601D01*
X208420Y318833D01*
D02*
G37*
G36*
X178420D02*
X177525D01*
X176660Y318601D01*
X175885Y318154D01*
X175252Y317521D01*
X174804Y316745D01*
X174572Y315881D01*
Y314985D01*
X174804Y314121D01*
X175252Y313345D01*
X175885Y312712D01*
X176660Y312265D01*
X177525Y312033D01*
X178420D01*
X179285Y312265D01*
X180060Y312712D01*
X180693Y313345D01*
X181141Y314121D01*
X181372Y314985D01*
Y315881D01*
X181141Y316745D01*
X180693Y317521D01*
X180060Y318154D01*
X179285Y318601D01*
X178420Y318833D01*
D02*
G37*
G36*
X168420D02*
X167525D01*
X166660Y318601D01*
X165885Y318154D01*
X165252Y317521D01*
X164804Y316745D01*
X164572Y315881D01*
Y314985D01*
X164804Y314121D01*
X165252Y313345D01*
X165885Y312712D01*
X166660Y312265D01*
X167525Y312033D01*
X168420D01*
X169285Y312265D01*
X170060Y312712D01*
X170693Y313345D01*
X171141Y314121D01*
X171372Y314985D01*
Y315881D01*
X171141Y316745D01*
X170693Y317521D01*
X170060Y318154D01*
X169285Y318601D01*
X168420Y318833D01*
D02*
G37*
G36*
X138420D02*
X137525D01*
X136660Y318601D01*
X135885Y318154D01*
X135252Y317521D01*
X134804Y316745D01*
X134572Y315881D01*
Y314985D01*
X134804Y314121D01*
X135252Y313345D01*
X135885Y312712D01*
X136660Y312265D01*
X137525Y312033D01*
X138420D01*
X139285Y312265D01*
X140060Y312712D01*
X140693Y313345D01*
X141141Y314121D01*
X141372Y314985D01*
Y315881D01*
X141141Y316745D01*
X140693Y317521D01*
X140060Y318154D01*
X139285Y318601D01*
X138420Y318833D01*
D02*
G37*
G36*
X128420D02*
X127525D01*
X126660Y318601D01*
X125885Y318154D01*
X125252Y317521D01*
X124804Y316745D01*
X124573Y315881D01*
Y314985D01*
X124804Y314121D01*
X125252Y313345D01*
X125885Y312712D01*
X126660Y312265D01*
X127525Y312033D01*
X128420D01*
X129285Y312265D01*
X130060Y312712D01*
X130693Y313345D01*
X131141Y314121D01*
X131372Y314985D01*
Y315881D01*
X131141Y316745D01*
X130693Y317521D01*
X130060Y318154D01*
X129285Y318601D01*
X128420Y318833D01*
D02*
G37*
G36*
X98420D02*
X97525D01*
X96660Y318601D01*
X95885Y318154D01*
X95252Y317521D01*
X94804Y316745D01*
X94573Y315881D01*
Y314985D01*
X94804Y314121D01*
X95252Y313345D01*
X95885Y312712D01*
X96660Y312265D01*
X97525Y312033D01*
X98420D01*
X99285Y312265D01*
X100060Y312712D01*
X100693Y313345D01*
X101141Y314121D01*
X101373Y314985D01*
Y315881D01*
X101141Y316745D01*
X100693Y317521D01*
X100060Y318154D01*
X99285Y318601D01*
X98420Y318833D01*
D02*
G37*
G36*
X267727Y301510D02*
X266832D01*
X265967Y301278D01*
X265192Y300831D01*
X264559Y300198D01*
X264111Y299423D01*
X263880Y298558D01*
Y297663D01*
X264111Y296798D01*
X264559Y296023D01*
X265192Y295390D01*
X265967Y294942D01*
X266832Y294710D01*
X267727D01*
X268592Y294942D01*
X269367Y295390D01*
X270000Y296023D01*
X270448Y296798D01*
X270680Y297663D01*
Y298558D01*
X270448Y299423D01*
X270000Y300198D01*
X269367Y300831D01*
X268592Y301278D01*
X267727Y301510D01*
D02*
G37*
G36*
X237727D02*
X236832D01*
X235967Y301278D01*
X235192Y300831D01*
X234559Y300198D01*
X234111Y299423D01*
X233880Y298558D01*
Y297663D01*
X234111Y296798D01*
X234559Y296023D01*
X235192Y295390D01*
X235967Y294942D01*
X236832Y294710D01*
X237727D01*
X238592Y294942D01*
X239367Y295390D01*
X240000Y296023D01*
X240448Y296798D01*
X240680Y297663D01*
Y298558D01*
X240448Y299423D01*
X240000Y300198D01*
X239367Y300831D01*
X238592Y301278D01*
X237727Y301510D01*
D02*
G37*
G36*
X227727D02*
X226832D01*
X225967Y301278D01*
X225192Y300831D01*
X224559Y300198D01*
X224111Y299423D01*
X223880Y298558D01*
Y297663D01*
X224111Y296798D01*
X224559Y296023D01*
X225192Y295390D01*
X225967Y294942D01*
X226832Y294710D01*
X227727D01*
X228592Y294942D01*
X229367Y295390D01*
X230000Y296023D01*
X230448Y296798D01*
X230679Y297663D01*
Y298558D01*
X230448Y299423D01*
X230000Y300198D01*
X229367Y300831D01*
X228592Y301278D01*
X227727Y301510D01*
D02*
G37*
G36*
X197727D02*
X196832D01*
X195967Y301278D01*
X195192Y300831D01*
X194559Y300198D01*
X194111Y299423D01*
X193879Y298558D01*
Y297663D01*
X194111Y296798D01*
X194559Y296023D01*
X195192Y295390D01*
X195967Y294942D01*
X196832Y294710D01*
X197727D01*
X198592Y294942D01*
X199367Y295390D01*
X200000Y296023D01*
X200448Y296798D01*
X200679Y297663D01*
Y298558D01*
X200448Y299423D01*
X200000Y300198D01*
X199367Y300831D01*
X198592Y301278D01*
X197727Y301510D01*
D02*
G37*
G36*
X187727D02*
X186832D01*
X185967Y301278D01*
X185192Y300831D01*
X184559Y300198D01*
X184111Y299423D01*
X183879Y298558D01*
Y297663D01*
X184111Y296798D01*
X184559Y296023D01*
X185192Y295390D01*
X185967Y294942D01*
X186832Y294710D01*
X187727D01*
X188592Y294942D01*
X189367Y295390D01*
X190000Y296023D01*
X190448Y296798D01*
X190680Y297663D01*
Y298558D01*
X190448Y299423D01*
X190000Y300198D01*
X189367Y300831D01*
X188592Y301278D01*
X187727Y301510D01*
D02*
G37*
G36*
X157727D02*
X156832D01*
X155967Y301278D01*
X155192Y300831D01*
X154559Y300198D01*
X154111Y299423D01*
X153879Y298558D01*
Y297663D01*
X154111Y296798D01*
X154559Y296023D01*
X155192Y295390D01*
X155967Y294942D01*
X156832Y294710D01*
X157727D01*
X158592Y294942D01*
X159367Y295390D01*
X160000Y296023D01*
X160448Y296798D01*
X160679Y297663D01*
Y298558D01*
X160448Y299423D01*
X160000Y300198D01*
X159367Y300831D01*
X158592Y301278D01*
X157727Y301510D01*
D02*
G37*
G36*
X147727D02*
X146832D01*
X145967Y301278D01*
X145192Y300831D01*
X144559Y300198D01*
X144111Y299423D01*
X143879Y298558D01*
Y297663D01*
X144111Y296798D01*
X144559Y296023D01*
X145192Y295390D01*
X145967Y294942D01*
X146832Y294710D01*
X147727D01*
X148592Y294942D01*
X149367Y295390D01*
X150000Y296023D01*
X150448Y296798D01*
X150680Y297663D01*
Y298558D01*
X150448Y299423D01*
X150000Y300198D01*
X149367Y300831D01*
X148592Y301278D01*
X147727Y301510D01*
D02*
G37*
G36*
X117727D02*
X116832D01*
X115967Y301278D01*
X115192Y300831D01*
X114559Y300198D01*
X114111Y299423D01*
X113880Y298558D01*
Y297663D01*
X114111Y296798D01*
X114559Y296023D01*
X115192Y295390D01*
X115967Y294942D01*
X116832Y294710D01*
X117727D01*
X118592Y294942D01*
X119367Y295390D01*
X120000Y296023D01*
X120448Y296798D01*
X120679Y297663D01*
Y298558D01*
X120448Y299423D01*
X120000Y300198D01*
X119367Y300831D01*
X118592Y301278D01*
X117727Y301510D01*
D02*
G37*
G36*
X107727D02*
X106832D01*
X105967Y301278D01*
X105192Y300831D01*
X104559Y300198D01*
X104111Y299423D01*
X103880Y298558D01*
Y297663D01*
X104111Y296798D01*
X104559Y296023D01*
X105192Y295390D01*
X105967Y294942D01*
X106832Y294710D01*
X107727D01*
X108592Y294942D01*
X109367Y295390D01*
X110000Y296023D01*
X110448Y296798D01*
X110680Y297663D01*
Y298558D01*
X110448Y299423D01*
X110000Y300198D01*
X109367Y300831D01*
X108592Y301278D01*
X107727Y301510D01*
D02*
G37*
G36*
X77727D02*
X76832D01*
X75967Y301278D01*
X75192Y300831D01*
X74559Y300198D01*
X74111Y299423D01*
X73880Y298558D01*
Y297663D01*
X74111Y296798D01*
X74559Y296023D01*
X75192Y295390D01*
X75967Y294942D01*
X76832Y294710D01*
X77727D01*
X78592Y294942D01*
X79367Y295390D01*
X80000Y296023D01*
X80448Y296798D01*
X80680Y297663D01*
Y298558D01*
X80448Y299423D01*
X80000Y300198D01*
X79367Y300831D01*
X78592Y301278D01*
X77727Y301510D01*
D02*
G37*
G36*
X188420Y288833D02*
X187525D01*
X186660Y288601D01*
X185885Y288154D01*
X185847Y288116D01*
X186185Y287777D01*
X185628Y287220D01*
X185290Y287559D01*
X185252Y287521D01*
X184804Y286745D01*
X184572Y285881D01*
Y284985D01*
X184804Y284121D01*
X185252Y283345D01*
X185290Y283307D01*
X185628Y283646D01*
X186185Y283089D01*
X185847Y282751D01*
X185885Y282712D01*
X186660Y282265D01*
X187525Y282033D01*
X188420D01*
X189285Y282265D01*
X190060Y282712D01*
X190098Y282751D01*
X189760Y283089D01*
X190317Y283646D01*
X190655Y283307D01*
X190693Y283345D01*
X191141Y284121D01*
X191372Y284985D01*
Y285881D01*
X191141Y286745D01*
X190693Y287521D01*
X190655Y287559D01*
X190317Y287220D01*
X189760Y287777D01*
X190098Y288116D01*
X190060Y288154D01*
X189285Y288601D01*
X188420Y288833D01*
D02*
G37*
G36*
X148420D02*
X147525D01*
X146660Y288601D01*
X145885Y288154D01*
X145847Y288116D01*
X146185Y287777D01*
X145628Y287220D01*
X145290Y287559D01*
X145252Y287521D01*
X144804Y286745D01*
X144572Y285881D01*
Y284985D01*
X144804Y284121D01*
X145252Y283345D01*
X145290Y283307D01*
X145628Y283646D01*
X146185Y283089D01*
X145847Y282751D01*
X145885Y282712D01*
X146660Y282265D01*
X147525Y282033D01*
X148420D01*
X149285Y282265D01*
X150060Y282712D01*
X150098Y282751D01*
X149760Y283089D01*
X150317Y283646D01*
X150655Y283307D01*
X150693Y283345D01*
X151141Y284121D01*
X151372Y284985D01*
Y285881D01*
X151141Y286745D01*
X150693Y287521D01*
X150655Y287559D01*
X150317Y287220D01*
X149760Y287777D01*
X150098Y288116D01*
X150060Y288154D01*
X149285Y288601D01*
X148420Y288833D01*
D02*
G37*
G36*
X108420D02*
X107525D01*
X106660Y288601D01*
X105885Y288154D01*
X105847Y288116D01*
X106185Y287777D01*
X105628Y287220D01*
X105290Y287559D01*
X105252Y287521D01*
X104804Y286745D01*
X104572Y285881D01*
Y284985D01*
X104804Y284121D01*
X105252Y283345D01*
X105290Y283307D01*
X105628Y283646D01*
X106185Y283089D01*
X105847Y282751D01*
X105885Y282712D01*
X106660Y282265D01*
X107525Y282033D01*
X108420D01*
X109285Y282265D01*
X110060Y282712D01*
X110098Y282751D01*
X109760Y283089D01*
X110317Y283646D01*
X110655Y283307D01*
X110693Y283345D01*
X111141Y284121D01*
X111372Y284985D01*
Y285881D01*
X111141Y286745D01*
X110693Y287521D01*
X110655Y287559D01*
X110317Y287220D01*
X109760Y287777D01*
X110098Y288116D01*
X110060Y288154D01*
X109285Y288601D01*
X108420Y288833D01*
D02*
G37*
G36*
X248420D02*
X247525D01*
X246660Y288601D01*
X245885Y288154D01*
X245252Y287521D01*
X244804Y286745D01*
X244572Y285881D01*
Y284985D01*
X244804Y284121D01*
X245252Y283345D01*
X245885Y282712D01*
X246660Y282265D01*
X247525Y282033D01*
X248420D01*
X249285Y282265D01*
X250060Y282712D01*
X250693Y283345D01*
X251141Y284121D01*
X251373Y284985D01*
Y285881D01*
X251141Y286745D01*
X250693Y287521D01*
X250060Y288154D01*
X249285Y288601D01*
X248420Y288833D01*
D02*
G37*
G36*
X238420D02*
X237525D01*
X236660Y288601D01*
X235885Y288154D01*
X235252Y287521D01*
X234804Y286745D01*
X234573Y285881D01*
Y284985D01*
X234804Y284121D01*
X235252Y283345D01*
X235885Y282712D01*
X236660Y282265D01*
X237525Y282033D01*
X238420D01*
X239285Y282265D01*
X240060Y282712D01*
X240693Y283345D01*
X241141Y284121D01*
X241372Y284985D01*
Y285881D01*
X241141Y286745D01*
X240693Y287521D01*
X240060Y288154D01*
X239285Y288601D01*
X238420Y288833D01*
D02*
G37*
G36*
X228420D02*
X227525D01*
X226660Y288601D01*
X225885Y288154D01*
X225252Y287521D01*
X224804Y286745D01*
X224572Y285881D01*
Y284985D01*
X224804Y284121D01*
X225252Y283345D01*
X225885Y282712D01*
X226660Y282265D01*
X227525Y282033D01*
X228420D01*
X229285Y282265D01*
X230060Y282712D01*
X230693Y283345D01*
X231141Y284121D01*
X231372Y284985D01*
Y285881D01*
X231141Y286745D01*
X230693Y287521D01*
X230060Y288154D01*
X229285Y288601D01*
X228420Y288833D01*
D02*
G37*
G36*
X218420D02*
X217525D01*
X216660Y288601D01*
X215885Y288154D01*
X215252Y287521D01*
X214804Y286745D01*
X214573Y285881D01*
Y284985D01*
X214804Y284121D01*
X215252Y283345D01*
X215885Y282712D01*
X216660Y282265D01*
X217525Y282033D01*
X218420D01*
X219285Y282265D01*
X220060Y282712D01*
X220693Y283345D01*
X221141Y284121D01*
X221373Y284985D01*
Y285881D01*
X221141Y286745D01*
X220693Y287521D01*
X220060Y288154D01*
X219285Y288601D01*
X218420Y288833D01*
D02*
G37*
G36*
X208420D02*
X207525D01*
X206660Y288601D01*
X205885Y288154D01*
X205252Y287521D01*
X204804Y286745D01*
X204572Y285881D01*
Y284985D01*
X204804Y284121D01*
X205252Y283345D01*
X205885Y282712D01*
X206660Y282265D01*
X207525Y282033D01*
X208420D01*
X209285Y282265D01*
X210060Y282712D01*
X210693Y283345D01*
X211141Y284121D01*
X211372Y284985D01*
Y285881D01*
X211141Y286745D01*
X210693Y287521D01*
X210060Y288154D01*
X209285Y288601D01*
X208420Y288833D01*
D02*
G37*
G36*
X198420D02*
X197525D01*
X196660Y288601D01*
X195885Y288154D01*
X195252Y287521D01*
X194804Y286745D01*
X194572Y285881D01*
Y284985D01*
X194804Y284121D01*
X195252Y283345D01*
X195885Y282712D01*
X196660Y282265D01*
X197525Y282033D01*
X198420D01*
X199285Y282265D01*
X200060Y282712D01*
X200693Y283345D01*
X201141Y284121D01*
X201372Y284985D01*
Y285881D01*
X201141Y286745D01*
X200693Y287521D01*
X200060Y288154D01*
X199285Y288601D01*
X198420Y288833D01*
D02*
G37*
G36*
X178420D02*
X177525D01*
X176660Y288601D01*
X175885Y288154D01*
X175252Y287521D01*
X174804Y286745D01*
X174572Y285881D01*
Y284985D01*
X174804Y284121D01*
X175252Y283345D01*
X175885Y282712D01*
X176660Y282265D01*
X177525Y282033D01*
X178420D01*
X179285Y282265D01*
X180060Y282712D01*
X180693Y283345D01*
X181141Y284121D01*
X181372Y284985D01*
Y285881D01*
X181141Y286745D01*
X180693Y287521D01*
X180060Y288154D01*
X179285Y288601D01*
X178420Y288833D01*
D02*
G37*
G36*
X168420D02*
X167525D01*
X166660Y288601D01*
X165885Y288154D01*
X165252Y287521D01*
X164804Y286745D01*
X164572Y285881D01*
Y284985D01*
X164804Y284121D01*
X165252Y283345D01*
X165885Y282712D01*
X166660Y282265D01*
X167525Y282033D01*
X168420D01*
X169285Y282265D01*
X170060Y282712D01*
X170693Y283345D01*
X171141Y284121D01*
X171372Y284985D01*
Y285881D01*
X171141Y286745D01*
X170693Y287521D01*
X170060Y288154D01*
X169285Y288601D01*
X168420Y288833D01*
D02*
G37*
G36*
X158420D02*
X157525D01*
X156660Y288601D01*
X155885Y288154D01*
X155252Y287521D01*
X154804Y286745D01*
X154572Y285881D01*
Y284985D01*
X154804Y284121D01*
X155252Y283345D01*
X155885Y282712D01*
X156660Y282265D01*
X157525Y282033D01*
X158420D01*
X159285Y282265D01*
X160060Y282712D01*
X160693Y283345D01*
X161141Y284121D01*
X161372Y284985D01*
Y285881D01*
X161141Y286745D01*
X160693Y287521D01*
X160060Y288154D01*
X159285Y288601D01*
X158420Y288833D01*
D02*
G37*
G36*
X138420D02*
X137525D01*
X136660Y288601D01*
X135885Y288154D01*
X135252Y287521D01*
X134804Y286745D01*
X134572Y285881D01*
Y284985D01*
X134804Y284121D01*
X135252Y283345D01*
X135885Y282712D01*
X136660Y282265D01*
X137525Y282033D01*
X138420D01*
X139285Y282265D01*
X140060Y282712D01*
X140693Y283345D01*
X141141Y284121D01*
X141372Y284985D01*
Y285881D01*
X141141Y286745D01*
X140693Y287521D01*
X140060Y288154D01*
X139285Y288601D01*
X138420Y288833D01*
D02*
G37*
G36*
X128420D02*
X127525D01*
X126660Y288601D01*
X125885Y288154D01*
X125252Y287521D01*
X124804Y286745D01*
X124573Y285881D01*
Y284985D01*
X124804Y284121D01*
X125252Y283345D01*
X125885Y282712D01*
X126660Y282265D01*
X127525Y282033D01*
X128420D01*
X129285Y282265D01*
X130060Y282712D01*
X130693Y283345D01*
X131141Y284121D01*
X131372Y284985D01*
Y285881D01*
X131141Y286745D01*
X130693Y287521D01*
X130060Y288154D01*
X129285Y288601D01*
X128420Y288833D01*
D02*
G37*
G36*
X118420D02*
X117525D01*
X116660Y288601D01*
X115885Y288154D01*
X115252Y287521D01*
X114804Y286745D01*
X114573Y285881D01*
Y284985D01*
X114804Y284121D01*
X115252Y283345D01*
X115885Y282712D01*
X116660Y282265D01*
X117525Y282033D01*
X118420D01*
X119285Y282265D01*
X120060Y282712D01*
X120693Y283345D01*
X121141Y284121D01*
X121372Y284985D01*
Y285881D01*
X121141Y286745D01*
X120693Y287521D01*
X120060Y288154D01*
X119285Y288601D01*
X118420Y288833D01*
D02*
G37*
G36*
X98420D02*
X97525D01*
X96660Y288601D01*
X95885Y288154D01*
X95252Y287521D01*
X94804Y286745D01*
X94573Y285881D01*
Y284985D01*
X94804Y284121D01*
X95252Y283345D01*
X95885Y282712D01*
X96660Y282265D01*
X97525Y282033D01*
X98420D01*
X99285Y282265D01*
X100060Y282712D01*
X100693Y283345D01*
X101141Y284121D01*
X101373Y284985D01*
Y285881D01*
X101141Y286745D01*
X100693Y287521D01*
X100060Y288154D01*
X99285Y288601D01*
X98420Y288833D01*
D02*
G37*
G36*
X217727Y271510D02*
X216832D01*
X215967Y271279D01*
X215192Y270831D01*
X215154Y270793D01*
X215492Y270454D01*
X214935Y269898D01*
X214597Y270236D01*
X214559Y270198D01*
X214111Y269423D01*
X213879Y268558D01*
Y267663D01*
X214111Y266798D01*
X214559Y266023D01*
X214597Y265985D01*
X214935Y266323D01*
X215492Y265766D01*
X215154Y265428D01*
X215192Y265390D01*
X215967Y264942D01*
X216832Y264710D01*
X217727D01*
X218592Y264942D01*
X219367Y265390D01*
X219405Y265428D01*
X219067Y265766D01*
X219624Y266323D01*
X219962Y265985D01*
X220000Y266023D01*
X220448Y266798D01*
X220679Y267663D01*
Y268558D01*
X220448Y269423D01*
X220000Y270198D01*
X219962Y270236D01*
X219624Y269898D01*
X219067Y270454D01*
X219405Y270793D01*
X219367Y270831D01*
X218592Y271279D01*
X217727Y271510D01*
D02*
G37*
G36*
X177727D02*
X176832D01*
X175967Y271279D01*
X175192Y270831D01*
X175154Y270793D01*
X175492Y270454D01*
X174935Y269898D01*
X174597Y270236D01*
X174559Y270198D01*
X174111Y269423D01*
X173880Y268558D01*
Y267663D01*
X174111Y266798D01*
X174559Y266023D01*
X174597Y265985D01*
X174935Y266323D01*
X175492Y265766D01*
X175154Y265428D01*
X175192Y265390D01*
X175967Y264942D01*
X176832Y264710D01*
X177727D01*
X178592Y264942D01*
X179367Y265390D01*
X179405Y265428D01*
X179067Y265766D01*
X179624Y266323D01*
X179962Y265985D01*
X180000Y266023D01*
X180448Y266798D01*
X180680Y267663D01*
Y268558D01*
X180448Y269423D01*
X180000Y270198D01*
X179962Y270236D01*
X179624Y269898D01*
X179067Y270454D01*
X179405Y270793D01*
X179367Y270831D01*
X178592Y271279D01*
X177727Y271510D01*
D02*
G37*
G36*
X137727D02*
X136832D01*
X135967Y271279D01*
X135192Y270831D01*
X135154Y270793D01*
X135492Y270454D01*
X134935Y269898D01*
X134597Y270236D01*
X134559Y270198D01*
X134111Y269423D01*
X133879Y268558D01*
Y267663D01*
X134111Y266798D01*
X134559Y266023D01*
X134597Y265985D01*
X134935Y266323D01*
X135492Y265766D01*
X135154Y265428D01*
X135192Y265390D01*
X135967Y264942D01*
X136832Y264710D01*
X137727D01*
X138592Y264942D01*
X139367Y265390D01*
X139405Y265428D01*
X139067Y265766D01*
X139624Y266323D01*
X139962Y265985D01*
X140000Y266023D01*
X140448Y266798D01*
X140680Y267663D01*
Y268558D01*
X140448Y269423D01*
X140000Y270198D01*
X139962Y270236D01*
X139624Y269898D01*
X139067Y270454D01*
X139405Y270793D01*
X139367Y270831D01*
X138592Y271279D01*
X137727Y271510D01*
D02*
G37*
G36*
X97727D02*
X96832D01*
X95967Y271279D01*
X95192Y270831D01*
X95154Y270793D01*
X95492Y270454D01*
X94935Y269898D01*
X94597Y270236D01*
X94559Y270198D01*
X94111Y269423D01*
X93880Y268558D01*
Y267663D01*
X94111Y266798D01*
X94559Y266023D01*
X94597Y265985D01*
X94935Y266323D01*
X95492Y265766D01*
X95154Y265428D01*
X95192Y265390D01*
X95967Y264942D01*
X96832Y264710D01*
X97727D01*
X98592Y264942D01*
X99367Y265390D01*
X99405Y265428D01*
X99067Y265766D01*
X99624Y266323D01*
X99962Y265985D01*
X100000Y266023D01*
X100448Y266798D01*
X100680Y267663D01*
Y268558D01*
X100448Y269423D01*
X100000Y270198D01*
X99962Y270236D01*
X99624Y269898D01*
X99067Y270454D01*
X99405Y270793D01*
X99367Y270831D01*
X98592Y271279D01*
X97727Y271510D01*
D02*
G37*
G36*
X267727D02*
X266832D01*
X265967Y271279D01*
X265192Y270831D01*
X264559Y270198D01*
X264111Y269423D01*
X263880Y268558D01*
Y267663D01*
X264111Y266798D01*
X264559Y266023D01*
X265192Y265390D01*
X265967Y264942D01*
X266832Y264710D01*
X267727D01*
X268592Y264942D01*
X269367Y265390D01*
X270000Y266023D01*
X270448Y266798D01*
X270680Y267663D01*
Y268558D01*
X270448Y269423D01*
X270000Y270198D01*
X269367Y270831D01*
X268592Y271279D01*
X267727Y271510D01*
D02*
G37*
G36*
X257727D02*
X256832D01*
X255967Y271279D01*
X255192Y270831D01*
X254559Y270198D01*
X254111Y269423D01*
X253880Y268558D01*
Y267663D01*
X254111Y266798D01*
X254559Y266023D01*
X255192Y265390D01*
X255967Y264942D01*
X256832Y264710D01*
X257727D01*
X258592Y264942D01*
X259367Y265390D01*
X260000Y266023D01*
X260448Y266798D01*
X260680Y267663D01*
Y268558D01*
X260448Y269423D01*
X260000Y270198D01*
X259367Y270831D01*
X258592Y271279D01*
X257727Y271510D01*
D02*
G37*
G36*
X247727D02*
X246832D01*
X245967Y271279D01*
X245192Y270831D01*
X244559Y270198D01*
X244111Y269423D01*
X243880Y268558D01*
Y267663D01*
X244111Y266798D01*
X244559Y266023D01*
X245192Y265390D01*
X245967Y264942D01*
X246832Y264710D01*
X247727D01*
X248592Y264942D01*
X249367Y265390D01*
X250000Y266023D01*
X250448Y266798D01*
X250680Y267663D01*
Y268558D01*
X250448Y269423D01*
X250000Y270198D01*
X249367Y270831D01*
X248592Y271279D01*
X247727Y271510D01*
D02*
G37*
G36*
X237727D02*
X236832D01*
X235967Y271279D01*
X235192Y270831D01*
X234559Y270198D01*
X234111Y269423D01*
X233880Y268558D01*
Y267663D01*
X234111Y266798D01*
X234559Y266023D01*
X235192Y265390D01*
X235967Y264942D01*
X236832Y264710D01*
X237727D01*
X238592Y264942D01*
X239367Y265390D01*
X240000Y266023D01*
X240448Y266798D01*
X240680Y267663D01*
Y268558D01*
X240448Y269423D01*
X240000Y270198D01*
X239367Y270831D01*
X238592Y271279D01*
X237727Y271510D01*
D02*
G37*
G36*
X227727D02*
X226832D01*
X225967Y271279D01*
X225192Y270831D01*
X224559Y270198D01*
X224111Y269423D01*
X223880Y268558D01*
Y267663D01*
X224111Y266798D01*
X224559Y266023D01*
X225192Y265390D01*
X225967Y264942D01*
X226832Y264710D01*
X227727D01*
X228592Y264942D01*
X229367Y265390D01*
X230000Y266023D01*
X230448Y266798D01*
X230679Y267663D01*
Y268558D01*
X230448Y269423D01*
X230000Y270198D01*
X229367Y270831D01*
X228592Y271279D01*
X227727Y271510D01*
D02*
G37*
G36*
X207727D02*
X206832D01*
X205967Y271279D01*
X205192Y270831D01*
X204559Y270198D01*
X204111Y269423D01*
X203879Y268558D01*
Y267663D01*
X204111Y266798D01*
X204559Y266023D01*
X205192Y265390D01*
X205967Y264942D01*
X206832Y264710D01*
X207727D01*
X208592Y264942D01*
X209367Y265390D01*
X210000Y266023D01*
X210448Y266798D01*
X210680Y267663D01*
Y268558D01*
X210448Y269423D01*
X210000Y270198D01*
X209367Y270831D01*
X208592Y271279D01*
X207727Y271510D01*
D02*
G37*
G36*
X197727D02*
X196832D01*
X195967Y271279D01*
X195192Y270831D01*
X194559Y270198D01*
X194111Y269423D01*
X193879Y268558D01*
Y267663D01*
X194111Y266798D01*
X194559Y266023D01*
X195192Y265390D01*
X195967Y264942D01*
X196832Y264710D01*
X197727D01*
X198592Y264942D01*
X199367Y265390D01*
X200000Y266023D01*
X200448Y266798D01*
X200679Y267663D01*
Y268558D01*
X200448Y269423D01*
X200000Y270198D01*
X199367Y270831D01*
X198592Y271279D01*
X197727Y271510D01*
D02*
G37*
G36*
X187727D02*
X186832D01*
X185967Y271279D01*
X185192Y270831D01*
X184559Y270198D01*
X184111Y269423D01*
X183879Y268558D01*
Y267663D01*
X184111Y266798D01*
X184559Y266023D01*
X185192Y265390D01*
X185967Y264942D01*
X186832Y264710D01*
X187727D01*
X188592Y264942D01*
X189367Y265390D01*
X190000Y266023D01*
X190448Y266798D01*
X190680Y267663D01*
Y268558D01*
X190448Y269423D01*
X190000Y270198D01*
X189367Y270831D01*
X188592Y271279D01*
X187727Y271510D01*
D02*
G37*
G36*
X167727D02*
X166832D01*
X165967Y271279D01*
X165192Y270831D01*
X164559Y270198D01*
X164111Y269423D01*
X163880Y268558D01*
Y267663D01*
X164111Y266798D01*
X164559Y266023D01*
X165192Y265390D01*
X165967Y264942D01*
X166832Y264710D01*
X167727D01*
X168592Y264942D01*
X169367Y265390D01*
X170000Y266023D01*
X170448Y266798D01*
X170679Y267663D01*
Y268558D01*
X170448Y269423D01*
X170000Y270198D01*
X169367Y270831D01*
X168592Y271279D01*
X167727Y271510D01*
D02*
G37*
G36*
X157727D02*
X156832D01*
X155967Y271279D01*
X155192Y270831D01*
X154559Y270198D01*
X154111Y269423D01*
X153879Y268558D01*
Y267663D01*
X154111Y266798D01*
X154559Y266023D01*
X155192Y265390D01*
X155967Y264942D01*
X156832Y264710D01*
X157727D01*
X158592Y264942D01*
X159367Y265390D01*
X160000Y266023D01*
X160448Y266798D01*
X160679Y267663D01*
Y268558D01*
X160448Y269423D01*
X160000Y270198D01*
X159367Y270831D01*
X158592Y271279D01*
X157727Y271510D01*
D02*
G37*
G36*
X147727D02*
X146832D01*
X145967Y271279D01*
X145192Y270831D01*
X144559Y270198D01*
X144111Y269423D01*
X143879Y268558D01*
Y267663D01*
X144111Y266798D01*
X144559Y266023D01*
X145192Y265390D01*
X145967Y264942D01*
X146832Y264710D01*
X147727D01*
X148592Y264942D01*
X149367Y265390D01*
X150000Y266023D01*
X150448Y266798D01*
X150680Y267663D01*
Y268558D01*
X150448Y269423D01*
X150000Y270198D01*
X149367Y270831D01*
X148592Y271279D01*
X147727Y271510D01*
D02*
G37*
G36*
X127727D02*
X126832D01*
X125967Y271279D01*
X125192Y270831D01*
X124559Y270198D01*
X124111Y269423D01*
X123880Y268558D01*
Y267663D01*
X124111Y266798D01*
X124559Y266023D01*
X125192Y265390D01*
X125967Y264942D01*
X126832Y264710D01*
X127727D01*
X128592Y264942D01*
X129367Y265390D01*
X130000Y266023D01*
X130448Y266798D01*
X130680Y267663D01*
Y268558D01*
X130448Y269423D01*
X130000Y270198D01*
X129367Y270831D01*
X128592Y271279D01*
X127727Y271510D01*
D02*
G37*
G36*
X117727D02*
X116832D01*
X115967Y271279D01*
X115192Y270831D01*
X114559Y270198D01*
X114111Y269423D01*
X113880Y268558D01*
Y267663D01*
X114111Y266798D01*
X114559Y266023D01*
X115192Y265390D01*
X115967Y264942D01*
X116832Y264710D01*
X117727D01*
X118592Y264942D01*
X119367Y265390D01*
X120000Y266023D01*
X120448Y266798D01*
X120679Y267663D01*
Y268558D01*
X120448Y269423D01*
X120000Y270198D01*
X119367Y270831D01*
X118592Y271279D01*
X117727Y271510D01*
D02*
G37*
G36*
X107727D02*
X106832D01*
X105967Y271279D01*
X105192Y270831D01*
X104559Y270198D01*
X104111Y269423D01*
X103880Y268558D01*
Y267663D01*
X104111Y266798D01*
X104559Y266023D01*
X105192Y265390D01*
X105967Y264942D01*
X106832Y264710D01*
X107727D01*
X108592Y264942D01*
X109367Y265390D01*
X110000Y266023D01*
X110448Y266798D01*
X110680Y267663D01*
Y268558D01*
X110448Y269423D01*
X110000Y270198D01*
X109367Y270831D01*
X108592Y271279D01*
X107727Y271510D01*
D02*
G37*
G36*
X87727D02*
X86832D01*
X85967Y271279D01*
X85192Y270831D01*
X84559Y270198D01*
X84111Y269423D01*
X83880Y268558D01*
Y267663D01*
X84111Y266798D01*
X84559Y266023D01*
X85192Y265390D01*
X85967Y264942D01*
X86832Y264710D01*
X87727D01*
X88592Y264942D01*
X89367Y265390D01*
X90000Y266023D01*
X90448Y266798D01*
X90680Y267663D01*
Y268558D01*
X90448Y269423D01*
X90000Y270198D01*
X89367Y270831D01*
X88592Y271279D01*
X87727Y271510D01*
D02*
G37*
G36*
X77727D02*
X76832D01*
X75967Y271279D01*
X75192Y270831D01*
X74559Y270198D01*
X74111Y269423D01*
X73880Y268558D01*
Y267663D01*
X74111Y266798D01*
X74559Y266023D01*
X75192Y265390D01*
X75967Y264942D01*
X76832Y264710D01*
X77727D01*
X78592Y264942D01*
X79367Y265390D01*
X80000Y266023D01*
X80448Y266798D01*
X80680Y267663D01*
Y268558D01*
X80448Y269423D01*
X80000Y270198D01*
X79367Y270831D01*
X78592Y271279D01*
X77727Y271510D01*
D02*
G37*
G36*
X109459Y257199D02*
X108833D01*
X108254Y256960D01*
X107811Y256517D01*
X107571Y255938D01*
Y255311D01*
X107811Y254732D01*
X108254Y254289D01*
X108833Y254050D01*
X109459D01*
X110038Y254289D01*
X110481Y254732D01*
X110721Y255311D01*
Y255938D01*
X110481Y256517D01*
X110038Y256960D01*
X109459Y257199D01*
D02*
G37*
G36*
X144410Y257118D02*
X143783D01*
X143204Y256879D01*
X142761Y256436D01*
X142522Y255857D01*
Y255230D01*
X142761Y254651D01*
X143204Y254208D01*
X143783Y253969D01*
X144410D01*
X144988Y254208D01*
X145431Y254651D01*
X145671Y255230D01*
Y255857D01*
X145431Y256436D01*
X144988Y256879D01*
X144410Y257118D01*
D02*
G37*
G36*
X77268D02*
X76642D01*
X76063Y256879D01*
X75620Y256436D01*
X75380Y255857D01*
Y255230D01*
X75620Y254651D01*
X76063Y254208D01*
X76642Y253969D01*
X77268D01*
X77847Y254208D01*
X78290Y254651D01*
X78530Y255230D01*
Y255857D01*
X78290Y256436D01*
X77847Y256879D01*
X77268Y257118D01*
D02*
G37*
G36*
X176297Y257087D02*
X175671D01*
X175092Y256847D01*
X174649Y256404D01*
X174409Y255825D01*
Y255199D01*
X174649Y254620D01*
X175092Y254177D01*
X175671Y253937D01*
X176297D01*
X176876Y254177D01*
X177319Y254620D01*
X177559Y255199D01*
Y255825D01*
X177319Y256404D01*
X176876Y256847D01*
X176297Y257087D01*
D02*
G37*
G36*
X180431Y257020D02*
X179805D01*
X179226Y256780D01*
X178783Y256337D01*
X178543Y255759D01*
Y255132D01*
X178783Y254553D01*
X179226Y254110D01*
X179805Y253871D01*
X180431D01*
X181010Y254110D01*
X181453Y254553D01*
X181693Y255132D01*
Y255759D01*
X181453Y256337D01*
X181010Y256780D01*
X180431Y257020D01*
D02*
G37*
G36*
X109539Y252597D02*
X108913D01*
X108334Y252357D01*
X107891Y251914D01*
X107651Y251336D01*
Y250709D01*
X107891Y250130D01*
X108334Y249687D01*
X108913Y249447D01*
X109539D01*
X110118Y249687D01*
X110561Y250130D01*
X110801Y250709D01*
Y251336D01*
X110561Y251914D01*
X110118Y252357D01*
X109539Y252597D01*
D02*
G37*
G36*
X77227Y252316D02*
X76601D01*
X76022Y252077D01*
X75579Y251634D01*
X75339Y251055D01*
Y250428D01*
X75579Y249850D01*
X76022Y249407D01*
X76601Y249167D01*
X77227D01*
X77806Y249407D01*
X78249Y249850D01*
X78489Y250428D01*
Y251055D01*
X78249Y251634D01*
X77806Y252077D01*
X77227Y252316D01*
D02*
G37*
G36*
X180825Y252296D02*
X180199D01*
X179620Y252056D01*
X179177Y251613D01*
X178937Y251034D01*
Y250408D01*
X179177Y249829D01*
X179620Y249386D01*
X180199Y249146D01*
X180825D01*
X181404Y249386D01*
X181847Y249829D01*
X182087Y250408D01*
Y251034D01*
X181847Y251613D01*
X181404Y252056D01*
X180825Y252296D01*
D02*
G37*
G36*
X144313Y252115D02*
X143686D01*
X143107Y251875D01*
X142665Y251432D01*
X142425Y250853D01*
Y250227D01*
X142665Y249648D01*
X143107Y249205D01*
X143686Y248966D01*
X144313D01*
X144892Y249205D01*
X145335Y249648D01*
X145574Y250227D01*
Y250853D01*
X145335Y251432D01*
X144892Y251875D01*
X144313Y252115D01*
D02*
G37*
G36*
X245493Y250375D02*
X244866D01*
X244287Y250135D01*
X243844Y249692D01*
X243605Y249113D01*
Y248487D01*
X243844Y247908D01*
X244287Y247465D01*
X244866Y247225D01*
X245493D01*
X246071Y247465D01*
X246514Y247908D01*
X246754Y248487D01*
Y249113D01*
X246514Y249692D01*
X246071Y250135D01*
X245493Y250375D01*
D02*
G37*
G36*
X210353Y249934D02*
X209726D01*
X209147Y249694D01*
X208704Y249251D01*
X208465Y248672D01*
Y248045D01*
X208704Y247467D01*
X209147Y247024D01*
X209726Y246784D01*
X210353D01*
X210931Y247024D01*
X211374Y247467D01*
X211614Y248045D01*
Y248672D01*
X211374Y249251D01*
X210931Y249694D01*
X210353Y249934D01*
D02*
G37*
G36*
X245428Y245530D02*
X244801D01*
X244222Y245290D01*
X243779Y244848D01*
X243540Y244269D01*
Y243642D01*
X243779Y243063D01*
X244222Y242620D01*
X244801Y242381D01*
X245428D01*
X246006Y242620D01*
X246449Y243063D01*
X246689Y243642D01*
Y244269D01*
X246449Y244848D01*
X246006Y245290D01*
X245428Y245530D01*
D02*
G37*
G36*
X210306Y245311D02*
X209679D01*
X209101Y245072D01*
X208658Y244629D01*
X208418Y244050D01*
Y243423D01*
X208658Y242845D01*
X209101Y242402D01*
X209679Y242162D01*
X210306D01*
X210885Y242402D01*
X211328Y242845D01*
X211567Y243423D01*
Y244050D01*
X211328Y244629D01*
X210885Y245072D01*
X210306Y245311D01*
D02*
G37*
G36*
X112715Y244815D02*
X112088D01*
X111510Y244576D01*
X111067Y244133D01*
X110827Y243554D01*
Y242927D01*
X111067Y242349D01*
X111510Y241906D01*
X112088Y241666D01*
X112715D01*
X113294Y241906D01*
X113737Y242349D01*
X113977Y242927D01*
Y243554D01*
X113737Y244133D01*
X113294Y244576D01*
X112715Y244815D01*
D02*
G37*
G36*
X183581Y244422D02*
X182955D01*
X182376Y244182D01*
X181933Y243739D01*
X181693Y243160D01*
Y242534D01*
X181933Y241955D01*
X182376Y241512D01*
X182955Y241272D01*
X183581D01*
X184160Y241512D01*
X184603Y241955D01*
X184843Y242534D01*
Y243160D01*
X184603Y243739D01*
X184160Y244182D01*
X183581Y244422D01*
D02*
G37*
G36*
X147754D02*
X147128D01*
X146549Y244182D01*
X146106Y243739D01*
X145866Y243160D01*
Y242534D01*
X146106Y241955D01*
X146549Y241512D01*
X147128Y241272D01*
X147754D01*
X148333Y241512D01*
X148776Y241955D01*
X149016Y242534D01*
Y243160D01*
X148776Y243739D01*
X148333Y244182D01*
X147754Y244422D01*
D02*
G37*
G36*
X80431D02*
X79805D01*
X79226Y244182D01*
X78783Y243739D01*
X78543Y243160D01*
Y242534D01*
X78783Y241955D01*
X79226Y241512D01*
X79805Y241272D01*
X80431D01*
X81010Y241512D01*
X81453Y241955D01*
X81693Y242534D01*
Y243160D01*
X81453Y243739D01*
X81010Y244182D01*
X80431Y244422D01*
D02*
G37*
G36*
X119301Y240270D02*
X118675D01*
X118096Y240030D01*
X117653Y239587D01*
X117413Y239009D01*
Y238382D01*
X117653Y237803D01*
X118096Y237360D01*
X118675Y237121D01*
X119301D01*
X119880Y237360D01*
X120323Y237803D01*
X120563Y238382D01*
Y239009D01*
X120323Y239587D01*
X119880Y240030D01*
X119301Y240270D01*
D02*
G37*
G36*
X153754Y240163D02*
X153127D01*
X152549Y239923D01*
X152106Y239480D01*
X151866Y238901D01*
Y238275D01*
X152106Y237696D01*
X152549Y237253D01*
X153127Y237013D01*
X153754D01*
X154333Y237253D01*
X154776Y237696D01*
X155016Y238275D01*
Y238901D01*
X154776Y239480D01*
X154333Y239923D01*
X153754Y240163D01*
D02*
G37*
G36*
X190274Y240091D02*
X189647D01*
X189069Y239851D01*
X188626Y239408D01*
X188386Y238829D01*
Y238203D01*
X188626Y237624D01*
X189069Y237181D01*
X189647Y236941D01*
X190274D01*
X190853Y237181D01*
X191296Y237624D01*
X191535Y238203D01*
Y238829D01*
X191296Y239408D01*
X190853Y239851D01*
X190274Y240091D01*
D02*
G37*
G36*
X248584Y238036D02*
X247957D01*
X247378Y237796D01*
X246935Y237353D01*
X246695Y236774D01*
Y236148D01*
X246935Y235569D01*
X247378Y235126D01*
X247957Y234886D01*
X248584D01*
X249162Y235126D01*
X249605Y235569D01*
X249845Y236148D01*
Y236774D01*
X249605Y237353D01*
X249162Y237796D01*
X248584Y238036D01*
D02*
G37*
G36*
X213623Y237786D02*
X212996D01*
X212417Y237546D01*
X211974Y237104D01*
X211735Y236525D01*
Y235898D01*
X211974Y235319D01*
X212417Y234876D01*
X212996Y234637D01*
X213623D01*
X214201Y234876D01*
X214645Y235319D01*
X214884Y235898D01*
Y236525D01*
X214645Y237104D01*
X214201Y237546D01*
X213623Y237786D01*
D02*
G37*
G36*
X127675Y236548D02*
X127049D01*
X126470Y236308D01*
X126027Y235865D01*
X125787Y235286D01*
Y234660D01*
X126027Y234081D01*
X126470Y233638D01*
X127049Y233398D01*
X127675D01*
X128254Y233638D01*
X128697Y234081D01*
X128937Y234660D01*
Y235286D01*
X128697Y235865D01*
X128254Y236308D01*
X127675Y236548D01*
D02*
G37*
G36*
X162866Y236265D02*
X162240D01*
X161661Y236026D01*
X161218Y235583D01*
X160978Y235004D01*
Y234377D01*
X161218Y233799D01*
X161661Y233355D01*
X162240Y233116D01*
X162866D01*
X163445Y233355D01*
X163888Y233799D01*
X164128Y234377D01*
Y235004D01*
X163888Y235583D01*
X163445Y236026D01*
X162866Y236265D01*
D02*
G37*
G36*
X198542Y236154D02*
X197915D01*
X197336Y235914D01*
X196893Y235471D01*
X196654Y234893D01*
Y234266D01*
X196893Y233687D01*
X197336Y233244D01*
X197915Y233004D01*
X198542D01*
X199120Y233244D01*
X199564Y233687D01*
X199803Y234266D01*
Y234893D01*
X199564Y235471D01*
X199120Y235914D01*
X198542Y236154D01*
D02*
G37*
G36*
X95786D02*
X95159D01*
X94581Y235914D01*
X94138Y235471D01*
X93898Y234893D01*
Y234266D01*
X94138Y233687D01*
X94581Y233244D01*
X95159Y233004D01*
X95786D01*
X96365Y233244D01*
X96808Y233687D01*
X97047Y234266D01*
Y234893D01*
X96808Y235471D01*
X96365Y235914D01*
X95786Y236154D01*
D02*
G37*
G36*
X172754Y231102D02*
X172128D01*
X171549Y230863D01*
X171106Y230420D01*
X170866Y229841D01*
Y229214D01*
X171106Y228636D01*
X171549Y228192D01*
X172128Y227953D01*
X172754D01*
X173333Y228192D01*
X173776Y228636D01*
X174016Y229214D01*
Y229841D01*
X173776Y230420D01*
X173333Y230863D01*
X172754Y231102D01*
D02*
G37*
G36*
X252675Y228334D02*
X252048D01*
X251469Y228094D01*
X251026Y227651D01*
X250786Y227072D01*
Y226446D01*
X251026Y225867D01*
X251469Y225424D01*
X252048Y225184D01*
X252675D01*
X253253Y225424D01*
X253696Y225867D01*
X253936Y226446D01*
Y227072D01*
X253696Y227651D01*
X253253Y228094D01*
X252675Y228334D01*
D02*
G37*
G36*
X217789Y228022D02*
X217163D01*
X216584Y227782D01*
X216141Y227339D01*
X215901Y226761D01*
Y226134D01*
X216141Y225555D01*
X216584Y225112D01*
X217163Y224872D01*
X217789D01*
X218368Y225112D01*
X218811Y225555D01*
X219051Y226134D01*
Y226761D01*
X218811Y227339D01*
X218368Y227782D01*
X217789Y228022D01*
D02*
G37*
G36*
X147164Y226858D02*
X146537D01*
X145958Y226618D01*
X145515Y226175D01*
X145276Y225596D01*
Y224970D01*
X145515Y224391D01*
X145958Y223948D01*
X146537Y223709D01*
X147164D01*
X147742Y223948D01*
X148186Y224391D01*
X148425Y224970D01*
Y225596D01*
X148186Y226175D01*
X147742Y226618D01*
X147164Y226858D01*
D02*
G37*
G36*
X178115Y226312D02*
X177488D01*
X176909Y226072D01*
X176467Y225629D01*
X176227Y225050D01*
Y224424D01*
X176467Y223845D01*
X176909Y223402D01*
X177488Y223163D01*
X178115D01*
X178694Y223402D01*
X179137Y223845D01*
X179376Y224424D01*
Y225050D01*
X179137Y225629D01*
X178694Y226072D01*
X178115Y226312D01*
D02*
G37*
G36*
X112760Y225862D02*
X112134D01*
X111555Y225623D01*
X111112Y225180D01*
X110872Y224601D01*
Y223974D01*
X111112Y223396D01*
X111555Y222953D01*
X112134Y222713D01*
X112760D01*
X113339Y222953D01*
X113782Y223396D01*
X114022Y223974D01*
Y224601D01*
X113782Y225180D01*
X113339Y225623D01*
X112760Y225862D01*
D02*
G37*
G36*
X245118Y225303D02*
X244491D01*
X243912Y225063D01*
X243469Y224620D01*
X243230Y224041D01*
Y223415D01*
X243469Y222836D01*
X243912Y222393D01*
X244491Y222153D01*
X245118D01*
X245696Y222393D01*
X246140Y222836D01*
X246379Y223415D01*
Y224041D01*
X246140Y224620D01*
X245696Y225063D01*
X245118Y225303D01*
D02*
G37*
G36*
X109399Y223230D02*
X108773D01*
X108194Y222990D01*
X107751Y222547D01*
X107511Y221968D01*
Y221342D01*
X107751Y220763D01*
X108194Y220320D01*
X108773Y220080D01*
X109399D01*
X109978Y220320D01*
X110421Y220763D01*
X110661Y221342D01*
Y221968D01*
X110421Y222547D01*
X109978Y222990D01*
X109399Y223230D01*
D02*
G37*
G36*
X147164Y221740D02*
X146537D01*
X145958Y221500D01*
X145515Y221057D01*
X145276Y220478D01*
Y219852D01*
X145515Y219273D01*
X145958Y218830D01*
X146537Y218590D01*
X147164D01*
X147742Y218830D01*
X148186Y219273D01*
X148425Y219852D01*
Y220478D01*
X148186Y221057D01*
X147742Y221500D01*
X147164Y221740D01*
D02*
G37*
G36*
X112441Y220541D02*
X111814D01*
X111235Y220301D01*
X110792Y219858D01*
X110553Y219279D01*
Y218653D01*
X110792Y218074D01*
X111235Y217631D01*
X111814Y217391D01*
X112441D01*
X113019Y217631D01*
X113462Y218074D01*
X113702Y218653D01*
Y219279D01*
X113462Y219858D01*
X113019Y220301D01*
X112441Y220541D01*
D02*
G37*
G36*
X180294Y218757D02*
X179668D01*
X179089Y218517D01*
X178646Y218074D01*
X178406Y217495D01*
Y216869D01*
X178646Y216290D01*
X179089Y215847D01*
X179668Y215607D01*
X180294D01*
X180873Y215847D01*
X181316Y216290D01*
X181556Y216869D01*
Y217495D01*
X181316Y218074D01*
X180873Y218517D01*
X180294Y218757D01*
D02*
G37*
G36*
X150313Y213866D02*
X149687D01*
X149108Y213626D01*
X148665Y213183D01*
X148425Y212604D01*
Y211978D01*
X148665Y211399D01*
X149108Y210956D01*
X149687Y210716D01*
X150313D01*
X150892Y210956D01*
X151335Y211399D01*
X151575Y211978D01*
Y212604D01*
X151335Y213183D01*
X150892Y213626D01*
X150313Y213866D01*
D02*
G37*
G36*
X115975Y213445D02*
X115348D01*
X114769Y213205D01*
X114326Y212762D01*
X114087Y212183D01*
Y211557D01*
X114326Y210978D01*
X114769Y210535D01*
X115348Y210296D01*
X115975D01*
X116553Y210535D01*
X116997Y210978D01*
X117236Y211557D01*
Y212183D01*
X116997Y212762D01*
X116553Y213205D01*
X115975Y213445D01*
D02*
G37*
G36*
X181180Y213442D02*
X180554D01*
X179975Y213203D01*
X179532Y212759D01*
X179292Y212181D01*
Y211554D01*
X179532Y210975D01*
X179975Y210532D01*
X180554Y210293D01*
X181180D01*
X181759Y210532D01*
X182202Y210975D01*
X182442Y211554D01*
Y212181D01*
X182202Y212759D01*
X181759Y213203D01*
X181180Y213442D01*
D02*
G37*
G36*
X187420Y209383D02*
X186793D01*
X186214Y209143D01*
X185771Y208700D01*
X185531Y208121D01*
Y207495D01*
X185771Y206916D01*
X186214Y206473D01*
X186793Y206233D01*
X187420D01*
X187998Y206473D01*
X188441Y206916D01*
X188681Y207495D01*
Y208121D01*
X188441Y208700D01*
X187998Y209143D01*
X187420Y209383D01*
D02*
G37*
G36*
X155923Y209362D02*
X155297D01*
X154718Y209122D01*
X154275Y208679D01*
X154035Y208100D01*
Y207474D01*
X154275Y206895D01*
X154718Y206452D01*
X155297Y206212D01*
X155923D01*
X156502Y206452D01*
X156945Y206895D01*
X157185Y207474D01*
Y208100D01*
X156945Y208679D01*
X156502Y209122D01*
X155923Y209362D01*
D02*
G37*
G36*
X196868Y208595D02*
X196242D01*
X195663Y208356D01*
X195220Y207913D01*
X194980Y207334D01*
Y206708D01*
X195220Y206129D01*
X195663Y205686D01*
X196242Y205446D01*
X196868D01*
X197447Y205686D01*
X197890Y206129D01*
X198130Y206708D01*
Y207334D01*
X197890Y207913D01*
X197447Y208356D01*
X196868Y208595D01*
D02*
G37*
G36*
X165748Y207814D02*
X165122D01*
X164543Y207574D01*
X164100Y207131D01*
X163860Y206552D01*
Y205926D01*
X164100Y205347D01*
X164543Y204904D01*
X165122Y204664D01*
X165748D01*
X166327Y204904D01*
X166770Y205347D01*
X167010Y205926D01*
Y206552D01*
X166770Y207131D01*
X166327Y207574D01*
X165748Y207814D01*
D02*
G37*
G36*
X131329Y205177D02*
X130702D01*
X130124Y204938D01*
X129681Y204495D01*
X129441Y203916D01*
Y203289D01*
X129681Y202711D01*
X130124Y202268D01*
X130702Y202028D01*
X131329D01*
X131908Y202268D01*
X132351Y202711D01*
X132591Y203289D01*
Y203916D01*
X132351Y204495D01*
X131908Y204938D01*
X131329Y205177D01*
D02*
G37*
G36*
X129472Y199614D02*
X128845D01*
X128267Y199374D01*
X127823Y198932D01*
X127584Y198353D01*
Y197726D01*
X127823Y197147D01*
X128267Y196704D01*
X128845Y196465D01*
X129472D01*
X130051Y196704D01*
X130494Y197147D01*
X130733Y197726D01*
Y198353D01*
X130494Y198932D01*
X130051Y199374D01*
X129472Y199614D01*
D02*
G37*
G36*
X252686Y196260D02*
X251251D01*
X249844Y195980D01*
X248518Y195431D01*
X247326Y194634D01*
X246311Y193619D01*
X245514Y192426D01*
X244965Y191101D01*
X244685Y189694D01*
Y188259D01*
X244965Y186852D01*
X245514Y185526D01*
X246311Y184333D01*
X247326Y183319D01*
X248518Y182522D01*
X249844Y181973D01*
X251251Y181693D01*
X252686D01*
X254093Y181973D01*
X255418Y182522D01*
X256611Y183319D01*
X257626Y184333D01*
X258423Y185526D01*
X258972Y186852D01*
X259252Y188259D01*
Y189694D01*
X258972Y191101D01*
X258423Y192426D01*
X257626Y193619D01*
X256611Y194634D01*
X255418Y195431D01*
X254093Y195980D01*
X252686Y196260D01*
D02*
G37*
G36*
X83394D02*
X81960D01*
X80553Y195980D01*
X79227Y195431D01*
X78034Y194634D01*
X77020Y193619D01*
X76223Y192426D01*
X75674Y191101D01*
X75394Y189694D01*
Y188259D01*
X75674Y186852D01*
X76223Y185526D01*
X77020Y184333D01*
X78034Y183319D01*
X79227Y182522D01*
X80553Y181973D01*
X81960Y181693D01*
X83394D01*
X84802Y181973D01*
X86127Y182522D01*
X87320Y183319D01*
X88335Y184333D01*
X89132Y185526D01*
X89681Y186852D01*
X89961Y188259D01*
Y189694D01*
X89681Y191101D01*
X89132Y192426D01*
X88335Y193619D01*
X87320Y194634D01*
X86127Y195431D01*
X84802Y195980D01*
X83394Y196260D01*
D02*
G37*
G36*
X117242Y174409D02*
X116616D01*
X116037Y174170D01*
X115594Y173727D01*
X115354Y173148D01*
Y172521D01*
X115594Y171943D01*
X116037Y171500D01*
X116616Y171260D01*
X117242D01*
X117821Y171500D01*
X118264Y171943D01*
X118504Y172521D01*
Y173148D01*
X118264Y173727D01*
X117821Y174170D01*
X117242Y174409D01*
D02*
G37*
G36*
X145195Y174016D02*
X144569D01*
X143990Y173776D01*
X143547Y173333D01*
X143307Y172754D01*
Y172128D01*
X143547Y171549D01*
X143990Y171106D01*
X144569Y170866D01*
X145195D01*
X145774Y171106D01*
X146217Y171549D01*
X146457Y172128D01*
Y172754D01*
X146217Y173333D01*
X145774Y173776D01*
X145195Y174016D01*
D02*
G37*
G36*
X134565Y169291D02*
X133939D01*
X133360Y169052D01*
X132917Y168609D01*
X132677Y168030D01*
Y167403D01*
X132917Y166824D01*
X133360Y166382D01*
X133939Y166142D01*
X134565D01*
X135144Y166382D01*
X135587Y166824D01*
X135827Y167403D01*
Y168030D01*
X135587Y168609D01*
X135144Y169052D01*
X134565Y169291D01*
D02*
G37*
G36*
X127872D02*
X127246D01*
X126667Y169052D01*
X126224Y168609D01*
X125984Y168030D01*
Y167403D01*
X126224Y166824D01*
X126667Y166382D01*
X127246Y166142D01*
X127872D01*
X128451Y166382D01*
X128894Y166824D01*
X129134Y167403D01*
Y168030D01*
X128894Y168609D01*
X128451Y169052D01*
X127872Y169291D01*
D02*
G37*
G36*
X84171Y165354D02*
X83545D01*
X82966Y165115D01*
X82742Y164890D01*
X82480Y164702D01*
X82219Y164890D01*
X81994Y165115D01*
X81416Y165354D01*
X80789D01*
X80210Y165115D01*
X79767Y164672D01*
X79528Y164093D01*
Y163466D01*
X79767Y162888D01*
X80210Y162444D01*
X80789Y162205D01*
X81416D01*
X81994Y162444D01*
X82219Y162669D01*
X82480Y162857D01*
X82742Y162669D01*
X82966Y162444D01*
X83545Y162205D01*
X84171D01*
X84750Y162444D01*
X85193Y162888D01*
X85433Y163466D01*
Y164093D01*
X85193Y164672D01*
X84750Y165115D01*
X84171Y165354D01*
D02*
G37*
G36*
X171967Y167323D02*
X171340D01*
X170762Y167083D01*
X170318Y166640D01*
X170079Y166061D01*
Y165435D01*
X170318Y164856D01*
X170762Y164413D01*
X171340Y164173D01*
X171967D01*
X172546Y164413D01*
X172989Y164856D01*
X173228Y165435D01*
Y166061D01*
X172989Y166640D01*
X172546Y167083D01*
X171967Y167323D01*
D02*
G37*
G36*
X203069Y166929D02*
X202443D01*
X201864Y166689D01*
X201421Y166246D01*
X201181Y165668D01*
Y165041D01*
X201421Y164462D01*
X201864Y164019D01*
X202443Y163779D01*
X203069D01*
X203648Y164019D01*
X204091Y164462D01*
X204331Y165041D01*
Y165668D01*
X204091Y166246D01*
X203648Y166689D01*
X203069Y166929D01*
D02*
G37*
G36*
X198345D02*
X197718D01*
X197140Y166689D01*
X196696Y166246D01*
X196457Y165668D01*
Y165041D01*
X196696Y164462D01*
X197140Y164019D01*
X197718Y163779D01*
X198345D01*
X198924Y164019D01*
X199367Y164462D01*
X199606Y165041D01*
Y165668D01*
X199367Y166246D01*
X198924Y166689D01*
X198345Y166929D01*
D02*
G37*
G36*
X183778Y162205D02*
X183151D01*
X182572Y161965D01*
X182130Y161522D01*
X181890Y160943D01*
Y160317D01*
X182130Y159738D01*
X182572Y159295D01*
X183151Y159055D01*
X183778D01*
X184357Y159295D01*
X184800Y159738D01*
X185039Y160317D01*
Y160943D01*
X184800Y161522D01*
X184357Y161965D01*
X183778Y162205D01*
D02*
G37*
G36*
X172361D02*
X171734D01*
X171155Y161965D01*
X170712Y161522D01*
X170472Y160943D01*
Y160317D01*
X170712Y159738D01*
X171155Y159295D01*
X171734Y159055D01*
X172361D01*
X172939Y159295D01*
X173382Y159738D01*
X173622Y160317D01*
Y160943D01*
X173382Y161522D01*
X172939Y161965D01*
X172361Y162205D01*
D02*
G37*
G36*
X94408Y161024D02*
X93781D01*
X93202Y160784D01*
X92759Y160341D01*
X92520Y159762D01*
Y159136D01*
X92759Y158557D01*
X93202Y158114D01*
X93781Y157874D01*
X94408D01*
X94986Y158114D01*
X95429Y158557D01*
X95669Y159136D01*
Y159762D01*
X95429Y160341D01*
X94986Y160784D01*
X94408Y161024D01*
D02*
G37*
G36*
X183778Y157480D02*
X183151D01*
X182572Y157241D01*
X182130Y156798D01*
X181890Y156219D01*
Y155592D01*
X182130Y155014D01*
X182572Y154570D01*
X183151Y154331D01*
X183778D01*
X184357Y154570D01*
X184800Y155014D01*
X185039Y155592D01*
Y156219D01*
X184800Y156798D01*
X184357Y157241D01*
X183778Y157480D01*
D02*
G37*
G36*
X94408Y155118D02*
X93781D01*
X93202Y154878D01*
X92759Y154435D01*
X92520Y153857D01*
Y153230D01*
X92759Y152651D01*
X93202Y152208D01*
X93781Y151969D01*
X94408D01*
X94986Y152208D01*
X95429Y152651D01*
X95669Y153230D01*
Y153857D01*
X95429Y154435D01*
X94986Y154878D01*
X94408Y155118D01*
D02*
G37*
G36*
X114487Y153937D02*
X113860D01*
X113281Y153697D01*
X112838Y153254D01*
X112598Y152675D01*
Y152049D01*
X112838Y151470D01*
X113281Y151027D01*
X113860Y150787D01*
X114487D01*
X115065Y151027D01*
X115508Y151470D01*
X115748Y152049D01*
Y152675D01*
X115508Y153254D01*
X115065Y153697D01*
X114487Y153937D01*
D02*
G37*
G36*
X183778Y152362D02*
X183151D01*
X182572Y152122D01*
X182130Y151679D01*
X181890Y151101D01*
Y150474D01*
X182130Y149895D01*
X182572Y149452D01*
X183151Y149213D01*
X183778D01*
X184357Y149452D01*
X184800Y149895D01*
X185039Y150474D01*
Y151101D01*
X184800Y151679D01*
X184357Y152122D01*
X183778Y152362D01*
D02*
G37*
G36*
X171573D02*
X170947D01*
X170368Y152122D01*
X169925Y151679D01*
X169685Y151101D01*
Y150474D01*
X169925Y149895D01*
X170368Y149452D01*
X170947Y149213D01*
X171573D01*
X172152Y149452D01*
X172595Y149895D01*
X172835Y150474D01*
Y151101D01*
X172595Y151679D01*
X172152Y152122D01*
X171573Y152362D01*
D02*
G37*
G36*
X145195Y149213D02*
X144569D01*
X143990Y148973D01*
X143547Y148530D01*
X143307Y147951D01*
Y147325D01*
X143547Y146746D01*
X143990Y146303D01*
X144569Y146063D01*
X145195D01*
X145774Y146303D01*
X146217Y146746D01*
X146457Y147325D01*
Y147951D01*
X146217Y148530D01*
X145774Y148973D01*
X145195Y149213D01*
D02*
G37*
G36*
X94408Y148425D02*
X93781D01*
X93202Y148185D01*
X92759Y147742D01*
X92520Y147164D01*
Y146537D01*
X92759Y145958D01*
X93202Y145515D01*
X93781Y145276D01*
X94408D01*
X94986Y145515D01*
X95429Y145958D01*
X95669Y146537D01*
Y147164D01*
X95429Y147742D01*
X94986Y148185D01*
X94408Y148425D01*
D02*
G37*
G36*
X193227Y150098D02*
X192600D01*
X192021Y149859D01*
X191578Y149416D01*
X191339Y148837D01*
Y148210D01*
X191578Y147632D01*
X191917Y147293D01*
X191578Y146955D01*
X191339Y146376D01*
Y145750D01*
X191578Y145171D01*
X192021Y144728D01*
X192600Y144488D01*
X193227D01*
X193805Y144728D01*
X194248Y145171D01*
X194488Y145750D01*
Y146376D01*
X194248Y146955D01*
X193910Y147293D01*
X194248Y147632D01*
X194488Y148210D01*
Y148837D01*
X194248Y149416D01*
X193805Y149859D01*
X193227Y150098D01*
D02*
G37*
G36*
X171967Y146850D02*
X171340D01*
X170762Y146611D01*
X170318Y146168D01*
X170079Y145589D01*
Y144962D01*
X170318Y144384D01*
X170762Y143940D01*
X171340Y143701D01*
X171967D01*
X172546Y143940D01*
X172989Y144384D01*
X173228Y144962D01*
Y145589D01*
X172989Y146168D01*
X172546Y146611D01*
X171967Y146850D01*
D02*
G37*
G36*
X203463Y144882D02*
X202836D01*
X202258Y144642D01*
X201815Y144199D01*
X201575Y143620D01*
Y142994D01*
X201815Y142415D01*
X202258Y141972D01*
X202836Y141732D01*
X203463D01*
X204042Y141972D01*
X204485Y142415D01*
X204724Y142994D01*
Y143620D01*
X204485Y144199D01*
X204042Y144642D01*
X203463Y144882D01*
D02*
G37*
G36*
X211731Y152756D02*
X211104D01*
X210525Y152516D01*
X210082Y152073D01*
X209842Y151494D01*
Y150868D01*
X210082Y150289D01*
X210307Y150065D01*
X210494Y149803D01*
X210307Y149542D01*
X210082Y149317D01*
X209842Y148738D01*
Y148112D01*
X210082Y147533D01*
X210307Y147309D01*
X210494Y147047D01*
X210307Y146786D01*
X210082Y146561D01*
X209842Y145983D01*
Y145356D01*
X210082Y144777D01*
X210307Y144553D01*
X210494Y144291D01*
X210307Y144030D01*
X210082Y143805D01*
X209842Y143227D01*
Y142600D01*
X210082Y142021D01*
X210525Y141578D01*
X211104Y141339D01*
X211731D01*
X212309Y141578D01*
X212752Y142021D01*
X212992Y142600D01*
Y143227D01*
X212752Y143805D01*
X212528Y144030D01*
X212340Y144291D01*
X212528Y144553D01*
X212752Y144777D01*
X212992Y145356D01*
Y145983D01*
X212752Y146561D01*
X212528Y146786D01*
X212340Y147047D01*
X212528Y147309D01*
X212752Y147533D01*
X212992Y148112D01*
Y148738D01*
X212752Y149317D01*
X212528Y149542D01*
X212340Y149803D01*
X212528Y150065D01*
X212752Y150289D01*
X212992Y150868D01*
Y151494D01*
X212752Y152073D01*
X212309Y152516D01*
X211731Y152756D01*
D02*
G37*
G36*
X94408Y143307D02*
X93781D01*
X93202Y143067D01*
X92759Y142624D01*
X92520Y142045D01*
Y141419D01*
X92759Y140840D01*
X93202Y140397D01*
X93781Y140157D01*
X94408D01*
X94986Y140397D01*
X95429Y140840D01*
X95669Y141419D01*
Y142045D01*
X95429Y142624D01*
X94986Y143067D01*
X94408Y143307D01*
D02*
G37*
G36*
X181416Y142520D02*
X180789D01*
X180210Y142280D01*
X179767Y141837D01*
X179528Y141258D01*
Y140632D01*
X179767Y140053D01*
X180210Y139610D01*
X180789Y139370D01*
X181416D01*
X181994Y139610D01*
X182437Y140053D01*
X182677Y140632D01*
Y141258D01*
X182437Y141837D01*
X181994Y142280D01*
X181416Y142520D01*
D02*
G37*
G36*
X171967D02*
X171340D01*
X170762Y142280D01*
X170318Y141837D01*
X170079Y141258D01*
Y140632D01*
X170318Y140053D01*
X170762Y139610D01*
X171340Y139370D01*
X171967D01*
X172546Y139610D01*
X172989Y140053D01*
X173228Y140632D01*
Y141258D01*
X172989Y141837D01*
X172546Y142280D01*
X171967Y142520D01*
D02*
G37*
G36*
X145195Y140945D02*
X144569D01*
X143990Y140705D01*
X143547Y140262D01*
X143307Y139683D01*
Y139057D01*
X143547Y138478D01*
X143990Y138035D01*
X144569Y137795D01*
X145195D01*
X145774Y138035D01*
X146217Y138478D01*
X146457Y139057D01*
Y139683D01*
X146217Y140262D01*
X145774Y140705D01*
X145195Y140945D01*
D02*
G37*
G36*
X117242D02*
X116616D01*
X116037Y140705D01*
X115594Y140262D01*
X115354Y139683D01*
Y139057D01*
X115594Y138478D01*
X116037Y138035D01*
X116616Y137795D01*
X117242D01*
X117821Y138035D01*
X118264Y138478D01*
X118504Y139057D01*
Y139683D01*
X118264Y140262D01*
X117821Y140705D01*
X117242Y140945D01*
D02*
G37*
G36*
X77479Y140551D02*
X76852D01*
X76273Y140311D01*
X75830Y139868D01*
X75591Y139290D01*
Y138663D01*
X75830Y138084D01*
X76273Y137641D01*
X76852Y137402D01*
X77479D01*
X78057Y137641D01*
X78500Y138084D01*
X78740Y138663D01*
Y139290D01*
X78500Y139868D01*
X78057Y140311D01*
X77479Y140551D01*
D02*
G37*
G36*
X91652Y137402D02*
X91025D01*
X90447Y137162D01*
X90004Y136719D01*
X89764Y136140D01*
Y135513D01*
X90004Y134935D01*
X90447Y134492D01*
X91025Y134252D01*
X91652D01*
X92231Y134492D01*
X92674Y134935D01*
X92913Y135513D01*
Y136140D01*
X92674Y136719D01*
X92231Y137162D01*
X91652Y137402D01*
D02*
G37*
G36*
X171967Y137402D02*
X171340D01*
X170762Y137162D01*
X170318Y136719D01*
X170079Y136140D01*
Y135513D01*
X170318Y134935D01*
X170762Y134492D01*
X171340Y134252D01*
X171967D01*
X172546Y134492D01*
X172989Y134935D01*
X173228Y135513D01*
Y136140D01*
X172989Y136719D01*
X172546Y137162D01*
X171967Y137402D01*
D02*
G37*
G36*
X134171Y135827D02*
X133545D01*
X132966Y135587D01*
X132523Y135144D01*
X132283Y134565D01*
Y133939D01*
X132523Y133360D01*
X132966Y132917D01*
X133545Y132677D01*
X134171D01*
X134750Y132917D01*
X135193Y133360D01*
X135433Y133939D01*
Y134565D01*
X135193Y135144D01*
X134750Y135587D01*
X134171Y135827D01*
D02*
G37*
G36*
X171967Y128740D02*
X171340D01*
X170762Y128500D01*
X170318Y128057D01*
X170079Y127479D01*
Y126852D01*
X170318Y126273D01*
X170762Y125830D01*
X171340Y125591D01*
X171967D01*
X172546Y125830D01*
X172989Y126273D01*
X173228Y126852D01*
Y127479D01*
X172989Y128057D01*
X172546Y128500D01*
X171967Y128740D01*
D02*
G37*
G36*
X199920Y128347D02*
X199293D01*
X198714Y128107D01*
X198271Y127664D01*
X198031Y127085D01*
Y126458D01*
X198271Y125880D01*
X198714Y125437D01*
X199293Y125197D01*
X199920D01*
X200498Y125437D01*
X200941Y125880D01*
X201181Y126458D01*
Y127085D01*
X200941Y127664D01*
X200498Y128107D01*
X199920Y128347D01*
D02*
G37*
G36*
X195589D02*
X194962D01*
X194384Y128107D01*
X193940Y127664D01*
X193701Y127085D01*
Y126458D01*
X193940Y125880D01*
X194384Y125437D01*
X194962Y125197D01*
X195589D01*
X196168Y125437D01*
X196611Y125880D01*
X196850Y126458D01*
Y127085D01*
X196611Y127664D01*
X196168Y128107D01*
X195589Y128347D01*
D02*
G37*
G36*
X171967Y123622D02*
X171340D01*
X170762Y123382D01*
X170318Y122939D01*
X170079Y122361D01*
Y121734D01*
X170318Y121155D01*
X170762Y120712D01*
X171340Y120472D01*
X171967D01*
X172546Y120712D01*
X172989Y121155D01*
X173228Y121734D01*
Y122361D01*
X172989Y122939D01*
X172546Y123382D01*
X171967Y123622D01*
D02*
G37*
G36*
X205038Y121260D02*
X204411D01*
X203832Y121020D01*
X203389Y120577D01*
X203150Y119998D01*
Y119372D01*
X203389Y118793D01*
X203832Y118350D01*
X204411Y118110D01*
X205038D01*
X205616Y118350D01*
X206060Y118793D01*
X206299Y119372D01*
Y119998D01*
X206060Y120577D01*
X205616Y121020D01*
X205038Y121260D01*
D02*
G37*
G36*
X114487Y120866D02*
X113860D01*
X113281Y120626D01*
X112838Y120183D01*
X112598Y119605D01*
Y118978D01*
X112838Y118399D01*
X113281Y117956D01*
X113860Y117717D01*
X114487D01*
X115065Y117956D01*
X115508Y118399D01*
X115748Y118978D01*
Y119605D01*
X115508Y120183D01*
X115065Y120626D01*
X114487Y120866D01*
D02*
G37*
G36*
X145195Y115748D02*
X144569D01*
X143990Y115508D01*
X143547Y115065D01*
X143307Y114487D01*
Y113860D01*
X143547Y113281D01*
X143990Y112838D01*
X144569Y112598D01*
X145195D01*
X145774Y112838D01*
X146217Y113281D01*
X146457Y113860D01*
Y114487D01*
X146217Y115065D01*
X145774Y115508D01*
X145195Y115748D01*
D02*
G37*
G36*
X183778Y108661D02*
X183151D01*
X182572Y108422D01*
X182130Y107979D01*
X181890Y107400D01*
Y106773D01*
X182130Y106195D01*
X182572Y105752D01*
X183151Y105512D01*
X183778D01*
X184357Y105752D01*
X184800Y106195D01*
X185039Y106773D01*
Y107400D01*
X184800Y107979D01*
X184357Y108422D01*
X183778Y108661D01*
D02*
G37*
G36*
X171967D02*
X171340D01*
X170762Y108422D01*
X170318Y107979D01*
X170079Y107400D01*
Y106773D01*
X170318Y106195D01*
X170762Y105752D01*
X171340Y105512D01*
X171967D01*
X172546Y105752D01*
X172989Y106195D01*
X173228Y106773D01*
Y107400D01*
X172989Y107979D01*
X172546Y108422D01*
X171967Y108661D01*
D02*
G37*
G36*
X117242Y107087D02*
X116616D01*
X116037Y106847D01*
X115594Y106404D01*
X115354Y105825D01*
Y105199D01*
X115594Y104620D01*
X116037Y104177D01*
X116616Y103937D01*
X117242D01*
X117821Y104177D01*
X118264Y104620D01*
X118504Y105199D01*
Y105825D01*
X118264Y106404D01*
X117821Y106847D01*
X117242Y107087D01*
D02*
G37*
G36*
X145195Y106693D02*
X144569D01*
X143990Y106453D01*
X143547Y106010D01*
X143307Y105431D01*
Y104805D01*
X143547Y104226D01*
X143990Y103783D01*
X144569Y103543D01*
X145195D01*
X145774Y103783D01*
X146217Y104226D01*
X146457Y104805D01*
Y105431D01*
X146217Y106010D01*
X145774Y106453D01*
X145195Y106693D01*
D02*
G37*
G36*
X183778Y103543D02*
X183151D01*
X182572Y103304D01*
X182130Y102860D01*
X181890Y102282D01*
Y101655D01*
X182130Y101076D01*
X182572Y100634D01*
X183151Y100394D01*
X183778D01*
X184357Y100634D01*
X184800Y101076D01*
X185039Y101655D01*
Y102282D01*
X184800Y102860D01*
X184357Y103304D01*
X183778Y103543D01*
D02*
G37*
G36*
X134171Y101969D02*
X133545D01*
X132966Y101729D01*
X132523Y101286D01*
X132283Y100707D01*
Y100080D01*
X132523Y99502D01*
X132966Y99059D01*
X133545Y98819D01*
X134171D01*
X134750Y99059D01*
X135193Y99502D01*
X135433Y100080D01*
Y100707D01*
X135193Y101286D01*
X134750Y101729D01*
X134171Y101969D01*
D02*
G37*
G36*
X90565Y103648D02*
X89750D01*
X88962Y103437D01*
X88256Y103029D01*
X87679Y102453D01*
X87272Y101746D01*
X87061Y100959D01*
Y100144D01*
X87272Y99356D01*
X87679Y98650D01*
X88256Y98073D01*
X88962Y97665D01*
X89750Y97454D01*
X90565D01*
X91353Y97665D01*
X92059Y98073D01*
X92636Y98650D01*
X93043Y99356D01*
X93254Y100144D01*
Y100959D01*
X93043Y101746D01*
X92636Y102453D01*
X92059Y103029D01*
X91353Y103437D01*
X90565Y103648D01*
D02*
G37*
G36*
X80565D02*
X79750D01*
X78962Y103437D01*
X78256Y103029D01*
X77679Y102453D01*
X77272Y101746D01*
X77061Y100959D01*
Y100144D01*
X77272Y99356D01*
X77679Y98650D01*
X78256Y98073D01*
X78962Y97665D01*
X79750Y97454D01*
X80565D01*
X81353Y97665D01*
X82059Y98073D01*
X82636Y98650D01*
X83043Y99356D01*
X83254Y100144D01*
Y100959D01*
X83043Y101746D01*
X82636Y102453D01*
X82059Y103029D01*
X81353Y103437D01*
X80565Y103648D01*
D02*
G37*
G36*
X90565Y93648D02*
X89750D01*
X88962Y93437D01*
X88256Y93029D01*
X87679Y92453D01*
X87272Y91746D01*
X87061Y90959D01*
Y90144D01*
X87272Y89356D01*
X87679Y88650D01*
X88256Y88073D01*
X88962Y87665D01*
X89750Y87454D01*
X90565D01*
X91353Y87665D01*
X92059Y88073D01*
X92636Y88650D01*
X93043Y89356D01*
X93254Y90144D01*
Y90959D01*
X93043Y91746D01*
X92636Y92453D01*
X92059Y93029D01*
X91353Y93437D01*
X90565Y93648D01*
D02*
G37*
G36*
X80565D02*
X79750D01*
X78962Y93437D01*
X78256Y93029D01*
X77679Y92453D01*
X77272Y91746D01*
X77061Y90959D01*
Y90144D01*
X77272Y89356D01*
X77679Y88650D01*
X78256Y88073D01*
X78962Y87665D01*
X79750Y87454D01*
X80565D01*
X81353Y87665D01*
X82059Y88073D01*
X82636Y88650D01*
X83043Y89356D01*
X83254Y90144D01*
Y90959D01*
X83043Y91746D01*
X82636Y92453D01*
X82059Y93029D01*
X81353Y93437D01*
X80565Y93648D01*
D02*
G37*
G36*
X194408Y89764D02*
X193781D01*
X193202Y89524D01*
X192759Y89081D01*
X192520Y88502D01*
Y87876D01*
X192759Y87297D01*
X193202Y86854D01*
X193781Y86614D01*
X194408D01*
X194986Y86854D01*
X195430Y87297D01*
X195669Y87876D01*
Y88502D01*
X195430Y89081D01*
X194986Y89524D01*
X194408Y89764D01*
D02*
G37*
G36*
X114880Y87008D02*
X114254D01*
X113675Y86768D01*
X113232Y86325D01*
X112992Y85746D01*
Y85120D01*
X113232Y84541D01*
X113675Y84098D01*
X114254Y83858D01*
X114880D01*
X115459Y84098D01*
X115902Y84541D01*
X116142Y85120D01*
Y85746D01*
X115902Y86325D01*
X115459Y86768D01*
X114880Y87008D01*
D02*
G37*
G36*
X190077Y85433D02*
X189451D01*
X188872Y85193D01*
X188429Y84750D01*
X188189Y84171D01*
Y83545D01*
X188429Y82966D01*
X188872Y82523D01*
X189451Y82284D01*
X190077D01*
X190656Y82523D01*
X191099Y82966D01*
X191339Y83545D01*
Y84171D01*
X191099Y84750D01*
X190656Y85193D01*
X190077Y85433D01*
D02*
G37*
G36*
X185353D02*
X184726D01*
X184147Y85193D01*
X183704Y84750D01*
X183465Y84171D01*
Y83545D01*
X183704Y82966D01*
X184147Y82523D01*
X184726Y82284D01*
X185353D01*
X185931Y82523D01*
X186374Y82966D01*
X186614Y83545D01*
Y84171D01*
X186374Y84750D01*
X185931Y85193D01*
X185353Y85433D01*
D02*
G37*
G36*
X145195Y81890D02*
X144569D01*
X143990Y81650D01*
X143547Y81207D01*
X143307Y80628D01*
Y80002D01*
X143547Y79423D01*
X143990Y78980D01*
X144569Y78740D01*
X145195D01*
X145774Y78980D01*
X146217Y79423D01*
X146457Y80002D01*
Y80628D01*
X146217Y81207D01*
X145774Y81650D01*
X145195Y81890D01*
D02*
G37*
G36*
X90565Y83648D02*
X89750D01*
X88962Y83437D01*
X88256Y83029D01*
X87679Y82453D01*
X87272Y81747D01*
X87061Y80959D01*
Y80143D01*
X87272Y79356D01*
X87679Y78650D01*
X88256Y78073D01*
X88962Y77665D01*
X89750Y77454D01*
X90565D01*
X91353Y77665D01*
X92059Y78073D01*
X92636Y78650D01*
X93043Y79356D01*
X93254Y80143D01*
Y80959D01*
X93043Y81747D01*
X92636Y82453D01*
X92059Y83029D01*
X91353Y83437D01*
X90565Y83648D01*
D02*
G37*
G36*
X83254D02*
X77061D01*
Y77454D01*
X83254D01*
Y83648D01*
D02*
G37*
G36*
X71967Y77165D02*
X71340D01*
X70762Y76926D01*
X70319Y76483D01*
X70079Y75904D01*
Y75277D01*
X70319Y74699D01*
X70762Y74256D01*
X71340Y74016D01*
X71967D01*
X72546Y74256D01*
X72989Y74699D01*
X73228Y75277D01*
Y75904D01*
X72989Y76483D01*
X72546Y76926D01*
X71967Y77165D01*
D02*
G37*
G36*
X144014Y72047D02*
X143387D01*
X142809Y71807D01*
X142366Y71364D01*
X142126Y70786D01*
Y70159D01*
X142366Y69580D01*
X142809Y69137D01*
X143387Y68898D01*
X144014D01*
X144593Y69137D01*
X145036Y69580D01*
X145276Y70159D01*
Y70786D01*
X145036Y71364D01*
X144593Y71807D01*
X144014Y72047D01*
D02*
G37*
G36*
X93295Y71536D02*
X92668D01*
X92089Y71296D01*
X91646Y70853D01*
X91407Y70274D01*
Y69648D01*
X91646Y69069D01*
X92089Y68626D01*
X92668Y68386D01*
X93295D01*
X93874Y68626D01*
X94317Y69069D01*
X94556Y69648D01*
Y70274D01*
X94317Y70853D01*
X93874Y71296D01*
X93295Y71536D01*
D02*
G37*
G36*
X128955Y70092D02*
X128329D01*
X127750Y69852D01*
X127307Y69409D01*
X127067Y68830D01*
Y68204D01*
X127307Y67625D01*
X127750Y67182D01*
X128329Y66942D01*
X128955D01*
X129534Y67182D01*
X129977Y67625D01*
X130217Y68204D01*
Y68830D01*
X129977Y69409D01*
X129534Y69852D01*
X128955Y70092D01*
D02*
G37*
G36*
X122185Y70083D02*
X121559D01*
X120980Y69843D01*
X120537Y69400D01*
X120297Y68821D01*
Y68195D01*
X120537Y67616D01*
X120980Y67173D01*
X121559Y66933D01*
X122185D01*
X122764Y67173D01*
X123207Y67616D01*
X123447Y68195D01*
Y68821D01*
X123207Y69400D01*
X122764Y69843D01*
X122185Y70083D01*
D02*
G37*
G36*
X87565Y69775D02*
X86939D01*
X86360Y69535D01*
X85917Y69092D01*
X85677Y68513D01*
Y67887D01*
X85917Y67308D01*
X86360Y66865D01*
X86939Y66625D01*
X87565D01*
X88144Y66865D01*
X88587Y67308D01*
X88827Y67887D01*
Y68513D01*
X88587Y69092D01*
X88144Y69535D01*
X87565Y69775D01*
D02*
G37*
G36*
X168810Y67315D02*
X168184D01*
X167605Y67075D01*
X167162Y66632D01*
X166922Y66053D01*
Y65427D01*
X167162Y64848D01*
X167605Y64405D01*
X168184Y64165D01*
X168810D01*
X169389Y64405D01*
X169832Y64848D01*
X170072Y65427D01*
Y66053D01*
X169832Y66632D01*
X169389Y67075D01*
X168810Y67315D01*
D02*
G37*
G36*
X252686Y78150D02*
X251251D01*
X249844Y77870D01*
X248518Y77321D01*
X247326Y76524D01*
X246311Y75509D01*
X245514Y74316D01*
X244965Y72991D01*
X244685Y71583D01*
Y70149D01*
X244965Y68742D01*
X245514Y67416D01*
X246311Y66223D01*
X247326Y65209D01*
X248518Y64412D01*
X249844Y63863D01*
X251251Y63583D01*
X252686D01*
X254093Y63863D01*
X255418Y64412D01*
X256611Y65209D01*
X257626Y66223D01*
X258423Y67416D01*
X258972Y68742D01*
X259252Y70149D01*
Y71583D01*
X258972Y72991D01*
X258423Y74316D01*
X257626Y75509D01*
X256611Y76524D01*
X255418Y77321D01*
X254093Y77870D01*
X252686Y78150D01*
D02*
G37*
G36*
X118719Y66466D02*
X118092D01*
X117514Y66226D01*
X117070Y65783D01*
X116831Y65204D01*
Y64578D01*
X117070Y63999D01*
X117514Y63556D01*
X118092Y63316D01*
X118719D01*
X119298Y63556D01*
X119741Y63999D01*
X119980Y64578D01*
Y65204D01*
X119741Y65783D01*
X119298Y66226D01*
X118719Y66466D01*
D02*
G37*
G36*
X83562Y65693D02*
X82935D01*
X82356Y65453D01*
X81913Y65010D01*
X81674Y64431D01*
Y63805D01*
X81913Y63226D01*
X82356Y62783D01*
X82935Y62543D01*
X83562D01*
X84140Y62783D01*
X84583Y63226D01*
X84823Y63805D01*
Y64431D01*
X84583Y65010D01*
X84140Y65453D01*
X83562Y65693D01*
D02*
G37*
G36*
X110789Y56441D02*
X110162D01*
X109584Y56201D01*
X109141Y55758D01*
X108901Y55180D01*
Y54553D01*
X109141Y53974D01*
X109584Y53531D01*
X110162Y53291D01*
X110789D01*
X111368Y53531D01*
X111811Y53974D01*
X112050Y54553D01*
Y55180D01*
X111811Y55758D01*
X111368Y56201D01*
X110789Y56441D01*
D02*
G37*
G36*
X149201Y55281D02*
X148575D01*
X147996Y55041D01*
X147553Y54598D01*
X147313Y54019D01*
Y53392D01*
X147553Y52814D01*
X147996Y52371D01*
X148575Y52131D01*
X149201D01*
X149780Y52371D01*
X150223Y52814D01*
X150463Y53392D01*
Y54019D01*
X150223Y54598D01*
X149780Y55041D01*
X149201Y55281D01*
D02*
G37*
G36*
X94398Y50894D02*
X93772D01*
X93193Y50654D01*
X92750Y50211D01*
X92510Y49632D01*
Y49006D01*
X92750Y48427D01*
X93193Y47984D01*
X93772Y47744D01*
X94398D01*
X94977Y47984D01*
X95420Y48427D01*
X95660Y49006D01*
Y49632D01*
X95420Y50211D01*
X94977Y50654D01*
X94398Y50894D01*
D02*
G37*
G36*
X129568Y50626D02*
X128942D01*
X128363Y50386D01*
X127920Y49943D01*
X127680Y49364D01*
Y48738D01*
X127920Y48159D01*
X128363Y47716D01*
X128942Y47476D01*
X129568D01*
X130147Y47716D01*
X130590Y48159D01*
X130830Y48738D01*
Y49364D01*
X130590Y49943D01*
X130147Y50386D01*
X129568Y50626D01*
D02*
G37*
G36*
X117951Y45671D02*
X117324D01*
X116745Y45431D01*
X116302Y44988D01*
X116063Y44410D01*
Y43783D01*
X116302Y43204D01*
X116745Y42761D01*
X117324Y42522D01*
X117951D01*
X118529Y42761D01*
X118973Y43204D01*
X119212Y43783D01*
Y44410D01*
X118973Y44988D01*
X118529Y45431D01*
X117951Y45671D01*
D02*
G37*
G36*
X129546Y45669D02*
X128919D01*
X128340Y45429D01*
X127897Y44986D01*
X127657Y44407D01*
Y43781D01*
X127897Y43202D01*
X128340Y42759D01*
X128919Y42519D01*
X129546D01*
X130124Y42759D01*
X130567Y43202D01*
X130807Y43781D01*
Y44407D01*
X130567Y44986D01*
X130124Y45429D01*
X129546Y45669D01*
D02*
G37*
G36*
X94435Y45515D02*
X93808D01*
X93229Y45276D01*
X92786Y44833D01*
X92547Y44254D01*
Y43627D01*
X92786Y43049D01*
X93229Y42606D01*
X93808Y42366D01*
X94435D01*
X95013Y42606D01*
X95456Y43049D01*
X95696Y43627D01*
Y44254D01*
X95456Y44833D01*
X95013Y45276D01*
X94435Y45515D01*
D02*
G37*
G36*
X83440Y45385D02*
X82814D01*
X82235Y45145D01*
X81792Y44702D01*
X81552Y44124D01*
Y43497D01*
X81792Y42918D01*
X82235Y42475D01*
X82814Y42235D01*
X83440D01*
X84019Y42475D01*
X84462Y42918D01*
X84702Y43497D01*
Y44124D01*
X84462Y44702D01*
X84019Y45145D01*
X83440Y45385D01*
D02*
G37*
G36*
X142288Y43677D02*
X141662D01*
X141083Y43437D01*
X140640Y42994D01*
X140400Y42415D01*
Y41789D01*
X140640Y41210D01*
X141083Y40767D01*
X141662Y40527D01*
X142288D01*
X142867Y40767D01*
X143310Y41210D01*
X143550Y41789D01*
Y42415D01*
X143310Y42994D01*
X142867Y43437D01*
X142288Y43677D01*
D02*
G37*
G36*
X75956Y42186D02*
X75330D01*
X74751Y41947D01*
X74308Y41504D01*
X74068Y40925D01*
Y40298D01*
X74308Y39719D01*
X74751Y39276D01*
X75330Y39037D01*
X75956D01*
X76535Y39276D01*
X76978Y39719D01*
X77218Y40298D01*
Y40925D01*
X76978Y41504D01*
X76535Y41947D01*
X75956Y42186D01*
D02*
G37*
G36*
X193522Y42028D02*
X192895D01*
X192317Y41788D01*
X191874Y41345D01*
X191634Y40766D01*
Y40139D01*
X191874Y39561D01*
X192317Y39118D01*
X192895Y38878D01*
X193522D01*
X194101Y39118D01*
X194544Y39561D01*
X194783Y40139D01*
Y40766D01*
X194544Y41345D01*
X194101Y41788D01*
X193522Y42028D01*
D02*
G37*
G36*
X113195Y41339D02*
X112568D01*
X111989Y41099D01*
X111546Y40656D01*
X111307Y40077D01*
Y39451D01*
X111546Y38872D01*
X111989Y38429D01*
X112568Y38189D01*
X113195D01*
X113773Y38429D01*
X114216Y38872D01*
X114456Y39451D01*
Y40077D01*
X114216Y40656D01*
X113773Y41099D01*
X113195Y41339D01*
D02*
G37*
G36*
X168817Y39764D02*
X168191D01*
X167612Y39524D01*
X167169Y39081D01*
X166929Y38502D01*
Y37876D01*
X167169Y37297D01*
X167612Y36854D01*
X168191Y36614D01*
X168817D01*
X169396Y36854D01*
X169839Y37297D01*
X170079Y37876D01*
Y38502D01*
X169839Y39081D01*
X169396Y39524D01*
X168817Y39764D01*
D02*
G37*
G36*
X146648Y38608D02*
X146022D01*
X145443Y38368D01*
X145000Y37925D01*
X144760Y37346D01*
Y36720D01*
X145000Y36141D01*
X145443Y35698D01*
X146022Y35458D01*
X146648D01*
X147227Y35698D01*
X147670Y36141D01*
X147910Y36720D01*
Y37346D01*
X147670Y37925D01*
X147227Y38368D01*
X146648Y38608D01*
D02*
G37*
G36*
X46909Y320676D02*
X45611D01*
X44358Y320340D01*
X43234Y319691D01*
X42317Y318774D01*
X41668Y317650D01*
X41332Y316397D01*
Y315099D01*
X41668Y313846D01*
X42317Y312722D01*
X43234Y311805D01*
X44358Y311156D01*
X45611Y310821D01*
X46909D01*
X48162Y311156D01*
X49285Y311805D01*
X50203Y312722D01*
X50852Y313846D01*
X51187Y315099D01*
Y316397D01*
X50852Y317650D01*
X50203Y318774D01*
X49285Y319691D01*
X48162Y320340D01*
X46909Y320676D01*
D02*
G37*
G36*
X-14017D02*
X-15314D01*
X-16567Y320340D01*
X-17691Y319691D01*
X-18608Y318774D01*
X-19257Y317650D01*
X-19593Y316397D01*
Y315099D01*
X-19257Y313846D01*
X-18608Y312722D01*
X-17691Y311805D01*
X-16567Y311156D01*
X-15314Y310821D01*
X-14017D01*
X-12763Y311156D01*
X-11640Y311805D01*
X-10722Y312722D01*
X-10074Y313846D01*
X-9738Y315099D01*
Y316397D01*
X-10074Y317650D01*
X-10722Y318774D01*
X-11640Y319691D01*
X-12763Y320340D01*
X-14017Y320676D01*
D02*
G37*
G36*
X-28427Y311319D02*
X-29053D01*
X-29632Y311079D01*
X-30075Y310636D01*
X-30315Y310057D01*
Y309431D01*
X-30075Y308852D01*
X-29632Y308409D01*
X-29053Y308169D01*
X-28427D01*
X-27848Y308409D01*
X-27405Y308852D01*
X-27165Y309431D01*
Y310057D01*
X-27405Y310636D01*
X-27848Y311079D01*
X-28427Y311319D01*
D02*
G37*
G36*
X39074Y311348D02*
X37619D01*
X36193Y311065D01*
X34850Y310508D01*
X33641Y309700D01*
X32613Y308672D01*
X31805Y307463D01*
X31248Y306120D01*
X30965Y304694D01*
Y303239D01*
X31248Y301813D01*
X31805Y300470D01*
X32613Y299261D01*
X33641Y298233D01*
X34850Y297425D01*
X36193Y296868D01*
X37619Y296585D01*
X39074D01*
X40500Y296868D01*
X41843Y297425D01*
X43052Y298233D01*
X44080Y299261D01*
X44888Y300470D01*
X45445Y301813D01*
X45728Y303239D01*
Y304694D01*
X45445Y306120D01*
X44888Y307463D01*
X44080Y308672D01*
X43052Y309700D01*
X41843Y310508D01*
X40500Y311065D01*
X39074Y311348D01*
D02*
G37*
G36*
X-5926D02*
X-7381D01*
X-8807Y311065D01*
X-10150Y310508D01*
X-11359Y309700D01*
X-12387Y308672D01*
X-13195Y307463D01*
X-13752Y306120D01*
X-14035Y304694D01*
Y303239D01*
X-13752Y301813D01*
X-13195Y300470D01*
X-12387Y299261D01*
X-11359Y298233D01*
X-10150Y297425D01*
X-8807Y296868D01*
X-7381Y296585D01*
X-5926D01*
X-4500Y296868D01*
X-3157Y297425D01*
X-1948Y298233D01*
X-920Y299261D01*
X-112Y300470D01*
X445Y301813D01*
X728Y303239D01*
Y304694D01*
X445Y306120D01*
X-112Y307463D01*
X-920Y308672D01*
X-1948Y309700D01*
X-3157Y310508D01*
X-4500Y311065D01*
X-5926Y311348D01*
D02*
G37*
G36*
X28742Y282122D02*
X27911D01*
X27109Y281907D01*
X26389Y281492D01*
X25801Y280904D01*
X25386Y280185D01*
X25171Y279382D01*
Y278551D01*
X25386Y277748D01*
X25801Y277029D01*
X26389Y276441D01*
X27109Y276026D01*
X27911Y275811D01*
X28742D01*
X29545Y276026D01*
X30265Y276441D01*
X30852Y277029D01*
X31268Y277748D01*
X31483Y278551D01*
Y279382D01*
X31268Y280185D01*
X30852Y280904D01*
X30265Y281492D01*
X29545Y281907D01*
X28742Y282122D01*
D02*
G37*
G36*
X18742D02*
X17911D01*
X17109Y281907D01*
X16389Y281492D01*
X15801Y280904D01*
X15386Y280185D01*
X15171Y279382D01*
Y278551D01*
X15386Y277748D01*
X15801Y277029D01*
X16389Y276441D01*
X17109Y276026D01*
X17911Y275811D01*
X18742D01*
X19545Y276026D01*
X20265Y276441D01*
X20852Y277029D01*
X21268Y277748D01*
X21483Y278551D01*
Y279382D01*
X21268Y280185D01*
X20852Y280904D01*
X20265Y281492D01*
X19545Y281907D01*
X18742Y282122D01*
D02*
G37*
G36*
X8742D02*
X7911D01*
X7109Y281907D01*
X6389Y281492D01*
X5801Y280904D01*
X5386Y280185D01*
X5171Y279382D01*
Y278551D01*
X5386Y277748D01*
X5801Y277029D01*
X6389Y276441D01*
X7109Y276026D01*
X7911Y275811D01*
X8742D01*
X9545Y276026D01*
X10265Y276441D01*
X10852Y277029D01*
X11268Y277748D01*
X11483Y278551D01*
Y279382D01*
X11268Y280185D01*
X10852Y280904D01*
X10265Y281492D01*
X9545Y281907D01*
X8742Y282122D01*
D02*
G37*
G36*
X-1258D02*
X-2089D01*
X-2891Y281907D01*
X-3611Y281492D01*
X-4199Y280904D01*
X-4614Y280185D01*
X-4829Y279382D01*
Y278551D01*
X-4614Y277748D01*
X-4199Y277029D01*
X-3611Y276441D01*
X-2891Y276026D01*
X-2089Y275811D01*
X-1258D01*
X-455Y276026D01*
X265Y276441D01*
X852Y277029D01*
X1268Y277748D01*
X1483Y278551D01*
Y279382D01*
X1268Y280185D01*
X852Y280904D01*
X265Y281492D01*
X-455Y281907D01*
X-1258Y282122D01*
D02*
G37*
G36*
X33742Y272122D02*
X32911D01*
X32109Y271907D01*
X31389Y271492D01*
X30801Y270904D01*
X30386Y270185D01*
X30171Y269382D01*
Y268551D01*
X30386Y267748D01*
X30801Y267029D01*
X31389Y266441D01*
X32109Y266026D01*
X32911Y265811D01*
X33742D01*
X34545Y266026D01*
X35265Y266441D01*
X35852Y267029D01*
X36268Y267748D01*
X36483Y268551D01*
Y269382D01*
X36268Y270185D01*
X35852Y270904D01*
X35265Y271492D01*
X34545Y271907D01*
X33742Y272122D01*
D02*
G37*
G36*
X23742D02*
X22911D01*
X22109Y271907D01*
X21389Y271492D01*
X20801Y270904D01*
X20386Y270185D01*
X20171Y269382D01*
Y268551D01*
X20386Y267748D01*
X20801Y267029D01*
X21389Y266441D01*
X22109Y266026D01*
X22911Y265811D01*
X23742D01*
X24545Y266026D01*
X25264Y266441D01*
X25852Y267029D01*
X26268Y267748D01*
X26483Y268551D01*
Y269382D01*
X26268Y270185D01*
X25852Y270904D01*
X25264Y271492D01*
X24545Y271907D01*
X23742Y272122D01*
D02*
G37*
G36*
X13742D02*
X12911D01*
X12109Y271907D01*
X11389Y271492D01*
X10801Y270904D01*
X10386Y270185D01*
X10171Y269382D01*
Y268551D01*
X10386Y267748D01*
X10801Y267029D01*
X11389Y266441D01*
X12109Y266026D01*
X12911Y265811D01*
X13742D01*
X14545Y266026D01*
X15265Y266441D01*
X15852Y267029D01*
X16268Y267748D01*
X16483Y268551D01*
Y269382D01*
X16268Y270185D01*
X15852Y270904D01*
X15265Y271492D01*
X14545Y271907D01*
X13742Y272122D01*
D02*
G37*
G36*
X3742D02*
X2911D01*
X2109Y271907D01*
X1389Y271492D01*
X801Y270904D01*
X386Y270185D01*
X171Y269382D01*
Y268551D01*
X386Y267748D01*
X801Y267029D01*
X1389Y266441D01*
X2109Y266026D01*
X2911Y265811D01*
X3742D01*
X4545Y266026D01*
X5265Y266441D01*
X5852Y267029D01*
X6268Y267748D01*
X6483Y268551D01*
Y269382D01*
X6268Y270185D01*
X5852Y270904D01*
X5265Y271492D01*
X4545Y271907D01*
X3742Y272122D01*
D02*
G37*
G36*
X30245Y156890D02*
X28810D01*
X27403Y156610D01*
X26078Y156061D01*
X24885Y155264D01*
X23870Y154249D01*
X23073Y153056D01*
X22524Y151731D01*
X22244Y150324D01*
Y148889D01*
X22524Y147482D01*
X23073Y146156D01*
X23870Y144963D01*
X24885Y143949D01*
X26078Y143152D01*
X27403Y142603D01*
X28810Y142323D01*
X30245D01*
X31652Y142603D01*
X32978Y143152D01*
X34170Y143949D01*
X35185Y144963D01*
X35982Y146156D01*
X36531Y147482D01*
X36811Y148889D01*
Y150324D01*
X36531Y151731D01*
X35982Y153056D01*
X35185Y154249D01*
X34170Y155264D01*
X32978Y156061D01*
X31652Y156610D01*
X30245Y156890D01*
D02*
G37*
G36*
X-1182Y132205D02*
X-1809D01*
X-2388Y131966D01*
X-2831Y131523D01*
X-3070Y130944D01*
Y130317D01*
X-2831Y129739D01*
X-2388Y129296D01*
X-1809Y129056D01*
X-1182D01*
X-604Y129296D01*
X-160Y129739D01*
X79Y130317D01*
Y130944D01*
X-160Y131523D01*
X-604Y131966D01*
X-1182Y132205D01*
D02*
G37*
G36*
X-22817Y130708D02*
X-23443D01*
X-24022Y130468D01*
X-24465Y130025D01*
X-24705Y129447D01*
Y128820D01*
X-24465Y128241D01*
X-24022Y127798D01*
X-23443Y127559D01*
X-22817D01*
X-22238Y127798D01*
X-21795Y128241D01*
X-21555Y128820D01*
Y129447D01*
X-21795Y130025D01*
X-22238Y130468D01*
X-22817Y130708D01*
D02*
G37*
G36*
X53561Y127952D02*
X52935D01*
X52356Y127713D01*
X51913Y127269D01*
X51673Y126691D01*
Y126064D01*
X51913Y125485D01*
X52356Y125042D01*
X52935Y124803D01*
X53561D01*
X54140Y125042D01*
X54583Y125485D01*
X54823Y126064D01*
Y126691D01*
X54583Y127269D01*
X54140Y127713D01*
X53561Y127952D01*
D02*
G37*
G36*
X30727D02*
X30100D01*
X29521Y127713D01*
X29078Y127269D01*
X28839Y126691D01*
Y126064D01*
X29078Y125485D01*
X29521Y125042D01*
X30100Y124803D01*
X30727D01*
X31306Y125042D01*
X31749Y125485D01*
X31988Y126064D01*
Y126691D01*
X31749Y127269D01*
X31306Y127713D01*
X30727Y127952D01*
D02*
G37*
G36*
X-5986Y119291D02*
X-6612D01*
X-7191Y119052D01*
X-7634Y118609D01*
X-7874Y118030D01*
Y117403D01*
X-7634Y116824D01*
X-7191Y116382D01*
X-6612Y116142D01*
X-5986D01*
X-5407Y116382D01*
X-4964Y116824D01*
X-4724Y117403D01*
Y118030D01*
X-4964Y118609D01*
X-5407Y119052D01*
X-5986Y119291D01*
D02*
G37*
G36*
X47262Y116535D02*
X46636D01*
X46057Y116295D01*
X45614Y115852D01*
X45374Y115273D01*
Y114647D01*
X45614Y114068D01*
X46057Y113625D01*
X46636Y113385D01*
X47262D01*
X47841Y113625D01*
X48284Y114068D01*
X48524Y114647D01*
Y115273D01*
X48284Y115852D01*
X47841Y116295D01*
X47262Y116535D01*
D02*
G37*
G36*
X-6551Y109519D02*
X-7178D01*
X-7756Y109279D01*
X-8200Y108836D01*
X-8439Y108257D01*
Y107631D01*
X-8200Y107052D01*
X-7756Y106609D01*
X-7178Y106369D01*
X-6551D01*
X-5972Y106609D01*
X-5529Y107052D01*
X-5290Y107631D01*
Y108257D01*
X-5529Y108836D01*
X-5972Y109279D01*
X-6551Y109519D01*
D02*
G37*
G36*
X46984Y108826D02*
X46358D01*
X45779Y108586D01*
X45336Y108143D01*
X45096Y107564D01*
Y106938D01*
X45336Y106359D01*
X45779Y105916D01*
X46358Y105676D01*
X46984D01*
X47563Y105916D01*
X48006Y106359D01*
X48246Y106938D01*
Y107564D01*
X48006Y108143D01*
X47563Y108586D01*
X46984Y108826D01*
D02*
G37*
G36*
X-9037Y101181D02*
X-9664D01*
X-10242Y100941D01*
X-10685Y100498D01*
X-10925Y99919D01*
Y99292D01*
X-10685Y98714D01*
X-10242Y98271D01*
X-9664Y98031D01*
X-9037D01*
X-8458Y98271D01*
X-8015Y98714D01*
X-7775Y99292D01*
Y99919D01*
X-8015Y100498D01*
X-8458Y100941D01*
X-9037Y101181D01*
D02*
G37*
G36*
X44506Y100787D02*
X43880D01*
X43301Y100547D01*
X42858Y100104D01*
X42618Y99525D01*
Y98899D01*
X42858Y98320D01*
X43301Y97877D01*
X43880Y97637D01*
X44506D01*
X45085Y97877D01*
X45528Y98320D01*
X45768Y98899D01*
Y99525D01*
X45528Y100104D01*
X45085Y100547D01*
X44506Y100787D01*
D02*
G37*
G36*
X-11990Y98425D02*
X-12616D01*
X-13195Y98185D01*
X-13638Y97742D01*
X-13878Y97163D01*
Y96537D01*
X-13638Y95958D01*
X-13195Y95515D01*
X-12616Y95275D01*
X-11990D01*
X-11411Y95515D01*
X-10968Y95958D01*
X-10728Y96537D01*
Y97163D01*
X-10968Y97742D01*
X-11411Y98185D01*
X-11990Y98425D01*
D02*
G37*
G36*
X41357Y98031D02*
X40730D01*
X40151Y97791D01*
X39708Y97348D01*
X39469Y96769D01*
Y96143D01*
X39708Y95564D01*
X40151Y95121D01*
X40730Y94881D01*
X41357D01*
X41935Y95121D01*
X42378Y95564D01*
X42618Y96143D01*
Y96769D01*
X42378Y97348D01*
X41935Y97791D01*
X41357Y98031D01*
D02*
G37*
G36*
X-1835Y90445D02*
X-2461D01*
X-3040Y90205D01*
X-3483Y89762D01*
X-3723Y89183D01*
Y88557D01*
X-3483Y87978D01*
X-3040Y87535D01*
X-2461Y87295D01*
X-1835D01*
X-1256Y87535D01*
X-813Y87978D01*
X-573Y88557D01*
Y89183D01*
X-813Y89762D01*
X-1256Y90205D01*
X-1835Y90445D01*
D02*
G37*
G36*
X-9076Y87795D02*
X-9702D01*
X-10281Y87555D01*
X-10619Y87217D01*
X-10958Y87555D01*
X-11536Y87795D01*
X-12163D01*
X-12742Y87555D01*
X-13185Y87112D01*
X-13424Y86533D01*
Y85907D01*
X-13185Y85328D01*
X-12742Y84885D01*
X-12163Y84645D01*
X-11536D01*
X-10958Y84885D01*
X-10619Y85223D01*
X-10281Y84885D01*
X-9702Y84645D01*
X-9076D01*
X-8497Y84885D01*
X-8054Y85328D01*
X-7814Y85907D01*
Y86533D01*
X-8054Y87112D01*
X-8497Y87555D01*
X-9076Y87795D01*
D02*
G37*
G36*
X50805Y89763D02*
X50179D01*
X49600Y89524D01*
X49157Y89081D01*
X48917Y88502D01*
Y87875D01*
X49157Y87296D01*
X49600Y86853D01*
X50179Y86614D01*
X50805D01*
X51384Y86853D01*
X51827Y87296D01*
X52067Y87875D01*
Y88502D01*
X51827Y89081D01*
X51384Y89524D01*
X50805Y89763D01*
D02*
G37*
G36*
X-20856Y89577D02*
X-21483D01*
X-22061Y89337D01*
X-22504Y88894D01*
X-22744Y88316D01*
Y87689D01*
X-22504Y87110D01*
X-22061Y86667D01*
X-21483Y86427D01*
X-20856D01*
X-20277Y86667D01*
X-19834Y87110D01*
X-19595Y87689D01*
Y88316D01*
X-19834Y88894D01*
X-20277Y89337D01*
X-20856Y89577D01*
D02*
G37*
G36*
X31514Y84251D02*
X30888D01*
X30309Y84012D01*
X29866Y83569D01*
X29626Y82990D01*
Y82363D01*
X29866Y81785D01*
X30309Y81342D01*
X30888Y81102D01*
X31514D01*
X32093Y81342D01*
X32536Y81785D01*
X32776Y82363D01*
Y82990D01*
X32536Y83569D01*
X32093Y84012D01*
X31514Y84251D01*
D02*
G37*
G36*
X1199D02*
X573D01*
X-6Y84012D01*
X-449Y83569D01*
X-689Y82990D01*
Y82363D01*
X-449Y81785D01*
X-6Y81342D01*
X573Y81102D01*
X1199D01*
X1778Y81342D01*
X2221Y81785D01*
X2461Y82363D01*
Y82990D01*
X2221Y83569D01*
X1778Y84012D01*
X1199Y84251D01*
D02*
G37*
G36*
X-21635D02*
X-22262D01*
X-22841Y84012D01*
X-23284Y83569D01*
X-23524Y82990D01*
Y82363D01*
X-23284Y81785D01*
X-22841Y81342D01*
X-22262Y81102D01*
X-21635D01*
X-21057Y81342D01*
X-20614Y81785D01*
X-20374Y82363D01*
Y82990D01*
X-20614Y83569D01*
X-21057Y84012D01*
X-21635Y84251D01*
D02*
G37*
G36*
X54459Y84141D02*
X53833D01*
X53254Y83901D01*
X52811Y83458D01*
X52571Y82879D01*
Y82253D01*
X52811Y81674D01*
X53254Y81231D01*
X53833Y80991D01*
X54459D01*
X55038Y81231D01*
X55481Y81674D01*
X55721Y82253D01*
Y82879D01*
X55481Y83458D01*
X55038Y83901D01*
X54459Y84141D01*
D02*
G37*
G36*
X43325Y71259D02*
X42699D01*
X42120Y71020D01*
X41677Y70577D01*
X41437Y69998D01*
Y69371D01*
X41677Y68792D01*
X42120Y68349D01*
X42699Y68110D01*
X43325D01*
X43904Y68349D01*
X44347Y68792D01*
X44587Y69371D01*
Y69998D01*
X44347Y70577D01*
X43904Y71020D01*
X43325Y71259D01*
D02*
G37*
G36*
X-10047Y71165D02*
X-10673D01*
X-11252Y70925D01*
X-11695Y70482D01*
X-11935Y69903D01*
Y69276D01*
X-11695Y68698D01*
X-11252Y68255D01*
X-10673Y68015D01*
X-10047D01*
X-9468Y68255D01*
X-9025Y68698D01*
X-8785Y69276D01*
Y69903D01*
X-9025Y70482D01*
X-9468Y70925D01*
X-10047Y71165D01*
D02*
G37*
G36*
X-5702Y63513D02*
X-6328D01*
X-6907Y63273D01*
X-7350Y62830D01*
X-7590Y62251D01*
Y61625D01*
X-7350Y61046D01*
X-6907Y60603D01*
X-6328Y60363D01*
X-5702D01*
X-5123Y60603D01*
X-4680Y61046D01*
X-4440Y61625D01*
Y62251D01*
X-4680Y62830D01*
X-5123Y63273D01*
X-5702Y63513D01*
D02*
G37*
G36*
X47656Y63460D02*
X47029D01*
X46450Y63220D01*
X46007Y62777D01*
X45768Y62198D01*
Y61572D01*
X46007Y60993D01*
X46450Y60550D01*
X47029Y60310D01*
X47656D01*
X48235Y60550D01*
X48678Y60993D01*
X48917Y61572D01*
Y62198D01*
X48678Y62777D01*
X48235Y63220D01*
X47656Y63460D01*
D02*
G37*
G36*
X-7856Y55511D02*
X-8483D01*
X-9061Y55272D01*
X-9504Y54829D01*
X-9744Y54250D01*
Y53623D01*
X-9504Y53044D01*
X-9061Y52601D01*
X-8483Y52362D01*
X-7856D01*
X-7277Y52601D01*
X-6834Y53044D01*
X-6594Y53623D01*
Y54250D01*
X-6834Y54829D01*
X-7277Y55272D01*
X-7856Y55511D01*
D02*
G37*
G36*
X45294Y55118D02*
X44667D01*
X44088Y54878D01*
X43645Y54435D01*
X43406Y53856D01*
Y53229D01*
X43645Y52651D01*
X44088Y52208D01*
X44667Y51968D01*
X45294D01*
X45872Y52208D01*
X46315Y52651D01*
X46555Y53229D01*
Y53856D01*
X46315Y54435D01*
X45872Y54878D01*
X45294Y55118D01*
D02*
G37*
G36*
X42144Y52755D02*
X41517D01*
X40939Y52516D01*
X40496Y52073D01*
X40256Y51494D01*
Y50867D01*
X40496Y50288D01*
X40939Y49845D01*
X41517Y49606D01*
X42144D01*
X42723Y49845D01*
X43166Y50288D01*
X43406Y50867D01*
Y51494D01*
X43166Y52073D01*
X42723Y52516D01*
X42144Y52755D01*
D02*
G37*
G36*
X-11055D02*
X-11681D01*
X-12260Y52516D01*
X-12703Y52073D01*
X-12943Y51494D01*
Y50867D01*
X-12703Y50288D01*
X-12260Y49845D01*
X-11681Y49606D01*
X-11055D01*
X-10476Y49845D01*
X-10033Y50288D01*
X-9793Y50867D01*
Y51494D01*
X-10033Y52073D01*
X-10476Y52516D01*
X-11055Y52755D01*
D02*
G37*
G36*
X54248Y44928D02*
X53622D01*
X53043Y44689D01*
X52600Y44246D01*
X52360Y43667D01*
Y43040D01*
X52600Y42461D01*
X53043Y42018D01*
X53622Y41779D01*
X54248D01*
X54827Y42018D01*
X55270Y42461D01*
X55510Y43040D01*
Y43667D01*
X55270Y44246D01*
X54827Y44689D01*
X54248Y44928D01*
D02*
G37*
G36*
X43383Y32975D02*
X42568D01*
X41780Y32764D01*
X41074Y32356D01*
X40497Y31780D01*
X40099Y31089D01*
X35853D01*
X35454Y31780D01*
X34877Y32356D01*
X34171Y32764D01*
X33383Y32975D01*
X32568D01*
X31780Y32764D01*
X31074Y32356D01*
X30498Y31780D01*
X30090Y31074D01*
X29879Y30286D01*
Y29471D01*
X30090Y28683D01*
X30498Y27977D01*
X31074Y27400D01*
X31780Y26992D01*
X32568Y26781D01*
X33383D01*
X34171Y26992D01*
X34877Y27400D01*
X35454Y27977D01*
X35853Y28668D01*
X40099D01*
X40497Y27977D01*
X41074Y27400D01*
X41780Y26992D01*
X42568Y26781D01*
X43383D01*
X44171Y26992D01*
X44877Y27400D01*
X45454Y27977D01*
X45861Y28683D01*
X46072Y29471D01*
Y30286D01*
X45861Y31074D01*
X45454Y31780D01*
X44877Y32356D01*
X44171Y32764D01*
X43383Y32975D01*
D02*
G37*
G36*
X197164Y31496D02*
X196537D01*
X195958Y31256D01*
X195515Y30813D01*
X195276Y30235D01*
Y29608D01*
X195515Y29029D01*
X195958Y28586D01*
X196537Y28346D01*
X197164D01*
X197742Y28586D01*
X198185Y29029D01*
X198425Y29608D01*
Y30235D01*
X198185Y30813D01*
X197742Y31256D01*
X197164Y31496D01*
D02*
G37*
G36*
X203857Y30709D02*
X203230D01*
X202651Y30469D01*
X202208Y30026D01*
X201969Y29447D01*
Y28821D01*
X202208Y28242D01*
X202651Y27799D01*
X203230Y27559D01*
X203857D01*
X204435Y27799D01*
X204878Y28242D01*
X205118Y28821D01*
Y29447D01*
X204878Y30026D01*
X204435Y30469D01*
X203857Y30709D01*
D02*
G37*
G36*
X189683Y29921D02*
X189057D01*
X188478Y29682D01*
X188035Y29239D01*
X187795Y28660D01*
Y28033D01*
X188035Y27454D01*
X188478Y27011D01*
X189057Y26772D01*
X189683D01*
X190262Y27011D01*
X190705Y27454D01*
X190945Y28033D01*
Y28660D01*
X190705Y29239D01*
X190262Y29682D01*
X189683Y29921D01*
D02*
G37*
G36*
X87400Y28010D02*
X86773D01*
X86194Y27770D01*
X85751Y27327D01*
X85512Y26748D01*
Y26122D01*
X85751Y25543D01*
X86194Y25100D01*
X86773Y24860D01*
X87400D01*
X87979Y25100D01*
X88422Y25543D01*
X88661Y26122D01*
Y26748D01*
X88422Y27327D01*
X87979Y27770D01*
X87400Y28010D01*
D02*
G37*
G36*
X66963Y28007D02*
X66337D01*
X65758Y27767D01*
X65315Y27324D01*
X65075Y26745D01*
Y26119D01*
X65315Y25540D01*
X65758Y25097D01*
X66337Y24857D01*
X66963D01*
X67542Y25097D01*
X67985Y25540D01*
X68225Y26119D01*
Y26745D01*
X67985Y27324D01*
X67542Y27767D01*
X66963Y28007D01*
D02*
G37*
G36*
X77168Y27973D02*
X76542D01*
X75963Y27733D01*
X75520Y27290D01*
X75280Y26712D01*
Y26085D01*
X75520Y25506D01*
X75963Y25063D01*
X76542Y24824D01*
X77168D01*
X77747Y25063D01*
X78190Y25506D01*
X78430Y26085D01*
Y26712D01*
X78190Y27290D01*
X77747Y27733D01*
X77168Y27973D01*
D02*
G37*
G36*
X111988Y25282D02*
X111362D01*
X110783Y25042D01*
X110340Y24599D01*
X110100Y24020D01*
Y23393D01*
X110340Y22815D01*
X110783Y22372D01*
X111362Y22132D01*
X111988D01*
X112567Y22372D01*
X113010Y22815D01*
X113250Y23393D01*
Y24020D01*
X113010Y24599D01*
X112567Y25042D01*
X111988Y25282D01*
D02*
G37*
G36*
X93445Y25132D02*
X92818D01*
X92239Y24892D01*
X91796Y24449D01*
X91557Y23870D01*
Y23244D01*
X91796Y22665D01*
X92239Y22222D01*
X92818Y21982D01*
X93445D01*
X94023Y22222D01*
X94466Y22665D01*
X94706Y23244D01*
Y23870D01*
X94466Y24449D01*
X94023Y24892D01*
X93445Y25132D01*
D02*
G37*
G36*
X222853Y23228D02*
X222226D01*
X221647Y22988D01*
X221204Y22545D01*
X220965Y21966D01*
Y21340D01*
X221204Y20761D01*
X221647Y20318D01*
X222226Y20078D01*
X222853D01*
X223431Y20318D01*
X223874Y20761D01*
X224114Y21340D01*
Y21966D01*
X223874Y22545D01*
X223431Y22988D01*
X222853Y23228D01*
D02*
G37*
G36*
X43383Y22975D02*
X42568D01*
X41780Y22764D01*
X41074Y22356D01*
X40497Y21780D01*
X40090Y21074D01*
X39879Y20286D01*
Y19470D01*
X40090Y18683D01*
X40497Y17977D01*
X41074Y17400D01*
X41780Y16992D01*
X42568Y16781D01*
X43383D01*
X44171Y16992D01*
X44877Y17400D01*
X45454Y17977D01*
X45861Y18683D01*
X46072Y19470D01*
Y20286D01*
X45861Y21074D01*
X45454Y21780D01*
X44877Y22356D01*
X44171Y22764D01*
X43383Y22975D01*
D02*
G37*
G36*
X33383D02*
X32568D01*
X31780Y22764D01*
X31074Y22356D01*
X30498Y21780D01*
X30090Y21074D01*
X29879Y20286D01*
Y19470D01*
X30090Y18683D01*
X30498Y17977D01*
X31074Y17400D01*
X31780Y16992D01*
X32568Y16781D01*
X33383D01*
X34171Y16992D01*
X34877Y17400D01*
X35454Y17977D01*
X35861Y18683D01*
X36072Y19470D01*
Y20286D01*
X35861Y21074D01*
X35454Y21780D01*
X34877Y22356D01*
X34171Y22764D01*
X33383Y22975D01*
D02*
G37*
G36*
X36072Y12975D02*
X33369D01*
Y12522D01*
X32582D01*
Y12975D01*
X29879D01*
Y10272D01*
X30332D01*
Y9484D01*
X29879D01*
Y6781D01*
X32582D01*
Y7234D01*
X33369D01*
Y6781D01*
X36072D01*
Y9484D01*
X35620D01*
Y10272D01*
X36072D01*
Y12975D01*
D02*
G37*
G36*
X43383D02*
X42568D01*
X41780Y12764D01*
X41074Y12356D01*
X41064Y12346D01*
X41405Y12006D01*
X40848Y11449D01*
X40507Y11790D01*
X40497Y11780D01*
X40090Y11074D01*
X39879Y10286D01*
Y9471D01*
X40090Y8683D01*
X40497Y7977D01*
X40507Y7967D01*
X40848Y8307D01*
X41405Y7750D01*
X41064Y7410D01*
X41074Y7400D01*
X41780Y6992D01*
X42568Y6781D01*
X43383D01*
X44171Y6992D01*
X44877Y7400D01*
X44887Y7410D01*
X44546Y7750D01*
X45103Y8307D01*
X45444Y7967D01*
X45454Y7977D01*
X45861Y8683D01*
X46072Y9471D01*
Y10286D01*
X45861Y11074D01*
X45454Y11780D01*
X45444Y11790D01*
X45103Y11449D01*
X44546Y12006D01*
X44887Y12346D01*
X44877Y12356D01*
X44171Y12764D01*
X43383Y12975D01*
D02*
G37*
G36*
X186534Y8661D02*
X185907D01*
X185328Y8422D01*
X184885Y7979D01*
X184646Y7400D01*
Y6773D01*
X184885Y6195D01*
X185328Y5752D01*
X185907Y5512D01*
X186534D01*
X187112Y5752D01*
X187556Y6195D01*
X187795Y6773D01*
Y7400D01*
X187556Y7979D01*
X187112Y8422D01*
X186534Y8661D01*
D02*
G37*
G36*
X115214Y6627D02*
X114588D01*
X114009Y6387D01*
X113566Y5944D01*
X113326Y5365D01*
Y4738D01*
X113566Y4160D01*
X114009Y3717D01*
X114588Y3477D01*
X115214D01*
X115793Y3717D01*
X116236Y4160D01*
X116476Y4738D01*
Y5365D01*
X116236Y5944D01*
X115793Y6387D01*
X115214Y6627D01*
D02*
G37*
G36*
X198345Y2756D02*
X197718D01*
X197140Y2516D01*
X196696Y2073D01*
X196457Y1494D01*
Y868D01*
X196696Y289D01*
X197140Y-154D01*
X197718Y-394D01*
X198345D01*
X198924Y-154D01*
X199367Y289D01*
X199606Y868D01*
Y1494D01*
X199367Y2073D01*
X198924Y2516D01*
X198345Y2756D01*
D02*
G37*
G36*
X95195Y1181D02*
X94569D01*
X93990Y941D01*
X93547Y498D01*
X93307Y-80D01*
Y-707D01*
X93331Y-765D01*
X93097Y-1115D01*
X92967Y-1192D01*
X92415Y-1421D01*
X91972Y-1864D01*
X91732Y-2443D01*
Y-3069D01*
X91972Y-3648D01*
X92415Y-4091D01*
X92994Y-4331D01*
X93620D01*
X94199Y-4091D01*
X94642Y-3648D01*
X94882Y-3069D01*
Y-2443D01*
X94858Y-2384D01*
X95091Y-2034D01*
X95222Y-1957D01*
X95774Y-1729D01*
X96217Y-1286D01*
X96457Y-707D01*
Y-80D01*
X96217Y498D01*
X95774Y941D01*
X95195Y1181D01*
D02*
G37*
G36*
X81637Y-4324D02*
X81011D01*
X80432Y-4564D01*
X79989Y-5007D01*
X79749Y-5586D01*
Y-6213D01*
X79989Y-6791D01*
X80432Y-7234D01*
X81011Y-7474D01*
X81637D01*
X82216Y-7234D01*
X82659Y-6791D01*
X82899Y-6213D01*
Y-5586D01*
X82659Y-5007D01*
X82216Y-4564D01*
X81637Y-4324D01*
D02*
G37*
G36*
X211333Y-5118D02*
X210706D01*
X210127Y-5358D01*
X209684Y-5801D01*
X209445Y-6380D01*
Y-7006D01*
X209684Y-7585D01*
X210127Y-8028D01*
X210706Y-8268D01*
X211333D01*
X211911Y-8028D01*
X212354Y-7585D01*
X212594Y-7006D01*
Y-6380D01*
X212354Y-5801D01*
X211911Y-5358D01*
X211333Y-5118D01*
D02*
G37*
G36*
X182597D02*
X181970D01*
X181391Y-5358D01*
X180948Y-5801D01*
X180709Y-6380D01*
Y-7006D01*
X180948Y-7585D01*
X181391Y-8028D01*
X181970Y-8268D01*
X182597D01*
X183176Y-8028D01*
X183618Y-7585D01*
X183858Y-7006D01*
Y-6380D01*
X183618Y-5801D01*
X183176Y-5358D01*
X182597Y-5118D01*
D02*
G37*
G36*
X167735D02*
X167108D01*
X166529Y-5358D01*
X166086Y-5801D01*
X165847Y-6380D01*
Y-7006D01*
X166086Y-7585D01*
X166529Y-8028D01*
X167108Y-8268D01*
X167735D01*
X168313Y-8028D01*
X168756Y-7585D01*
X168996Y-7006D01*
Y-6380D01*
X168756Y-5801D01*
X168313Y-5358D01*
X167735Y-5118D01*
D02*
G37*
G36*
X135451D02*
X134825D01*
X134246Y-5358D01*
X133803Y-5801D01*
X133563Y-6380D01*
Y-7006D01*
X133803Y-7585D01*
X134246Y-8028D01*
X134825Y-8268D01*
X135451D01*
X136030Y-8028D01*
X136473Y-7585D01*
X136713Y-7006D01*
Y-6380D01*
X136473Y-5801D01*
X136030Y-5358D01*
X135451Y-5118D01*
D02*
G37*
G36*
X91258D02*
X90632D01*
X90053Y-5358D01*
X89610Y-5801D01*
X89370Y-6380D01*
Y-7006D01*
X89610Y-7585D01*
X90053Y-8028D01*
X90632Y-8268D01*
X91258D01*
X91837Y-8028D01*
X92280Y-7585D01*
X92520Y-7006D01*
Y-6380D01*
X92280Y-5801D01*
X91837Y-5358D01*
X91258Y-5118D01*
D02*
G37*
G36*
X75606D02*
X74979D01*
X74401Y-5358D01*
X73958Y-5801D01*
X73718Y-6380D01*
Y-7006D01*
X73958Y-7585D01*
X74401Y-8028D01*
X74979Y-8268D01*
X75606D01*
X76185Y-8028D01*
X76628Y-7585D01*
X76867Y-7006D01*
Y-6380D01*
X76628Y-5801D01*
X76185Y-5358D01*
X75606Y-5118D01*
D02*
G37*
G36*
X66160D02*
X65533D01*
X64955Y-5358D01*
X64512Y-5801D01*
X64272Y-6380D01*
Y-7006D01*
X64512Y-7585D01*
X64955Y-8028D01*
X65533Y-8268D01*
X66160D01*
X66739Y-8028D01*
X67182Y-7585D01*
X67421Y-7006D01*
Y-6380D01*
X67182Y-5801D01*
X66739Y-5358D01*
X66160Y-5118D01*
D02*
G37*
G36*
X50313D02*
X49687D01*
X49108Y-5358D01*
X48665Y-5801D01*
X48425Y-6380D01*
Y-7006D01*
X48665Y-7585D01*
X49108Y-8028D01*
X49687Y-8268D01*
X50313D01*
X50892Y-8028D01*
X51335Y-7585D01*
X51575Y-7006D01*
Y-6380D01*
X51335Y-5801D01*
X50892Y-5358D01*
X50313Y-5118D01*
D02*
G37*
G36*
X44118D02*
X43491D01*
X42912Y-5358D01*
X42469Y-5801D01*
X42230Y-6380D01*
Y-7006D01*
X42469Y-7585D01*
X42912Y-8028D01*
X43491Y-8268D01*
X44118D01*
X44696Y-8028D01*
X45139Y-7585D01*
X45379Y-7006D01*
Y-6380D01*
X45139Y-5801D01*
X44696Y-5358D01*
X44118Y-5118D01*
D02*
G37*
G36*
X31467D02*
X30840D01*
X30261Y-5358D01*
X29818Y-5801D01*
X29579Y-6380D01*
Y-7006D01*
X29818Y-7585D01*
X30261Y-8028D01*
X30840Y-8268D01*
X31467D01*
X32046Y-8028D01*
X32489Y-7585D01*
X32728Y-7006D01*
Y-6380D01*
X32489Y-5801D01*
X32046Y-5358D01*
X31467Y-5118D01*
D02*
G37*
%LPD*%
D25*
X32976Y29878D02*
X42976D01*
D26*
X32976D02*
D03*
X42976D02*
D03*
Y9878D02*
D03*
D27*
X97280Y268110D02*
D03*
X107973Y285433D02*
D03*
X137279Y268110D02*
D03*
X187972Y285433D02*
D03*
X217280Y268110D02*
D03*
X177279D02*
D03*
X147972Y285433D02*
D03*
D29*
X32976Y9878D02*
D03*
D33*
X65847Y35432D02*
D03*
X154823Y67716D02*
D03*
X154331Y70079D02*
D03*
X155118Y72835D02*
D03*
X185531Y201509D02*
D03*
X119382Y255625D02*
D03*
X87205Y255445D02*
D03*
X187894Y224737D02*
D03*
X154134Y255445D02*
D03*
X156890Y225283D02*
D03*
X122228Y224417D02*
D03*
X190354Y255445D02*
D03*
X255315Y248359D02*
D03*
X220276D02*
D03*
X-12952Y117774D02*
D03*
X-15650Y69684D02*
D03*
X93069Y11859D02*
D03*
X153248Y19291D02*
D03*
X151655Y16141D02*
D03*
X141203D02*
D03*
X201280Y12204D02*
D03*
X111824Y11810D02*
D03*
X153242Y13773D02*
D03*
X87106Y9055D02*
D03*
X76870D02*
D03*
X66634D02*
D03*
X37500Y69684D02*
D03*
X41232Y115020D02*
D03*
D34*
X83858Y130315D02*
D03*
X81102D02*
D03*
X143307Y107480D02*
D03*
Y73228D02*
D03*
Y75984D02*
D03*
Y110236D02*
D03*
X143701Y142126D02*
D03*
Y144882D02*
D03*
X183465Y97244D02*
D03*
X203543Y135433D02*
D03*
X206299Y156299D02*
D03*
X183071Y69685D02*
D03*
X193701Y68110D02*
D03*
M02*
