G04*
G04 #@! TF.GenerationSoftware,Altium Limited,Altium Designer,26.7.1 (11)*
G04*
G04 Layer_Color=65535*
G04 Board_Origin=214816925|133688692*
%FSLAX25Y25*%
%MOIN*%
G70*
G04*
G04 #@! TF.SameCoordinates,8AC4BC75-6789-43DF-8F29-ECE6FFC62F55*
G04*
G04*
G04 #@! TF.FilePolarity,Positive*
G04*
G01*
G75*
%ADD10C,0.00013*%
%ADD11C,0.00787*%
%ADD12C,0.01000*%
%ADD13C,0.00591*%
G36*
X165963Y97639D02*
X166332Y97486D01*
X166648Y97244D01*
X166649Y97243D01*
X166649Y97243D01*
X166892Y96927D01*
X167045Y96558D01*
X167080Y96292D01*
X167096Y96162D01*
Y96029D01*
Y75192D01*
X167085Y75063D01*
X167085Y75063D01*
X167131Y74833D01*
X167262Y74638D01*
X167263Y74637D01*
X167456Y74508D01*
X167686Y74462D01*
X167689Y74463D01*
X167819Y74473D01*
X173726D01*
X173729Y74471D01*
Y74471D01*
X173729Y74471D01*
X173946Y74427D01*
X174134Y74303D01*
X174258Y74116D01*
X174277Y74020D01*
X174300Y73895D01*
X174301Y73889D01*
X174280Y73770D01*
X174259Y73663D01*
X174137Y73482D01*
X174034Y73409D01*
X173947Y73351D01*
X173729Y73308D01*
X173729D01*
X173726Y73305D01*
X167472D01*
Y73305D01*
X167078Y73357D01*
X166708Y73510D01*
X166391Y73754D01*
X166148Y74071D01*
X165995Y74441D01*
X165959Y74707D01*
X165943Y74837D01*
X165943Y74971D01*
Y95947D01*
X165954Y95947D01*
X165908Y96178D01*
X165777Y96374D01*
X165581Y96505D01*
X165353Y96551D01*
X165353Y96540D01*
X165353Y96540D01*
X148104D01*
X148104Y96540D01*
X148104Y96551D01*
X147876Y96505D01*
X147680Y96374D01*
X147549Y96178D01*
X147503Y95947D01*
X147503Y95947D01*
X147514Y95818D01*
Y74851D01*
X147514Y74851D01*
X147513Y74851D01*
X147515Y74837D01*
X147462Y74441D01*
X147309Y74071D01*
X147072Y73762D01*
X146971Y73681D01*
X146749Y73510D01*
X146379Y73357D01*
X145988Y73306D01*
X145988Y73305D01*
X131107D01*
Y73307D01*
X130886Y73351D01*
X130804Y73406D01*
X130699Y73476D01*
X130574Y73663D01*
X130531Y73884D01*
X130574Y74104D01*
X130629Y74186D01*
X130699Y74291D01*
X130886Y74416D01*
X131107Y74460D01*
Y74462D01*
X145638D01*
X145768Y74452D01*
X145771Y74451D01*
X146001Y74497D01*
X146195Y74627D01*
X146326Y74822D01*
X146372Y75052D01*
X146361D01*
Y96029D01*
X146361Y96162D01*
X146377Y96289D01*
X146412Y96558D01*
X146565Y96927D01*
X146808Y97243D01*
X146808Y97243D01*
X146809Y97244D01*
X147125Y97486D01*
X147494Y97639D01*
X147889Y97691D01*
X147890Y97691D01*
X165567D01*
X165568Y97691D01*
X165963Y97639D01*
D02*
G37*
G36*
X124825Y97691D02*
X141276D01*
X141277Y97680D01*
X141323Y97686D01*
X141513Y97661D01*
X141690Y97588D01*
X141842Y97471D01*
X141958Y97319D01*
X142032Y97142D01*
X142057Y96952D01*
X142032Y96763D01*
X141958Y96586D01*
X141880Y96484D01*
X141889Y96476D01*
X141889Y96476D01*
X125187Y73870D01*
X125169Y73868D01*
X125169D01*
X125048Y73711D01*
X124761Y73491D01*
X124427Y73352D01*
X124127Y73313D01*
X124127D01*
X124120Y73305D01*
X107061D01*
Y73305D01*
X106667Y73357D01*
X106298Y73510D01*
X105980Y73754D01*
X105737Y74071D01*
X105584Y74441D01*
X105549Y74707D01*
X105532Y74837D01*
X105532D01*
Y74971D01*
Y96998D01*
X105534D01*
X105578Y97219D01*
X105702Y97406D01*
X105807Y97476D01*
X105890Y97531D01*
X105981Y97549D01*
X106110Y97574D01*
Y97574D01*
X106328Y97531D01*
X106515Y97406D01*
X106640Y97219D01*
X106684Y96999D01*
X106686Y96998D01*
Y75195D01*
X106675Y75066D01*
Y75066D01*
X106720Y74836D01*
X106851Y74641D01*
X106852Y74640D01*
X106852D01*
X107046Y74511D01*
X107276Y74465D01*
X107279Y74466D01*
X107408Y74476D01*
X124128D01*
X124130Y74476D01*
X124173Y74485D01*
X124257Y74540D01*
X124257Y74541D01*
X124257Y74543D01*
X140227Y96185D01*
X140310Y96289D01*
X140350Y96387D01*
X140351Y96388D01*
X140300Y96510D01*
X140177Y96561D01*
X140176Y96561D01*
X140174Y96560D01*
X140044Y96548D01*
X125043D01*
Y96560D01*
X124811Y96513D01*
X124616Y96383D01*
X124485Y96187D01*
X124439Y95956D01*
X124450Y95945D01*
Y80932D01*
X124450Y80932D01*
X124447Y80932D01*
X124448Y80930D01*
X124404Y80710D01*
X124280Y80524D01*
X124094Y80400D01*
X123874Y80356D01*
Y80356D01*
X123748Y80381D01*
X123654Y80400D01*
X123467Y80525D01*
X123397Y80630D01*
X123342Y80712D01*
X123298Y80932D01*
X123296D01*
Y96162D01*
X123296Y96162D01*
X123348Y96558D01*
X123501Y96927D01*
X123743Y97243D01*
X123744Y97243D01*
X123744Y97244D01*
X124060Y97486D01*
X124429Y97639D01*
X124825Y97691D01*
X124825Y97691D01*
D02*
G37*
G36*
X126850Y66194D02*
X127651Y66058D01*
X128244Y65887D01*
X128254Y65892D01*
X128814Y65660D01*
X129346Y65335D01*
X129739Y64999D01*
X129833Y64906D01*
X130150Y64535D01*
X130462Y64026D01*
X130690Y63474D01*
X130720Y63348D01*
X130717Y63347D01*
X130827Y62966D01*
X130962Y62172D01*
X131007Y61368D01*
X131002Y61284D01*
X131008Y61283D01*
X131008Y61283D01*
Y52597D01*
X129628D01*
Y54036D01*
Y54159D01*
X129628Y54307D01*
X129626Y54312D01*
X129608Y54322D01*
X129494Y54219D01*
X129403Y54136D01*
X129352Y54090D01*
X128613Y53542D01*
X128217Y53304D01*
X128217D01*
X128103Y53233D01*
X127585Y52947D01*
X127022Y52714D01*
X126896Y52668D01*
X126773Y52627D01*
X126385Y52495D01*
X125742Y52367D01*
X125609Y52352D01*
X125264Y52301D01*
X124445Y52261D01*
X124312Y52258D01*
X124180Y52262D01*
X123622Y52299D01*
X122982Y52426D01*
X122673Y52531D01*
X122547Y52574D01*
X122148Y52739D01*
X121624Y53060D01*
X121364Y53282D01*
X121364Y53282D01*
X121201Y53421D01*
X120843Y53840D01*
X120555Y54310D01*
X120492Y54462D01*
X120492D01*
X120441Y54585D01*
X120340Y54830D01*
X120208Y55380D01*
X120170Y55858D01*
X120169Y55992D01*
X120169D01*
X120166Y56034D01*
X120163Y56125D01*
X120210Y56722D01*
X120357Y57333D01*
X120597Y57913D01*
X120925Y58448D01*
X121333Y58926D01*
X121811Y59333D01*
X122130Y59530D01*
X122239Y59603D01*
X122358Y59682D01*
X122870Y59935D01*
X122993Y59986D01*
X123356Y60136D01*
X123484Y60176D01*
X123804Y60291D01*
X124013Y60343D01*
Y60343D01*
X124013Y60344D01*
X124451Y60453D01*
X124583Y60481D01*
Y60481D01*
X125013Y60576D01*
X125190Y60599D01*
X125191Y60600D01*
X125707Y60668D01*
X125839Y60684D01*
X125972Y60699D01*
X126393Y60749D01*
X126394Y60749D01*
X126526Y60755D01*
X126660Y60764D01*
X127120Y60780D01*
X127254Y60785D01*
X127388Y60789D01*
X128011Y60810D01*
X128020Y60809D01*
Y60811D01*
X129613Y60811D01*
X129613D01*
X129613Y60811D01*
X129618Y60813D01*
X129618Y60813D01*
X129627Y60818D01*
X129630Y60891D01*
Y60891D01*
X129628Y60938D01*
X129587Y61898D01*
X129534Y62300D01*
X129519Y62433D01*
X129511Y62533D01*
X129503Y62566D01*
X129405Y62975D01*
X129231Y63395D01*
X129033Y63718D01*
X128951Y63818D01*
X128791Y64013D01*
X128413Y64323D01*
X128037Y64524D01*
X127981Y64554D01*
X127913Y64574D01*
X127913Y64574D01*
X127911Y64569D01*
X127498Y64710D01*
X126802Y64848D01*
X126095Y64894D01*
X126015Y64889D01*
X125882Y64890D01*
X125864Y64891D01*
X125750Y64886D01*
X125165Y64857D01*
X125031Y64848D01*
X124834Y64837D01*
Y64837D01*
X124804Y64834D01*
X124704Y64817D01*
X124528Y64787D01*
X124522Y64791D01*
X124354Y64758D01*
X124232Y64733D01*
X124232Y64733D01*
X124231Y64733D01*
X124107Y64708D01*
X123954Y64678D01*
X123948Y64668D01*
X123825Y64638D01*
X123721Y64613D01*
X123698Y64604D01*
X123698Y64602D01*
X123465Y64505D01*
Y64505D01*
X123243Y64413D01*
X123247Y64407D01*
X123046Y64299D01*
Y64299D01*
X122966Y64256D01*
X122934Y64230D01*
X122604Y63959D01*
X122307Y63597D01*
X122087Y63185D01*
X121951Y62738D01*
X121930Y62526D01*
X120681D01*
X120609Y62603D01*
X120594Y62660D01*
X120683Y63106D01*
X120708Y63232D01*
X120741Y63362D01*
X120808Y63559D01*
D01*
Y63559D01*
Y63559D01*
X120802Y63573D01*
X120873Y63745D01*
X120924Y63868D01*
X120924D01*
X121024Y64108D01*
X121310Y64574D01*
X121647Y64969D01*
X121961Y65238D01*
X122063Y65320D01*
X122172Y65387D01*
X122503Y65591D01*
X122627Y65642D01*
X122817Y65736D01*
X122926Y65778D01*
X122943Y65783D01*
X123067Y65826D01*
X123286Y65900D01*
X123286Y65901D01*
X123498Y65973D01*
X123653Y66004D01*
X123782Y66037D01*
X124046Y66082D01*
Y66082D01*
X124046Y66082D01*
X124331Y66130D01*
X124464Y66147D01*
X124724Y66186D01*
X124907Y66195D01*
X124907Y66196D01*
X125242Y66212D01*
X125375Y66218D01*
X125734Y66234D01*
X125868Y66230D01*
X126039Y66240D01*
X126850Y66194D01*
D02*
G37*
G36*
X118168Y66215D02*
X118181Y64952D01*
X118082Y64862D01*
X117907Y64879D01*
X117788Y64890D01*
X117773Y64889D01*
X117643Y64879D01*
X117400D01*
X117269Y64887D01*
X117264Y64887D01*
X117139Y64878D01*
X116818Y64852D01*
X116383Y64748D01*
X116120Y64639D01*
X116118Y64643D01*
X115618Y64397D01*
X115165Y64094D01*
X115077Y64035D01*
X115057Y64017D01*
X114964Y63946D01*
X114413Y63454D01*
X114216Y63234D01*
X114127Y63134D01*
X114127Y63134D01*
X114127Y63134D01*
X114038Y63034D01*
X113867Y62843D01*
X113444Y62247D01*
X113428Y62224D01*
X113377Y62132D01*
X113382Y62129D01*
X113380Y62125D01*
Y52597D01*
X112001D01*
Y65896D01*
X113380D01*
Y64359D01*
X113380Y64235D01*
Y64074D01*
X113379Y64073D01*
X113380Y64069D01*
Y64066D01*
X113382Y64061D01*
X113388Y64059D01*
X113388Y64059D01*
X113400Y64056D01*
X113514Y64184D01*
X113597Y64276D01*
X113827Y64534D01*
X114427Y65070D01*
X114566Y65168D01*
X114673Y65249D01*
X115196Y65599D01*
X115679Y65837D01*
X115679Y65837D01*
X116106Y66013D01*
X116716Y66160D01*
X116722Y66157D01*
X116874Y66187D01*
X117637Y66237D01*
X117637D01*
X117640Y66239D01*
X117896D01*
X118168Y66215D01*
D02*
G37*
G36*
X186298Y66192D02*
X186902Y66047D01*
X187476Y65809D01*
X187654Y65700D01*
X187768Y65630D01*
X187881Y65558D01*
X188252Y65242D01*
X188596Y64838D01*
X188874Y64385D01*
X189061Y63934D01*
X189065Y63923D01*
X189078Y63892D01*
X189099Y63802D01*
X189129Y63796D01*
X189277Y64017D01*
X189812Y64627D01*
X190225Y64989D01*
X190224Y64990D01*
X190365Y65114D01*
X190984Y65527D01*
X191401Y65733D01*
X191400Y65734D01*
X191578Y65821D01*
X192222Y66040D01*
X192601Y66115D01*
X192601Y66116D01*
X193071Y66196D01*
X193642Y66228D01*
X193774Y66236D01*
Y66236D01*
X193776Y66236D01*
X193907Y66234D01*
X194510Y66187D01*
X194988Y66072D01*
X195112Y66042D01*
X195233Y65993D01*
X195550Y65862D01*
X195666Y65795D01*
X195666D01*
X195955Y65617D01*
X196316Y65309D01*
X196623Y64949D01*
X196828Y64615D01*
X196886Y64494D01*
X197036Y64190D01*
X197146Y63867D01*
X197146Y63867D01*
X197146Y63867D01*
X197245Y63574D01*
X197305Y63274D01*
X197331Y63143D01*
X197354Y63012D01*
X197431Y62561D01*
X197444Y62322D01*
X197454Y62189D01*
X197492Y61432D01*
X197490Y61403D01*
X197491Y61403D01*
X197508Y52692D01*
X197413Y52597D01*
X196128D01*
Y61154D01*
X196139Y61283D01*
X196140Y61304D01*
X196135Y61415D01*
X196106Y62004D01*
X196097Y62138D01*
X196086Y62334D01*
X196063Y62462D01*
X196055Y62507D01*
X196036Y62640D01*
X196036D01*
X195979Y62925D01*
X195953Y63055D01*
X195937Y63138D01*
X195919Y63191D01*
X195887Y63310D01*
X195884Y63320D01*
X195884Y63320D01*
X195882Y63331D01*
X195839Y63434D01*
X195838Y63434D01*
X195747Y63655D01*
X195750Y63657D01*
X195644Y63855D01*
X195644D01*
X195644Y63855D01*
X195571Y63992D01*
X195534Y64037D01*
X195534Y64037D01*
X195533Y64036D01*
X195356Y64251D01*
X195193Y64385D01*
X195190Y64388D01*
X195186Y64390D01*
X195097Y64464D01*
X195090Y64470D01*
Y64470D01*
X195017Y64509D01*
X194902Y64570D01*
X194902Y64570D01*
X194899Y64571D01*
X194899D01*
X194736Y64659D01*
X194699Y64671D01*
X194601Y64701D01*
X194475Y64739D01*
X194476Y64742D01*
X194237Y64799D01*
X194237Y64800D01*
X194114Y64829D01*
X194092Y64835D01*
X193982Y64844D01*
Y64844D01*
X193709Y64865D01*
X193575Y64874D01*
X193423Y64884D01*
X193419Y64883D01*
Y64883D01*
X193293Y64872D01*
X192850Y64837D01*
X192247Y64692D01*
X191675Y64455D01*
X191255Y64198D01*
X191253Y64201D01*
X190601Y63718D01*
X189964Y63141D01*
X189387Y62504D01*
X189219Y62278D01*
X189220Y62278D01*
X189219Y62273D01*
Y52591D01*
X187839D01*
Y61151D01*
X187844Y61283D01*
X187850Y61401D01*
X187849Y61416D01*
X187807Y62279D01*
X187712Y62916D01*
X187715Y62916D01*
X187705Y63020D01*
X187696Y63048D01*
X187547Y63541D01*
X187342Y63924D01*
X187290Y64021D01*
X187275Y64040D01*
X187275Y64040D01*
X187268Y64036D01*
X187086Y64257D01*
X186807Y64487D01*
X186550Y64624D01*
X186488Y64657D01*
X186427Y64675D01*
X186304Y64725D01*
X186299Y64727D01*
X185790Y64849D01*
X185302Y64888D01*
X185267Y64890D01*
X185169Y64888D01*
Y64888D01*
X184629Y64845D01*
X184073Y64712D01*
X183545Y64493D01*
X183080Y64207D01*
X183084Y64201D01*
X182587Y63832D01*
X181878Y63189D01*
X181236Y62481D01*
X181090Y62285D01*
X181093Y62283D01*
X181091Y62279D01*
Y62279D01*
Y52597D01*
X179711D01*
Y65896D01*
X181091D01*
Y64215D01*
X181091Y64091D01*
Y63927D01*
X181093Y63922D01*
X181093Y63921D01*
X181098Y63920D01*
X181098Y63920D01*
X181098Y63920D01*
X181112Y63915D01*
X181225Y64039D01*
X181225D01*
X181308Y64131D01*
X181530Y64377D01*
X182179Y64964D01*
X182417Y65141D01*
Y65141D01*
X182420Y65156D01*
X183063Y65586D01*
X183573Y65837D01*
X183573Y65837D01*
X183573D01*
X184005Y66016D01*
X184599Y66158D01*
X184609Y66152D01*
D01*
X184609Y66152D01*
X184609Y66152D01*
X184874Y66197D01*
X185415Y66227D01*
X185549Y66231D01*
Y66231D01*
X185678Y66241D01*
X186298Y66192D01*
D02*
G37*
G36*
X156305Y66232D02*
X156438Y66234D01*
X157087Y66198D01*
X157780Y66080D01*
X158455Y65885D01*
X158779Y65751D01*
X158790Y65755D01*
X159352Y65478D01*
X159907Y65108D01*
X160409Y64667D01*
X160659Y64382D01*
X160659Y64382D01*
X160868Y64144D01*
X161320Y63468D01*
X161680Y62738D01*
X161864Y62195D01*
X161864Y62195D01*
X161864D01*
X161871Y62192D01*
X162094Y61300D01*
X162246Y60280D01*
X162296Y59251D01*
X162246Y58221D01*
X162094Y57201D01*
X161871Y56311D01*
X161863Y56306D01*
X161863D01*
X161796Y56074D01*
X161525Y55420D01*
X161182Y54800D01*
X160773Y54223D01*
X160667Y54104D01*
X160664Y54106D01*
X160420Y53827D01*
X159914Y53383D01*
X159354Y53009D01*
X158792Y52732D01*
X158782Y52736D01*
X158541Y52636D01*
X157821Y52428D01*
X157082Y52303D01*
X156334Y52261D01*
X155586Y52303D01*
X154847Y52428D01*
X154127Y52636D01*
X153886Y52736D01*
X153875Y52731D01*
X153306Y53012D01*
X152761Y53376D01*
X152268Y53808D01*
X152015Y54097D01*
X152013Y54096D01*
X151896Y54226D01*
X151482Y54810D01*
X151136Y55436D01*
X150862Y56097D01*
X150804Y56298D01*
X150796Y56303D01*
X150568Y57213D01*
X150417Y58231D01*
X150366Y59259D01*
X150417Y60287D01*
X150568Y61305D01*
X150796Y62216D01*
X150804Y62221D01*
Y62221D01*
X150989Y62766D01*
X151347Y63493D01*
X151798Y64167D01*
X152006Y64405D01*
X152006Y64404D01*
X152243Y64674D01*
X152747Y65116D01*
X153304Y65488D01*
X153883Y65774D01*
X153883Y65774D01*
Y65774D01*
X153884Y65777D01*
X154627Y66029D01*
X155423Y66187D01*
X156171Y66236D01*
X156305Y66232D01*
D02*
G37*
G36*
X93913Y60472D02*
X93913Y60472D01*
X93906Y60472D01*
X93914Y60286D01*
X93863Y58993D01*
X93711Y57708D01*
X93571Y57007D01*
X93573Y57007D01*
X93537Y56798D01*
X93341Y56116D01*
X93069Y55461D01*
X92726Y54840D01*
X92433Y54427D01*
X92433D01*
X92433Y54427D01*
X92434Y54421D01*
X92053Y53987D01*
X91553Y53549D01*
X91001Y53179D01*
X90405Y52886D01*
X90216Y52822D01*
X90216Y52823D01*
X89784Y52669D01*
X88860Y52437D01*
X87918Y52298D01*
X86966Y52251D01*
X86677Y52265D01*
X86676Y52262D01*
X86470Y52252D01*
X85447Y52302D01*
X84434Y52453D01*
X83781Y52616D01*
X83767Y52609D01*
X83026Y52861D01*
X82304Y53216D01*
X81893Y53491D01*
X81783Y53565D01*
X81783D01*
X81676Y53643D01*
X81254Y54013D01*
X80848Y54476D01*
X80525Y54960D01*
X80527Y54969D01*
Y54969D01*
X80527D01*
X80268Y55438D01*
X79967Y56164D01*
X79818Y56681D01*
X79819Y56682D01*
X79819D01*
X79819Y56682D01*
X79674Y57262D01*
X79533Y58208D01*
X79515Y58569D01*
X79503Y58580D01*
X79473Y59142D01*
X79481Y59151D01*
X79481D01*
X79481Y59151D01*
X79469Y59591D01*
X79465Y59725D01*
X79465D01*
X79448Y60289D01*
X79443Y60294D01*
X79442Y60475D01*
Y71395D01*
X80822D01*
Y60530D01*
X80820Y60528D01*
X80820D01*
X80820Y60528D01*
X80806Y60200D01*
X80855Y59072D01*
X81002Y57953D01*
X81207Y57028D01*
X81207Y57028D01*
X81222Y56952D01*
X81240Y56899D01*
X81425Y56354D01*
X81704Y55788D01*
X82055Y55264D01*
X82356Y54920D01*
X82349Y54913D01*
X82816Y54514D01*
X83341Y54193D01*
X83909Y53957D01*
X84068Y53919D01*
X84198Y53887D01*
X84574Y53793D01*
X85570Y53645D01*
X86576Y53596D01*
X86684Y53601D01*
X86783Y53596D01*
X86817Y53597D01*
X87818Y53647D01*
X88844Y53799D01*
X89196Y53887D01*
X89195Y53888D01*
X89196Y53888D01*
X89503Y53962D01*
X90050Y54189D01*
X90556Y54498D01*
X90946Y54831D01*
X91006Y54883D01*
X91042Y54924D01*
X91036Y54930D01*
X91036Y54930D01*
X91036Y54930D01*
X91123Y55028D01*
X91289Y55218D01*
X91647Y55753D01*
X91932Y56331D01*
X92127Y56907D01*
X92139Y56941D01*
X92158Y57037D01*
X92157Y57037D01*
X92350Y57908D01*
X92499Y59044D01*
X92549Y60187D01*
X92535Y60528D01*
Y60528D01*
X92533Y60530D01*
Y71395D01*
X93913D01*
Y60472D01*
D02*
G37*
G36*
X167040Y64214D02*
X167041Y64091D01*
Y64091D01*
X167041Y63927D01*
X167043Y63922D01*
X167048Y63920D01*
X167048Y63920D01*
X167062Y63914D01*
X167174Y64040D01*
X167257Y64132D01*
X167462Y64362D01*
X168166Y64991D01*
X168346Y65118D01*
X168347Y65124D01*
X168907Y65499D01*
X169453Y65768D01*
X169572Y65824D01*
X169697Y65869D01*
X170212Y66044D01*
X170583Y66118D01*
X170715Y66140D01*
X171043Y66196D01*
X171609Y66228D01*
X171741Y66234D01*
Y66234D01*
X171761Y66235D01*
X171874Y66234D01*
X172500Y66193D01*
X173098Y66074D01*
X173227Y66037D01*
X173355Y66005D01*
X173847Y65801D01*
Y65801D01*
X173847Y65801D01*
X173848Y65801D01*
X174289Y65531D01*
X174688Y65191D01*
X175028Y64792D01*
X175302Y64346D01*
X175447Y63994D01*
X175491Y63867D01*
X175639Y63430D01*
X175696Y63143D01*
X175724Y63012D01*
X175816Y62468D01*
X175824Y62322D01*
X175824D01*
X175835Y62189D01*
X175873Y61426D01*
X175872Y61403D01*
X175874Y61403D01*
X175874Y61403D01*
Y52597D01*
X174494D01*
Y61151D01*
X174500Y61283D01*
X174505Y61381D01*
X174503Y61416D01*
X174461Y62163D01*
X174337Y62893D01*
X174337Y62893D01*
X174198Y63351D01*
X173948Y63819D01*
X173877Y63906D01*
X173793Y64009D01*
X173793Y64010D01*
X173693Y64131D01*
X173349Y64413D01*
X172957Y64623D01*
X172948Y64626D01*
X172823Y64675D01*
X172807Y64681D01*
X172693Y64709D01*
X172146Y64840D01*
X171486Y64892D01*
X171468Y64894D01*
X171353Y64889D01*
Y64889D01*
X170748Y64842D01*
X170134Y64694D01*
X169551Y64453D01*
X169156Y64211D01*
X169151Y64218D01*
X169136Y64208D01*
X169043Y64139D01*
X168335Y63614D01*
X167596Y62945D01*
X167030Y62320D01*
X167034Y62317D01*
X167032Y62312D01*
Y52597D01*
X165653D01*
Y71395D01*
X167032D01*
X167040Y64214D01*
D02*
G37*
G36*
X147827Y69564D02*
X135181Y54186D01*
X135103Y54091D01*
Y54091D01*
X135002Y53969D01*
X135002Y53966D01*
X135001Y53964D01*
X135001Y53964D01*
X135001Y53964D01*
X135001Y53964D01*
X135002Y53961D01*
X135003Y53959D01*
X135003Y53959D01*
X135003Y53959D01*
X135003Y53959D01*
X135006Y53958D01*
X135008Y53957D01*
X135166D01*
X135290Y53957D01*
X148184D01*
Y52597D01*
X133610D01*
Y54408D01*
X146233Y69802D01*
X146312Y69898D01*
X146412Y70020D01*
X146413Y70022D01*
X146414Y70025D01*
X146413Y70025D01*
X146414Y70025D01*
X146412Y70028D01*
X146411Y70030D01*
X146411Y70030D01*
X146411Y70030D01*
X146411Y70030D01*
X146409Y70031D01*
X146406Y70032D01*
X134736D01*
Y71395D01*
X147827D01*
Y69564D01*
D02*
G37*
G36*
X100147Y52597D02*
X98768D01*
Y71395D01*
X100147D01*
Y52597D01*
D02*
G37*
G36*
X106491Y65906D02*
X106493Y65901D01*
X106498Y65899D01*
X108691D01*
Y64539D01*
X106498D01*
X106493Y64537D01*
X106491Y64532D01*
Y56275D01*
X106486Y56270D01*
X106486D01*
X106486Y56270D01*
X106477Y56135D01*
X106526Y55392D01*
X106613Y54953D01*
X106606Y54951D01*
X106703Y54632D01*
X106861Y54337D01*
X106977Y54195D01*
X106977Y54194D01*
X106978Y54194D01*
X106978Y54194D01*
X106976Y54192D01*
X107014Y54141D01*
X107069Y54099D01*
X107244Y53966D01*
X107451Y53880D01*
X107510Y53855D01*
X107578Y53846D01*
X107707Y53816D01*
X107754Y53805D01*
X108252Y53766D01*
X108340Y53759D01*
X108386Y53763D01*
X108517Y53770D01*
X108714D01*
X108771Y53770D01*
X108801Y53771D01*
X108801Y53771D01*
X108831Y53771D01*
X108832Y53771D01*
X108891Y53773D01*
X108895Y53772D01*
X108968Y53721D01*
X109019Y53656D01*
X109017Y52476D01*
X108847Y52458D01*
X108729Y52447D01*
X108611Y52437D01*
X108569Y52434D01*
X108434Y52437D01*
X108259Y52425D01*
X108259Y52425D01*
X108125Y52410D01*
X108082Y52409D01*
X108082D01*
X108023Y52408D01*
X107975Y52408D01*
X107847Y52417D01*
X107707Y52407D01*
X107162Y52449D01*
X106631Y52577D01*
X106408Y52669D01*
X106399Y52666D01*
X106121Y52815D01*
X105857Y53032D01*
X105641Y53295D01*
X105581Y53408D01*
X105581D01*
X105515Y53524D01*
X105345Y53936D01*
X105227Y54425D01*
X105210Y54643D01*
X105209Y54644D01*
X105158Y55073D01*
X105112Y56265D01*
X105116Y56387D01*
X105111Y56387D01*
X105111Y56387D01*
Y64529D01*
X105109Y64534D01*
X105104Y64536D01*
X103396D01*
Y65896D01*
X105104D01*
X105109Y65899D01*
X105111Y65904D01*
Y69387D01*
X106491D01*
Y65906D01*
D02*
G37*
G36*
X227257Y79528D02*
X200394D01*
Y87385D01*
X227257D01*
Y79528D01*
D02*
G37*
G36*
X218110Y32088D02*
Y24987D01*
D01*
Y17810D01*
Y3543D01*
X77559D01*
Y17810D01*
D01*
Y24987D01*
Y32088D01*
Y46704D01*
X218110D01*
Y32088D01*
D02*
G37*
%LPC*%
G36*
X127498Y59461D02*
X127394Y59458D01*
X126381Y59422D01*
X126248Y59414D01*
X126157Y59411D01*
X125858Y59375D01*
X125854Y59378D01*
Y59378D01*
X125358Y59313D01*
X125358Y59313D01*
X125358Y59312D01*
X124891Y59243D01*
X124886Y59236D01*
X124587Y59185D01*
X124457Y59147D01*
X124457Y59146D01*
X124054Y59030D01*
X124053Y59031D01*
X123679Y58904D01*
X123679Y58903D01*
X123552Y58860D01*
X123458Y58814D01*
X123336Y58758D01*
X123217Y58709D01*
X123025Y58591D01*
X123025Y58591D01*
X122737Y58437D01*
X122325Y58098D01*
X121987Y57686D01*
X121736Y57216D01*
X121581Y56706D01*
X121537Y56261D01*
X121529Y56176D01*
X121533Y56128D01*
X121530Y56049D01*
X121572Y55630D01*
X121694Y55226D01*
X121893Y54855D01*
X122160Y54529D01*
X122477Y54269D01*
X122479Y54272D01*
X122847Y54046D01*
X123106Y53939D01*
Y53939D01*
X123106Y53939D01*
X123349Y53838D01*
X123585Y53781D01*
X123590Y53773D01*
X123725Y53746D01*
X123855Y53720D01*
X123855Y53720D01*
Y53720D01*
X123857Y53720D01*
X123857Y53720D01*
X123986Y53694D01*
X124132Y53665D01*
X124132Y53664D01*
X124173Y53656D01*
X124291Y53648D01*
X124424Y53638D01*
X124729Y53620D01*
Y53620D01*
X124862Y53613D01*
X125045Y53603D01*
X125048Y53603D01*
X125067Y53605D01*
X125644Y53643D01*
X126211Y53756D01*
X126426Y53829D01*
X126428Y53827D01*
X126428D01*
Y53827D01*
X126597Y53876D01*
X127258Y54150D01*
X127687Y54387D01*
X127687Y54386D01*
X127917Y54513D01*
X128600Y54998D01*
X128768Y55148D01*
X128773Y55148D01*
X129382Y55700D01*
X129626Y55970D01*
X129626Y55970D01*
X129628Y55975D01*
Y59443D01*
X129626Y59448D01*
X129621Y59450D01*
X127657D01*
X127527Y59460D01*
X127498Y59461D01*
D02*
G37*
G36*
X156296Y64890D02*
X155621Y64845D01*
X154957Y64713D01*
X154421Y64531D01*
X154423Y64527D01*
X154145Y64412D01*
X153625Y64093D01*
X153162Y63697D01*
X153060Y63578D01*
X153059Y63578D01*
X152972Y63477D01*
X152830Y63315D01*
X152482Y62794D01*
X152205Y62233D01*
X152033Y61725D01*
X152036Y61724D01*
X151877Y61089D01*
X151742Y60181D01*
X151697Y59265D01*
X151742Y58348D01*
X151877Y57440D01*
X152036Y56806D01*
X152033Y56805D01*
X152210Y56282D01*
X152496Y55702D01*
X152856Y55164D01*
X152971Y55032D01*
X152972Y55033D01*
X152973Y55033D01*
X152974Y55032D01*
X153191Y54778D01*
X153646Y54389D01*
X154156Y54077D01*
X154423Y53966D01*
X154420Y53959D01*
X154980Y53769D01*
X155603Y53645D01*
X156235Y53604D01*
X156305Y53608D01*
X156366Y53604D01*
X156437Y53609D01*
X156993Y53645D01*
X157610Y53768D01*
X158173Y53959D01*
X158170Y53966D01*
X158437Y54077D01*
X158947Y54389D01*
X159401Y54778D01*
X159619Y55032D01*
X159619Y55033D01*
X159621Y55032D01*
X159740Y55168D01*
X160106Y55716D01*
X160398Y56306D01*
X160525Y56681D01*
X160567Y56805D01*
X160740Y57498D01*
X160871Y58377D01*
X160915Y59265D01*
X160871Y60153D01*
X160740Y61032D01*
X160567Y61724D01*
X160567Y61724D01*
X160403Y62208D01*
X160120Y62781D01*
X159765Y63312D01*
X159620Y63477D01*
Y63477D01*
X159620D01*
X159533Y63578D01*
X159431Y63697D01*
X158967Y64093D01*
X158448Y64412D01*
X158170Y64527D01*
X158171Y64531D01*
X157636Y64713D01*
X156972Y64845D01*
X156296Y64890D01*
D02*
G37*
G36*
X153886Y52736D02*
X153886D01*
D01*
X153886D01*
D02*
G37*
G36*
X158782D02*
X158782D01*
X158782D01*
D01*
D02*
G37*
G36*
X205443Y85411D02*
D01*
Y82667D01*
X205440Y82733D01*
X205438Y82796D01*
X205429Y82856D01*
X205418Y82913D01*
X205408Y82965D01*
X205394Y83014D01*
X205380Y83060D01*
X205367Y83101D01*
X205353Y83139D01*
X205339Y83172D01*
X205326Y83200D01*
X205315Y83224D01*
X205304Y83243D01*
X205296Y83257D01*
X205293Y83265D01*
X205290Y83268D01*
X205260Y83311D01*
X205230Y83355D01*
X205162Y83432D01*
X205126Y83467D01*
X205091Y83497D01*
X205058Y83527D01*
X205025Y83552D01*
X204993Y83576D01*
X204965Y83595D01*
X204938Y83612D01*
X204916Y83628D01*
X204897Y83639D01*
X204883Y83647D01*
X204875Y83650D01*
X204872Y83653D01*
X204821Y83680D01*
X204761Y83705D01*
X204698Y83732D01*
X204632Y83757D01*
X204496Y83803D01*
X204427Y83822D01*
X204362Y83844D01*
X204299Y83860D01*
X204242Y83877D01*
X204187Y83890D01*
X204141Y83904D01*
X204103Y83912D01*
X204075Y83920D01*
X204064Y83923D01*
X204056D01*
X204053Y83926D01*
X204051D01*
X203952Y83950D01*
X203860Y83975D01*
X203780Y83997D01*
X203707Y84021D01*
X203641Y84043D01*
X203584Y84065D01*
X203535Y84084D01*
X203491Y84103D01*
X203456Y84120D01*
X203426Y84133D01*
X203401Y84147D01*
X203382Y84158D01*
X203365Y84169D01*
X203357Y84174D01*
X203352Y84180D01*
X203349D01*
X203311Y84218D01*
X203284Y84256D01*
X203264Y84294D01*
X203251Y84330D01*
X203243Y84363D01*
X203240Y84387D01*
X203237Y84404D01*
Y84406D01*
Y84409D01*
X203240Y84436D01*
X203243Y84461D01*
X203256Y84507D01*
X203275Y84545D01*
X203297Y84578D01*
X203319Y84605D01*
X203338Y84625D01*
X203352Y84638D01*
X203357Y84641D01*
X203396Y84666D01*
X203434Y84687D01*
X203475Y84707D01*
X203518Y84723D01*
X203606Y84747D01*
X203688Y84764D01*
X203729Y84769D01*
X203764Y84772D01*
X203797Y84775D01*
X203824Y84777D01*
X203846Y84780D01*
X203936D01*
X203993Y84775D01*
X204043Y84769D01*
X204089Y84761D01*
X204133Y84750D01*
X204174Y84739D01*
X204209Y84728D01*
X204242Y84718D01*
X204269Y84704D01*
X204294Y84693D01*
X204315Y84682D01*
X204332Y84671D01*
X204346Y84663D01*
X204354Y84657D01*
X204359Y84655D01*
X204362Y84652D01*
X204392Y84627D01*
X204416Y84597D01*
X204463Y84532D01*
X204498Y84464D01*
X204528Y84395D01*
X204539Y84363D01*
X204548Y84333D01*
X204556Y84305D01*
X204561Y84281D01*
X204567Y84262D01*
X204569Y84248D01*
X204572Y84237D01*
Y84234D01*
X205334Y84267D01*
X205326Y84363D01*
X205312Y84453D01*
X205293Y84537D01*
X205266Y84617D01*
X205238Y84690D01*
X205205Y84758D01*
X205173Y84821D01*
X205137Y84876D01*
X205102Y84928D01*
X205069Y84971D01*
X205039Y85010D01*
X205012Y85040D01*
X204987Y85064D01*
X204971Y85083D01*
X204960Y85094D01*
X204954Y85097D01*
X204883Y85151D01*
X204807Y85201D01*
X204722Y85242D01*
X204638Y85280D01*
X204548Y85310D01*
X204457Y85334D01*
X204370Y85356D01*
X204286Y85373D01*
X204204Y85384D01*
X204130Y85395D01*
X204062Y85403D01*
X204002Y85405D01*
X203974Y85408D01*
X203952D01*
X203933Y85411D01*
X205443D01*
X202372D01*
D01*
X203884D01*
X203805Y85408D01*
X203729Y85405D01*
X203655Y85400D01*
X203584Y85389D01*
X203518Y85381D01*
X203458Y85370D01*
X203401Y85356D01*
X203349Y85345D01*
X203303Y85332D01*
X203262Y85321D01*
X203226Y85307D01*
X203196Y85299D01*
X203174Y85291D01*
X203155Y85283D01*
X203144Y85280D01*
X203142Y85277D01*
X203084Y85252D01*
X203032Y85223D01*
X202983Y85193D01*
X202937Y85163D01*
X202896Y85130D01*
X202858Y85100D01*
X202822Y85067D01*
X202789Y85037D01*
X202762Y85007D01*
X202738Y84982D01*
X202716Y84958D01*
X202699Y84936D01*
X202686Y84920D01*
X202677Y84906D01*
X202672Y84898D01*
X202669Y84895D01*
X202642Y84848D01*
X202618Y84799D01*
X202596Y84753D01*
X202576Y84704D01*
X202560Y84657D01*
X202547Y84614D01*
X202538Y84570D01*
X202527Y84532D01*
X202522Y84494D01*
X202517Y84458D01*
X202514Y84428D01*
X202511Y84404D01*
X202508Y84382D01*
Y84368D01*
Y84357D01*
Y84354D01*
X202511Y84272D01*
X202522Y84193D01*
X202541Y84117D01*
X202563Y84046D01*
X202587Y83980D01*
X202618Y83918D01*
X202650Y83860D01*
X202683Y83808D01*
X202713Y83759D01*
X202746Y83718D01*
X202776Y83680D01*
X202800Y83650D01*
X202822Y83628D01*
X202841Y83609D01*
X202852Y83598D01*
X202855Y83595D01*
X202907Y83555D01*
X202964Y83516D01*
X203027Y83478D01*
X203095Y83443D01*
X203164Y83410D01*
X203237Y83380D01*
X203308Y83353D01*
X203379Y83325D01*
X203445Y83303D01*
X203507Y83281D01*
X203565Y83262D01*
X203617Y83249D01*
X203658Y83238D01*
X203674Y83232D01*
X203688Y83230D01*
X203698Y83224D01*
X203707D01*
X203712Y83221D01*
X203715D01*
X203800Y83200D01*
X203879Y83180D01*
X203950Y83164D01*
X204012Y83148D01*
X204070Y83131D01*
X204119Y83118D01*
X204163Y83107D01*
X204201Y83096D01*
X204231Y83088D01*
X204258Y83079D01*
X204280Y83071D01*
X204299Y83066D01*
X204310Y83063D01*
X204321Y83060D01*
X204324Y83058D01*
X204326D01*
X204362Y83044D01*
X204395Y83030D01*
X204452Y83003D01*
X204501Y82973D01*
X204539Y82948D01*
X204567Y82924D01*
X204586Y82907D01*
X204599Y82897D01*
X204602Y82891D01*
X204629Y82856D01*
X204649Y82817D01*
X204662Y82779D01*
X204670Y82744D01*
X204679Y82711D01*
X204681Y82686D01*
Y82670D01*
Y82667D01*
Y82665D01*
X204679Y82626D01*
X204673Y82588D01*
X204665Y82555D01*
X204651Y82520D01*
X204621Y82460D01*
X204589Y82405D01*
X204569Y82383D01*
X204553Y82362D01*
X204537Y82345D01*
X204523Y82329D01*
X204509Y82318D01*
X204501Y82310D01*
X204496Y82304D01*
X204493Y82301D01*
X204457Y82274D01*
X204416Y82249D01*
X204373Y82230D01*
X204329Y82211D01*
X204283Y82198D01*
X204236Y82184D01*
X204146Y82165D01*
X204105Y82160D01*
X204064Y82154D01*
X204029Y82151D01*
X203999Y82148D01*
X203974Y82146D01*
X203939D01*
X203876Y82148D01*
X203816Y82154D01*
X203759Y82162D01*
X203704Y82173D01*
X203655Y82187D01*
X203611Y82200D01*
X203568Y82217D01*
X203532Y82233D01*
X203497Y82249D01*
X203469Y82266D01*
X203442Y82280D01*
X203423Y82293D01*
X203406Y82304D01*
X203396Y82312D01*
X203387Y82318D01*
X203385Y82320D01*
X203349Y82356D01*
X203314Y82394D01*
X203284Y82435D01*
X203256Y82479D01*
X203232Y82525D01*
X203210Y82572D01*
X203172Y82662D01*
X203158Y82703D01*
X203147Y82741D01*
X203136Y82776D01*
X203128Y82809D01*
X203122Y82834D01*
X203117Y82853D01*
X203114Y82864D01*
Y82869D01*
X202372Y82798D01*
D01*
X202388Y82684D01*
X202413Y82574D01*
X202440Y82473D01*
X202476Y82378D01*
X202511Y82293D01*
X202549Y82214D01*
X202587Y82140D01*
X202628Y82078D01*
X202667Y82020D01*
X202702Y81971D01*
X202738Y81927D01*
X202768Y81895D01*
X202792Y81867D01*
X202811Y81848D01*
X202822Y81835D01*
X202828Y81832D01*
X202904Y81774D01*
X202986Y81723D01*
X203073Y81679D01*
X203164Y81641D01*
X203254Y81608D01*
X203346Y81583D01*
X203436Y81562D01*
X203524Y81542D01*
X203606Y81529D01*
X203682Y81518D01*
X203753Y81512D01*
X203813Y81507D01*
X203838Y81504D01*
X203862D01*
X203881Y81502D01*
X203931D01*
X204021Y81504D01*
X204108Y81507D01*
X204190Y81515D01*
X204266Y81523D01*
X204337Y81534D01*
X204406Y81545D01*
X204468Y81556D01*
X204526Y81570D01*
X204575Y81583D01*
X204621Y81594D01*
X204660Y81605D01*
X204690Y81616D01*
X204717Y81624D01*
X204736Y81633D01*
X204747Y81635D01*
X204750Y81638D01*
X204810Y81665D01*
X204867Y81695D01*
X204919Y81728D01*
X204968Y81764D01*
X205014Y81796D01*
X205055Y81832D01*
X205094Y81867D01*
X205129Y81900D01*
X205159Y81933D01*
X205186Y81963D01*
X205208Y81990D01*
X205227Y82012D01*
X205241Y82031D01*
X205252Y82047D01*
X205257Y82056D01*
X205260Y82059D01*
X205293Y82113D01*
X205320Y82165D01*
X205345Y82219D01*
X205367Y82274D01*
X205383Y82326D01*
X205399Y82375D01*
X205410Y82424D01*
X205421Y82471D01*
X205427Y82512D01*
X205432Y82550D01*
X205438Y82583D01*
X205440Y82613D01*
X205443Y82635D01*
Y81502D01*
D01*
Y85411D01*
D02*
G37*
G36*
X224244Y84368D02*
X222470D01*
D01*
X223764D01*
X223701Y84365D01*
X223641Y84354D01*
X223589Y84341D01*
X223543Y84324D01*
X223505Y84308D01*
X223475Y84294D01*
X223464Y84289D01*
X223456Y84283D01*
X223453Y84281D01*
X223450D01*
X223426Y84262D01*
X223398Y84240D01*
X223371Y84215D01*
X223344Y84188D01*
X223292Y84128D01*
X223245Y84068D01*
X223204Y84010D01*
X223185Y83983D01*
X223172Y83961D01*
X223158Y83945D01*
X223150Y83929D01*
X223144Y83920D01*
X223142Y83918D01*
Y84308D01*
X222470D01*
Y81570D01*
X223194D01*
Y82413D01*
Y82479D01*
Y82539D01*
X223196Y82654D01*
X223199Y82757D01*
X223202Y82853D01*
X223207Y82935D01*
X223213Y83011D01*
X223218Y83077D01*
X223223Y83134D01*
X223229Y83183D01*
X223234Y83224D01*
X223240Y83260D01*
X223245Y83287D01*
X223248Y83306D01*
X223251Y83320D01*
X223253Y83328D01*
Y83331D01*
X223264Y83369D01*
X223278Y83407D01*
X223292Y83440D01*
X223305Y83470D01*
X223319Y83497D01*
X223333Y83522D01*
X223357Y83565D01*
X223382Y83595D01*
X223401Y83617D01*
X223412Y83631D01*
X223417Y83634D01*
X223458Y83661D01*
X223502Y83683D01*
X223546Y83697D01*
X223587Y83707D01*
X223622Y83713D01*
X223652Y83718D01*
X223707D01*
X223737Y83713D01*
X223797Y83699D01*
X223854Y83680D01*
X223906Y83658D01*
X223952Y83636D01*
X223972Y83626D01*
X223988Y83617D01*
X223999Y83609D01*
X224010Y83604D01*
X224015Y83601D01*
X224018Y83598D01*
X224244Y84229D01*
X224201Y84253D01*
X224157Y84275D01*
X224113Y84294D01*
X224073Y84311D01*
X223991Y84335D01*
X223917Y84352D01*
X223884Y84357D01*
X223854Y84360D01*
X223830Y84363D01*
X223808Y84365D01*
X223789Y84368D01*
X224244D01*
D02*
G37*
G36*
X210756D02*
Y81570D01*
X209704D01*
Y82413D01*
Y82479D01*
Y82539D01*
X209707Y82654D01*
X209710Y82757D01*
X209713Y82853D01*
X209718Y82935D01*
X209724Y83011D01*
X209729Y83077D01*
X209735Y83134D01*
X209740Y83183D01*
X209746Y83224D01*
X209751Y83260D01*
X209756Y83287D01*
X209759Y83306D01*
X209762Y83320D01*
X209765Y83328D01*
Y83331D01*
X209775Y83369D01*
X209789Y83407D01*
X209803Y83440D01*
X209817Y83470D01*
X209830Y83497D01*
X209844Y83522D01*
X209868Y83565D01*
X209893Y83595D01*
X209912Y83617D01*
X209923Y83631D01*
X209928Y83634D01*
X209969Y83661D01*
X210013Y83683D01*
X210057Y83697D01*
X210098Y83707D01*
X210133Y83713D01*
X210163Y83718D01*
X210218D01*
X210248Y83713D01*
X210308Y83699D01*
X210365Y83680D01*
X210417Y83658D01*
X210464Y83636D01*
X210483Y83626D01*
X210499Y83617D01*
X210510Y83609D01*
X210521Y83604D01*
X210526Y83601D01*
X210529Y83598D01*
X210756Y84229D01*
X210712Y84253D01*
X210668Y84275D01*
X210625Y84294D01*
X210584Y84311D01*
X210502Y84335D01*
X210428Y84352D01*
X210395Y84357D01*
X210365Y84360D01*
X210341Y84363D01*
X210319Y84365D01*
X210300Y84368D01*
X210275D01*
X210212Y84365D01*
X210152Y84354D01*
X210100Y84341D01*
X210054Y84324D01*
X210016Y84308D01*
X209986Y84294D01*
X209975Y84289D01*
X209967Y84283D01*
X209964Y84281D01*
X209961D01*
X209937Y84262D01*
X209909Y84240D01*
X209882Y84215D01*
X209855Y84188D01*
X209803Y84128D01*
X209756Y84068D01*
X209716Y84010D01*
X209696Y83983D01*
X209683Y83961D01*
X209669Y83945D01*
X209661Y83929D01*
X209655Y83920D01*
X209653Y83918D01*
Y84308D01*
X208981D01*
D01*
Y81570D01*
X210756D01*
Y84368D01*
D02*
G37*
G36*
X218274Y83301D02*
X216852D01*
Y82577D01*
X218274D01*
Y83301D01*
D02*
G37*
G36*
X225279Y82293D02*
X224556D01*
Y81570D01*
X225279D01*
Y82293D01*
D02*
G37*
G36*
X224244Y84368D02*
Y81570D01*
D01*
Y84368D01*
D02*
G37*
G36*
X221700Y85348D02*
X218703D01*
Y81570D01*
X219410D01*
Y84043D01*
X220936Y81570D01*
X221700D01*
Y85348D01*
D02*
G37*
G36*
X216191D02*
X215468D01*
Y81570D01*
X216191D01*
Y85348D01*
D02*
G37*
G36*
X214911Y84368D02*
Y81507D01*
X213251D01*
X213338Y81510D01*
X213423Y81521D01*
X213499Y81534D01*
X213535Y81542D01*
X213567Y81553D01*
X213595Y81562D01*
X213622Y81570D01*
X213644Y81575D01*
X213666Y81583D01*
X213679Y81589D01*
X213693Y81594D01*
X213699Y81597D01*
X213701D01*
X213780Y81635D01*
X213854Y81676D01*
X213922Y81723D01*
X213980Y81766D01*
X214007Y81786D01*
X214029Y81805D01*
X214051Y81824D01*
X214067Y81837D01*
X214081Y81851D01*
X214092Y81859D01*
X214097Y81865D01*
X214100Y81867D01*
X214103Y81856D01*
X214105Y81845D01*
X214113Y81818D01*
X214119Y81805D01*
X214122Y81794D01*
X214124Y81786D01*
Y81783D01*
X214138Y81734D01*
X214152Y81690D01*
X214165Y81654D01*
X214176Y81624D01*
X214184Y81600D01*
X214190Y81583D01*
X214195Y81573D01*
Y81570D01*
X214911D01*
X214878Y81641D01*
X214851Y81709D01*
X214826Y81772D01*
X214810Y81826D01*
X214796Y81870D01*
X214791Y81889D01*
X214788Y81906D01*
X214782Y81919D01*
Y81927D01*
X214780Y81933D01*
Y81936D01*
X214774Y81971D01*
X214769Y82007D01*
X214763Y82047D01*
X214760Y82091D01*
X214755Y82179D01*
X214752Y82266D01*
X214750Y82307D01*
Y82345D01*
X214747Y82378D01*
Y82408D01*
Y82433D01*
Y82452D01*
Y82465D01*
Y82468D01*
X214758Y83311D01*
Y83396D01*
X214752Y83475D01*
X214750Y83546D01*
X214741Y83612D01*
X214736Y83672D01*
X214728Y83724D01*
X214717Y83773D01*
X214709Y83814D01*
X214700Y83849D01*
X214689Y83879D01*
X214681Y83907D01*
X214676Y83926D01*
X214668Y83942D01*
X214665Y83953D01*
X214660Y83959D01*
Y83961D01*
X214640Y83994D01*
X214618Y84024D01*
X214567Y84081D01*
X214512Y84131D01*
X214458Y84174D01*
X214406Y84207D01*
X214384Y84221D01*
X214365Y84232D01*
X214348Y84242D01*
X214337Y84248D01*
X214329Y84253D01*
X214326D01*
X214280Y84272D01*
X214228Y84292D01*
X214171Y84308D01*
X214113Y84319D01*
X213993Y84341D01*
X213933Y84349D01*
X213876Y84354D01*
X213821Y84360D01*
X213770Y84363D01*
X213723Y84365D01*
X213682D01*
X213649Y84368D01*
X214911D01*
X212342D01*
X213603D01*
X213505Y84365D01*
X213415Y84360D01*
X213330Y84349D01*
X213251Y84338D01*
X213180Y84324D01*
X213112Y84308D01*
X213052Y84289D01*
X213000Y84272D01*
X212950Y84253D01*
X212910Y84234D01*
X212874Y84218D01*
X212847Y84204D01*
X212825Y84193D01*
X212809Y84182D01*
X212798Y84177D01*
X212795Y84174D01*
X212746Y84136D01*
X212702Y84095D01*
X212658Y84049D01*
X212623Y84002D01*
X212587Y83953D01*
X212557Y83904D01*
X212527Y83858D01*
X212503Y83808D01*
X212484Y83765D01*
X212465Y83724D01*
X212448Y83685D01*
X212437Y83653D01*
X212426Y83626D01*
X212421Y83604D01*
X212418Y83593D01*
X212415Y83587D01*
X213073Y83470D01*
X213101Y83535D01*
X213128Y83593D01*
X213158Y83639D01*
X213185Y83675D01*
X213207Y83702D01*
X213229Y83724D01*
X213240Y83735D01*
X213245Y83737D01*
X213289Y83762D01*
X213338Y83781D01*
X213390Y83795D01*
X213439Y83806D01*
X213480Y83811D01*
X213499D01*
X213516Y83814D01*
X213600D01*
X213647Y83811D01*
X213690Y83806D01*
X213731Y83800D01*
X213767Y83792D01*
X213797Y83786D01*
X213827Y83778D01*
X213851Y83770D01*
X213873Y83759D01*
X213890Y83751D01*
X213906Y83746D01*
X213917Y83737D01*
X213928Y83732D01*
X213933Y83727D01*
X213939Y83724D01*
X213958Y83705D01*
X213974Y83685D01*
X213999Y83639D01*
X214018Y83590D01*
X214029Y83541D01*
X214037Y83497D01*
X214040Y83478D01*
Y83459D01*
X214042Y83445D01*
Y83434D01*
Y83429D01*
Y83426D01*
Y83355D01*
X214002Y83339D01*
X213955Y83322D01*
X213903Y83306D01*
X213849Y83292D01*
X213734Y83262D01*
X213617Y83232D01*
X213562Y83221D01*
X213510Y83210D01*
X213461Y83200D01*
X213420Y83191D01*
X213387Y83183D01*
X213360Y83180D01*
X213344Y83175D01*
X213338D01*
X213270Y83161D01*
X213204Y83148D01*
X213144Y83134D01*
X213090Y83118D01*
X213038Y83104D01*
X212991Y83090D01*
X212948Y83077D01*
X212910Y83063D01*
X212874Y83052D01*
X212844Y83041D01*
X212820Y83030D01*
X212800Y83022D01*
X212784Y83017D01*
X212770Y83011D01*
X212765Y83006D01*
X212762D01*
X212691Y82968D01*
X212628Y82921D01*
X212577Y82875D01*
X212533Y82831D01*
X212497Y82790D01*
X212473Y82757D01*
X212462Y82744D01*
X212456Y82736D01*
X212454Y82730D01*
X212451Y82727D01*
X212415Y82659D01*
X212388Y82588D01*
X212369Y82517D01*
X212355Y82454D01*
X212350Y82424D01*
X212347Y82397D01*
X212345Y82375D01*
Y82353D01*
X212342Y82337D01*
Y82315D01*
X212345Y82252D01*
X212353Y82190D01*
X212364Y82132D01*
X212380Y82078D01*
X212399Y82026D01*
X212418Y81979D01*
X212440Y81936D01*
X212465Y81895D01*
X212486Y81859D01*
X212508Y81826D01*
X212527Y81799D01*
X212546Y81777D01*
X212563Y81761D01*
X212574Y81747D01*
X212582Y81739D01*
X212585Y81736D01*
X212631Y81695D01*
X212683Y81660D01*
X212738Y81630D01*
X212792Y81603D01*
X212847Y81581D01*
X212901Y81564D01*
X212956Y81548D01*
X213008Y81537D01*
X213060Y81526D01*
X213103Y81518D01*
X213144Y81515D01*
X213180Y81510D01*
X213210D01*
X213232Y81507D01*
X214911D01*
Y84368D01*
D02*
G37*
G36*
X211790Y85348D02*
X211067D01*
Y84679D01*
X211790D01*
Y84308D01*
X211067D01*
Y81570D01*
X211790D01*
Y85348D01*
D02*
G37*
G36*
X208424Y84368D02*
Y81507D01*
X207193D01*
X207275Y81510D01*
X207354Y81515D01*
X207431Y81526D01*
X207501Y81540D01*
X207567Y81553D01*
X207630Y81573D01*
X207684Y81592D01*
X207736Y81611D01*
X207783Y81630D01*
X207826Y81646D01*
X207859Y81665D01*
X207889Y81679D01*
X207914Y81693D01*
X207930Y81704D01*
X207941Y81709D01*
X207944Y81712D01*
X207998Y81753D01*
X208050Y81796D01*
X208097Y81845D01*
X208140Y81895D01*
X208178Y81944D01*
X208217Y81996D01*
X208249Y82045D01*
X208277Y82094D01*
X208304Y82138D01*
X208326Y82181D01*
X208345Y82219D01*
X208359Y82252D01*
X208372Y82280D01*
X208381Y82301D01*
X208383Y82312D01*
X208386Y82318D01*
X207665Y82438D01*
X207641Y82364D01*
X207613Y82304D01*
X207583Y82252D01*
X207553Y82211D01*
X207529Y82179D01*
X207507Y82157D01*
X207493Y82143D01*
X207490Y82138D01*
X207488D01*
X207441Y82108D01*
X207395Y82086D01*
X207346Y82069D01*
X207302Y82059D01*
X207261Y82053D01*
X207231Y82050D01*
X207218Y82047D01*
X207201D01*
X207155Y82050D01*
X207111Y82056D01*
X207070Y82064D01*
X207029Y82075D01*
X206958Y82105D01*
X206925Y82118D01*
X206898Y82138D01*
X206871Y82154D01*
X206849Y82168D01*
X206827Y82184D01*
X206811Y82198D01*
X206797Y82209D01*
X206789Y82217D01*
X206783Y82222D01*
X206781Y82225D01*
X206751Y82261D01*
X206726Y82299D01*
X206704Y82340D01*
X206682Y82381D01*
X206666Y82421D01*
X206652Y82463D01*
X206633Y82544D01*
X206625Y82583D01*
X206620Y82615D01*
X206614Y82648D01*
X206611Y82675D01*
Y82697D01*
X206609Y82714D01*
Y82725D01*
Y82727D01*
X208424D01*
X208421Y82877D01*
X208413Y83019D01*
X208397Y83151D01*
X208378Y83271D01*
X208350Y83382D01*
X208323Y83483D01*
X208290Y83576D01*
X208258Y83658D01*
X208225Y83729D01*
X208195Y83792D01*
X208165Y83844D01*
X208137Y83887D01*
X208116Y83920D01*
X208099Y83945D01*
X208086Y83959D01*
X208083Y83964D01*
X208015Y84035D01*
X207941Y84098D01*
X207864Y84152D01*
X207785Y84199D01*
X207703Y84237D01*
X207624Y84270D01*
X207545Y84297D01*
X207471Y84319D01*
X207400Y84335D01*
X207332Y84346D01*
X207275Y84357D01*
X207223Y84363D01*
X207179Y84365D01*
X207163D01*
X207149Y84368D01*
X207122D01*
X207021Y84363D01*
X206925Y84352D01*
X206835Y84333D01*
X206751Y84308D01*
X206672Y84278D01*
X206598Y84245D01*
X206530Y84210D01*
X206467Y84174D01*
X206412Y84139D01*
X206363Y84103D01*
X206319Y84070D01*
X206284Y84040D01*
X206257Y84016D01*
X206237Y83997D01*
X206226Y83986D01*
X206221Y83980D01*
X206158Y83904D01*
X206104Y83825D01*
X206057Y83740D01*
X206016Y83653D01*
X205981Y83563D01*
X205954Y83475D01*
X205929Y83388D01*
X205910Y83303D01*
X205896Y83224D01*
X205885Y83151D01*
X205877Y83085D01*
X205872Y83028D01*
X205869Y83003D01*
Y82981D01*
Y82962D01*
X205866Y82946D01*
Y82916D01*
X205869Y82812D01*
X205877Y82711D01*
X205891Y82615D01*
X205910Y82528D01*
X205929Y82443D01*
X205951Y82367D01*
X205975Y82296D01*
X206003Y82230D01*
X206027Y82170D01*
X206052Y82118D01*
X206074Y82075D01*
X206096Y82039D01*
X206112Y82009D01*
X206125Y81988D01*
X206134Y81976D01*
X206136Y81971D01*
X206205Y81889D01*
X206281Y81818D01*
X206360Y81755D01*
X206445Y81704D01*
X206532Y81657D01*
X206620Y81622D01*
X206707Y81589D01*
X206792Y81564D01*
X206873Y81545D01*
X206950Y81532D01*
X207015Y81521D01*
X207076Y81515D01*
X207103Y81512D01*
X207125Y81510D01*
X207144D01*
X207163Y81507D01*
X208424D01*
Y84368D01*
D02*
G37*
G36*
X206931Y81507D02*
X205866D01*
D01*
X206931D01*
D02*
G37*
%LPD*%
G36*
X220993Y82817D02*
X219443Y85348D01*
X220993D01*
Y82817D01*
D02*
G37*
G36*
X214042Y82738D02*
Y82692D01*
Y82648D01*
X214040Y82607D01*
X214037Y82572D01*
X214034Y82539D01*
Y82512D01*
X214032Y82484D01*
X214029Y82463D01*
X214026Y82443D01*
X214023Y82427D01*
X214021Y82413D01*
X214018Y82402D01*
X214015Y82389D01*
X214013Y82383D01*
X213993Y82334D01*
X213969Y82288D01*
X213942Y82247D01*
X213912Y82211D01*
X213884Y82184D01*
X213862Y82162D01*
X213846Y82151D01*
X213843Y82146D01*
X213841D01*
X213808Y82124D01*
X213772Y82105D01*
X213707Y82072D01*
X213644Y82050D01*
X213587Y82034D01*
X213538Y82026D01*
X213518Y82020D01*
X213499D01*
X213486Y82017D01*
X213467D01*
X213404Y82023D01*
X213346Y82034D01*
X213297Y82053D01*
X213256Y82072D01*
X213224Y82091D01*
X213199Y82110D01*
X213183Y82121D01*
X213177Y82127D01*
X213139Y82170D01*
X213112Y82214D01*
X213092Y82258D01*
X213079Y82299D01*
X213071Y82334D01*
X213068Y82364D01*
X213065Y82375D01*
Y82383D01*
Y82386D01*
Y82389D01*
X213068Y82416D01*
X213071Y82443D01*
X213087Y82495D01*
X213109Y82539D01*
X213136Y82574D01*
X213161Y82604D01*
X213183Y82626D01*
X213199Y82640D01*
X213202Y82645D01*
X213204D01*
X213224Y82656D01*
X213248Y82667D01*
X213275Y82678D01*
X213305Y82692D01*
X213371Y82711D01*
X213437Y82730D01*
X213496Y82746D01*
X213524Y82755D01*
X213548Y82760D01*
X213570Y82766D01*
X213584Y82768D01*
X213595Y82771D01*
X213597D01*
X213652Y82782D01*
X213704Y82796D01*
X213750Y82806D01*
X213794Y82817D01*
X213835Y82826D01*
X213871Y82837D01*
X213903Y82845D01*
X213933Y82853D01*
X213961Y82858D01*
X213983Y82864D01*
X214002Y82869D01*
X214015Y82875D01*
X214029Y82877D01*
X214037Y82880D01*
X214040Y82883D01*
X214042D01*
Y82738D01*
D02*
G37*
G36*
X207207Y83811D02*
X207245Y83806D01*
X207283Y83798D01*
X207318Y83789D01*
X207381Y83762D01*
X207436Y83732D01*
X207460Y83716D01*
X207482Y83699D01*
X207499Y83685D01*
X207515Y83675D01*
X207526Y83664D01*
X207534Y83656D01*
X207540Y83650D01*
X207542Y83647D01*
X207570Y83614D01*
X207594Y83579D01*
X207616Y83544D01*
X207632Y83503D01*
X207663Y83424D01*
X207682Y83347D01*
X207690Y83311D01*
X207695Y83279D01*
X207701Y83249D01*
X207703Y83221D01*
Y83200D01*
X207706Y83183D01*
Y83172D01*
Y83170D01*
X206620D01*
Y83224D01*
X206625Y83276D01*
X206633Y83322D01*
X206642Y83369D01*
X206655Y83410D01*
X206666Y83448D01*
X206680Y83483D01*
X206696Y83516D01*
X206710Y83544D01*
X206723Y83568D01*
X206737Y83590D01*
X206748Y83606D01*
X206759Y83620D01*
X206767Y83631D01*
X206770Y83636D01*
X206772Y83639D01*
X206803Y83669D01*
X206835Y83697D01*
X206865Y83721D01*
X206901Y83740D01*
X206934Y83757D01*
X206966Y83770D01*
X207026Y83792D01*
X207056Y83800D01*
X207081Y83806D01*
X207106Y83808D01*
X207127Y83811D01*
X207144Y83814D01*
X207166D01*
X207207Y83811D01*
D02*
G37*
%LPC*%
G36*
X136295Y39605D02*
X136212D01*
X136044Y39597D01*
X135893Y39580D01*
X135767Y39555D01*
X135650Y39521D01*
X135566Y39488D01*
X135499Y39463D01*
X135457Y39446D01*
X135441Y39437D01*
X135340Y39370D01*
X135248Y39303D01*
X135181Y39228D01*
X135122Y39161D01*
X135080Y39102D01*
X135055Y39052D01*
X135038Y39018D01*
X135030Y39010D01*
X134996Y38901D01*
X134971Y38775D01*
X134946Y38641D01*
X134938Y38516D01*
X134929Y38398D01*
X134921Y38306D01*
Y38264D01*
Y38239D01*
Y38222D01*
Y38214D01*
Y37904D01*
X134301D01*
D01*
D01*
Y37032D01*
X134921D01*
Y33697D01*
X134301D01*
D01*
X136036D01*
Y37032D01*
X136865D01*
Y37904D01*
X136036D01*
Y38197D01*
X136044Y38306D01*
X136052Y38398D01*
X136069Y38474D01*
X136086Y38532D01*
X136103Y38583D01*
X136119Y38608D01*
X136136Y38625D01*
Y38633D01*
X136186Y38675D01*
X136237Y38700D01*
X136354Y38734D01*
X136404Y38742D01*
X136446Y38750D01*
X136488D01*
X136672Y38742D01*
X136756Y38734D01*
X136832Y38717D01*
X136899Y38708D01*
X136957Y38692D01*
X136991Y38683D01*
X136999D01*
X137150Y39463D01*
X136974Y39513D01*
X136807Y39546D01*
X136647Y39571D01*
X136505Y39588D01*
X136388Y39597D01*
X136295Y39605D01*
D02*
G37*
G36*
X159826Y39496D02*
X158712D01*
Y37409D01*
X158611Y37510D01*
X158511Y37602D01*
X158410Y37678D01*
X158301Y37753D01*
X158201Y37803D01*
X158100Y37854D01*
X158000Y37896D01*
X157907Y37921D01*
X157815Y37946D01*
X157740Y37962D01*
X157664Y37979D01*
X157606Y37988D01*
X157555Y37996D01*
X157488D01*
X157346Y37988D01*
X157212Y37971D01*
X157086Y37946D01*
X156960Y37912D01*
X156751Y37820D01*
X156650Y37770D01*
X156567Y37720D01*
X156483Y37661D01*
X156416Y37611D01*
X156357Y37569D01*
X156307Y37527D01*
X156265Y37485D01*
X156240Y37460D01*
X156223Y37443D01*
X156215Y37435D01*
X156131Y37326D01*
X156055Y37208D01*
X155988Y37083D01*
X155930Y36949D01*
X155879Y36814D01*
X155838Y36680D01*
X155779Y36412D01*
X155762Y36295D01*
X155745Y36178D01*
X155737Y36077D01*
X155729Y35985D01*
X155720Y35909D01*
Y33605D01*
X159826D01*
Y39496D01*
D02*
G37*
G36*
X115622Y37996D02*
X115555D01*
X115454Y37988D01*
X115371Y37979D01*
X115287Y37954D01*
X115220Y37929D01*
X115161Y37904D01*
X115111Y37887D01*
X115086Y37870D01*
X115077Y37862D01*
X114993Y37803D01*
X114918Y37720D01*
X114834Y37627D01*
X114767Y37535D01*
X114700Y37443D01*
X114650Y37367D01*
X114616Y37317D01*
X114608Y37309D01*
Y37904D01*
X113577D01*
Y33697D01*
X116116D01*
D01*
X116292D01*
X114692D01*
Y34988D01*
Y35180D01*
Y35356D01*
X114700Y35516D01*
X114708Y35658D01*
Y35792D01*
X114717Y35901D01*
X114725Y36010D01*
X114734Y36094D01*
X114742Y36169D01*
X114750Y36236D01*
X114759Y36287D01*
Y36328D01*
X114767Y36354D01*
X114776Y36379D01*
Y36395D01*
X114809Y36513D01*
X114851Y36613D01*
X114893Y36697D01*
X114935Y36756D01*
X114968Y36806D01*
X115002Y36840D01*
X115019Y36856D01*
X115027Y36865D01*
X115094Y36907D01*
X115161Y36940D01*
X115228Y36965D01*
X115287Y36982D01*
X115337Y36990D01*
X115387Y36999D01*
X115421D01*
X115513Y36990D01*
X115605Y36974D01*
X115689Y36940D01*
X115773Y36907D01*
X115840Y36873D01*
X115890Y36840D01*
X115932Y36823D01*
X115940Y36814D01*
X116292Y37778D01*
X116158Y37854D01*
X116033Y37904D01*
X115907Y37946D01*
X115789Y37971D01*
X115697Y37988D01*
X115622Y37996D01*
D02*
G37*
G36*
X144382D02*
X144315D01*
X144164Y37988D01*
X144022Y37962D01*
X143888Y37929D01*
X143779Y37896D01*
X143687Y37862D01*
X143611Y37828D01*
X143569Y37803D01*
X143552Y37795D01*
X143427Y37720D01*
X143326Y37636D01*
X143226Y37552D01*
X143150Y37468D01*
X143092Y37393D01*
X143041Y37334D01*
X143016Y37301D01*
X143008Y37284D01*
Y37904D01*
X141969D01*
Y32088D01*
X146066D01*
Y33747D01*
Y32088D01*
X143083D01*
Y34217D01*
X143201Y34099D01*
X143309Y33999D01*
X143402Y33915D01*
X143494Y33856D01*
X143569Y33806D01*
X143620Y33764D01*
X143661Y33747D01*
X143670Y33739D01*
X143779Y33697D01*
X143888Y33664D01*
X143997Y33639D01*
X144097Y33622D01*
X144181Y33613D01*
X144248Y33605D01*
X144307D01*
X144441Y33613D01*
X144567Y33630D01*
X144692Y33655D01*
X144809Y33697D01*
X145019Y33789D01*
X145111Y33840D01*
X145203Y33898D01*
X145279Y33948D01*
X145346Y33999D01*
X145404Y34049D01*
X145455Y34091D01*
X145497Y34133D01*
X145522Y34158D01*
X145538Y34175D01*
X145547Y34183D01*
X145639Y34301D01*
X145714Y34426D01*
X145790Y34552D01*
X145849Y34686D01*
X145899Y34820D01*
X145941Y34954D01*
X145999Y35222D01*
X146025Y35340D01*
X146041Y35457D01*
X146050Y35557D01*
X146058Y35641D01*
X146066Y35717D01*
Y33747D01*
Y35717D01*
Y35817D01*
X146058Y36002D01*
X146041Y36186D01*
X146016Y36345D01*
X145991Y36504D01*
X145949Y36647D01*
X145907Y36781D01*
X145857Y36898D01*
X145815Y37007D01*
X145765Y37099D01*
X145714Y37183D01*
X145673Y37259D01*
X145639Y37309D01*
X145606Y37359D01*
X145580Y37393D01*
X145564Y37409D01*
X145555Y37418D01*
X145455Y37518D01*
X145354Y37611D01*
X145254Y37686D01*
X145145Y37753D01*
X145044Y37812D01*
X144935Y37854D01*
X144843Y37896D01*
X144742Y37921D01*
X144659Y37946D01*
X144575Y37962D01*
X144499Y37979D01*
X144441Y37988D01*
X144382Y37996D01*
D02*
G37*
G36*
X106546D02*
X106479D01*
X106328Y37988D01*
X106186Y37962D01*
X106052Y37929D01*
X105943Y37896D01*
X105851Y37862D01*
X105775Y37828D01*
X105734Y37803D01*
X105717Y37795D01*
X105591Y37720D01*
X105491Y37636D01*
X105390Y37552D01*
X105315Y37468D01*
X105256Y37393D01*
X105206Y37334D01*
X105180Y37301D01*
X105172Y37284D01*
Y37904D01*
X104133D01*
Y32088D01*
X108231Y32088D01*
Y33982D01*
Y32088D01*
X105247Y32088D01*
Y34217D01*
X105365Y34099D01*
X105474Y33999D01*
X105566Y33915D01*
X105658Y33856D01*
X105734Y33806D01*
X105784Y33764D01*
X105826Y33747D01*
X105834Y33739D01*
X105943Y33697D01*
X106052Y33664D01*
X106161Y33639D01*
X106262Y33622D01*
X106345Y33613D01*
X106412Y33605D01*
X106471D01*
X106605Y33613D01*
X106731Y33630D01*
X106856Y33655D01*
X106974Y33697D01*
X107183Y33789D01*
X107275Y33840D01*
X107368Y33898D01*
X107443Y33948D01*
X107510Y33999D01*
X107569Y34049D01*
X107619Y34091D01*
X107661Y34133D01*
X107686Y34158D01*
X107703Y34175D01*
X107711Y34183D01*
X107803Y34301D01*
X107879Y34426D01*
X107954Y34552D01*
X108013Y34686D01*
X108063Y34820D01*
X108105Y34954D01*
X108164Y35222D01*
X108189Y35340D01*
X108206Y35457D01*
X108214Y35557D01*
X108222Y35641D01*
X108231Y35717D01*
Y33982D01*
Y35717D01*
Y35817D01*
X108222Y36002D01*
X108206Y36186D01*
X108180Y36345D01*
X108155Y36504D01*
X108113Y36647D01*
X108072Y36781D01*
X108021Y36898D01*
X107979Y37007D01*
X107929Y37099D01*
X107879Y37183D01*
X107837Y37259D01*
X107803Y37309D01*
X107770Y37359D01*
X107745Y37393D01*
X107728Y37409D01*
X107720Y37418D01*
X107619Y37518D01*
X107518Y37611D01*
X107418Y37686D01*
X107309Y37753D01*
X107208Y37812D01*
X107099Y37854D01*
X107007Y37896D01*
X106907Y37921D01*
X106823Y37946D01*
X106739Y37962D01*
X106664Y37979D01*
X106605Y37988D01*
X106546Y37996D01*
D02*
G37*
G36*
X139161D02*
X138851D01*
X138700Y37979D01*
X138558Y37962D01*
X138424Y37937D01*
X138307Y37912D01*
X138198Y37879D01*
X138097Y37845D01*
X138005Y37812D01*
X137929Y37770D01*
X137862Y37736D01*
X137804Y37703D01*
X137762Y37678D01*
X137720Y37653D01*
X137695Y37636D01*
X137687Y37627D01*
X137678Y37619D01*
X137603Y37552D01*
X137536Y37477D01*
X137477Y37401D01*
X137435Y37317D01*
X137351Y37166D01*
X137301Y37024D01*
X137276Y36898D01*
X137267Y36840D01*
X137259Y36798D01*
X137251Y36756D01*
Y36731D01*
Y36714D01*
Y36705D01*
X137259Y36597D01*
X137276Y36496D01*
X137293Y36395D01*
X137326Y36303D01*
X137410Y36144D01*
X137502Y36010D01*
X137586Y35901D01*
X137670Y35826D01*
X137703Y35792D01*
X137720Y35775D01*
X137737Y35767D01*
X137745Y35759D01*
X137821Y35717D01*
X137921Y35666D01*
X138038Y35616D01*
X138164Y35574D01*
X138298Y35524D01*
X138441Y35482D01*
X138734Y35398D01*
X138876Y35356D01*
X139011Y35323D01*
X139128Y35289D01*
X139237Y35264D01*
X139329Y35247D01*
X139396Y35231D01*
X139438Y35214D01*
X139455D01*
X139555Y35189D01*
X139631Y35164D01*
X139698Y35138D01*
X139748Y35122D01*
X139781Y35097D01*
X139807Y35088D01*
X139823Y35071D01*
X139874Y35004D01*
X139899Y34937D01*
X139907Y34887D01*
Y34870D01*
Y34862D01*
X139899Y34795D01*
X139882Y34736D01*
X139857Y34686D01*
X139832Y34644D01*
X139807Y34611D01*
X139781Y34585D01*
X139765Y34569D01*
X139756Y34560D01*
X139664Y34510D01*
X139564Y34476D01*
X139455Y34443D01*
X139354Y34426D01*
X139262Y34418D01*
X139178Y34409D01*
X139111D01*
X138969Y34418D01*
X138851Y34435D01*
X138742Y34460D01*
X138658Y34493D01*
X138592Y34518D01*
X138541Y34543D01*
X138508Y34560D01*
X138499Y34569D01*
X138424Y34636D01*
X138365Y34719D01*
X138315Y34795D01*
X138273Y34879D01*
X138248Y34954D01*
X138231Y35013D01*
X138214Y35046D01*
Y35063D01*
X137150Y34903D01*
D01*
X137100Y34895D01*
X137175Y34686D01*
X137267Y34493D01*
X137368Y34334D01*
X137477Y34200D01*
X137577Y34091D01*
X137670Y34016D01*
X137695Y33982D01*
X137720Y33965D01*
X137737Y33957D01*
X137745Y33948D01*
X137846Y33890D01*
X137946Y33831D01*
X138172Y33747D01*
X138399Y33689D01*
X138617Y33647D01*
X138717Y33630D01*
X138809Y33622D01*
X138893Y33613D01*
X138969D01*
X139027Y33605D01*
X137100D01*
D01*
X141022D01*
Y33697D01*
Y33605D01*
X139111D01*
X139279Y33613D01*
X139438Y33622D01*
X139589Y33647D01*
X139731Y33672D01*
X139857Y33697D01*
X139974Y33739D01*
X140083Y33773D01*
X140175Y33814D01*
X140259Y33848D01*
X140334Y33890D01*
X140393Y33923D01*
X140444Y33948D01*
X140485Y33982D01*
X140510Y33999D01*
X140527Y34007D01*
X140536Y34016D01*
X140620Y34099D01*
X140695Y34183D01*
X140762Y34267D01*
X140821Y34351D01*
X140863Y34435D01*
X140904Y34518D01*
X140963Y34669D01*
X140997Y34812D01*
X141005Y34870D01*
X141013Y34912D01*
X141022Y34954D01*
Y33697D01*
Y34954D01*
Y35013D01*
X141005Y35197D01*
X140963Y35365D01*
X140913Y35507D01*
X140846Y35625D01*
X140779Y35717D01*
X140728Y35784D01*
X140687Y35817D01*
X140670Y35834D01*
X140594Y35884D01*
X140519Y35943D01*
X140427Y35985D01*
X140326Y36035D01*
X140125Y36119D01*
X139916Y36194D01*
X139731Y36253D01*
X139647Y36270D01*
X139572Y36295D01*
X139513Y36312D01*
X139471Y36320D01*
X139438Y36328D01*
X139429D01*
X139270Y36370D01*
X139128Y36404D01*
X139002Y36437D01*
X138893Y36471D01*
X138793Y36496D01*
X138709Y36521D01*
X138642Y36546D01*
X138575Y36563D01*
X138524Y36588D01*
X138483Y36605D01*
X138449Y36613D01*
X138432Y36630D01*
X138399Y36639D01*
X138390Y36647D01*
X138357Y36680D01*
X138332Y36714D01*
X138298Y36781D01*
X138281Y36831D01*
Y36840D01*
Y36848D01*
X138290Y36898D01*
X138298Y36940D01*
X138348Y37016D01*
X138390Y37058D01*
X138399Y37074D01*
X138407D01*
X138491Y37116D01*
X138583Y37150D01*
X138684Y37166D01*
X138793Y37183D01*
X138885Y37192D01*
X138960Y37200D01*
X139036D01*
X139161Y37192D01*
X139270Y37183D01*
X139363Y37158D01*
X139438Y37133D01*
X139497Y37108D01*
X139538Y37091D01*
X139564Y37074D01*
X139572Y37066D01*
X139639Y37016D01*
X139689Y36957D01*
X139740Y36898D01*
X139773Y36831D01*
X139798Y36781D01*
X139815Y36739D01*
X139832Y36705D01*
Y36697D01*
X140879Y36890D01*
X140812Y37083D01*
X140720Y37250D01*
X140628Y37393D01*
X140527Y37502D01*
X140444Y37594D01*
X140368Y37661D01*
X140318Y37694D01*
X140309Y37711D01*
X140301D01*
X140217Y37761D01*
X140125Y37803D01*
X139924Y37879D01*
X139714Y37929D01*
X139505Y37962D01*
X139404Y37971D01*
X139312Y37979D01*
X139228Y37988D01*
X139161Y37996D01*
D02*
G37*
G36*
X129583D02*
X127329D01*
X129491D01*
X129265Y37988D01*
X129055Y37954D01*
X128862Y37912D01*
X128695Y37862D01*
X128628Y37828D01*
X128561Y37803D01*
X128502Y37786D01*
X128460Y37761D01*
X128418Y37745D01*
X128393Y37728D01*
X128376Y37720D01*
X128368D01*
X128192Y37602D01*
X128041Y37477D01*
X127907Y37342D01*
X127798Y37217D01*
X127714Y37099D01*
X127647Y37007D01*
X127622Y36974D01*
X127614Y36949D01*
X127597Y36932D01*
Y36923D01*
X127505Y36731D01*
X127446Y36538D01*
X127396Y36362D01*
X127362Y36203D01*
X127346Y36060D01*
X127337Y36002D01*
Y35951D01*
X127329Y35918D01*
D01*
D01*
Y35859D01*
X127337Y35599D01*
X127371Y35356D01*
X127413Y35147D01*
X127438Y35055D01*
X127463Y34971D01*
X127488Y34895D01*
X127513Y34828D01*
X127538Y34770D01*
X127555Y34719D01*
X127572Y34678D01*
X127589Y34652D01*
X127597Y34636D01*
Y34627D01*
X127714Y34451D01*
X127840Y34301D01*
X127974Y34166D01*
X128100Y34058D01*
X128217Y33974D01*
X128309Y33915D01*
X128343Y33890D01*
X128368Y33873D01*
X128385Y33865D01*
X128393D01*
X128594Y33781D01*
X128787Y33714D01*
X128971Y33672D01*
X129147Y33639D01*
X129290Y33622D01*
X129348Y33613D01*
X129399D01*
X129441Y33605D01*
X127329D01*
X131670D01*
Y35809D01*
X131661Y35985D01*
X131644Y36152D01*
X131611Y36303D01*
X131577Y36454D01*
X131527Y36588D01*
X131477Y36722D01*
X131418Y36840D01*
X131368Y36949D01*
X131309Y37041D01*
X131251Y37133D01*
X131200Y37200D01*
X131150Y37267D01*
X131117Y37309D01*
X131083Y37351D01*
X131066Y37367D01*
X131058Y37376D01*
X130941Y37485D01*
X130815Y37577D01*
X130689Y37661D01*
X130555Y37736D01*
X130421Y37795D01*
X130295Y37845D01*
X130170Y37887D01*
X130044Y37921D01*
X129935Y37946D01*
X129826Y37962D01*
X129734Y37979D01*
X129650Y37988D01*
X129583Y37996D01*
D02*
G37*
G36*
X155058D02*
Y35708D01*
X155042Y35918D01*
X155016Y36119D01*
X154983Y36303D01*
X154941Y36479D01*
X154899Y36630D01*
X154849Y36773D01*
X154798Y36898D01*
X154748Y37007D01*
X154698Y37108D01*
X154656Y37183D01*
X154614Y37250D01*
X154580Y37301D01*
X154555Y37342D01*
X154539Y37359D01*
X154530Y37367D01*
X154430Y37477D01*
X154312Y37577D01*
X154195Y37661D01*
X154078Y37728D01*
X153952Y37795D01*
X153826Y37845D01*
X153709Y37887D01*
X153592Y37921D01*
X153483Y37946D01*
X153382Y37962D01*
X153290Y37979D01*
X153215Y37988D01*
X153148Y37996D01*
X153055D01*
X152904Y37988D01*
X152762Y37971D01*
X152620Y37937D01*
X152494Y37904D01*
X152368Y37862D01*
X152259Y37812D01*
X152150Y37753D01*
X152058Y37703D01*
X151974Y37644D01*
X151899Y37585D01*
X151832Y37535D01*
X151782Y37493D01*
X151740Y37460D01*
X151706Y37426D01*
X151690Y37409D01*
X151681Y37401D01*
X151589Y37284D01*
X151505Y37158D01*
X151430Y37032D01*
X151363Y36898D01*
X151312Y36756D01*
X151270Y36622D01*
X151203Y36362D01*
X151178Y36236D01*
X151162Y36127D01*
X151153Y36027D01*
X151145Y35943D01*
X151136Y35868D01*
Y33605D01*
X155058D01*
Y37996D01*
D02*
G37*
G36*
X150550D02*
Y35708D01*
X150533Y35918D01*
X150508Y36119D01*
X150474Y36303D01*
X150432Y36479D01*
X150391Y36630D01*
X150340Y36773D01*
X150290Y36898D01*
X150240Y37007D01*
X150189Y37108D01*
X150147Y37183D01*
X150106Y37250D01*
X150072Y37301D01*
X150047Y37342D01*
X150030Y37359D01*
X150022Y37367D01*
X149921Y37477D01*
X149804Y37577D01*
X149687Y37661D01*
X149569Y37728D01*
X149444Y37795D01*
X149318Y37845D01*
X149201Y37887D01*
X149083Y37921D01*
X148974Y37946D01*
X148874Y37962D01*
X148782Y37979D01*
X148706Y37988D01*
X148639Y37996D01*
X148547D01*
X148396Y37988D01*
X148254Y37971D01*
X148111Y37937D01*
X147985Y37904D01*
X147860Y37862D01*
X147751Y37812D01*
X147642Y37753D01*
X147550Y37703D01*
X147466Y37644D01*
X147390Y37585D01*
X147324Y37535D01*
X147273Y37493D01*
X147231Y37460D01*
X147198Y37426D01*
X147181Y37409D01*
X147173Y37401D01*
X147080Y37284D01*
X146997Y37158D01*
X146921Y37032D01*
X146854Y36898D01*
X146804Y36756D01*
X146762Y36622D01*
X146695Y36362D01*
X146670Y36236D01*
X146653Y36127D01*
X146645Y36027D01*
X146636Y35943D01*
X146628Y35868D01*
Y33605D01*
X150550D01*
Y37996D01*
D02*
G37*
G36*
X112714D02*
Y35708D01*
X112697Y35918D01*
X112672Y36119D01*
X112639Y36303D01*
X112597Y36479D01*
X112555Y36630D01*
X112505Y36773D01*
X112454Y36898D01*
X112404Y37007D01*
X112354Y37108D01*
X112312Y37183D01*
X112270Y37250D01*
X112236Y37301D01*
X112211Y37342D01*
X112195Y37359D01*
X112186Y37367D01*
X112086Y37477D01*
X111968Y37577D01*
X111851Y37661D01*
X111734Y37728D01*
X111608Y37795D01*
X111482Y37845D01*
X111365Y37887D01*
X111248Y37921D01*
X111139Y37946D01*
X111038Y37962D01*
X110946Y37979D01*
X110871Y37988D01*
X110803Y37996D01*
X110711D01*
X110560Y37988D01*
X110418Y37971D01*
X110275Y37937D01*
X110150Y37904D01*
X110024Y37862D01*
X109915Y37812D01*
X109806Y37753D01*
X109714Y37703D01*
X109630Y37644D01*
X109555Y37585D01*
X109488Y37535D01*
X109438Y37493D01*
X109396Y37460D01*
X109362Y37426D01*
X109345Y37409D01*
X109337Y37401D01*
X109245Y37284D01*
X109161Y37158D01*
X109086Y37032D01*
X109019Y36898D01*
X108968Y36756D01*
X108926Y36622D01*
X108859Y36362D01*
X108834Y36236D01*
X108817Y36127D01*
X108809Y36027D01*
X108801Y35943D01*
X108792Y35868D01*
Y33605D01*
X112714D01*
Y37996D01*
D02*
G37*
G36*
X200293Y39496D02*
X198534D01*
X197503Y35532D01*
X196464Y39496D01*
X194712D01*
Y33697D01*
X200293D01*
Y39496D01*
D02*
G37*
G36*
X184665Y37904D02*
X183567D01*
X182763Y35147D01*
X182067Y37904D01*
X180994D01*
X180265Y35147D01*
X179478Y37904D01*
X178405D01*
X179729Y33697D01*
X178405D01*
D01*
X184598D01*
X183316D01*
X184665Y37904D01*
D02*
G37*
G36*
X126994Y37904D02*
X125896D01*
X125091Y35147D01*
X124396Y37904D01*
X123323D01*
X122594Y35147D01*
X121806Y37904D01*
X120734D01*
X122058Y33697D01*
X120734D01*
X120742D01*
D01*
X126994D01*
X125644D01*
X126994Y37904D01*
D02*
G37*
G36*
X98904Y37904D02*
Y34678D01*
X97044D01*
X96951Y34669D01*
X96851D01*
X96759Y34661D01*
X96683D01*
X96650Y34652D01*
X96608D01*
X97169Y35264D01*
X98778Y37116D01*
Y37904D01*
X95300D01*
Y36982D01*
X96784Y36990D01*
X96993D01*
X97085Y36999D01*
X97211D01*
X97261Y37007D01*
X97295D01*
X97211Y36923D01*
X97127Y36831D01*
X97027Y36722D01*
X96934Y36622D01*
X96851Y36529D01*
X96784Y36454D01*
X96733Y36395D01*
X96725Y36387D01*
X96717Y36379D01*
X95150Y34577D01*
Y33697D01*
X98904D01*
Y37904D01*
D02*
G37*
G36*
X205045Y39530D02*
X201190D01*
X203059D01*
X202883Y39521D01*
X202724Y39505D01*
X202573Y39471D01*
X202447Y39437D01*
X202347Y39404D01*
X202263Y39370D01*
X202213Y39354D01*
X202204Y39345D01*
X202196D01*
X202062Y39270D01*
X201936Y39186D01*
X201835Y39102D01*
X201752Y39027D01*
X201684Y38951D01*
X201634Y38893D01*
X201601Y38859D01*
X201592Y38842D01*
X201517Y38717D01*
X201450Y38583D01*
X201400Y38440D01*
X201349Y38306D01*
X201316Y38180D01*
X201291Y38088D01*
X201282Y38046D01*
Y38021D01*
X201274Y38004D01*
Y37996D01*
X202296Y37828D01*
X202321Y37962D01*
X202355Y38080D01*
X202388Y38180D01*
X202430Y38256D01*
X202472Y38323D01*
X202506Y38373D01*
X202531Y38398D01*
X202539Y38407D01*
X202615Y38474D01*
X202698Y38524D01*
X202782Y38557D01*
X202858Y38583D01*
X202925Y38599D01*
X202975Y38608D01*
X203025D01*
X203126Y38599D01*
X203226Y38583D01*
X203302Y38549D01*
X203369Y38524D01*
X203428Y38491D01*
X203461Y38457D01*
X203486Y38440D01*
X203495Y38432D01*
X203553Y38365D01*
X203595Y38281D01*
X203629Y38206D01*
X203645Y38130D01*
X203662Y38063D01*
X203671Y38013D01*
Y37979D01*
Y37962D01*
X203662Y37837D01*
X203637Y37728D01*
X203595Y37636D01*
X203553Y37560D01*
X203503Y37493D01*
X203469Y37451D01*
X203436Y37418D01*
X203428Y37409D01*
X203327Y37342D01*
X203218Y37292D01*
X203101Y37259D01*
X202992Y37233D01*
X202891Y37225D01*
X202807Y37217D01*
X202732D01*
X202615Y36320D01*
X202724Y36345D01*
X202816Y36370D01*
X202908Y36387D01*
X202983Y36395D01*
X203042Y36404D01*
X203126D01*
X203243Y36395D01*
X203344Y36362D01*
X203436Y36328D01*
X203520Y36278D01*
X203578Y36236D01*
X203629Y36194D01*
X203662Y36161D01*
X203671Y36152D01*
X203746Y36052D01*
X203805Y35943D01*
X203847Y35834D01*
X203880Y35725D01*
X203897Y35625D01*
X203905Y35549D01*
Y35499D01*
Y35490D01*
Y35482D01*
X203897Y35323D01*
X203872Y35180D01*
X203830Y35055D01*
X203788Y34954D01*
X203738Y34879D01*
X203704Y34820D01*
X203671Y34778D01*
X203662Y34770D01*
X203570Y34686D01*
X203469Y34619D01*
X203377Y34577D01*
X203285Y34543D01*
X203201Y34527D01*
X203143Y34518D01*
X203101Y34510D01*
X203084D01*
X202967Y34518D01*
X202866Y34543D01*
X202774Y34577D01*
X202690Y34619D01*
X202631Y34652D01*
X202581Y34686D01*
X202548Y34711D01*
X202539Y34719D01*
X202464Y34812D01*
X202397Y34912D01*
X202355Y35021D01*
X202313Y35122D01*
X202288Y35214D01*
X202271Y35289D01*
X202263Y35340D01*
Y35348D01*
Y35356D01*
X201190Y35222D01*
X201207Y35088D01*
X201240Y34962D01*
X201316Y34728D01*
X201408Y34527D01*
X201467Y34443D01*
X201517Y34359D01*
X201567Y34284D01*
X201618Y34225D01*
X201659Y34166D01*
X201701Y34124D01*
X201735Y34091D01*
X201760Y34066D01*
X201777Y34049D01*
X201785Y34041D01*
X201886Y33965D01*
X201995Y33890D01*
X202095Y33831D01*
X202213Y33781D01*
X202430Y33697D01*
X202631Y33647D01*
X202732Y33630D01*
X202816Y33613D01*
X202891Y33605D01*
X202958Y33597D01*
X203017Y33588D01*
X203092D01*
X203243Y33597D01*
X203394Y33613D01*
X203528Y33639D01*
X203662Y33672D01*
X203780Y33714D01*
X203897Y33756D01*
X204006Y33806D01*
X204098Y33856D01*
X204182Y33907D01*
X204266Y33957D01*
X204324Y33999D01*
X204383Y34041D01*
X204425Y34074D01*
X204458Y34099D01*
X204475Y34116D01*
X204483Y34124D01*
X204584Y34225D01*
X204668Y34334D01*
X204743Y34443D01*
X204810Y34552D01*
X204861Y34669D01*
X204911Y34778D01*
X204978Y34979D01*
X204995Y35071D01*
X205011Y35164D01*
X205028Y35239D01*
X205036Y35306D01*
X205045Y35356D01*
Y35432D01*
X205028Y35625D01*
X204995Y35792D01*
X204953Y35951D01*
X204894Y36077D01*
X204835Y36186D01*
X204794Y36261D01*
X204760Y36312D01*
X204743Y36328D01*
X204626Y36454D01*
X204492Y36563D01*
X204358Y36647D01*
X204232Y36714D01*
X204123Y36764D01*
X204031Y36789D01*
X203997Y36806D01*
X203972D01*
X203956Y36814D01*
X203947D01*
X204098Y36907D01*
X204224Y36999D01*
X204333Y37099D01*
X204433Y37200D01*
X204517Y37301D01*
X204584Y37401D01*
X204634Y37502D01*
X204685Y37594D01*
X204718Y37686D01*
X204743Y37770D01*
X204760Y37845D01*
X204768Y37912D01*
X204777Y37962D01*
X204785Y38004D01*
Y38030D01*
Y38038D01*
X204777Y38138D01*
X204768Y38231D01*
X204718Y38415D01*
X204659Y38583D01*
X204584Y38725D01*
X204509Y38842D01*
X204442Y38926D01*
X204416Y38960D01*
X204391Y38985D01*
X204383Y38993D01*
X204375Y39002D01*
X204282Y39094D01*
X204173Y39178D01*
X204073Y39245D01*
X203964Y39303D01*
X203847Y39362D01*
X203738Y39404D01*
X203528Y39463D01*
X203436Y39488D01*
X203344Y39505D01*
X203268Y39513D01*
X203193Y39521D01*
X203134Y39530D01*
X205045D01*
D02*
G37*
G36*
X173620Y39421D02*
X170419D01*
X169849Y36395D01*
X170746Y36270D01*
X170821Y36345D01*
X170896Y36412D01*
X170972Y36471D01*
X171047Y36521D01*
X171190Y36597D01*
X171324Y36647D01*
X171441Y36672D01*
X171525Y36689D01*
X171558Y36697D01*
X171609D01*
X171743Y36689D01*
X171869Y36655D01*
X171977Y36613D01*
X172070Y36563D01*
X172137Y36504D01*
X172195Y36463D01*
X172229Y36429D01*
X172237Y36421D01*
X172321Y36312D01*
X172380Y36186D01*
X172422Y36052D01*
X172447Y35918D01*
X172472Y35800D01*
X172480Y35708D01*
Y35666D01*
Y35641D01*
Y35625D01*
Y35616D01*
X172472Y35415D01*
X172447Y35239D01*
X172405Y35097D01*
X172363Y34979D01*
X172313Y34879D01*
X172279Y34812D01*
X172246Y34778D01*
X172237Y34761D01*
X172145Y34669D01*
X172045Y34594D01*
X171944Y34543D01*
X171852Y34510D01*
X171768Y34493D01*
X171701Y34485D01*
X171659Y34477D01*
X171642D01*
X171533Y34485D01*
X171424Y34510D01*
X171332Y34543D01*
X171257Y34585D01*
X171190Y34627D01*
X171139Y34661D01*
X171106Y34686D01*
X171098Y34694D01*
X171022Y34786D01*
X170955Y34879D01*
X170905Y34979D01*
X170871Y35071D01*
X170846Y35155D01*
X170829Y35231D01*
X170821Y35273D01*
Y35289D01*
X169715Y35172D01*
X169740Y35038D01*
X169765Y34912D01*
X169849Y34686D01*
X169941Y34485D01*
X169991Y34401D01*
X170050Y34317D01*
X170100Y34250D01*
X170142Y34192D01*
X170193Y34141D01*
X170226Y34091D01*
X170259Y34058D01*
X170285Y34032D01*
X170301Y34024D01*
X170310Y34016D01*
X170410Y33940D01*
X170511Y33873D01*
X170620Y33814D01*
X170729Y33773D01*
X170955Y33689D01*
X171156Y33639D01*
X171257Y33622D01*
X171341Y33613D01*
X171424Y33605D01*
X171491Y33597D01*
X171550Y33588D01*
X169715D01*
D01*
X173620D01*
X171625D01*
X171810Y33597D01*
X171986Y33622D01*
X172145Y33655D01*
X172296Y33705D01*
X172438Y33764D01*
X172564Y33831D01*
X172681Y33898D01*
X172790Y33974D01*
X172882Y34041D01*
X172966Y34108D01*
X173042Y34175D01*
X173100Y34233D01*
X173142Y34284D01*
X173176Y34317D01*
X173193Y34342D01*
X173201Y34351D01*
X173276Y34460D01*
X173343Y34569D01*
X173394Y34678D01*
X173444Y34795D01*
X173519Y35013D01*
X173570Y35214D01*
X173586Y35298D01*
X173595Y35381D01*
X173611Y35457D01*
Y35524D01*
X173620Y35574D01*
Y35641D01*
X173611Y35800D01*
X173595Y35951D01*
X173570Y36094D01*
X173536Y36228D01*
X173503Y36345D01*
X173452Y36463D01*
X173410Y36571D01*
X173360Y36664D01*
X173310Y36747D01*
X173268Y36823D01*
X173218Y36890D01*
X173184Y36940D01*
X173151Y36982D01*
X173126Y37016D01*
X173109Y37032D01*
X173100Y37041D01*
X173000Y37133D01*
X172899Y37217D01*
X172790Y37292D01*
X172681Y37359D01*
X172581Y37409D01*
X172472Y37451D01*
X172279Y37518D01*
X172187Y37543D01*
X172103Y37560D01*
X172028Y37569D01*
X171969Y37577D01*
X171919Y37585D01*
X171843D01*
X171701Y37577D01*
X171558Y37552D01*
X171433Y37527D01*
X171315Y37493D01*
X171223Y37451D01*
X171148Y37426D01*
X171098Y37401D01*
X171089Y37393D01*
X171081D01*
X171257Y38381D01*
X173360D01*
Y39421D01*
X173620D01*
D02*
G37*
G36*
X94454Y37904D02*
X93340D01*
Y36127D01*
Y35968D01*
Y35826D01*
X93331Y35691D01*
X93323Y35574D01*
Y35465D01*
X93314Y35373D01*
X93306Y35298D01*
X93298Y35222D01*
X93289Y35164D01*
X93281Y35122D01*
X93273Y35080D01*
Y35046D01*
X93256Y35004D01*
Y34996D01*
X93222Y34912D01*
X93172Y34837D01*
X93122Y34778D01*
X93071Y34719D01*
X93021Y34669D01*
X92979Y34636D01*
X92954Y34619D01*
X92946Y34611D01*
X92862Y34560D01*
X92770Y34527D01*
X92686Y34493D01*
X92602Y34476D01*
X92535Y34468D01*
X92485Y34460D01*
X92435D01*
X92342Y34468D01*
X92267Y34476D01*
X92191Y34493D01*
X92133Y34518D01*
X92083Y34535D01*
X92049Y34552D01*
X92024Y34560D01*
X92015Y34569D01*
X91957Y34619D01*
X91915Y34669D01*
X91873Y34719D01*
X91848Y34770D01*
X91823Y34820D01*
X91806Y34854D01*
X91798Y34879D01*
Y34887D01*
X91789Y34929D01*
X91781Y34988D01*
X91773Y35063D01*
X91764Y35138D01*
X91756Y35314D01*
X91747Y35507D01*
X91739Y35683D01*
Y35759D01*
Y35826D01*
Y35884D01*
Y35926D01*
Y35960D01*
Y35968D01*
Y37904D01*
X90624D01*
Y35239D01*
X90633Y35030D01*
X90649Y34845D01*
X90675Y34686D01*
X90700Y34552D01*
X90725Y34443D01*
X90750Y34367D01*
X90767Y34326D01*
X90775Y34309D01*
X90842Y34192D01*
X90918Y34083D01*
X90993Y33999D01*
X91077Y33923D01*
X91144Y33865D01*
X91211Y33823D01*
X91245Y33798D01*
X91261Y33789D01*
X91387Y33731D01*
X91521Y33680D01*
X91647Y33647D01*
X91773Y33630D01*
X91873Y33613D01*
X91948Y33605D01*
X90624D01*
D01*
X94454D01*
Y37904D01*
D02*
G37*
G36*
X193757Y39496D02*
X189777D01*
Y33697D01*
X190950D01*
Y36161D01*
X193372D01*
Y37141D01*
X190950D01*
Y38516D01*
X193757D01*
Y39496D01*
D02*
G37*
G36*
X178288D02*
X174408D01*
Y33697D01*
X175522D01*
Y35038D01*
X176025Y35583D01*
X177089Y33697D01*
X176052D01*
X178288D01*
X176746Y36362D01*
X178187Y37904D01*
X176821D01*
X175522Y36421D01*
Y39496D01*
X178288D01*
D02*
G37*
G36*
X167184Y39530D02*
X167100D01*
X166958Y39521D01*
X166824Y39513D01*
X166564Y39471D01*
X166346Y39404D01*
X166245Y39370D01*
X166153Y39329D01*
X166069Y39295D01*
X166003Y39253D01*
X165935Y39219D01*
X165885Y39194D01*
X165843Y39161D01*
X165818Y39144D01*
X165801Y39136D01*
X165793Y39127D01*
X165701Y39044D01*
X165617Y38960D01*
X165542Y38859D01*
X165474Y38750D01*
X165374Y38532D01*
X165290Y38323D01*
X165265Y38214D01*
X165240Y38122D01*
X165215Y38038D01*
X165206Y37962D01*
X165190Y37896D01*
Y37854D01*
X165181Y37820D01*
Y37812D01*
X166287Y37703D01*
X166304Y37870D01*
X166338Y38013D01*
X166371Y38138D01*
X166413Y38231D01*
X166447Y38306D01*
X166480Y38356D01*
X166505Y38390D01*
X166514Y38398D01*
X166597Y38465D01*
X166690Y38516D01*
X166782Y38557D01*
X166874Y38583D01*
X166949Y38599D01*
X167016Y38608D01*
X167075D01*
X167201Y38599D01*
X167310Y38574D01*
X167402Y38541D01*
X167486Y38507D01*
X167544Y38474D01*
X167595Y38440D01*
X167620Y38415D01*
X167628Y38407D01*
X167695Y38323D01*
X167745Y38231D01*
X167779Y38138D01*
X167804Y38046D01*
X167821Y37962D01*
X167829Y37887D01*
Y37845D01*
Y37837D01*
Y37828D01*
X167821Y37703D01*
X167796Y37585D01*
X167754Y37468D01*
X167712Y37368D01*
X167670Y37275D01*
X167628Y37208D01*
X167603Y37166D01*
X167595Y37150D01*
X167561Y37099D01*
X167511Y37041D01*
X167444Y36965D01*
X167377Y36898D01*
X167226Y36739D01*
X167075Y36580D01*
X166924Y36429D01*
X166857Y36362D01*
X166790Y36312D01*
X166740Y36261D01*
X166706Y36228D01*
X166681Y36203D01*
X166673Y36194D01*
X166505Y36035D01*
X166354Y35884D01*
X166212Y35742D01*
X166086Y35616D01*
X165969Y35490D01*
X165868Y35373D01*
X165776Y35273D01*
X165701Y35172D01*
X165634Y35088D01*
X165575Y35013D01*
X165525Y34954D01*
X165491Y34896D01*
X165458Y34862D01*
X165441Y34828D01*
X165424Y34812D01*
Y34803D01*
X165315Y34611D01*
X165232Y34409D01*
X165164Y34225D01*
X165114Y34058D01*
X165081Y33907D01*
X165072Y33848D01*
X165064Y33798D01*
X165056Y33756D01*
X165047Y33722D01*
Y33697D01*
X168944D01*
Y34812D01*
Y34728D01*
X166732D01*
X166799Y34837D01*
X166874Y34929D01*
X166908Y34971D01*
X166933Y35004D01*
X166949Y35021D01*
X166958Y35030D01*
X166991Y35063D01*
X167025Y35105D01*
X167125Y35197D01*
X167234Y35306D01*
X167343Y35415D01*
X167452Y35516D01*
X167544Y35599D01*
X167578Y35633D01*
X167603Y35658D01*
X167620Y35666D01*
X167628Y35675D01*
X167813Y35851D01*
X167963Y35993D01*
X168089Y36127D01*
X168190Y36228D01*
X168265Y36312D01*
X168315Y36370D01*
X168349Y36412D01*
X168357Y36421D01*
X168466Y36563D01*
X168558Y36697D01*
X168634Y36823D01*
X168693Y36932D01*
X168743Y37024D01*
X168776Y37099D01*
X168793Y37141D01*
X168801Y37158D01*
X168852Y37292D01*
X168885Y37426D01*
X168910Y37552D01*
X168927Y37669D01*
X168936Y37761D01*
X168944Y37837D01*
Y37904D01*
D01*
X168936Y38030D01*
X168919Y38155D01*
X168902Y38273D01*
X168869Y38381D01*
X168785Y38574D01*
X168701Y38742D01*
X168651Y38817D01*
X168609Y38876D01*
X168567Y38935D01*
X168525Y38976D01*
X168491Y39010D01*
X168475Y39044D01*
X168458Y39052D01*
X168449Y39060D01*
X168357Y39144D01*
X168248Y39219D01*
X168148Y39278D01*
X168030Y39329D01*
X167813Y39412D01*
X167595Y39471D01*
X167494Y39488D01*
X167402Y39505D01*
X167318Y39513D01*
X167243Y39521D01*
X167184Y39530D01*
D02*
G37*
G36*
X133647Y39496D02*
X132533D01*
Y33697D01*
X133647D01*
Y39496D01*
D02*
G37*
G36*
X184598Y33697D02*
Y32096D01*
X189224D01*
Y32817D01*
X184598D01*
Y33697D01*
D02*
G37*
G36*
X160262Y33697D02*
Y32096D01*
X164888Y32096D01*
Y32817D01*
X160262Y32817D01*
Y33697D01*
D02*
G37*
G36*
X116116D02*
Y32096D01*
X120742D01*
Y32817D01*
X116116D01*
Y33697D01*
D02*
G37*
G36*
X98996Y33697D02*
Y32096D01*
X103622D01*
Y32817D01*
X98996D01*
Y33697D01*
D02*
G37*
G36*
X159387Y30920D02*
Y27233D01*
X158666D01*
Y30920D01*
X157727D01*
X155213Y27224D01*
Y26261D01*
X157593D01*
Y25096D01*
X155213D01*
X159387D01*
Y30920D01*
D02*
G37*
G36*
X145719Y29395D02*
Y27107D01*
X145702Y27317D01*
X145677Y27518D01*
X145643Y27702D01*
X145601Y27878D01*
X145560Y28029D01*
X145509Y28171D01*
X145459Y28297D01*
X145409Y28406D01*
X145358Y28506D01*
X145317Y28582D01*
X145275Y28649D01*
X145241Y28699D01*
X145216Y28741D01*
X145199Y28758D01*
X145191Y28766D01*
X145090Y28875D01*
X144973Y28976D01*
X144856Y29060D01*
X144738Y29127D01*
X144613Y29194D01*
X144487Y29244D01*
X144369Y29286D01*
X144252Y29319D01*
X144143Y29344D01*
X144043Y29361D01*
X143950Y29378D01*
X143875Y29386D01*
X143808Y29395D01*
X143716D01*
X143565Y29386D01*
X143423Y29370D01*
X143280Y29336D01*
X143154Y29303D01*
X143029Y29261D01*
X142920Y29210D01*
X142811Y29152D01*
X142719Y29101D01*
X142635Y29043D01*
X142559Y28984D01*
X142492Y28934D01*
X142442Y28892D01*
X142400Y28859D01*
X142367Y28825D01*
X142350Y28808D01*
X142342Y28800D01*
X142249Y28683D01*
X142166Y28557D01*
X142090Y28431D01*
X142023Y28297D01*
X141973Y28155D01*
X141931Y28021D01*
X141864Y27761D01*
X141839Y27635D01*
X141822Y27526D01*
X141814Y27426D01*
X141805Y27342D01*
X141797Y27266D01*
Y25004D01*
X145719D01*
Y29395D01*
D02*
G37*
G36*
X150445Y29303D02*
X149305D01*
X148501Y27149D01*
X148451Y27023D01*
X148417Y26906D01*
X148400Y26864D01*
X148392Y26831D01*
X148383Y26805D01*
Y26797D01*
X148375Y26755D01*
X148358Y26705D01*
X148317Y26579D01*
X148300Y26529D01*
X148283Y26479D01*
X148275Y26445D01*
X148266Y26437D01*
X148040Y27149D01*
X147244Y29303D01*
X146079D01*
X147772Y25096D01*
X146079D01*
D01*
X150445D01*
D01*
X148777D01*
X150445Y29303D01*
D02*
G37*
G36*
X138897Y30895D02*
X136283D01*
Y25096D01*
X137456D01*
Y27518D01*
X137833D01*
X137950Y27509D01*
X138051Y27501D01*
X138135Y27484D01*
X138202Y27476D01*
X138244Y27459D01*
X138269Y27451D01*
X138277D01*
X138344Y27417D01*
X138411Y27384D01*
X138470Y27342D01*
X138529Y27308D01*
X138571Y27266D01*
X138604Y27233D01*
X138621Y27216D01*
X138629Y27208D01*
X138663Y27166D01*
X138705Y27124D01*
X138797Y26998D01*
X138897Y26864D01*
X139006Y26713D01*
X139099Y26579D01*
X139140Y26512D01*
X139174Y26462D01*
X139207Y26420D01*
X139233Y26386D01*
X139241Y26361D01*
X139249Y26353D01*
X140087Y25096D01*
X137702D01*
X141495D01*
X140783Y26227D01*
X140708Y26344D01*
X140632Y26462D01*
X140565Y26562D01*
X140498Y26655D01*
X140439Y26738D01*
X140389Y26822D01*
X140288Y26948D01*
X140213Y27048D01*
X140163Y27115D01*
X140121Y27157D01*
X140112Y27166D01*
X140020Y27266D01*
X139911Y27358D01*
X139811Y27434D01*
X139710Y27509D01*
X139626Y27568D01*
X139559Y27610D01*
X139509Y27643D01*
X139501Y27652D01*
X139492D01*
X139635Y27677D01*
X139760Y27710D01*
X139878Y27744D01*
X139995Y27786D01*
X140096Y27828D01*
X140188Y27870D01*
X140280Y27912D01*
X140356Y27962D01*
X140422Y28004D01*
X140481Y28046D01*
X140532Y28087D01*
X140565Y28121D01*
X140598Y28146D01*
X140624Y28171D01*
X140632Y28180D01*
X140640Y28188D01*
X140708Y28272D01*
X140766Y28356D01*
X140867Y28540D01*
X140934Y28716D01*
X140976Y28892D01*
X141009Y29043D01*
X141017Y29101D01*
Y29160D01*
X141026Y29202D01*
Y29244D01*
Y29261D01*
Y29269D01*
X141017Y29454D01*
X140984Y29629D01*
X140942Y29780D01*
X140900Y29914D01*
X140850Y30023D01*
X140808Y30107D01*
X140791Y30132D01*
X140775Y30157D01*
X140766Y30166D01*
Y30174D01*
X140666Y30317D01*
X140557Y30434D01*
X140448Y30526D01*
X140339Y30610D01*
X140238Y30660D01*
X140163Y30702D01*
X140112Y30727D01*
X140104Y30736D01*
X140096D01*
X140012Y30761D01*
X139920Y30786D01*
X139710Y30828D01*
X139484Y30853D01*
X139266Y30878D01*
X139157D01*
X139065Y30887D01*
X138973D01*
X138897Y30895D01*
D02*
G37*
G36*
X152858Y30928D02*
X152775D01*
X152624Y30920D01*
X152481Y30903D01*
X152339Y30870D01*
X152213Y30836D01*
X152096Y30786D01*
X151987Y30736D01*
X151895Y30685D01*
X151803Y30627D01*
X151727Y30568D01*
X151652Y30518D01*
X151593Y30468D01*
X151551Y30417D01*
X151509Y30384D01*
X151484Y30350D01*
X151467Y30333D01*
X151459Y30325D01*
X151358Y30182D01*
X151275Y30015D01*
X151199Y29839D01*
X151132Y29655D01*
X151082Y29462D01*
X151032Y29261D01*
X150998Y29068D01*
X150965Y28875D01*
X150948Y28691D01*
X150931Y28523D01*
X150914Y28364D01*
X150906Y28230D01*
X150898Y28121D01*
Y24987D01*
X154660D01*
X152775D01*
X152926Y24995D01*
X153068Y25012D01*
X153210Y25046D01*
X153336Y25079D01*
X153453Y25121D01*
X153562Y25171D01*
X153655Y25230D01*
X153747Y25289D01*
X153822Y25339D01*
X153898Y25398D01*
X153956Y25448D01*
X154007Y25490D01*
X154040Y25523D01*
X154065Y25557D01*
X154082Y25574D01*
X154090Y25582D01*
X154191Y25724D01*
X154275Y25892D01*
X154358Y26068D01*
X154417Y26261D01*
X154476Y26453D01*
X154518Y26646D01*
X154560Y26847D01*
X154593Y27040D01*
X154610Y27224D01*
X154627Y27392D01*
X154643Y27551D01*
X154652Y27685D01*
X154660Y27794D01*
Y27953D01*
X154652Y28255D01*
X154635Y28532D01*
X154610Y28783D01*
X154568Y29018D01*
X154526Y29236D01*
X154484Y29428D01*
X154426Y29604D01*
X154375Y29755D01*
X154325Y29898D01*
X154275Y30007D01*
X154224Y30107D01*
X154183Y30191D01*
X154141Y30250D01*
X154115Y30292D01*
X154099Y30317D01*
X154090Y30325D01*
X153998Y30434D01*
X153898Y30526D01*
X153789Y30602D01*
X153680Y30677D01*
X153571Y30736D01*
X153462Y30777D01*
X153361Y30819D01*
X153252Y30853D01*
X153152Y30878D01*
X153068Y30895D01*
X152984Y30912D01*
X152917Y30920D01*
X152858Y30928D01*
D02*
G37*
G36*
X114319Y23827D02*
X114218D01*
X113975Y23819D01*
X113757Y23794D01*
X113565Y23760D01*
X113397Y23727D01*
X113322Y23701D01*
X113255Y23685D01*
X113204Y23668D01*
X113154Y23651D01*
X113120Y23634D01*
X113095Y23626D01*
X113079Y23618D01*
X113070D01*
X112903Y23534D01*
X112760Y23442D01*
X112635Y23341D01*
X112534Y23249D01*
X112450Y23165D01*
X112400Y23098D01*
X112358Y23048D01*
X112349Y23039D01*
Y23031D01*
X112266Y22889D01*
X112207Y22738D01*
X112165Y22595D01*
X112140Y22470D01*
X112123Y22361D01*
X112107Y22277D01*
Y22243D01*
Y22218D01*
Y22210D01*
Y22201D01*
X112115Y22076D01*
X112132Y21950D01*
X112157Y21841D01*
X112190Y21732D01*
X112274Y21531D01*
X112375Y21355D01*
X112417Y21280D01*
X112467Y21221D01*
X112509Y21162D01*
X112551Y21112D01*
X112584Y21079D01*
X112609Y21053D01*
X112626Y21037D01*
X112635Y21028D01*
X112710Y20970D01*
X112802Y20911D01*
X112894Y20852D01*
X113003Y20802D01*
X113213Y20701D01*
X113431Y20618D01*
X113540Y20584D01*
X113632Y20551D01*
X113724Y20525D01*
X113799Y20500D01*
X113858Y20483D01*
X113908Y20467D01*
X113942Y20458D01*
X113950D01*
X114084Y20425D01*
X114201Y20391D01*
X114311Y20366D01*
X114411Y20341D01*
X114495Y20316D01*
X114570Y20299D01*
X114637Y20274D01*
X114696Y20257D01*
X114746Y20249D01*
X114788Y20232D01*
X114847Y20215D01*
X114880Y20199D01*
X114889D01*
X114998Y20157D01*
X115081Y20115D01*
X115157Y20073D01*
X115216Y20031D01*
X115257Y19997D01*
X115282Y19972D01*
X115299Y19956D01*
X115308Y19947D01*
X115350Y19889D01*
X115383Y19830D01*
X115400Y19771D01*
X115417Y19721D01*
X115425Y19671D01*
X115433Y19629D01*
Y19604D01*
Y19595D01*
X115425Y19478D01*
X115392Y19377D01*
X115341Y19277D01*
X115291Y19193D01*
X115232Y19126D01*
X115190Y19076D01*
X115157Y19042D01*
X115140Y19034D01*
X115023Y18958D01*
X114889Y18900D01*
X114746Y18858D01*
X114612Y18833D01*
X114486Y18816D01*
X114386Y18799D01*
X114294D01*
X114101Y18808D01*
X113933Y18841D01*
X113791Y18883D01*
X113665Y18933D01*
X113565Y18983D01*
X113498Y19025D01*
X113456Y19059D01*
X113439Y19067D01*
X113330Y19185D01*
X113246Y19310D01*
X113171Y19453D01*
X113120Y19595D01*
X113079Y19721D01*
X113045Y19821D01*
X113037Y19855D01*
Y19889D01*
X113028Y19905D01*
Y19914D01*
X111889Y19805D01*
X111914Y19629D01*
X111947Y19461D01*
X111998Y19302D01*
X112039Y19160D01*
X112098Y19025D01*
X112157Y18900D01*
X112215Y18791D01*
X112274Y18690D01*
X112333Y18606D01*
X112391Y18531D01*
X112442Y18464D01*
X112492Y18405D01*
X112525Y18363D01*
X112559Y18338D01*
X112576Y18322D01*
X112584Y18313D01*
X112701Y18221D01*
X112827Y18146D01*
X112961Y18079D01*
X113104Y18020D01*
X113238Y17978D01*
X113380Y17936D01*
X113657Y17877D01*
X113783Y17852D01*
X113900Y17835D01*
X114000Y17827D01*
X114093Y17819D01*
X114168Y17810D01*
X111889D01*
D01*
X116607D01*
D01*
X114277D01*
X114545Y17819D01*
X114788Y17844D01*
X115006Y17877D01*
X115098Y17894D01*
X115190Y17919D01*
X115266Y17936D01*
X115333Y17953D01*
X115392Y17969D01*
X115442Y17986D01*
X115484Y18003D01*
X115509Y18011D01*
X115526Y18020D01*
X115534D01*
X115718Y18112D01*
X115869Y18213D01*
X116012Y18313D01*
X116121Y18422D01*
X116204Y18514D01*
X116271Y18598D01*
X116305Y18648D01*
X116322Y18657D01*
Y18665D01*
X116414Y18833D01*
X116489Y18992D01*
X116540Y19151D01*
X116573Y19302D01*
X116590Y19419D01*
X116598Y19478D01*
X116607Y19520D01*
Y19604D01*
X116598Y19805D01*
X116573Y19981D01*
X116531Y20140D01*
X116489Y20274D01*
X116447Y20383D01*
X116405Y20458D01*
X116380Y20509D01*
X116372Y20525D01*
X116280Y20660D01*
X116171Y20777D01*
X116062Y20877D01*
X115961Y20961D01*
X115869Y21028D01*
X115794Y21079D01*
X115743Y21112D01*
X115735Y21120D01*
X115727D01*
X115643Y21162D01*
X115559Y21204D01*
X115358Y21280D01*
X115148Y21347D01*
X114947Y21414D01*
X114855Y21439D01*
X114763Y21464D01*
X114679Y21489D01*
X114612Y21506D01*
X114553Y21523D01*
X114512Y21531D01*
X114478Y21539D01*
X114470D01*
X114319Y21581D01*
X114185Y21615D01*
X114059Y21648D01*
X113942Y21682D01*
X113850Y21715D01*
X113757Y21749D01*
X113682Y21782D01*
X113615Y21808D01*
X113556Y21833D01*
X113514Y21858D01*
X113472Y21875D01*
X113447Y21891D01*
X113405Y21916D01*
X113397Y21925D01*
X113338Y21983D01*
X113296Y22042D01*
X113271Y22101D01*
X113255Y22160D01*
X113238Y22201D01*
X113229Y22243D01*
Y22268D01*
Y22277D01*
X113238Y22361D01*
X113255Y22428D01*
X113288Y22495D01*
X113322Y22545D01*
X113355Y22587D01*
X113389Y22612D01*
X113405Y22629D01*
X113414Y22637D01*
X113531Y22713D01*
X113657Y22763D01*
X113791Y22805D01*
X113917Y22830D01*
X114025Y22847D01*
X114118Y22855D01*
X114201D01*
X114377Y22847D01*
X114528Y22821D01*
X114654Y22788D01*
X114755Y22754D01*
X114838Y22721D01*
X114897Y22688D01*
X114931Y22662D01*
X114939Y22654D01*
X115023Y22570D01*
X115098Y22470D01*
X115157Y22369D01*
X115199Y22260D01*
X115232Y22168D01*
X115249Y22093D01*
X115266Y22034D01*
Y22026D01*
Y22017D01*
X116439Y22059D01*
X116431Y22210D01*
X116405Y22344D01*
X116372Y22478D01*
X116330Y22595D01*
X116288Y22713D01*
X116238Y22821D01*
X116188Y22914D01*
X116137Y23006D01*
X116079Y23081D01*
X116028Y23148D01*
X115978Y23207D01*
X115936Y23257D01*
X115903Y23291D01*
X115877Y23316D01*
X115861Y23333D01*
X115852Y23341D01*
X115743Y23425D01*
X115626Y23500D01*
X115500Y23567D01*
X115366Y23626D01*
X115232Y23668D01*
X115098Y23710D01*
X114830Y23768D01*
X114704Y23785D01*
X114595Y23802D01*
X114486Y23810D01*
X114394Y23819D01*
X114319Y23827D01*
D02*
G37*
G36*
X183110Y22218D02*
X183043D01*
X182943Y22210D01*
X182859Y22201D01*
X182775Y22176D01*
X182708Y22151D01*
X182649Y22126D01*
X182599Y22109D01*
X182574Y22093D01*
X182566Y22084D01*
X182482Y22026D01*
X182406Y21942D01*
X182323Y21849D01*
X182255Y21757D01*
X182188Y21665D01*
X182138Y21590D01*
X182105Y21539D01*
X182096Y21531D01*
Y22126D01*
X181065D01*
Y17919D01*
X183781D01*
D01*
X182180D01*
Y19210D01*
Y19402D01*
Y19579D01*
X182188Y19738D01*
X182197Y19880D01*
Y20014D01*
X182205Y20123D01*
X182214Y20232D01*
X182222Y20316D01*
X182230Y20391D01*
X182239Y20458D01*
X182247Y20509D01*
Y20551D01*
X182255Y20576D01*
X182264Y20601D01*
Y20618D01*
X182297Y20735D01*
X182339Y20835D01*
X182381Y20919D01*
X182423Y20978D01*
X182457Y21028D01*
X182490Y21062D01*
X182507Y21079D01*
X182515Y21087D01*
X182582Y21129D01*
X182649Y21162D01*
X182716Y21188D01*
X182775Y21204D01*
X182825Y21213D01*
X182876Y21221D01*
X182909D01*
X183001Y21213D01*
X183094Y21196D01*
X183177Y21162D01*
X183261Y21129D01*
X183328Y21095D01*
X183378Y21062D01*
X183420Y21045D01*
X183429Y21037D01*
X183781Y22000D01*
X183647Y22076D01*
X183521Y22126D01*
X183395Y22168D01*
X183278Y22193D01*
X183186Y22210D01*
X183110Y22218D01*
D02*
G37*
G36*
X170498D02*
X170431D01*
X170331Y22210D01*
X170247Y22201D01*
X170163Y22176D01*
X170096Y22151D01*
X170037Y22126D01*
X169987Y22109D01*
X169962Y22093D01*
X169954Y22084D01*
X169870Y22026D01*
X169794Y21942D01*
X169711Y21849D01*
X169644Y21757D01*
X169577Y21665D01*
X169526Y21590D01*
X169493Y21539D01*
X169484Y21531D01*
Y22126D01*
X168454D01*
Y17919D01*
X171169D01*
D01*
X169568D01*
Y19210D01*
Y19402D01*
Y19579D01*
X169577Y19738D01*
X169585Y19880D01*
Y20014D01*
X169593Y20123D01*
X169602Y20232D01*
X169610Y20316D01*
X169618Y20391D01*
X169627Y20458D01*
X169635Y20509D01*
Y20551D01*
X169644Y20576D01*
X169652Y20601D01*
Y20618D01*
X169685Y20735D01*
X169727Y20835D01*
X169769Y20919D01*
X169811Y20978D01*
X169845Y21028D01*
X169878Y21062D01*
X169895Y21079D01*
X169903Y21087D01*
X169970Y21129D01*
X170037Y21162D01*
X170105Y21188D01*
X170163Y21204D01*
X170213Y21213D01*
X170264Y21221D01*
X170297D01*
X170389Y21213D01*
X170482Y21196D01*
X170565Y21162D01*
X170649Y21129D01*
X170716Y21095D01*
X170766Y21062D01*
X170808Y21045D01*
X170817Y21037D01*
X171169Y22000D01*
X171035Y22076D01*
X170909Y22126D01*
X170783Y22168D01*
X170666Y22193D01*
X170574Y22210D01*
X170498Y22218D01*
D02*
G37*
G36*
X134012Y22218D02*
X133945D01*
X133844Y22210D01*
X133760Y22201D01*
X133677Y22176D01*
X133610Y22151D01*
X133551Y22126D01*
X133501Y22109D01*
X133475Y22093D01*
X133467Y22084D01*
X133383Y22026D01*
X133308Y21942D01*
X133224Y21849D01*
X133157Y21757D01*
X133090Y21665D01*
X133040Y21590D01*
X133006Y21539D01*
X132998Y21531D01*
Y22126D01*
X131967D01*
Y17919D01*
X134682D01*
D01*
X133082D01*
Y19210D01*
Y19402D01*
Y19579D01*
X133090Y19738D01*
X133098Y19880D01*
Y20014D01*
X133107Y20123D01*
X133115Y20232D01*
X133124Y20316D01*
X133132Y20391D01*
X133140Y20458D01*
X133149Y20509D01*
Y20551D01*
X133157Y20576D01*
X133166Y20601D01*
Y20618D01*
X133199Y20735D01*
X133241Y20835D01*
X133283Y20919D01*
X133325Y20978D01*
X133358Y21028D01*
X133392Y21062D01*
X133408Y21079D01*
X133417Y21087D01*
X133484Y21129D01*
X133551Y21162D01*
X133618Y21188D01*
X133677Y21204D01*
X133727Y21213D01*
X133777Y21221D01*
X133811D01*
X133903Y21213D01*
X133995Y21196D01*
X134079Y21162D01*
X134163Y21129D01*
X134230Y21095D01*
X134280Y21062D01*
X134322Y21045D01*
X134330Y21037D01*
X134682Y22000D01*
X134548Y22076D01*
X134423Y22126D01*
X134297Y22168D01*
X134179Y22193D01*
X134087Y22210D01*
X134012Y22218D01*
D02*
G37*
G36*
X174110Y22218D02*
X174051D01*
X173901Y22210D01*
X173750Y22185D01*
X173616Y22151D01*
X173482Y22109D01*
X173356Y22051D01*
X173247Y21992D01*
X173138Y21925D01*
X173046Y21866D01*
X172962Y21799D01*
X172887Y21732D01*
X172820Y21674D01*
X172769Y21615D01*
X172727Y21573D01*
X172694Y21539D01*
X172677Y21514D01*
X172669Y21506D01*
Y22126D01*
X171638D01*
Y17919D01*
X172753D01*
Y19813D01*
Y19939D01*
Y20056D01*
X172761Y20165D01*
X172769Y20257D01*
Y20349D01*
X172778Y20425D01*
X172786Y20500D01*
X172794Y20559D01*
X172811Y20660D01*
X172820Y20727D01*
X172836Y20768D01*
Y20777D01*
X172870Y20869D01*
X172920Y20961D01*
X172970Y21028D01*
X173021Y21095D01*
X173071Y21137D01*
X173113Y21179D01*
X173138Y21196D01*
X173146Y21204D01*
X173239Y21254D01*
X173331Y21296D01*
X173415Y21321D01*
X173498Y21347D01*
X173565Y21355D01*
X173616Y21363D01*
X173666D01*
X173750Y21355D01*
X173825Y21347D01*
X173884Y21330D01*
X173942Y21305D01*
X173993Y21280D01*
X174026Y21263D01*
X174043Y21254D01*
X174051Y21246D01*
X174110Y21204D01*
X174152Y21154D01*
X174227Y21053D01*
X174253Y21003D01*
X174269Y20970D01*
X174286Y20944D01*
Y20936D01*
X174303Y20894D01*
X174311Y20844D01*
X174328Y20718D01*
X174345Y20567D01*
X174353Y20425D01*
X174362Y20282D01*
Y20224D01*
Y20165D01*
Y20123D01*
Y20090D01*
Y20064D01*
Y20056D01*
Y17919D01*
X173557D01*
X175476D01*
Y20701D01*
X175468Y20844D01*
X175459Y20978D01*
X175443Y21079D01*
X175434Y21162D01*
X175417Y21221D01*
X175409Y21263D01*
Y21271D01*
X175384Y21372D01*
X175350Y21456D01*
X175317Y21539D01*
X175275Y21607D01*
X175241Y21665D01*
X175216Y21707D01*
X175199Y21732D01*
X175191Y21741D01*
X175124Y21816D01*
X175049Y21883D01*
X174973Y21942D01*
X174898Y21992D01*
X174831Y22034D01*
X174772Y22059D01*
X174739Y22076D01*
X174722Y22084D01*
X174605Y22126D01*
X174487Y22160D01*
X174378Y22185D01*
X174278Y22201D01*
X174186Y22210D01*
X174110Y22218D01*
D02*
G37*
G36*
X157836Y23718D02*
X156663D01*
Y21439D01*
X154375D01*
Y23718D01*
X155519D01*
X153202D01*
Y17919D01*
X154375D01*
Y20458D01*
X156663D01*
Y17919D01*
X155519D01*
X157836D01*
Y23718D01*
D02*
G37*
G36*
X180202Y22218D02*
Y19930D01*
X180186Y20140D01*
X180160Y20341D01*
X180127Y20525D01*
X180085Y20701D01*
X180043Y20852D01*
X179993Y20995D01*
X179943Y21120D01*
X179892Y21229D01*
X179842Y21330D01*
X179800Y21405D01*
X179758Y21472D01*
X179725Y21523D01*
X179700Y21565D01*
X179683Y21581D01*
X179674Y21590D01*
X179574Y21699D01*
X179457Y21799D01*
X179339Y21883D01*
X179222Y21950D01*
X179096Y22017D01*
X178971Y22067D01*
X178853Y22109D01*
X178736Y22143D01*
X178627Y22168D01*
X178526Y22185D01*
X178434Y22201D01*
X178359Y22210D01*
X178292Y22218D01*
X178200D01*
X178049Y22210D01*
X177906Y22193D01*
X177764Y22160D01*
X177638Y22126D01*
X177512Y22084D01*
X177403Y22034D01*
X177295Y21975D01*
X177202Y21925D01*
X177119Y21866D01*
X177043Y21808D01*
X176976Y21757D01*
X176926Y21715D01*
X176884Y21682D01*
X176850Y21648D01*
X176834Y21632D01*
X176825Y21623D01*
X176733Y21506D01*
X176649Y21380D01*
X176574Y21254D01*
X176507Y21120D01*
X176456Y20978D01*
X176415Y20844D01*
X176348Y20584D01*
X176322Y20458D01*
X176306Y20349D01*
X176297Y20249D01*
X176289Y20165D01*
X176281Y20090D01*
Y17827D01*
X180202D01*
Y22218D01*
D02*
G37*
G36*
X167590D02*
Y19930D01*
X167574Y20140D01*
X167549Y20341D01*
X167515Y20525D01*
X167473Y20701D01*
X167431Y20852D01*
X167381Y20995D01*
X167331Y21120D01*
X167280Y21229D01*
X167230Y21330D01*
X167188Y21405D01*
X167146Y21472D01*
X167113Y21523D01*
X167088Y21565D01*
X167071Y21581D01*
X167063Y21590D01*
X166962Y21699D01*
X166845Y21799D01*
X166727Y21883D01*
X166610Y21950D01*
X166484Y22017D01*
X166359Y22067D01*
X166241Y22109D01*
X166124Y22143D01*
X166015Y22168D01*
X165914Y22185D01*
X165822Y22201D01*
X165747Y22210D01*
X165680Y22218D01*
X165588D01*
X165437Y22210D01*
X165294Y22193D01*
X165152Y22160D01*
X165026Y22126D01*
X164901Y22084D01*
X164792Y22034D01*
X164683Y21975D01*
X164591Y21925D01*
X164507Y21866D01*
X164431Y21808D01*
X164364Y21757D01*
X164314Y21715D01*
X164272Y21682D01*
X164239Y21648D01*
X164222Y21632D01*
X164213Y21623D01*
X164121Y21506D01*
X164037Y21380D01*
X163962Y21254D01*
X163895Y21120D01*
X163845Y20978D01*
X163803Y20844D01*
X163736Y20584D01*
X163711Y20458D01*
X163694Y20349D01*
X163685Y20249D01*
X163677Y20165D01*
X163669Y20090D01*
Y17827D01*
X167590D01*
Y22218D01*
D02*
G37*
G36*
X147504Y23718D02*
X145744D01*
X144713Y19755D01*
X143674Y23718D01*
X141923D01*
Y17919D01*
X143704D01*
X143004D01*
Y22478D01*
X144143Y17919D01*
X145275D01*
X146414Y22478D01*
X146423Y17919D01*
X147504D01*
Y23718D01*
D02*
G37*
G36*
X149791Y19034D02*
X148677D01*
Y17919D01*
X149791D01*
Y19034D01*
D02*
G37*
G36*
X139006Y23718D02*
X135126D01*
Y17919D01*
X136241D01*
Y19260D01*
X136744Y19805D01*
X137808Y17919D01*
X136771D01*
X139006D01*
X137464Y20584D01*
X138906Y22126D01*
X137540D01*
X136241Y20643D01*
Y23718D01*
X139006D01*
D02*
G37*
G36*
X129269Y22218D02*
X128992D01*
X128858Y22201D01*
X128724Y22193D01*
X128607Y22168D01*
X128489Y22151D01*
X128389Y22126D01*
X128297Y22093D01*
X128213Y22067D01*
X128146Y22042D01*
X128079Y22009D01*
X128029Y21983D01*
X127978Y21967D01*
X127945Y21942D01*
X127920Y21933D01*
X127911Y21916D01*
X127903D01*
X127760Y21791D01*
X127643Y21648D01*
X127542Y21497D01*
X127459Y21355D01*
X127400Y21221D01*
X127375Y21162D01*
X127358Y21112D01*
X127341Y21070D01*
X127333Y21037D01*
X127325Y21020D01*
Y21012D01*
X128322Y20827D01*
X128364Y20928D01*
X128406Y21012D01*
X128447Y21087D01*
X128498Y21146D01*
X128531Y21188D01*
X128565Y21213D01*
X128582Y21229D01*
X128590Y21238D01*
X128657Y21280D01*
X128732Y21313D01*
X128816Y21330D01*
X128892Y21347D01*
X128959Y21355D01*
X129009Y21363D01*
X129059D01*
X129210Y21355D01*
X129336Y21338D01*
X129436Y21321D01*
X129520Y21296D01*
X129579Y21263D01*
X129621Y21246D01*
X129646Y21229D01*
X129654Y21221D01*
X129713Y21162D01*
X129755Y21095D01*
X129780Y21020D01*
X129805Y20944D01*
X129814Y20869D01*
X129822Y20810D01*
Y20777D01*
Y20760D01*
Y20651D01*
X129763Y20626D01*
X129688Y20601D01*
X129528Y20551D01*
X129344Y20509D01*
X129168Y20467D01*
X129001Y20425D01*
X128925Y20408D01*
X128858Y20400D01*
X128808Y20391D01*
X128766Y20383D01*
X128741Y20375D01*
X128732D01*
X128531Y20333D01*
X128347Y20291D01*
X128196Y20249D01*
X128070Y20207D01*
X127970Y20165D01*
X127903Y20140D01*
X127861Y20123D01*
X127844Y20115D01*
X127735Y20056D01*
X127643Y19989D01*
X127559Y19914D01*
X127501Y19847D01*
X127442Y19788D01*
X127408Y19738D01*
X127383Y19704D01*
X127375Y19687D01*
X127316Y19579D01*
X127274Y19470D01*
X127249Y19369D01*
X127232Y19268D01*
X127216Y19185D01*
X127207Y19118D01*
Y17827D01*
X131154D01*
X128598D01*
X128732Y17835D01*
X128867Y17852D01*
X128984Y17869D01*
X129084Y17894D01*
X129168Y17919D01*
X129235Y17944D01*
X129277Y17953D01*
X129294Y17961D01*
X129411Y18020D01*
X129528Y18079D01*
X129629Y18154D01*
X129721Y18221D01*
X129797Y18280D01*
X129855Y18330D01*
X129889Y18363D01*
X129906Y18372D01*
X129914Y18338D01*
X129931Y18296D01*
X129939Y18263D01*
X129947Y18254D01*
Y18246D01*
X129973Y18171D01*
X129989Y18104D01*
X130006Y18045D01*
X130023Y18003D01*
X130040Y17969D01*
X130048Y17936D01*
X130057Y17928D01*
Y17919D01*
X131154D01*
X131104Y18028D01*
X131062Y18129D01*
X131029Y18221D01*
X130995Y18305D01*
X130978Y18372D01*
X130962Y18430D01*
X130953Y18464D01*
Y18472D01*
X130936Y18581D01*
X130928Y18715D01*
X130911Y18849D01*
Y18983D01*
X130903Y19101D01*
Y19201D01*
Y19243D01*
Y19268D01*
Y19285D01*
Y19294D01*
X130920Y20593D01*
Y20727D01*
X130911Y20844D01*
X130903Y20953D01*
X130894Y21053D01*
X130886Y21146D01*
X130869Y21229D01*
X130861Y21305D01*
X130844Y21363D01*
X130827Y21422D01*
X130819Y21464D01*
X130794Y21539D01*
X130777Y21573D01*
X130769Y21590D01*
X130702Y21682D01*
X130626Y21774D01*
X130543Y21849D01*
X130450Y21916D01*
X130375Y21967D01*
X130308Y22000D01*
X130266Y22026D01*
X130258Y22034D01*
X130249D01*
X130174Y22067D01*
X130098Y22093D01*
X129922Y22143D01*
X129738Y22176D01*
X129562Y22193D01*
X129394Y22210D01*
X129327D01*
X129269Y22218D01*
D02*
G37*
G36*
X124249Y23718D02*
X122112D01*
Y17919D01*
X123285D01*
Y20106D01*
X124325D01*
X124450Y20115D01*
X124568D01*
X124677Y20123D01*
X124777Y20132D01*
X124869Y20140D01*
X124945Y20148D01*
X125020D01*
X125079Y20157D01*
X125137Y20165D01*
X125179Y20174D01*
X125213D01*
X125238Y20182D01*
X125255D01*
X125372Y20215D01*
X125481Y20257D01*
X125582Y20299D01*
X125674Y20349D01*
X125749Y20391D01*
X125808Y20425D01*
X125841Y20450D01*
X125858Y20458D01*
X125967Y20542D01*
X126059Y20634D01*
X126151Y20735D01*
X126218Y20819D01*
X126277Y20902D01*
X126319Y20970D01*
X126344Y21012D01*
X126353Y21028D01*
X126420Y21171D01*
X126470Y21321D01*
X126503Y21481D01*
X126529Y21623D01*
X126545Y21741D01*
Y21799D01*
X126554Y21841D01*
Y21933D01*
X126537Y22176D01*
X126503Y22402D01*
X126445Y22587D01*
X126386Y22754D01*
X126353Y22821D01*
X126319Y22880D01*
X126294Y22930D01*
X126260Y22981D01*
X126244Y23014D01*
X126227Y23039D01*
X126210Y23048D01*
Y23056D01*
X126076Y23207D01*
X125942Y23333D01*
X125799Y23433D01*
X125674Y23509D01*
X125556Y23559D01*
X125464Y23601D01*
X125431Y23609D01*
X125406Y23618D01*
X125389Y23626D01*
X125380D01*
X125313Y23643D01*
X125230Y23660D01*
X125129Y23668D01*
X125029Y23676D01*
X124794Y23693D01*
X124559Y23710D01*
X124341D01*
X124249Y23718D01*
D02*
G37*
G36*
X118702Y19034D02*
X117587D01*
Y17919D01*
X118702D01*
Y19034D01*
D02*
G37*
G36*
X161037Y22218D02*
X160945D01*
X160719Y22210D01*
X160509Y22176D01*
X160317Y22134D01*
X160149Y22084D01*
X160082Y22051D01*
X160015Y22026D01*
X159956Y22009D01*
X159914Y21983D01*
X159872Y21967D01*
X159847Y21950D01*
X159831Y21942D01*
X159822D01*
X159646Y21824D01*
X159495Y21699D01*
X159361Y21565D01*
X159252Y21439D01*
X159169Y21321D01*
X159102Y21229D01*
X159076Y21196D01*
X159068Y21171D01*
X159051Y21154D01*
Y21146D01*
X158959Y20953D01*
X158900Y20760D01*
X158850Y20584D01*
X158817Y20425D01*
X158800Y20282D01*
X158791Y20224D01*
Y20174D01*
X158783Y20140D01*
Y20081D01*
X158791Y19821D01*
X158825Y19579D01*
X158867Y19369D01*
X158892Y19277D01*
X158917Y19193D01*
X158942Y19118D01*
X158967Y19051D01*
X158993Y18992D01*
X159009Y18942D01*
X159026Y18900D01*
X159043Y18875D01*
X159051Y18858D01*
Y18849D01*
X159169Y18673D01*
X159294Y18523D01*
X159428Y18388D01*
X159554Y18280D01*
X159671Y18196D01*
X159764Y18137D01*
X159797Y18112D01*
X159822Y18095D01*
X159839Y18087D01*
X159847D01*
X160048Y18003D01*
X160241Y17936D01*
X160426Y17894D01*
X160602Y17861D01*
X160744Y17844D01*
X160803Y17835D01*
X160853D01*
X160895Y17827D01*
X158783D01*
X163124D01*
Y20031D01*
X163116Y20207D01*
X163099Y20375D01*
X163065Y20525D01*
X163032Y20676D01*
X162981Y20810D01*
X162931Y20944D01*
X162873Y21062D01*
X162822Y21171D01*
X162764Y21263D01*
X162705Y21355D01*
X162655Y21422D01*
X162604Y21489D01*
X162571Y21531D01*
X162537Y21573D01*
X162521Y21590D01*
X162512Y21598D01*
X162395Y21707D01*
X162269Y21799D01*
X162144Y21883D01*
X162009Y21958D01*
X161875Y22017D01*
X161750Y22067D01*
X161624Y22109D01*
X161498Y22143D01*
X161389Y22168D01*
X161280Y22185D01*
X161188Y22201D01*
X161104Y22210D01*
X161037Y22218D01*
D02*
G37*
G36*
X141353Y23819D02*
X140515D01*
X139082Y17819D01*
D01*
X141353D01*
D01*
X139903D01*
X141353Y23819D01*
D02*
G37*
G36*
X157664Y16583D02*
D01*
Y12611D01*
X157656Y12771D01*
X157639Y12913D01*
X157614Y13056D01*
X157589Y13181D01*
X157547Y13307D01*
X157505Y13416D01*
X157463Y13525D01*
X157413Y13617D01*
X157363Y13701D01*
X157321Y13776D01*
X157279Y13835D01*
X157237Y13893D01*
X157212Y13935D01*
X157187Y13961D01*
X157170Y13977D01*
X157162Y13986D01*
X157069Y14078D01*
X156969Y14162D01*
X156868Y14237D01*
X156768Y14296D01*
X156667Y14346D01*
X156567Y14388D01*
X156382Y14455D01*
X156298Y14480D01*
X156215Y14497D01*
X156148Y14505D01*
X156089Y14514D01*
X156039Y14522D01*
X155972D01*
X155854Y14514D01*
X155745Y14497D01*
X155645Y14480D01*
X155544Y14447D01*
X155368Y14363D01*
X155217Y14279D01*
X155100Y14187D01*
X155050Y14145D01*
X155008Y14103D01*
X154974Y14070D01*
X154949Y14053D01*
X154941Y14036D01*
X154932Y14028D01*
X154949Y14204D01*
X154966Y14371D01*
X154983Y14522D01*
X155008Y14656D01*
X155033Y14773D01*
X155058Y14882D01*
X155083Y14975D01*
X155117Y15058D01*
X155142Y15134D01*
X155159Y15192D01*
X155184Y15243D01*
X155201Y15276D01*
X155217Y15310D01*
X155234Y15326D01*
X155243Y15343D01*
X155335Y15452D01*
X155435Y15528D01*
X155536Y15586D01*
X155628Y15620D01*
X155712Y15645D01*
X155779Y15653D01*
X155821Y15662D01*
X155838D01*
X155930Y15653D01*
X156022Y15637D01*
X156097Y15611D01*
X156156Y15586D01*
X156206Y15553D01*
X156240Y15528D01*
X156265Y15511D01*
X156273Y15503D01*
X156332Y15435D01*
X156374Y15360D01*
X156416Y15276D01*
X156441Y15201D01*
X156458Y15125D01*
X156474Y15067D01*
X156483Y15033D01*
Y15016D01*
X157555Y15134D01*
X157497Y15385D01*
X157413Y15595D01*
X157321Y15779D01*
X157229Y15938D01*
X157136Y16056D01*
X157103Y16097D01*
X157061Y16139D01*
X157036Y16164D01*
X157011Y16190D01*
X157002Y16206D01*
X156994D01*
X156910Y16273D01*
X156826Y16332D01*
X156642Y16424D01*
X156458Y16491D01*
X156290Y16533D01*
X156139Y16567D01*
X156072Y16575D01*
X156014D01*
X155972Y16583D01*
X157664D01*
X155905D01*
X155729Y16575D01*
X155569Y16550D01*
X155410Y16516D01*
X155268Y16475D01*
X155134Y16416D01*
X154999Y16357D01*
X154891Y16290D01*
X154782Y16231D01*
X154690Y16164D01*
X154606Y16097D01*
X154539Y16039D01*
X154480Y15980D01*
X154430Y15938D01*
X154396Y15905D01*
X154379Y15880D01*
X154371Y15871D01*
X154271Y15729D01*
X154178Y15570D01*
X154103Y15394D01*
X154036Y15217D01*
X153977Y15025D01*
X153927Y14832D01*
X153885Y14639D01*
X153860Y14455D01*
X153835Y14279D01*
X153818Y14111D01*
X153801Y13961D01*
X153793Y13826D01*
X153784Y13717D01*
Y13567D01*
X153793Y13282D01*
X153810Y13022D01*
X153835Y12779D01*
X153877Y12561D01*
X153919Y12352D01*
X153960Y12167D01*
X154011Y12008D01*
X154069Y11857D01*
X154120Y11732D01*
X154170Y11622D01*
X154212Y11530D01*
X154262Y11455D01*
X154296Y11396D01*
X154321Y11354D01*
X154338Y11329D01*
X154346Y11321D01*
X154455Y11203D01*
X154572Y11095D01*
X154690Y11002D01*
X154815Y10927D01*
X154932Y10860D01*
X155058Y10810D01*
X155175Y10759D01*
X155285Y10726D01*
X155393Y10701D01*
X155486Y10676D01*
X155578Y10667D01*
X155653Y10650D01*
X155712D01*
X155754Y10642D01*
X157664D01*
Y16583D01*
D02*
G37*
G36*
X153030D02*
D01*
Y14958D01*
X153022Y15084D01*
X153005Y15209D01*
X152988Y15326D01*
X152955Y15435D01*
X152871Y15628D01*
X152787Y15796D01*
X152737Y15871D01*
X152695Y15930D01*
X152653Y15989D01*
X152611Y16030D01*
X152578Y16064D01*
X152561Y16097D01*
X152544Y16106D01*
X152536Y16114D01*
X152444Y16198D01*
X152335Y16273D01*
X152234Y16332D01*
X152117Y16382D01*
X151899Y16466D01*
X151681Y16525D01*
X151581Y16542D01*
X151488Y16558D01*
X151405Y16567D01*
X151329Y16575D01*
X151270Y16583D01*
X151187D01*
X151044Y16575D01*
X150910Y16567D01*
X150650Y16525D01*
X150432Y16458D01*
X150332Y16424D01*
X150240Y16382D01*
X150156Y16349D01*
X150089Y16307D01*
X150022Y16273D01*
X149972Y16248D01*
X149930Y16215D01*
X149905Y16198D01*
X149888Y16190D01*
X149879Y16181D01*
X149787Y16097D01*
X149703Y16014D01*
X149628Y15913D01*
X149561Y15804D01*
X149460Y15586D01*
X149377Y15377D01*
X149351Y15268D01*
X149326Y15176D01*
X149301Y15092D01*
X149293Y15016D01*
X149276Y14949D01*
Y14908D01*
X149268Y14874D01*
Y14866D01*
X150374Y14757D01*
X150391Y14924D01*
X150424Y15067D01*
X150458Y15192D01*
X150499Y15285D01*
X150533Y15360D01*
X150566Y15410D01*
X150592Y15444D01*
X150600Y15452D01*
X150684Y15519D01*
X150776Y15570D01*
X150868Y15611D01*
X150960Y15637D01*
X151036Y15653D01*
X151103Y15662D01*
X151162D01*
X151287Y15653D01*
X151396Y15628D01*
X151488Y15595D01*
X151572Y15561D01*
X151631Y15528D01*
X151681Y15494D01*
X151706Y15469D01*
X151715Y15461D01*
X151782Y15377D01*
X151832Y15285D01*
X151865Y15192D01*
X151891Y15100D01*
X151907Y15016D01*
X151916Y14941D01*
Y14899D01*
Y14891D01*
Y14882D01*
X151907Y14757D01*
X151882Y14639D01*
X151840Y14522D01*
X151798Y14421D01*
X151757Y14329D01*
X151715Y14262D01*
X151690Y14220D01*
X151681Y14204D01*
X151648Y14153D01*
X151597Y14095D01*
X151530Y14019D01*
X151463Y13952D01*
X151312Y13793D01*
X151162Y13634D01*
X151011Y13483D01*
X150944Y13416D01*
X150877Y13366D01*
X150826Y13315D01*
X150793Y13282D01*
X150768Y13257D01*
X150759Y13248D01*
X150592Y13089D01*
X150441Y12938D01*
X150298Y12796D01*
X150173Y12670D01*
X150055Y12544D01*
X149955Y12427D01*
X149863Y12326D01*
X149787Y12226D01*
X149720Y12142D01*
X149662Y12067D01*
X149611Y12008D01*
X149578Y11949D01*
X149544Y11916D01*
X149527Y11882D01*
X149511Y11866D01*
Y11857D01*
X149402Y11664D01*
X149318Y11463D01*
X149251Y11279D01*
X149201Y11111D01*
X149167Y10960D01*
X149159Y10902D01*
X149150Y10852D01*
X149142Y10810D01*
X149134Y10776D01*
Y10751D01*
X153030D01*
Y16583D01*
D02*
G37*
G36*
X141768D02*
D01*
Y13609D01*
X141759Y13910D01*
X141742Y14187D01*
X141717Y14438D01*
X141675Y14673D01*
X141633Y14891D01*
X141592Y15084D01*
X141533Y15259D01*
X141483Y15410D01*
X141432Y15553D01*
X141382Y15662D01*
X141332Y15762D01*
X141290Y15846D01*
X141248Y15905D01*
X141223Y15947D01*
X141206Y15972D01*
X141198Y15980D01*
X141105Y16089D01*
X141005Y16181D01*
X140896Y16257D01*
X140787Y16332D01*
X140678Y16391D01*
X140569Y16433D01*
X140469Y16475D01*
X140360Y16508D01*
X140259Y16533D01*
X140175Y16550D01*
X140092Y16567D01*
X140024Y16575D01*
X139966Y16583D01*
X139882D01*
X139731Y16575D01*
X139589Y16558D01*
X139446Y16525D01*
X139321Y16491D01*
X139203Y16441D01*
X139094Y16391D01*
X139002Y16341D01*
X138910Y16282D01*
X138835Y16223D01*
X138759Y16173D01*
X138700Y16123D01*
X138658Y16072D01*
X138617Y16039D01*
X138592Y16005D01*
X138575Y15989D01*
X138566Y15980D01*
X138466Y15838D01*
X138382Y15670D01*
X138307Y15494D01*
X138240Y15310D01*
X138189Y15117D01*
X138139Y14916D01*
X138105Y14723D01*
X138072Y14530D01*
X138055Y14346D01*
X138038Y14178D01*
X138022Y14019D01*
X138013Y13885D01*
X138005Y13776D01*
Y13617D01*
X138013Y13315D01*
X138030Y13039D01*
X138055Y12779D01*
X138089Y12544D01*
X138122Y12335D01*
X138164Y12142D01*
X138214Y11975D01*
X138265Y11824D01*
X138307Y11698D01*
X138357Y11581D01*
X138399Y11488D01*
X138441Y11413D01*
X138466Y11363D01*
X138491Y11321D01*
X138508Y11296D01*
X138516Y11287D01*
X138617Y11170D01*
X138726Y11078D01*
X138835Y10986D01*
X138952Y10919D01*
X139061Y10852D01*
X139178Y10801D01*
X139287Y10759D01*
X139396Y10726D01*
X139497Y10692D01*
X139589Y10676D01*
X139673Y10659D01*
X139740Y10650D01*
X139798D01*
X139848Y10642D01*
X141768D01*
Y16583D01*
D02*
G37*
G36*
X148941Y16650D02*
X147770D01*
X148103D01*
X146670Y10650D01*
D01*
X148941D01*
X147491D01*
X148941Y16650D01*
D02*
G37*
G36*
X146393Y16583D02*
X142513D01*
D01*
X144633D01*
X144457Y16575D01*
X144298Y16550D01*
X144139Y16516D01*
X143997Y16475D01*
X143862Y16416D01*
X143728Y16357D01*
X143620Y16290D01*
X143511Y16231D01*
X143418Y16164D01*
X143335Y16097D01*
X143268Y16039D01*
X143209Y15980D01*
X143159Y15938D01*
X143125Y15905D01*
X143108Y15880D01*
X143100Y15871D01*
X142999Y15729D01*
X142907Y15570D01*
X142832Y15394D01*
X142765Y15217D01*
X142706Y15025D01*
X142656Y14832D01*
X142614Y14639D01*
X142589Y14455D01*
X142564Y14279D01*
X142547Y14111D01*
X142530Y13961D01*
X142522Y13826D01*
X142513Y13717D01*
Y13567D01*
X142522Y13282D01*
X142538Y13022D01*
X142564Y12779D01*
X142605Y12561D01*
X142647Y12352D01*
X142689Y12167D01*
X142740Y12008D01*
X142798Y11857D01*
X142849Y11732D01*
X142899Y11622D01*
X142941Y11530D01*
X142991Y11455D01*
X143025Y11396D01*
X143050Y11354D01*
X143066Y11329D01*
X143075Y11321D01*
X143184Y11203D01*
X143301Y11095D01*
X143418Y11002D01*
X143544Y10927D01*
X143661Y10860D01*
X143787Y10810D01*
X143904Y10759D01*
X144013Y10726D01*
X144122Y10701D01*
X144214Y10676D01*
X144307Y10667D01*
X144382Y10650D01*
X144441D01*
X144483Y10642D01*
X144525D01*
X144675Y10650D01*
X144818Y10667D01*
X144952Y10692D01*
X145078Y10726D01*
X145203Y10768D01*
X145312Y10810D01*
X145413Y10860D01*
X145505Y10910D01*
X145589Y10960D01*
X145656Y11011D01*
X145723Y11053D01*
X145773Y11095D01*
X145815Y11128D01*
X145840Y11153D01*
X145857Y11170D01*
X145865Y11178D01*
X145958Y11279D01*
X146041Y11396D01*
X146108Y11514D01*
X146167Y11631D01*
X146226Y11748D01*
X146268Y11866D01*
X146326Y12100D01*
X146351Y12201D01*
X146368Y12301D01*
X146377Y12385D01*
X146385Y12461D01*
X146393Y12528D01*
Y10642D01*
D01*
Y16583D01*
D02*
G37*
%LPD*%
G36*
X157924Y37124D02*
X158058Y37091D01*
X158167Y37041D01*
X158268Y36982D01*
X158343Y36923D01*
X158394Y36873D01*
X158435Y36840D01*
X158444Y36823D01*
X158494Y36756D01*
X158536Y36689D01*
X158603Y36521D01*
X158645Y36354D01*
X158678Y36178D01*
X158695Y36027D01*
X158703Y35951D01*
X158712Y35893D01*
Y35842D01*
Y35809D01*
Y35784D01*
Y35775D01*
X158703Y35549D01*
X158670Y35348D01*
X158628Y35180D01*
X158578Y35046D01*
X158528Y34937D01*
X158486Y34862D01*
X158452Y34820D01*
X158444Y34803D01*
X158335Y34694D01*
X158226Y34619D01*
X158117Y34560D01*
X158016Y34527D01*
X157924Y34502D01*
X157857Y34493D01*
X157807Y34485D01*
X157790D01*
X157706Y34493D01*
X157623Y34502D01*
X157472Y34552D01*
X157346Y34619D01*
X157237Y34703D01*
X157153Y34778D01*
X157095Y34845D01*
X157061Y34895D01*
X157044Y34904D01*
Y34912D01*
X157011Y34971D01*
X156986Y35038D01*
X156935Y35189D01*
X156902Y35356D01*
X156885Y35516D01*
X156868Y35658D01*
Y35717D01*
X156860Y35775D01*
Y35817D01*
Y35859D01*
Y35876D01*
Y35884D01*
X156868Y36102D01*
X156902Y36295D01*
X156944Y36454D01*
X156994Y36588D01*
X157036Y36689D01*
X157078Y36764D01*
X157111Y36806D01*
X157120Y36823D01*
X157229Y36932D01*
X157338Y37007D01*
X157447Y37066D01*
X157555Y37099D01*
X157639Y37124D01*
X157715Y37133D01*
X157765Y37141D01*
X157782D01*
X157924Y37124D01*
D02*
G37*
G36*
X158796Y33697D02*
X159826D01*
Y33605D01*
X157472D01*
X157606Y33613D01*
X157731Y33630D01*
X157857Y33655D01*
X157966Y33689D01*
X158050Y33722D01*
X158125Y33747D01*
X158167Y33764D01*
X158184Y33773D01*
X158310Y33848D01*
X158427Y33932D01*
X158536Y34024D01*
X158620Y34108D01*
X158695Y34183D01*
X158754Y34250D01*
X158787Y34292D01*
X158796Y34309D01*
Y33697D01*
D02*
G37*
G36*
X155729Y35616D02*
X155745Y35440D01*
X155771Y35273D01*
X155804Y35113D01*
X155838Y34971D01*
X155879Y34837D01*
X155930Y34719D01*
X155980Y34611D01*
X156022Y34510D01*
X156072Y34426D01*
X156114Y34351D01*
X156156Y34292D01*
X156181Y34242D01*
X156206Y34208D01*
X156223Y34192D01*
X156231Y34183D01*
X156332Y34083D01*
X156432Y33990D01*
X156542Y33915D01*
X156642Y33848D01*
X156751Y33789D01*
X156851Y33747D01*
X156952Y33705D01*
X157044Y33680D01*
X157136Y33655D01*
X157220Y33639D01*
X157287Y33622D01*
X157354Y33613D01*
X157405Y33605D01*
X155720D01*
Y35809D01*
X155729Y35616D01*
D02*
G37*
G36*
X144148Y37099D02*
X144273Y37066D01*
X144382Y37016D01*
X144474Y36957D01*
X144550Y36890D01*
X144608Y36840D01*
X144650Y36806D01*
X144659Y36789D01*
X144751Y36655D01*
X144818Y36504D01*
X144860Y36337D01*
X144893Y36178D01*
X144910Y36035D01*
X144918Y35976D01*
X144927Y35918D01*
Y35876D01*
Y35842D01*
Y35817D01*
Y35809D01*
Y35683D01*
X144918Y35566D01*
X144902Y35457D01*
X144885Y35356D01*
X144868Y35264D01*
X144843Y35180D01*
X144818Y35105D01*
X144801Y35038D01*
X144751Y34929D01*
X144709Y34854D01*
X144675Y34812D01*
X144667Y34795D01*
X144567Y34694D01*
X144457Y34619D01*
X144349Y34560D01*
X144248Y34527D01*
X144156Y34502D01*
X144089Y34493D01*
X144038Y34485D01*
X144022D01*
X143879Y34502D01*
X143745Y34535D01*
X143628Y34594D01*
X143536Y34652D01*
X143452Y34711D01*
X143393Y34770D01*
X143360Y34803D01*
X143343Y34820D01*
X143293Y34887D01*
X143251Y34962D01*
X143184Y35122D01*
X143133Y35298D01*
X143100Y35474D01*
X143083Y35625D01*
X143075Y35692D01*
Y35750D01*
X143066Y35800D01*
Y35834D01*
Y35859D01*
Y35868D01*
X143075Y36085D01*
X143108Y36270D01*
X143150Y36429D01*
X143201Y36563D01*
X143242Y36664D01*
X143284Y36739D01*
X143318Y36781D01*
X143326Y36798D01*
X143435Y36907D01*
X143544Y36982D01*
X143661Y37041D01*
X143770Y37074D01*
X143862Y37099D01*
X143938Y37108D01*
X143988Y37116D01*
X144005D01*
X144148Y37099D01*
D02*
G37*
G36*
X106312D02*
X106437Y37066D01*
X106546Y37016D01*
X106639Y36957D01*
X106714Y36890D01*
X106773Y36840D01*
X106815Y36806D01*
X106823Y36789D01*
X106915Y36655D01*
X106982Y36504D01*
X107024Y36337D01*
X107058Y36178D01*
X107074Y36035D01*
X107083Y35976D01*
X107091Y35918D01*
Y35876D01*
Y35842D01*
Y35817D01*
Y35809D01*
Y35683D01*
X107083Y35566D01*
X107066Y35457D01*
X107049Y35356D01*
X107032Y35264D01*
X107007Y35180D01*
X106982Y35105D01*
X106965Y35038D01*
X106915Y34929D01*
X106873Y34854D01*
X106840Y34812D01*
X106831Y34795D01*
X106731Y34694D01*
X106622Y34619D01*
X106513Y34560D01*
X106412Y34527D01*
X106320Y34502D01*
X106253Y34493D01*
X106203Y34485D01*
X106186D01*
X106044Y34502D01*
X105910Y34535D01*
X105792Y34594D01*
X105700Y34652D01*
X105616Y34711D01*
X105558Y34770D01*
X105524Y34803D01*
X105507Y34820D01*
X105457Y34887D01*
X105415Y34962D01*
X105348Y35122D01*
X105298Y35298D01*
X105264Y35474D01*
X105247Y35625D01*
X105239Y35691D01*
Y35750D01*
X105231Y35800D01*
Y35834D01*
Y35859D01*
Y35868D01*
X105239Y36085D01*
X105273Y36270D01*
X105315Y36429D01*
X105365Y36563D01*
X105407Y36664D01*
X105449Y36739D01*
X105482Y36781D01*
X105491Y36798D01*
X105599Y36907D01*
X105708Y36982D01*
X105826Y37041D01*
X105935Y37074D01*
X106027Y37099D01*
X106102Y37108D01*
X106152Y37116D01*
X106169Y37116D01*
X106312Y37099D01*
D02*
G37*
G36*
X129658Y37074D02*
X129801Y37041D01*
X129918Y36982D01*
X130027Y36923D01*
X130111Y36865D01*
X130178Y36806D01*
X130211Y36773D01*
X130228Y36756D01*
X130329Y36622D01*
X130404Y36463D01*
X130455Y36303D01*
X130496Y36152D01*
X130513Y36018D01*
X130522Y35951D01*
Y35901D01*
X130530Y35859D01*
Y35826D01*
Y35809D01*
Y35800D01*
X130513Y35583D01*
X130480Y35381D01*
X130438Y35222D01*
X130379Y35080D01*
X130321Y34979D01*
X130279Y34895D01*
X130245Y34854D01*
X130228Y34837D01*
X130111Y34728D01*
X129994Y34644D01*
X129868Y34594D01*
X129751Y34552D01*
X129650Y34527D01*
X129575Y34518D01*
X129541Y34510D01*
X129499D01*
X129340Y34527D01*
X129198Y34560D01*
X129072Y34611D01*
X128971Y34678D01*
X128879Y34736D01*
X128812Y34786D01*
X128779Y34820D01*
X128762Y34837D01*
X128661Y34971D01*
X128594Y35130D01*
X128544Y35289D01*
X128502Y35449D01*
X128485Y35583D01*
X128477Y35641D01*
Y35700D01*
X128469Y35742D01*
Y35775D01*
Y35792D01*
Y35800D01*
X128485Y36018D01*
X128519Y36211D01*
X128561Y36379D01*
X128619Y36513D01*
X128670Y36613D01*
X128720Y36697D01*
X128753Y36739D01*
X128762Y36756D01*
X128879Y36865D01*
X129005Y36949D01*
X129130Y37007D01*
X129248Y37049D01*
X129348Y37074D01*
X129424Y37083D01*
X129457Y37091D01*
X129499D01*
X129658Y37074D01*
D02*
G37*
G36*
X131670Y33605D02*
X129499D01*
X129675Y33613D01*
X129834Y33630D01*
X129994Y33664D01*
X130136Y33705D01*
X130279Y33747D01*
X130404Y33798D01*
X130522Y33856D01*
X130631Y33915D01*
X130723Y33974D01*
X130807Y34032D01*
X130882Y34083D01*
X130941Y34124D01*
X130991Y34166D01*
X131024Y34200D01*
X131041Y34217D01*
X131050Y34225D01*
X131158Y34351D01*
X131251Y34476D01*
X131334Y34602D01*
X131410Y34736D01*
X131468Y34870D01*
X131519Y35004D01*
X131561Y35130D01*
X131594Y35256D01*
X131619Y35365D01*
X131636Y35474D01*
X131653Y35566D01*
X131661Y35650D01*
X131670Y35717D01*
Y33605D01*
D02*
G37*
G36*
X153248Y37133D02*
X153357Y37099D01*
X153458Y37058D01*
X153541Y37016D01*
X153609Y36965D01*
X153659Y36923D01*
X153692Y36890D01*
X153701Y36882D01*
X153776Y36781D01*
X153843Y36664D01*
X153885Y36538D01*
X153919Y36421D01*
X153935Y36320D01*
X153944Y36228D01*
X153952Y36194D01*
Y36178D01*
Y36161D01*
Y36152D01*
X152293D01*
X152301Y36312D01*
X152326Y36454D01*
X152360Y36580D01*
X152410Y36680D01*
X152452Y36764D01*
X152494Y36823D01*
X152519Y36865D01*
X152527Y36873D01*
X152620Y36965D01*
X152720Y37032D01*
X152821Y37074D01*
X152913Y37108D01*
X152997Y37124D01*
X153064Y37141D01*
X153122D01*
X153248Y37133D01*
D02*
G37*
G36*
X155058Y33605D02*
X153173D01*
X153416Y33622D01*
X153642Y33655D01*
X153835Y33705D01*
X154002Y33764D01*
X154078Y33798D01*
X154136Y33823D01*
X154195Y33848D01*
X154237Y33873D01*
X154271Y33898D01*
X154304Y33907D01*
X154312Y33923D01*
X154321D01*
X154480Y34058D01*
X154622Y34200D01*
X154740Y34359D01*
X154832Y34510D01*
X154907Y34644D01*
X154932Y34703D01*
X154958Y34753D01*
X154974Y34795D01*
X154991Y34828D01*
X154999Y34845D01*
Y34854D01*
X153893Y35038D01*
X153851Y34929D01*
X153810Y34828D01*
X153768Y34753D01*
X153717Y34686D01*
X153684Y34636D01*
X153650Y34602D01*
X153625Y34585D01*
X153617Y34577D01*
X153550Y34527D01*
X153474Y34493D01*
X153399Y34468D01*
X153332Y34451D01*
X153273Y34443D01*
X153223Y34435D01*
X153181D01*
X153047Y34443D01*
X152921Y34476D01*
X152804Y34518D01*
X152712Y34569D01*
X152636Y34619D01*
X152586Y34661D01*
X152544Y34694D01*
X152536Y34703D01*
X152452Y34812D01*
X152393Y34937D01*
X152343Y35071D01*
X152310Y35189D01*
X152293Y35306D01*
X152284Y35390D01*
X152276Y35423D01*
Y35449D01*
Y35465D01*
Y35474D01*
X155058D01*
Y33605D01*
D02*
G37*
G36*
X151145Y35608D02*
X151153Y35449D01*
X151178Y35306D01*
X151203Y35172D01*
X151228Y35038D01*
X151270Y34921D01*
X151304Y34812D01*
X151346Y34711D01*
X151379Y34619D01*
X151421Y34543D01*
X151455Y34476D01*
X151480Y34418D01*
X151514Y34376D01*
X151530Y34342D01*
X151539Y34326D01*
X151547Y34317D01*
X151656Y34192D01*
X151765Y34083D01*
X151891Y33990D01*
X152025Y33907D01*
X152159Y33840D01*
X152293Y33781D01*
X152427Y33731D01*
X152561Y33697D01*
X152678Y33664D01*
X152796Y33647D01*
X152904Y33630D01*
X152997Y33613D01*
X153072D01*
X153122Y33605D01*
X151136D01*
Y35767D01*
X151145Y35608D01*
D02*
G37*
G36*
X148740Y37133D02*
X148849Y37099D01*
X148949Y37058D01*
X149033Y37016D01*
X149100Y36965D01*
X149150Y36923D01*
X149184Y36890D01*
X149192Y36882D01*
X149268Y36781D01*
X149335Y36664D01*
X149377Y36538D01*
X149410Y36421D01*
X149427Y36320D01*
X149435Y36228D01*
X149444Y36194D01*
Y36178D01*
Y36161D01*
Y36152D01*
X147784D01*
X147793Y36312D01*
X147818Y36454D01*
X147851Y36580D01*
X147902Y36680D01*
X147944Y36764D01*
X147985Y36823D01*
X148011Y36865D01*
X148019Y36873D01*
X148111Y36965D01*
X148212Y37032D01*
X148312Y37074D01*
X148405Y37108D01*
X148488Y37124D01*
X148555Y37141D01*
X148614D01*
X148740Y37133D01*
D02*
G37*
G36*
X150550Y33605D02*
X148664D01*
X148907Y33622D01*
X149134Y33655D01*
X149326Y33705D01*
X149494Y33764D01*
X149569Y33798D01*
X149628Y33823D01*
X149687Y33848D01*
X149729Y33873D01*
X149762Y33898D01*
X149796Y33907D01*
X149804Y33923D01*
X149812D01*
X149972Y34058D01*
X150114Y34200D01*
X150231Y34359D01*
X150323Y34510D01*
X150399Y34644D01*
X150424Y34703D01*
X150449Y34753D01*
X150466Y34795D01*
X150483Y34828D01*
X150491Y34845D01*
Y34854D01*
X149385Y35038D01*
X149343Y34929D01*
X149301Y34828D01*
X149259Y34753D01*
X149209Y34686D01*
X149176Y34636D01*
X149142Y34602D01*
X149117Y34585D01*
X149108Y34577D01*
X149041Y34527D01*
X148966Y34493D01*
X148890Y34468D01*
X148823Y34451D01*
X148765Y34443D01*
X148715Y34435D01*
X148673D01*
X148539Y34443D01*
X148413Y34476D01*
X148296Y34518D01*
X148203Y34569D01*
X148128Y34619D01*
X148078Y34661D01*
X148036Y34694D01*
X148027Y34703D01*
X147944Y34812D01*
X147885Y34937D01*
X147835Y35071D01*
X147801Y35189D01*
X147784Y35306D01*
X147776Y35390D01*
X147768Y35423D01*
Y35449D01*
Y35465D01*
Y35474D01*
X150550D01*
Y33605D01*
D02*
G37*
G36*
X146636Y35608D02*
X146645Y35449D01*
X146670Y35306D01*
X146695Y35172D01*
X146720Y35038D01*
X146762Y34921D01*
X146795Y34812D01*
X146837Y34711D01*
X146871Y34619D01*
X146913Y34543D01*
X146946Y34476D01*
X146971Y34418D01*
X147005Y34376D01*
X147022Y34342D01*
X147030Y34326D01*
X147039Y34317D01*
X147148Y34192D01*
X147256Y34083D01*
X147382Y33990D01*
X147516Y33907D01*
X147650Y33840D01*
X147784Y33781D01*
X147918Y33731D01*
X148053Y33697D01*
X148170Y33664D01*
X148287Y33647D01*
X148396Y33630D01*
X148488Y33613D01*
X148564D01*
X148614Y33605D01*
X146628D01*
Y35767D01*
X146636Y35608D01*
D02*
G37*
G36*
X110904Y37133D02*
X111013Y37099D01*
X111114Y37058D01*
X111197Y37016D01*
X111264Y36965D01*
X111315Y36923D01*
X111348Y36890D01*
X111356Y36882D01*
X111432Y36781D01*
X111499Y36664D01*
X111541Y36538D01*
X111574Y36421D01*
X111591Y36320D01*
X111600Y36228D01*
X111608Y36194D01*
Y36178D01*
Y36161D01*
Y36152D01*
X109949D01*
X109957Y36312D01*
X109982Y36454D01*
X110016Y36580D01*
X110066Y36680D01*
X110108Y36764D01*
X110150Y36823D01*
X110175Y36865D01*
X110183Y36873D01*
X110275Y36965D01*
X110376Y37032D01*
X110477Y37074D01*
X110569Y37108D01*
X110653Y37124D01*
X110720Y37141D01*
X110778D01*
X110904Y37133D01*
D02*
G37*
G36*
X112714Y33605D02*
X110829D01*
X111072Y33622D01*
X111298Y33655D01*
X111491Y33705D01*
X111658Y33764D01*
X111734Y33798D01*
X111792Y33823D01*
X111851Y33848D01*
X111893Y33873D01*
X111926Y33898D01*
X111960Y33907D01*
X111968Y33923D01*
X111977D01*
X112136Y34058D01*
X112278Y34200D01*
X112396Y34359D01*
X112488Y34510D01*
X112563Y34644D01*
X112588Y34703D01*
X112613Y34753D01*
X112630Y34795D01*
X112647Y34828D01*
X112655Y34845D01*
Y34854D01*
X111549Y35038D01*
X111507Y34929D01*
X111466Y34828D01*
X111424Y34753D01*
X111373Y34686D01*
X111340Y34636D01*
X111306Y34602D01*
X111281Y34585D01*
X111273Y34577D01*
X111206Y34527D01*
X111130Y34493D01*
X111055Y34468D01*
X110988Y34451D01*
X110929Y34443D01*
X110879Y34435D01*
X110837D01*
X110703Y34443D01*
X110577Y34476D01*
X110460Y34518D01*
X110368Y34569D01*
X110292Y34619D01*
X110242Y34661D01*
X110200Y34694D01*
X110192Y34703D01*
X110108Y34812D01*
X110049Y34937D01*
X109999Y35071D01*
X109965Y35189D01*
X109949Y35306D01*
X109940Y35390D01*
X109932Y35423D01*
Y35449D01*
Y35465D01*
Y35474D01*
X112714D01*
Y33605D01*
D02*
G37*
G36*
X108801Y35608D02*
X108809Y35449D01*
X108834Y35306D01*
X108859Y35172D01*
X108884Y35038D01*
X108926Y34921D01*
X108960Y34812D01*
X109002Y34711D01*
X109035Y34619D01*
X109077Y34543D01*
X109111Y34476D01*
X109136Y34418D01*
X109169Y34376D01*
X109186Y34342D01*
X109195Y34326D01*
X109203Y34317D01*
X109312Y34192D01*
X109421Y34083D01*
X109546Y33990D01*
X109680Y33907D01*
X109815Y33840D01*
X109949Y33781D01*
X110083Y33731D01*
X110217Y33697D01*
X110334Y33664D01*
X110451Y33647D01*
X110560Y33630D01*
X110653Y33613D01*
X110728D01*
X110778Y33605D01*
X108792D01*
Y35767D01*
X108801Y35608D01*
D02*
G37*
G36*
X199212Y33697D02*
X198064D01*
X199204Y38256D01*
X199212Y33697D01*
D02*
G37*
G36*
X196933D02*
X195793D01*
Y38256D01*
X196933Y33697D01*
D02*
G37*
G36*
X182243D02*
X180810D01*
X181522Y36395D01*
X182243Y33697D01*
D02*
G37*
G36*
X124572Y33697D02*
X123139D01*
X123851Y36395D01*
X124572Y33697D01*
D02*
G37*
G36*
X93423Y33697D02*
X94454D01*
Y33605D01*
X92024D01*
X92175Y33613D01*
X92317Y33630D01*
X92451Y33664D01*
X92569Y33697D01*
X92669Y33731D01*
X92744Y33764D01*
X92795Y33781D01*
X92812Y33789D01*
X92946Y33865D01*
X93063Y33957D01*
X93172Y34041D01*
X93256Y34133D01*
X93331Y34208D01*
X93381Y34267D01*
X93415Y34309D01*
X93423Y34326D01*
Y33697D01*
D02*
G37*
G36*
X157593Y27233D02*
X156244D01*
X157593Y29227D01*
Y27233D01*
D02*
G37*
G36*
X159387Y25096D02*
X158666D01*
Y26261D01*
X159387D01*
Y25096D01*
D02*
G37*
G36*
X143909Y28532D02*
X144018Y28498D01*
X144118Y28456D01*
X144202Y28414D01*
X144269Y28364D01*
X144319Y28322D01*
X144353Y28289D01*
X144361Y28280D01*
X144437Y28180D01*
X144504Y28062D01*
X144545Y27937D01*
X144579Y27819D01*
X144596Y27719D01*
X144604Y27627D01*
X144613Y27593D01*
Y27576D01*
Y27560D01*
Y27551D01*
X142953D01*
X142962Y27710D01*
X142987Y27853D01*
X143020Y27979D01*
X143071Y28079D01*
X143113Y28163D01*
X143154Y28222D01*
X143180Y28264D01*
X143188Y28272D01*
X143280Y28364D01*
X143381Y28431D01*
X143481Y28473D01*
X143573Y28506D01*
X143657Y28523D01*
X143724Y28540D01*
X143783D01*
X143909Y28532D01*
D02*
G37*
G36*
X145719Y25004D02*
X143833D01*
X144076Y25021D01*
X144302Y25054D01*
X144495Y25104D01*
X144663Y25163D01*
X144738Y25196D01*
X144797Y25222D01*
X144856Y25247D01*
X144897Y25272D01*
X144931Y25297D01*
X144965Y25305D01*
X144973Y25322D01*
X144981D01*
X145141Y25456D01*
X145283Y25599D01*
X145400Y25758D01*
X145492Y25909D01*
X145568Y26043D01*
X145593Y26101D01*
X145618Y26152D01*
X145635Y26194D01*
X145652Y26227D01*
X145660Y26244D01*
Y26252D01*
X144554Y26437D01*
X144512Y26328D01*
X144470Y26227D01*
X144428Y26152D01*
X144378Y26085D01*
X144344Y26034D01*
X144311Y26001D01*
X144286Y25984D01*
X144277Y25976D01*
X144210Y25925D01*
X144135Y25892D01*
X144060Y25867D01*
X143992Y25850D01*
X143934Y25842D01*
X143884Y25833D01*
X143842D01*
X143708Y25842D01*
X143582Y25875D01*
X143465Y25917D01*
X143372Y25967D01*
X143297Y26018D01*
X143247Y26060D01*
X143205Y26093D01*
X143196Y26101D01*
X143113Y26210D01*
X143054Y26336D01*
X143004Y26470D01*
X142970Y26588D01*
X142953Y26705D01*
X142945Y26789D01*
X142937Y26822D01*
Y26847D01*
Y26864D01*
Y26872D01*
X145719D01*
Y25004D01*
D02*
G37*
G36*
X141805Y27007D02*
X141814Y26847D01*
X141839Y26705D01*
X141864Y26571D01*
X141889Y26437D01*
X141931Y26319D01*
X141964Y26210D01*
X142006Y26110D01*
X142040Y26018D01*
X142082Y25942D01*
X142115Y25875D01*
X142140Y25817D01*
X142174Y25775D01*
X142191Y25741D01*
X142199Y25724D01*
X142208Y25716D01*
X142316Y25590D01*
X142425Y25481D01*
X142551Y25389D01*
X142685Y25305D01*
X142819Y25238D01*
X142953Y25180D01*
X143087Y25129D01*
X143221Y25096D01*
X143339Y25062D01*
X143456Y25046D01*
X143565Y25029D01*
X143657Y25012D01*
X143733D01*
X143783Y25004D01*
X141797D01*
Y27166D01*
X141805Y27007D01*
D02*
G37*
G36*
X138872Y29906D02*
X139057D01*
X139132Y29898D01*
X139182D01*
X139207Y29889D01*
X139216D01*
X139316Y29864D01*
X139409Y29831D01*
X139484Y29797D01*
X139543Y29755D01*
X139593Y29713D01*
X139635Y29688D01*
X139652Y29663D01*
X139660Y29655D01*
X139710Y29588D01*
X139752Y29504D01*
X139777Y29428D01*
X139802Y29353D01*
X139811Y29286D01*
X139819Y29236D01*
Y29202D01*
Y29185D01*
X139811Y29093D01*
X139802Y29009D01*
X139777Y28934D01*
X139760Y28867D01*
X139735Y28817D01*
X139710Y28783D01*
X139702Y28758D01*
X139693Y28750D01*
X139643Y28691D01*
X139593Y28641D01*
X139484Y28565D01*
X139442Y28540D01*
X139400Y28523D01*
X139375Y28506D01*
X139367D01*
X139325Y28498D01*
X139258Y28481D01*
X139191Y28473D01*
X139115Y28465D01*
X138939Y28456D01*
X138763Y28448D01*
X138596Y28440D01*
X137456D01*
Y29914D01*
X138797D01*
X138872Y29906D01*
D02*
G37*
G36*
X152850Y29998D02*
X152917Y29990D01*
X152976Y29965D01*
X153026Y29939D01*
X153068Y29914D01*
X153102Y29898D01*
X153118Y29881D01*
X153127Y29873D01*
X153177Y29814D01*
X153227Y29738D01*
X153269Y29655D01*
X153311Y29571D01*
X153336Y29487D01*
X153361Y29420D01*
X153370Y29378D01*
X153378Y29370D01*
Y29361D01*
X153395Y29286D01*
X153411Y29194D01*
X153428Y29085D01*
X153445Y28976D01*
X153462Y28750D01*
X153470Y28515D01*
X153479Y28406D01*
Y28297D01*
X153487Y28205D01*
Y28121D01*
Y28054D01*
Y27995D01*
Y27962D01*
Y27953D01*
Y27769D01*
X153479Y27593D01*
Y27434D01*
X153470Y27291D01*
X153462Y27157D01*
X153453Y27040D01*
X153437Y26931D01*
X153428Y26839D01*
X153420Y26755D01*
X153403Y26688D01*
X153395Y26629D01*
X153386Y26579D01*
X153378Y26546D01*
Y26512D01*
X153370Y26504D01*
Y26495D01*
X153336Y26378D01*
X153294Y26286D01*
X153252Y26202D01*
X153219Y26143D01*
X153185Y26093D01*
X153152Y26060D01*
X153135Y26043D01*
X153127Y26034D01*
X153068Y25993D01*
X153009Y25959D01*
X152951Y25942D01*
X152892Y25925D01*
X152850Y25917D01*
X152808Y25909D01*
X152775D01*
X152699Y25917D01*
X152632Y25925D01*
X152574Y25951D01*
X152523Y25976D01*
X152481Y25993D01*
X152448Y26018D01*
X152431Y26026D01*
X152423Y26034D01*
X152372Y26093D01*
X152322Y26169D01*
X152280Y26252D01*
X152238Y26336D01*
X152213Y26412D01*
X152188Y26479D01*
X152180Y26520D01*
X152171Y26537D01*
X152155Y26621D01*
X152138Y26713D01*
X152121Y26814D01*
X152113Y26923D01*
X152096Y27157D01*
X152087Y27392D01*
X152079Y27501D01*
Y27610D01*
X152071Y27702D01*
Y27786D01*
Y27853D01*
Y27912D01*
Y27945D01*
Y27953D01*
Y28138D01*
X152079Y28314D01*
Y28465D01*
X152087Y28615D01*
X152096Y28741D01*
X152104Y28867D01*
X152113Y28967D01*
X152129Y29068D01*
X152138Y29152D01*
X152146Y29219D01*
X152155Y29278D01*
X152163Y29328D01*
X152171Y29361D01*
Y29395D01*
X152180Y29403D01*
Y29412D01*
X152213Y29529D01*
X152255Y29629D01*
X152289Y29705D01*
X152331Y29772D01*
X152364Y29814D01*
X152389Y29847D01*
X152406Y29864D01*
X152414Y29873D01*
X152473Y29914D01*
X152540Y29948D01*
X152599Y29973D01*
X152657Y29990D01*
X152699Y29998D01*
X152741Y30007D01*
X152775D01*
X152850Y29998D01*
D02*
G37*
G36*
X150906Y27660D02*
X150923Y27384D01*
X150948Y27124D01*
X150981Y26889D01*
X151015Y26680D01*
X151057Y26487D01*
X151107Y26319D01*
X151157Y26169D01*
X151199Y26043D01*
X151250Y25925D01*
X151291Y25833D01*
X151333Y25758D01*
X151358Y25708D01*
X151384Y25666D01*
X151400Y25641D01*
X151409Y25632D01*
X151509Y25515D01*
X151618Y25423D01*
X151727Y25330D01*
X151845Y25264D01*
X151953Y25196D01*
X152071Y25146D01*
X152180Y25104D01*
X152289Y25071D01*
X152389Y25037D01*
X152481Y25021D01*
X152565Y25004D01*
X152632Y24995D01*
X152691D01*
X152741Y24987D01*
X150898D01*
Y27962D01*
X150906Y27660D01*
D02*
G37*
G36*
X178392Y21355D02*
X178501Y21321D01*
X178602Y21280D01*
X178686Y21238D01*
X178753Y21188D01*
X178803Y21146D01*
X178837Y21112D01*
X178845Y21104D01*
X178920Y21003D01*
X178987Y20886D01*
X179029Y20760D01*
X179063Y20643D01*
X179079Y20542D01*
X179088Y20450D01*
X179096Y20416D01*
Y20400D01*
Y20383D01*
Y20375D01*
X177437D01*
X177445Y20534D01*
X177471Y20676D01*
X177504Y20802D01*
X177554Y20902D01*
X177596Y20986D01*
X177638Y21045D01*
X177663Y21087D01*
X177672Y21095D01*
X177764Y21188D01*
X177864Y21254D01*
X177965Y21296D01*
X178057Y21330D01*
X178141Y21347D01*
X178208Y21363D01*
X178267D01*
X178392Y21355D01*
D02*
G37*
G36*
X180202Y17827D02*
X178317D01*
X178560Y17844D01*
X178786Y17877D01*
X178979Y17928D01*
X179147Y17986D01*
X179222Y18020D01*
X179281Y18045D01*
X179339Y18070D01*
X179381Y18095D01*
X179415Y18120D01*
X179448Y18129D01*
X179457Y18146D01*
X179465D01*
X179624Y18280D01*
X179767Y18422D01*
X179884Y18581D01*
X179976Y18732D01*
X180052Y18866D01*
X180077Y18925D01*
X180102Y18975D01*
X180119Y19017D01*
X180135Y19051D01*
X180144Y19067D01*
Y19076D01*
X179038Y19260D01*
X178996Y19151D01*
X178954Y19051D01*
X178912Y18975D01*
X178862Y18908D01*
X178828Y18858D01*
X178795Y18824D01*
X178769Y18808D01*
X178761Y18799D01*
X178694Y18749D01*
X178619Y18715D01*
X178543Y18690D01*
X178476Y18674D01*
X178418Y18665D01*
X178367Y18657D01*
X178325D01*
X178191Y18665D01*
X178066Y18699D01*
X177948Y18741D01*
X177856Y18791D01*
X177781Y18841D01*
X177730Y18883D01*
X177688Y18916D01*
X177680Y18925D01*
X177596Y19034D01*
X177538Y19160D01*
X177487Y19294D01*
X177454Y19411D01*
X177437Y19528D01*
X177429Y19612D01*
X177420Y19646D01*
Y19671D01*
Y19687D01*
Y19696D01*
X180202D01*
Y17827D01*
D02*
G37*
G36*
X176289Y19830D02*
X176297Y19671D01*
X176322Y19528D01*
X176348Y19394D01*
X176373Y19260D01*
X176415Y19143D01*
X176448Y19034D01*
X176490Y18933D01*
X176524Y18841D01*
X176566Y18766D01*
X176599Y18699D01*
X176624Y18640D01*
X176658Y18598D01*
X176674Y18564D01*
X176683Y18548D01*
X176691Y18539D01*
X176800Y18414D01*
X176909Y18305D01*
X177035Y18213D01*
X177169Y18129D01*
X177303Y18062D01*
X177437Y18003D01*
X177571Y17953D01*
X177705Y17919D01*
X177822Y17886D01*
X177940Y17869D01*
X178049Y17852D01*
X178141Y17835D01*
X178216D01*
X178267Y17827D01*
X176281D01*
Y19989D01*
X176289Y19830D01*
D02*
G37*
G36*
X165780Y21355D02*
X165889Y21321D01*
X165990Y21280D01*
X166074Y21238D01*
X166141Y21188D01*
X166191Y21146D01*
X166225Y21112D01*
X166233Y21104D01*
X166308Y21003D01*
X166375Y20886D01*
X166417Y20760D01*
X166451Y20643D01*
X166468Y20542D01*
X166476Y20450D01*
X166484Y20416D01*
Y20400D01*
Y20383D01*
Y20375D01*
X164825D01*
X164833Y20534D01*
X164859Y20676D01*
X164892Y20802D01*
X164942Y20902D01*
X164984Y20986D01*
X165026Y21045D01*
X165051Y21087D01*
X165060Y21095D01*
X165152Y21188D01*
X165252Y21254D01*
X165353Y21296D01*
X165445Y21330D01*
X165529Y21347D01*
X165596Y21363D01*
X165655D01*
X165780Y21355D01*
D02*
G37*
G36*
X167590Y17827D02*
X165705D01*
X165948Y17844D01*
X166174Y17877D01*
X166367Y17928D01*
X166535Y17986D01*
X166610Y18020D01*
X166669Y18045D01*
X166727Y18070D01*
X166769Y18095D01*
X166803Y18120D01*
X166836Y18129D01*
X166845Y18146D01*
X166853D01*
X167012Y18280D01*
X167155Y18422D01*
X167272Y18581D01*
X167364Y18732D01*
X167440Y18866D01*
X167465Y18925D01*
X167490Y18975D01*
X167507Y19017D01*
X167524Y19051D01*
X167532Y19067D01*
Y19076D01*
X166426Y19260D01*
X166384Y19151D01*
X166342Y19051D01*
X166300Y18975D01*
X166250Y18908D01*
X166216Y18858D01*
X166183Y18824D01*
X166157Y18808D01*
X166149Y18799D01*
X166082Y18749D01*
X166007Y18715D01*
X165931Y18690D01*
X165864Y18674D01*
X165806Y18665D01*
X165755Y18657D01*
X165713D01*
X165579Y18665D01*
X165454Y18699D01*
X165336Y18741D01*
X165244Y18791D01*
X165169Y18841D01*
X165118Y18883D01*
X165076Y18916D01*
X165068Y18925D01*
X164984Y19034D01*
X164926Y19160D01*
X164875Y19294D01*
X164842Y19411D01*
X164825Y19528D01*
X164817Y19612D01*
X164808Y19646D01*
Y19671D01*
Y19687D01*
Y19696D01*
X167590D01*
Y17827D01*
D02*
G37*
G36*
X163677Y19830D02*
X163685Y19671D01*
X163711Y19528D01*
X163736Y19394D01*
X163761Y19260D01*
X163803Y19143D01*
X163836Y19034D01*
X163878Y18933D01*
X163912Y18841D01*
X163954Y18766D01*
X163987Y18699D01*
X164012Y18640D01*
X164046Y18598D01*
X164062Y18564D01*
X164071Y18548D01*
X164079Y18539D01*
X164188Y18414D01*
X164297Y18305D01*
X164423Y18213D01*
X164557Y18129D01*
X164691Y18062D01*
X164825Y18003D01*
X164959Y17953D01*
X165093Y17919D01*
X165211Y17886D01*
X165328Y17869D01*
X165437Y17852D01*
X165529Y17835D01*
X165604D01*
X165655Y17827D01*
X163669D01*
Y19989D01*
X163677Y19830D01*
D02*
G37*
G36*
X129822Y19704D02*
Y19570D01*
X129814Y19453D01*
X129805Y19361D01*
X129797Y19285D01*
X129788Y19235D01*
X129780Y19193D01*
X129772Y19176D01*
Y19168D01*
X129746Y19092D01*
X129704Y19017D01*
X129663Y18958D01*
X129621Y18900D01*
X129579Y18858D01*
X129545Y18824D01*
X129520Y18808D01*
X129512Y18799D01*
X129411Y18732D01*
X129302Y18690D01*
X129210Y18657D01*
X129118Y18632D01*
X129042Y18615D01*
X128984Y18606D01*
X128934D01*
X128841Y18615D01*
X128749Y18632D01*
X128674Y18657D01*
X128615Y18690D01*
X128557Y18724D01*
X128523Y18749D01*
X128498Y18766D01*
X128489Y18774D01*
X128431Y18841D01*
X128389Y18908D01*
X128364Y18975D01*
X128347Y19042D01*
X128330Y19092D01*
X128322Y19134D01*
Y19168D01*
Y19176D01*
X128330Y19260D01*
X128355Y19335D01*
X128389Y19402D01*
X128431Y19461D01*
X128464Y19503D01*
X128498Y19537D01*
X128523Y19553D01*
X128531Y19562D01*
X128598Y19595D01*
X128682Y19637D01*
X128783Y19671D01*
X128883Y19696D01*
X128984Y19721D01*
X129059Y19738D01*
X129093Y19746D01*
X129118Y19755D01*
X129135D01*
X129302Y19788D01*
X129436Y19821D01*
X129562Y19855D01*
X129654Y19880D01*
X129730Y19905D01*
X129780Y19914D01*
X129814Y19930D01*
X129822D01*
Y19704D01*
D02*
G37*
G36*
X127216Y18958D02*
X127224Y18866D01*
X127266Y18690D01*
X127325Y18539D01*
X127392Y18414D01*
X127459Y18313D01*
X127517Y18238D01*
X127559Y18187D01*
X127576Y18179D01*
Y18171D01*
X127727Y18053D01*
X127894Y17969D01*
X128062Y17911D01*
X128230Y17869D01*
X128372Y17844D01*
X128439Y17835D01*
X128489D01*
X128540Y17827D01*
X127207D01*
Y19059D01*
X127216Y18958D01*
D02*
G37*
G36*
X124241Y22729D02*
X124316D01*
X124392Y22721D01*
X124501D01*
X124584Y22713D01*
X124643Y22704D01*
X124677Y22696D01*
X124685D01*
X124785Y22671D01*
X124878Y22637D01*
X124961Y22595D01*
X125029Y22545D01*
X125079Y22503D01*
X125121Y22470D01*
X125146Y22445D01*
X125154Y22436D01*
X125221Y22352D01*
X125263Y22268D01*
X125297Y22176D01*
X125322Y22093D01*
X125338Y22017D01*
X125347Y21958D01*
Y21925D01*
Y21908D01*
X125338Y21816D01*
X125330Y21732D01*
X125305Y21657D01*
X125280Y21590D01*
X125255Y21531D01*
X125238Y21489D01*
X125221Y21464D01*
X125213Y21456D01*
X125163Y21389D01*
X125095Y21330D01*
X125037Y21280D01*
X124978Y21238D01*
X124928Y21213D01*
X124886Y21188D01*
X124853Y21179D01*
X124844Y21171D01*
X124794Y21154D01*
X124735Y21146D01*
X124601Y21120D01*
X124450Y21104D01*
X124299Y21095D01*
X124149D01*
X124090Y21087D01*
X123285D01*
Y22738D01*
X124157D01*
X124241Y22729D01*
D02*
G37*
G36*
X161113Y21296D02*
X161255Y21263D01*
X161372Y21204D01*
X161481Y21146D01*
X161565Y21087D01*
X161632Y21028D01*
X161666Y20995D01*
X161683Y20978D01*
X161783Y20844D01*
X161859Y20685D01*
X161909Y20525D01*
X161951Y20375D01*
X161968Y20241D01*
X161976Y20174D01*
Y20123D01*
X161984Y20081D01*
Y20048D01*
Y20031D01*
Y20023D01*
X161968Y19805D01*
X161934Y19604D01*
X161892Y19444D01*
X161833Y19302D01*
X161775Y19201D01*
X161733Y19118D01*
X161699Y19076D01*
X161683Y19059D01*
X161565Y18950D01*
X161448Y18866D01*
X161322Y18816D01*
X161205Y18774D01*
X161104Y18749D01*
X161029Y18741D01*
X160995Y18732D01*
X160953D01*
X160794Y18749D01*
X160652Y18782D01*
X160526Y18833D01*
X160426Y18900D01*
X160333Y18958D01*
X160266Y19009D01*
X160233Y19042D01*
X160216Y19059D01*
X160116Y19193D01*
X160048Y19352D01*
X159998Y19511D01*
X159956Y19671D01*
X159940Y19805D01*
X159931Y19863D01*
Y19922D01*
X159923Y19964D01*
Y19997D01*
Y20014D01*
Y20023D01*
X159940Y20241D01*
X159973Y20433D01*
X160015Y20601D01*
X160074Y20735D01*
X160124Y20835D01*
X160174Y20919D01*
X160208Y20961D01*
X160216Y20978D01*
X160333Y21087D01*
X160459Y21171D01*
X160585Y21229D01*
X160702Y21271D01*
X160803Y21296D01*
X160878Y21305D01*
X160912Y21313D01*
X160953D01*
X161113Y21296D01*
D02*
G37*
G36*
X163124Y17827D02*
X160953D01*
X161129Y17835D01*
X161289Y17852D01*
X161448Y17886D01*
X161590Y17928D01*
X161733Y17969D01*
X161859Y18020D01*
X161976Y18079D01*
X162085Y18137D01*
X162177Y18196D01*
X162261Y18254D01*
X162336Y18305D01*
X162395Y18347D01*
X162445Y18388D01*
X162479Y18422D01*
X162496Y18439D01*
X162504Y18447D01*
X162613Y18573D01*
X162705Y18699D01*
X162789Y18824D01*
X162864Y18958D01*
X162923Y19092D01*
X162973Y19227D01*
X163015Y19352D01*
X163049Y19478D01*
X163074Y19587D01*
X163090Y19696D01*
X163107Y19788D01*
X163116Y19872D01*
X163124Y19939D01*
Y17827D01*
D02*
G37*
G36*
X155913Y13692D02*
X156022Y13659D01*
X156114Y13617D01*
X156198Y13567D01*
X156265Y13516D01*
X156307Y13475D01*
X156340Y13441D01*
X156349Y13433D01*
X156424Y13324D01*
X156483Y13190D01*
X156516Y13047D01*
X156550Y12913D01*
X156567Y12787D01*
X156575Y12687D01*
Y12653D01*
Y12620D01*
Y12603D01*
Y12595D01*
X156567Y12402D01*
X156542Y12234D01*
X156508Y12100D01*
X156474Y11991D01*
X156432Y11907D01*
X156399Y11849D01*
X156374Y11807D01*
X156366Y11799D01*
X156282Y11723D01*
X156198Y11664D01*
X156106Y11622D01*
X156030Y11597D01*
X155955Y11581D01*
X155896Y11564D01*
X155846D01*
X155729Y11581D01*
X155620Y11614D01*
X155527Y11656D01*
X155444Y11715D01*
X155377Y11765D01*
X155318Y11815D01*
X155285Y11849D01*
X155276Y11857D01*
X155192Y11975D01*
X155134Y12109D01*
X155092Y12251D01*
X155067Y12385D01*
X155050Y12511D01*
X155033Y12603D01*
Y12645D01*
Y12670D01*
Y12687D01*
Y12695D01*
X155042Y12871D01*
X155067Y13022D01*
X155100Y13148D01*
X155142Y13257D01*
X155184Y13332D01*
X155217Y13391D01*
X155243Y13433D01*
X155251Y13441D01*
X155335Y13525D01*
X155427Y13592D01*
X155519Y13634D01*
X155603Y13667D01*
X155678Y13684D01*
X155745Y13701D01*
X155796D01*
X155913Y13692D01*
D02*
G37*
G36*
X157664Y10642D02*
X155796D01*
X155947Y10650D01*
X156089Y10667D01*
X156223Y10692D01*
X156349Y10726D01*
X156474Y10768D01*
X156583Y10810D01*
X156684Y10860D01*
X156776Y10910D01*
X156860Y10960D01*
X156927Y11011D01*
X156994Y11053D01*
X157044Y11095D01*
X157086Y11128D01*
X157111Y11153D01*
X157128Y11170D01*
X157136Y11178D01*
X157229Y11279D01*
X157312Y11396D01*
X157379Y11514D01*
X157438Y11631D01*
X157497Y11748D01*
X157539Y11866D01*
X157597Y12100D01*
X157623Y12201D01*
X157639Y12301D01*
X157648Y12385D01*
X157656Y12461D01*
X157664Y12528D01*
Y10642D01*
D02*
G37*
G36*
X153030Y11782D02*
X150818D01*
X150885Y11891D01*
X150960Y11983D01*
X150994Y12025D01*
X151019Y12058D01*
X151036Y12075D01*
X151044Y12083D01*
X151078Y12117D01*
X151111Y12159D01*
X151212Y12251D01*
X151321Y12360D01*
X151430Y12469D01*
X151539Y12570D01*
X151631Y12653D01*
X151664Y12687D01*
X151690Y12712D01*
X151706Y12720D01*
X151715Y12729D01*
X151899Y12905D01*
X152050Y13047D01*
X152175Y13181D01*
X152276Y13282D01*
X152351Y13366D01*
X152402Y13424D01*
X152435Y13466D01*
X152444Y13475D01*
X152553Y13617D01*
X152645Y13751D01*
X152720Y13877D01*
X152779Y13986D01*
X152829Y14078D01*
X152863Y14153D01*
X152879Y14195D01*
X152888Y14212D01*
X152938Y14346D01*
X152972Y14480D01*
X152997Y14606D01*
X153014Y14723D01*
X153022Y14815D01*
X153030Y14891D01*
Y11782D01*
D02*
G37*
G36*
X139957Y15653D02*
X140024Y15645D01*
X140083Y15620D01*
X140133Y15595D01*
X140175Y15570D01*
X140209Y15553D01*
X140226Y15536D01*
X140234Y15528D01*
X140284Y15469D01*
X140334Y15394D01*
X140376Y15310D01*
X140418Y15226D01*
X140444Y15142D01*
X140469Y15075D01*
X140477Y15033D01*
X140485Y15025D01*
Y15016D01*
X140502Y14941D01*
X140519Y14849D01*
X140536Y14740D01*
X140552Y14631D01*
X140569Y14405D01*
X140578Y14170D01*
X140586Y14061D01*
Y13952D01*
X140594Y13860D01*
Y13776D01*
Y13709D01*
Y13650D01*
Y13617D01*
Y13609D01*
Y13424D01*
X140586Y13248D01*
Y13089D01*
X140578Y12947D01*
X140569Y12812D01*
X140561Y12695D01*
X140544Y12586D01*
X140536Y12494D01*
X140527Y12410D01*
X140510Y12343D01*
X140502Y12285D01*
X140494Y12234D01*
X140485Y12201D01*
Y12167D01*
X140477Y12159D01*
Y12150D01*
X140444Y12033D01*
X140402Y11941D01*
X140360Y11857D01*
X140326Y11799D01*
X140293Y11748D01*
X140259Y11715D01*
X140242Y11698D01*
X140234Y11690D01*
X140175Y11648D01*
X140117Y11614D01*
X140058Y11597D01*
X139999Y11581D01*
X139957Y11572D01*
X139916Y11564D01*
X139882D01*
X139807Y11572D01*
X139740Y11581D01*
X139681Y11606D01*
X139631Y11631D01*
X139589Y11648D01*
X139555Y11673D01*
X139538Y11681D01*
X139530Y11690D01*
X139480Y11748D01*
X139429Y11824D01*
X139388Y11907D01*
X139346Y11991D01*
X139321Y12067D01*
X139295Y12134D01*
X139287Y12176D01*
X139279Y12192D01*
X139262Y12276D01*
X139245Y12368D01*
X139228Y12469D01*
X139220Y12578D01*
X139203Y12812D01*
X139195Y13047D01*
X139187Y13156D01*
Y13265D01*
X139178Y13357D01*
Y13441D01*
Y13508D01*
Y13567D01*
Y13600D01*
Y13609D01*
Y13793D01*
X139187Y13969D01*
Y14120D01*
X139195Y14271D01*
X139203Y14396D01*
X139212Y14522D01*
X139220Y14623D01*
X139237Y14723D01*
X139245Y14807D01*
X139253Y14874D01*
X139262Y14933D01*
X139270Y14983D01*
X139279Y15016D01*
Y15050D01*
X139287Y15058D01*
Y15067D01*
X139321Y15184D01*
X139363Y15285D01*
X139396Y15360D01*
X139438Y15427D01*
X139471Y15469D01*
X139497Y15503D01*
X139513Y15519D01*
X139522Y15528D01*
X139580Y15570D01*
X139647Y15603D01*
X139706Y15628D01*
X139765Y15645D01*
X139807Y15653D01*
X139848Y15662D01*
X139882D01*
X139957Y15653D01*
D02*
G37*
G36*
X141768Y10642D02*
X139882D01*
X140033Y10650D01*
X140175Y10667D01*
X140318Y10701D01*
X140444Y10734D01*
X140561Y10776D01*
X140670Y10826D01*
X140762Y10885D01*
X140854Y10944D01*
X140929Y10994D01*
X141005Y11053D01*
X141064Y11103D01*
X141114Y11145D01*
X141147Y11178D01*
X141173Y11212D01*
X141189Y11229D01*
X141198Y11237D01*
X141298Y11379D01*
X141382Y11547D01*
X141466Y11723D01*
X141525Y11916D01*
X141583Y12109D01*
X141625Y12301D01*
X141667Y12502D01*
X141700Y12695D01*
X141717Y12879D01*
X141734Y13047D01*
X141751Y13206D01*
X141759Y13340D01*
X141768Y13449D01*
Y10642D01*
D02*
G37*
G36*
X146393Y12611D02*
X146385Y12771D01*
X146368Y12913D01*
X146343Y13056D01*
X146318Y13181D01*
X146276Y13307D01*
X146234Y13416D01*
X146192Y13525D01*
X146142Y13617D01*
X146092Y13701D01*
X146050Y13776D01*
X146008Y13835D01*
X145966Y13893D01*
X145941Y13935D01*
X145916Y13961D01*
X145899Y13977D01*
X145890Y13986D01*
X145798Y14078D01*
X145698Y14162D01*
X145597Y14237D01*
X145497Y14296D01*
X145396Y14346D01*
X145296Y14388D01*
X145111Y14455D01*
X145027Y14480D01*
X144944Y14497D01*
X144877Y14505D01*
X144818Y14514D01*
X144768Y14522D01*
X144701D01*
X144583Y14514D01*
X144474Y14497D01*
X144374Y14480D01*
X144273Y14447D01*
X144097Y14363D01*
X143946Y14279D01*
X143829Y14187D01*
X143779Y14145D01*
X143737Y14103D01*
X143703Y14070D01*
X143678Y14053D01*
X143670Y14036D01*
X143661Y14028D01*
X143678Y14204D01*
X143695Y14371D01*
X143712Y14522D01*
X143737Y14656D01*
X143762Y14773D01*
X143787Y14882D01*
X143812Y14975D01*
X143846Y15058D01*
X143871Y15134D01*
X143888Y15192D01*
X143913Y15243D01*
X143930Y15276D01*
X143946Y15310D01*
X143963Y15326D01*
X143972Y15343D01*
X144064Y15452D01*
X144164Y15528D01*
X144265Y15586D01*
X144357Y15620D01*
X144441Y15645D01*
X144508Y15653D01*
X144550Y15662D01*
X144567D01*
X144659Y15653D01*
X144751Y15637D01*
X144826Y15611D01*
X144885Y15586D01*
X144935Y15553D01*
X144969Y15528D01*
X144994Y15511D01*
X145002Y15503D01*
X145061Y15435D01*
X145103Y15360D01*
X145145Y15276D01*
X145170Y15201D01*
X145187Y15125D01*
X145203Y15067D01*
X145212Y15033D01*
Y15016D01*
X146284Y15134D01*
X146226Y15385D01*
X146142Y15595D01*
X146050Y15779D01*
X145958Y15938D01*
X145865Y16056D01*
X145832Y16097D01*
X145790Y16139D01*
X145765Y16164D01*
X145740Y16190D01*
X145731Y16206D01*
X145723D01*
X145639Y16273D01*
X145555Y16332D01*
X145371Y16424D01*
X145187Y16491D01*
X145019Y16533D01*
X144868Y16567D01*
X144801Y16575D01*
X144742D01*
X144701Y16583D01*
X146393D01*
Y12611D01*
D02*
G37*
G36*
X144642Y13692D02*
X144751Y13659D01*
X144843Y13617D01*
X144927Y13567D01*
X144994Y13516D01*
X145036Y13475D01*
X145069Y13441D01*
X145078Y13433D01*
X145153Y13324D01*
X145212Y13190D01*
X145245Y13047D01*
X145279Y12913D01*
X145296Y12787D01*
X145304Y12687D01*
Y12653D01*
Y12620D01*
Y12603D01*
Y12595D01*
X145296Y12402D01*
X145270Y12234D01*
X145237Y12100D01*
X145203Y11991D01*
X145161Y11907D01*
X145128Y11849D01*
X145103Y11807D01*
X145094Y11799D01*
X145011Y11723D01*
X144927Y11664D01*
X144835Y11622D01*
X144759Y11597D01*
X144684Y11581D01*
X144625Y11564D01*
X144575D01*
X144457Y11581D01*
X144349Y11614D01*
X144256Y11656D01*
X144173Y11715D01*
X144106Y11765D01*
X144047Y11815D01*
X144013Y11849D01*
X144005Y11857D01*
X143921Y11975D01*
X143862Y12109D01*
X143821Y12251D01*
X143796Y12385D01*
X143779Y12511D01*
X143762Y12603D01*
Y12645D01*
Y12670D01*
Y12687D01*
Y12695D01*
X143770Y12871D01*
X143796Y13022D01*
X143829Y13148D01*
X143871Y13257D01*
X143913Y13332D01*
X143946Y13391D01*
X143972Y13433D01*
X143980Y13441D01*
X144064Y13525D01*
X144156Y13592D01*
X144248Y13634D01*
X144332Y13667D01*
X144407Y13684D01*
X144474Y13701D01*
X144525D01*
X144642Y13692D01*
D02*
G37*
D10*
X122120Y59546D02*
X121286Y58889D01*
X120654Y58036D01*
X120268Y57047D01*
X120155Y55991D01*
X183089Y64194D02*
X182366Y63620D01*
X181700Y62980D01*
X181098Y62279D01*
X191261Y64189D02*
X190516Y63624D01*
X189834Y62983D01*
X189226Y62273D01*
X154425Y53973D02*
X155348Y53703D01*
X156305Y53621D01*
X114556Y65181D02*
X113940Y64657D01*
X113388Y64066D01*
X86684Y53616D02*
X87527Y53641D01*
X88366Y53735D01*
X89194Y53895D01*
X156305Y66247D02*
X155069Y66137D01*
X153879Y65784D01*
X158167Y64521D02*
X157248Y64783D01*
X156296Y64872D01*
X155344Y64783D01*
X154425Y64521D01*
X153879Y52718D02*
X154838Y52421D01*
X155832Y52270D01*
X156836D01*
X157829Y52421D01*
X158789Y52718D01*
X86676Y52247D02*
X87578Y52262D01*
X88475Y52360D01*
X89359Y52542D01*
X90223Y52804D01*
X175508Y63873D02*
X175133Y64657D01*
X174568Y65318D01*
X173852Y65811D01*
X160674Y64395D02*
X159810Y65192D01*
X158786Y65770D01*
X153879Y65784D02*
X152857Y65209D01*
X151991Y64417D01*
X92448Y54416D02*
X92957Y55218D01*
X93341Y56087D01*
X93591Y57003D01*
X193419Y64866D02*
X192291Y64686D01*
X191261Y64189D01*
X190213Y65003D02*
X189624Y64441D01*
X189114Y63807D01*
X185169Y64872D02*
X184076Y64694D01*
X183089Y64194D01*
X174487Y61283D02*
X174451Y62091D01*
X174322Y62889D01*
X171353Y64872D02*
X170208Y64697D01*
X169161Y64203D01*
X168336Y65131D02*
X167660Y64563D01*
X167048Y63927D01*
X159614Y63472D02*
X158952Y64081D01*
X158167Y64521D01*
X161881Y62201D02*
X161579Y62985D01*
X161174Y63720D01*
X160674Y64395D01*
X160679Y54093D02*
X161177Y54773D01*
X161580Y55513D01*
X161881Y56301D01*
X158789Y52718D02*
X159813Y53297D01*
X160679Y54093D01*
X156305Y53621D02*
X157254Y53704D01*
X158167Y53973D01*
X151991Y64417D02*
X151492Y63744D01*
X151088Y63009D01*
X150787Y62226D01*
X154425Y64521D02*
X153640Y64081D01*
X152978Y63472D01*
X150787Y56292D02*
X151092Y55505D01*
X151499Y54764D01*
X152000Y54084D01*
Y54084D02*
X152859Y53291D01*
X153879Y52718D01*
X140314Y96458D02*
X140174Y96541D01*
X146803Y97248D02*
X146353Y96162D01*
X123477Y60195D02*
X122985Y60004D01*
X128765Y55158D02*
X129621Y55975D01*
X125048Y53621D02*
X126426Y53836D01*
X128227Y53287D02*
X128947Y53765D01*
X129621Y54307D01*
X121204Y64438D02*
X120906Y63876D01*
X120475Y54455D02*
X121351Y53267D01*
X90223Y52804D02*
X91059Y53203D01*
X91809Y53746D01*
X92448Y54416D01*
X79800Y56677D02*
X80098Y55795D01*
X80511Y54960D01*
X84200Y53895D02*
X85020Y53734D01*
X85849Y53641D01*
X86684Y53616D01*
X192597Y66135D02*
X191392Y65750D01*
X193980Y64833D02*
X193708Y64858D01*
X196904Y64503D02*
X196388Y65250D01*
X195675Y65811D01*
X193773Y66247D02*
X192597Y66135D01*
X195906Y63188D02*
X195829Y63430D01*
X183566Y65853D02*
X182406Y65156D01*
X185548Y66247D02*
X184606Y66171D01*
X187779Y65647D02*
X186708Y66113D01*
X185548Y66247D01*
X187703Y62915D02*
X187260Y64030D01*
X166654Y97248D02*
X165567Y97698D01*
X165935Y95947D02*
X165353Y96533D01*
X170712Y66160D02*
X169569Y65834D01*
X173231Y66053D02*
X172493Y66203D01*
X171741Y66247D01*
X172817Y64657D02*
X171353Y64872D01*
X169161Y64203D02*
X168396Y63640D01*
X167687Y63008D01*
X167040Y62312D01*
X158786Y65770D02*
X157983Y66040D01*
X157151Y66200D01*
X156305Y66247D01*
X158167Y53973D02*
X158955Y54418D01*
X159614Y55038D01*
X152978Y55038D02*
X153638Y54418D01*
X154425Y53973D01*
X145988Y73298D02*
X147078Y73756D01*
X123281Y65918D02*
X122937Y65798D01*
X125882Y64872D02*
X125165Y64849D01*
X125374Y66238D02*
X124905Y66211D01*
X127909Y64562D02*
X126910Y64814D01*
X125882Y64872D01*
X128249Y65904D02*
X127073Y66175D01*
X125868Y66247D01*
X129844Y64917D02*
X129105Y65505D01*
X128249Y65904D01*
X123250Y64400D02*
X123052Y64289D01*
X129509Y62432D02*
X129024Y63712D01*
X128020Y60818D02*
X127253Y60805D01*
X125837Y60703D02*
X125188Y60614D01*
X123341Y58748D02*
X123029Y58584D01*
X125359Y59306D02*
X124894Y59228D01*
X127527Y59443D02*
X126382Y59409D01*
X122486Y54282D02*
X123108Y53945D01*
X126426Y53836D02*
X127683Y54394D01*
X124312Y52247D02*
X125611Y52333D01*
X126902Y52651D02*
X128227Y53287D01*
X122667Y52512D02*
X123478Y52310D01*
X124312Y52247D01*
X117269Y64872D02*
X116123Y64632D01*
X116720Y66171D02*
X115671Y65853D01*
X115066Y64005D02*
X114132Y63129D01*
X106110Y97584D02*
X105696Y97413D01*
X105525Y74837D02*
X105974Y73750D01*
X107061Y73298D01*
X107580Y53856D02*
X108385Y53777D01*
X105564Y53398D02*
X106400Y52651D01*
X89194Y53895D02*
X90187Y54283D01*
X91031Y54935D01*
X82363Y54926D02*
X83210Y54284D01*
X84200Y53895D01*
X83776Y52598D02*
X84730Y52390D01*
X85700Y52273D01*
X86676Y52247D01*
X81774Y53552D02*
X82732Y52984D01*
X83776Y52598D01*
X161881Y56301D02*
X162115Y57269D01*
X162256Y58256D01*
X162304Y59251D01*
X162256Y60246D01*
X162115Y61232D01*
X161881Y62201D01*
X160557Y56808D02*
X160774Y57779D01*
X160883Y58767D01*
Y59762D01*
X160774Y60751D01*
X160557Y61721D01*
X152044D02*
X151834Y60750D01*
X151728Y59762D01*
X151728Y58768D01*
X151834Y57780D01*
X152044Y56808D01*
X150787Y62226D02*
X150550Y61252D01*
X150407Y60260D01*
X150359Y59259D01*
X150407Y58258D01*
X150550Y57266D01*
X150787Y56292D01*
X189114Y63807D02*
X188605Y64842D01*
X187779Y65647D01*
X123029Y58584D02*
X122235Y57974D01*
X121717Y57116D01*
X121549Y56128D01*
X91031Y54935D02*
X91719Y55918D01*
X92146Y57040D01*
X81219Y57031D02*
X81658Y55906D01*
X82363Y54926D01*
X79496Y58568D02*
X79602Y57615D01*
X79800Y56677D01*
X196097Y62004D02*
X196068Y62332D01*
X197499Y61403D02*
X197462Y62324D01*
X197165Y63873D02*
X196904Y64503D01*
X195525Y64030D02*
X195081Y64456D01*
X187832Y61283D02*
X187805Y62102D01*
X187703Y62915D01*
X187260Y64030D02*
X186424Y64666D01*
X182406Y65156D02*
X181721Y64574D01*
X181098Y63927D01*
X175881Y61403D02*
X175840Y62324D01*
X173787Y64005D02*
X172817Y64657D01*
X167104Y96162D02*
X166654Y97248D01*
X160557Y61721D02*
X160176Y62645D01*
X159614Y63472D01*
X159614Y55038D02*
X160175Y55875D01*
X160557Y56808D01*
X152978Y63472D02*
X152419Y62646D01*
X152044Y61721D01*
Y56808D02*
X152420Y55875D01*
X152978Y55038D01*
X141895Y96472D02*
X141990Y97289D01*
X129613Y60818D02*
X129589Y61627D01*
X129509Y62432D01*
X131015Y61283D02*
X130951Y62328D01*
X130736Y63352D01*
X130736D02*
X130384Y64188D01*
X129844Y64917D01*
X129024Y63712D02*
X127909Y64562D01*
X125043Y96541D02*
X124628Y96370D01*
X123739Y97248D02*
X123289Y96162D01*
X123467Y64499D02*
X123250Y64400D01*
X123857Y53727D02*
X124134Y53681D01*
X121549Y56128D02*
X121778Y55084D01*
X122486Y54282D01*
X120155Y55991D02*
X120230Y55206D01*
X120475Y54455D01*
X116123Y64632D02*
X115066Y64005D01*
X114132Y63129D02*
X113388Y62125D01*
X106498Y56270D02*
X106621Y54954D01*
X105190Y54642D02*
X105564Y53398D01*
X105104Y56387D02*
X105122Y55513D01*
X105190Y54642D01*
X93591Y57003D02*
X93782Y58151D01*
X93892Y59309D01*
X93920Y60472D01*
X92146Y57040D02*
X92329Y57900D01*
X92453Y58771D01*
X92519Y59648D01*
X92526Y60528D01*
X80829Y60528D02*
X80837Y59646D01*
X80905Y58766D01*
X81032Y57893D01*
X81219Y57031D01*
X80511Y54960D02*
X81071Y54192D01*
X81774Y53552D01*
X79435Y60289D02*
X79445Y59724D01*
X196068Y62332D02*
X196026Y62638D01*
X195972Y62924D02*
X195906Y63188D01*
X197351Y63147D02*
X197165Y63873D01*
X196026Y62638D02*
X195972Y62924D01*
X197462Y62324D02*
X197351Y63147D01*
X196121Y61283D02*
X196097Y62004D01*
X194896Y64565D02*
X194694Y64657D01*
X194694D02*
X194473Y64732D01*
Y64732D02*
X194235Y64791D01*
X193980Y64833D01*
X195675Y65811D02*
X195115Y66053D01*
X195081Y64456D02*
X194896Y64565D01*
X195115Y66053D02*
X193773Y66247D01*
X195829Y63430D02*
X195739Y63652D01*
X195739Y63652D02*
X195638Y63851D01*
X195525Y64030D01*
X193708Y64858D02*
X193419Y64866D01*
X191392Y65750D02*
X190213Y65003D01*
X186424Y64666D02*
X185169Y64872D01*
X184606Y66171D02*
X183566Y65853D01*
X175840Y62324D02*
X175715Y63147D01*
X175715Y63147D02*
X175508Y63873D01*
X173729Y73298D02*
X174145Y73475D01*
X174311Y73895D02*
X173729Y74480D01*
X174145Y73475D02*
X174311Y73895D01*
X173852Y65811D02*
X173231Y66053D01*
X174322Y62889D02*
X173787Y64005D01*
X171741Y66247D02*
X170712Y66160D01*
X169569Y65834D02*
X168336Y65131D01*
X167104Y75063D02*
X167275Y74650D01*
X167275Y74650D02*
X167689Y74480D01*
X165935Y74837D02*
X166385Y73750D01*
X167472Y73298D01*
X147890Y97698D02*
X146803Y97248D01*
X148104Y96533D02*
X147522Y95947D01*
X147078Y73756D02*
X147522Y74851D01*
X145768Y74469D02*
X146182Y74639D01*
X146353Y75052D01*
X141990Y97289D02*
X141276Y97698D01*
X140300Y96296D02*
X140314Y96458D01*
X130693Y73470D02*
X131107Y73298D01*
X130693Y74298D02*
X130522Y73884D01*
X131107Y74469D02*
X130693Y74298D01*
X130522Y73884D02*
X130693Y73470D01*
X127683Y54394D02*
X128765Y55158D01*
X125868Y66247D02*
X125374Y66238D01*
X127253Y60805D02*
X126525Y60767D01*
X126525Y60767D02*
X125837Y60703D01*
X126382Y59409D02*
X125855Y59366D01*
Y59366D02*
X125359Y59306D01*
X125611Y52333D02*
X126902Y52651D01*
X124825Y97698D02*
X123739Y97248D01*
X124628Y96370D02*
X124457Y95956D01*
X123460Y80518D02*
X123874Y80347D01*
X123289Y80932D02*
X123460Y80518D01*
X124287Y80519D02*
X124457Y80932D01*
X123874Y80347D02*
X124287Y80519D01*
X124128Y74483D02*
X124251Y74547D01*
X124128Y73298D02*
X125185Y73856D01*
X124232Y64726D02*
X123958Y64662D01*
X123958Y64662D02*
X123703Y64586D01*
X123703Y64586D02*
X123467Y64499D01*
X123649Y66019D02*
X123281Y65918D01*
X124043Y66101D02*
X123649Y66019D01*
X125165Y64849D02*
X124836Y64820D01*
Y64820D02*
X124524Y64779D01*
X124905Y66211D02*
X124461Y66165D01*
X124524Y64779D02*
X124232Y64726D01*
X124461Y66165D02*
X124043Y66101D01*
X124008Y60360D02*
X123477Y60195D01*
X125188Y60614D02*
X124578Y60500D01*
X124578Y60500D02*
X124008Y60360D01*
X124056Y59022D02*
X123683Y58894D01*
X123341Y58748D01*
X124894Y59228D02*
X124460Y59134D01*
X124460D02*
X124056Y59022D01*
X123108Y53945D02*
X123593Y53786D01*
X123593Y53786D02*
X123857Y53727D01*
X124425Y53648D02*
X124730Y53628D01*
X124730Y53628D02*
X125048Y53621D01*
X124134Y53681D02*
X124425Y53648D01*
X122937Y65798D02*
X122618Y65660D01*
X122056Y65329D02*
X121204Y64438D01*
X122618Y65660D02*
X122056Y65329D01*
X123052Y64289D02*
X122288Y63534D01*
X121936Y62519D01*
X122985Y60004D02*
X122120Y59546D01*
X121351Y53267D02*
X121972Y52825D01*
X122667Y52512D01*
X120789Y63566D02*
X120694Y63236D01*
X120906Y63876D02*
X120789Y63566D01*
X120694Y63236D02*
X120567Y62519D01*
X117637Y66247D02*
X116720Y66171D01*
X118189Y64838D02*
X117773Y64872D01*
X115671Y65853D02*
X114556Y65181D01*
X108894Y53781D02*
X108926Y53783D01*
X108926Y53783D02*
X108993Y53790D01*
X108993D02*
X109027Y53794D01*
X108259Y52407D02*
X108436Y52417D01*
X106693Y96999D02*
X106110Y97584D01*
X106693Y75066D02*
X106865Y74653D01*
X107279Y74483D01*
X106620Y54954D02*
X106983Y54198D01*
X107580Y53856D01*
X106400Y52651D02*
X107847Y52400D01*
X105696Y97413D02*
X105525Y96998D01*
X79445Y59724D02*
X79466Y59150D01*
X133603Y54410D02*
X146406Y70025D01*
X124251Y74547D02*
X140300Y96296D01*
X125185Y73856D02*
X141895Y96472D01*
X125043Y96541D02*
X140174D01*
X124825Y97698D02*
X141276D01*
X167472Y73298D02*
X173729D01*
X167689Y74480D02*
X173729D01*
X131107Y73298D02*
X145988D01*
X131107Y74469D02*
X145768D01*
X134729Y71402D02*
X147834D01*
X134729Y70025D02*
X146406D01*
X133603Y52590D02*
X148191D01*
X135008Y53964D02*
X147834Y69562D01*
X147890Y97698D02*
X165567D01*
X148104Y96533D02*
X165353D01*
X135008Y53964D02*
X148191D01*
X107061Y73298D02*
X124128D01*
X107279Y74483D02*
X124128D01*
X103389Y64529D02*
X105104D01*
X103389Y65904D02*
X105104D01*
X179704D02*
X181098D01*
X179704Y52590D02*
X181098D01*
X165645Y71402D02*
X167040D01*
X165645Y52590D02*
X167040D01*
X128020Y60818D02*
X129613D01*
X127527Y59443D02*
X129621D01*
X120567Y62519D02*
X121936D01*
X105104Y69394D02*
X106498D01*
X111993Y65904D02*
X113388D01*
X106498Y64532D02*
X108698D01*
X106498Y65906D02*
X108698D01*
X108024Y52401D02*
X108082Y52402D01*
X111993Y52590D02*
X113388D01*
X98760Y71402D02*
X100154D01*
X98760Y52590D02*
X100154D01*
X92526Y71402D02*
X93920D01*
X79435D02*
X80829D01*
X196121Y52590D02*
Y61283D01*
X197499Y61403D02*
X197515Y52590D01*
X187832Y52584D02*
Y61283D01*
X189226Y52584D02*
Y62273D01*
X181098Y52590D02*
Y62279D01*
X179704Y52590D02*
Y65904D01*
X174487Y52590D02*
Y61283D01*
X175881Y52590D02*
Y61403D01*
X167040Y52590D02*
Y62312D01*
X165935Y74837D02*
Y95947D01*
X167104Y75063D02*
Y96162D01*
X165645Y52590D02*
Y71402D01*
X147522Y74851D02*
Y95947D01*
X146353Y75052D02*
Y96162D01*
X131015Y52590D02*
Y61283D01*
X123289Y80932D02*
Y96162D01*
X124457Y80932D02*
Y95956D01*
X113388Y52590D02*
Y62125D01*
X111993Y52590D02*
Y65904D01*
X106498Y56270D02*
Y64532D01*
X106693Y75066D02*
Y96998D01*
X105104Y56387D02*
Y64529D01*
X105525Y74837D02*
Y96998D01*
X100154Y52590D02*
Y71402D01*
X98760Y52590D02*
Y71402D01*
X93920Y60472D02*
Y71402D01*
X92526Y60528D02*
Y71402D01*
X80829Y60528D02*
Y71402D01*
X79435Y60475D02*
Y71402D01*
X181098Y63927D02*
Y65904D01*
X167040Y71402D02*
X167048Y63927D01*
X129621Y55975D02*
Y59443D01*
X113388Y64066D02*
Y65904D01*
X147834Y69562D02*
Y71402D01*
X148191Y52590D02*
Y53964D01*
X134729Y70025D02*
Y71402D01*
X133603Y52590D02*
Y54410D01*
X129621Y52590D02*
Y54307D01*
X109024Y52470D02*
X109027Y53794D01*
X106498Y65906D02*
Y69394D01*
X105104Y65904D02*
Y69394D01*
X196121Y52590D02*
X197515D01*
X187832Y52584D02*
X189226D01*
X174487Y52590D02*
X175881D01*
X129621D02*
X131015D01*
X117269Y64872D02*
X117773D01*
X117896Y66247D02*
X118175Y66221D01*
X118189Y64838D01*
X117637Y66247D02*
X117896D01*
X108698Y64532D02*
Y65906D01*
X108385Y53777D02*
X108714D01*
X108771Y53777D01*
X108801Y53778D01*
X108831Y53778D01*
X108862Y53780D01*
X108894Y53781D01*
X108848Y52451D02*
X109024Y52470D01*
X108730Y52440D02*
X108848Y52451D01*
X108612Y52430D02*
X108730Y52440D01*
X108494Y52421D02*
X108612Y52430D01*
X108436Y52417D02*
X108494Y52421D01*
X108200Y52405D02*
X108259Y52407D01*
X108141Y52403D02*
X108200Y52405D01*
X108082Y52402D02*
X108141Y52403D01*
X107965Y52400D02*
X108024Y52401D01*
X107906Y52400D02*
X107965Y52400D01*
X107847Y52400D02*
X107906Y52400D01*
X103389Y64529D02*
Y65904D01*
X79435Y60475D02*
X79435Y60289D01*
X79466Y59150D02*
X79496Y58568D01*
D11*
X200886Y52362D02*
X226870D01*
X200886D02*
Y78346D01*
X226870D01*
Y52362D02*
Y78346D01*
D12*
X192280Y308110D02*
X232279D01*
X192280Y258110D02*
X232279D01*
X192280D02*
Y308110D01*
X232279Y258110D02*
Y308110D01*
X112279D02*
X152279D01*
X112279Y258110D02*
X152279D01*
X112279D02*
Y308110D01*
X152279Y258110D02*
Y308110D01*
X272280Y258110D02*
Y308110D01*
X232280Y258110D02*
Y308110D01*
Y258110D02*
X272280D01*
X232280Y308110D02*
X272280D01*
X152279D02*
X192280D01*
X152279Y258110D02*
X192280D01*
X152279D02*
Y308110D01*
X192280Y258110D02*
Y308110D01*
X72280D02*
X112280D01*
X72280Y258110D02*
X112280D01*
X72280D02*
Y308110D01*
X112280Y258110D02*
Y308110D01*
D13*
X250196Y242322D02*
X248884D01*
X248228Y241666D01*
Y239042D01*
X248884Y238386D01*
X250196D01*
X250852Y239042D01*
Y241666D01*
X250196Y242322D01*
X254788Y241666D02*
X254132Y242322D01*
X252820D01*
X252164Y241666D01*
Y239042D01*
X252820Y238386D01*
X254132D01*
X254788Y239042D01*
X158071Y242977D02*
Y240354D01*
X159383Y239042D01*
X160695Y240354D01*
Y242977D01*
X162007Y238386D02*
X164630D01*
X165942Y242977D02*
Y239042D01*
X168566D01*
X172502Y242322D02*
X171846Y242977D01*
X170534D01*
X169878Y242322D01*
Y241666D01*
X170534Y241010D01*
X171846D01*
X172502Y240354D01*
Y239698D01*
X171846Y239042D01*
X170534D01*
X169878Y239698D01*
X173814Y238386D02*
X176438D01*
X177750Y239042D02*
Y242977D01*
X179717D01*
X180373Y242322D01*
Y241010D01*
X179717Y240354D01*
X177750D01*
X181685Y242977D02*
Y239042D01*
X182997Y240354D01*
X184309Y239042D01*
Y242977D01*
X185621Y239042D02*
Y242977D01*
X186933Y241666D01*
X188245Y242977D01*
Y239042D01*
X197835Y242584D02*
Y239304D01*
X198491Y238648D01*
X199802D01*
X200458Y239304D01*
Y242584D01*
X201770Y237992D02*
X204394D01*
X205706Y242584D02*
Y238648D01*
X208330D01*
X212266Y241928D02*
X211610Y242584D01*
X210298D01*
X209642Y241928D01*
Y241272D01*
X210298Y240616D01*
X211610D01*
X212266Y239960D01*
Y239304D01*
X211610Y238648D01*
X210298D01*
X209642Y239304D01*
X213578Y237992D02*
X216201D01*
X217513Y238648D02*
Y242584D01*
X219481D01*
X220137Y241928D01*
Y240616D01*
X219481Y239960D01*
X217513D01*
X221449Y242584D02*
Y238648D01*
X222761Y239960D01*
X224073Y238648D01*
Y242584D01*
X225385Y238648D02*
Y242584D01*
X226697Y241272D01*
X228009Y242584D01*
Y238648D01*
X116437Y242977D02*
Y239041D01*
X117749Y240353D01*
X119061Y239041D01*
Y242977D01*
X120373Y238385D02*
X122997D01*
X124309Y242977D02*
Y239041D01*
X126932D01*
X130868Y242321D02*
X130212Y242977D01*
X128900D01*
X128244Y242321D01*
Y241665D01*
X128900Y241009D01*
X130212D01*
X130868Y240353D01*
Y239697D01*
X130212Y239041D01*
X128900D01*
X128244Y239697D01*
X132180Y238385D02*
X134804D01*
X136116Y239041D02*
Y242977D01*
X138084D01*
X138740Y242321D01*
Y241009D01*
X138084Y240353D01*
X136116D01*
X140051Y242977D02*
Y239041D01*
X141363Y240353D01*
X142675Y239041D01*
Y242977D01*
X143987Y239041D02*
Y242977D01*
X145299Y241665D01*
X146611Y242977D01*
Y239041D01*
X82447Y242321D02*
X81791Y242977D01*
X80479D01*
X79823Y242321D01*
Y239697D01*
X80479Y239041D01*
X81791D01*
X82447Y239697D01*
Y241009D01*
X81135D01*
X83759Y242977D02*
Y239041D01*
X85726D01*
X86382Y239697D01*
Y242321D01*
X85726Y242977D01*
X83759D01*
X87694Y238385D02*
X90318D01*
X91630Y242977D02*
Y239041D01*
X93598D01*
X94254Y239697D01*
Y242321D01*
X93598Y242977D01*
X91630D01*
X95566D02*
X96878D01*
X96222D01*
Y239041D01*
X95566D01*
X96878D01*
X101469Y242321D02*
X100813Y242977D01*
X99502D01*
X98846Y242321D01*
Y241665D01*
X99502Y241009D01*
X100813D01*
X101469Y240353D01*
Y239697D01*
X100813Y239041D01*
X99502D01*
X98846Y239697D01*
X247475Y252755D02*
X246163D01*
X246819D01*
Y249476D01*
X246163Y248819D01*
X245507D01*
X244851Y249476D01*
X248787Y252099D02*
X249443Y252755D01*
X250754D01*
X251410Y252099D01*
Y251443D01*
X250754Y250787D01*
X250098D01*
X250754D01*
X251410Y250131D01*
Y249476D01*
X250754Y248819D01*
X249443D01*
X248787Y249476D01*
X252722Y252755D02*
Y248819D01*
X254690D01*
X255346Y249476D01*
Y250131D01*
X254690Y250787D01*
X252722D01*
X254690D01*
X255346Y251443D01*
Y252099D01*
X254690Y252755D01*
X252722D01*
X88183Y253936D02*
X86871D01*
X87527D01*
Y250657D01*
X86871Y250001D01*
X86215D01*
X85559Y250657D01*
X92119Y250001D02*
X89495D01*
X92119Y252624D01*
Y253280D01*
X91463Y253936D01*
X90151D01*
X89495Y253280D01*
X96055D02*
X95399Y253936D01*
X94087D01*
X93431Y253280D01*
Y250657D01*
X94087Y250001D01*
X95399D01*
X96055Y250657D01*
Y251969D01*
X94743D01*
X128105Y253543D02*
X126793D01*
X127449D01*
Y250263D01*
X126793Y249607D01*
X126137D01*
X125481Y250263D01*
X132040Y249607D02*
X129417D01*
X132040Y252231D01*
Y252887D01*
X131384Y253543D01*
X130072D01*
X129417Y252887D01*
X135976Y253543D02*
X133352D01*
Y251575D01*
X134664D01*
X133352D01*
Y249607D01*
X168420Y253149D02*
X167108D01*
X167764D01*
Y249869D01*
X167108Y249213D01*
X166452D01*
X165796Y249869D01*
X172355Y249213D02*
X169731D01*
X172355Y251837D01*
Y252493D01*
X171699Y253149D01*
X170387D01*
X169731Y252493D01*
X173667Y253149D02*
Y249213D01*
X175635D01*
X176291Y249869D01*
Y252493D01*
X175635Y253149D01*
X173667D01*
X207947Y252755D02*
X206635D01*
X207291D01*
Y249476D01*
X206635Y248819D01*
X205979D01*
X205323Y249476D01*
X211883Y248819D02*
X209259D01*
X211883Y251443D01*
Y252099D01*
X211227Y252755D01*
X209915D01*
X209259Y252099D01*
X213195Y252755D02*
Y248819D01*
X215163D01*
X215819Y249476D01*
Y250131D01*
X215163Y250787D01*
X213195D01*
X215163D01*
X215819Y251443D01*
Y252099D01*
X215163Y252755D01*
X213195D01*
M02*
