G04*
G04 #@! TF.GenerationSoftware,Altium Limited,Altium Designer,26.7.1 (11)*
G04*
G04 Layer_Color=16711935*
G04 Board_Origin=214816925|133688692*
%FSLAX25Y25*%
%MOIN*%
G70*
G04*
G04 #@! TF.SameCoordinates,3685C11F-F3B2-4E0A-94B4-B1A7EC5887E0*
G04*
G04*
G04 #@! TF.FilePolarity,Positive*
G04*
G01*
G75*
%ADD87C,0.00984*%
%ADD93C,0.00197*%
%ADD94C,0.00050*%
%ADD95C,0.00051*%
D87*
X1575Y7007D02*
X461Y6546D01*
X0Y5432D01*
X3937Y7007D02*
X4956Y7141D01*
X5906Y7535D01*
X6721Y8161D01*
X7347Y8976D01*
X7740Y9925D01*
X7874Y10944D01*
X-41386Y54661D02*
X-41360Y53664D01*
X-41285Y52670D01*
X-41159Y51681D01*
X-40983Y50699D01*
X-40757Y49727D01*
X-40483Y48768D01*
X-40160Y47825D01*
X-39790Y46899D01*
X-39374Y45992D01*
X-38912Y45108D01*
X-38406Y44249D01*
X-37857Y43416D01*
X-37267Y42612D01*
X-36637Y41839D01*
X-35968Y41099D01*
X-35263Y40394D01*
X-34523Y39725D01*
X-33750Y39095D01*
X-32946Y38505D01*
X-32113Y37956D01*
X-31254Y37450D01*
X-30370Y36988D01*
X-29464Y36572D01*
X-28537Y36202D01*
X-27594Y35879D01*
X-26635Y35605D01*
X-25663Y35379D01*
X-24682Y35203D01*
X-23692Y35077D01*
X-22698Y35002D01*
X-21701Y34976D01*
X-21701Y322835D02*
X-22698Y322809D01*
X-23692Y322734D01*
X-24682Y322608D01*
X-25663Y322432D01*
X-26635Y322206D01*
X-27594Y321932D01*
X-28537Y321609D01*
X-29464Y321239D01*
X-30370Y320823D01*
X-31254Y320361D01*
X-32113Y319855D01*
X-32946Y319306D01*
X-33750Y318716D01*
X-34523Y318086D01*
X-35263Y317417D01*
X-35968Y316712D01*
X-36637Y315972D01*
X-37267Y315199D01*
X-37857Y314395D01*
X-38406Y313562D01*
X-38912Y312703D01*
X-39374Y311819D01*
X-39790Y310912D01*
X-40160Y309986D01*
X-40483Y309043D01*
X-40757Y308084D01*
X-40983Y307112D01*
X-41159Y306130D01*
X-41285Y305141D01*
X-41361Y304147D01*
X-41386Y303150D01*
X283221Y303143D02*
X283195Y304140D01*
X283120Y305135D01*
X282994Y306124D01*
X282819Y307106D01*
X282593Y308078D01*
X282319Y309037D01*
X281997Y309981D01*
X281627Y310907D01*
X281211Y311814D01*
X280749Y312698D01*
X280243Y313557D01*
X279694Y314390D01*
X279104Y315194D01*
X278473Y315967D01*
X277805Y316707D01*
X277100Y317413D01*
X276359Y318081D01*
X275586Y318712D01*
X274782Y319302D01*
X273950Y319851D01*
X273090Y320357D01*
X272206Y320818D01*
X271299Y321235D01*
X270373Y321605D01*
X269429Y321927D01*
X268470Y322201D01*
X267498Y322427D01*
X266517Y322602D01*
X265527Y322728D01*
X264532Y322803D01*
X263535Y322828D01*
Y34976D02*
X264532Y35002D01*
X265527Y35077D01*
X266516Y35203D01*
X267498Y35379D01*
X268470Y35605D01*
X269428Y35879D01*
X270372Y36202D01*
X271298Y36572D01*
X272205Y36988D01*
X273089Y37450D01*
X273948Y37956D01*
X274781Y38505D01*
X275585Y39095D01*
X276358Y39725D01*
X277098Y40394D01*
X277803Y41099D01*
X278472Y41839D01*
X279102Y42612D01*
X279692Y43416D01*
X280241Y44249D01*
X280747Y45108D01*
X281209Y45992D01*
X281625Y46899D01*
X281995Y47825D01*
X282318Y48768D01*
X282592Y49727D01*
X282818Y50699D01*
X282994Y51681D01*
X283120Y52670D01*
X283195Y53664D01*
X283221Y54662D01*
X234055Y10944D02*
X234189Y9925D01*
X234583Y8976D01*
X235208Y8161D01*
X236024Y7535D01*
X236973Y7141D01*
X237992Y7007D01*
X241929Y5432D02*
X241468Y6546D01*
X240354Y7007D01*
X228150Y0D02*
X227131Y-134D01*
X226181Y-527D01*
X225366Y-1153D01*
X224740Y-1969D01*
X224347Y-2918D01*
X224213Y-3937D01*
X119390Y-3150D02*
X119287Y-2168D01*
X118981Y-1228D01*
X118488Y-373D01*
X117827Y361D01*
X117028Y941D01*
X116125Y1343D01*
X115159Y1548D01*
X114172D01*
X113206Y1343D01*
X112303Y941D01*
X111504Y361D01*
X110843Y-373D01*
X110349Y-1228D01*
X110044Y-2168D01*
X109941Y-3150D01*
X17717Y-3937D02*
X17582Y-2918D01*
X17189Y-1969D01*
X16564Y-1153D01*
X15748Y-527D01*
X14798Y-134D01*
X13780Y0D01*
X0Y0D02*
Y5432D01*
X1575Y7007D02*
X3937D01*
X7874Y10944D02*
Y34803D01*
X7827Y34850D02*
X7874Y34803D01*
X7827Y34850D02*
Y34976D01*
X-21701Y34976D02*
X7827Y34976D01*
X-41386Y303150D02*
X-41386Y54661D01*
X-21701Y322835D02*
X263535Y322835D01*
X283221Y54662D02*
Y303150D01*
X234008Y34976D02*
X263535Y34976D01*
X234008Y34850D02*
Y34976D01*
Y34850D02*
X234055Y34803D01*
Y10944D02*
Y34803D01*
X237992Y7007D02*
X240354D01*
X241929Y0D02*
Y5432D01*
X228150Y0D02*
X241929D01*
X224213Y-23623D02*
Y-3937D01*
X119390Y-23623D02*
X224213D01*
X119390D02*
Y-3150D01*
X109941Y-23623D02*
Y-3150D01*
X17717Y-23623D02*
X109941D01*
X17717D02*
Y-3937D01*
X0Y0D02*
X13780D01*
D93*
X241831Y5433D02*
X241370Y6547D01*
X240256Y7008D01*
X233957Y10945D02*
X234091Y9926D01*
X234484Y8976D01*
X235110Y8161D01*
X235925Y7535D01*
X236875Y7142D01*
X237894Y7008D01*
X228051Y1D02*
X227032Y-134D01*
X226083Y-527D01*
X225267Y-1153D01*
X224642Y-1968D01*
X224248Y-2918D01*
X224114Y-3936D01*
X119291Y-3150D02*
X119188Y-2167D01*
X118883Y-1228D01*
X118389Y-373D01*
X117728Y361D01*
X116929Y942D01*
X116027Y1344D01*
X115061Y1549D01*
X114073D01*
X113107Y1344D01*
X112205Y942D01*
X111406Y361D01*
X110745Y-373D01*
X110251Y-1228D01*
X109946Y-2167D01*
X109843Y-3150D01*
X17618Y-3936D02*
X17484Y-2918D01*
X17091Y-1968D01*
X16465Y-1153D01*
X15650Y-527D01*
X14700Y-134D01*
X13681Y1D01*
X3839Y7008D02*
X4857Y7142D01*
X5807Y7535D01*
X6622Y8161D01*
X7248Y8976D01*
X7641Y9926D01*
X7776Y10945D01*
X1476Y7008D02*
X363Y6547D01*
X-98Y5433D01*
X241831Y1D02*
Y5433D01*
X237894Y7008D02*
X240256D01*
X228051Y1D02*
X241831D01*
X233957Y10945D02*
Y34803D01*
X224114Y-23622D02*
Y-20553D01*
Y-3936D01*
X119291Y-23622D02*
X224114D01*
X119291D02*
Y-20553D01*
Y-3150D01*
X109843Y-23622D02*
Y-20553D01*
Y-3150D01*
X17618Y-23622D02*
X109843D01*
X17618D02*
Y-20553D01*
Y-3936D01*
X7776Y10945D02*
Y34803D01*
X-98Y1D02*
X13681D01*
X1476Y7008D02*
X3839D01*
X-98Y1D02*
Y5433D01*
D94*
X263535Y34976D02*
X264532Y35002D01*
X265527Y35077D01*
X266516Y35203D01*
X267498Y35379D01*
X268470Y35605D01*
X269428Y35879D01*
X270372Y36202D01*
X271298Y36572D01*
X272205Y36988D01*
X273089Y37450D01*
X273948Y37956D01*
X274781Y38505D01*
X275585Y39095D01*
X276358Y39725D01*
X277098Y40394D01*
X277803Y41099D01*
X278472Y41839D01*
X279102Y42612D01*
X279692Y43416D01*
X280241Y44249D01*
X280747Y45108D01*
X281209Y45992D01*
X281625Y46899D01*
X281995Y47825D01*
X282318Y48768D01*
X282592Y49727D01*
X282818Y50699D01*
X282994Y51681D01*
X283120Y52670D01*
X283195Y53664D01*
X283221Y54662D01*
X-41386Y54661D02*
X-41360Y53664D01*
X-41285Y52670D01*
X-41159Y51681D01*
X-40983Y50699D01*
X-40757Y49727D01*
X-40483Y48768D01*
X-40160Y47825D01*
X-39790Y46899D01*
X-39374Y45992D01*
X-38912Y45108D01*
X-38406Y44249D01*
X-37857Y43416D01*
X-37267Y42612D01*
X-36637Y41839D01*
X-35968Y41099D01*
X-35263Y40394D01*
X-34523Y39725D01*
X-33750Y39095D01*
X-32946Y38505D01*
X-32113Y37956D01*
X-31254Y37450D01*
X-30370Y36988D01*
X-29463Y36572D01*
X-28537Y36202D01*
X-27594Y35879D01*
X-26635Y35605D01*
X-25663Y35379D01*
X-24682Y35203D01*
X-23692Y35077D01*
X-22698Y35002D01*
X-21701Y34976D01*
X-21701Y34976D02*
X7827D01*
X234008Y34976D02*
X263535D01*
D95*
X7827Y34850D02*
Y34976D01*
X234008Y34850D02*
Y34976D01*
M02*
